<svg xmlns="http://www.w3.org/2000/svg" viewBox="0 0 82.5 82.5"><path fill-rule="evenodd" clip-rule="evenodd" fill="#FFF" d="M81.1 8.2c-.8 0-1.4.6-1.4 1.4v53.6c0 1.5-1.2 2.7-2.7 2.7H5.5c-1.5 0-2.7-1.2-2.7-2.7V13.7C2.7 12.2 4 11 5.5 11h67.4c.8 0 1.4-.6 1.4-1.4 0-.8-.6-1.4-1.4-1.4H5.5c-3 0-5.5 2.5-5.5 5.5v49.5c0 3 2.5 5.5 5.5 5.5h32.4L26.5 80.2c-.5.5-.5 1.4 0 1.9s1.4.5 1.9 0l12.8-12.8L54 82.1c.5.5 1.4.5 1.9 0s.5-1.4 0-1.9L44.6 68.7H77c3 0 5.5-2.5 5.5-5.5V9.6c0-.7-.6-1.4-1.4-1.4zm-8.2 49.5H9.6c-.8 0-1.4.6-1.4 1.4 0 .8.6 1.4 1.4 1.4h63.2c.8 0 1.4-.6 1.4-1.4 0-.7-.6-1.4-1.3-1.4z"/><path fill-rule="evenodd" clip-rule="evenodd" fill="#FFF" d="M45.4 0h-8.2c-.8 0-1.4.6-1.4 1.4 0 .8.6 1.4 1.4 1.4h8.2c.8 0 1.4-.6 1.4-1.4-.1-.8-.7-1.4-1.4-1.4zM33 27.5c-.8 0-1.4.6-1.4 1.4v22c0 .8.6 1.4 1.4 1.4.8 0 1.4-.6 1.4-1.4v-22c0-.8-.6-1.4-1.4-1.4zm8.2 5.5c-.8 0-1.4.6-1.4 1.4v16.5c0 .8.6 1.4 1.4 1.4s1.4-.6 1.4-1.4V34.4c0-.8-.6-1.4-1.4-1.4zm8.3 5.5c-.8 0-1.4.6-1.4 1.4v11c0 .8.6 1.4 1.4 1.4s1.4-.6 1.4-1.4v-11c0-.8-.6-1.4-1.4-1.4z" opacity=".5"/></svg>