<svg xmlns="http://www.w3.org/2000/svg" viewBox="0 0 82.3 82.2"><path fill-rule="evenodd" clip-rule="evenodd" fill="#FFF" d="M41.1 19.2c3 0 5.5-2.5 5.5-5.5s-2.5-5.5-5.5-5.5-5.5 2.5-5.5 5.5c.1 3 2.5 5.5 5.5 5.5zm0-8.2c1.5 0 2.7 1.2 2.7 2.7 0 1.5-1.2 2.7-2.7 2.7s-2.7-1.2-2.7-2.7c0-1.5 1.2-2.7 2.7-2.7zm19.2 46.6H45c-.1 0-.1 0-.2.1-.1 0-.1.1-.2.1s-.2.1-.2.2l-.2.2-.1.1L35.8 72c-.4.6-.2 1.4.5 1.8s1.5.1 1.9-.5l7.8-13h14.3c.8 0 1.4-.6 1.4-1.4 0-.7-.6-1.3-1.4-1.3z" opacity=".5"/><path fill-rule="evenodd" clip-rule="evenodd" fill="#FFF" d="M41.1 43.9L53 20.6c1.2-2 1.9-4.4 1.9-6.9C54.8 6.1 48.7 0 41.1 0S27.4 6.1 27.4 13.7c0 2.5.7 4.9 1.9 6.9l11.8 23.3zm0-41.2c6.1 0 11 4.9 11 11 0 1.8-.4 3.5-1.2 5l-9.8 19.7-9.8-19.7c-.8-1.5-1.2-3.2-1.2-5 .1-6 5-11 11-11zm41.1 38.1c-.2-.7-.9-1.2-1.7-1l-10.8 2.8c-2.4-7.3-7.5-13.4-14.2-17L54.3 28c6 3.3 10.6 8.7 12.8 15.2L14.2 57c-.3-1.6-.4-3.2-.4-4.9 0-10.4 5.8-19.4 14.2-24l-1.3-2.4c-9.4 5-15.7 15-15.7 26.4 0 1.9.2 3.8.5 5.6L1 60.4c-.7.2-1.2.9-1 1.7.2.7.9 1.2 1.7 1l10.4-2.7c3.6 12.7 15.2 21.9 29 21.9 16.7 0 30.2-13.5 30.2-30.2 0-2.4-.3-4.7-.8-6.9l10.8-2.8c.7-.2 1.1-.9.9-1.6zM41.1 79.5c-12.5 0-23.1-8.4-26.4-19.9l53.1-13.7c.5 2 .7 4.1.7 6.2.1 15.1-12.2 27.4-27.4 27.4z"/></svg>