<svg xmlns="http://www.w3.org/2000/svg" viewBox="0 0 190.3 36"><path d="M3.7 34H0V2.6h3.7V34zM25 34h-3.7V18.9H6v-3.3h15.3v-13H25V34zm74.8-22.3c0 5.3-3.8 9.1-10 9.1h-5v-3.2h4.9c4.1 0 6.3-2.5 6.3-5.8s-2.1-5.9-6.3-5.9h-7.3V34h-3.7V2.6h11c6.3 0 10.1 3.8 10.1 9.1zm5.2-9.1h25.8V6H105V2.6zm11 5.7h3.7V34H116V8.3zm22.4-5.7h20.1V6h-16.4v24.7h17V34h-20.7V2.6zm6 13h10.3v3.2h-10.3v-3.2zm31.8 7.6L169 34h-4.3l9.4-14 2.1 3.2zM190.3 34H186L165.5 2.6h4.3L190.3 34zm-9.2-18.2l-2.1-3.2 6.3-9.9h4.3l-8.5 13.1zM52.8 36l-16.7-9.6V9.1L51.9 0l15.8 9.1v18.2L52.8 36zm-13-11.8l13 7.4L64 25.1V11.3l-12.1-7-12.1 6.9v13z" fill="#FFF"/></svg>