<svg xmlns="http://www.w3.org/2000/svg" viewBox="0 0 595.3 841.9"><path d="M11.6 471H0v-98.2h11.6V471zm66.6 0H66.6v-47.2H18.8v-10.3h47.9v-40.7h11.6V471zm234-69.8c0 16.6-11.9 28.5-31.3 28.5h-15.6v-10h15.3c12.8 0 19.7-7.8 19.7-18.1s-6.6-18.5-19.7-18.5h-22.8V471h-11.6v-98.2h34.4c19.7 0 31.6 11.9 31.6 28.4zm16.3-28.4h80.7v10.6h-80.7v-10.6zm34.4 17.8h11.6V471h-11.6v-80.4zm70-17.8h62.9v10.6h-51.3v77.3h53.2V471h-64.8v-98.2zm18.8 40.6h32.2v10h-32.2v-10zm99.5 23.8L528.7 471h-13.5l29.4-43.8 6.6 10zm44.1 33.8h-13.5l-64.1-98.2h13.5l64.1 98.2zm-28.8-56.9l-6.6-10 19.7-31h13.5l-26.6 41zm-401.3 63.2l-52.2-30v-54.1l49.4-28.5 49.4 28.5V450l-46.6 27.3zm-40.7-37l40.7 23.1 35-20.3V400l-37.9-21.9-37.9 21.6.1 40.6z" fill="#3C445C"/></svg>