<svg xmlns="http://www.w3.org/2000/svg" viewBox="0 0 102.4 19.3"><path d="M2 18.3H0V1.4h2v16.9zm11.4 0h-2v-8.1H3.2V8.4h8.2v-7h2v16.9zm40.3-12c0 2.9-2.1 4.9-5.4 4.9h-2.7V9.5h2.7c2.2 0 3.4-1.3 3.4-3.1s-1.2-3.2-3.4-3.2h-3.9v15.1h-2V1.4h5.9c3.3 0 5.4 2.1 5.4 4.9zm2.8-4.9h13.9v1.8H56.5V1.4zm5.9 3.1h2v13.8h-2V4.5zm12.1-3.1h10.8v1.8h-8.8v13.3h9.1v1.8H74.5V1.4zm3.2 7h5.5v1.7h-5.5V8.4zm17.1 4.1L91 18.3h-2.3l5.1-7.5 1 1.7zm7.6 5.8h-2.3l-11-16.9h2.3l11 16.9zm-4.9-9.8l-1.1-1.7 3.4-5.3h2.3l-4.6 7zM28.4 19.3l-9-5.2V4.9L27.9 0l8.5 4.9v9.8l-8 4.6zm-7-6.3l7 4 6-3.5V6.1l-6.5-3.8L21.4 6v7z" fill="#FFF"/></svg>