<svg xmlns="http://www.w3.org/2000/svg" viewBox="246.5 411.3 102.3 19.3"><path d="M248.5 429.5h-2v-16.9h2v16.9zm11.4 0h-2v-8.1h-8.2v-1.8h8.2v-7h2v16.9zm40.2-11.9c0 2.8-2 4.9-5.4 4.9H292v-1.7h2.6c2.2 0 3.4-1.3 3.4-3.1s-1.1-3.2-3.4-3.2h-3.9v15.1h-2v-16.9h5.9c3.5 0 5.5 2 5.5 4.9zm2.8-4.9h13.9v1.8h-13.9v-1.8zm5.9 3h2v13.8h-2v-13.8zm12.1-3h10.8v1.8h-8.8v13.3h9.1v1.8h-11.1v-16.9zm3.2 7h5.5v1.7h-5.5v-1.7zm17.1 4l-3.9 5.8H335l5.1-7.5 1.1 1.7zm7.6 5.8h-2.3l-11-16.9h2.3l11 16.9zm-5-9.7l-1.1-1.7 3.4-5.3h2.3l-4.6 7zm-68.9 10.8l-9-5.2v-9.3l8.5-4.9 8.5 4.9v9.8l-8 4.7zm-7-6.3l7 4 6-3.5v-7.4l-6.5-3.8-6.5 3.7v7z" fill="#40465A"/></svg>