<svg xmlns="http://www.w3.org/2000/svg" viewBox="0 0 40.1 40.1"><g fill="#FFF"><path d="M26.1 14.9c-.3-.3-.7-.3-1 0l-4.7 4.7-4.7-4.7c-.3-.3-.7-.3-1 0-.3.3-.3.7 0 1l4.7 4.7-4.7 4.7c-.3.3-.3.7 0 1 .1.1.3.2.5.2s.4-.1.5-.2l4.7-4.7 4.7 4.7c.1.1.3.2.5.2s.4-.1.5-.2c.3-.3.3-.7 0-1l-4.7-4.7 4.7-4.7c.3-.3.3-.8 0-1z"/><path d="M20.1 0C12.6 0 6 4.1 2.6 10.2c-.1.1-.1.2-.2.3-.1.1-.1.3-.2.4C.8 13.7 0 16.8 0 20.1c0 11.1 9 20.1 20.1 20.1 7.5 0 14-4.1 17.5-10.2.1-.1.1-.2.2-.3.1-.1.1-.3.2-.4 1.4-2.7 2.2-5.9 2.2-9.1C40.1 9 31.1 0 20.1 0zM36 29.8c-3.3 5.3-9.2 8.9-15.9 8.9C9.8 38.7 1.4 30.3 1.4 20c0-3.6 1-6.9 2.8-9.7C7.5 5 13.3 1.4 20.1 1.4c10.3 0 18.7 8.4 18.7 18.7-.1 3.5-1.1 6.9-2.8 9.7z"/></g></svg>