<svg xmlns="http://www.w3.org/2000/svg" viewBox="0 0 40.1 40.1"><g fill="#3D455B"><path d="M20.1 0C9 0 0 9 0 20.1c0 11.1 9 20.1 20.1 20.1 11.1 0 20.1-9 20.1-20.1C40.1 9 31.1 0 20.1 0zm0 38.7C9.8 38.7 1.4 30.3 1.4 20 1.4 9.8 9.8 1.4 20.1 1.4c10.3 0 18.7 8.4 18.7 18.7-.1 10.3-8.4 18.6-18.7 18.6z"/><path d="M26.1 14.3h-12c-.4 0-.7.3-.7.7 0 .4.3.7.7.7h12c.4 0 .7-.3.7-.7 0-.4-.3-.7-.7-.7zm0 5.1h-12c-.4 0-.7.3-.7.7 0 .4.3.7.7.7h12c.4 0 .7-.3.7-.7 0-.4-.3-.7-.7-.7zm0 5h-12c-.4 0-.7.3-.7.7 0 .4.3.7.7.7h12c.4 0 .7-.3.7-.7 0-.4-.3-.7-.7-.7z"/></g></svg>