<svg xmlns="http://www.w3.org/2000/svg" viewBox="0 0 631.6 97"><g opacity=".5" fill-rule="evenodd" clip-rule="evenodd" fill="#FFF"><path d="M47.2 23.4c-5 0-9.6 1.8-13.2 4.7-3.6-3-8.2-4.7-13.2-4.7C9.6 23.4.5 32.3.1 43.3H0v24.5h20.6V39.4h2.5v28.4h20.5V39.4H46v28.3h21.9V43.3h-.1c-.2-11-9.3-19.9-20.6-19.9zM70.4 48c0 10.5 7.9 19.1 17.9 19.7V28.3c-9.9.7-17.9 9.2-17.9 19.7zm20.4-19.7v39.4c10-.7 17.9-9.2 17.9-19.7s-7.9-19-17.9-19.7zm79.4-.1v39.4c10-.7 17.9-9.2 17.9-19.7 0-10.4-7.9-19-17.9-19.7zM149.9 48c0 10.5 7.9 19.1 17.9 19.7V28.2c-10 .7-17.9 9.3-17.9 19.8zm-19.6-19.8h-.1c-10.4 0-18.8 8.2-18.8 18.3 0 .4 0 .8.1 1.1v20.1H128V42.5h2.3v25.3h16.9V28.2h-16.9zm101.8.1c-4.4 0-8.4 1.6-11.6 4.2-3.1-2.6-7-4.2-11.4-4.2h-18.4v39.6h18V42.5h2.2v25.3h17.9V42.5h2.1v25.3h19.2V46h-.1c0-9.8-8-17.7-17.9-17.7zm300.2 13.4h-3.2V28.2h-16.2v13.5h-3V28.2h-18.2v39.5h18.2V49.9h3v17.8h16.2V49.9h3.2v17.8h17.8V28.2h-17.8zm39.3-10.5v22.3h-2.3V28.2h-16.7V50c0 10.1 8.4 17.8 18.7 17.8h17.1V28.2h-16.9v3zm38 15.6h22c-.6-10.4-9.4-18.6-20.2-18.6-11.2 0-20.2 8.9-20.2 19.8s9.1 19.8 20.3 19.8c10.6 0 19.3-7.9 20.2-18.1h-21.9v-2.9zM407.7 28.2h17.7v51.9h-17.7zm20.6 0v39.5c9.7-1.2 18.4-9.1 18.4-19.8 0-12.2-8.6-18.7-18.4-19.7zm42.5 2l-.2 13.9h-2.3V28.2h-19V35c0 11 9.1 19.2 20.4 19.2.5 0 1 0 1.4-.1v3h-20c3.4 6.3 10.2 10.6 18 10.6 10.1 0 18.5-7.2 20.1-16.6V28.2h-18.4v2zM359.7 8V0h-6.1v8c-20.6 1.3-37.4 17.3-38.7 37.4h-6.7v6.1h6.8c1.9 19.6 18.4 34.9 38.6 36.2V97h6.1v-9.4c19.8-1.6 35.9-16.8 37.7-36.1h7.7v-6.1h-7.6C396.2 25.5 379.8 9.7 359.7 8zm-27.4 28.8l3 .1L347 27l-.1-2.6h-.4c2.2-.8 4.5-1.3 6.9-1.5v7.3c-7.6 1.4-13.5 7.5-14.7 15.2h-9.1c.5-3.1 1.3-6 2.7-8.6zM380 58.9l-3.1-.1-11.7 9.9v2.6h.3c-1.9.7-3.8 1.1-5.9 1.4v-6.6c6.5-1.1 11.9-5.6 14.2-11.7H367c-2.1 3.4-5.9 5.7-10.2 5.7-5.3 0-9.8-3.4-11.4-8.2H339c1.5 7.2 7.3 12.8 14.5 14.2v6.8c-2.2-.2-4.3-.6-6.3-1.3h.1l.1-2.6-11.8-10-3.1.1v.1c-1.3-2.4-2.2-5-2.6-7.7h5.8c-.3-.2-.6-.6-.6-1 0-.2 0-.3.1-.4.3-.8.6-1.5 1-2.4.2-.4.6-.7 1.1-.7h5.9l.4-1.1c-.3-.2-.4-.5-.4-.9 0-.2 0-.3.1-.5.3-.7.6-1.5 1-2.4.2-.4.6-.7 1.1-.7h1.3c2.1-3.4 5.9-5.6 10.2-5.6 6.6 0 12 5.4 12 12 0 .6 0 1.1-.1 1.6h7.3c.6 0 1.2.5 1.2 1.2 0 .2-.1.4-.2.6 0 .1-.1.2-.1.2h5.5c-.5 2.7-1.3 5.2-2.5 7.5zm-5.2-13.6c-1.2-7.8-7.3-14-15.1-15.3v-7.1c2 .2 3.9.7 5.7 1.3l-.1 2.5 11.7 9.9 2.9-.1c1.4 2.7 2.3 5.6 2.6 8.7l-7.7.1z"/><path d="M351.8 44.1h-4l-.3.7-.3.7h4.5c.3-.1.6-.5.6-.9-.1-.1-.3-.5-.5-.5z"/><path d="M367.3 50.7c.2-.9.4-1.8.4-2.8 0-6-4.9-10.8-10.8-10.8-4.1 0-7.7 2.3-9.5 5.6h-2l-.1.2-.8 1.9-.2.4h.9l-1.3 3.1h-6.7l-.1.2-.8 1.9-.2.4h10c1.2 4.7 5.4 8.2 10.5 8.2 4.1 0 7.7-2.3 9.5-5.7h8.2l.1-.1 1.1-1.9.2-.4h-8.4zm-10.4-12.1c5.1 0 9.2 4.1 9.2 9.2 0 1-.2 1.9-.4 2.8h-3.6c.4-.8.7-1.8.7-2.8 0-3.3-2.6-5.9-5.9-5.9-1.2 0-2.3.4-3.2 1-.1-.1-.3-.2-.5-.3h-3.7c1.4-2.4 4.2-4 7.4-4zm0 18.4c-4.2 0-7.7-2.8-8.8-6.5h3.5c.4.7.9 1.4 1.5 1.9l-.1.2-.1.4h1.2c.9.5 1.8.8 2.9.8 1 0 2-.3 2.9-.8h4.7c-1.8 2.5-4.6 4-7.7 4zm17.4-4.5h-16.2l.5-1.2.1-.3.1-.3c0-.2 0-.4-.1-.5-.1-.1-.2-.1-.3-.2H356l-.1.2-.6 1.4-.1.2-.3.8h-1.4l.6-1.5.3-.7.1-.4H337l.5-1.3h6.7l.1-.2 1.4-3.5.1-.2.2-.4h-.9l.5-1.3h7.3c.2 0 .3.2.5.5.1.3.2.7.2 1.1 0 .8-.4 1.3-.8 1.5l-.4.2.4.3c.4.3.6 1 .3 1.6l-.2.4h6.5c.5 0 .9.2 1 .3.1.2.2.5 0 1.1v.1l-.3.7-.2.4h15l-.6 1.2z"/><path d="M350.7 46.7h-3.8l-.3.8c-.2.4-.3.8-.3.8h4s.2 0 0 0h.6c.3 0 .6-.5.7-.8-.2-.5-.5-.8-.9-.8zm-82-2.3h21v7.5h-21z"/></g></svg>