<svg xmlns="http://www.w3.org/2000/svg" viewBox="332.7 552.2 290 44.6"><g opacity=".5" fill="#FFF"><path d="M354.4 562.9c-2.3 0-4.4.8-6.1 2.2-1.7-1.4-3.7-2.2-6.1-2.2-5.1 0-9.4 4.1-9.5 9.2v11.2h9.5v-13h1.1v13h9.4v-13.1h1.1v13h10V572c0-5-4.2-9.1-9.4-9.1zm10.7 11.3c0 4.9 3.6 8.8 8.2 9.1v-18c-4.6.2-8.2 4.1-8.2 8.9zm9.3-9v18c4.6-.3 8.2-4.2 8.2-9.1 0-4.7-3.6-8.6-8.2-8.9zm36.5-.1v18c4.6-.3 8.2-4.2 8.2-9.1 0-4.6-3.6-8.5-8.2-8.9zm-9.4 9.1c0 4.9 3.6 8.8 8.2 9.1v-18.1c-4.5.3-8.2 4.2-8.2 9zm-8.9-9.1c-4.9 0-8.7 3.7-8.7 8.4v9.8h7.6v-11.5h1v11.6h7.8V565l-7.7.1zm46.7.1c-2.1 0-3.8.7-5.3 2-1.4-1.2-3.2-2-5.2-2h-8.4v18.2h8.2v-11.7h1v11.6h8.2v-11.6h.9v11.6h8.8v-10c0-4.6-3.7-8.1-8.2-8.1zm137.8 6.1h-1.5v-6.2h-7.4v6.2h-1.4v-6.2h-8.3v18.1h8.3v-8.1h1.4v8.1h7.4v-8.1h1.5v8.1h8.1v-18.1h-8.1zm18-4.8v10.2h-1V565h-7.8v10c0 4.7 3.8 8.1 8.6 8.1h7.8v-18.4h-7.8l.2 1.8zm17.4 7.1h10.1c-.3-4.8-4.3-8.5-9.3-8.5-5.1 0-9.3 4.1-9.3 9.1s4.2 9.1 9.4 9.1c4.9 0 8.9-3.6 9.3-8.3h-10l-.2-1.4zm-92.7-8.5h8.1v23.8h-8.1zm9.5 0v18.1c4.5-.6 8.4-4.2 8.4-9.1.1-5.5-3.9-8.5-8.4-9zm19.5.9l-.1 6.4h-1v-7.3H539v3.1c0 5 4.2 8.8 9.4 8.8h.7v1.4h-9.2c1.6 2.9 4.7 4.9 8.2 4.9 4.7 0 8.5-3.3 9.3-7.6v-10.5H549l-.2.8zm-50.9-10.2v-3.6h-2.8v3.6c-9.4.6-17.2 7.9-17.8 17.2h-3.1v2.8h3.1c.8 9 8.4 16 17.7 16.6v4.3h2.8v-4.3c9.1-.7 16.5-7.7 17.3-16.6h3.6V573h-3.5c-.6-9.1-8.2-16.4-17.3-17.2zM485.2 569h1.4l5.3-4.6v-1.2h-.2c1-.4 2.1-.6 3.2-.7v3.4c-3.5.7-6.2 3.5-6.7 7H484c.2-1.3.6-2.7 1.2-3.9zm21.9 10.2h-1.4l-5.3 4.6v1.2h.1c-.8.3-1.8.5-2.7.7v-3.2c3-.5 5.4-2.5 6.5-5.3h-3.1c-.9 1.6-2.7 2.6-4.7 2.6-2.4 0-4.5-1.6-5.2-3.7h-2.9c.7 3.3 3.4 5.9 6.6 6.5v3.1c-1-.1-2-.3-2.9-.6v-1.2l-5.4-4.6h-1.4c-.6-1.1-1-2.3-1.2-3.6h2.6c-.1-.1-.3-.3-.3-.5v-.2c.1-.4.3-.7.5-1.1.1-.2.3-.3.5-.3h2.7l.2-.5c-.1-.1-.2-.2-.2-.4v-.2c.1-.3.3-.7.5-1.1.1-.2.3-.3.5-.3h.6c.9-1.6 2.7-2.5 4.7-2.5 3 0 5.5 2.4 5.5 5.5v.7h3.4c.3 0 .6.2.6.6 0 .1 0 .2-.1.3v.1h2.5c-.2 1.2-.6 2.3-1.2 3.4zm-2.3-6.2c-.6-3.6-3.4-6.5-6.9-7v-3.3c.9.1 1.8.3 2.6.6v1.1l5.3 4.6h1.3c.7 1.2 1 2.5 1.2 4h-3.5z"/><path d="M494.2 572.4h-1.8l-.1.3-.1.3h2c.1 0 .3-.2.3-.4-.1 0-.2-.2-.3-.2z"/><path d="M501.3 575.5c.1-.4.2-.8.2-1.3 0-2.7-2.2-5-5-5-1.9 0-3.6 1-4.4 2.5h-.9v.1l-.4.8-.1.2h.4l-.6 1.4h-3.1v.1l-.4.8-.1.2h4.6c.6 2.2 2.4 3.7 4.9 3.7 1.9 0 3.6-1 4.4-2.6h3.7l.5-.8.1-.2h-.1l-3.7.1zm-4.7-5.6c2.3 0 4.2 1.9 4.2 4.2 0 .5-.1.8-.2 1.3h-1.7c.2-.4.3-.8.3-1.3 0-1.5-1.2-2.7-2.7-2.7-.6 0-1 .2-1.5.5 0 0-.1-.1-.2-.1h-1.7c.7-1.2 2-1.9 3.5-1.9zm0 8.4c-2 0-3.6-1.3-4-3h1.6c.2.3.4.7.7.8v.3h.6c.4.2.8.4 1.3.4s.9-.1 1.3-.4h2.2c-1 1.2-2.3 1.9-3.7 1.9zm7.9-2.1h-7.4l.2-.6v-.4s-.1 0-.1-.1h-1.1v.1l-.3.7v.1l-.1.4h-.7l.3-.7.1-.3v-.2h-8l.2-.6h3.1v-.1l.7-1.6v.1l.1-.2h-.5l.2-.6h3.4c.1 0 .1.1.2.2 0 .1.1.3.1.5 0 .4-.2.6-.4.7l-.2.1.2.1c.2.1.3.5.1.7l-.1.2h2.9c.2 0 .4.1.5.1 0 .1.1.2 0 .5l-.1.3-.1.2h6.9l-.1.4z"/><path d="M493.7 573.6H492l-.1.4c-.1.2-.1.4-.1.4h1.8s.1 0 0 0h.3c.1 0 .3-.2.3-.4-.2-.3-.3-.4-.5-.4zm-37.6-1h9.6v3.5h-9.6z"/></g></svg>