<svg xmlns="http://www.w3.org/2000/svg" viewBox="129.9 270.6 310 47.6"><g opacity=".5" fill="#FFF"><path d="M153 282.1c-2.5 0-4.7.9-6.5 2.3-1.8-1.5-4-2.3-6.5-2.3-5.5 0-10 4.4-10.2 9.8v12H140V290h1.2v13.9h10.1V290h1.2v13.9h10.7v-12c-.2-5.5-4.6-9.8-10.2-9.8zm11.4 12c0 5.2 3.9 9.4 8.8 9.7v-19.3c-4.9.3-8.8 4.5-8.8 9.6zm10-9.6v19.3c4.9-.3 8.8-4.5 8.8-9.7 0-5.1-3.9-9.3-8.8-9.6zm39-.1v19.3c4.9-.3 8.8-4.5 8.8-9.7 0-5-3.9-9.2-8.8-9.6zm-10 9.7c0 5.2 3.9 9.4 8.8 9.7v-19.4c-4.9.4-8.8 4.6-8.8 9.7zm-9.6-9.7c-5.2 0-9.3 4-9.3 9v10.4h8.1v-12.3h1.1v12.4h8.3v-19.5h-8.2zm50 .1c-2.2 0-4.1.8-5.7 2.1-1.5-1.3-3.4-2.1-5.6-2.1h-9V304h8.8v-12.5h1.1v12.4h8.8v-12.4h1v12.4h9.4v-10.7c-.1-4.9-4-8.7-8.8-8.7zm147.3 6.5h-1.6v-6.6h-7.9v6.6h-1.5v-6.6h-8.9v19.4h8.9v-8.7h1.5v8.7h7.9v-8.7h1.6v8.7h8.7v-19.4h-8.7zm19.3-5.1v10.9h-1.1v-12.5H401V295c0 5 4.1 8.7 9.2 8.7h8.3v-19.5h-8.3l.2 1.7zm18.6 7.6h10.8c-.3-5.1-4.6-9.1-9.9-9.1-5.5 0-9.9 4.4-9.9 9.7s4.5 9.7 10 9.7c5.2 0 9.5-3.9 9.9-8.9h-10.7l-.2-1.4zm-99.1-9.1h8.7v25.5h-8.7zm10.1 0v19.4c4.8-.6 9-4.5 9-9.7.1-6-4.2-9.2-9-9.7zm20.9 1l-.1 6.8h-1.1v-7.8h-9.3v3.3c0 5.4 4.5 9.4 10 9.4h.7v1.5h-9.8c1.7 3.1 5 5.2 8.8 5.2 5 0 9.1-3.5 9.9-8.1v-11.2h-9v.9zm-54.5-10.9v-3.9h-3v3.9c-10.1.6-18.4 8.5-19 18.4h-3.3v3h3.3c.9 9.6 9 17.1 18.9 17.8v4.6h3v-4.6c9.7-.8 17.6-8.2 18.5-17.7h3.8v-3h-3.7c-.6-9.9-8.7-17.7-18.5-18.5zm-13.5 14.1h1.5l5.7-4.9v-1.3h-.2c1.1-.4 2.2-.6 3.4-.7v3.6c-3.7.7-6.6 3.7-7.2 7.5h-4.5c.2-1.5.6-2.9 1.3-4.2zm23.4 10.9h-1.5l-5.7 4.9v1.3h.1c-.9.3-1.9.5-2.9.7V303c3.2-.5 5.8-2.7 7-5.7H310c-1 1.7-2.9 2.8-5 2.8-2.6 0-4.8-1.7-5.6-4h-3.1c.7 3.5 3.6 6.3 7.1 7v3.3c-1.1-.1-2.1-.3-3.1-.6v-1.3l-5.8-4.9H293c-.6-1.2-1.1-2.5-1.3-3.8h2.8c-.1-.1-.3-.3-.3-.5v-.2c.1-.4.3-.7.5-1.2.1-.2.3-.3.5-.3h2.9l.2-.5c-.1-.1-.2-.2-.2-.4v-.2c.1-.3.3-.7.5-1.2.1-.2.3-.3.5-.3h.6c1-1.7 2.9-2.7 5-2.7 3.2 0 5.9 2.6 5.9 5.9v.8h3.6c.3 0 .6.2.6.6 0 .1 0 .2-.1.3v.1h2.7c-.1 1.1-.5 2.3-1.1 3.5zm-2.5-6.7c-.6-3.8-3.6-6.9-7.4-7.5v-3.5c1 .1 1.9.3 2.8.6v1.2l5.7 4.9h1.4c.7 1.3 1.1 2.7 1.3 4.3h-3.8z"/><path d="M302.5 292.2h-2l-.1.3-.1.3h2.2c.1 0 .3-.2.3-.4-.1 0-.2-.2-.3-.2z"/><path d="M310.1 295.5c.1-.4.2-.9.2-1.4 0-2.9-2.4-5.3-5.3-5.3-2 0-3.8 1.1-4.7 2.7h-1v.1l-.4.9-.1.2h.4l-.6 1.5h-3.3v.1l-.4.9-.1.2h4.9c.6 2.3 2.6 4 5.2 4 2 0 3.8-1.1 4.7-2.8h4l.5-.9.1-.2h-4.1zm-5.1-6c2.5 0 4.5 2 4.5 4.5 0 .5-.1.9-.2 1.4h-1.8c.2-.4.3-.9.3-1.4 0-1.6-1.3-2.9-2.9-2.9-.6 0-1.1.2-1.6.5 0 0-.1-.1-.2-.1h-1.8c.8-1.2 2.1-2 3.7-2zm0 9c-2.1 0-3.8-1.4-4.3-3.2h1.7c.2.3.4.7.7.9v.3h.6c.4.2.9.4 1.4.4.5 0 1-.1 1.4-.4h2.3c-.9 1.3-2.3 2-3.8 2zm8.5-2.2h-7.9l.2-.6v-.4s-.1 0-.1-.1h-1.2v.1l-.3.7v.1l-.1.4h-.7l.3-.7.1-.3v-.2h-8.6l.2-.6h3.3v-.1l.7-1.7v-.1l.1-.2h-.4l.2-.6h3.6c.1 0 .1.1.2.2 0 .1.1.3.1.5 0 .4-.2.6-.4.7l-.2.1.2.1c.2.1.3.5.1.8l-.1.2h3.1c.2 0 .4.1.5.1 0 .1.1.2 0 .5l-.1.3-.1.2h7.4l-.1.6z"/><path d="M302 293.5h-1.9l-.1.4c-.1.2-.1.4-.1.4h2s.1 0 0 0h.3c.1 0 .3-.2.3-.4-.2-.3-.3-.4-.5-.4zm-40.3-1.1H272v3.7h-10.3z"/></g></svg>