<svg xmlns="http://www.w3.org/2000/svg" viewBox="0 0 82.2 82.2"><path fill-rule="evenodd" clip-rule="evenodd" fill="#FFF" d="M76.8 16.4h-22v-11c0-3-2.5-5.5-5.5-5.5H32.9c-3 0-5.5 2.5-5.5 5.5v4.1c0 .8.6 1.4 1.4 1.4.8 0 1.4-.6 1.4-1.4v-4c0-1.5 1.2-2.7 2.7-2.7h16.4C50.8 2.8 52 4 52 5.5v11H5.5C2.5 16.5 0 19 0 22v54.8c0 3 2.5 5.5 5.5 5.5h67.2c.8 0 1.4-.6 1.4-1.4 0-.8-.6-1.4-1.4-1.4H5.5c-1.5 0-2.7-1.2-2.7-2.7V21.9c0-1.5 1.2-2.7 2.7-2.7h71.3c1.5 0 2.7 1.2 2.7 2.7v58.9c0 .8.6 1.4 1.4 1.4.8 0 1.4-.6 1.4-1.4V21.9c-.1-3-2.5-5.5-5.5-5.5z"/><path fill-rule="evenodd" clip-rule="evenodd" fill="#FFF" d="M23.3 24.7c-.8 0-1.4.6-1.4 1.4v46.6c0 .8.6 1.4 1.4 1.4.8 0 1.4-.6 1.4-1.4V26c0-.7-.6-1.3-1.4-1.3zm-8.2 0c-.8 0-1.4.6-1.4 1.4v46.6c0 .8.6 1.4 1.4 1.4s1.4-.6 1.4-1.4V26c-.1-.7-.7-1.3-1.4-1.3zm52.1 0c-.8 0-1.4.6-1.4 1.4v46.6c0 .8.6 1.4 1.4 1.4.8 0 1.4-.6 1.4-1.4V26c-.1-.7-.7-1.3-1.4-1.3zm-8.3 0c-.8 0-1.4.6-1.4 1.4v46.6c0 .8.6 1.4 1.4 1.4s1.4-.6 1.4-1.4V26c0-.7-.6-1.3-1.4-1.3z" opacity=".5"/></svg>