<svg xmlns="http://www.w3.org/2000/svg" viewBox="0 0 369.9 717.5"><text transform="matrix(-.9397 0 .342 -.9397 299.2 26.207)" fill="#3F365B" font-family="'GOSTTypeA'" font-size="25.031">*</text><text transform="matrix(-.9397 0 .342 -.9397 324.807 14.627)" fill="#3F365B" font-family="'GOSTTypeA'" font-size="25.031">d</text><text transform="matrix(-.9397 0 .342 -.9397 315.872 14.627)" fill="#3F365B" font-family="'GOSTTypeA'" font-size="25.031">9</text><path fill="none" stroke="#3F365B" stroke-miterlimit="10" d="M262.2 140l-1.6-.3 1.6.3zm-1.6-.3h-2.5 2.5zm-2.5 0l-3.8-.3 3.8.3zm-3.8-.3h-6.5 6.5zm-6.5 0l-5.2.3 5.2-.3zm-5.2.3l-1.9.3 1.9-.3zm-1.9.3h-.5.5zm-41.1 20.9V181v-20.1zm75.7-4.1v-.8.8zm-48.2 0v-1.4 1.4zm70.8 436V632v-39.2zm-16.9-4.4h12.5H281zm16.9 43.6l-4.4 4.4 4.4-4.4zm-4.4 4.3H281h12.5zm0-47.9l4.4 4.4-4.4-4.4zm-12.5-.3v48.2-48.2zm-111.9 40.3l8.2 7.9-8.2-7.9zm0-32.1l8.2-8.2-8.2 8.2zm0 0v32.1-32.1zm111.9-8.2H177.2 281zm0 48.2H177.2 281zm-110.3-56.1l-26.4 69.2 26.4-69.2zm-34-5.7l5.2-2.5-5.2 2.5zm5.1-2.4l5.4-1.4-5.4 1.4zm5.5-1.4h5.7-5.7zm5.7 0l5.4 1.1-5.4-1.1zm5.4 1.1l5.4 2.2-5.4-2.2zm5.5 2.2l.8.5-.8-.5zm4.9 4.6l1.9 1.6-1.9-1.6zm-36.2 0l4.1-4.1-4.1 4.1zm32.1-4.1l4.1 4.1-4.1-4.1zm98.6-144.8v-13.1 13.1zM232 365.1l1.6-.5-1.6.5zm1.6-.5l1.1-1.4-1.1 1.4zm1.1-1.4l.3-1.1-.3 1.1zm.5-218.3l-.3 36.2.3-36.2zM272 384.5l3.3-3.3-3.3 3.3zm-12-3.3h-17.7H260zm-29.7 3.3l-3.3-3.3 3.3 3.3zm9.8-244.5h22.1-22.1zm30.3 225.1h4.9-4.9zm1.6 19.4h-8.7 8.7zm-12-3.3l1.6.5-1.6-.5zm1.6.5l1.4 1.6-1.4-1.6zm1.4 1.7l.3 1.1-.3-1.1zm-24 1.1h-8.7 8.7zm-8.7 32.1l-3.3 3.3 3.3-3.3zm8.7 0h-8.7 8.7zm33 0h-8.7 8.7zM262.2 140l4.9 4.9-4.9-4.9zM235 362.1v-181 181zm32.1 0v-181 181zm0-181v-36.2 36.2zm8.2 238.8v9.8-9.8zm-3.3-3.3l3.3 3.3-3.3-3.3zm-44.9 13.1h12-12zm0-64.6v16.1-16.1zm43.3 0l-1.6-.5 1.6.5zm-1.7-.5l-1.4-1.4 1.4 1.4zm-1.3-1.4l-.3-1.1.3 1.1zm-40.3 56.7v9.8-9.8zm0-54.8h4.9-4.9zm11.9 51.5v13.1-13.1zm36.3-51.5v16.1-16.1zm-12 64.6h12-12zm-28.1-284.8l4.9-4.9-4.9 4.9zm3.8 239.6l.5-1.6-.5 1.6zm.6-1.7l1.4-1.4-1.4 1.4zm1.3-1.3l1.4-.3-1.4.3zm-41.3-200.4v20.1-20.1zm0-20.2h9.8-9.8zm38.6 427.2l.8-.8-.8.8zm.8-9.5v-4.1 4.1zm-88.5-8.2l5.7.8-5.7-.8zm5.8.9l5.4 1.6-5.4-1.6zm5.4 1.6l3 1.6-3-1.6zm77.3-94v-7.4 7.4zm-12.8-346H239h-12.8zm-89.5 441.6l5.2-2.5-5.2 2.5zm5.1-2.4l5.4-1.4-5.4 1.4zm5.5-1.4l3.3-.3-3.3.3zm-14.7 7.9l4.1-4.1-4.1 4.1zm52.5-54.7h6.5-6.5zm24.3-363H223h-13.6zm-44.7 413.6l4.1 4.1-4.1-4.1zm61.5-102.9H239h-12.8zM239 644.5h-39.5H239zm-39.4-443.3H223h-23.4zm26.6 270.4v-20.7 20.7zm0-20.7v-16.6 16.6zM101.5 644.5v-32.1 32.1zm137.5 0v-7.4 7.4zm0-70v-45.7 45.7zm0-441.6V76.5v56.4zm-70.2 445.7l4.4 4.4-4.4-4.4zm4.3 4.4l3.5 5.2-3.5-5.2zm3.6 5.1l.3.3-.3-.3zm22.9-511.6h4.9-4.9zM238.2 528l.8.8-.8-.8zm-12-93.7V204.5v229.8zm-26.6-273.4V76.5v84.4zM239 587.3v-8.7 8.7zm-12.8-429.6v-24.8 24.8zm-3.2 3.2l3.3-3.3-3.3 3.3zm0 40.3l3.3 3.3-3.3-3.3zm-31.6 282.4h.3-.3zm-89.9 128.8h16.9-16.9zm136.7 23.9l.8.8-.8-.8zM223.8 76.5H239h-15.2zm-122.3 568H81.9h19.6zm136.7-164.7l.8-.8-.8.8zm-38.6 164.7v-8.2 8.2zm17.7-477H211h6.3zm-18.6 13.6v49.6-49.6zm-4-88.5h4.1-4.1zm4 0v88.5-88.5zm40.3 471h24.2H239zm24.3-6.8v6.5-6.5zm0 6.6v.3-.3zm0-112.5v-16.6 16.6zM239 434.3v-17.7 17.7zm24.3 122.5v-21 21zm0-122.5v-17.7 17.7zm0 122.5H239h24.3zM239 450.9v-16.6 16.6zm0-34.3h24.2H239zm0 63.2v-28.9 28.9zm24.3-8.2v-20.7 20.7zM239 556.8V528v28.8zM267.1 412v-22.6V412zm8.2 0v-22.6V412zM235 389.4V412v-22.6zm-7.9 0V412v-22.6zm0 27.2V412v4.6zm0-27.2v-4.9 4.9zm7.9 0h-7.9 7.9zm32.1 0h8.2-8.2zm8.2 27.2V412v4.6zm-8.2-4.6h8.2-8.2zm-6.3-11.5l6.3-11.2-6.3 11.2zm14.5-11.1v-4.9 4.9zm0 27.2h-48.2 48.2zm0-32.1h-48.2 48.2zm-33.8 16L235 412l6.5-11.5zm0 0l-6.5-11.2 6.5 11.2zm19.3 0l6.3 11.4-6.3-11.4zM235 412h-7.9 7.9zm40.3-206.7h-4.9 4.9zM235 181.1v21-21zm-26.5-15.3l.5 1.1-.5-1.1zm.6 1.1l1.1.5-1.1-.5zm22.9-10.1h-4.9 4.9zm-10.7 44.4h2.5-2.5zm54-44.4h-4.9 4.9zm-55.6 5.8l.5-1.1-.5 1.1zm.6-1.1l1.1-.5-1.1.5zm-10.1 33.2h7.9-7.9zm-9 3.3l3.3 3.3-3.3-3.3zm65.9-37.9v21-21zm-58.6 36.2v3.3-3.3zm11.2 0l-.5-1.1.5 1.1zm-.5-1.1l-1.1-.5 1.1.5zm-18-14.1V198v-16.9zm0-16.9v16.9-16.9zm65.9 37.8l3.3 3.3-3.3-3.3zm0-41.9l3.3-3.3-3.3 3.3zm8.2 21v-24.2 24.2zm-48.2 24.2v-.8.8zm8.1-45.2l-3.3-3.3 3.3 3.3zm-8.1-2.4l-.5 1.9.5-1.9zm-.6 1.9l-1.4 1.1 1.4-1.1zm-1.3 1l-1.4.3 1.4-.3zm-16.7 2v3.3-3.3zm23.5 42.7h-4.9 4.9zm-10.7-44.4h2.5-2.5zm-1.6 4.9l-.5 1.1.5-1.1zm-.5 1.1l-1.1.5 1.1-.5zm15.8 14.2l.3-21-.3 21zm-7.9 23.4l-.5-1.9.5 1.9zm-.6-1.9l-1.4-1.1 1.4 1.1zm-1.3-1.1l-1.4-.3 1.4.3zm50.1 3.8v-24.2 24.2zm-66.8-5.7l-.5 1.1.5-1.1zm-.5 1.1l-1.1.5 1.1-.5zm59.1-19.6v21-21zm-47.4 18.5l.5 1.1-.5-1.1zm.6 1.1l1.1.5-1.1-.5zm-.6-1.1v-3.3 3.3zM235 202l-3 3.3 3-3.3zm-33.8-37.8l3.3-3.3-3.3 3.3zm25.9-6.5v-.8.8zm-22.6 43.5h2.5-2.5zm4-38.6l-.5-1.1.5 1.1zm-.5-1.1l-1.1-.5 1.1.5zm11.7 4.3v-3.3 3.3zm-15.2-4.9h2.5-2.5zm5.7 6.6h7.9-7.9zm-1.7 28.8l.5-1.1-.5 1.1zm.6-1.1l1.1-.5-1.1.5zm29.9-62.3v8.2-8.2zm-12.8 24.8v2.2-2.2zm-21.7-81.2h14.4-14.4zm14.4 0h4.9-4.9zm56.4 79.5l-8.2-.5 8.2.5zm-43.3.8l.8-.3-.8.3zm.8-.2l2.2-.3-2.2.3zm2.2-.3h.3-.3zm32.1 0l2.2.3-2.2-.3zm2.2.3l1.1.3-1.1-.3zm-34.1-1.1H227h8.2zm-76.8 481.4l-7.4 7.4 7.4-7.4zm-7.3 7.3l-6.5 5.2 6.5-5.2zm-6.5 5.2h-.3.3zm-.3 0l-5.4-1.9 5.4 1.9zm-5.5-1.9l-4.9-3 4.9 3zm-4.9-3l-4.6-4.1 4.6 4.1zm-4.6-4.1l-3.8-4.9 3.8 4.9zm-3.8-4.9l-3-5.7 3 5.7zm-3-5.7l-2.5-6.3 2.5 6.3zm-2.4-6.3l-1.1-6.8 1.1 6.8zm-1.1-6.8l-.5-5.7.5 5.7zm-.6-5.7l.5-6.8-.5 6.8zm.6-6.8l1.4-6.5-1.4 6.5zm1.3-6.5l2.5-6.3-2.5 6.3zm2.5-6.3l3.3-5.7-3.3 5.7zm3.2-5.7l3.8-4.6-3.8 4.6zm3.9-4.6l2.7-2.5-2.7 2.5zm145.4-199.9v3.3-3.3zm0 35.4v3.3-3.3zm-48.2 3.3v-3.3 3.3zm0-35.4v-3.3 3.3zm-.9-182.2v2.2-2.2zm-67.8 434.6l6-1.6-6 1.6zm6-1.7l5.2-2.5-5.2 2.5zm5.2-2.4l2.5-1.6-2.5 1.6zm69.4-45.5v.8-.8zm0 49v.8-.8zm-137.5 8.2h32.4-32.4zm16.9-32.1V611v1.4zm0-1.4l.5-6.8-.5 6.8zm.6-6.8l1.4-6.5-1.4 6.5zm1.3-6.5l2.5-6.3-2.5 6.3zm2.5-6.3l3.3-5.7-3.3 5.7zm3.2-5.7l3.8-4.6-3.8 4.6zm3.9-4.6l2.7-2.5-2.7 2.5zm140.5-375.8h-3.3 3.3zm-35.4 0h-3 3zM81.9 644.5l-.5-12.3.5 12.3zm-.5-12.3l.3-11.4-.3 11.4zm.3-11.4l1.1-10.9-1.1 10.9zm1.1-10.9l1.9-10.1-1.9 10.1zm1.9-10.1l2.7-9.3-2.7 9.3zm2.7-9.2l3.5-8.4-3.5 8.4zm3.5-8.5l4.4-7.9-4.4 7.9zm4.4-7.9l5.2-7.1-5.2 7.1zm5.1-7l2.7-3.5-2.7 3.5zm2.8-3.6l4.1-3.3-4.1 3.3zm4.1-3.2l4.9-3-4.9 3zm4.9-3l6.3-2.7-6.3 2.7zm6.2-2.8l7.9-2.2-7.9 2.2zm7.9-2.1l10.9-2.5-10.9 2.5zm10.9-2.5l15.5-3-15.5 3zm15.5-3l10.9-3.3-10.9 3.3zm10.9-3.2l6.8-3-6.8 3zm6.8-3l4.9-3.3-4.9 3.3zm4.9-3.3l1.9-1.6-1.9 1.6zm1.9-1.6l4.1-4.6-4.1 4.6zm4.1-4.7l3.3-5.7-3.3 5.7zm3.3-5.7l2.5-6.5-2.5 6.5zm2.4-6.5l2.2-7.6-2.2 7.6zm2.2-7.6l1.1-9-1.1 9zm1.1-9l.8-10.9-.8 10.9zm.8-10.9v-13.3 13.3zm0-13.4l-.5-18.8.5 18.8zm-.5-18.8v-22.9 22.9zm0-22.8l.8-13.1-.8 13.1zm.8-13.1l.3-2.5-.3 2.5zm.3-2.4l1.6-12-1.6 12zm1.6-12l3.3-17.2-3.3 17.2zm3.3-17.2l5.4-26.7-5.4 26.7zm5.4-26.7l6-31.3-6 31.3zm6-31.3l2.5-20.4-2.5 20.4zm2.5-20.4l1.1-16.6-1.1 16.6zm1-16.6l-.3-10.6.3 10.6zm-.2-10.6l-.8-10.9.8 10.9zm-.8-10.9l-2.2-11.7 2.2 11.7zm-2.2-11.7l-3.5-13.9 3.5 13.9zm-3.6-13.9l-5.2-17.4 5.2 17.4zm-5.1-17.4l-7.6-24 7.6 24zm-7.7-24l-4.6-18.5 4.6 18.5zm-4.6-18.5l-1.9-13.1 1.9 13.1zm-1.9-13.1l-.8-11.7.8 11.7zm-.8-11.7v-.8.8zm0-.8l.3-6.3-.3 6.3zm.3-6.3l.5-10.1-.5 10.1zm.5-10l1.6-16.6-1.6 16.6zm1.6-16.7l2.7-17.4-2.7 17.4zm2.8-17.4l3.8-17.2-3.8 17.2zm3.8-17.1l1.1-4.1-1.1 4.1zm6 136.4v-31.9 31.9zm105.9 270.6H275h30.5zm-35.1 0h-5.7 5.7zm-10.4 0h-30.5H260zm-35.4 0h-5.4 5.4zm-10.3 0h-30.5 30.5zm-19.4-322.6h35.7-35.7zm40.6 0h5.7-5.7zm10.6 0h35.7-35.7zm4.9-47.4v48.7-48.7zm0 53.4v5.2-5.2zm0 10v48.5-48.5zm0 53.4v5.2-5.2zm0 10.1V309v-48.4zm0 53.3v5.2-5.2zm0 9.8v48.7-48.7zm0 53.7v5.2-5.2zm0 9.8v48.7-48.7zm-30.5 13.3h61.3-61.3zm83.9 211.9h-37.3 37.3zm-42.2 0H257h5.2zm-10.1 0h-37 37zm-41.9 0h-5.4 5.4zm-10.4 0h-37 37zm98.1-19.6H172.6h125.3zm0 39.2H172.6h125.3zm-120.7-43.9v48.2-48.2zm42.5-108.3h-28.6 28.6zm0 48.2h-36.5 36.5zm43.6-56.4H239h24.3zm0 64.3H239h24.3zM239 528v-48.2V528zm-69.4 55l-4.4-4.4 4.4 4.4zm-4.3-4.4l-3.8-4.1 3.8 4.1zm-3.9-4.1l-2.7-2.7 2.7 2.7zm-4.6 0l-3.8-3.8 3.8 3.8zm4.1 4.1l-4.1-4.1 4.1 4.1zm7.6 7.6l-7.6-7.6 7.6 7.6zm-1.3 3.3l-10.9-10.9 10.9 10.9zm-10.9-10.9l-4.1-4.1 4.1 4.1zm-4.1-4.1l-3.8-3.8 3.8 3.8zm-4.6 0l-3-3.3 3 3.3zm4 4.1l-4.1-4.1 4.1 4.1zm14.5 14.2l-14.4-14.2 14.4 14.2zm-1.4 3.2l-17.4-17.4 17.4 17.4zm-17.4-17.4l-4.1-4.1 4.1 4.1zm-4.1-4.1l-2.2-2.2 2.2 2.2zm-4.6 0l-.8-.8.8.8zm4.1 4.1l-4.1-4.1 4.1 4.1zm20.6 20.7l-20.7-20.7 20.7 20.7zm-1 3.3l-24.2-24 24.2 24zm-24.3-24l-2.7-3 2.7 3zm-4.6 0l-.3-.5.3.5zm27.5 27.2l-27.5-27.2 27.5 27.2zm-1.4 3.3l-28.9-28.9 28.9 28.9zm-1.1 3.5l-30-30 30 30zm-1.3 3.3l-30.5-30.8 30.5 30.8zm-1.1 3.3l-31.3-31.3 31.3 31.3zm-1.4 3.2L123 590.9l31.6 31.5zm-1.3 3.3l-31.6-31.9 31.6 31.9zm-1.1 3.3l-31.6-31.6 31.6 31.6zm-1.4 3.2l-31.3-31.3 31.3 31.3zm-1.1 3.3L119 604.7l30.7 30.8zm-1.3 3.3l-30-29.7 30 29.7zM147 642l-28.6-28.3L147 642zm-1.1 3.3l-27-26.7 27 26.7zm-1.3 3.3l-24.2-24 24.2 24zm-5.8-1.1l-15.2-15.2 15.2 15.2zm124.5-230.4l-.5-.5.5.5zm0 6.8l-7.4-7.4 7.4 7.4zm0 6.9l-14.2-14.2 14.2 14.2zm-3.3 3.5l-17.7-17.7 17.7 17.7zm3.3 3.3l-3.3-3.3 3.3 3.3zm0 6.8L253 434.3l10.3 10.1zm-10.4-10.1L239 420.4l13.9 13.9zm-6.8 0l-7.1-7.1 7.1 7.1zm16.9 16.6l-16.9-16.6 16.9 16.6zm.3.3l-.3-.3.3.3zm0 6.8l-7.1-7.1 7.1 7.1zm-7.1-7.1l-16.9-16.6 16.9 16.6zm-16.9-16.6l-.3-.3.3.3zm10.1 16.6L239 440.8l10.4 10.1zm13.9 13.9l-13.9-13.9 13.9 13.9zm-.3 6.8l-20.4-20.7 20.4 20.7zm-20.4-20.7l-3.5-3.3 3.5 3.3zm13.6 20.7L239 454.4l17.2 17.2zm-6.8 0L239 461.3l10.4 10.3zm-6.8 0l-3.5-3.5 3.5 3.5zm20.7 68.3l-4.1-4.1 4.1 4.1zm0 6.8l-10.9-10.9 10.9 10.9zm0 6.9l-17.7-17.7 17.7 17.7zm-3.8 3.2L239 536.4l20.5 20.4zm-6.8 0L239 543.2l13.7 13.6zm-6.9 0L239 550l6.8 6.8zm29.5-170.7l-1.4-1.6 1.4 1.6zm0 2.2l-3.8-3.8 3.8 3.8zm-1.1 1.1l-4.9-4.9 4.9 4.9zm-2.5 0l-4.6-4.9 4.6 4.9zm-2.2 0l-4.9-4.9 4.9 4.9zm-2.1 0l-4.9-4.9 4.9 4.9zm-1.1 1.3l-6-6.3 6 6.3zm-.8 1.4l-7.6-7.6 7.6 7.6zm-.9 1.6l-9-9.3 9 9.3zm-.8 1.4l-10.6-10.6 10.6 10.6zm-.8 1.3l-12-12 12 12zm-.8 1.7l-13.3-13.6 13.3 13.6zm13.1 15.2l-1.4-1.4 1.4 1.4zm-13.9-13.9l-15-15 15 15zm0 2.2l-17.2-17.2 17.2 17.2zm13.9 13.9l-3.8-3.5 3.8 3.5zm-1.1 1.1l-4.9-4.6 4.9 4.6zm-9.8-9.5L242 384.5l22.4 22.6zm7.3 9.5l-32.1-32.1 32.1 32.1zm-2.2 0l-32.1-32.1 32.1 32.1zm-2.1 0l-32.1-32.1 32.1 32.1zm-2.5 0l-32.1-32.1 32.1 32.1zm-2.2 0l-32.1-32.1 32.1 32.1zm-2.1 0L237.7 394l22.9 22.6zm-27.5-27.2l-4.6-4.9 4.6 4.9zm-2.2 0l-3.8-3.8 3.8 3.8zm27.2 27.2l-17.4-17.4 17.4 17.4zm-2.2 0l-15-15 15 15zm-27.2-27.2l-1.6-1.6 1.6 1.6zm25 27.2l-13.6-13.3 13.6 13.3zm-2.4 0l-12-12 12 12zm-2.2 0L238.5 406l10.6 10.6zm-2.2 0l-9.3-9.3 9.3 9.3zm-2.4 0l-7.6-7.6 7.6 7.6zm-2.2 0l-6.3-6.3 6.3 6.3zm-2.2 0l-4.9-4.9 4.9 4.9zm-2.4 0l-4.9-4.6 4.9 4.6zm-2.2 0l-4.9-4.6 4.9 4.6zm-2.4 0l-4.6-4.6 4.6 4.6zm-2.2 0l-3.8-3.8 3.8 3.8zm-2.2 0l-1.6-1.6 1.6 1.6zm44.9-211.3l1.6-1.6-1.6 1.6zm-3.5-.3l5.2-5.2-5.2 5.2zm-1.7-1.9l6.8-6.8-6.8 6.8zm-1.3-2.4l8.2-8.2-8.2 8.2zm0-3.6l8.2-8.2-8.2 8.2zm0-3.8l8.2-7.9-8.2 7.9zm0-3.5l8.2-8.2-8.2 8.2zm5.2-8.7l3-3-3 3zm-5.2 5.1l5.2-5.2-5.2 5.2zm0-3.8l1.6-1.4-1.6 1.4zm1.6-1.3l6.5-6.5-6.5 6.5zm-1.6-2.2l8.2-8.2-8.2 8.2zm0-3.5l8.2-8.2-8.2 8.2zm0-3.9l8.2-7.9-8.2 7.9zm-37 33.8l4.9-5.2-4.9 5.2zm37-37.3l8.2-8.2-8.2 8.2zm0-3.5l7.6-7.6-7.6 7.6zm-40 40l7.9-7.9-7.9 7.9zM226 202l9-9.3-9 9.3zm41.1-41.4l3.8-3.8-3.8 3.8zM223 201.2l12-12-12 12zm-3-.8l15-15-15 15zm-.3-3.3l15.2-15.2-15.2 15.2zm-1.1-2.4l13.6-13.6-13.6 13.6zm13.6-13.6l2.7-2.7-2.7 2.7zm-3.5 0l6.3-6.5-6.3 6.5zm-13.6 13.6l13.6-13.6-13.6 13.6zm-10.1 6.5l3.5-3.8-3.5 3.8zm6.3-6.5l13.6-13.6-13.6 13.6zm13.6-13.6L235 171l-10.1 10.1zm-3.6 0l13.6-13.6-13.6 13.6zm-18.5 18.5l18.5-18.5-18.5 18.5zm-1.6-2.2l16.6-16.3-16.6 16.3zm16.6-16.3l17.4-17.4-17.4 17.4zm-3.8 0l21-21-21 21zm-12.8 12.8l12.8-12.8-12.8 12.8zm0-3.6l9.3-9.3-9.3 9.3zm9.3-9.2l22.9-22.9-22.9 22.9zm-3.6 0l24-24.2-24 24.2zm-5.7 5.4l5.7-5.4-5.7 5.4zm0-3.5l1.9-1.9-1.9 1.9zm1.9-1.9l13.6-13.6-13.6 13.6zm16.6-16.6l3.5-3.5-3.5 3.5zm7.4-7.4l.3-.3-.3.3zm-25.9 22.1l12-11.7-12 11.7zm0-3.6l8.4-8.4-8.4 8.4zm0-3.5l7.4-7.4-7.4 7.4zm0-3.8l6.8-6.8-6.8 6.8zm0-3.6l3.8-3.8-3.8 3.8zm65.9-16.6l-8.2-8.2 8.2 8.2zm0 4.7L254.3 140l12.8 12.8zm0 4.6L249.9 140l17.2 17.4zm0 4.6l-21.8-22 21.8 22zm0 4.4L240.7 140l26.4 26.4zm0 4.6l-28.9-29.1 28.9 29.1zm0 4.6l-31.3-31.3 31.3 31.3zm0 4.4l-31.9-31.9 31.9 31.9zm0 4.6l-3.5-3.5 3.5 3.5zm-3.6-3.5l-28.3-28.6 28.3 28.6zm-4.3 0l-24-24 24 24zm7.9 8.1l-7.9-8.2 7.9 8.2zm0 4.7l-12.5-12.8 12.5 12.8zm-12.5-12.8l-19.3-19.3 19.3 19.3zm-4.7 0l-15-15 15 15zm17.2 17.1L249.9 181l17.2 17.2zm0 4.7l-21.8-21.8 21.8 21.8zm-21.8-21.8L235 170.7l10.3 10.4zm-4.4 0l-6-5.7 6 5.7zm26.2 26.4L241 181.1l26.1 26.4zm0 4.3L236.3 181l30.8 30.8zm-30.8-30.7l-1.4-1.4 1.4 1.4zm30.8 35.4L235 184.3l32.1 32.2zm0 4.6L235 189l32.1 32.1zm0 4.6L235 193.3l32.1 32.4zm0 4.4L235 198l32.1 32.1zm0 4.6L235 202.6l32.1 32.1zm0 4.6L235 207.2l32.1 32.1zm0 4.4L235 211.6l32.1 32.1zm0 4.6L235 216.2l32.1 32.1zm0 4.7L235 220.8l32.1 32.2zm0 4.3L235 225.2l32.1 32.1zm0 4.6L235 229.8l32.1 32.1zm0 4.7L235 234.4l32.1 32.2zm0 4.6L235 238.8l32.1 32.4zm0 4.4L235 243.4l32.1 32.2zm0 4.6L235 248.1l32.1 32.1zm0 4.6L235 252.7l32.1 32.1zm0 4.4L235 257l32.1 32.2zm0 4.6L235 261.7l32.1 32.1zm0 4.6L235 266.3l32.1 32.1zm0 4.4L235 270.7l32.1 32.1zm0 4.6L235 275.3l32.1 32.1zm0 4.6L235 279.9l32.1 32.1zm0 4.7L235 284.3l32.1 32.4zm0 4.3L235 288.9l32.1 32.1zm0 4.7L235 293.5l32.1 32.2zm0 4.6L235 298.2l32.1 32.1zm0 4.3L235 302.5l32.1 32.1zm0 4.7L235 307.1l32.1 32.2zm0 4.6L235 311.8l32.1 32.1zm0 4.6L235 316.1l32.1 32.4zm0 4.4L235 320.8l32.1 32.1zm8.2 12.5l-.3-.3.3.3zm-8.2-7.9L235 325.4l32.1 32.1zm0 4.6L235 330l32.1 32.1zm8.2 7.9l-4.9-4.9 4.9 4.9zm0 4.7L235 334.4l40.3 40.3zm0 4.6L235 339l40.3 40.3zm-1.1 3.3l-39.2-39 39.2 39zm-2.8 1.9L235 348l36.4 36.5zm-4.3 0L235 352.6l32.1 31.9zm-7.9-3.3l-24.2-24 24.2 24zm-4.6 0L235 361.6l19.6 19.6zm-4.4 0l-16.6-16.3 16.6 16.3zm-4.6 0l-16.1-16.1 16.1 16.1zm-4.4.3L227 367.3l14.2 14.2zm34.1 38.6l-3.5-3.5 3.5 3.5zM239 383.9l-12-12 12 12zm-3.8.6l-8.2-8.2 8.2 8.2zm40.1 40.3l-7.9-8.2 7.9 8.2zm0 4.3l-12-12 12 12zm-44.7-44.6l-3.5-3.5 3.5 3.5zm40.6 45.2l-7.9-7.9 7.9 7.9zm-4.7 0l-3.3-3.5 3.3 3.5zm-27.5-9.3l-3.5-3.8 3.5 3.8zm0 4.4l-8.2-8.2 8.2 8.2zm0 4.6l-10.6-10.9 10.6 10.9zm-4.3.3l-7.6-7.9 7.6 7.9zm-4.6 0l-3-3.3 3 3.3zM239 79.2l-2.7-2.7 2.7 2.7zm0 6.8l-9.5-9.5L239 86zm0 6.8L223.2 77 239 92.8zm-15.8-15.7l-.5-.5.5.5zm-4.3 2.4l-3-3 3 3zm1.1 1.1l-1.1-1.1 1.1 1.1zm19 19.1l-19-19.1 19 19.1zm0 6.8l-20.1-20.1 20.1 20.1zm-20.1-20.2l-9.5-9.5 9.5 9.5zm-9.5-9.5l-.3-.3.3.3zm0 6.8l-7.1-7.1 7.1 7.1zm9.5 9.5l-9.5-9.5 9.5 9.5zm20.1 20.2l-20.1-20.1 20.1 20.1zm0 6.8L218.9 100l20.1 20.1zm-20.1-20.2l-9.5-9.5 9.5 9.5zm-9.5-9.5l-9.8-9.5 9.8 9.5zm0 6.8l-9.8-9.5 9.8 9.5zm9.5 9.5l-9.5-9.5 9.5 9.5zm20.1 20.2l-20.1-20.1 20.1 20.1zm-.8 6l-19.3-19.1 19.3 19.1zm-19.3-19.1l-9.5-9.8 9.5 9.8zm-9.5-9.8l-9.8-9.5 9.8 9.5zm0 6.8l-9.8-9.5 9.8 9.5zm9.5 9.8l-9.5-9.8 9.5 9.8zm12.5 12.3l-12.5-12.3 12.5 12.3zm-5.2 1.6l-7.4-7.1 7.4 7.1zm-7.3-7.1l-9.5-9.8 9.5 9.8zm-9.5-9.8l-9.8-9.5 9.8 9.5zm0 6.8l-9.8-9.5 9.8 9.5zm9.5 9.8l-9.5-9.8 9.5 9.8zm7.3 7.1l-7.4-7.1 7.4 7.1zm0 6.8l-7.4-7.1 7.4 7.1zm-7.3-7.1l-9.5-9.8 9.5 9.8zm-9.5-9.8l-9.8-9.5 9.8 9.5zm0 6.8l-9.8-9.5 9.8 9.5zm9.5 9.9l-9.5-9.8 9.5 9.8zm7.3 7l-7.4-7.1 7.4 7.1zm-2.1 4.9l-5.2-5.2 5.2 5.2zm-5.2-5.1l-9.5-9.8 9.5 9.8zm-9.5-9.8l-9.8-9.5 9.8 9.5zm0 6.8l-9.8-9.5 9.8 9.5zm9.2 9.2l-9.3-9.3 9.3 9.3zm-7.1 0l-2.2-2.2 2.2 2.2zm-2.1-2.2l-9.8-9.8 9.8 9.8zm-4.7 2.2l-5.2-5.2 5.2 5.2zm21.5 48.8l-8.4-8.4 8.4 8.4zm0 6.8L211 201.2l15.2 15.3zm0 6.8l-22.1-22.1 22.1 22.1zm0 6.8l-26.7-26.4 26.7 26.4zm0 6.8l-26.7-26.4 26.7 26.4zm0 6.8l-26.7-26.4 26.7 26.4zm0 6.8l-26.7-26.4 26.7 26.4zm0 6.8l-26.7-26.4 26.7 26.4zm0 6.8l-24.5-24.2 24.5 24.2zm0 6.8l-21.5-21.5 21.5 21.5zm0 6.8l-19.1-19.1 19.1 19.1zm0 6.8L209 267.3l17.2 17.2zm0 6.8l-15.8-15.8 15.8 15.8zm0 7.1l-15-15.2 15 15.2zm0 6.8l-14.7-15 14.7 15zm0 6.8l-14.7-15 14.7 15zm0 6.8l-15-15 15 15zm0 6.9l-15.5-15.5 15.5 15.5zm0 6.8l-16.1-16.1 16.1 16.1zm0 6.8l-16.6-16.6 16.6 16.6zm0 6.8l-17.4-17.4 17.4 17.4zm0 6.8L208 334.6l18.2 18.3zm0 6.8l-19.3-19.3 19.3 19.3zm0 6.8l-20.4-20.4 20.4 20.4zm0 6.8l-21.5-21.5 21.5 21.5zm0 6.8l-22.6-22.6 22.6 22.6zm0 6.8l-23.7-23.7 23.7 23.7zm0 6.8l-25.1-24.8 25.1 24.8zm0 6.8l-26.1-25.9 26.1 25.9zm0 6.8L199 380.1l27.2 27.2zm0 6.8l-28.3-28.3 28.3 28.3zm0 7.1l-29.7-29.7 29.7 29.7zm0 6.8l-30.8-30.8 30.8 30.8zm0 6.8L194.4 403l31.8 31.8zm0 6.8l-32.7-32.9 32.7 32.9zm0 6.9l-33.8-33.8 33.8 33.8zm0 6.8l-34.6-34.6 34.6 34.6zm12.8 19.6l-3.3-3.3 3.3 3.3zm-12.8-12.8l-35.4-35.4 35.4 35.4zm0 6.8l-35.7-35.7 35.7 35.7zm10.9 10.9l-8.2-8.2 8.2 8.2zm-6.8 0l-40-40 40 40zm-6.8 0l-33.2-33.2 33.2 33.2zm-7.1 0l-25.9-26.1 25.9 26.1zm-6.8 0l-18.8-19.1 18.8 19.1zm-6.8 0l-12-12 12 12zm-6.8 0l-4.9-5.2 4.9 5.2zm43 49.8l-1.6-1.6 1.6 1.6zm-46.5-46.8l-1.1-1.1 1.1 1.1zm46.5 53.6l-8.4-8.4 8.4 8.4zm0 6.8L223.8 528l15.2 15.2zm0 6.8l-22-22 22 22zm0 6.8L210.2 528l28.8 28.8zm0 6.8L203.4 528l35.6 35.6zm0 6.8L196.6 528l42.4 42.4zm0 6.8l-53.4-53.4 53.4 53.4zm0 6.9l-55.8-55.8 55.8 55.8zm-2.7 4l-55.8-55.8 55.8 55.8zm-6.8 0l-52.3-52.3 52.3 52.3zm-6.8 0l-49-49 49 49zm-6.8 0l-46.6-46.6 46.6 46.6zm-6.8 0l-44.7-44.7 44.7 44.7zm-6.8 0l-43-43 43 43zm-6.8 0l-41.7-41.4 41.7 41.4zm43.5 50.4l-2.2-2.2 2.2 2.2zm-50.3-50.4l-40.3-40.3 40.3 40.3zm-6.8 0l-39.2-39.2 39.2 39.2zm56.3 56.4l-8.2-8.2 8.2 8.2zm-6.8 0l-8.2-8.2 8.2 8.2zm-72.7-72.7L136.9 550l21.8 21.8zm-8.2-1.4l-19.3-19.1 19.3 19.1zm74.1 74.1l-8.2-8.2 8.2 8.2zm-7.1 0l-7.9-8.2 7.9 8.2zm-72.9-73.2l-18.8-18.8 18.8 18.8zm-5.2 1.9l-19.1-19.1 19.1 19.1zm71.3 71.3l-7.9-8.2 7.9 8.2zm-6.8 0l-4.4-4.4 4.4 4.4zm-68.6-68.9l-19.9-19.9 19.9 19.9zm-3.5 3.5l-21-21.2 21 21.2zm-3.3 3.6l-21.8-22.1 21.8 22.1zm-3 3.8l-22.6-22.6 22.6 22.6zm-2.5 4.4l-23.1-23.1 23.1 23.1zm-1.9 4.9l-24.2-24.2 24.2 24.2zm-1.6 5.1l-25.3-25.3 25.3 25.3zm-.8 6l-27-27 27 27zm-1.4 5.5l-27.8-27.8 27.8 27.8zm-6.8 0l-22.9-22.9 22.9 22.9zm-6.8 0L86 594.7l17.7 17.7zm-2.2 4.6l-16.9-16.9 16.9 16.9zm0 6.8l-18.2-18 18.2 18zm0 7.1l-19.1-19.3 19.1 19.3zm0 6.8l-19.6-19.9 19.6 19.9zm0 6.8l-20.1-20.1 20.1 20.1zm-6.8 0l-13.3-13.6 13.3 13.6zm-6.8 0l-6.5-6.5 6.5 6.5zm110.3-415.8l.5-.5-.5.5zm-1.1-3.5l1.6-1.6-1.6 1.6zm-1.1-3.3l2.7-3-2.7 3zm-1.1-3.5l3.8-3.8-3.8 3.8zm-1.1-3.6l4.9-4.9-4.9 4.9zm-1-3.5l6-6-6 6zm-.9-3.5l6.8-7.1-6.8 7.1zm-1.1-3.6l7.9-7.9-7.9 7.9zm-1-3.5l9-9-9 9zm-.9-3.6l9.8-10.1-9.8 10.1zm-.8-3.8l10.6-10.6-10.6 10.6zm-.8-3.8l11.4-11.4-11.4 11.4zm-.8-3.8l12.3-12.3-12.3 12.3zm-.6-3.8l12.8-12.8-12.8 12.8zm-.5-4.1l13.3-13.3-13.3 13.3zm-.3-4.1l13.6-13.9-13.6 13.9zm-.2-4.3l13.9-14.2-13.9 14.2zm-.3-4.4l14.2-14.2-14.2 14.2zm0-4.6l14.2-14.2-14.2 14.2zm.3-4.7l13.9-14.2-13.9 14.2zm.2-4.9l13.6-13.6-13.6 13.6zm.3-4.9l13.3-13.3-13.3 13.3zm.5-4.9l12.8-13.1-12.8 13.1zm.6-5.1l12.3-12.3-12.3 12.3zm.5-5.2l11.7-11.7-11.7 11.7zm.9-5.2l10.9-11.2-10.9 11.2zm.8-5.4l10.1-10.3-10.1 10.3zm1.1-5.7l9-9-9 9zm1-5.5l7.9-8.2-7.9 8.2zm1.4-6l6.5-6.8-6.5 6.8zm1.4-6l4.4-4.4-4.4 4.4zm-43.1 558.5v-45.5 45.5zm0-91.2v45.7-45.7zm38.7 45.7h-38.7 38.7zm-77 0h38.4-38.4zm161.4-441.4l-1.1-.3 1.1.3zm-1.1-.2l-.5 1.1.5-1.1zm-.5 1.1l1.1.3-1.1-.3zm1.1.2l.5-1.1-.5 1.1zm.5-1.1l.5-.3-.5.3zm.6-.2l-1.9-.8 1.9.8zm-1.9-.8l-.8 2.2.8-2.2zm-.9 2.1l1.9.8-1.9-.8zm1.9.9l.8-2.2-.8 2.2zm.9-2.2l.8-.3-.8.3zm.8-.3l-3.3-1.4 3.3 1.4zm-3.3-1.4l-1.1 3.3 1.1-3.3zm-1.1 3.3l3.3 1.4-3.3-1.4zm3.3 1.4l1.1-3.3-1.1 3.3zm59.1-28.9l-60.2 26.7 60.2-26.7zm0 0V97.5v44.9z"/><text transform="matrix(0 -.9397 .9397 .342 329.611 135.937)" fill="#3F365B" font-family="'GOSTTypeA'" font-size="35.213">1</text><text transform="matrix(0 -.9397 .9397 .342 329.611 126.407)" fill="#3F365B" font-family="'GOSTTypeA'" font-size="35.213">6</text><path fill="none" stroke="#3F365B" stroke-miterlimit="10" d="M259.5 391.3l-.5-.8.5.8zm-.6-.8l-1.1.8 1.1-.8zm-1.1.8l.8.8-.8-.8zm.8.8l.8-.8-.8.8zm.9-.8l.8.3-.8-.3zm.8.2l-1.4-1.9 1.4 1.9zm-1.4-1.9l-1.6 1.4 1.6-1.4zm-1.6 1.4l1.4 1.9-1.4-1.9zm1.3 1.9l1.6-1.4-1.6 1.4zm1.7-1.4h.8-.8zm.8 0l-1.9-2.7 1.9 2.7zm-1.9-2.7l-2.7 2.2 2.7-2.2zm-2.7 2.2l1.9 2.7-1.9-2.7zm1.9 2.7l2.7-2.2-2.7 2.2zm107.5 12.5l-107.3-15 107.3 15zm0 0v44.9-44.9z"/><text transform="matrix(0 -.9397 .9397 .342 362.631 444.65)" fill="#3F365B" font-family="'GOSTTypeA'" font-size="35.213">1</text><text transform="matrix(0 -.9397 .9397 .342 362.631 435.121)" fill="#3F365B" font-family="'GOSTTypeA'" font-size="35.213">8</text><path fill="none" stroke="#3F365B" stroke-miterlimit="10" d="M212.6 201.2h-68.3 68.3zm-62.1 0l-1.9-16.1 1.9 16.1zm-1.9-16l1.9 1.6-1.9-1.6zm1.9 1.6l2.2-1.6-2.2 1.6zm2.2-1.6l-2.2 16.1 2.2-16.1zm-2.4 13.6v-12.3 12.3zm-.3-2.2v-10.3m-.3 7.8V186m-.2 6v-6.3m-.3 3.8v-4.1m-.3 1.9v-2.2m1.4 13.7v-12.3 12.3zm-.3-2.2v-10.3m-.3 7.8V186m-.2 6v-6.3m-.3 3.8v-4.1m-.3 1.9v-2.2m3.6 2v-1.9 1.9zm-.3 1.9v-3.5m-.3 5.6v-5.4m-.3 7.3v-7m-.2 9v-9m-.3 11.1v-10.9m-.3 12.8v-12.5m-.3 14.7v-14.4m2 .3v-1.9 1.9zm-.3 1.9v-3.5m-.3 5.6v-5.4m-.3 7.3v-7m-.2 9v-9m-.3 11.1v-10.9m-.3 12.8v-12.5m-.3 14.7v-14.4m0-25.9l2.2 16.1-2.2-16.1zm2.2 16.1l-2.2-1.6 2.2 1.6zm-2.2-1.6l-1.9 1.6 1.9-1.6zm-1.9 1.6l1.9-16.1-1.9 16.1zm3.9-.3v-1.9 1.9zm-.3-.3v-3.5m-.3 3.3v-5.4m-.3 5.4v-7.4m-.2 7.1v-9m-.3 8.7v-10.9m-.3 10.7v-12.5m-.3 12.5V161m2 15.7v-1.9 1.9zm-.3-.3v-3.5m-.3 3.3v-5.4m-.3 5.4v-7.4m-.2 7.1v-9m-.3 8.7v-10.9m-.3 10.7v-12.5m-.3 12.5V161m-.2 14.4v-12.3 12.3zm-.3.2v-10.3m-.3 10.6v-8.2m-.2 8.5v-6.3m-.3 6.5v-4.1m-.3 4.4v-2.2m1.4.9v-12.3 12.3zm-.3.2v-10.3m-.3 10.6v-8.2m-.2 8.5v-6.3m-.3 6.5v-4.1m-.3 4.4v-2.2m1.6 26.7v-40.3 40.3zm0-40.3V64.8v96.1zm55.3 0h-61.5 61.5z"/><path fill="#3F365B" d="M127 139.7c-.4.7-.9 1.1-1.7 1.3-.8.2-1.6.1-2.5-.2-1.2-.4-2.3-1.3-3.2-2.5-.9-1.2-1.4-2.5-1.4-3.8v-.7l-3.1-2.1c-.3-.2-.4-.4-.4-.7 0-.2 0-.3.1-.4.1-.1.2-.1.4 0l.2.1 3.1 2.1c.3-.6.9-1.1 1.7-1.4.4-.1.8-.1 1.3-.1s.9.1 1.2.3c1.2.5 2.3 1.3 3.2 2.5.9 1.2 1.4 2.5 1.4 3.7v.5c0 .1 0 .2-.1.3l3.1 2.1c.3.2.4.4.4.7 0 .1-.1.2-.2.4-.1.1-.2.1-.4 0l-.2-.1-2.9-2zm-1.1-.8l-6.5-4.4v.4c0 1 .3 1.9 1 2.8.3.4.7.8 1.1 1.2l.6.4.5.2.3.1c.7.2 1.3.3 1.8.2.4-.1.9-.4 1.2-.9zm-6.2-5.4l6.5 4.4v-.5c0-1-.3-1.9-1-2.8-.7-.9-1.5-1.6-2.4-1.9-.6-.2-1.2-.3-1.8-.1-.5.2-.9.5-1.3.9z"/><text transform="matrix(0 -.9397 .9397 .342 130.871 133.353)" fill="#3F365B" font-family="'GOSTTypeA'" font-size="25.031">2</text><text transform="matrix(0 -.9397 .9397 .342 130.871 123.142)" fill="#3F365B" font-family="'GOSTTypeA'" font-size="25.031">,</text><text transform="matrix(0 -.9397 .9397 .342 130.871 119.74)" fill="#3F365B" font-family="'GOSTTypeA'" font-size="25.031">5</text><path fill="none" stroke="#3F365B" stroke-miterlimit="10" d="M122.8 106.2V85.8v20.4z"/><text transform="matrix(0 -.9397 .9397 .342 116.289 103.887)" fill="#3F365B" font-family="'GOSTTypeA'" font-size="25.031">H</text><text transform="matrix(0 -.9397 .9397 .342 116.289 93.677)" fill="#3F365B" font-family="'GOSTTypeA'" font-size="25.031">9</text><text transform="matrix(0 -.9397 .9397 .342 142.453 111.71)" fill="#3F365B" font-family="'GOSTTypeA'" font-size="25.031">f</text><text transform="matrix(0 -.9397 .9397 .342 142.453 104.902)" fill="#3F365B" font-family="'GOSTTypeA'" font-size="25.031">9</text><text transform="matrix(0 -.9397 .9397 .342 130.871 87.166)" fill="#3F365B" font-family="'GOSTTypeA'" font-size="25.031">*</text><path fill="none" stroke="#3F365B" stroke-miterlimit="10" d="M263.5 233.3l-.8-.5.8.5zm-.8-.5l-.5.8.5-.8zm-.5.8l.8.8-.8-.8zm.8.8l.5-1.1-.5 1.1zm.5-1.1l.8-.3-.8.3zm.9-.2l-1.9-1.1 1.9 1.1zm-1.9-1.1l-1.1 1.9 1.1-1.9zm-1.1 1.9l1.9 1.4-1.9-1.4zm1.9 1.4l1.1-2.2-1.1 2.2zm1.1-2.2h.8-.8zm.8 0l-3-1.9 3 1.9zm-3-1.9l-1.6 3 1.6-3zm-1.6 3l3 1.6-3-1.6zm2.9 1.6l1.6-2.7-1.6 2.7zM333 217l-70.2 16.6L333 217zm0 0v-43.3V217z"/><text transform="matrix(0 -.9397 .9397 .342 329.61 210.62)" fill="#3F365B" font-family="'GOSTTypeA'" font-size="35.213">1</text><text transform="matrix(0 -.9397 .9397 .342 329.61 201.09)" fill="#3F365B" font-family="'GOSTTypeA'" font-size="35.213">5</text><path fill="none" stroke="#3F365B" stroke-miterlimit="10" d="M235 181.1V0v181.1zm0-174.6l-16.1-2.2L235 6.5zm-16.1-2.1l1.6 2.2-1.6-2.2zm1.6 2.1l-1.6 1.9 1.6-1.9zm-1.6 1.9L235 6.5l-16.1 1.9zM235 6.5h-22.3H235zm-.3 0v-.2.2zm-.3 0v-.2m-.3.2v-.2m-.2.2v-.2m-.3.2v-.2m-.3.2v-.2m-.2.2v-.2m-.3.2V6m-.3.5V6m-.3.5V6m-.2.5V6m-.3.5V6m-.3.5V6m-.3.5V6m-.2.5v-.8m-.3.8v-.8m-.3.8v-.8m-.2.8v-.8m-.3.8v-.8m-.3.8v-.8m-.3.8v-.8m-.2.8v-.8m-.3.8V5.4m-.3 1.1V5.4m-.2 1.1V5.4m-.3 1.1V5.4m-.3 1.1V5.4m-.3 1.1V5.4m-.2 1.1V5.4m-.3 1.1V5.2m-.3 1.3V5.2m-.3 1.3V5.2m-.2 1.3V5.2m-.3 1.3V5.2m-.3 1.3V5.2m-.2 1.3V5.2m-.3 1.3V4.9m-.3 1.6V4.9m-.3 1.6V4.9m-.2 1.6V4.9m-.3 1.6V4.9m-.3 1.6V4.9m-.3 1.6V4.9m-.2 1.6V4.9m-.3 1.6V4.6m-.3 1.9V4.6m-.2 1.9V4.6m-.3 1.9V4.6m-.3 1.9V4.6m-.3 1.9V4.6m-.2 1.9V4.6m-.3 1.9V4.4m-.3 2.1V4.4m-.2 1.6V4.4m-.3 1.3V4.4m-.3 1v-1m-.3.5v-.5m-.2.2v-.2m15.5 2.1v-.2.2zm-.3 0v-.2m-.3.2v-.2m-.2.2v-.2m-.3.2v-.2m-.3.2v-.2m-.2.2v-.2m-.3.2V6m-.3.5V6m-.3.5V6m-.2.5V6m-.3.5V6m-.3.5V6m-.3.5V6m-.2.5v-.8m-.3.8v-.8m-.3.8v-.8m-.2.8v-.8m-.3.8v-.8m-.3.8v-.8m-.3.8v-.8m-.2.8v-.8m-.3.8V5.4m-.3 1.1V5.4m-.2 1.1V5.4m-.3 1.1V5.4m-.3 1.1V5.4m-.3 1.1V5.4m-.2 1.1V5.4m-.3 1.1V5.2m-.3 1.3V5.2m-.3 1.3V5.2m-.2 1.3V5.2m-.3 1.3V5.2m-.3 1.3V5.2m-.2 1.3V5.2m-.3 1.3V4.9m-.3 1.6V4.9m-.3 1.6V4.9m-.2 1.6V4.9m-.3 1.6V4.9m-.3 1.6V4.9m-.3 1.6V4.9m-.2 1.6V4.9m-.3 1.6V4.6m-.3 1.9V4.6m-.2 1.9V4.6m-.3 1.9V4.6m-.3 1.9V4.6m-.3 1.9V4.6m-.2 1.9V4.6m-.3 1.9V4.4m-.3 2.1V4.4m-.2 1.6V4.4m-.3 1.3V4.4m-.3 1v-1m-.3.5v-.5m-.2.2v-.2m13.3 2.4v-.3.3zm-.3 0v-.3m-.2.3v-.3m-.3.3v-.3m-.3.3v-.3m-.3.3v-.3m-.2.3v-.3m-.3.3v-.3m-.3.6v-.6m-.2.6v-.6m-.3.6v-.6m-.3.6v-.6m-.3.6v-.6m-.2.6v-.6m-.3.6v-.6m-.3.6v-.6m-.2.6v-.6m-.3.9v-.9m-.3.9v-.9m-.3.9v-.9m-.2.9v-.9m-.3.9v-.9m-.3.9v-.9m-.3.9v-.9m-.2.9v-.9m-.3 1.1V6.5m-.3 1.1V6.5m-.2 1.1V6.5m-.3 1.1V6.5m-.3 1.1V6.5m-.3 1.1V6.5m-.2 1.1V6.5m-.3 1.1V6.5m-.3 1.1V6.5m-.3 1.4V6.5m-.2 1.4V6.5m-.3 1.4V6.5m-.3 1.4V6.5m-.2 1.4V6.5m-.3 1.4V6.5m-.3 1.4V6.5m-.3 1.4V6.5m-.2 1.7V6.5m-.3 1.7V6.5m-.3 1.7V6.5m-.2 1.7V6.8m-.3 1.4V7.1m-.3 1.1v-.8m-.3.8v-.6m-.2.6v-.3m13.3-1.1v-.3.3zm-.3 0v-.3m-.2.3v-.3m-.3.3v-.3m-.3.3v-.3m-.3.3v-.3m-.2.3v-.3m-.3.3v-.3m-.3.6v-.6m-.2.6v-.6m-.3.6v-.6m-.3.6v-.6m-.3.6v-.6m-.2.6v-.6m-.3.6v-.6m-.3.6v-.6m-.2.6v-.6m-.3.9v-.9m-.3.9v-.9m-.3.9v-.9m-.2.9v-.9m-.3.9v-.9m-.3.9v-.9m-.3.9v-.9m-.2.9v-.9m-.3 1.1V6.5m-.3 1.1V6.5m-.2 1.1V6.5m-.3 1.1V6.5m-.3 1.1V6.5m-.3 1.1V6.5m-.2 1.1V6.5m-.3 1.1V6.5m-.3 1.1V6.5m-.3 1.4V6.5m-.2 1.4V6.5m-.3 1.4V6.5m-.3 1.4V6.5m-.2 1.4V6.5m-.3 1.4V6.5m-.3 1.4V6.5m-.3 1.4V6.5m-.2 1.7V6.5m-.3 1.7V6.5m-.3 1.7V6.5m-.2 1.7V6.8m-.3 1.4V7.1m-.3 1.1v-.8m-.3.8v-.6m-.2.6v-.3m47.9-1.4l16.3 1.9-16.3-1.9zm16.3 1.9l-1.6-1.9 1.6 1.9zm-1.6-1.9l1.6-2.2-1.6 2.2zm1.6-2.1l-16.3 2.2 16.3-2.2zm-16.3 2.1h22.6-22.6zm16.1 1.7v-.3.3zm-.3 0v-.6m-.3.6v-.8m-.3.8V7.1m-.2 1.1V6.8m-.3 1.4V6.5m-.3 1.7V6.5m-.3 1.7V6.5m-.2 1.4V6.5m-.3 1.4V6.5m-.3 1.4V6.5m-.2 1.4V6.5m-.3 1.4V6.5m-.3 1.4V6.5m-.3 1.4V6.5m-.2 1.4V6.5m-.3 1.4V6.5m-.3 1.1V6.5m-.2 1.1V6.5m-.3 1.1V6.5m-.3 1.1V6.5m-.3 1.1V6.5m-.2 1.1V6.5m-.3 1.1V6.5m-.3 1.1V6.5m-.3.9v-.9m-.2.9v-.9m-.3.9v-.9m-.3.9v-.9m-.2.9v-.9m-.3.9v-.9m-.3.9v-.9m-.3.9v-.9m-.2.9v-.9m-.3.6v-.6m-.3.6v-.6m-.3.6v-.6m-.2.6v-.6m-.3.6v-.6m-.3.6v-.6m-.2.6v-.6m-.3.6v-.6m-.3.3v-.3m-.3.3v-.3m-.2.3v-.3m-.3.3v-.3m-.3.3v-.3m-.2.3v-.3m-.3.3v-.3m-.3.3v-.3m-.3.3v-.3m13.7 1.7v-.3.3zm-.3 0v-.6m-.3.6v-.8m-.3.8V7.1m-.2 1.1V6.8m-.3 1.4V6.5m-.3 1.7V6.5m-.3 1.7V6.5m-.2 1.4V6.5m-.3 1.4V6.5m-.3 1.4V6.5m-.2 1.4V6.5m-.3 1.4V6.5m-.3 1.4V6.5m-.3 1.4V6.5m-.2 1.4V6.5m-.3 1.4V6.5m-.3 1.1V6.5m-.2 1.1V6.5m-.3 1.1V6.5m-.3 1.1V6.5m-.3 1.1V6.5m-.2 1.1V6.5m-.3 1.1V6.5m-.3 1.1V6.5m-.3.9v-.9m-.2.9v-.9m-.3.9v-.9m-.3.9v-.9m-.2.9v-.9m-.3.9v-.9m-.3.9v-.9m-.3.9v-.9m-.2.9v-.9m-.3.6v-.6m-.3.6v-.6m-.3.6v-.6m-.2.6v-.6m-.3.6v-.6m-.3.6v-.6m-.2.6v-.6m-.3.6v-.6m-.3.3v-.3m-.3.3v-.3m-.2.3v-.3m-.3.3v-.3m-.3.3v-.3m-.2.3v-.3m-.3.3v-.3m-.3.3v-.3m-.3.3v-.3m13.7-1.9v-.2.2zm-.3.3v-.5m-.3 1v-1m-.3 1.3V4.4m-.2 1.6V4.4m-.3 2.1V4.4m-.3 2.1V4.4m-.3 2.1V4.6m-.2 1.9V4.6m-.3 1.9V4.6m-.3 1.9V4.6m-.2 1.9V4.6m-.3 1.9V4.6m-.3 1.9V4.6m-.3 1.9V4.9m-.2 1.6V4.9m-.3 1.6V4.9m-.3 1.6V4.9m-.2 1.6V4.9m-.3 1.6V4.9m-.3 1.6V4.9m-.3 1.6V4.9m-.2 1.6V5.2m-.3 1.3V5.2m-.3 1.3V5.2m-.3 1.3V5.2m-.2 1.3V5.2m-.3 1.3V5.2m-.3 1.3V5.2m-.2 1.3V5.4m-.3 1.1V5.4m-.3 1.1V5.4m-.3 1.1V5.4m-.2 1.1V5.4m-.3 1.1V5.4m-.3 1.1V5.4m-.3 1.1V5.4m-.2 1.1v-.8m-.3.8v-.8m-.3.8v-.8m-.2.8v-.8m-.3.8v-.8m-.3.8v-.8m-.3.8v-.8m-.2.8V6m-.3.5V6m-.3.5V6m-.2.5V6m-.3.5V6m-.3.5V6m-.3.5V6m-.2.5V6m-.3.5v-.2m-.3.2v-.2m-.3.2v-.2m-.2.2v-.2m-.3.2v-.2m-.3.2v-.2m-.2.2v-.2m15.8-1.7v-.2.2zm-.3.3v-.5m-.3 1v-1m-.3 1.3V4.4m-.2 1.6V4.4m-.3 2.1V4.4m-.3 2.1V4.4m-.3 2.1V4.6m-.2 1.9V4.6m-.3 1.9V4.6m-.3 1.9V4.6m-.2 1.9V4.6m-.3 1.9V4.6m-.3 1.9V4.6m-.3 1.9V4.9m-.2 1.6V4.9m-.3 1.6V4.9m-.3 1.6V4.9m-.2 1.6V4.9m-.3 1.6V4.9m-.3 1.6V4.9m-.3 1.6V4.9m-.2 1.6V5.2m-.3 1.3V5.2m-.3 1.3V5.2m-.3 1.3V5.2m-.2 1.3V5.2m-.3 1.3V5.2m-.3 1.3V5.2m-.2 1.3V5.4m-.3 1.1V5.4m-.3 1.1V5.4m-.3 1.1V5.4m-.2 1.1V5.4m-.3 1.1V5.4m-.3 1.1V5.4m-.3 1.1V5.4m-.2 1.1v-.8m-.3.8v-.8m-.3.8v-.8m-.2.8v-.8m-.3.8v-.8m-.3.8v-.8m-.3.8v-.8m-.2.8V6m-.3.5V6m-.3.5V6m-.2.5V6m-.3.5V6m-.3.5V6m-.3.5V6m-.2.5V6m-.3.5v-.2m-.3.2v-.2m-.3.2v-.2m-.2.2v-.2m-.3.2v-.2m-.3.2v-.2m-.2.2v-.2m-32.4.2h32.1H235zm32.1 0H351h-83.9zm0 174.6V0v181.1z"/><path fill="#3F365B" d="M339.4 30.1c.7.4 1.1.9 1.3 1.7.2.8.1 1.6-.2 2.5-.4 1.2-1.3 2.3-2.5 3.2-1.2.9-2.5 1.4-3.8 1.4h-.7l-2.1 3.1c-.2.3-.4.4-.7.4-.2 0-.3-.1-.4-.2-.1-.1-.1-.2 0-.4l.1-.2 2.1-3.1c-.6-.3-1.1-.9-1.4-1.7-.1-.4-.1-.8-.1-1.3s.1-.9.3-1.2c.5-1.2 1.3-2.3 2.5-3.2 1.2-.9 2.5-1.4 3.7-1.4h.5c.1 0 .2 0 .3.1l2.1-3.1c.2-.3.4-.4.7-.4.1 0 .2 0 .4.2.1.1.1.2 0 .4l-.1.2-2 3zm-.8 1.1l-4.4 6.5h.4c1 0 1.9-.3 2.8-1 .4-.3.8-.7 1.2-1.1l.4-.6.2-.5.1-.3c.2-.7.3-1.3.2-1.8-.1-.5-.4-.9-.9-1.2zm-5.4 6.1l4.4-6.5h-.5c-1 0-1.9.3-2.8 1-.9.7-1.6 1.5-1.9 2.4-.2.6-.3 1.2-.1 1.8.2.6.5 1 .9 1.3z"/><text transform="matrix(-.9397 0 .342 -.9397 333.049 26.207)" fill="#3F365B" font-family="'GOSTTypeA'" font-size="25.031">2</text><path fill="none" stroke="#3F365B" stroke-miterlimit="10" d="M318.3 34.3h-20.4 20.4z"/><text transform="matrix(-.9397 0 .342 -.9397 315.921 40.792)" fill="#3F365B" font-family="'GOSTTypeA'" font-size="25.031">H</text><text transform="matrix(-.9397 0 .342 -.9397 305.711 40.792)" fill="#3F365B" font-family="'GOSTTypeA'" font-size="25.031">9</text><path fill="none" stroke="#3F365B" stroke-miterlimit="10" d="M233.1 416.6h-88.8 88.8zm-82.6 0l-1.9 16.1 1.9-16.1zm-1.9 16.1l1.9-1.4-1.9 1.4zm1.9-1.4l2.2 1.4-2.2-1.4zm2.2 1.4l-2.2-16.1 2.2 16.1zm-2.2-16.1v22.6-22.6zm-.2 14.7v-12.5 12.5zm-.3.3V421m-.3 10.8v-8.4m-.2 8.4v-6.3m-.3 6.6V428m-.3 4.4v-2.2m1.4 1.1v-12.5 12.5zm-.3.3V421m-.3 10.8v-8.4m-.2 8.4v-6.3m-.3 6.6V428m-.3 4.4v-2.2m3.6 2.2v-1.9 1.9zm-.3-.3v-3.5m-.3 3.5v-5.7m-.3 5.4v-7.4m-.2 7.2v-9m-.3 9v-11.2m-.3 10.9v-12.8m-.3 12.8v-14.7m2 15.8v-1.9 1.9zm-.3-.3v-3.5m-.3 3.5v-5.7m-.3 5.4v-7.4m-.2 7.2v-9m-.3 9v-11.2m-.3 10.9v-12.8m-.3 12.8v-14.7m0-32.1l2.2-16.1-2.2 16.1zm2.2-16.1l-2.2 1.6 2.2-1.6zm-2.2 1.6l-1.9-1.6 1.9 1.6zm-1.9-1.6l1.9 16.1-1.9-16.1zm1.9 16.1v-22.3 22.3zm2-14.2v-1.9 1.9zm-.3 1.9v-3.5m-.3 5.7V369m-.3 7.3v-7.1m-.2 9v-9m-.3 11.2v-10.9m-.3 12.8v-12.5m-.3 14.7V370m2 .3v-1.9 1.9zm-.3 1.9v-3.5m-.3 5.7V369m-.3 7.3v-7.1m-.2 9v-9m-.3 11.2v-10.9m-.3 12.8v-12.5m-.3 14.7V370m-.2 12v-12.3V382zm-.3-2.2v-10.3m-.3 7.9v-8.2m-.2 6v-6.3m-.3 3.9v-4.1m-.3 1.9v-2.2m1.4 13.6v-12.3V382zm-.3-2.2v-10.3m-.3 7.9v-8.2m-.2 6v-6.3m-.3 3.9v-4.1m-.3 1.9v-2.2m1.6 48.2v-32.1 32.1zm0-32.1v-83.6 83.6zm83.4 0h-89.6 89.6z"/><path fill="#3F365B" d="M127 363.2c-.4.7-.9 1.1-1.7 1.3-.8.2-1.6.1-2.5-.2-1.2-.4-2.3-1.3-3.2-2.5-.9-1.2-1.4-2.5-1.4-3.8v-.7l-3.1-2.1c-.3-.2-.4-.4-.4-.7 0-.2 0-.3.1-.4.1-.1.2-.1.4 0l.2.1 3.1 2.1c.3-.6.9-1.1 1.7-1.4.4-.1.8-.1 1.3-.1s.9.1 1.2.3c1.2.5 2.3 1.3 3.2 2.5.9 1.2 1.4 2.5 1.4 3.7v.5c0 .1 0 .2-.1.3l3.1 2.1c.3.2.4.4.4.7 0 .1-.1.2-.2.4-.1.1-.2.1-.4 0l-.2-.1-2.9-2zm-1.1-.7l-6.5-4.4v.4c0 1 .3 1.9 1 2.8.3.4.7.8 1.1 1.2l.6.4.5.2.3.1c.7.2 1.3.3 1.8.2.4-.1.9-.4 1.2-.9zm-6.2-5.4l6.5 4.4v-.5c0-1-.3-1.9-1-2.8-.7-.9-1.5-1.6-2.4-1.9-.6-.2-1.2-.3-1.8-.1-.5.1-.9.4-1.3.9z"/><text transform="matrix(0 -.9397 .9397 .342 130.871 356.933)" fill="#3F365B" font-family="'GOSTTypeA'" font-size="25.031">2</text><path fill="none" stroke="#3F365B" stroke-miterlimit="10" d="M122.8 342.3v-20.4 20.4z"/><text transform="matrix(0 -.9397 .9397 .342 116.288 339.805)" fill="#3F365B" font-family="'GOSTTypeA'" font-size="25.031">H</text><text transform="matrix(0 -.9397 .9397 .342 116.288 329.594)" fill="#3F365B" font-family="'GOSTTypeA'" font-size="25.031">9</text><text transform="matrix(0 -.9397 .9397 .342 142.453 348.69)" fill="#3F365B" font-family="'GOSTTypeA'" font-size="25.031">d</text><text transform="matrix(0 -.9397 .9397 .342 142.453 339.756)" fill="#3F365B" font-family="'GOSTTypeA'" font-size="25.031">9</text><text transform="matrix(0 -.9397 .9397 .342 130.871 323.085)" fill="#3F365B" font-family="'GOSTTypeA'" font-size="25.031">*</text><path fill="none" stroke="#3F365B" stroke-miterlimit="10" d="M284.8 525.8l-.5-1.1.5 1.1zm-.6-1.1l-.8.5.8-.5zm-.8.5l.5 1.1-.5-1.1zm.6 1.1l.8-.5-.8.5zm.8-.5l.8.3-.8-.3zm.8.3l-1.1-2.2 1.1 2.2zm-1.1-2.2l-1.9 1.1 1.9-1.1zm-1.9 1.1l1.1 2.2-1.1-2.2zm1.1 2.1l1.9-1.1-1.9 1.1zm1.9-1l.8.3-.8-.3zm.8.2l-1.6-3 1.6 3zm-1.6-3l-3 1.4 3-1.4zm-3 1.4l1.6 3-1.6-3zm1.6 3l3-1.4-3 1.4zm82.5 24.2l-81.7-26.4 81.7 26.4zm0 0v40.3-40.3z"/><text transform="matrix(0 -.9397 .9397 .342 362.63 585.691)" fill="#3F365B" font-family="'GOSTTypeA'" font-size="35.213">1</text><text transform="matrix(0 -.9397 .9397 .342 362.63 576.161)" fill="#3F365B" font-family="'GOSTTypeA'" font-size="35.213">1</text><path fill="none" stroke="#3F365B" stroke-miterlimit="10" d="M219.7 528H116.2h103.5zm-97.2 0l-2.2-16.1 2.2 16.1zm-2.2-16.1l2.2 1.6-2.2-1.6zm2.2 1.6l2.2-1.6-2.2 1.6zm2.2-1.6l-2.2 16.1 2.2-16.1zm-2.5 13.9v-12.5 12.5zm-.2-1.9V513m-.3 8.7v-9m-.3 7.1v-7.1m-.3 5.2v-5.4m-.2 3.2v-3.5m-.3 1.6v-1.9m1.6 13.9v-12.5 12.5zm-.2-1.9V513m-.3 8.7v-9m-.3 7.1v-7.1m-.3 5.2v-5.4m-.2 3.2v-3.5m-.3 1.6v-1.9m3.8 1.9v-1.9 1.9zm-.3 1.9v-3.5m-.2 5.7v-5.4m-.3 7.3v-7.1m-.3 9v-9m-.3 11.2V513m-.2 12.8v-12.5m-.3 14.7v-14.4m1.9.2v-1.9 1.9zm-.3 1.9v-3.5m-.2 5.7v-5.4m-.3 7.3v-7.1m-.3 9v-9m-.3 11.2V513m-.2 12.8v-12.5m-.3 14.7v-14.4m0-33.8l2.2 16.1-2.2-16.1zm2.2 16l-2.2-1.6 2.2 1.6zm-2.2-1.6l-2.2 1.6 2.2-1.6zm-2.2 1.6l2.2-16.1-2.2 16.1zm4.1-.2v-1.9 1.9zm-.3-.3v-3.5m-.2 3.2v-5.4m-.3 5.4v-7.4m-.3 7.1v-9m-.3 8.8v-10.9m-.2 10.6v-12.5m-.3 12.5v-14.4m1.9 15.8v-1.9 1.9zm-.3-.3v-3.5m-.2 3.2v-5.4m-.3 5.4v-7.4m-.3 7.1v-9m-.3 8.8v-10.9m-.2 10.6v-12.5m-.3 12.5v-14.4m-.3 14.4v-12.5 12.5zm-.2.3v-10.9m-.3 11.1v-9m-.3 9.3v-7.4m-.3 7.4v-5.4m-.2 5.7v-3.5m-.3 3.8v-1.9m1.6.5v-12.5 12.5zm-.2.3v-10.9m-.3 11.1v-9m-.3 9.3v-7.4m-.3 7.4v-5.4m-.2 5.7v-3.5m-.3 3.8v-1.9m1.9 34.3v-48.2V528zm0-48.2v-83.9 83.9zm97.2 0H116.2h103.5z"/><text transform="matrix(0 -.9397 .9397 .342 102.805 451.227)" fill="#3F365B" font-family="'GOSTTypeA'" font-size="25.031">3</text><path fill="none" stroke="#3F365B" stroke-miterlimit="10" d="M94.7 437.8v-20.4 20.4z"/><text transform="matrix(0 -.9397 .9397 .342 88.222 435.378)" fill="#3F365B" font-family="'GOSTTypeA'" font-size="25.031">7</text><text transform="matrix(0 -.9397 .9397 .342 88.222 425.167)" fill="#3F365B" font-family="'GOSTTypeA'" font-size="25.031">H</text><text transform="matrix(0 -.9397 .9397 .342 114.386 444.262)" fill="#3F365B" font-family="'GOSTTypeA'" font-size="25.031">6</text><text transform="matrix(0 -.9397 .9397 .342 114.386 434.053)" fill="#3F365B" font-family="'GOSTTypeA'" font-size="25.031">g</text><text transform="matrix(0 -.9397 .9397 .342 102.805 418.656)" fill="#3F365B" font-family="'GOSTTypeA'" font-size="25.031">*</text><path fill="none" stroke="#3F365B" stroke-miterlimit="10" d="M239 636.3H47.6 239zm-184.8 0l-2.2-16 2.2 16zm-2.2-16l2.2 1.6-2.2-1.6zm2.2 1.6l2.2-1.6-2.2 1.6zm2.1-1.6l-2.2 16.1 2.2-16.1zm-2.4 13.9v-12.5 12.5zm-.3-2v-10.9m-.3 8.8v-9m-.2 7.1v-7.1m-.3 5.2v-5.4m-.3 3.2v-3.5m-.2 1.6v-1.9m1.6 13.9v-12.5 12.5zm-.3-2v-10.9m-.3 8.8v-9m-.2 7.1v-7.1m-.3 5.2v-5.4m-.3 3.2v-3.5m-.2 1.6v-1.9m3.8 1.9v-1.9 1.9zm-.3 1.9v-3.5m-.3 5.7v-5.4m-.3 7.3v-7.1m-.2 9v-9m-.3 11.1v-10.9m-.3 12.9v-12.5m-.2 14.6v-14.4m1.9.3v-1.9 1.9zm-.3 1.9v-3.5m-.3 5.7v-5.4m-.3 7.3v-7.1m-.2 9v-9m-.3 11.1v-10.9m-.3 12.9v-12.5m-.2 14.6v-14.4m0-33.8l2.2 16.1-2.2-16.1zm2.1 16.1l-2.2-1.6 2.2 1.6zm-2.1-1.6l-2.2 1.6 2.2-1.6zm-2.2 1.6l2.2-16.1-2.2 16.1zm4.1-.3V602v1.9zm-.3-.2v-3.5m-.3 3.2V598m-.3 5.4V596m-.2 7.1v-9m-.3 8.7v-10.9m-.3 10.7V590m-.2 12.6v-14.4m1.9 15.7V602v1.9zm-.3-.2v-3.5m-.3 3.2V598m-.3 5.4V596m-.2 7.1v-9m-.3 8.7v-10.9m-.3 10.7V590m-.2 12.6v-14.4m-.3 14.4V590v12.6zm-.3.2v-10.9m-.3 11.2v-9m-.2 9.3V596m-.3 7.4V598m-.3 5.7v-3.5m-.2 3.7V602m1.6.6V590v12.6zm-.3.2v-10.9m-.3 11.2v-9m-.2 9.3V596m-.3 7.4V598m-.3 5.7v-3.5m-.2 3.7V602m1.9 34.3v-48.2 48.2zm0-48.2v-83.6 83.6zm184.8 0H47.6 239z"/><text transform="matrix(0 -.9397 .9397 .342 34.39 559.762)" fill="#3F365B" font-family="'GOSTTypeA'" font-size="25.031">3</text><path fill="none" stroke="#3F365B" stroke-miterlimit="10" d="M26.4 546.2v-20.4 20.4z"/><text transform="matrix(0 -.9397 .9397 .342 19.805 543.91)" fill="#3F365B" font-family="'GOSTTypeA'" font-size="25.031">7</text><text transform="matrix(0 -.9397 .9397 .342 19.805 533.7)" fill="#3F365B" font-family="'GOSTTypeA'" font-size="25.031">H</text><text transform="matrix(0 -.9397 .9397 .342 45.97 552.795)" fill="#3F365B" font-family="'GOSTTypeA'" font-size="25.031">6</text><text transform="matrix(0 -.9397 .9397 .342 45.97 542.585)" fill="#3F365B" font-family="'GOSTTypeA'" font-size="25.031">g</text><path fill="none" stroke="#3F365B" stroke-miterlimit="10" d="M270.1 628.7l-.5-1.1.5 1.1zm-.6-1.1l-1.1.5 1.1-.5zm-1.1.6l.5 1.1-.5-1.1zm.6 1.1l1.1-.5-1.1.5zm1.1-.6l.5.3-.5-.3zm.5.3l-.8-1.9.8 1.9zm-.8-1.9l-2.2.5 2.2-.5zm-2.2.5l.8 2.2-.8-2.2zm.8 2.2l2.2-.8-2.2.8zm2.2-.8l.8.5-.8-.5zm.8.5l-1.1-3.3 1.1 3.3zm-1-3.2l-3.3 1.1 3.3-1.1zm-3.3 1l1.1 3.3-1.1-3.3zm1.1 3.3l3.3-1.1-3.3 1.1zm97.7 41.9l-96.7-44.1 96.7 44.1zm0 0v44.9-44.9z"/><text transform="matrix(0 -.9397 .9397 .342 362.63 711.02)" fill="#3F365B" font-family="'GOSTTypeA'" font-size="35.213">2</text><text transform="matrix(0 -.9397 .9397 .342 362.63 696.725)" fill="#3F365B" font-family="'GOSTTypeA'" font-size="35.213">1</text><path fill="none" stroke="#3F365B" stroke-miterlimit="10" d="M298.7 544l-8.2 7.9 8.2-7.9zm-8.2 7.9h-24 24zm8.2-35.6V544v-27.7zm-32.2-44.7v-16.1 16.1zm24-16.1h-24 24zm-24 96.4v-16.1 16.1zm32.2-88.2v27.5-27.5zm0 0l-8.2-8.2 8.2 8.2zm-13.1 27.5v25.1-25.1zm0 25.1h13.1-13.1zm13.1-25.1h-13.1 13.1zm-32.2 44.7v-64.3 64.3zm24 16v-35.7 35.7zm0-60.7v-35.7 35.7zm-24-19.6H239h27.5zm0 64.3H239h27.5zm-74.8-12H239h-47.3zM239 528h-43.3H239zm-47.3-44.4H239h-47.3zm47.3-3.8h-43.3H239zM195.7 528v-48.2V528zm-4.9-4.9v-38.7 38.7zm0 0l4.9 4.9-4.9-4.9zm0-38.7l4.9-4.6-4.9 4.6zm82.8-315.9l-1.1-.3 1.1.3zm-1.1-.2l-.5 1.1.5-1.1zm-.5 1.1l1.1.3-1.1-.3zm1.1.2l.5-1.1-.5 1.1zm.5-1.1l.5-.3-.5.3zm.6-.2l-1.9-.8 1.9.8zm-1.9-.8l-.8 2.2.8-2.2zm-.9 2.1l1.9.8-1.9-.8zm1.9.9l.8-2.2-.8 2.2zm.9-2.2l.8-.3-.8.3zm.8-.3l-3.3-1.4 3.3 1.4zm-3.3-1.4l-1.1 3.3 1.1-3.3zm-1.1 3.3l3.3 1.4-3.3-1.4zm3.3 1.4l1.1-3.3-1.1 3.3zm59.1-28.9l-60.2 26.7 60.2-26.7zm0 0V97.5v44.9z"/><text transform="matrix(0 -.9397 .9397 .342 329.61 135.936)" fill="#3F365B" font-family="'GOSTTypeA'" font-size="35.213">1</text><text transform="matrix(0 -.9397 .9397 .342 329.61 126.406)" fill="#3F365B" font-family="'GOSTTypeA'" font-size="35.213">6</text><path fill="none" stroke="#3F365B" stroke-miterlimit="10" d="M259.5 391.3l-.5-.8.5.8zm-.6-.8l-1.1.8 1.1-.8zm-1.1.8l.8.8-.8-.8zm.8.8l.8-.8-.8.8zm.9-.8l.8.3-.8-.3zm.8.2l-1.4-1.9 1.4 1.9zm-1.4-1.9l-1.6 1.4 1.6-1.4zm-1.6 1.4l1.4 1.9-1.4-1.9zm1.3 1.9l1.6-1.4-1.6 1.4zm1.7-1.4h.8-.8zm.8 0l-1.9-2.7 1.9 2.7zm-1.9-2.7l-2.7 2.2 2.7-2.2zm-2.7 2.2l1.9 2.7-1.9-2.7zm1.9 2.7l2.7-2.2-2.7 2.2zm107.5 12.5l-107.3-15 107.3 15zm0 0v44.9-44.9z"/><text transform="matrix(0 -.9397 .9397 .342 362.63 444.65)" fill="#3F365B" font-family="'GOSTTypeA'" font-size="35.213">1</text><text transform="matrix(0 -.9397 .9397 .342 362.63 435.12)" fill="#3F365B" font-family="'GOSTTypeA'" font-size="35.213">8</text><path fill="none" stroke="#3F365B" stroke-miterlimit="10" d="M150.5 201.2l-1.9-16.1 1.9 16.1zm-1.9-16l1.9 1.6-1.9-1.6zm1.9 1.6l2.2-1.6-2.2 1.6zm2.2-1.6l-2.2 16.1 2.2-16.1zm-2.4 13.6v-12.3 12.3zm-.3-2.2v-10.3m-.3 7.8V186m-.2 6v-6.3m-.3 3.8v-4.1m-.3 1.9v-2.2m1.4 13.7v-12.3 12.3zm-.3-2.2v-10.3m-.3 7.8V186m-.2 6v-6.3m-.3 3.8v-4.1m-.3 1.9v-2.2m3.6 2v-1.9 1.9zm-.3 1.9v-3.5m-.3 5.6v-5.4m-.3 7.3v-7m-.2 9v-9m-.3 11.1v-10.9m-.3 12.8v-12.5m-.3 14.7v-14.4m2 .3v-1.9 1.9zm-.3 1.9v-3.5m-.3 5.6v-5.4m-.3 7.3v-7m-.2 9v-9m-.3 11.1v-10.9m-.3 12.8v-12.5m-.3 14.7v-14.4m0-25.9l2.2 16.1-2.2-16.1zm2.2 16.1l-2.2-1.6 2.2 1.6zm-2.2-1.6l-1.9 1.6 1.9-1.6zm-1.9 1.6l1.9-16.1-1.9 16.1zm3.9-.3v-1.9 1.9zm-.3-.3v-3.5m-.3 3.3v-5.4m-.3 5.4v-7.4m-.2 7.1v-9m-.3 8.7v-10.9m-.3 10.7v-12.5m-.3 12.5V161m2 15.7v-1.9 1.9zm-.3-.3v-3.5m-.3 3.3v-5.4m-.3 5.4v-7.4m-.2 7.1v-9m-.3 8.7v-10.9m-.3 10.7v-12.5m-.3 12.5V161m-.2 14.4v-12.3 12.3zm-.3.2v-10.3m-.3 10.6v-8.2m-.2 8.5v-6.3m-.3 6.5v-4.1m-.3 4.4v-2.2m1.4.9v-12.3 12.3zm-.3.2v-10.3m-.3 10.6v-8.2m-.2 8.5v-6.3m-.3 6.5v-4.1m-.3 4.4v-2.2m1.6 26.7v-40.3 40.3z"/><path fill="#3F365B" d="M127 139.7c-.4.7-.9 1.1-1.7 1.3-.8.2-1.6.1-2.5-.2-1.2-.4-2.3-1.3-3.2-2.5-.9-1.2-1.4-2.5-1.4-3.8v-.7l-3.1-2.1c-.3-.2-.4-.4-.4-.7 0-.2 0-.3.1-.4.1-.1.2-.1.4 0l.2.1 3.1 2.1c.3-.6.9-1.1 1.7-1.4.4-.1.8-.1 1.3-.1s.9.1 1.2.3c1.2.5 2.3 1.3 3.2 2.5.9 1.2 1.4 2.5 1.4 3.7v.5c0 .1 0 .2-.1.3l3.1 2.1c.3.2.4.4.4.7 0 .1-.1.2-.2.4-.1.1-.2.1-.4 0l-.2-.1-2.9-2zm-1.1-.8l-6.5-4.4v.4c0 1 .3 1.9 1 2.8.3.4.7.8 1.1 1.2l.6.4.5.2.3.1c.7.2 1.3.3 1.8.2.4-.1.9-.4 1.2-.9zm-6.2-5.4l6.5 4.4v-.5c0-1-.3-1.9-1-2.8-.7-.9-1.5-1.6-2.4-1.9-.6-.2-1.2-.3-1.8-.1-.5.2-.9.5-1.3.9z"/><text transform="matrix(0 -.9397 .9397 .342 130.871 133.352)" fill="#3F365B" font-family="'GOSTTypeA'" font-size="25.031">2</text><text transform="matrix(0 -.9397 .9397 .342 130.871 123.142)" fill="#3F365B" font-family="'GOSTTypeA'" font-size="25.031">,</text><text transform="matrix(0 -.9397 .9397 .342 130.871 119.74)" fill="#3F365B" font-family="'GOSTTypeA'" font-size="25.031">5</text><path fill="none" stroke="#3F365B" stroke-miterlimit="10" d="M122.8 106.2V85.8v20.4z"/><text transform="matrix(0 -.9397 .9397 .342 116.289 103.89)" fill="#3F365B" font-family="'GOSTTypeA'" font-size="25.031">H</text><text transform="matrix(0 -.9397 .9397 .342 116.289 93.68)" fill="#3F365B" font-family="'GOSTTypeA'" font-size="25.031">9</text><text transform="matrix(0 -.9397 .9397 .342 142.453 111.71)" fill="#3F365B" font-family="'GOSTTypeA'" font-size="25.031">f</text><text transform="matrix(0 -.9397 .9397 .342 142.453 104.903)" fill="#3F365B" font-family="'GOSTTypeA'" font-size="25.031">9</text><text transform="matrix(0 -.9397 .9397 .342 130.871 87.166)" fill="#3F365B" font-family="'GOSTTypeA'" font-size="25.031">*</text><path fill="none" stroke="#3F365B" stroke-miterlimit="10" d="M263.5 233.3l-.8-.5.8.5zm-.8-.5l-.5.8.5-.8zm-.5.8l.8.8-.8-.8zm.8.8l.5-1.1-.5 1.1zm.5-1.1l.8-.3-.8.3zm.9-.2l-1.9-1.1 1.9 1.1zm-1.9-1.1l-1.1 1.9 1.1-1.9zm-1.1 1.9l1.9 1.4-1.9-1.4zm1.9 1.4l1.1-2.2-1.1 2.2zm1.1-2.2h.8-.8zm.8 0l-3-1.9 3 1.9zm-3-1.9l-1.6 3 1.6-3zm-1.6 3l3 1.6-3-1.6zm2.9 1.6l1.6-2.7-1.6 2.7zM333 217l-70.2 16.6L333 217zm0 0v-43.3V217z"/><text transform="matrix(0 -.9397 .9397 .342 329.61 210.622)" fill="#3F365B" font-family="'GOSTTypeA'" font-size="35.213">1</text><text transform="matrix(0 -.9397 .9397 .342 329.61 201.092)" fill="#3F365B" font-family="'GOSTTypeA'" font-size="35.213">5</text><path fill="none" stroke="#3F365B" stroke-miterlimit="10" d="M235 6.5l-16.1-2.2L235 6.5zm-16.1-2.1l1.6 2.2-1.6-2.2zm1.6 2.1l-1.6 1.9 1.6-1.9zm-1.6 1.9L235 6.5l-16.1 1.9zM235 6.5h-22.3H235zm-.3 0v-.2.2zm-.3 0v-.2m-.3.2v-.2m-.2.2v-.2m-.3.2v-.2m-.3.2v-.2m-.2.2v-.2m-.3.2V6m-.3.5V6m-.3.5V6m-.2.5V6m-.3.5V6m-.3.5V6m-.3.5V6m-.2.5v-.8m-.3.8v-.8m-.3.8v-.8m-.2.8v-.8m-.3.8v-.8m-.3.8v-.8m-.3.8v-.8m-.2.8v-.8m-.3.8V5.4m-.3 1.1V5.4m-.2 1.1V5.4m-.3 1.1V5.4m-.3 1.1V5.4m-.3 1.1V5.4m-.2 1.1V5.4m-.3 1.1V5.2m-.3 1.3V5.2m-.3 1.3V5.2m-.2 1.3V5.2m-.3 1.3V5.2m-.3 1.3V5.2m-.2 1.3V5.2m-.3 1.3V4.9m-.3 1.6V4.9m-.3 1.6V4.9m-.2 1.6V4.9m-.3 1.6V4.9m-.3 1.6V4.9m-.3 1.6V4.9m-.2 1.6V4.9m-.3 1.6V4.6m-.3 1.9V4.6m-.2 1.9V4.6m-.3 1.9V4.6m-.3 1.9V4.6m-.3 1.9V4.6m-.2 1.9V4.6m-.3 1.9V4.4m-.3 2.1V4.4m-.2 1.6V4.4m-.3 1.3V4.4m-.3 1v-1m-.3.5v-.5m-.2.2v-.2m15.5 2.1v-.2.2zm-.3 0v-.2m-.3.2v-.2m-.2.2v-.2m-.3.2v-.2m-.3.2v-.2m-.2.2v-.2m-.3.2V6m-.3.5V6m-.3.5V6m-.2.5V6m-.3.5V6m-.3.5V6m-.3.5V6m-.2.5v-.8m-.3.8v-.8m-.3.8v-.8m-.2.8v-.8m-.3.8v-.8m-.3.8v-.8m-.3.8v-.8m-.2.8v-.8m-.3.8V5.4m-.3 1.1V5.4m-.2 1.1V5.4m-.3 1.1V5.4m-.3 1.1V5.4m-.3 1.1V5.4m-.2 1.1V5.4m-.3 1.1V5.2m-.3 1.3V5.2m-.3 1.3V5.2m-.2 1.3V5.2m-.3 1.3V5.2m-.3 1.3V5.2m-.2 1.3V5.2m-.3 1.3V4.9m-.3 1.6V4.9m-.3 1.6V4.9m-.2 1.6V4.9m-.3 1.6V4.9m-.3 1.6V4.9m-.3 1.6V4.9m-.2 1.6V4.9m-.3 1.6V4.6m-.3 1.9V4.6m-.2 1.9V4.6m-.3 1.9V4.6m-.3 1.9V4.6m-.3 1.9V4.6m-.2 1.9V4.6m-.3 1.9V4.4m-.3 2.1V4.4m-.2 1.6V4.4m-.3 1.3V4.4m-.3 1v-1m-.3.5v-.5m-.2.2v-.2m13.3 2.4v-.3.3zm-.3 0v-.3m-.2.3v-.3m-.3.3v-.3m-.3.3v-.3m-.3.3v-.3m-.2.3v-.3m-.3.3v-.3m-.3.6v-.6m-.2.6v-.6m-.3.6v-.6m-.3.6v-.6m-.3.6v-.6m-.2.6v-.6m-.3.6v-.6m-.3.6v-.6m-.2.6v-.6m-.3.9v-.9m-.3.9v-.9m-.3.9v-.9m-.2.9v-.9m-.3.9v-.9m-.3.9v-.9m-.3.9v-.9m-.2.9v-.9m-.3 1.1V6.5m-.3 1.1V6.5m-.2 1.1V6.5m-.3 1.1V6.5m-.3 1.1V6.5m-.3 1.1V6.5m-.2 1.1V6.5m-.3 1.1V6.5m-.3 1.1V6.5m-.3 1.4V6.5m-.2 1.4V6.5m-.3 1.4V6.5m-.3 1.4V6.5m-.2 1.4V6.5m-.3 1.4V6.5m-.3 1.4V6.5m-.3 1.4V6.5m-.2 1.7V6.5m-.3 1.7V6.5m-.3 1.7V6.5m-.2 1.7V6.8m-.3 1.4V7.1m-.3 1.1v-.8m-.3.8v-.6m-.2.6v-.3m13.3-1.1v-.3.3zm-.3 0v-.3m-.2.3v-.3m-.3.3v-.3m-.3.3v-.3m-.3.3v-.3m-.2.3v-.3m-.3.3v-.3m-.3.6v-.6m-.2.6v-.6m-.3.6v-.6m-.3.6v-.6m-.3.6v-.6m-.2.6v-.6m-.3.6v-.6m-.3.6v-.6m-.2.6v-.6m-.3.9v-.9m-.3.9v-.9m-.3.9v-.9m-.2.9v-.9m-.3.9v-.9m-.3.9v-.9m-.3.9v-.9m-.2.9v-.9m-.3 1.1V6.5m-.3 1.1V6.5m-.2 1.1V6.5m-.3 1.1V6.5m-.3 1.1V6.5m-.3 1.1V6.5m-.2 1.1V6.5m-.3 1.1V6.5m-.3 1.1V6.5m-.3 1.4V6.5m-.2 1.4V6.5m-.3 1.4V6.5m-.3 1.4V6.5m-.2 1.4V6.5m-.3 1.4V6.5m-.3 1.4V6.5m-.3 1.4V6.5m-.2 1.7V6.5m-.3 1.7V6.5m-.3 1.7V6.5m-.2 1.7V6.8m-.3 1.4V7.1m-.3 1.1v-.8m-.3.8v-.6m-.2.6v-.3m47.9-1.4l16.3 1.9-16.3-1.9zm16.3 1.9l-1.6-1.9 1.6 1.9zm-1.6-1.9l1.6-2.2-1.6 2.2zm1.6-2.1l-16.3 2.2 16.3-2.2zm-16.3 2.1h22.6-22.6zm16.1 1.7v-.3.3zm-.3 0v-.6m-.3.6v-.8m-.3.8V7.1m-.2 1.1V6.8m-.3 1.4V6.5m-.3 1.7V6.5m-.3 1.7V6.5m-.2 1.4V6.5m-.3 1.4V6.5m-.3 1.4V6.5m-.2 1.4V6.5m-.3 1.4V6.5m-.3 1.4V6.5m-.3 1.4V6.5m-.2 1.4V6.5m-.3 1.4V6.5m-.3 1.1V6.5m-.2 1.1V6.5m-.3 1.1V6.5m-.3 1.1V6.5m-.3 1.1V6.5m-.2 1.1V6.5m-.3 1.1V6.5m-.3 1.1V6.5m-.3.9v-.9m-.2.9v-.9m-.3.9v-.9m-.3.9v-.9m-.2.9v-.9m-.3.9v-.9m-.3.9v-.9m-.3.9v-.9m-.2.9v-.9m-.3.6v-.6m-.3.6v-.6m-.3.6v-.6m-.2.6v-.6m-.3.6v-.6m-.3.6v-.6m-.2.6v-.6m-.3.6v-.6m-.3.3v-.3m-.3.3v-.3m-.2.3v-.3m-.3.3v-.3m-.3.3v-.3m-.2.3v-.3m-.3.3v-.3m-.3.3v-.3m-.3.3v-.3m13.7 1.7v-.3.3zm-.3 0v-.6m-.3.6v-.8m-.3.8V7.1m-.2 1.1V6.8m-.3 1.4V6.5m-.3 1.7V6.5m-.3 1.7V6.5m-.2 1.4V6.5m-.3 1.4V6.5m-.3 1.4V6.5m-.2 1.4V6.5m-.3 1.4V6.5m-.3 1.4V6.5m-.3 1.4V6.5m-.2 1.4V6.5m-.3 1.4V6.5m-.3 1.1V6.5m-.2 1.1V6.5m-.3 1.1V6.5m-.3 1.1V6.5m-.3 1.1V6.5m-.2 1.1V6.5m-.3 1.1V6.5m-.3 1.1V6.5m-.3.9v-.9m-.2.9v-.9m-.3.9v-.9m-.3.9v-.9m-.2.9v-.9m-.3.9v-.9m-.3.9v-.9m-.3.9v-.9m-.2.9v-.9m-.3.6v-.6m-.3.6v-.6m-.3.6v-.6m-.2.6v-.6m-.3.6v-.6m-.3.6v-.6m-.2.6v-.6m-.3.6v-.6m-.3.3v-.3m-.3.3v-.3m-.2.3v-.3m-.3.3v-.3m-.3.3v-.3m-.2.3v-.3m-.3.3v-.3m-.3.3v-.3m-.3.3v-.3m13.7-1.9v-.2.2zm-.3.3v-.5m-.3 1v-1m-.3 1.3V4.4m-.2 1.6V4.4m-.3 2.1V4.4m-.3 2.1V4.4m-.3 2.1V4.6m-.2 1.9V4.6m-.3 1.9V4.6m-.3 1.9V4.6m-.2 1.9V4.6m-.3 1.9V4.6m-.3 1.9V4.6m-.3 1.9V4.9m-.2 1.6V4.9m-.3 1.6V4.9m-.3 1.6V4.9m-.2 1.6V4.9m-.3 1.6V4.9m-.3 1.6V4.9m-.3 1.6V4.9m-.2 1.6V5.2m-.3 1.3V5.2m-.3 1.3V5.2m-.3 1.3V5.2m-.2 1.3V5.2m-.3 1.3V5.2m-.3 1.3V5.2m-.2 1.3V5.4m-.3 1.1V5.4m-.3 1.1V5.4m-.3 1.1V5.4m-.2 1.1V5.4m-.3 1.1V5.4m-.3 1.1V5.4m-.3 1.1V5.4m-.2 1.1v-.8m-.3.8v-.8m-.3.8v-.8m-.2.8v-.8m-.3.8v-.8m-.3.8v-.8m-.3.8v-.8m-.2.8V6m-.3.5V6m-.3.5V6m-.2.5V6m-.3.5V6m-.3.5V6m-.3.5V6m-.2.5V6m-.3.5v-.2m-.3.2v-.2m-.3.2v-.2m-.2.2v-.2m-.3.2v-.2m-.3.2v-.2m-.2.2v-.2m15.8-1.7v-.2.2zm-.3.3v-.5m-.3 1v-1m-.3 1.3V4.4m-.2 1.6V4.4m-.3 2.1V4.4m-.3 2.1V4.4m-.3 2.1V4.6m-.2 1.9V4.6m-.3 1.9V4.6m-.3 1.9V4.6m-.2 1.9V4.6m-.3 1.9V4.6m-.3 1.9V4.6m-.3 1.9V4.9m-.2 1.6V4.9m-.3 1.6V4.9m-.3 1.6V4.9m-.2 1.6V4.9m-.3 1.6V4.9m-.3 1.6V4.9m-.3 1.6V4.9m-.2 1.6V5.2m-.3 1.3V5.2m-.3 1.3V5.2m-.3 1.3V5.2m-.2 1.3V5.2m-.3 1.3V5.2m-.3 1.3V5.2m-.2 1.3V5.4m-.3 1.1V5.4m-.3 1.1V5.4m-.3 1.1V5.4m-.2 1.1V5.4m-.3 1.1V5.4m-.3 1.1V5.4m-.3 1.1V5.4m-.2 1.1v-.8m-.3.8v-.8m-.3.8v-.8m-.2.8v-.8m-.3.8v-.8m-.3.8v-.8m-.3.8v-.8m-.2.8V6m-.3.5V6m-.3.5V6m-.2.5V6m-.3.5V6m-.3.5V6m-.3.5V6m-.2.5V6m-.3.5v-.2m-.3.2v-.2m-.3.2v-.2m-.2.2v-.2m-.3.2v-.2m-.3.2v-.2m-.2.2v-.2m-32.4.2h32.1H235z"/><path fill="#3F365B" d="M339.4 30.1c.7.4 1.1.9 1.3 1.7.2.8.1 1.6-.2 2.5-.4 1.2-1.3 2.3-2.5 3.2-1.2.9-2.5 1.4-3.8 1.4h-.7l-2.1 3.1c-.2.3-.4.4-.7.4-.2 0-.3-.1-.4-.2-.1-.1-.1-.2 0-.4l.1-.2 2.1-3.1c-.6-.3-1.1-.9-1.4-1.7-.1-.4-.1-.8-.1-1.3s.1-.9.3-1.2c.5-1.2 1.3-2.3 2.5-3.2 1.2-.9 2.5-1.4 3.7-1.4h.5c.1 0 .2 0 .3.1l2.1-3.1c.2-.3.4-.4.7-.4.1 0 .2 0 .4.2.1.1.1.2 0 .4l-.1.2-2 3zm-.8 1.1l-4.4 6.5h.4c1 0 1.9-.3 2.8-1 .4-.3.8-.7 1.2-1.1l.4-.6.2-.5.1-.3c.2-.7.3-1.3.2-1.8-.1-.5-.4-.9-.9-1.2zm-5.4 6.1l4.4-6.5h-.5c-1 0-1.9.3-2.8 1-.9.7-1.6 1.5-1.9 2.4-.2.6-.3 1.2-.1 1.8.2.6.5 1 .9 1.3z"/><text transform="matrix(-.9397 0 .342 -.9397 333.05 26.207)" fill="#3F365B" font-family="'GOSTTypeA'" font-size="25.031">2</text><path fill="none" stroke="#3F365B" stroke-miterlimit="10" d="M318.3 34.3h-20.4 20.4z"/><text transform="matrix(-.9397 0 .342 -.9397 315.92 40.792)" fill="#3F365B" font-family="'GOSTTypeA'" font-size="25.031">H</text><text transform="matrix(-.9397 0 .342 -.9397 305.71 40.792)" fill="#3F365B" font-family="'GOSTTypeA'" font-size="25.031">9</text><path fill="none" stroke="#3F365B" stroke-miterlimit="10" d="M150.5 416.6l-1.9 16.1 1.9-16.1zm-1.9 16.1l1.9-1.4-1.9 1.4zm1.9-1.4l2.2 1.4-2.2-1.4zm2.2 1.4l-2.2-16.1 2.2 16.1zm-2.2-16.1v22.6-22.6zm-.2 14.7v-12.5 12.5zm-.3.3V421m-.3 10.8v-8.4m-.2 8.4v-6.3m-.3 6.6V428m-.3 4.4v-2.2m1.4 1.1v-12.5 12.5zm-.3.3V421m-.3 10.8v-8.4m-.2 8.4v-6.3m-.3 6.6V428m-.3 4.4v-2.2m3.6 2.2v-1.9 1.9zm-.3-.3v-3.5m-.3 3.5v-5.7m-.3 5.4v-7.4m-.2 7.2v-9m-.3 9v-11.2m-.3 10.9v-12.8m-.3 12.8v-14.7m2 15.8v-1.9 1.9zm-.3-.3v-3.5m-.3 3.5v-5.7m-.3 5.4v-7.4m-.2 7.2v-9m-.3 9v-11.2m-.3 10.9v-12.8m-.3 12.8v-14.7m0-32.1l2.2-16.1-2.2 16.1zm2.2-16.1l-2.2 1.6 2.2-1.6zm-2.2 1.6l-1.9-1.6 1.9 1.6zm-1.9-1.6l1.9 16.1-1.9-16.1zm1.9 16.1v-22.3 22.3zm2-14.2v-1.9 1.9zm-.3 1.9v-3.5m-.3 5.7V369m-.3 7.3v-7.1m-.2 9v-9m-.3 11.2v-10.9m-.3 12.8v-12.5m-.3 14.7V370m2 .3v-1.9 1.9zm-.3 1.9v-3.5m-.3 5.7V369m-.3 7.3v-7.1m-.2 9v-9m-.3 11.2v-10.9m-.3 12.8v-12.5m-.3 14.7V370m-.2 12v-12.3V382zm-.3-2.2v-10.3m-.3 7.9v-8.2m-.2 6v-6.3m-.3 3.9v-4.1m-.3 1.9v-2.2m1.4 13.6v-12.3V382zm-.3-2.2v-10.3m-.3 7.9v-8.2m-.2 6v-6.3m-.3 3.9v-4.1m-.3 1.9v-2.2m1.6 48.2v-32.1 32.1z"/><path fill="#3F365B" d="M127 363.2c-.4.7-.9 1.1-1.7 1.3-.8.2-1.6.1-2.5-.2-1.2-.4-2.3-1.3-3.2-2.5-.9-1.2-1.4-2.5-1.4-3.8v-.7l-3.1-2.1c-.3-.2-.4-.4-.4-.7 0-.2 0-.3.1-.4.1-.1.2-.1.4 0l.2.1 3.1 2.1c.3-.6.9-1.1 1.7-1.4.4-.1.8-.1 1.3-.1s.9.1 1.2.3c1.2.5 2.3 1.3 3.2 2.5.9 1.2 1.4 2.5 1.4 3.7v.5c0 .1 0 .2-.1.3l3.1 2.1c.3.2.4.4.4.7 0 .1-.1.2-.2.4-.1.1-.2.1-.4 0l-.2-.1-2.9-2zm-1.1-.7l-6.5-4.4v.4c0 1 .3 1.9 1 2.8.3.4.7.8 1.1 1.2l.6.4.5.2.3.1c.7.2 1.3.3 1.8.2.4-.1.9-.4 1.2-.9zm-6.2-5.4l6.5 4.4v-.5c0-1-.3-1.9-1-2.8-.7-.9-1.5-1.6-2.4-1.9-.6-.2-1.2-.3-1.8-.1-.5.1-.9.4-1.3.9z"/><text transform="matrix(0 -.9397 .9397 .342 130.871 356.934)" fill="#3F365B" font-family="'GOSTTypeA'" font-size="25.031">2</text><path fill="none" stroke="#3F365B" stroke-miterlimit="10" d="M122.8 342.3v-20.4 20.4z"/><text transform="matrix(0 -.9397 .9397 .342 116.287 339.805)" fill="#3F365B" font-family="'GOSTTypeA'" font-size="25.031">H</text><text transform="matrix(0 -.9397 .9397 .342 116.287 329.594)" fill="#3F365B" font-family="'GOSTTypeA'" font-size="25.031">9</text><text transform="matrix(0 -.9397 .9397 .342 142.453 348.691)" fill="#3F365B" font-family="'GOSTTypeA'" font-size="25.031">d</text><text transform="matrix(0 -.9397 .9397 .342 142.453 339.756)" fill="#3F365B" font-family="'GOSTTypeA'" font-size="25.031">9</text><text transform="matrix(0 -.9397 .9397 .342 130.871 323.085)" fill="#3F365B" font-family="'GOSTTypeA'" font-size="25.031">*</text><path fill="none" stroke="#3F365B" stroke-miterlimit="10" d="M284.8 525.8l-.5-1.1.5 1.1zm-.6-1.1l-.8.5.8-.5zm-.8.5l.5 1.1-.5-1.1zm.6 1.1l.8-.5-.8.5zm.8-.5l.8.3-.8-.3zm.8.3l-1.1-2.2 1.1 2.2zm-1.1-2.2l-1.9 1.1 1.9-1.1zm-1.9 1.1l1.1 2.2-1.1-2.2zm1.1 2.1l1.9-1.1-1.9 1.1zm1.9-1l.8.3-.8-.3zm.8.2l-1.6-3 1.6 3zm-1.6-3l-3 1.4 3-1.4zm-3 1.4l1.6 3-1.6-3zm1.6 3l3-1.4-3 1.4zm82.5 24.2l-81.7-26.4 81.7 26.4zm0 0v40.3-40.3z"/><text transform="matrix(0 -.9397 .9397 .342 362.63 585.691)" fill="#3F365B" font-family="'GOSTTypeA'" font-size="35.213">1</text><text transform="matrix(0 -.9397 .9397 .342 362.63 576.162)" fill="#3F365B" font-family="'GOSTTypeA'" font-size="35.213">1</text><path fill="none" stroke="#3F365B" stroke-miterlimit="10" d="M122.5 528l-2.2-16.1 2.2 16.1zm-2.2-16.1l2.2 1.6-2.2-1.6zm2.2 1.6l2.2-1.6-2.2 1.6zm2.2-1.6l-2.2 16.1 2.2-16.1zm-2.5 13.9v-12.5 12.5zm-.2-1.9V513m-.3 8.7v-9m-.3 7.1v-7.1m-.3 5.2v-5.4m-.2 3.2v-3.5m-.3 1.6v-1.9m1.6 13.9v-12.5 12.5zm-.2-1.9V513m-.3 8.7v-9m-.3 7.1v-7.1m-.3 5.2v-5.4m-.2 3.2v-3.5m-.3 1.6v-1.9m3.8 1.9v-1.9 1.9zm-.3 1.9v-3.5m-.2 5.7v-5.4m-.3 7.3v-7.1m-.3 9v-9m-.3 11.2V513m-.2 12.8v-12.5m-.3 14.7v-14.4m1.9.2v-1.9 1.9zm-.3 1.9v-3.5m-.2 5.7v-5.4m-.3 7.3v-7.1m-.3 9v-9m-.3 11.2V513m-.2 12.8v-12.5m-.3 14.7v-14.4m0-33.8l2.2 16.1-2.2-16.1zm2.2 16l-2.2-1.6 2.2 1.6zm-2.2-1.6l-2.2 1.6 2.2-1.6zm-2.2 1.6l2.2-16.1-2.2 16.1zm4.1-.2v-1.9 1.9zm-.3-.3v-3.5m-.2 3.2v-5.4m-.3 5.4v-7.4m-.3 7.1v-9m-.3 8.8v-10.9m-.2 10.6v-12.5m-.3 12.5v-14.4m1.9 15.8v-1.9 1.9zm-.3-.3v-3.5m-.2 3.2v-5.4m-.3 5.4v-7.4m-.3 7.1v-9m-.3 8.8v-10.9m-.2 10.6v-12.5m-.3 12.5v-14.4m-.3 14.4v-12.5 12.5zm-.2.3v-10.9m-.3 11.1v-9m-.3 9.3v-7.4m-.3 7.4v-5.4m-.2 5.7v-3.5m-.3 3.8v-1.9m1.6.5v-12.5 12.5zm-.2.3v-10.9m-.3 11.1v-9m-.3 9.3v-7.4m-.3 7.4v-5.4m-.2 5.7v-3.5m-.3 3.8v-1.9m1.9 34.3v-48.2V528z"/><text transform="matrix(0 -.9397 .9397 .342 102.805 451.23)" fill="#3F365B" font-family="'GOSTTypeA'" font-size="25.031">3</text><path fill="none" stroke="#3F365B" stroke-miterlimit="10" d="M94.7 437.8v-20.4 20.4z"/><text transform="matrix(0 -.9397 .9397 .342 88.222 435.378)" fill="#3F365B" font-family="'GOSTTypeA'" font-size="25.031">7</text><text transform="matrix(0 -.9397 .9397 .342 88.222 425.168)" fill="#3F365B" font-family="'GOSTTypeA'" font-size="25.031">H</text><text transform="matrix(0 -.9397 .9397 .342 114.386 444.265)" fill="#3F365B" font-family="'GOSTTypeA'" font-size="25.031">6</text><text transform="matrix(0 -.9397 .9397 .342 114.386 434.054)" fill="#3F365B" font-family="'GOSTTypeA'" font-size="25.031">g</text><text transform="matrix(0 -.9397 .9397 .342 102.805 418.656)" fill="#3F365B" font-family="'GOSTTypeA'" font-size="25.031">*</text><path fill="none" stroke="#3F365B" stroke-miterlimit="10" d="M54.2 636.3l-2.2-16 2.2 16zm-2.2-16l2.2 1.6-2.2-1.6zm2.2 1.6l2.2-1.6-2.2 1.6zm2.1-1.6l-2.2 16.1 2.2-16.1zm-2.4 13.9v-12.5 12.5zm-.3-2v-10.9m-.3 8.8v-9m-.2 7.1v-7.1m-.3 5.2v-5.4m-.3 3.2v-3.5m-.2 1.6v-1.9m1.6 13.9v-12.5 12.5zm-.3-2v-10.9m-.3 8.8v-9m-.2 7.1v-7.1m-.3 5.2v-5.4m-.3 3.2v-3.5m-.2 1.6v-1.9m3.8 1.9v-1.9 1.9zm-.3 1.9v-3.5m-.3 5.7v-5.4m-.3 7.3v-7.1m-.2 9v-9m-.3 11.1v-10.9m-.3 12.9v-12.5m-.2 14.6v-14.4m1.9.3v-1.9 1.9zm-.3 1.9v-3.5m-.3 5.7v-5.4m-.3 7.3v-7.1m-.2 9v-9m-.3 11.1v-10.9m-.3 12.9v-12.5m-.2 14.6v-14.4m0-33.8l2.2 16.1-2.2-16.1zm2.1 16.1l-2.2-1.6 2.2 1.6zm-2.1-1.6l-2.2 1.6 2.2-1.6zm-2.2 1.6l2.2-16.1-2.2 16.1zm4.1-.3V602v1.9zm-.3-.2v-3.5m-.3 3.2V598m-.3 5.4V596m-.2 7.1v-9m-.3 8.7v-10.9m-.3 10.7V590m-.2 12.6v-14.4m1.9 15.7V602v1.9zm-.3-.2v-3.5m-.3 3.2V598m-.3 5.4V596m-.2 7.1v-9m-.3 8.7v-10.9m-.3 10.7V590m-.2 12.6v-14.4m-.3 14.4V590v12.6zm-.3.2v-10.9m-.3 11.2v-9m-.2 9.3V596m-.3 7.4V598m-.3 5.7v-3.5m-.2 3.7V602m1.6.6V590v12.6zm-.3.2v-10.9m-.3 11.2v-9m-.2 9.3V596m-.3 7.4V598m-.3 5.7v-3.5m-.2 3.7V602m1.9 34.3v-48.2 48.2z"/><text transform="matrix(0 -.9397 .9397 .342 34.386 559.76)" fill="#3F365B" font-family="'GOSTTypeA'" font-size="25.031">3</text><path fill="none" stroke="#3F365B" stroke-miterlimit="10" d="M26.4 546.2v-20.4 20.4z"/><text transform="matrix(0 -.9397 .9397 .342 19.805 543.91)" fill="#3F365B" font-family="'GOSTTypeA'" font-size="25.031">7</text><text transform="matrix(0 -.9397 .9397 .342 19.805 533.7)" fill="#3F365B" font-family="'GOSTTypeA'" font-size="25.031">H</text><text transform="matrix(0 -.9397 .9397 .342 45.969 552.796)" fill="#3F365B" font-family="'GOSTTypeA'" font-size="25.031">6</text><text transform="matrix(0 -.9397 .9397 .342 45.969 542.585)" fill="#3F365B" font-family="'GOSTTypeA'" font-size="25.031">g</text><text transform="matrix(0 -.9397 .9397 .342 34.386 527.19)" fill="#3F365B" font-family="'GOSTTypeA'" font-size="25.031">*</text><path fill="none" stroke="#3F365B" stroke-miterlimit="10" d="M270.1 628.7l-.5-1.1.5 1.1zm-.6-1.1l-1.1.5 1.1-.5zm-1.1.6l.5 1.1-.5-1.1zm.6 1.1l1.1-.5-1.1.5zm1.1-.6l.5.3-.5-.3zm.5.3l-.8-1.9.8 1.9zm-.8-1.9l-2.2.5 2.2-.5zm-2.2.5l.8 2.2-.8-2.2zm.8 2.2l2.2-.8-2.2.8zm2.2-.8l.8.5-.8-.5zm.8.5l-1.1-3.3 1.1 3.3zm-1-3.2l-3.3 1.1 3.3-1.1zm-3.3 1l1.1 3.3-1.1-3.3zm1.1 3.3l3.3-1.1-3.3 1.1zm97.7 41.9l-96.7-44.1 96.7 44.1zm0 0v44.9-44.9z"/><text transform="matrix(0 -.9397 .9397 .342 362.63 711.02)" fill="#3F365B" font-family="'GOSTTypeA'" font-size="35.213">2</text><text transform="matrix(0 -.9397 .9397 .342 362.63 696.725)" fill="#3F365B" font-family="'GOSTTypeA'" font-size="35.213">1</text></svg>