<svg xmlns="http://www.w3.org/2000/svg" viewBox="0 0 403.1 423"><path fill="#5AB6C0" d="M168.6 410.8l-2.1 5.7h4.2c.1 0 .2.1.3.2.1.1.1.2 0 .3 0 .1-.1.2-.2.3-.1.1-.3.2-.4.2h-4.7c-.3 0-.4-.2-.3-.5l4.5-12.3c.1-.3.3-.5.6-.5h4.7c.1 0 .2 0 .3.2.1.1.1.2 0 .3s-.1.2-.2.3c-.1.1-.3.2-.4.2h-4.2l-1.7 4.7h2.4c.1 0 .2.1.3.2.1.1.1.2 0 .3 0 .1-.1.2-.2.3-.1.1-.3.2-.4.2h-2.5zm-17.3-242.1l1.9-5.2c0-.1.1-.2.3-.3.1-.1.3-.2.4-.2.1 0 .2 0 .3.1.1.1.1.2 0 .3l-4.5 12.3c-.1.2-.1.3-.3.4-.1.1-.2.1-.4.1-.1 0-.2 0-.3-.1-.1-.1-.1-.2 0-.4l2.2-6.1h-4.7l-2.2 6.1c-.1.2-.1.3-.3.4-.1.1-.2.1-.4.1-.1 0-.2 0-.3-.1-.1-.1-.1-.2 0-.4l4.5-12.3c0-.1.1-.2.3-.3.1-.1.3-.2.4-.2.1 0 .2 0 .3.1.1.1.1.2 0 .3l-1.9 5.2h4.7zm118.504 174.374l.262.965-9.361 2.54-.262-.966z"/><path fill="#5AB6C0" d="M278.829 339.973l.331.944-9.059 3.178-.33-.943z"/><path fill="#5AB6C0" d="M287.678 336.273l.38.925-8.88 3.648-.38-.925zm8.816-4.247l.44.898-8.707 4.274-.44-.898z"/><path fill="#5AB6C0" d="M304.656 327.115l.512.86-8.249 4.91-.511-.858zm7.945-5.428l.563.827-7.939 5.398-.562-.827z"/><path fill="#5AB6C0" d="M320.398 315.877l.603.798-7.82 5.906-.603-.798z"/><path fill="#5AB6C0" d="M327.454 309.496l.664.747-7.175 6.378-.664-.747z"/><path fill="#5AB6C0" d="M334.259 302.532l.714.7-6.853 7.005-.715-.7z"/><path fill="#5AB6C0" d="M340.612 295.358l.748.664-6.379 7.175-.747-.664z"/><path fill="#5AB6C0" d="M346.336 287.634l.806.592-5.742 7.817-.806-.592zm5.459-8.057l.832.555-5.38 8.071-.832-.554zm4.682-8.311l.866.5-4.749 8.228-.866-.5z"/><path fill="#5AB6C0" d="M360.634 262.565l.904.428-4.148 8.769-.904-.428z"/><path fill="#5AB6C0" d="M364.267 253.686l.925.38-3.648 8.88-.925-.38zm2.974-9.233l.95.311-3.02 9.217-.951-.311z"/><path fill="#5AB6C0" d="M369.34 236.583l.968.252-2.066 7.935-.968-.251zM254.558 344.819l2.26.807-.336.941-2.26-.807z"/><path fill="#5AB6C0" d="M256.638 345.626l2.395.16-.066.997-2.395-.16z"/><path fill="#5AB6C0" d="M260.52 345.588l.1.995-1.592.159-.1-.995zm-61.227-.688l.316.949-2.371.791-.317-.949z"/><path fill="#5AB6C0" d="M197.069 345.658l.066.998-2.395.16-.066-.998z"/><path fill="#5AB6C0" d="M193.35 345.63l1.39.154-.11.994-1.391-.154zm9.25-1.53h2.4v1h-2.4z"/><path fill="#5AB6C0" d="M202.544 344.103l.196.98-2.353.472-.197-.98z"/><path fill="#5AB6C0" d="M200.063 344.63l.371.928-.836.334-.37-.929zm51.999-.438l2.415.644-.257.966-2.416-.644z"/><path fill="#5AB6C0" d="M249.643 344.03l2.394.16-.066.998-2.395-.16z"/><path fill="#5AB6C0" d="M248.8 344.1h.8v1h-.8zm5.758.719l2.26.807-.336.941-2.26-.807z"/><path fill="#5AB6C0" d="M256.638 345.626l2.395.16-.066.997-2.395-.16z"/><path fill="#5AB6C0" d="M260.52 345.588l.1.995-1.592.159-.1-.995zm-61.227-.688l.316.949-2.371.791-.317-.949z"/><path fill="#5AB6C0" d="M197.069 345.658l.066.998-2.395.16-.066-.998z"/><path fill="#5AB6C0" d="M193.35 345.63l1.39.154-.11.994-1.391-.154zm9.25-1.53h2.4v1h-2.4z"/><path fill="#5AB6C0" d="M202.544 344.103l.196.98-2.353.472-.197-.98z"/><path fill="#5AB6C0" d="M200.063 344.63l.371.928-.836.334-.37-.929zm51.999-.438l2.415.644-.257.966-2.416-.644z"/><path fill="#5AB6C0" d="M249.643 344.03l2.394.16-.066.998-2.395-.16z"/><path fill="#5AB6C0" d="M248.8 344.1h.8v1h-.8zm120.723-170.892l.942.336-.807 2.26-.942-.335z"/><path fill="#5AB6C0" d="M369.683 170.973l.998.067-.159 2.395-.998-.067z"/><path fill="#5AB6C0" d="M370.316 169.366l.313 1.569-.98.196-.314-1.57zm-.683 60.959l.79 2.372-.949.316-.79-2.371z"/><path fill="#5AB6C0" d="M370.458 232.903l.16 2.395-.998.066-.16-2.394z"/><path fill="#5AB6C0" d="M369.655 235.196l.976.217-.325 1.464-.976-.216zm-1.77-10.326l.998.067-.16 2.395-.997-.067z"/><path fill="#5AB6C0" d="M368.718 227.178l.645 2.416-.966.258-.645-2.416z"/><path fill="#5AB6C0" d="M369.343 229.521l.334.836-.929.371-.334-.835zm-.623-54.017l.949.317-.791 2.371-.949-.316z"/><path fill="#5AB6C0" d="M367.884 177.97l.997.067-.159 2.394-.998-.066z"/><path fill="#5AB6C0" d="M368.704 180.28l.157.784-.98.196-.158-.784zM197.224 59.519l2.372.79-.316.949-2.372-.79z"/><path fill="#5AB6C0" d="M194.737 59.323l2.395.16-.066.997-2.395-.16z"/><path fill="#5AB6C0" d="M194.543 59.368l.217.977-1.464.325-.217-.977zm61.881.187l.336.942-2.26.806-.337-.942z"/><path fill="#5AB6C0" d="M258.936 59.373l.067.998-2.395.16-.067-.998z"/><path fill="#5AB6C0" d="M259.011 59.332l1.569.313-.196.98-1.569-.313zm-10.173 1.793l2.395.16-.067.997-2.395-.16z"/><path fill="#5AB6C0" d="M253.412 60.678l.258.966-2.416.645-.258-.967z"/><path fill="#5AB6C0" d="M254.152 60.283l.372.928-.835.335-.372-.929zm-54.528.049l2.371.791-.316.949-2.372-.79z"/><path fill="#5AB6C0" d="M201.837 61.12l2.395.16-.067.997-2.395-.16z"/><path fill="#5AB6C0" d="M204.883 61.058l.196.98-.784.157-.196-.98zM84.145 230.303l.949.316-.791 2.372-.949-.317z"/><path fill="#5AB6C0" d="M83.28 232.868l.998.066-.16 2.395-.997-.066z"/><path fill="#5AB6C0" d="M84.146 235.196l.155 1.392-.994.11-.155-1.391zm.154-62.001l.807 2.26-.942.337-.807-2.26z"/><path fill="#5AB6C0" d="M84.173 171.032l.16 2.395-.998.066-.16-2.394z"/><path fill="#5AB6C0" d="M83.282 169.345l.995.1-.16 1.592-.994-.1zM84.9 178.8h1v2.4h-1z"/><path fill="#5AB6C0" d="M85.453 176.365l.47 2.354-.98.196-.471-2.354z"/><path fill="#5AB6C0" d="M85.127 175.48l.335.836-.929.371-.334-.835zm-.393 52.528l.967.258-.645 2.416-.966-.258z"/><path fill="#5AB6C0" d="M84.883 225.668l.998.067-.16 2.395-.997-.067z"/><path fill="#5AB6C0" d="M84.9 224.9h1v.8h-1zm-.593 11.633l2.539 9.361-.965.262-2.539-9.362zm2.575 9.43l3.179 9.058-.944.331-3.178-9.058z"/><path fill="#5AB6C0" d="M90.001 254.99l3.667 9.09-.927.373-3.667-9.088z"/><path fill="#5AB6C0" d="M93.696 264.022l4.293 8.586-.894.447-4.293-8.586z"/><path fill="#5AB6C0" d="M97.902 272.616l4.915 8.247-.859.512-4.915-8.247zm5.011 8.188l5.381 8.07-.832.556-5.38-8.07zm5.367 8.106l5.861 7.603-.792.61-5.86-7.603z"/><path fill="#5AB6C0" d="M114.095 296.482l6.379 7.175-.748.664-6.378-7.175z"/><path fill="#5AB6C0" d="M120.459 303.626l7.009 6.849-.7.715-7.008-6.85z"/><path fill="#5AB6C0" d="M127.441 310.466l7.175 6.378-.664.747-7.175-6.378z"/><path fill="#5AB6C0" d="M134.597 316.775l7.82 5.906-.602.798-7.82-5.906z"/><path fill="#5AB6C0" d="M142.36 322.676l8.144 5.269-.543.84-8.144-5.27z"/><path fill="#5AB6C0" d="M150.415 327.877l8.229 4.747-.5.867-8.229-4.748zm8.246 4.719l8.708 4.274-.44.898-8.708-4.274zm8.699 4.3l8.88 3.647-.38.925-8.88-3.647z"/><path fill="#5AB6C0" d="M176.2 340.593l9.217 3.02-.311.95-9.218-3.02zm9.27 2.981l7.935 2.063-.251.968-7.936-2.063zm7.63-283.87l.263.965-9.362 2.54-.262-.966z"/><path fill="#5AB6C0" d="M183.724 62.171l.316.949-9.106 3.038-.317-.948z"/><path fill="#5AB6C0" d="M174.637 65.28l.388.921-9.034 3.8-.388-.922zm-9.158 3.768l.447.894-8.586 4.293-.448-.894z"/><path fill="#5AB6C0" d="M156.923 73.362l.5.867-8.228 4.749-.5-.867zm-8.313 4.792l.555.832-8.07 5.38-.556-.832zm-8.096 5.479l.61.792-7.604 5.86-.61-.792zm-7.687 5.917l.673.738-7.169 6.534-.674-.739z"/><path fill="#5AB6C0" d="M125.653 96.092l.707.707-6.86 6.859-.706-.708z"/><path fill="#5AB6C0" d="M118.77 102.985l.754.656-6.364 7.32-.755-.656z"/><path fill="#5AB6C0" d="M112.338 110.271l.792.61-5.86 7.605-.792-.61z"/><path fill="#5AB6C0" d="M106.52 117.926l.84.543-5.266 8.146-.84-.543z"/><path fill="#5AB6C0" d="M101.245 126.098l.87.492-4.775 8.443-.87-.492zm-4.875 8.466l.898.441-4.274 8.708-.897-.44z"/><path fill="#5AB6C0" d="M92.079 143.26l.925.38-3.648 8.88-.925-.38zm-3.651 9.014l.95.312-3.02 9.217-.951-.312z"/><path fill="#5AB6C0" d="M85.443 161.525l.967.257-2.08 7.828-.967-.257zm282.341-1.629l2.539 9.361-.965.262-2.539-9.362z"/><path fill="#5AB6C0" d="M364.718 150.83l3.035 9.107-.948.317-3.036-9.108z"/><path fill="#5AB6C0" d="M360.912 141.845l3.82 8.916-.918.393-3.821-8.915zm-4.357-8.755l4.274 8.707-.898.44-4.274-8.707z"/><path fill="#5AB6C0" d="M351.777 124.827l4.748 8.23-.867.5-4.747-8.23z"/><path fill="#5AB6C0" d="M346.37 116.857l5.399 7.938-.827.563-5.398-7.939zm-5.917-7.897l5.905 7.82-.798.603-5.905-7.82z"/><path fill="#5AB6C0" d="M333.97 101.81l6.533 7.17-.74.673-6.533-7.17z"/><path fill="#5AB6C0" d="M327.083 94.933l6.858 6.859-.707.707-6.858-6.86z"/><path fill="#5AB6C0" d="M319.725 88.552l7.32 6.365-.657.754-7.32-6.365zm-7.681-5.726l7.6 5.7-.6.8-7.6-5.7zm-8.133-5.448l8.072 5.38-.555.832-8.071-5.38z"/><path fill="#5AB6C0" d="M295.47 72.58l8.44 4.777-.492.87-8.441-4.778z"/><path fill="#5AB6C0" d="M286.671 68.48l8.77 4.146-.427.905-8.77-4.146zm-8.938-3.678l8.88 3.647-.38.925-8.88-3.647z"/><path fill="#5AB6C0" d="M268.508 61.707l9.217 3.02-.31.95-9.219-3.02z"/><path fill="#5AB6C0" d="M260.672 59.67l7.83 2.078-.257.966-7.829-2.077zM84.195 203.174l.316 9.494-1 .033-.316-9.494z"/><path fill="#5AB6C0" d="M84.452 212.598l.95 9.352-.994.102-.951-9.352zm.978 9.357l.477 2.86-.987.165-.476-2.86zm284.71-28.429l.316 9.494-.999.034-.317-9.495z"/><path fill="#5AB6C0" d="M369.241 184.004l.955 9.552-.995.1-.955-9.552z"/><path fill="#5AB6C0" d="M368.903 181.14l.32 2.881-.994.111-.32-2.882zM52.9 199.8h1v5.6h-1z"/><path fill="#5AB6C0" d="M53.26 191.489l1 .038-.316 8.294-1-.038z"/><path fill="#5AB6C0" d="M54.176 180.377l.996.085-.951 11.16-.997-.085zm1.634-11.989l.99.132-1.581 11.895-.991-.132z"/><path fill="#5AB6C0" d="M57.84 156.294l.986.17-2.079 12.122-.985-.169z"/><path fill="#5AB6C0" d="M60.747 144.349l.972.233-2.87 11.96-.972-.233z"/><path fill="#5AB6C0" d="M64.079 133.198l.958.287-3.33 11.111-.959-.287zm3.686-10.253l.941.338-3.648 10.165-.941-.338z"/><path fill="#5AB6C0" d="M71.714 113.895l.916.402-3.973 9.067-.916-.401zm4.209-8.325l.895.447-4.115 8.229-.894-.447zm4.323-7.228l.858.515-4.271 7.117-.858-.515z"/><path fill="#5AB6C0" d="M83.403 93.7l.824.568-3.178 4.61-.824-.567z"/><path fill="#5AB6C0" d="M88.051 87.772l.787.617-4.627 5.902-.787-.617z"/><path fill="#5AB6C0" d="M93.318 81.979l.746.665-5.26 5.894-.746-.666z"/><path fill="#5AB6C0" d="M99.583 75.988l.688.726-6.238 5.919-.688-.725z"/><path fill="#5AB6C0" d="M106.538 70.138l.644.766-6.967 5.855-.643-.766z"/><path fill="#5AB6C0" d="M114.39 64.372l.592.806-7.818 5.743-.592-.806zm8.827-5.907l.559.83-8.711 5.862-.558-.83z"/><path fill="#5AB6C0" d="M132.696 52.894l.504.864-9.503 5.54-.504-.864z"/><path fill="#5AB6C0" d="M143.029 47.432l.464.886-10.365 5.427-.464-.885z"/><path fill="#5AB6C0" d="M153.904 42.503l.415.91-10.828 4.937-.415-.91z"/><path fill="#5AB6C0" d="M165.235 38.24l.356.934-11.31 4.302-.356-.935z"/><path fill="#5AB6C0" d="M176.379 34.397l.324.946-11.163 3.825-.324-.946zm10.713-2.874l.26.966-10.623 2.857-.26-.966z"/><path fill="#5AB6C0" d="M197.255 29.269l.214.977-10.16 2.224-.213-.976z"/><path fill="#5AB6C0" d="M206.705 27.85l.15.989-9.391 1.429-.15-.989zm8.828-.76l.091.996-8.764.8-.09-.997z"/><path fill="#5AB6C0" d="M223.636 26.896l.02 1-8.098.158-.02-1z"/><path fill="#5AB6C0" d="M223.6 26.9h3.3v1h-3.3zm3.448-.014l7.272.632-.087.996-7.272-.632zm7.347.66l7.922 1.108-.139.99-7.922-1.108z"/><path fill="#5AB6C0" d="M242.325 28.646l8.282 1.911-.225.975-8.282-1.912zm8.381 1.892l8.78 2.394-.263.965-8.78-2.394z"/><path fill="#5AB6C0" d="M259.438 32.928l9.376 3.178-.321.947-9.376-3.178zm9.439 3.227l9.716 3.981-.38.925-9.715-3.981z"/><path fill="#5AB6C0" d="M278.547 40.14l10.141 4.753-.424.905-10.142-4.753zm10.233 4.768l10.535 5.747-.479.878-10.534-5.747z"/><path fill="#5AB6C0" d="M299.3 50.705l10.647 6.356-.513.859-10.646-6.356z"/><path fill="#5AB6C0" d="M309.956 56.966l10.484 6.989-.555.832-10.483-6.99zm10.548 7.074l9.878 7.329-.596.803-9.878-7.328z"/><path fill="#5AB6C0" d="M330.378 71.414l9.244 7.652-.637.77-9.245-7.651z"/><path fill="#5AB6C0" d="M339.625 79.04l8.303 7.665-.678.735-8.303-7.665z"/><path fill="#5AB6C0" d="M347.9 86.668l7.132 7.291-.715.7-7.133-7.292zm7.193 7.313l6.377 7.175-.747.664-6.377-7.175z"/><path fill="#5AB6C0" d="M361.457 101.188l5.22 6.96-.8.6-5.22-6.96zm5.294 7.085l3.847 5.608-.825.565-3.846-5.608z"/><path fill="#5AB6C0" d="M370.546 113.765l3.99 6.702-.86.512-3.989-6.703zm3.996 6.808l3.8 7.602-.894.448-3.8-7.603z"/><path fill="#5AB6C0" d="M378.376 128.185l3.836 8.472-.91.412-3.837-8.472z"/><path fill="#5AB6C0" d="M382.24 136.659l3.494 9.37-.937.349-3.494-9.37z"/><path fill="#5AB6C0" d="M385.709 146.06l3.192 10.214-.955.298-3.192-10.213z"/><path fill="#5AB6C0" d="M388.95 156.265l3.011 11.099-.965.262-3.011-11.099z"/><path fill="#5AB6C0" d="M391.931 167.397l2.536 11.729-.977.211-2.536-11.729zm2.579 11.873l1.91 12.252-.988.154-1.91-12.253z"/><path fill="#5AB6C0" d="M396.414 191.49l1.426 12.52-.994.113-1.426-12.52z"/><path fill="#5AB6C0" d="M397.848 204.07l.638 12.283-.998.052-.638-12.284z"/><path fill="#5AB6C0" d="M398.507 216.371l.16 11.799-1 .013-.16-11.798z"/><path fill="#5AB6C0" d="M397.603 228.07l.998.059-.633 10.98-.999-.057zm-.653 11.002l.994.108-1.106 10.14-.994-.108z"/><path fill="#5AB6C0" d="M395.933 249.187l.989.154-1.426 9.19-.988-.153zm-1.49 9.237l.972.234-2.061 8.556-.973-.234z"/><path fill="#5AB6C0" d="M392.409 266.936l.956.293-2.403 7.84-.956-.293z"/><path fill="#5AB6C0" d="M390.016 274.646l.93.367-2.718 6.883-.93-.368z"/><path fill="#5AB6C0" d="M387.406 281.365l.706.708-.141.141-.706-.708z"/><path fill="#5AB6C0" d="M387.152 281.72l.903.427-2.867 6.056-.904-.428z"/><path fill="#5AB6C0" d="M384.381 287.685l.873.488-3.801 6.81-.874-.487zm-3.826 6.796l.826.564-4.79 7.021-.826-.563zm-4.797 7.045l.798.603-5.424 7.182-.798-.602z"/><path fill="#5AB6C0" d="M370.355 308.625l.768.64-6.339 7.604-.768-.64z"/><path fill="#5AB6C0" d="M364.084 316.24l.73.685-7.322 7.802-.73-.684zm-7.327 7.805l.686.728-8.297 7.818-.686-.728z"/><path fill="#5AB6C0" d="M348.486 331.796l.66.752-9.1 7.976-.659-.752z"/><path fill="#5AB6C0" d="M339.403 339.701l.612.79-9.885 7.652-.612-.79z"/><path fill="#5AB6C0" d="M329.575 347.342l.58.813-10.008 7.15-.58-.815z"/><path fill="#5AB6C0" d="M319.568 354.446l.533.847-9.906 6.226-.532-.846z"/><path fill="#5AB6C0" d="M309.803 360.686l.476.88-9.677 5.23-.476-.88zm-9.701 5.241l.447.895-8.944 4.472-.447-.895z"/><path fill="#5AB6C0" d="M291.178 370.342l.383.924-8.403 3.49-.384-.923z"/><path fill="#5AB6C0" d="M282.868 373.817l.322.946-7.953 2.706-.322-.947zm-8.028 2.666l.265.965-6.364 1.75-.265-.964z"/><path fill="#5AB6C0" d="M268.588 378.223l.185.983-5.11.96-.185-.983zm-5.119.952l.107.994-5.866.633-.107-.994z"/><path fill="#5AB6C0" d="M251.3 379.8h6.4v1h-6.4z"/><path fill="#5AB6C0" d="M244.347 379.37l6.984.476-.068.997-6.984-.476z"/><path fill="#5AB6C0" d="M236.792 378.44l7.64.955-.123.992-7.641-.955z"/><path fill="#5AB6C0" d="M228.391 376.826l8.452 1.595-.186.982-8.451-1.594zm-9.424-2.241l9.34 2.216-.23.973-9.341-2.216z"/><path fill="#5AB6C0" d="M208.644 371.596l10.366 3.03-.28.96-10.366-3.03z"/><path fill="#5AB6C0" d="M197.061 367.815l11.59 3.81-.312.95-11.59-3.81zm-13.342-4.942l13.322 4.916-.346.938-13.322-4.916z"/><path fill="#5AB6C0" d="M168.355 356.462l15.439 6.366-.381.925-15.44-6.366zm-16.111-7.11l16.076 7.163-.407.913-16.076-7.163z"/><path fill="#5AB6C0" d="M138.952 342.985l13.363 6.363-.43.903-13.363-6.363zm-10.694-5.274l10.676 5.257-.442.897-10.676-5.257z"/><path fill="#5AB6C0" d="M119.511 333.148l8.758 4.617-.466.884-8.758-4.617z"/><path fill="#5AB6C0" d="M112.237 329.174l7.292 3.963-.478.878-7.292-3.963zm-6.373-3.39l6.375 3.347-.465.885-6.375-3.346z"/><path fill="#5AB6C0" d="M100.612 322.94l5.267 2.873-.479.878-5.267-2.874z"/><path fill="#5AB6C0" d="M96.203 320.39l4.428 2.53-.496.87-4.428-2.531zm-3.701-2.237l3.673 2.236-.52.854-3.673-2.236z"/><path fill="#5AB6C0" d="M89.464 316.554l3.01 1.583-.466.885-3.01-1.583z"/><path fill="#5AB6C0" d="M87.297 315.156l2.187 1.406-.54.841-2.187-1.406zm-1.825-.981l1.756.958-.479.878-1.756-.958z"/><path fill="#5AB6C0" d="M84.592 313.572l.915.61-.554.833-.916-.61z"/><path fill="#5AB6C0" d="M84.094 313.334l.5.333-.556.832-.499-.334z"/><path fill="#5AB6C0" d="M83.7 313.2h.2v1h-.2z"/><path fill="#5AB6C0" d="M83.2 313.4h1v.3h-1z"/><path fill="#5AB6C0" d="M83.652 312.206l.493.983-.895.448-.492-.984z"/><path fill="#5AB6C0" d="M83.026 310.79l.65 1.463-.914.406-.65-1.462zm-.859-2.082l.79 2.053-.934.36-.79-2.054z"/><path fill="#5AB6C0" d="M81.101 305.924l1.124 2.89-.932.362-1.124-2.889zm-1.437-3.6l1.439 3.517-.926.378-1.438-3.517z"/><path fill="#5AB6C0" d="M78.102 298.047l1.597 4.313-.937.348-1.598-4.314z"/><path fill="#5AB6C0" d="M76.225 292.844l1.914 5.263-.94.341-1.914-5.263zm-2.263-6.209l2.23 6.212-.94.337-2.23-6.211zm-2.765-7.315l2.704 7.316-.938.347-2.704-7.317z"/><path fill="#5AB6C0" d="M68.197 270.287l3.035 9.107-.948.316-3.036-9.107z"/><path fill="#5AB6C0" d="M64.574 259l3.667 11.32-.951.308-3.668-11.32z"/><path fill="#5AB6C0" d="M60.493 244.256l4.147 14.831-.963.27-4.147-14.832zm-3.186-13.034l3.176 13.018-.971.237-3.176-13.018zm-1.791-9.437l1.741 9.34-.983.183-1.741-9.34z"/><path fill="#5AB6C0" d="M54.392 214.37l1.12 7.517-.99.148-1.12-7.518z"/><path fill="#5AB6C0" d="M53.902 208.049l.478 6.382-.997.075-.478-6.382z"/><path fill="#5AB6C0" d="M52.9 205.4h1v2.7h-1zm32.058-24.227l.994.116-1.116 9.535-.993-.116z"/><path fill="#5AB6C0" d="M83.82 190.68l.999.066-.638 9.579-.997-.067z"/><path fill="#5AB6C0" d="M83.2 200.3h1v2.9h-1zM239.299 59.958l9.536 1.113-.116.993-9.536-1.112z"/><path fill="#5AB6C0" d="M229.744 59.466l9.588.48-.05.998-9.588-.48zm-.073.02l.017 1-9.5.157-.016-1zm-9.577.198l.067.997-9.58.638-.065-.998z"/><path fill="#5AB6C0" d="M210.507 60.276l.141.99-5.543.793-.142-.99zm158.468 155.178l.993.118-1.122 9.433-.993-.118z"/><path fill="#5AB6C0" d="M369.454 205.987l.998.05-.478 9.589-.998-.05z"/><path fill="#5AB6C0" d="M369.5 203.1h1v2.9h-1zM205.085 344.034l9.434 1.12-.118.992-9.434-1.119z"/><path fill="#5AB6C0" d="M214.446 345.188l9.579.638-.067.998-9.579-.638zm19.084.432l.016 1-9.499.157-.016-1z"/><path fill="#5AB6C0" d="M242.979 344.867l.083.996-9.567.797-.083-.996z"/><path fill="#5AB6C0" d="M248.644 344.05l.138.99-5.745.799-.138-.99zM370.14 193.526l.316 9.494-.999.034-.317-9.495z"/><path fill="#5AB6C0" d="M369.241 184.004l.955 9.552-.995.1-.955-9.552z"/><path fill="#5AB6C0" d="M367.578 174.627l1.588 9.366-.986.167-1.588-9.366z"/><path fill="#5AB6C0" d="M365.34 165.385l2.229 9.235-.972.234-2.229-9.235zm-2.638-9.347l2.7 9.212-.96.282-2.7-9.212z"/><path fill="#5AB6C0" d="M359.118 147.087l3.51 8.935-.93.365-3.51-8.934z"/><path fill="#5AB6C0" d="M355.182 138.549l3.99 8.621-.907.42-3.99-8.621zm-4.648-8.484l4.608 8.423-.878.48-4.608-8.423z"/><path fill="#5AB6C0" d="M345.488 121.941l5.102 8.132-.847.532-5.102-8.132zm-5.673-7.661l5.539 7.596-.808.59-5.539-7.596zm-6.225-7.411l6.207 7.322-.762.647-6.209-7.322z"/><path fill="#5AB6C0" d="M326.909 100.021l6.707 6.868-.715.699-6.708-6.868z"/><path fill="#5AB6C0" d="M319.896 93.623l7.03 6.39-.673.74-7.03-6.39z"/><path fill="#5AB6C0" d="M312.39 87.57l7.465 6.035-.629.778-7.465-6.036z"/><path fill="#5AB6C0" d="M304.533 82.163l7.805 5.416-.57.822-7.805-5.416z"/><path fill="#5AB6C0" d="M296.276 77.397l8.23 4.747-.5.867-8.23-4.747zm-8.493-4.469l8.4 4.439-.467.884-8.4-4.439z"/><path fill="#5AB6C0" d="M278.854 69.2l8.88 3.647-.38.925-8.88-3.647z"/><path fill="#5AB6C0" d="M269.932 66.032l8.947 3.195-.337.942-8.946-3.195z"/><path fill="#5AB6C0" d="M260.718 63.464l9.254 2.553-.266.964-9.254-2.553z"/><path fill="#5AB6C0" d="M251.282 61.573l9.407 1.913-.199.98-9.407-1.914zm-9.474-1.314l9.414 1.276-.135.991-9.413-1.276z"/><path fill="#5AB6C0" d="M232.247 59.5l9.566.797-.083.997-9.566-.797z"/><path fill="#5AB6C0" d="M222.7 59.5h9.5v1h-9.5z"/><path fill="#5AB6C0" d="M222.678 59.477l.066.998-9.579.637-.066-.998z"/><path fill="#5AB6C0" d="M213.103 60.177l.135.991-9.413 1.28-.135-.991z"/><path fill="#5AB6C0" d="M203.67 61.435l.183.983-9.339 1.744-.183-.983z"/><path fill="#5AB6C0" d="M194.288 63.204l.265.965-9.255 2.55-.266-.964z"/><path fill="#5AB6C0" d="M185.005 65.697l.316.949-9.107 3.038-.316-.948z"/><path fill="#5AB6C0" d="M175.9 68.743l.386.922-8.765 3.665-.386-.923z"/><path fill="#5AB6C0" d="M167.11 72.378l.447.895-8.587 4.293-.447-.895zm-8.643 4.362l.5.867-8.229 4.749-.5-.866z"/><path fill="#5AB6C0" d="M150.203 81.552l.57.822-7.803 5.419-.57-.822z"/><path fill="#5AB6C0" d="M142.37 87.003l.61.792-7.604 5.86-.61-.792z"/><path fill="#5AB6C0" d="M134.662 92.84l.673.74-7.03 6.39-.673-.74z"/><path fill="#5AB6C0" d="M127.697 99.217l.716.698-6.703 6.872-.716-.698z"/><path fill="#5AB6C0" d="M121.007 106.145l.755.655-6.222 7.178-.756-.655z"/><path fill="#5AB6C0" d="M114.788 113.256l.8.6-5.697 7.601-.8-.6zm-5.803 7.734l.84.542-5.266 8.146-.84-.543z"/><path fill="#5AB6C0" d="M103.788 129.075l.873.488-4.63 8.295-.873-.487z"/><path fill="#5AB6C0" d="M99.137 137.363l.901.433-4.118 8.562-.901-.434zm-4.162 8.688l.931.366-3.507 8.936-.93-.365z"/><path fill="#5AB6C0" d="M91.454 154.957l.953.3-2.858 9.06-.954-.3z"/><path fill="#5AB6C0" d="M88.633 164.035l.973.23-2.214 9.342-.973-.23zm-2.25 9.455l.983.183-1.744 9.338-.983-.183z"/><path fill="#5AB6C0" d="M84.587 182.863l.995.101-.954 9.351-.995-.101zm-.944 9.426l.999.05-.478 9.588-.999-.05z"/><path fill="#5AB6C0" d="M84.222 201.9l.316 9.494-1 .034-.315-9.495z"/><path fill="#5AB6C0" d="M84.481 211.379l.798 9.566-.997.083-.797-9.566z"/><path fill="#5AB6C0" d="M85.23 220.86l1.587 9.366-.986.167-1.587-9.366zm1.66 9.374l2.065 9.375-.976.215-2.066-9.375zm2.009 9.413l2.715 9.104-.959.286-2.715-9.104z"/><path fill="#5AB6C0" d="M91.572 248.628l3.51 8.935-.93.366-3.511-8.935z"/><path fill="#5AB6C0" d="M95.098 257.52l3.799 8.707-.917.4-3.799-8.706zm3.777 8.742l4.608 8.422-.877.48-4.608-8.422z"/><path fill="#5AB6C0" d="M103.538 274.602l4.935 8.118-.855.519-4.934-8.118z"/><path fill="#5AB6C0" d="M108.416 282.692l5.7 7.6-.8.6-5.7-7.6z"/><path fill="#5AB6C0" d="M114.072 290.292l6.036 7.465-.778.629-6.035-7.465zm6.084 7.445l6.556 6.875-.724.69-6.556-6.875z"/><path fill="#5AB6C0" d="M126.641 304.563l7.024 6.544-.682.732-7.023-6.545z"/><path fill="#5AB6C0" d="M133.583 311.058l7.465 6.036-.629.777-7.465-6.035z"/><path fill="#5AB6C0" d="M141.044 317.082l7.806 5.416-.57.821-7.806-5.416zm7.801 5.428l8.117 4.934-.52.855-8.117-4.934z"/><path fill="#5AB6C0" d="M156.883 327.416l8.4 4.438-.467.884-8.4-4.438zm8.424 4.394l8.706 3.8-.4.916-8.706-3.799zm8.727 3.836l9.058 3.179-.33.943-9.06-3.178z"/><path fill="#5AB6C0" d="M183.01 338.854l9.212 2.7-.282.96-9.212-2.7z"/><path fill="#5AB6C0" d="M192.2 341.558l9.205 1.905-.203.98-9.205-1.905z"/><path fill="#5AB6C0" d="M201.41 343.385l9.591 1.44-.148.988-9.592-1.44z"/><path fill="#5AB6C0" d="M210.957 344.795l9.366.794-.084.996-9.366-.794z"/><path fill="#5AB6C0" d="M220.3 345.6h9.5v1h-9.5z"/><path fill="#5AB6C0" d="M239.374 345.158l.05 1-9.589.477-.05-.999z"/><path fill="#5AB6C0" d="M248.885 344.08l.116.994-9.534 1.115-.116-.993zm9.338-1.806l.183.983-9.338 1.743-.184-.983zm9.231-2.389l.25.968-9.198 2.376-.25-.968z"/><path fill="#5AB6C0" d="M276.472 336.93l.316.949-9.106 3.038-.317-.948z"/><path fill="#5AB6C0" d="M285.22 333.285l.385.922-8.765 3.665-.386-.923z"/><path fill="#5AB6C0" d="M293.74 329.21l.433.9-8.561 4.119-.433-.902zm8.255-4.818l.5.866-8.228 4.75-.5-.867zm7.939-5.272l.55.835-7.93 5.23-.55-.834z"/><path fill="#5AB6C0" d="M317.508 313.298l.61.793-7.604 5.86-.61-.793z"/><path fill="#5AB6C0" d="M324.674 306.961l.664.748-7.175 6.378-.664-.747z"/><path fill="#5AB6C0" d="M331.264 300.314l.707.707-6.647 6.647-.707-.707zm6.21-7.217l.755.655-6.222 7.178-.756-.655z"/><path fill="#5AB6C0" d="M343.329 285.594l.792.61-5.86 7.604-.792-.61zm5.274-7.981l.835.55-5.23 7.93-.835-.55z"/><path fill="#5AB6C0" d="M353.186 269.376l.873.487-4.63 8.296-.873-.488z"/><path fill="#5AB6C0" d="M357.313 260.882l.901.433-4.118 8.562-.901-.434z"/><path fill="#5AB6C0" d="M360.945 251.998l.925.38-3.648 8.88-.925-.38z"/><path fill="#5AB6C0" d="M363.956 242.885l.949.316-3.039 9.107-.948-.317z"/><path fill="#5AB6C0" d="M366.118 233.712l.972.234-2.227 9.235-.973-.234zm1.762-9.337l.983.184-1.743 9.338-.983-.183z"/><path fill="#5AB6C0" d="M368.955 214.858l.993.116-1.115 9.534-.993-.116z"/><path fill="#5AB6C0" d="M369.452 205.387l.999.05-.478 9.589-1-.05zm.048-2.287h1v2.2h-1zM197.9 13.2c.3 0 .4.2.3.5l-.3.9c0 .1-.1.2-.3.3-.1.1-.3.2-.4.2s-.2 0-.3-.1c-.1-.1-.1-.2 0-.3l.2-.5h-5.7l-.2.5c0 .1-.1.2-.3.3s-.3.2-.4.2-.2 0-.3-.1c-.1-.1-.1-.2 0-.3l.3-.9c.1-.3.3-.5.6-.5h.5l5.4-12c0-.1.1-.2.2-.3l.2-.1h4c.3 0 .4.2.3.5l-4.3 11.8.5-.1zm-5.2 0h3.7l4.1-11.3h-2.9l-4.9 11.3zm14.4-3.3h-5.7c-.1 0-.2 0-.3-.1v-.3c0-.1.1-.2.2-.3.1-.1.3-.2.4-.2h5.7c.1 0 .2.1.3.2.1.1.1.2 0 .3s-.1.2-.2.3c-.1.1-.3.1-.4.1zm7.5 3.3c.3 0 .4.2.3.5l-.3.9c0 .1-.1.2-.3.3-.1.1-.3.2-.4.2s-.2 0-.3-.1c-.1-.1-.1-.2 0-.3l.2-.5h-5.7l-.2.5c0 .1-.1.2-.3.3s-.3.2-.4.2-.2 0-.3-.1c-.1-.1-.1-.2 0-.3l.3-.9c.1-.3.3-.5.6-.5h.5l5.2-11.8c0-.1.1-.2.2-.3l.2-.1h4c.3 0 .4.2.3.5l-4.3 11.8.7-.3zm-5.2 0h3.7l4.1-11.3h-2.9l-4.9 11.3zm9 1.3v.1c0 .1-.1.2-.3.3-.1.1-.3.1-.4.1-.1 0-.2 0-.2-.1-.1 0-.1-.1-.1-.3.1-1.1.3-2.3.6-3.5l.2-1 .1-.5.1-.4.1-.4.1-.3.4-1.2c.9-2.4 2.1-4.8 3.6-7.2 0-.1.1-.2.2-.2.1-.1.2-.1.3-.1.1 0 .2 0 .3.1.1.1.1.2 0 .3l-.1.1c-.3.5-.6 1.1-1 1.6-.3.6-.6 1.2-1 1.8l-.2 1.3c-.2.3-.3.6-.4.8l-.4.9-.3.8c-.4 1.2-.8 2.4-1.1 3.5-.1.5-.2 1.1-.3 1.7l-.1.9-.1.9zm8.1-.3h-5.6c-.1 0-.2-.1-.3-.2v-.4c0-.1.1-.2.1-.2l8-7.8.3-.4.3-.3c.2-.2.3-.5.4-.7.2-.6.2-1.2-.2-1.6-.2-.2-.4-.4-.6-.5-.3-.1-.6-.2-.9-.2-.4 0-.9.1-1.3.4-.5.2-.9.7-1.4 1.2l-.2.2c-.1 0-.2.1-.3.1-.1 0-.2 0-.3-.1-.1-.1-.1-.2 0-.3l.1-.2c.5-.8 1.2-1.3 1.9-1.7.6-.3 1.3-.5 1.9-.5.9 0 1.6.3 2.1.9.5.6.6 1.4.3 2.3-.1.3-.3.6-.5.9-.2.3-.5.6-.9 1l-7.3 7.1h4.8c.1 0 .2.1.3.2.1.1.1.2 0 .3 0 .1-.1.2-.2.3-.2.1-.3.2-.5.2zm9.9-2.9c-.3.8-.8 1.4-1.6 2-.8.6-1.5.8-2.3.8h-.9c-.7 0-1.3-.3-1.7-.8s-.4-1.2-.1-2l2.7-7.6c.3-.8.8-1.4 1.5-2 .8-.6 1.5-.8 2.3-.8h.9c.8 0 1.3.3 1.7.8.4.6.4 1.2.1 2l-2.6 7.6zm-.9 0l2.7-7.6c.2-.5.2-1-.1-1.3-.2-.4-.6-.6-1.1-.6h-1c-.5 0-1 .2-1.5.6-.5.4-.8.8-1 1.3l-2.7 7.6c-.2.5-.2 1 .1 1.3s.6.6 1.1.6h.9c.5 0 1-.2 1.5-.5.5-.4.9-.8 1.1-1.4zm3.9-1.2c.1.1.1.2 0 .3 0 .1-.1.2-.2.3-.1.1-.3.2-.4.2-.1 0-.2 0-.3-.1v-.3c0-.1.1-.2.2-.3.1-.1.3-.2.4-.2.1-.1.2 0 .3.1zm1.7-4.8c.1.1.1.2 0 .3 0 .1-.1.2-.2.3-.1.1-.3.2-.4.2-.1 0-.2 0-.3-.1v-.3c0-.1.1-.2.2-.3.1-.1.3-.2.4-.2.1 0 .2 0 .3.1zm2.7 8.4c-.1.2-.1.3-.3.4-.1.1-.2.1-.4.1-.1 0-.2 0-.3-.1-.1-.1-.1-.2 0-.4l4.1-11.1-2.8 2c-.1.1-.3.1-.4.1-.1 0-.2 0-.3-.1-.1-.1-.1-.2 0-.3 0-.1.1-.2.3-.3l3.9-2.8c.1-.1.2-.1.4-.1.1 0 .2 0 .3.1.1.1.1.2 0 .3l-4.5 12.2zm2.3 1c-.1.1-.1.2-.2.3-.1.1-.2.1-.3.1-.1 0-.2 0-.3-.1-.1-.1-.1-.2 0-.3l.1-.1c.3-.5.6-1.1 1-1.6.3-.6.6-1.2 1-1.8l.4-.9.2-.5.1-.4.2-.5.3-.6.2-.6c.4-1.1.8-2.3 1-3.5.1-.6.3-1.2.3-1.7l.1-.9.1-.8V.7c0-.1.1-.2.3-.3.1-.1.3-.1.4-.1.1 0 .1 0 .2.1.1 0 .1.1.1.3-.2 2.4-.8 4.8-1.7 7.2-.7 2-1.9 4.4-3.5 6.8zm67.574 300.443l1.913 5.263-.94.342-1.913-5.263z"/><path fill="#5AB6C0" d="M313.43 314.797l.835.334-.37.929-.836-.334z"/><path fill="#5AB6C0" d="M314.29 314.58l.707.707-.636.636-.707-.707z"/><path fill="#5AB6C0" d="M315.19 314.935l.478 5.58-.996.084-.479-5.579z"/><path fill="#5AB6C0" d="M315.1 320.6h-.2v-1.2h.2v1.2zm-.2-.5h-.2v-1.3h.2v1.3zm-.1-.5h-.2v-.3h-.2v-.5h-.2v-.5h-.2v-.8h-.2v-.5h-.2v-.5h-.2v-.5h-.2v-1.2h.3v.2h.3v.2h.2v.6h.2v.6h.2v.8h.2v.6h.2v1.8z"/><path fill="#5AB6C0" d="M315.1 320.6h-.2v-1.2h.2v1.2zm-.2-.5h-.2v-1.3h.2v1.3zm-.1-.5h-.2v-.3h-.2v-.5h-.2v-.5h-.2v-.8h-.2v-.5h-.2v-.5h-.2v-.5h-.2v-1.2h.3v.2h.3v.2h.2v.6h.2v.6h.2v.8h.2v.6h.2v1.8z"/><path fill="#5AB6C0" d="M315.1 320.2h-.2v-.6h-.1v-.8h-.2v-.6h-.1v-.8h-.2v-.7h-.2v-.6h-.1v-1h.1v-.2h.2v-.1h.2v-.2h.3v1.8h.1v1.9h.2z"/><path fill="#5AB6C0" d="M315.1 320.2h-.2v-.6h-.1v-.8h-.2v-.6h-.1v-.8h-.2v-.7h-.2v-.6h-.1v-1h.1v-.2h.2v-.1h.2v-.2h.3v1.8h.1v1.9h.2z"/><path fill="#5AB6C0" d="M309.41 291.819l6.202 28.635-.977.211-6.203-28.634z"/><path fill="#5AB6C0" d="M265.6 291.4h43.3v1h-43.3z"/><path fill="#5AB6C0" d="M268.953 285.13l3.669 6.542-.872.49-3.67-6.542z"/><path fill="#5AB6C0" d="M278.88 279.494l.86.51-7.136 12.044-.86-.51z"/><path fill="#5AB6C0" d="M279.3 279.3h31.5v1h-31.5zm4.1 6.9l.5 2.5v.1c0 .1-.1.1-.1.2-.1 0-.1.1-.2.1h-.1v-.1l-.6-2.7h-.9l-.9 2.6c0 .1-.1.1-.1.2-.1 0-.1.1-.2.1 0 0-.1 0-.1-.1v-.2l2.2-6.1c.1-.2.2-.2.3-.2h1.6c.4 0 .7.1.8.4.2.3.2.6.1 1l-.3.9c-.1.4-.4.7-.8 1s-.8.3-1.2.3zm-1.2-.5h1.4c.3 0 .5-.1.8-.3s.4-.4.5-.7l.3-.9c.1-.3.1-.5 0-.7-.1-.2-.3-.3-.6-.3h-1.4l-1 2.9zm5.8 2.8c.1 0 .1.1.1.2s-.1.1-.1.2c-.1 0-.1.1-.2.1h-.1c-.1 0-.1-.1-.2-.1 0 0-.1-.1-.1-.2-.3.2-.5.3-.8.3h-.9c-.3 0-.4-.1-.6-.3-.1-.2-.1-.4 0-.7l1-2.8c.1-.2.3-.4.5-.6.2-.2.5-.3.8-.3h1.6c.2 0 .2.1.1.2l-1.3 3.5v.3c0 .1.1.2.2.2zm-.6-.5l1.2-3.3h-1.4c-.1 0-.3 0-.4.1l-.3.3-1 2.8v.3c.1.1.2.1.3.1h.9c.1 0 .3 0 .4-.1.1.1.2 0 .3-.2zm7.5-.4c-.1.4-.4.7-.8 1-.4.3-.8.4-1.1.4h-.5c-.4 0-.6-.1-.8-.4-.2-.3-.2-.6-.1-1l1.4-3.7c.1-.4.4-.7.8-1 .4-.3.8-.4 1.1-.4h.5c.4 0 .7.1.8.4.2.3.2.6.1 1l-1.4 3.7zm-.4 0l1.4-3.7c.1-.3.1-.5 0-.7-.1-.2-.3-.3-.6-.3h-.5c-.3 0-.5.1-.8.3-.2.2-.4.4-.5.7l-1.4 3.7c-.1.3-.1.5 0 .7.1.2.3.3.5.3h.5c.3 0 .5-.1.8-.3.3-.2.5-.5.6-.7zm.8 2.2l-.1.1h-.1c-.1 0-.1 0-.1-.1v-.3l.6-.9c0-.1.1-.1.1-.1h.2c.1 0 .1 0 .1.1v.3l-.7.9zm4.4-2.7h.7c.1 0 .1 0 .1.1v.2c0 .1-.1.1-.1.2-.1 0-.1.1-.2.1h-.7l-.4 1.2c0 .1-.1.1-.1.2-.1 0-.1.1-.2.1 0 0-.1 0-.1-.1v-.2l.4-1.2h-1.6c-.1 0-.1 0-.1-.1v-.3l2.6-4.7c0-.1.1-.1.1-.1h.2c.1 0 .1 0 .1.1v.3l-2.5 4.4h1.3l.4-1.2s.1-.1.1-.2c.1-.1.1-.1.2-.1s.1 0 .1.1v.2l-.3 1zm5 .5c-.1.4-.4.7-.8 1-.4.3-.8.4-1.1.4h-.5c-.4 0-.6-.1-.8-.4-.2-.3-.2-.6-.1-1l1.4-3.7c.1-.4.4-.7.8-1 .4-.3.8-.4 1.1-.4h.5c.4 0 .7.1.8.4.2.3.2.6.1 1l-1.4 3.7zm-.5 0l1.4-3.7c.1-.3.1-.5 0-.7-.1-.2-.3-.3-.6-.3h-.5c-.3 0-.5.1-.8.3-.2.2-.4.4-.5.7l-1.4 3.7c-.1.3-.1.5 0 .7.1.2.3.3.5.3h.5c.3 0 .5-.1.8-.3.4-.2.5-.5.6-.7zM196.345 390.91l.831.556-20.98 31.32-.83-.556z"/><path fill="#5AB6C0" d="M162.4 422h13.4v1h-13.4zm118.817-81.576l.319 5.89-.998.055-.32-5.891z"/><path fill="#5AB6C0" d="M280.255 334.456l.96 5.923-.987.16-.96-5.923z"/><path fill="#5AB6C0" d="M278.738 328.822l1.594 5.577-.962.275-1.594-5.577z"/><path fill="#5AB6C0" d="M276.411 323.417l2.208 5.363-.924.38-2.208-5.363z"/><path fill="#5AB6C0" d="M273.755 318.111l2.702 5.245-.89.458-2.701-5.245z"/><path fill="#5AB6C0" d="M270.385 313.252l3.326 4.751-.819.574-3.326-4.752z"/><path fill="#5AB6C0" d="M266.513 308.578l3.825 4.622-.77.638-3.826-4.623z"/><path fill="#5AB6C0" d="M262.153 304.539l4.33 4.008-.68.734-4.33-4.009z"/><path fill="#5AB6C0" d="M257.5 301.024l4.622 3.505-.605.797-4.62-3.505z"/><path fill="#5AB6C0" d="M252.376 297.96l5.073 3.013-.51.86-5.074-3.013z"/><path fill="#5AB6C0" d="M247.071 295.488l5.22 2.53-.437.9-5.219-2.53z"/><path fill="#5AB6C0" d="M241.48 293.66l5.532 1.74-.3.953-5.533-1.738z"/><path fill="#5AB6C0" d="M235.689 292.372l5.76 1.28-.218.976-5.76-1.28z"/><path fill="#5AB6C0" d="M229.767 291.691l5.866.634-.107.994-5.866-.634z"/><path fill="#5AB6C0" d="M223.8 291.7h5.9v1h-5.9z"/><path fill="#5AB6C0" d="M223.692 291.686l.11.993-5.764.64-.11-.994z"/><path fill="#5AB6C0" d="M217.928 292.353l.217.977-5.76 1.278-.216-.976z"/><path fill="#5AB6C0" d="M212.235 293.667l.324.946-5.582 1.913-.324-.946zm-5.688 1.947l.403.915-5.399 2.38-.403-.916z"/><path fill="#5AB6C0" d="M201.15 297.959l.522.852-4.945 3.03-.523-.852z"/><path fill="#5AB6C0" d="M196.145 301.08l.608.794-4.762 3.65-.608-.794z"/><path fill="#5AB6C0" d="M191.351 304.716l.694.72-4.108 3.952-.693-.72zm-4.227 4.057l.76.651-3.84 4.48-.76-.65z"/><path fill="#5AB6C0" d="M183.285 313.194l.829.56-3.363 4.969-.829-.56z"/><path fill="#5AB6C0" d="M179.936 318.192l.889.458-2.703 5.244-.889-.458z"/><path fill="#5AB6C0" d="M177.192 323.494l.934.358-2.074 5.416-.934-.357z"/><path fill="#5AB6C0" d="M175.122 328.955l.962.274-1.591 5.577-.962-.274zm-1.638 5.694l.988.16-.961 5.923-.987-.16z"/><path fill="#5AB6C0" d="M172.565 340.592l.998.053-.317 5.892-.998-.054z"/><path fill="#5AB6C0" d="M173.246 346.406l.317 5.691-.999.056-.316-5.692zm.344 5.741l.96 5.923-.987.16-.96-5.923z"/><path fill="#5AB6C0" d="M174.462 357.932l1.593 5.577-.962.274-1.593-5.576z"/><path fill="#5AB6C0" d="M176.07 363.43l2.229 5.571-.929.371-2.228-5.57z"/><path fill="#5AB6C0" d="M178.236 369.003l2.722 5.122-.884.469-2.72-5.122z"/><path fill="#5AB6C0" d="M180.908 374.025l3.365 4.967-.828.56-3.365-4.967z"/><path fill="#5AB6C0" d="M184.258 378.989l3.84 4.48-.76.65-3.84-4.48z"/><path fill="#5AB6C0" d="M188.005 383.306l4.33 4.009-.68.733-4.33-4.008z"/><path fill="#5AB6C0" d="M192.31 387.237l4.621 3.505-.604.797-4.621-3.505z"/><path fill="#5AB6C0" d="M196.86 390.733l5.074 3.012-.51.86-5.074-3.012z"/><path fill="#5AB6C0" d="M201.856 393.716l5.398 2.382-.403.915-5.398-2.382z"/><path fill="#5AB6C0" d="M207.241 396.079l5.582 1.913-.325.946-5.581-1.913z"/><path fill="#5AB6C0" d="M212.795 397.976l5.76 1.28-.217.975-5.76-1.28z"/><path fill="#5AB6C0" d="M218.485 399.287l5.764.64-.11.994-5.765-.64z"/><path fill="#5AB6C0" d="M229.96 399.757l.027 1-5.898.16-.027-.999zm5.912-.732l.108.994-5.866.633-.107-.994z"/><path fill="#5AB6C0" d="M241.541 397.853l.217.976-5.76 1.279-.216-.977z"/><path fill="#5AB6C0" d="M247.036 395.916l.324.946-5.581 1.912-.324-.946z"/><path fill="#5AB6C0" d="M252.261 393.538l.414.91-5.279 2.402-.414-.91z"/><path fill="#5AB6C0" d="M257.296 390.444l.53.848-5.087 3.182-.53-.848z"/><path fill="#5AB6C0" d="M261.822 386.934l.604.797-4.62 3.505-.605-.796z"/><path fill="#5AB6C0" d="M266.09 382.99l.68.733-4.328 4.01-.68-.733z"/><path fill="#5AB6C0" d="M269.71 378.457l.783.621-3.666 4.623-.783-.622z"/><path fill="#5AB6C0" d="M273.02 373.776l.819.573-3.325 4.753-.82-.573zm2.696-5.269l.89.458-2.704 5.244-.889-.458z"/><path fill="#5AB6C0" d="M277.79 363.117l.935.358-2.074 5.416-.934-.357z"/><path fill="#5AB6C0" d="M279.318 357.492l.963.267-1.578 5.686-.964-.268zm.95-5.74l.986.164-.951 5.72-.987-.163z"/><path fill="#5AB6C0" d="M280.56 346.278l.999.057-.317 5.591-.999-.057zm88.196-161.886l.25.968-5.521 1.42-.25-.97z"/><path fill="#5AB6C0" d="M363.332 185.178l.857.515-.463.772-.857-.515z"/><path fill="#5AB6C0" d="M363.466 184.512l.636.636-.707.708-.636-.637z"/><path fill="#5AB6C0" d="M363.1 184.4h5.7v1h-5.7z"/><path fill="#5AB6C0" d="M363.9 186.6h-.4v-1h.1v-.3h.2v-.3h1.2v-.2h1.3v-.1h1.3v-.2h.8v1h-.6v.2h-.7v.1h-.6v.2h-.7v.1h-.6v.2h-.6v.2h-.7z"/><path fill="#5AB6C0" d="M363.9 186.6h-.4v-1h.1v-.3h.2v-.3h1.2v-.2h1.3v-.1h1.3v-.2h.8v1h-.6v.2h-.7v.1h-.6v.2h-.7v.1h-.6v.2h-.6v.2h-.7z"/><path fill="#5AB6C0" d="M365 185.8h-1.4v-.1h-.1v-.2h-.2v-.1h-.2v-1h5.8v1h-1.3v.1h-1.3v.2H365z"/><path fill="#5AB6C0" d="M365 185.8h-1.4v-.1h-.1v-.2h-.2v-.1h-.2v-1h5.8v1h-1.3v.1h-1.3v.2H365zM90.218 219.312l.283.96-5.372 1.58-.283-.96z"/><path fill="#5AB6C0" d="M89.889 219.62l.894.448-.492.984-.894-.447z"/><path fill="#5AB6C0" d="M90.211 220.405l.636.637-.707.707-.636-.637z"/><path fill="#5AB6C0" d="M84.9 220.9h5.6v1h-5.6z"/><path fill="#5AB6C0" d="M86.2 221.8h-.6v-1h.5v-.2h.6v-.1h.5v-.2h.4v-.2h.7v-.1h.5v-.2h.6v-.1h.5v-.2h.4v1h-.1v.3H90v.3h-.1v.2h-1.1v.2h-1.3v.1h-1.3z"/><path fill="#5AB6C0" d="M86.2 221.8h-.6v-1h.5v-.2h.6v-.1h.5v-.2h.4v-.2h.7v-.1h.5v-.2h.6v-.1h.5v-.2h.4v1h-.1v.3H90v.3h-.1v.2h-1.1v.2h-1.3v.1h-1.3z"/><path fill="#5AB6C0" d="M90.3 221.8h-4.1v-1h1.3v-.2h1.3v-.1H90v.1h.2v.2h.1z"/><path fill="#5AB6C0" d="M90.3 221.8h-4.1v-1h1.3v-.2h1.3v-.1H90v.1h.2v.2h.1z"/><path fill="#5AB6C0" d="M368.812 184.346l.128.992-283.952 36.618-.128-.992zm1.328 9.18l.316 9.494-.999.034-.317-9.495z"/><path fill="#5AB6C0" d="M369.241 184.004l.955 9.552-.995.1-.955-9.552zm-.296-3.042l.315 2.983-.995.105-.314-2.984zM84.894 220.885l.127.992-49.794 6.37-.126-.992z"/><path fill="#5AB6C0" d="M0 227.3h35.2v1H0zm3.1-4.1c-.3-.1-.4-.4-.5-.7-.1-.3-.1-.7.1-1 .2-.5.5-.9 1-1.3s1-.6 1.5-.6h.3l.8-1.2c.1-.1.2-.2.3-.2.1 0 .1 0 .1.1v.3l-.8 1.2c.3.1.4.4.6.7 0 .1.1.3 0 .5 0 .2-.1.4-.1.5-.2.5-.5.9-1 1.3s-1 .6-1.5.6h-.3l-.8 1.3c-.1.1-.2.2-.3.2 0 0-.1 0-.2-.1v-.3l.8-1.3zm.3-.5l1.8-2.6H5c-.4 0-.8.1-1.1.4-.2.1-.3.3-.5.5l-.2.2-.1.2v.1c-.1.2-.1.5 0 .7 0 .2.1.4.3.5zm2.2-2.5l-1.8 2.6H4c.4 0 .8-.1 1.1-.4.4-.3.6-.6.8-1 .1-.3.1-.5 0-.7 0-.2-.1-.3-.3-.5zm6.1-1.7l-3.6 6.1-.1.1h-.2c-.1 0-.1 0-.1-.1v-.3l3.4-5.8H8.9l-.2.5c0 .1-.1.1-.1.2-.1 0-.1.1-.2.1 0 0-.1 0-.1-.1v-.2l.3-.7c.1-.2.2-.2.3-.2h2.8c.1 0 .1 0 .2.1-.1.1-.1.1-.2.3zm-1.4 7l-.1.1h-.1c-.1 0-.1 0-.1-.1v-.3l.6-.9c0-.1.1-.1.1-.1h.2c.1 0 .1 0 .1.1v.3l-.7.9zm2.7-4.3c.2-.6.6-1.2 1.1-1.8.6-.6 1.2-1 2-1.3h.1c.1 0 .1 0 .1.1v.2s0 .1-.1.1c0 0-.1.1-.2.1h-.2l-.2.1c-.1.1-.3.2-.4.2-.2.2-.5.4-.8.6-.2.2-.4.4-.5.6-.2.2-.3.4-.4.6H15c.4 0 .7.1.8.4.2.3.2.6 0 1l-.3.9c-.1.4-.4.7-.8 1-.4.3-.8.4-1.1.4h-.5c-.4 0-.6-.1-.8-.4-.2-.3-.2-.6-.1-1l.8-1.8zm.4.3l-.7 1.9c-.1.3-.1.5 0 .7.1.2.3.3.5.3h.5c.3 0 .5-.1.8-.3.2-.2.4-.4.5-.7l.3-.9c.1-.3.1-.5 0-.7-.1-.2-.3-.3-.6-.3h-1.3zm5.6 3.2h-2.8c-.1 0-.1 0-.1-.1v-.2s0-.1.1-.1l4-3.9.2-.2.1-.2c.1-.1.1-.2.2-.3.1-.3.1-.6-.1-.8-.1-.1-.2-.2-.3-.2-.1-.1-.3-.1-.4-.1-.2 0-.4.1-.7.2-.2.1-.5.3-.7.6l-.1.1h-.1c-.1 0-.1 0-.1-.1v-.3c.3-.4.6-.7.9-.9.3-.2.6-.3.9-.3.4 0 .8.2 1 .5.3.3.3.7.1 1.1-.1.2-.1.3-.2.4-.1.1-.2.3-.4.5l-3.6 3.5h2.3c.1 0 .1 0 .1.1v.2c0 .1-.1.1-.1.2-.1.3-.2.3-.2.3zm4.9-7h.6s.1 0 .1.1v.1s0 .1-.1.1l-.1.1h-.6l-.2.6c0 .1 0 .1-.1.1h-.2v-.1l.2-.6h-.7v-.1s0-.1.1-.1l.1-.1h.6l.2-.6s0-.1.1-.1l.1-.1h.1v.1l-.2.6zm3.2.8c-.1.3-.3.5-.5.7-.3.2-.5.3-.8.3h-.3c-.2 0-.4-.1-.6-.3-.1-.2-.1-.4 0-.7l.9-2.5c.1-.3.3-.5.5-.7.3-.2.5-.3.8-.3h.3c.3 0 .5.1.6.3.1.2.1.4 0 .7l-.9 2.5zm-.3 0l.9-2.5c.1-.2.1-.3 0-.4-.1-.1-.2-.2-.4-.2H27c-.2 0-.3.1-.5.2s-.3.3-.4.5l-.9 2.5c-.1.2-.1.3 0 .4.1.1.2.2.4.2h.3c.2 0 .3-.1.5-.2s.3-.3.4-.5zm.5 1.5l-.1.1H27v-.1l.4-.6.1-.1h.2v.1l-.4.6zm3.5-1.5c-.1.3-.3.5-.5.7-.3.2-.5.3-.8.3h-.3c-.2 0-.4-.1-.6-.3-.1-.2-.1-.4 0-.7l.9-2.5c.1-.3.3-.5.5-.7.3-.2.5-.3.8-.3h.3c.3 0 .5.1.6.3.1.2.1.4 0 .7l-.9 2.5zm-.3 0l.9-2.5c.1-.2.1-.3 0-.4-.1-.1-.2-.2-.4-.2h-.3c-.2 0-.3.1-.5.2s-.3.3-.4.5l-.9 2.5c-.1.2-.1.3 0 .4.1.1.2.2.4.2h.3c.2 0 .3-.1.5-.2s.4-.3.4-.5zm2.8 0c-.1.3-.3.5-.5.7-.3.2-.5.3-.8.3h-.9v-.1s0-.1.1-.1l.1-.1h.8c.2 0 .3-.1.5-.2s.3-.3.3-.5l.2-.6c.1-.2.1-.3 0-.4-.1-.1-.2-.2-.4-.2H32c-.1 0-.1-.1-.1-.2l.7-1.9c0-.1.1-.2.2-.2h1.6s.1 0 .1.1v.1s0 .1-.1.1l-.1.1h-1.4l-.6 1.6h.6c.3 0 .5.1.6.3.1.2.1.4 0 .7l-.2.5zm81.775 79.78l.535.844-4.73 2.997-.535-.845z"/><path fill="#5AB6C0" d="M110.589 301.235l.986.165-.164.986-.987-.164z"/><path fill="#5AB6C0" d="M111 301.9h1v1h-1z"/><path fill="#5AB6C0" d="M114.951 298.399l.735.679-3.801 4.112-.734-.678z"/><path fill="#5AB6C0" d="M114.954 298.324l.645.763-7.178 6.068-.646-.764z"/><path fill="#5AB6C0" d="M111.8 302.3h-1.3v-1h.4v-.2h.3v-.2h.1v-.1h.4v-.2h.1v-.1h.3v-.2h.4v-.1h.1v-.2h.3v-.2h.2v-.1h.3v-.2h.2v-.1h.3v-.2h.3v-.2h.2v-.1h.3v-.2h.1v-.1h.2v1h-.2v.1h-.1v.2h-.3v.1h-.2v.2h-.2v.2h-.1v.1h-.2v.2h-.3v.1h-.1v.2h-.2v.2h-.2v.1h-.1v.2h-.3v.1h-.2v.2h-.2v.1h-.1v.2h-.2z"/><path fill="#5AB6C0" d="M111.8 302.3h-1.3v-1h.4v-.2h.3v-.2h.1v-.1h.4v-.2h.1v-.1h.3v-.2h.4v-.1h.1v-.2h.3v-.2h.2v-.1h.3v-.2h.2v-.1h.3v-.2h.3v-.2h.2v-.1h.3v-.2h.1v-.1h.2v1h-.2v.1h-.1v.2h-.3v.1h-.2v.2h-.2v.2h-.1v.1h-.2v.2h-.3v.1h-.1v.2h-.2v.2h-.2v.1h-.1v.2h-.3v.1h-.2v.2h-.2v.1h-.1v.2h-.2z"/><path fill="#5AB6C0" d="M111.7 303.2h-.2v-1.8h.3v-.1h.2v-.2h.1v-.2h.2v-.1h.2v-.2h.3v-.1h.1v-.2h.2v-.1h.2v-.2h.1v-.2h.3v-.1h.2v-.2h.1v-.1h.2v-.2h.2v-.2h.3v-.1h.1v-.2h.2v-.1h.2v-.2h.1v1h-.1v.2h-.2v.1h-.2v.2h-.1v.1h-.2v.2h-.1v.2h-.2v.1h-.2v.2h-.1v.1h-.2v.2h-.1v.2h-.2v.3h-.1v.1h-.2v.2h-.2v.1h-.1v.2h-.2v.2h-.1v.1h-.2v.2h-.2v.1h-.1v.2h-.2v.2h-.1z"/><path fill="#5AB6C0" d="M111.7 303.2h-.2v-1.8h.3v-.1h.2v-.2h.1v-.2h.2v-.1h.2v-.2h.3v-.1h.1v-.2h.2v-.1h.2v-.2h.1v-.2h.3v-.1h.2v-.2h.1v-.1h.2v-.2h.2v-.2h.3v-.1h.1v-.2h.2v-.1h.2v-.2h.1v1h-.1v.2h-.2v.1h-.2v.2h-.1v.1h-.2v.2h-.1v.2h-.2v.1h-.2v.2h-.1v.1h-.2v.2h-.1v.2h-.2v.3h-.1v.1h-.2v.2h-.2v.1h-.1v.2h-.2v.2h-.1v.1h-.2v.2h-.2v.1h-.1v.2h-.2v.2h-.1zM342.982 104l.555.832-4.743 3.162-.555-.833z"/><path fill="#5AB6C0" d="M342.394 103.744l.987.165-.165.986-.986-.164z"/><path fill="#5AB6C0" d="M342.67 103.146l.164.986-.986.165-.165-.987z"/><path fill="#5AB6C0" d="M341.724 102.933l.761.65-3.633 4.26-.76-.648z"/><path fill="#5AB6C0" d="M345.132 100.992l.663.748-7.034 6.235-.663-.748z"/><path fill="#5AB6C0" d="M339.3 107.6h-.2v-1h.2v-.2h.1v-.1h.2v-.2h.2v-.2h.3v-.1h.1v-.2h.2v-.1h.2v-.2h.1v-.2h.2v-.1h.1v-.2h.3v-.1h.2v-.2h.2v-.2h.1v-.1h.2v-.2h.1v-.1h1.2v1h-.2v.1h-.3v.2h-.2v.1h-.3v.2h-.2v.2h-.3v.1h-.1v.2h-.4v.1h-.1v.2h-.3v.2h-.2v.1h-.3v.2h-.2v.1h-.3v.2h-.1v.2h-.4v.1h-.1z"/><path fill="#5AB6C0" d="M339.3 107.6h-.2v-1h.2v-.2h.1v-.1h.2v-.2h.2v-.2h.3v-.1h.1v-.2h.2v-.1h.2v-.2h.1v-.2h.2v-.1h.1v-.2h.3v-.1h.2v-.2h.2v-.2h.1v-.1h.2v-.2h.1v-.1h1.2v1h-.2v.1h-.3v.2h-.2v.1h-.3v.2h-.2v.2h-.3v.1h-.1v.2h-.4v.1h-.1v.2h-.3v.2h-.2v.1h-.3v.2h-.2v.1h-.3v.2h-.1v.2h-.4v.1h-.1z"/><path fill="#5AB6C0" d="M338.8 107.9h-.2v-1h.2v-.2h.2v-.1h.1v-.2h.2v-.1h.1v-.4h.2v-.1h.2v-.2h.1v-.1h.2v-.2h.1v-.2h.2v-.3h.2v-.1h.1v-.2h.2v-.2h.1v-.1h.2v-.2h.1v-.3h.2v-.1h.2v-.2h.1v-.2h.2v-.1h.1v-.2h.2v1.8h-.2v.2h-.1v.1h-.2v.2h-.1v.1h-.2v.2h-.2v.2h-.3v.1h-.1v.2h-.2v.1h-.1v.2h-.2v.2h-.2v.1h-.1v.2h-.3v.1h-.2v.2h-.2v.2h-.1v.1h-.2v.2h-.1v.1h-.2z"/><path fill="#5AB6C0" d="M338.8 107.9h-.2v-1h.2v-.2h.2v-.1h.1v-.2h.2v-.1h.1v-.4h.2v-.1h.2v-.2h.1v-.1h.2v-.2h.1v-.2h.2v-.3h.2v-.1h.1v-.2h.2v-.2h.1v-.1h.2v-.2h.1v-.3h.2v-.1h.2v-.2h.1v-.2h.2v-.1h.1v-.2h.2v1.8h-.2v.2h-.1v.1h-.2v.2h-.1v.1h-.2v.2h-.2v.2h-.3v.1h-.1v.2h-.2v.1h-.1v.2h-.2v.2h-.2v.1h-.1v.2h-.3v.1h-.2v.2h-.2v.2h-.1v.1h-.2v.2h-.1v.1h-.2z"/><path fill="#5AB6C0" d="M338.202 107.21l.65.76-223.276 191.124-.65-.76zm33.056 119.98l.98.2-1.914 9.407-.98-.2z"/><path fill="#5AB6C0" d="M372.533 217.567l.992.13-1.273 9.717-.992-.13z"/><path fill="#5AB6C0" d="M373.119 208.077l.998.067-.638 9.579-.998-.067z"/><path fill="#5AB6C0" d="M373.1 198.4h1v9.7h-1z"/><path fill="#5AB6C0" d="M373.515 188.697l.635 9.68-.998.065-.635-9.68zm-1.132-9.647l1.112 9.536-.993.116-1.113-9.536z"/><path fill="#5AB6C0" d="M370.516 169.592l1.914 9.407-.98.2-1.914-9.408z"/><path fill="#5AB6C0" d="M367.857 160.218l2.539 9.363-.966.262-2.538-9.363z"/><path fill="#5AB6C0" d="M364.762 151l3.195 9.265-.945.326-3.195-9.265zm-3.722-8.974l3.648 8.88-.925.38-3.647-8.88z"/><path fill="#5AB6C0" d="M356.77 133.363l4.294 8.587-.895.447-4.294-8.586z"/><path fill="#5AB6C0" d="M352.01 124.988l4.778 8.442-.87.493-4.779-8.442zm-5.475-8.051l5.398 7.938-.827.562-5.398-7.938z"/><path fill="#5AB6C0" d="M340.69 109.32l5.86 7.602-.792.611-5.86-7.603zm-2.459-2.86l2.37 2.843-.769.64-2.369-2.842z"/><path fill="#5AB6C0" d="M367.761 81.735l.653.758-29.559 25.443-.652-.758z"/><path fill="#5AB6C0" d="M368.1 81.6h35v1h-35zm3-4.1c-.3-.1-.4-.4-.5-.7-.1-.3-.1-.7.1-1 .2-.5.5-.9 1-1.3s1-.6 1.5-.6h.3l.8-1.2c.1-.1.2-.2.3-.2.1 0 .1 0 .1.1v.3l-.8 1.2c.3.1.4.4.6.7 0 .1.1.3 0 .5 0 .2-.1.4-.1.5-.2.5-.5.9-1 1.3s-1 .6-1.5.6h-.3l-.8 1.3c-.1.1-.2.2-.3.2 0 0-.1 0-.2-.1v-.3l.8-1.3zm.3-.4l1.8-2.6h-.2c-.4 0-.8.1-1.1.4-.2.1-.3.3-.5.5l-.2.2-.1.2v.1c-.1.3-.1.5-.1.7 0 .2.2.4.4.5zm2.1-2.5l-1.8 2.6h.2c.4 0 .8-.1 1.1-.4.4-.3.6-.6.8-1 .1-.3.1-.5 0-.7.1-.2-.1-.4-.3-.5zm6.2-1.7l-3.6 6.1-.1.1h-.2c-.1 0-.1 0-.1-.1v-.3l3.4-5.8h-2.3l-.2.5c0 .1-.1.1-.1.2-.1 0-.1.1-.2.1 0 0-.1 0-.1-.1v-.2l.3-.7c.1-.2.2-.2.3-.2h2.8c.1 0 .1 0 .2.1-.1.1-.1.1-.1.3zm-1.5 7l-.1.1h-.1c-.1 0-.1 0-.1-.1v-.3l.6-.9c0-.1.1-.1.1-.1h.2c.1 0 .1 0 .1.1v.3l-.7.9zm5.3-2.2c-.1.4-.4.7-.8 1s-.8.4-1.1.4h-.5c-.4 0-.6-.1-.8-.4-.2-.3-.2-.6-.1-1l.3-.9c.1-.2.2-.5.4-.7.2-.2.5-.4.8-.6-.1-.1-.2-.3-.2-.5s0-.4.1-.6l.2-.5c.1-.4.4-.7.8-1l.6-.3.3-.1h.3c.4 0 .7.1.9.4.1.1.1.3.1.4v.3l-.1.1-.2.5-.3.6c-.1.2-.3.3-.6.5.2.1.3.3.4.5.1.2 0 .5-.1.7l-.4 1.2zm-.5 0l.3-.9c.1-.3.1-.5 0-.7-.1-.2-.3-.3-.6-.3h-.5c-.3 0-.5.1-.8.3-.2.2-.4.4-.5.7l-.3.9c-.1.3-.1.5 0 .7.1.2.3.3.5.3h.5c.3 0 .5-.1.8-.3s.5-.4.6-.7zm1-3.3l.2-.5c.1-.3.1-.5 0-.7s-.3-.3-.6-.3-.5.1-.8.3c-.2.2-.4.4-.5.7l-.2.5c-.1.3-.1.5 0 .7.1.2.3.3.6.3s.5-.1.8-.3c.2-.2.4-.4.5-.7zm2.9 4.7h-2.8c-.1 0-.1 0-.1-.1v-.2s0-.1.1-.1l4-3.9.2-.2.1-.2c.1-.1.1-.2.2-.3.1-.3.1-.6-.1-.8-.1-.1-.2-.2-.3-.2-.1-.1-.3-.1-.4-.1-.2 0-.4.1-.7.2-.2.1-.5.3-.7.6l-.1.1h-.1c-.1 0-.1 0-.1-.1v-.3c.3-.4.6-.7.9-.9.3-.2.6-.3.9-.3.4 0 .8.2 1 .5.3.3.3.7.1 1.1-.1.2-.1.3-.2.4s-.2.3-.4.5l-3.6 3.5h2.3c.1 0 .1 0 .1.1v.2c0 .1-.1.1-.1.2-.1.3-.1.3-.2.3zm5-7h.6s.1 0 .1.1v.1s0 .1-.1.1l-.1.1h-.6l-.2.6c0 .1 0 .1-.1.1h-.2v-.1l.2-.6h-.7v-.1s0-.1.1-.1l.1-.1h.6l.2-.6s0-.1.1-.1l.1-.1h.1v.1l-.2.6zm3.2.8c-.1.3-.3.5-.5.7-.3.2-.5.3-.8.3h-.3c-.2 0-.4-.1-.6-.3s-.1-.4 0-.7l.9-2.5c.1-.3.3-.5.5-.7s.5-.3.8-.3h.3c.3 0 .5.1.6.3.1.2.1.4 0 .7l-.9 2.5zm-.4 0l.9-2.5c.1-.2.1-.3 0-.4-.1-.1-.2-.2-.4-.2h-.3c-.2 0-.3.1-.5.2s-.3.3-.4.5l-.9 2.5c-.1.2-.1.3 0 .4.1.1.2.2.4.2h.3c.2 0 .3-.1.5-.2.3-.2.4-.4.4-.5zm.5 1.5l-.1.1h-.2v-.1l.4-.6.1-.1h.2v.1l-.4.6zm3.6-1.5c-.1.3-.3.5-.5.7-.3.2-.5.3-.8.3h-.3c-.2 0-.4-.1-.6-.3s-.1-.4 0-.7l.9-2.5c.1-.3.3-.5.5-.7s.5-.3.8-.3h.3c.3 0 .5.1.6.3.1.2.1.4 0 .7l-.9 2.5zm-.4 0l.9-2.5c.1-.2.1-.3 0-.4-.1-.1-.2-.2-.4-.2h-.3c-.2 0-.3.1-.5.2s-.3.3-.4.5l-.9 2.5c-.1.2-.1.3 0 .4.1.1.2.2.4.2h.3c.2 0 .3-.1.5-.2.3-.2.4-.4.4-.5zm2.8 0c-.1.3-.3.5-.5.7-.3.2-.5.3-.8.3h-.9v-.1s0-.1.1-.1.1-.1.1-.1h.8c.2 0 .3-.1.5-.2s.3-.3.3-.5l.2-.6c.1-.2.1-.3 0-.4-.1-.1-.2-.2-.4-.2h-.8c-.1 0-.1-.1-.1-.2l.7-1.9c0-.1.1-.2.2-.2h1.6s.1 0 .1.1v.1s0 .1-.1.1l-.1.1h-1.4l-.6 1.6h.6c.3 0 .5.1.6.3.1.2.1.4 0 .7l-.1.5zM49.6 202.6h32v1h-32zm34.7 0h2.9v1h-2.9zm5.7 0h31.8v1H90zm34.7 0h2.7v1h-2.7zm5.6 0h32v1h-32zm34.6 0h2.9v1h-2.9zm5.8 0h31.8v1h-31.8zm34.6 0h2.7v1h-2.7zm5.6 0h15.9v1h-15.9zm158.9 0H401v1h-31.2zm-5.7 0h2.9v1h-2.9zm-33.9 0h31.2v1h-31.2zm-5.7 0h2.9v1h-2.9zm-33.9 0h31.2v1h-31.2zm-5.7 0h2.9v1h-2.9zm-34.1 0H282v1h-31.2zm-5.5 0h2.9v1h-2.9zm-18.5 0h15.6v1h-15.6zm-.5 146.1h1v32h-1zm0-5.6h1v2.9h-1zm0-34.8h1v32h-1zm0-5.6h1v2.9h-1zm0-34.8h1v32h-1zm0-5.6h1v2.9h-1zm0-34.8h1v32h-1zm0-5.6h1v2.9h-1z"/><path fill="#5AB6C0" d="M226.3 203.1h1V219h-1zm0-179.5h1V56h-1zm0 35.3h1v2.7h-1zm0 5.5h1v32.4h-1zm0 35.2h1v2.9h-1zm0 5.7h1v32.3h-1zm0 35.2h1v2.9h-1zm0 5.5h1v32.4h-1zm0 35.4h1v2.7h-1zm0 5.5h1v16.2h-1zM84.264 230.213l.707.707-60.104 60.103-.707-.707z"/><path fill="#5AB6C0" d="M26.735 288.16l4.482 3.521-.618.786-4.482-3.521z"/><path fill="#5AB6C0" d="M30.812 291.612l.196.981-.785.156-.195-.98z"/><path fill="#5AB6C0" d="M29.581 292.114l.987.165-.164.986-.987-.164z"/><path fill="#5AB6C0" d="M26.806 288.297l3.505 4.62-.796.605-3.505-4.621z"/><path fill="#5AB6C0" d="M30.9 292.6h-1v-.2h-.2v-.2h-.2v-.2h-.2v-.2h-.2v-.2h-.2v-.2h-.2v-.2h-.2v-.2h-.2v-.2h-.2v.2h-.2v-.2h-.2v-.2h.3v-.2h-.2v-.2h-.2v-.2h-.4v-.2H27v-1.2h.3v.2h.2v.2h.2v.2h.2v.2h.3v.2h.2v.2h.2v.2h.2v.2h.3v.2h.2v.2h.2v.2h.3v.2h.2v.2h.2v.2h.2v.2h.3v.2h.2v.2h.2v.2h.2v.4zm-3.9-3.1h-.2v-1h.2v1zm-.1-.1h-.2v-1h.2v1zm-.2-.2h-.2v-1h.2v1z"/><path fill="#5AB6C0" d="M30.9 292.6h-1v-.2h-.2v-.2h-.2v-.2h-.2v-.2h-.2v-.2h-.2v-.2h-.2v-.2h-.2v-.2h-.2v-.2h-.2v.2h-.2v-.2h-.2v-.2h.3v-.2h-.2v-.2h-.2v-.2h-.4v-.2H27v-1.2h.3v.2h.2v.2h.2v.2h.2v.2h.3v.2h.2v.2h.2v.2h.2v.2h.3v.2h.2v.2h.2v.2h.3v.2h.2v.2h.2v.2h.2v.2h.3v.2h.2v.2h.2v.2h.2v.4zm-3.9-3.1h-.2v-1h.2v1zm-.1-.1h-.2v-1h.2v1zm-.2-.2h-.2v-1h.2v1z"/><path fill="#5AB6C0" d="M30.1 293.5h-.2v-.2h-.2v-.2h-.2v-.1h-.2v-.3h-.2v-.2h-.2v-.2h-.2v-.3h-.2v-.2h-.2v-.2h-.2v-.3h-.2v-.2h-.2v-.2h.3v-.3h-.2v-.2h-.2v-.2h-.2V289h.2v.2h.2v.2h.2v.2h.2v.2h.2v.2h.2v.2h.2v.2h.2v.2h.2v.2h.2v.2h.2v.2h.2v.2h.2v.2h.2v.2h.2v.2h.2v1.5zm-2.6-3.3h-.2v-1h.2v1zm-.1-.2h-.2v-1h.2v1zm-.2-.1H27v-1h.2v1z"/><path fill="#5AB6C0" d="M30.1 293.5h-.2v-.2h-.2v-.2h-.2v-.1h-.2v-.3h-.2v-.2h-.2v-.2h-.2v-.3h-.2v-.2h-.2v-.2h-.2v-.3h-.2v-.2h-.2v-.2h.3v-.3h-.2v-.2h-.2v-.2h-.2V289h.2v.2h.2v.2h.2v.2h.2v.2h.2v.2h.2v.2h.2v.2h.2v.2h.2v.2h.2v.2h.2v.2h.2v.2h.2v.2h.2v.2h.2v.2h.2v1.5zm-2.6-3.3h-.2v-1h.2v1zm-.1-.2h-.2v-1h.2v1zm-.2-.1H27v-1h.2v1zm109.904 109.76l4.62 3.506-.604.796-4.62-3.505z"/><path fill="#5AB6C0" d="M137.692 399.442l.164.986-.987.164-.164-.986z"/><path fill="#5AB6C0" d="M137.38 398.805l.987.164-.164.986-.987-.164z"/><path fill="#5AB6C0" d="M138.285 398.707l3.505 4.62-.797.605-3.505-4.62z"/><path fill="#5AB6C0" d="M140.8 403.4h-.2v-1h.2v1zm-.2-.1h-.2v-1h.2v1zm-.1-.2h-.2v-1h.2v1zm-.2-.2h-.3v-.2h-.2v-.2h-.2v-.2h-.3v-.2h-.2v-.2h-.1v.1h-.3v-.2h-.2v-.2h-.2v-.2h-.3v-.2h-.2v-.2h-.5v-.2h-.2v-.2h-.2v-.2h-.3v-1h1.1v.2h.2v.2h.2v.2h.2v.2h.2v.2h.2v.2h.2v.2h.2v.2h.2v.2h.2v.2h.2v.2h.2v.2h.2v.2h.2v.2h.2v.2h.2v.5z"/><path fill="#5AB6C0" d="M140.8 403.4h-.2v-1h.2v1zm-.2-.1h-.2v-1h.2v1zm-.1-.2h-.2v-1h.2v1zm-.2-.2h-.3v-.2h-.2v-.2h-.2v-.2h-.3v-.2h-.2v-.2h-.1v.1h-.3v-.2h-.2v-.2h-.2v-.2h-.3v-.2h-.2v-.2h-.5v-.2h-.2v-.2h-.2v-.2h-.3v-1h1.1v.2h.2v.2h.2v.2h.2v.2h.2v.2h.2v.2h.2v.2h.2v.2h.2v.2h.2v.2h.2v.2h.2v.2h.2v.2h.2v.2h.2v.2h.2v.5z"/><path fill="#5AB6C0" d="M141.4 403.9h-.2v-1h.2v1zm-.2-.2h-.2v-1h.2v1zm-.1-.1h-.2v-1h.2v1zm-.2-.2h-.2v-.2h-.2v-.2h-.2v-.2h-.2v-.2h-.2v-.2h.1v-.2h-.2v-.2h-.2v-.2h-.2v.2h-.2v-.2h-.2v-.4h-.2v-.2h-.2v-.2h-.4v-.2h-.2v-.2h-.2v-.2h-.2v-.2h-.2v-1h.2v-.8h.2v.2h.2v.2h.2v.2h.2v.3h.2v.2h.2v.2h.2v.3h.2v.2h.2v.2h.2v.3h.2v.2h.2v.2h.2v.3h.2v.2h.2v.2h.2v.3h.2v.2h.2v.2h.2v.9z"/><path fill="#5AB6C0" d="M141.4 403.9h-.2v-1h.2v1zm-.2-.2h-.2v-1h.2v1zm-.1-.1h-.2v-1h.2v1zm-.2-.2h-.2v-.2h-.2v-.2h-.2v-.2h-.2v-.2h-.2v-.2h.1v-.2h-.2v-.2h-.2v-.2h-.2v.2h-.2v-.2h-.2v-.4h-.2v-.2h-.2v-.2h-.4v-.2h-.2v-.2h-.2v-.2h-.2v-.2h-.2v-1h.2v-.8h.2v.2h.2v.2h.2v.2h.2v.3h.2v.2h.2v.2h.2v.3h.2v.2h.2v.2h.2v.3h.2v.2h.2v.2h.2v.3h.2v.2h.2v.2h.2v.3h.2v.2h.2v.2h.2v.9z"/><path fill="#5AB6C0" d="M26.743 288.242l114.974 114.974-.707.707L26.036 288.95z"/><path fill="#5AB6C0" d="M199.106 344.993l.707.707-60.103 60.104-.707-.707zM81.9 337.3l.5.5s.1.1 0 .1 0 .1-.1.1h-.2c-.1 0-.1 0-.2-.1l-.5-.5-1.1.5h-.2c-.1 0-.1 0-.2-.1 0 0 0-.1-.1-.1 0 0 0-.1.1-.1l1.1-.5-1-1.1-.1-.1s0-.1.1-.1h.1l5.2-1.4h.2l.1.1.1.1c0 .1 0 .1-.1.1h-.1l-4.8 1.4 1 1 1.1-.5h.2c.1 0 .1 0 .2.1l.1.1s0 .1-.1.1l-1.3.4zm-1.1 2.6h-.2c-.1 0-.1 0-.1-.1 0 0-.1-.1-.1-.2s0-.1.1-.1h.1l1.1-.3h.2c.1 0 .1 0 .1.1l.1.1c0 .1 0 .1-.1.1h-.1l-1.1.4zm6.5.3c.1.2 0 .4-.1.6-.1.2-.3.4-.6.5l-.9.4c-.4.2-.8.2-1.2.2-.5-.1-.8-.2-1.1-.5l-.8-.8c-.1-.1-.1-.1-.1-.2s.1-.1.1-.1h.2c.1 0 .2 0 .2.1l.8.8c.2.2.4.3.7.3.3 0 .6 0 .8-.1l.9-.4c.2-.1.4-.3.4-.5s0-.4-.2-.6l-.2-.2c-.1-.1-.1-.1-.1-.2s.1-.1.1-.1h.2c.1 0 .2 0 .2.1.2.2.4.3.7.3.3 0 .6 0 .8-.1l.5-.2c.2-.1.4-.3.4-.5s0-.4-.2-.6l-.7-.7c-.1-.1-.1-.1-.1-.2s.1-.1.1-.1h.2c.1 0 .2 0 .2.1l.7.7c.3.3.4.6.3.9s-.3.6-.7.7l-.5.2-.1.1h-.5c.1.2-.1.2-.4.1zm5.3.5l.5.5v.1s0 .1-.1.1h-.1c-.1 0-.1 0-.1-.1l-.5-.5-.6.3h-.1s-.1 0-.1-.1v-.1s0-.1.1-.1l.6-.3-.5-.5v-.1s0-.1.1-.1h.1c.1 0 .1 0 .1.1l.5.5.6-.3h.1c.1 0 .1 0 .1.1v.1s0 .1-.1.1l-.6.3zm1.7 2.8c-.3.1-.5.2-.8.1-.3 0-.6-.2-.8-.4l-.2-.2c-.2-.2-.2-.4-.2-.6 0-.2.2-.4.4-.5l2.5-1.1c.2-.1.5-.1.8-.1s.6.2.8.4l.2.2c.2.2.3.4.2.6 0 .2-.2.4-.5.5l-2.4 1.1zm-.2-.2l2.5-1.1c.2-.1.3-.2.3-.3 0-.1 0-.3-.1-.4l-.2-.2c-.1-.1-.3-.2-.5-.2s-.4 0-.6.1l-2.5 1.1c-.2.1-.3.2-.3.3 0 .1 0 .3.1.4l.2.2c.1.1.3.2.5.2s.4 0 .6-.1zm-.7 1.4h-.2v-.1s0-.1.1-.1h.1l.7-.2h.1s.1 0 .1.1v.1s0 .1-.1.1h-.1l-.7.1zm2.5 1.8l-1.3-1.3v-.1s0-.1.1-.1h4.2c.1 0 .2 0 .3-.1.2-.1.3-.2.3-.4v-.3c0-.1-.1-.2-.2-.3-.1-.1-.2-.2-.4-.2-.2-.1-.4-.1-.6 0h-.2v-.1s0-.1.1-.1h.1c.3-.1.6 0 .9 0l.6.3c.2.2.3.5.3.7 0 .3-.2.5-.5.6-.1 0-.2.1-.3.1h-3.8l1.1 1.1v.1s0 .1-.1.1h-.6zm43.627-165.547l.89.455-18.109 35.442-.89-.455z"/><path fill="#5AB6C0" d="M140 180.7h15.9v1H140zM79.43 302.013l21.496 21.496-.707.707-21.496-21.496zm-5.25-13.177l45.828 45.671-.706.709-45.827-45.672zm-4.591-12.698l67.946 68.1-.708.707-67.946-68.1zm-4.174-12.114l88.312 88.462-.708.707-88.312-88.463zm-3.471-11.412l106.701 106.701-.707.707-106.701-106.7zm69.125 61.225l51.406 51.406-.707.707-51.406-51.406zm-72.021-72.031l57.133 57.133-.707.708-57.133-57.134zM56.83 231.57l41.365 41.365-.707.707-41.365-41.366zm100.247 100.218l38.184 38.183-.708.707-38.183-38.183zm15.089 7.125l34.648 34.648-.707.707-34.648-34.648zM55.095 221.892l35.92 35.92-.706.707-35.921-35.92zm-.962-8.948L86.73 245.54l-.707.707-32.597-32.597zM184.43 343.249l33.384 33.224-.706.71-33.384-33.225zm10.601 2.702l32.739 32.739-.707.707-32.739-32.739zM53.783 204.733l30.193 30.193-.707.707-30.193-30.193zm.161-8.041l31.678 31.678-.707.707L53.237 197.4zm147.622 147.634l35.487 35.648-.709.705-35.486-35.647zm8.277.536l35.779 35.78-.707.706-35.78-35.779zM54.251 189.092l30.83 30.83-.707.707-30.83-30.83zm.661-7.246l29.415 29.416-.707.707-29.415-29.416zm163.809 163.782l34.852 35.01-.709.705-34.851-35.01zm8.181.332l34.012 34.012-.708.707-34.011-34.011zM55.7 174.592l28.345 28.506-.709.705-28.345-28.506zm1.001-6.959L84.35 195.28l-.707.708-27.648-27.648zm177.937 177.942l33.092 33.092-.707.708-33.092-33.093zm7.521-.386l31.96 31.96-.706.708-31.961-31.961zM57.76 161.008l27.02 26.86-.705.71-27.02-26.86zm1.49-6.706l26.588 26.587-.707.707-26.587-26.587zm189.817 189.886l31.042 31.042-.707.707-31.042-31.042zm9.795 1.758l27.011 27.011-.707.707-27.011-27.01zM60.61 147.725l23.405 23.405-.707.707-23.405-23.405zm1.754-6.138l22.91 22.91-.707.707-22.91-22.91zM265.48 344.482l25.94 26.102-.708.705-25.94-26.102zm6.076-1.669l25.314 25.315-.707.707-25.314-25.315zM64.158 135.318l23.051 23.052-.707.707-23.051-23.052zm2.059-5.99l23.051 23.052-.707.707-23.051-23.052zm211.351 211.373l24.527 24.687-.71.705-24.527-24.687zm5.775-2.238l23.889 24.052-.71.705-23.889-24.052zM68.266 123.625l23.201 23.043-.705.71-23.2-23.044zm2.409-5.783l23.193 23.193-.707.707-23.193-23.193zm218.242 218.221l23.405 23.405-.708.708-23.405-23.405zm5.277-2.503l23.062 22.903-.705.71-23.062-22.903zM73.002 112.416l23.405 23.405-.708.707-23.405-23.405zm2.707-5.366l23.546 23.546-.707.707-23.546-23.546zm223.728 223.636l22.556 22.556-.707.707-22.557-22.556zm5.029-2.887l22.274 22.273-.707.707-22.274-22.273zM78.604 101.978l23.546 23.547-.707.707-23.546-23.547zm3.197-4.981l23.537 23.697-.71.705-23.537-23.697zm227.469 227.68l22.143 21.98-.705.71-22.143-21.98zm4.63-3.379l21.92 21.92-.708.708-21.92-21.92zM84.97 92.388l23.688 23.688-.707.707-23.688-23.688zm3.659-4.405l23.396 23.555-.71.705L87.92 88.687zM318.52 317.958l21.788 21.628-.705.71-21.787-21.628zm4.257-3.613l21.788 21.628-.704.71-21.788-21.629zM92.264 83.846l23.405 23.405-.707.707-23.405-23.405zm4.041-3.999l23.2 23.044-.704.71-23.2-23.044zm230.792 230.628l21.629 21.788-.71.705-21.628-21.788zm3.969-3.809l21.778 21.779-.707.707-21.779-21.779zM100.403 75.803l22.902 23.062-.71.704-22.902-23.062zm4.291-3.646l22.769 22.769-.707.707-22.769-22.769zm230.278 230.382l21.92 21.92-.707.707-21.92-21.92zm3.85-4.193l21.92 21.92-.707.707-21.92-21.92zM109.164 68.756l22.415 22.415-.707.707-22.415-22.415zm4.566-3.359l22.274 22.274-.708.707-22.273-22.273zm228.642 228.538l22.274 22.274-.707.707-22.274-22.274zm3.528-4.463l22.566 22.406-.705.71-22.565-22.407zM118.365 61.968l22.133 22.133-.707.707-22.133-22.133zm4.915-3.113l21.92 21.92-.707.707-21.92-21.92zm225.917 225.876l22.758 22.92-.71.705-22.758-22.92zm3.001-4.805l23.2 23.044-.704.71-23.2-23.044zM128.258 55.777l21.769 21.93-.71.704-21.77-21.93zm5.102-2.8l21.779 21.779-.707.707-21.779-21.779zM355.218 274.89l23.396 23.556-.71.705-23.396-23.556zm2.708-5.1l23.84 23.678-.705.71-23.84-23.678zM138.451 50.284l21.779 21.779-.707.707-21.779-21.779zm5.402-2.708l21.778 21.78-.707.706-21.779-21.778zm216.783 216.76l24.04 24.042-.706.707-24.042-24.042zm2.361-5.575l24.324 24.325-.707.707-24.324-24.324zM149.23 44.955l21.92 21.92-.707.707-21.92-21.92zm5.613-2.337l22.132 22.132-.707.708-22.133-22.133zM365.2 253.072l24.465 24.465-.707.708-24.466-24.466zm2.1-5.873l24.466 24.465-.707.708-24.466-24.466zM160.388 40.251l22.415 22.415-.707.708-22.415-22.416zm5.865-2.075l22.769 22.768-.707.707-22.769-22.768zm202.755 202.788l24.466 24.465-.707.708L368.3 241.67zm1.478-6.563l24.678 24.678-.707.707-24.678-24.677zM172.138 36.034l23.405 23.405-.707.707-23.405-23.405zm6.055-1.792l27.233 27.072-.705.71-27.233-27.072zM368.72 224.573l27.5 27.655-.71.705-27.498-27.655zm.759-7.01l27.647 27.647-.707.707-27.647-27.647zM184.353 32.418l28 28.002-.706.707-28.002-28.002zm6.519-1.568l28.773 28.931-.71.705-28.772-28.93zm179.251 179.44L397.99 238l-.705.709-27.868-27.71zm.239-7.823l28.001 28.001-.707.707-28.001-28.001zM197.435 29.636l30.052 30.052-.707.707-30.052-30.052zm6.858-1.131l31.475 31.315-.705.71-31.475-31.316zm165.922 165.716l28.284 28.284-.707.707-28.284-28.284zm-.871-8.778l28.92 28.92-.707.708-28.92-28.92zM211.413 27.487l33.092 33.092-.707.707-33.093-33.092zm7.489-.461l34.012 34.012-.707.707-34.012-34.012zm149.927 149.993l28.92 28.92-.707.707-28.92-28.92zm1.632-6.384l26.587 26.587-.707.707-26.587-26.587zM226.872 27.034l32.456 32.456-.707.707-32.456-32.456zm8.524.616l34.506 34.506-.707.707-34.506-34.507zm132.329 132.36l28.001 28-.707.708-28-28.002zm-4.4-12.393l30.83 30.83-.707.707-30.83-30.83zM244.992 29.258l37.405 37.406-.707.707-37.405-37.406zm10.615 2.752l41.796 41.643-.706.708-41.795-41.642zM356.38 132.482l35.778 35.779-.707.707-35.779-35.78zm-18.133-25.935l51.053 51.052-.707.708-51.053-51.053zM267.456 35.78l56.002 56.002-.707.707-56.002-56.002zm13.496 5.536l104.65 104.65-.707.707-104.65-104.65zm16.085 8.007l83.509 83.509-.707.707-83.509-83.508zm20.701 12.685l54.582 54.737-.708.706-54.582-54.736zM21.374 227.567l.863.505-3.836 6.56-.864-.504z"/><path fill="#5AB6C0" d="M14.565 227.585l3.84 6.559-.863.505-3.84-6.559z"/><path fill="#5AB6C0" d="M17.5 227.8h1v15.1h-1zm-7 15.1h1v13.2h-1z"/><path fill="#5AB6C0" d="M11 242.4h14v1H11z"/><path fill="#5AB6C0" d="M24.5 242.9h1v13.2h-1z"/><path fill="#5AB6C0" d="M11 255.6h14v1H11zm7.4-6.6l2.4-2.6c.1-.1.2-.1.2-.1.1 0 .1 0 .1.1v.2s0 .1-.1.1l-2.4 2.7.3 3.2v.1c0 .1-.1.1-.1.2-.1 0-.1.1-.2.1h-.1v-.1l-.3-3.1-1.1 3c0 .1-.1.1-.1.2-.1 0-.1.1-.2.1 0 0-.1 0-.1-.1v-.2l1.1-3-2.5 3.1-.1.1h-.1c-.1 0-.1 0-.1-.1v-.2l.1-.1 2.6-3.2-.5-2.7v-.1l.1-.1c.1-.1.1-.1.2-.1s.1 0 .1.1l.5 2.6.9-2.5c0-.1.1-.1.1-.2.1 0 .1-.1.2-.1s.1 0 .1.1v.2l-1 2.4zM197.9 13.2c.3 0 .4.2.3.5l-.3.9c0 .1-.1.2-.3.3-.1.1-.3.2-.4.2s-.2 0-.3-.1c-.1-.1-.1-.2 0-.3l.2-.5h-5.7l-.2.5c0 .1-.1.2-.3.3-.1.1-.3.2-.4.2s-.2 0-.3-.1c-.1-.1-.1-.2 0-.3l.3-.9c.1-.3.3-.5.6-.5h.5l5.4-12c0-.1.1-.2.2-.3l.2-.1h4c.3 0 .4.2.3.5l-4.3 11.8.5-.1zm-5.2 0h3.7l4.1-11.3h-2.9l-4.9 11.3zm14.4-3.3h-5.7c-.1 0-.2 0-.3-.1v-.3c0-.1.1-.2.2-.3.1-.1.3-.2.4-.2h5.7c.1 0 .2.1.3.2.1.1.1.2 0 .3s-.1.2-.2.3c-.1.1-.3.1-.4.1zm7.5 3.3c.3 0 .4.2.3.5l-.3.9c0 .1-.1.2-.3.3-.1.1-.3.2-.4.2s-.2 0-.3-.1c-.1-.1-.1-.2 0-.3l.2-.5h-5.7l-.2.5c0 .1-.1.2-.3.3-.1.1-.3.2-.4.2s-.2 0-.3-.1c-.1-.1-.1-.2 0-.3l.3-.9c.1-.3.3-.5.6-.5h.5l5.2-11.8c0-.1.1-.2.2-.3l.2-.1h4c.3 0 .4.2.3.5l-4.3 11.8.7-.3zm-5.2 0h3.7l4.1-11.3h-2.9l-4.9 11.3zm9 1.3v.1c0 .1-.1.2-.3.3-.1.1-.3.1-.4.1-.1 0-.2 0-.2-.1-.1 0-.1-.1-.1-.3.1-1.1.3-2.3.6-3.5l.2-1 .1-.5.1-.4.1-.4.1-.3.4-1.2c.9-2.4 2.1-4.8 3.6-7.2 0-.1.1-.2.2-.2.1-.1.2-.1.3-.1.1 0 .2 0 .3.1.1.1.1.2 0 .3l-.1.1c-.3.5-.6 1.1-1 1.6-.3.6-.6 1.2-1 1.8l-.2 1.3c-.2.3-.3.6-.4.8l-.4.9-.3.8c-.4 1.2-.8 2.4-1.1 3.5-.1.5-.2 1.1-.3 1.7l-.1.9-.1.9zm8.1-.3h-5.6c-.1 0-.2-.1-.3-.2v-.4c0-.1.1-.2.1-.2l8-7.8.3-.4.3-.3c.2-.2.3-.5.4-.7.2-.6.2-1.2-.2-1.6-.2-.2-.4-.4-.6-.5-.3-.1-.6-.2-.9-.2-.4 0-.9.1-1.3.4-.5.2-.9.7-1.4 1.2l-.2.2c-.1 0-.2.1-.3.1-.1 0-.2 0-.3-.1-.1-.1-.1-.2 0-.3l.1-.2c.5-.8 1.2-1.3 1.9-1.7.6-.3 1.3-.5 1.9-.5.9 0 1.6.3 2.1.9.5.6.6 1.4.3 2.3-.1.3-.3.6-.5.9-.2.3-.5.6-.9 1l-7.3 7.1h4.8c.1 0 .2.1.3.2.1.1.1.2 0 .3 0 .1-.1.2-.2.3-.2.1-.3.2-.5.2zm9.9-2.9c-.3.8-.8 1.4-1.6 2-.8.6-1.5.8-2.3.8h-.9c-.7 0-1.3-.3-1.7-.8s-.4-1.2-.1-2l2.7-7.6c.3-.8.8-1.4 1.5-2 .8-.6 1.5-.8 2.3-.8h.9c.8 0 1.3.3 1.7.8.4.6.4 1.2.1 2l-2.6 7.6zm-.9 0l2.7-7.6c.2-.5.2-1-.1-1.3-.2-.4-.6-.6-1.1-.6h-1c-.5 0-1 .2-1.5.6-.5.4-.8.8-1 1.3l-2.7 7.6c-.2.5-.2 1 .1 1.3.2.4.6.6 1.1.6h.9c.5 0 1-.2 1.5-.5.5-.4.9-.8 1.1-1.4zm3.9-1.2c.1.1.1.2 0 .3 0 .1-.1.2-.2.3-.1.1-.3.2-.4.2-.1 0-.2 0-.3-.1v-.3c0-.1.1-.2.2-.3.1-.1.3-.2.4-.2.1-.1.2 0 .3.1zm1.7-4.8c.1.1.1.2 0 .3 0 .1-.1.2-.2.3-.1.1-.3.2-.4.2-.1 0-.2 0-.3-.1v-.3c0-.1.1-.2.2-.3.1-.1.3-.2.4-.2.1 0 .2 0 .3.1zm2.7 8.4c-.1.2-.1.3-.3.4-.1.1-.2.1-.4.1-.1 0-.2 0-.3-.1-.1-.1-.1-.2 0-.4l4.1-11.1-2.8 2c-.1.1-.3.1-.4.1-.1 0-.2 0-.3-.1-.1-.1-.1-.2 0-.3 0-.1.1-.2.3-.3l3.9-2.8c.1-.1.2-.1.4-.1.1 0 .2 0 .3.1.1.1.1.2 0 .3l-4.5 12.2zm2.3 1c-.1.1-.1.2-.2.3-.1.1-.2.1-.3.1-.1 0-.2 0-.3-.1-.1-.1-.1-.2 0-.3l.1-.1c.3-.5.6-1.1 1-1.6.3-.6.6-1.2 1-1.8l.4-.9.2-.5.1-.4.2-.5.3-.6.2-.6c.4-1.1.8-2.3 1-3.5.1-.6.3-1.2.3-1.7l.1-.9.1-.8V.7c0-.1.1-.2.3-.3.1-.1.3-.1.4-.1.1 0 .1 0 .2.1.1 0 .1.1.1.3-.2 2.4-.8 4.8-1.7 7.2-.7 2-1.9 4.4-3.5 6.8zm67.573 300.443l1.914 5.263-.94.342-1.914-5.263z"/><path fill="#5AB6C0" d="M313.426 314.799l.836.334-.372.928-.835-.334z"/><path fill="#5AB6C0" d="M314.29 314.58l.707.707-.636.636-.707-.707z"/><path fill="#5AB6C0" d="M315.19 314.935l.477 5.58-.996.084-.478-5.579z"/><path fill="#5AB6C0" d="M315.1 320.6h-.2v-1.2h.2v1.2zm-.2-.5h-.2v-1.3h.2v1.3zm-.1-.5h-.2v-.3h-.2v-.5h-.2v-.5h-.2v-.8h-.2v-.5h-.2v-.5h-.2v-.5h-.2v-1.2h.3v.2h.3v.2h.2v.6h.2v.6h.2v.8h.2v.6h.2v1.8z"/><path fill="#5AB6C0" d="M315.1 320.6h-.2v-1.2h.2v1.2zm-.2-.5h-.2v-1.3h.2v1.3zm-.1-.5h-.2v-.3h-.2v-.5h-.2v-.5h-.2v-.8h-.2v-.5h-.2v-.5h-.2v-.5h-.2v-1.2h.3v.2h.3v.2h.2v.6h.2v.6h.2v.8h.2v.6h.2v1.8z"/><path fill="#5AB6C0" d="M315.1 320.2h-.2v-.6h-.1v-.8h-.2v-.6h-.1v-.8h-.2v-.7h-.2v-.6h-.1v-1h.1v-.2h.2v-.1h.2v-.2h.3v1.8h.1v1.9h.2z"/><path fill="#5AB6C0" d="M315.1 320.2h-.2v-.6h-.1v-.8h-.2v-.6h-.1v-.8h-.2v-.7h-.2v-.6h-.1v-1h.1v-.2h.2v-.1h.2v-.2h.3v1.8h.1v1.9h.2z"/><path fill="#5AB6C0" d="M309.431 291.845l6.206 28.635-.977.212-6.206-28.635z"/><path fill="#5AB6C0" d="M265.6 291.4h43.3v1h-43.3z"/><path fill="#5AB6C0" d="M268.953 285.13l3.669 6.542-.872.49-3.67-6.542z"/><path fill="#5AB6C0" d="M278.88 279.494l.86.51-7.136 12.044-.86-.51z"/><path fill="#5AB6C0" d="M279.3 279.3h31.5v1h-31.5zm4.1 6.9l.5 2.5v.1c0 .1-.1.1-.1.2-.1 0-.1.1-.2.1h-.1v-.1l-.6-2.7h-.9l-.9 2.6c0 .1-.1.1-.1.2-.1 0-.1.1-.2.1 0 0-.1 0-.1-.1v-.2l2.2-6.1c.1-.2.2-.2.3-.2h1.6c.4 0 .7.1.8.4.2.3.2.6.1 1l-.3.9c-.1.4-.4.7-.8 1s-.8.3-1.2.3zm-1.2-.5h1.4c.3 0 .5-.1.8-.3s.4-.4.5-.7l.3-.9c.1-.3.1-.5 0-.7-.1-.2-.3-.3-.6-.3h-1.4l-1 2.9zm5.8 2.8c.1 0 .1.1.1.2s-.1.1-.1.2c-.1 0-.1.1-.2.1h-.1c-.1 0-.1-.1-.2-.1 0 0-.1-.1-.1-.2-.3.2-.5.3-.8.3h-.9c-.3 0-.4-.1-.6-.3-.1-.2-.1-.4 0-.7l1-2.8c.1-.2.3-.4.5-.6.2-.2.5-.3.8-.3h1.6c.2 0 .2.1.1.2l-1.3 3.5v.3c0 .1.1.2.2.2zm-.6-.5l1.2-3.3h-1.4c-.1 0-.3 0-.4.1l-.3.3-1 2.8v.3c.1.1.2.1.3.1h.9c.1 0 .3 0 .4-.1.1.1.2 0 .3-.2zm7.5-.4c-.1.4-.4.7-.8 1-.4.3-.8.4-1.1.4h-.5c-.4 0-.6-.1-.8-.4-.2-.3-.2-.6-.1-1l1.4-3.7c.1-.4.4-.7.8-1 .4-.3.8-.4 1.1-.4h.5c.4 0 .7.1.8.4.2.3.2.6.1 1l-1.4 3.7zm-.4 0l1.4-3.7c.1-.3.1-.5 0-.7-.1-.2-.3-.3-.6-.3h-.5c-.3 0-.5.1-.8.3-.2.2-.4.4-.5.7l-1.4 3.7c-.1.3-.1.5 0 .7.1.2.3.3.5.3h.5c.3 0 .5-.1.8-.3.3-.2.5-.5.6-.7zm.8 2.2l-.1.1h-.1c-.1 0-.1 0-.1-.1v-.3l.6-.9c0-.1.1-.1.1-.1h.2c.1 0 .1 0 .1.1v.3l-.7.9zm4.4-2.7h.7c.1 0 .1 0 .1.1v.2c0 .1-.1.1-.1.2-.1 0-.1.1-.2.1h-.7l-.4 1.2c0 .1-.1.1-.1.2-.1 0-.1.1-.2.1 0 0-.1 0-.1-.1v-.2l.4-1.2h-1.6c-.1 0-.1 0-.1-.1v-.3l2.6-4.7c0-.1.1-.1.1-.1h.2c.1 0 .1 0 .1.1v.3l-2.5 4.4h1.3l.4-1.2s.1-.1.1-.2c.1-.1.1-.1.2-.1s.1 0 .1.1v.2l-.3 1zm5 .5c-.1.4-.4.7-.8 1-.4.3-.8.4-1.1.4h-.5c-.4 0-.6-.1-.8-.4-.2-.3-.2-.6-.1-1l1.4-3.7c.1-.4.4-.7.8-1 .4-.3.8-.4 1.1-.4h.5c.4 0 .7.1.8.4.2.3.2.6.1 1l-1.4 3.7zm-.5 0l1.4-3.7c.1-.3.1-.5 0-.7-.1-.2-.3-.3-.6-.3h-.5c-.3 0-.5.1-.8.3-.2.2-.4.4-.5.7l-1.4 3.7c-.1.3-.1.5 0 .7.1.2.3.3.5.3h.5c.3 0 .5-.1.8-.3.4-.2.5-.5.6-.7zM196.345 390.91l.831.556-20.98 31.32-.83-.556z"/><path fill="#5AB6C0" d="M162.4 422h13.4v1h-13.4zm118.819-81.577l.318 5.89-.999.055-.318-5.891z"/><path fill="#5AB6C0" d="M280.256 334.467l.96 5.922-.987.16-.96-5.922z"/><path fill="#5AB6C0" d="M278.747 328.814l1.594 5.577-.962.275-1.593-5.577z"/><path fill="#5AB6C0" d="M276.397 323.428l2.209 5.363-.925.381-2.209-5.363z"/><path fill="#5AB6C0" d="M273.755 318.112l2.702 5.245-.89.458-2.701-5.245z"/><path fill="#5AB6C0" d="M270.354 313.254l3.326 4.752-.82.574-3.325-4.752z"/><path fill="#5AB6C0" d="M266.487 308.574l3.826 4.622-.77.638-3.826-4.623z"/><path fill="#5AB6C0" d="M262.15 304.509l4.328 4.008-.679.734-4.329-4.008z"/><path fill="#5AB6C0" d="M257.497 301.048l4.62 3.506-.604.796-4.62-3.505z"/><path fill="#5AB6C0" d="M252.387 297.973l5.073 3.012-.51.86-5.073-3.012z"/><path fill="#5AB6C0" d="M247.071 295.489l5.22 2.53-.437.9-5.219-2.53z"/><path fill="#5AB6C0" d="M241.487 293.67l5.533 1.74-.3.953-5.533-1.74z"/><path fill="#5AB6C0" d="M235.689 292.372l5.76 1.28-.218.976-5.76-1.28z"/><path fill="#5AB6C0" d="M229.767 291.69l5.866.635-.108.994-5.865-.634z"/><path fill="#5AB6C0" d="M223.8 291.7h5.9v1h-5.9z"/><path fill="#5AB6C0" d="M223.691 291.685l.11.994-5.764.64-.11-.994z"/><path fill="#5AB6C0" d="M217.928 292.353l.216.977-5.76 1.278-.216-.976z"/><path fill="#5AB6C0" d="M212.234 293.667l.324.946-5.581 1.913-.324-.946zm-5.687 1.947l.403.915-5.4 2.38-.402-.916z"/><path fill="#5AB6C0" d="M201.15 297.959l.522.852-4.945 3.03-.523-.852zm-5.005 3.121l.608.795-4.762 3.649-.609-.794z"/><path fill="#5AB6C0" d="M191.351 304.716l.694.72-4.108 3.952-.693-.72zm-4.227 4.057l.76.651-3.84 4.48-.76-.65z"/><path fill="#5AB6C0" d="M183.285 313.194l.828.56-3.363 4.969-.828-.56z"/><path fill="#5AB6C0" d="M179.936 318.192l.889.458-2.703 5.244-.889-.458z"/><path fill="#5AB6C0" d="M177.192 323.494l.933.358-2.073 5.416-.934-.357z"/><path fill="#5AB6C0" d="M175.122 328.955l.962.274-1.591 5.577-.962-.274zm-1.638 5.695l.988.16-.961 5.922-.987-.16z"/><path fill="#5AB6C0" d="M172.565 340.592l.998.053-.317 5.892-.998-.054z"/><path fill="#5AB6C0" d="M173.246 346.406l.317 5.691-.999.056-.316-5.692zm.342 5.728l.96 5.922-.987.16-.96-5.922z"/><path fill="#5AB6C0" d="M174.446 357.915l1.593 5.576-.961.275-1.594-5.577z"/><path fill="#5AB6C0" d="M176.084 363.443l2.228 5.57-.928.372-2.229-5.571z"/><path fill="#5AB6C0" d="M178.231 368.975l2.721 5.122-.883.47-2.72-5.122z"/><path fill="#5AB6C0" d="M180.908 374.025l3.365 4.967-.828.561-3.365-4.967z"/><path fill="#5AB6C0" d="M184.236 378.98l3.84 4.48-.76.65-3.839-4.48z"/><path fill="#5AB6C0" d="M188 383.338l4.33 4.008-.68.734-4.33-4.008z"/><path fill="#5AB6C0" d="M192.3 387.262l4.62 3.505-.604.797-4.62-3.506z"/><path fill="#5AB6C0" d="M196.836 390.77l5.074 3.011-.51.86-5.074-3.012z"/><path fill="#5AB6C0" d="M201.836 393.735l5.397 2.382-.403.915-5.398-2.382z"/><path fill="#5AB6C0" d="M207.241 396.079l5.582 1.913-.325.946-5.581-1.913z"/><path fill="#5AB6C0" d="M212.795 397.976l5.76 1.28-.217.975-5.76-1.28z"/><path fill="#5AB6C0" d="M218.485 399.287l5.764.64-.11.994-5.765-.64z"/><path fill="#5AB6C0" d="M229.96 399.757l.027 1-5.898.16-.027-.999zm5.912-.732l.108.994-5.866.633-.107-.994z"/><path fill="#5AB6C0" d="M241.54 397.853l.218.976-5.76 1.279-.217-.976z"/><path fill="#5AB6C0" d="M247.036 395.916l.324.946-5.581 1.912-.324-.946z"/><path fill="#5AB6C0" d="M252.261 393.539l.414.91-5.279 2.402-.414-.91z"/><path fill="#5AB6C0" d="M257.295 390.444l.53.848-5.086 3.182-.53-.848z"/><path fill="#5AB6C0" d="M261.822 386.934l.604.797-4.62 3.506-.605-.797z"/><path fill="#5AB6C0" d="M266.09 382.99l.68.733-4.328 4.01-.68-.733z"/><path fill="#5AB6C0" d="M269.71 378.457l.783.621-3.666 4.623-.783-.622z"/><path fill="#5AB6C0" d="M273.02 373.776l.819.573-3.325 4.753-.82-.573zm2.696-5.269l.89.458-2.704 5.244-.889-.458z"/><path fill="#5AB6C0" d="M277.79 363.117l.935.358-2.074 5.416-.934-.357z"/><path fill="#5AB6C0" d="M279.318 357.492l.963.268-1.578 5.685-.964-.268zm.95-5.74l.986.164-.951 5.721-.987-.164z"/><path fill="#5AB6C0" d="M280.56 346.278l.999.057-.317 5.591-.999-.057zm88.195-161.886l.25.968-5.521 1.42-.249-.969z"/><path fill="#5AB6C0" d="M363.332 185.179l.857.514-.463.772-.857-.515z"/><path fill="#5AB6C0" d="M363.466 184.512l.636.636-.707.708-.636-.637z"/><path fill="#5AB6C0" d="M363.1 184.4h5.7v1h-5.7z"/><path fill="#5AB6C0" d="M363.9 186.6h-.4v-1h.1v-.3h.2v-.3h1.2v-.2h1.3v-.1h1.3v-.2h.8v1h-.6v.2h-.7v.1h-.6v.2h-.7v.1h-.6v.2h-.6v.2h-.7z"/><path fill="#5AB6C0" d="M363.9 186.6h-.4v-1h.1v-.3h.2v-.3h1.2v-.2h1.3v-.1h1.3v-.2h.8v1h-.6v.2h-.7v.1h-.6v.2h-.7v.1h-.6v.2h-.6v.2h-.7z"/><path fill="#5AB6C0" d="M365 185.8h-1.4v-.1h-.1v-.2h-.2v-.1h-.2v-1h5.8v1h-1.3v.1h-1.3v.2H365z"/><path fill="#5AB6C0" d="M365 185.8h-1.4v-.1h-.1v-.2h-.2v-.1h-.2v-1h5.8v1h-1.3v.1h-1.3v.2H365zM90.218 219.312l.282.96-5.372 1.58-.282-.96z"/><path fill="#5AB6C0" d="M89.888 219.62l.895.448-.492.984-.894-.447z"/><path fill="#5AB6C0" d="M90.211 220.405l.636.637-.707.707-.636-.637z"/><path fill="#5AB6C0" d="M84.9 220.9h5.6v1h-5.6z"/><path fill="#5AB6C0" d="M86.2 221.8h-.6v-1h.5v-.2h.6v-.1h.5v-.2h.4v-.2h.7v-.1h.5v-.2h.6v-.1h.5v-.2h.4v1h-.1v.3H90v.3h-.1v.2h-1.1v.2h-1.3v.1h-1.3z"/><path fill="#5AB6C0" d="M86.2 221.8h-.6v-1h.5v-.2h.6v-.1h.5v-.2h.4v-.2h.7v-.1h.5v-.2h.6v-.1h.5v-.2h.4v1h-.1v.3H90v.3h-.1v.2h-1.1v.2h-1.3v.1h-1.3z"/><path fill="#5AB6C0" d="M90.3 221.8h-4.1v-1h1.3v-.2h1.3v-.1H90v.1h.2v.2h.1z"/><path fill="#5AB6C0" d="M90.3 221.8h-4.1v-1h1.3v-.2h1.3v-.1H90v.1h.2v.2h.1z"/><path fill="#5AB6C0" d="M368.812 184.347l.128.991-283.953 36.618-.128-.992z"/><path fill="#5AB6C0" d="M84.893 220.885l.127.992-49.793 6.37-.127-.992z"/><path fill="#5AB6C0" d="M0 227.3h35.2v1H0zm3.1-4.1c-.3-.1-.4-.4-.5-.7-.1-.3-.1-.7.1-1 .2-.5.5-.9 1-1.3s1-.6 1.5-.6h.3l.8-1.2c.1-.1.2-.2.3-.2.1 0 .1 0 .1.1v.3l-.8 1.2c.3.1.4.4.6.7 0 .1.1.3 0 .5 0 .2-.1.4-.1.5-.2.5-.5.9-1 1.3s-1 .6-1.5.6h-.3l-.8 1.3c-.1.1-.2.2-.3.2 0 0-.1 0-.2-.1v-.3l.8-1.3zm.3-.5l1.8-2.6H5c-.4 0-.8.1-1.1.4-.2.1-.3.3-.5.5l-.2.2-.1.2v.1c-.1.2-.1.5 0 .7 0 .2.1.4.3.5zm2.2-2.5l-1.8 2.6H4c.4 0 .8-.1 1.1-.4.4-.3.6-.6.8-1 .1-.3.1-.5 0-.7 0-.2-.1-.3-.3-.5zm6.1-1.7l-3.6 6.1-.1.1h-.2c-.1 0-.1 0-.1-.1v-.3l3.4-5.8H8.9l-.2.5c0 .1-.1.1-.1.2-.1 0-.1.1-.2.1 0 0-.1 0-.1-.1v-.2l.3-.7c.1-.2.2-.2.3-.2h2.8c.1 0 .1 0 .2.1-.1.1-.1.1-.2.3zm-1.4 7l-.1.1h-.1c-.1 0-.1 0-.1-.1v-.3l.6-.9c0-.1.1-.1.1-.1h.2c.1 0 .1 0 .1.1v.3l-.7.9zm2.7-4.3c.2-.6.6-1.2 1.1-1.8.6-.6 1.2-1 2-1.3h.1c.1 0 .1 0 .1.1v.2s0 .1-.1.1c0 0-.1.1-.2.1h-.2l-.2.1c-.1.1-.3.2-.4.2-.2.2-.5.4-.8.6-.2.2-.4.4-.5.6-.2.2-.3.4-.4.6H15c.4 0 .7.1.8.4.2.3.2.6 0 1l-.3.9c-.1.4-.4.7-.8 1-.4.3-.8.4-1.1.4h-.5c-.4 0-.6-.1-.8-.4-.2-.3-.2-.6-.1-1l.8-1.8zm.4.3l-.7 1.9c-.1.3-.1.5 0 .7.1.2.3.3.5.3h.5c.3 0 .5-.1.8-.3.2-.2.4-.4.5-.7l.3-.9c.1-.3.1-.5 0-.7-.1-.2-.3-.3-.6-.3h-1.3zm5.6 3.2h-2.8c-.1 0-.1 0-.1-.1v-.2s0-.1.1-.1l4-3.9.2-.2.1-.2c.1-.1.1-.2.2-.3.1-.3.1-.6-.1-.8-.1-.1-.2-.2-.3-.2-.1-.1-.3-.1-.4-.1-.2 0-.4.1-.7.2-.2.1-.5.3-.7.6l-.1.1h-.1c-.1 0-.1 0-.1-.1v-.3c.3-.4.6-.7.9-.9.3-.2.6-.3.9-.3.4 0 .8.2 1 .5.3.3.3.7.1 1.1-.1.2-.1.3-.2.4-.1.1-.2.3-.4.5l-3.6 3.5h2.3c.1 0 .1 0 .1.1v.2c0 .1-.1.1-.1.2-.1.3-.2.3-.2.3zm4.9-7h.6s.1 0 .1.1v.1s0 .1-.1.1l-.1.1h-.6l-.2.6c0 .1 0 .1-.1.1h-.2v-.1l.2-.6h-.7v-.1s0-.1.1-.1l.1-.1h.6l.2-.6s0-.1.1-.1l.1-.1h.1v.1l-.2.6zm3.2.8c-.1.3-.3.5-.5.7-.3.2-.5.3-.8.3h-.3c-.2 0-.4-.1-.6-.3-.1-.2-.1-.4 0-.7l.9-2.5c.1-.3.3-.5.5-.7.3-.2.5-.3.8-.3h.3c.3 0 .5.1.6.3.1.2.1.4 0 .7l-.9 2.5zm-.3 0l.9-2.5c.1-.2.1-.3 0-.4-.1-.1-.2-.2-.4-.2H27c-.2 0-.3.1-.5.2s-.3.3-.4.5l-.9 2.5c-.1.2-.1.3 0 .4.1.1.2.2.4.2h.3c.2 0 .3-.1.5-.2.2-.2.3-.3.4-.5zm.5 1.5l-.1.1H27v-.1l.4-.6.1-.1h.2v.1l-.4.6zm3.5-1.5c-.1.3-.3.5-.5.7-.3.2-.5.3-.8.3h-.3c-.2 0-.4-.1-.6-.3-.1-.2-.1-.4 0-.7l.9-2.5c.1-.3.3-.5.5-.7.3-.2.5-.3.8-.3h.3c.3 0 .5.1.6.3.1.2.1.4 0 .7l-.9 2.5zm-.3 0l.9-2.5c.1-.2.1-.3 0-.4-.1-.1-.2-.2-.4-.2h-.3c-.2 0-.3.1-.5.2s-.3.3-.4.5l-.9 2.5c-.1.2-.1.3 0 .4.1.1.2.2.4.2h.3c.2 0 .3-.1.5-.2.2-.2.4-.3.4-.5zm2.8 0c-.1.3-.3.5-.5.7-.3.2-.5.3-.8.3h-.9v-.1s0-.1.1-.1l.1-.1h.8c.2 0 .3-.1.5-.2s.3-.3.3-.5l.2-.6c.1-.2.1-.3 0-.4s-.2-.2-.4-.2H32c-.1 0-.1-.1-.1-.2l.7-1.9c0-.1.1-.2.2-.2h1.6s.1 0 .1.1v.1s0 .1-.1.1l-.1.1h-1.4l-.6 1.6h.6c.3 0 .5.1.6.3.1.2.1.4 0 .7l-.2.5zm81.775 79.78l.535.844-4.73 2.997-.536-.844z"/><path fill="#5AB6C0" d="M110.597 301.234l.987.164-.164.986-.987-.164z"/><path fill="#5AB6C0" d="M111 301.9h1v1h-1z"/><path fill="#5AB6C0" d="M114.951 298.4l.734.678-3.8 4.112-.735-.678z"/><path fill="#5AB6C0" d="M114.954 298.324l.645.763-7.179 6.068-.645-.764z"/><path fill="#5AB6C0" d="M111.8 302.3h-1.3v-1h.4v-.2h.3v-.2h.1v-.1h.4v-.2h.1v-.1h.3v-.2h.4v-.2h.1v-.1h.3v-.2h.2v-.1h.3v-.2h.2v-.1h.3v-.2h.3v-.2h.2v-.1h.3v-.2h.1v-.1h.2v1h-.2v.1h-.1v.2h-.3v.1h-.2v.2h-.2v.2h-.1v.1h-.2v.2h-.3v.1h-.1v.2h-.2v.1h-.2v.2h-.1v.2h-.3v.1h-.2v.2h-.2v.1h-.1v.2h-.2z"/><path fill="#5AB6C0" d="M111.8 302.3h-1.3v-1h.4v-.2h.3v-.2h.1v-.1h.4v-.2h.1v-.1h.3v-.2h.4v-.2h.1v-.1h.3v-.2h.2v-.1h.3v-.2h.2v-.1h.3v-.2h.3v-.2h.2v-.1h.3v-.2h.1v-.1h.2v1h-.2v.1h-.1v.2h-.3v.1h-.2v.2h-.2v.2h-.1v.1h-.2v.2h-.3v.1h-.1v.2h-.2v.1h-.2v.2h-.1v.2h-.3v.1h-.2v.2h-.2v.1h-.1v.2h-.2z"/><path fill="#5AB6C0" d="M111.7 303.2h-.2v-1.8h.3v-.1h.2v-.2h.1v-.2h.2v-.1h.2v-.2h.3v-.1h.1v-.2h.2v-.2h.2v-.1h.1v-.2h.3v-.1h.2v-.2h.1v-.1h.2v-.2h.2v-.2h.3v-.1h.1v-.2h.2v-.1h.2v-.2h.1v1h-.1v.2h-.2v.1h-.2v.2h-.1v.1h-.2v.2h-.1v.2h-.2v.1h-.2v.2h-.1v.1h-.2v.2h-.1v.1h-.2v.4h-.1v.1h-.2v.2h-.2v.1h-.1v.2h-.2v.2h-.1v.1h-.2v.2h-.2v.1h-.1v.2h-.2v.2h-.1z"/><path fill="#5AB6C0" d="M111.7 303.2h-.2v-1.8h.3v-.1h.2v-.2h.1v-.2h.2v-.1h.2v-.2h.3v-.1h.1v-.2h.2v-.2h.2v-.1h.1v-.2h.3v-.1h.2v-.2h.1v-.1h.2v-.2h.2v-.2h.3v-.1h.1v-.2h.2v-.1h.2v-.2h.1v1h-.1v.2h-.2v.1h-.2v.2h-.1v.1h-.2v.2h-.1v.2h-.2v.1h-.2v.2h-.1v.1h-.2v.2h-.1v.1h-.2v.4h-.1v.1h-.2v.2h-.2v.1h-.1v.2h-.2v.2h-.1v.1h-.2v.2h-.2v.1h-.1v.2h-.2v.2h-.1zM342.982 104l.555.832-4.743 3.162-.555-.833z"/><path fill="#5AB6C0" d="M342.392 103.737l.986.164-.164.987-.987-.165z"/><path fill="#5AB6C0" d="M342.66 103.145l.164.986-.987.164-.164-.986z"/><path fill="#5AB6C0" d="M341.754 102.936l.762.648-3.63 4.264-.762-.648z"/><path fill="#5AB6C0" d="M345.132 100.992l.663.748-7.034 6.235-.663-.748z"/><path fill="#5AB6C0" d="M339.3 107.6h-.2v-1h.2v-.2h.1v-.1h.2v-.2h.2v-.2h.3v-.1h.1v-.2h.2v-.1h.2v-.2h.1v-.2h.2v-.1h.1v-.2h.3v-.1h.2v-.2h.2v-.2h.1v-.1h.2v-.2h.1v-.1h1.2v1h-.2v.1h-.3v.2h-.2v.1h-.3v.2h-.2v.2h-.3v.1h-.1v.2h-.4v.1h-.1v.2h-.3v.2h-.2v.1h-.3v.2h-.2v.1h-.3v.2h-.1v.2h-.4v.1h-.1z"/><path fill="#5AB6C0" d="M339.3 107.6h-.2v-1h.2v-.2h.1v-.1h.2v-.2h.2v-.2h.3v-.1h.1v-.2h.2v-.1h.2v-.2h.1v-.2h.2v-.1h.1v-.2h.3v-.1h.2v-.2h.2v-.2h.1v-.1h.2v-.2h.1v-.1h1.2v1h-.2v.1h-.3v.2h-.2v.1h-.3v.2h-.2v.2h-.3v.1h-.1v.2h-.4v.1h-.1v.2h-.3v.2h-.2v.1h-.3v.2h-.2v.1h-.3v.2h-.1v.2h-.4v.1h-.1z"/><path fill="#5AB6C0" d="M338.8 107.9h-.2v-1h.2v-.2h.2v-.1h.1v-.2h.2v-.1h.1v-.4h.2v-.1h.2v-.2h.1v-.1h.2v-.2h.1v-.2h.2v-.3h.2v-.1h.1v-.2h.2v-.2h.1v-.1h.2v-.2h.1v-.3h.2v-.2h.2v-.1h.1v-.2h.2v-.1h.1v-.2h.2v1.8h-.2v.2h-.1v.1h-.2v.2h-.1v.1h-.2v.2h-.2v.2h-.3v.1h-.1v.2h-.2v.1h-.1v.2h-.2v.2h-.2v.1h-.1v.2h-.3v.1h-.2v.2h-.2v.2h-.1v.1h-.2v.2h-.1v.1h-.2z"/><path fill="#5AB6C0" d="M338.8 107.9h-.2v-1h.2v-.2h.2v-.1h.1v-.2h.2v-.1h.1v-.4h.2v-.1h.2v-.2h.1v-.1h.2v-.2h.1v-.2h.2v-.3h.2v-.1h.1v-.2h.2v-.2h.1v-.1h.2v-.2h.1v-.3h.2v-.2h.2v-.1h.1v-.2h.2v-.1h.1v-.2h.2v1.8h-.2v.2h-.1v.1h-.2v.2h-.1v.1h-.2v.2h-.2v.2h-.3v.1h-.1v.2h-.2v.1h-.1v.2h-.2v.2h-.2v.1h-.1v.2h-.3v.1h-.2v.2h-.2v.2h-.1v.1h-.2v.2h-.1v.1h-.2z"/><path fill="#5AB6C0" d="M338.201 107.211l.65.76-223.275 191.123-.65-.76zm29.56-25.476l.653.758-29.559 25.443-.652-.758z"/><path fill="#5AB6C0" d="M368.1 81.6h35v1h-35zm2.9-4.1c-.3-.1-.4-.4-.5-.7-.1-.3-.1-.7.1-1 .2-.5.5-.9 1-1.3s1-.6 1.5-.6h.3l.8-1.2c.1-.1.2-.2.3-.2.1 0 .1 0 .1.1v.3l-.8 1.2c.3.1.4.4.6.7 0 .1.1.3 0 .5 0 .2-.1.4-.1.5-.2.5-.5.9-1 1.3s-1 .6-1.5.6h-.3l-.8 1.3c-.1.1-.2.2-.3.2 0 0-.1 0-.2-.1v-.3l.8-1.3zm.4-.4l1.8-2.6h-.2c-.4 0-.8.1-1.1.4-.2.1-.3.3-.5.5l-.2.2-.1.2v.1c-.1.3-.1.5-.1.7 0 .2.2.4.4.5zm2.1-2.5l-1.8 2.6h.2c.4 0 .8-.1 1.1-.4.4-.3.6-.6.8-1 .1-.3.1-.5 0-.7.1-.2-.1-.4-.3-.5zm6.2-1.7l-3.6 6.1-.1.1h-.2c-.1 0-.1 0-.1-.1v-.3l3.4-5.8h-2.3l-.2.5c0 .1-.1.1-.1.2-.1 0-.1.1-.2.1 0 0-.1 0-.1-.1v-.2l.3-.7c.1-.2.2-.2.3-.2h2.8c.1 0 .1 0 .2.1-.1.1-.1.1-.1.3zm-1.5 7l-.1.1h-.1c-.1 0-.1 0-.1-.1v-.3l.6-.9c0-.1.1-.1.1-.1h.2c.1 0 .1 0 .1.1v.3l-.7.9zm5.3-2.2c-.1.4-.4.7-.8 1s-.8.4-1.1.4h-.5c-.4 0-.6-.1-.8-.4-.2-.3-.2-.6-.1-1l.3-.9c.1-.2.2-.5.4-.7.2-.2.5-.4.8-.6-.1-.1-.2-.3-.2-.5s0-.4.1-.6l.2-.5c.1-.4.4-.7.8-1l.6-.3.3-.1h.3c.4 0 .7.1.9.4.1.1.1.3.1.4v.3l-.1.1-.2.5-.3.6c-.1.2-.3.3-.6.5.2.1.3.3.4.5.1.2 0 .5-.1.7l-.4 1.2zm-.5 0l.3-.9c.1-.3.1-.5 0-.7-.1-.2-.3-.3-.6-.3h-.5c-.3 0-.5.1-.8.3-.2.2-.4.4-.5.7l-.3.9c-.1.3-.1.5 0 .7.1.2.3.3.5.3h.5c.3 0 .5-.1.8-.3s.5-.4.6-.7zm1-3.3l.2-.5c.1-.3.1-.5 0-.7s-.3-.3-.6-.3-.5.1-.8.3c-.2.2-.4.4-.5.7l-.2.5c-.1.3-.1.5 0 .7.1.2.3.3.6.3s.5-.1.8-.3c.2-.2.4-.4.5-.7zm2.9 4.7h-2.8c-.1 0-.1 0-.1-.1v-.2s0-.1.1-.1l4-3.9.2-.2.1-.2c.1-.1.1-.2.2-.3.1-.3.1-.6-.1-.8-.1-.1-.2-.2-.3-.2-.1-.1-.3-.1-.4-.1-.2 0-.4.1-.7.2-.2.1-.5.3-.7.6l-.1.1h-.1c-.1 0-.1 0-.1-.1v-.3c.3-.4.6-.7.9-.9.3-.2.6-.3.9-.3.4 0 .8.2 1 .5.3.3.3.7.1 1.1-.1.2-.1.3-.2.4s-.2.3-.4.5l-3.6 3.5h2.3c.1 0 .1 0 .1.1v.2c0 .1-.1.1-.1.2-.1.3-.1.3-.2.3zm5-7h.6s.1 0 .1.1v.1s0 .1-.1.1l-.1.1h-.6l-.2.6c0 .1 0 .1-.1.1h-.2v-.1l.2-.6h-.7v-.1s0-.1.1-.1l.1-.1h.6l.2-.6s0-.1.1-.1l.1-.1h.1v.1l-.2.6zm3.2.8c-.1.3-.3.5-.5.7-.3.2-.5.3-.8.3h-.3c-.2 0-.4-.1-.6-.3s-.1-.4 0-.7l.9-2.5c.1-.3.3-.5.5-.7s.5-.3.8-.3h.3c.3 0 .5.1.6.3.1.2.1.4 0 .7l-.9 2.5zm-.4 0l.9-2.5c.1-.2.1-.3 0-.4-.1-.1-.2-.2-.4-.2h-.3c-.2 0-.3.1-.5.2s-.3.3-.4.5l-.9 2.5c-.1.2-.1.3 0 .4.1.1.2.2.4.2h.3c.2 0 .3-.1.5-.2.3-.2.4-.4.4-.5zm.5 1.5l-.1.1h-.2v-.1l.4-.6.1-.1h.2v.1l-.4.6zm3.6-1.5c-.1.3-.3.5-.5.7-.3.2-.5.3-.8.3h-.3c-.2 0-.4-.1-.6-.3s-.1-.4 0-.7l.9-2.5c.1-.3.3-.5.5-.7s.5-.3.8-.3h.3c.3 0 .5.1.6.3.1.2.1.4 0 .7l-.9 2.5zm-.4 0l.9-2.5c.1-.2.1-.3 0-.4-.1-.1-.2-.2-.4-.2h-.3c-.2 0-.3.1-.5.2s-.3.3-.4.5l-.9 2.5c-.1.2-.1.3 0 .4.1.1.2.2.4.2h.3c.2 0 .3-.1.5-.2.3-.2.4-.4.4-.5zm2.8 0c-.1.3-.3.5-.5.7-.3.2-.5.3-.8.3h-.9v-.1s0-.1.1-.1.1-.1.1-.1h.8c.2 0 .3-.1.5-.2s.3-.3.3-.5l.2-.6c.1-.2.1-.3 0-.4-.1-.1-.2-.2-.4-.2h-.8c-.1 0-.1-.1-.1-.2l.7-1.9c0-.1.1-.2.2-.2h1.6s.1 0 .1.1v.1s0 .1-.1.1l-.1.1h-1.4l-.6 1.6h.6c.3 0 .5.1.6.3.1.2.1.4 0 .7l-.1.5zM26.708 288.17l4.482 3.521-.618.787-4.482-3.522z"/><path fill="#5AB6C0" d="M30.814 291.6l.196.98-.784.158-.197-.981z"/><path fill="#5AB6C0" d="M29.581 292.114l.987.165-.164.986-.987-.164z"/><path fill="#5AB6C0" d="M26.795 288.311l3.506 4.621-.797.605L26 288.916z"/><path fill="#5AB6C0" d="M30.9 292.6h-1v-.2h-.2v-.2h-.2v-.2h-.2v-.2h-.2v-.2h-.2v-.2h-.2v-.2h-.2v-.2h-.2v-.2h-.2v.2h-.2v-.2h-.2v-.2h.3v-.2h-.2v-.2h-.2v-.2h-.4v-.2H27v-1.2h.3v.2h.2v.2h.2v.2h.2v.2h.3v.2h.2v.2h.2v.2h.2v.2h.3v.2h.2v.2h.2v.2h.3v.2h.2v.2h.2v.2h.2v.2h.3v.2h.2v.2h.2v.2h.2v.4zm-3.9-3.1h-.2v-1h.2v1zm-.1-.1h-.2v-1h.2v1zm-.2-.2h-.2v-1h.2v1z"/><path fill="#5AB6C0" d="M30.9 292.6h-1v-.2h-.2v-.2h-.2v-.2h-.2v-.2h-.2v-.2h-.2v-.2h-.2v-.2h-.2v-.2h-.2v-.2h-.2v.2h-.2v-.2h-.2v-.2h.3v-.2h-.2v-.2h-.2v-.2h-.4v-.2H27v-1.2h.3v.2h.2v.2h.2v.2h.2v.2h.3v.2h.2v.2h.2v.2h.2v.2h.3v.2h.2v.2h.2v.2h.3v.2h.2v.2h.2v.2h.2v.2h.3v.2h.2v.2h.2v.2h.2v.4zm-3.9-3.1h-.2v-1h.2v1zm-.1-.1h-.2v-1h.2v1zm-.2-.2h-.2v-1h.2v1z"/><path fill="#5AB6C0" d="M30.1 293.5h-.2v-.2h-.2v-.2h-.2v-.1h-.2v-.3h-.2v-.2h-.2v-.2h-.2v-.3h-.2v-.2h-.2v-.2h-.2v-.3h-.2v-.2h-.2v-.2h.3v-.3h-.2v-.2h-.2v-.2h-.2V289h.2v.2h.2v.2h.2v.2h.2v.2h.2v.2h.2v.2h.2v.2h.2v.2h.2v.2h.2v.2h.2v.2h.2v.2h.2v.2h.2v.2h.2v.2h.2v1.5zm-2.6-3.3h-.2v-1h.2v1zm-.1-.2h-.2v-1h.2v1zm-.2-.1H27v-1h.2v1z"/><path fill="#5AB6C0" d="M30.1 293.5h-.2v-.2h-.2v-.2h-.2v-.1h-.2v-.3h-.2v-.2h-.2v-.2h-.2v-.3h-.2v-.2h-.2v-.2h-.2v-.3h-.2v-.2h-.2v-.2h.3v-.3h-.2v-.2h-.2v-.2h-.2V289h.2v.2h.2v.2h.2v.2h.2v.2h.2v.2h.2v.2h.2v.2h.2v.2h.2v.2h.2v.2h.2v.2h.2v.2h.2v.2h.2v.2h.2v.2h.2v1.5zm-2.6-3.3h-.2v-1h.2v1zm-.1-.2h-.2v-1h.2v1zm-.2-.1H27v-1h.2v1zm109.904 109.76l4.62 3.506-.604.796-4.62-3.505z"/><path fill="#5AB6C0" d="M137.66 399.43l.166.985-.987.165-.165-.986z"/><path fill="#5AB6C0" d="M137.409 398.82l.986.166-.165.986-.986-.165z"/><path fill="#5AB6C0" d="M138.285 398.707l3.505 4.62-.797.605-3.505-4.62z"/><path fill="#5AB6C0" d="M140.8 403.4h-.2v-1h.2v1zm-.2-.1h-.2v-1h.2v1zm-.1-.2h-.2v-1h.2v1zm-.2-.2h-.3v-.2h-.2v-.2h-.2v-.2h-.3v-.2h-.2v-.2h-.1v.1h-.3v-.2h-.2v-.2h-.2v-.2h-.3v-.2h-.2v-.2h-.5v-.2h-.2v-.2h-.2v-.2h-.3v-1h1.1v.2h.2v.2h.2v.2h.2v.2h.2v.2h.2v.2h.2v.2h.2v.2h.2v.2h.2v.2h.2v.2h.2v.2h.2v.2h.2v.2h.2v.2h.2v.5z"/><path fill="#5AB6C0" d="M140.8 403.4h-.2v-1h.2v1zm-.2-.1h-.2v-1h.2v1zm-.1-.2h-.2v-1h.2v1zm-.2-.2h-.3v-.2h-.2v-.2h-.2v-.2h-.3v-.2h-.2v-.2h-.1v.1h-.3v-.2h-.2v-.2h-.2v-.2h-.3v-.2h-.2v-.2h-.5v-.2h-.2v-.2h-.2v-.2h-.3v-1h1.1v.2h.2v.2h.2v.2h.2v.2h.2v.2h.2v.2h.2v.2h.2v.2h.2v.2h.2v.2h.2v.2h.2v.2h.2v.2h.2v.2h.2v.2h.2v.5z"/><path fill="#5AB6C0" d="M141.4 403.9h-.2v-1h.2v1zm-.2-.2h-.2v-1h.2v1zm-.1-.1h-.2v-1h.2v1zm-.2-.2h-.2v-.2h-.2v-.2h-.2v-.2h-.2v-.2h-.2v-.2h.1v-.2h-.2v-.2h-.2v-.2h-.2v.2h-.2v-.2h-.2v-.4h-.2v-.2h-.2v-.2h-.4v-.2h-.2v-.2h-.2v-.2h-.2v-.2h-.2v-1h.2v-.8h.2v.2h.2v.2h.2v.2h.2v.3h.2v.2h.2v.2h.2v.3h.2v.2h.2v.2h.2v.3h.2v.2h.2v.2h.2v.3h.2v.2h.2v.2h.2v.3h.2v.2h.2v.2h.2v.9z"/><path fill="#5AB6C0" d="M141.4 403.9h-.2v-1h.2v1zm-.2-.2h-.2v-1h.2v1zm-.1-.1h-.2v-1h.2v1zm-.2-.2h-.2v-.2h-.2v-.2h-.2v-.2h-.2v-.2h-.2v-.2h.1v-.2h-.2v-.2h-.2v-.2h-.2v.2h-.2v-.2h-.2v-.4h-.2v-.2h-.2v-.2h-.4v-.2h-.2v-.2h-.2v-.2h-.2v-.2h-.2v-1h.2v-.8h.2v.2h.2v.2h.2v.2h.2v.3h.2v.2h.2v.2h.2v.3h.2v.2h.2v.2h.2v.3h.2v.2h.2v.2h.2v.3h.2v.2h.2v.2h.2v.3h.2v.2h.2v.2h.2v.9z"/><path fill="#5AB6C0" d="M26.742 288.242l114.975 114.974-.707.707L26.035 288.95zM81.9 337.3l.5.5s.1.1 0 .1 0 .1-.1.1h-.2c-.1 0-.1 0-.2-.1l-.5-.5-1.1.5h-.2c-.1 0-.1 0-.2-.1 0 0 0-.1-.1-.1 0 0 0-.1.1-.1l1.1-.5-1-1.1-.1-.1c0-.1 0-.1.1-.1h.1l5.2-1.4h.2l.1.1.1.1c0 .1 0 .1-.1.1h-.1l-4.8 1.4 1 1 1.1-.5h.2c.1 0 .1 0 .2.1l.1.1c0 .1 0 .1-.1.1l-1.3.4zm-1.1 2.6h-.2c-.1 0-.1 0-.1-.1 0 0-.1-.1-.1-.2s0-.1.1-.1h.1l1.1-.3h.2c.1 0 .1 0 .1.1l.1.1c0 .1 0 .1-.1.1h-.1l-1.1.4zm6.5.3c.1.2 0 .4-.1.6-.1.2-.3.4-.6.5l-.9.4c-.4.2-.8.2-1.2.2-.5-.1-.8-.2-1.1-.5l-.8-.8c-.1-.1-.1-.1-.1-.2s.1-.1.1-.1h.2c.1 0 .2 0 .2.1l.8.8c.2.2.4.3.7.3.3 0 .6 0 .8-.1l.9-.4c.2-.1.4-.3.4-.5s0-.4-.2-.6l-.2-.2c-.1-.1-.1-.1-.1-.2s.1-.1.1-.1h.2c.1 0 .2 0 .2.1.2.2.4.3.7.3.3 0 .6 0 .8-.1l.4-.2c.2-.1.4-.3.4-.5s0-.4-.2-.6l-.7-.7c-.1-.1-.1-.1-.1-.2s.1-.1.1-.1h.2c.1 0 .2 0 .2.1l.7.7c.3.3.4.6.3.9s-.3.6-.7.7l-.5.2-.1.1h-.5c.2.2-.1.2-.3.1zm5.3.5l.5.5v.1s0 .1-.1.1h-.1c-.1 0-.1 0-.1-.1l-.5-.5-.6.3h-.1s-.1 0-.1-.1v-.1s0-.1.1-.1l.6-.3-.5-.5v-.1s0-.1.1-.1h.1c.1 0 .1 0 .1.1l.5.5.6-.3h.1c.1 0 .1 0 .1.1v.1s0 .1-.1.1l-.6.3zm1.7 2.8c-.3.1-.5.2-.8.1-.3 0-.6-.2-.8-.4l-.2-.2c-.2-.2-.2-.4-.2-.6 0-.2.2-.4.4-.5l2.5-1.1c.2-.1.5-.1.8-.1.3 0 .6.2.8.4l.2.2c.2.2.3.4.2.6 0 .2-.2.4-.5.5l-2.4 1.1zm-.2-.2l2.5-1.1c.2-.1.3-.2.3-.3 0-.1 0-.3-.1-.4l-.2-.2c-.1-.1-.3-.2-.5-.2s-.4 0-.6.1l-2.5 1.1c-.2.1-.3.2-.3.3 0 .1 0 .3.1.4l.2.2c.1.1.3.2.5.2s.4 0 .6-.1zm-.7 1.4h-.2v-.1s0-.1.1-.1h.1l.7-.2h.1s.1 0 .1.1v.1s0 .1-.1.1h-.1l-.7.1zm2.5 1.8l-1.3-1.3v-.1s0-.1.1-.1h4.2c.1 0 .2 0 .3-.1.2-.1.3-.2.3-.4v-.3c0-.1-.1-.2-.2-.3-.1-.1-.2-.2-.4-.2-.2-.1-.4-.1-.6 0h-.2v-.1s0-.1.1-.1h.1c.3-.1.6 0 .9 0l.6.3c.2.2.3.5.3.7 0 .3-.2.5-.5.6-.1 0-.2.1-.3.1h-3.8l1.1 1.1v.1s0 .1-.1.1h-.6zm43.627-165.547l.89.455-18.109 35.442-.89-.455z"/><path fill="#5AB6C0" d="M140 180.7h15.9v1H140zM21.374 227.567l.863.505-3.836 6.56-.864-.504z"/><path fill="#5AB6C0" d="M14.565 227.585l3.84 6.559-.863.505-3.84-6.559z"/><path fill="#5AB6C0" d="M17.5 227.8h1v15.1h-1zm-7 15.1h1v13.2h-1z"/><path fill="#5AB6C0" d="M11 242.4h14v1H11z"/><path fill="#5AB6C0" d="M24.5 242.9h1v13.2h-1z"/><path fill="#5AB6C0" d="M11 255.6h14v1H11zm7.4-6.6l2.4-2.6c.1-.1.2-.1.2-.1.1 0 .1 0 .1.1v.2s0 .1-.1.1l-2.4 2.7.3 3.2v.1c0 .1-.1.1-.1.2-.1 0-.1.1-.2.1h-.1v-.1l-.3-3.1-1.1 3c0 .1-.1.1-.1.2-.1 0-.1.1-.2.1 0 0-.1 0-.1-.1v-.2l1.1-3-2.5 3.1-.1.1h-.1c-.1 0-.1 0-.1-.1v-.2l.1-.1 2.6-3.2-.5-2.7v-.1l.1-.1c.1-.1.1-.1.2-.1s.1 0 .1.1l.5 2.6.9-2.5c0-.1.1-.1.1-.2.1 0 .1-.1.2-.1s.1 0 .1.1v.2l-1 2.4z"/></svg>