<svg xmlns="http://www.w3.org/2000/svg" viewBox="0 0 717.5 370.3"><path fill="none" stroke="#97CCCE" stroke-miterlimit="10" d="M577.5 262.2l.3-1.6-.3 1.6zm.3-1.6v-2.5 2.5zm0-2.5l.3-3.8-.3 3.8zm.3-3.8v-6.5 6.5zm0-6.5l-.3-5.2.3 5.2zm-.3-5.2l-.3-1.9.3 1.9zm-.3-1.9v-.5.5zm-20.9-41.1h-20.1 20.1zm4 75.7h.8-.8zm0-48.2h1.4-1.4zm-435.9 70.8H85.5h39.2zm4.4-16.9v12.5V281zm-43.6 16.9l-4.4-4.4 4.4 4.4zm-4.4-4.4V281v12.5zm48 0l-4.4 4.4 4.4-4.4zm.2-12.5H81.1h48.2zM89 169.1l-7.9 8.2 7.9-8.2zm32.2 0l8.2 8.2-8.2-8.2zm0 0H89h32.2zm8.1 111.9V177.2 281zm-48.2 0V177.2 281zm56.1-110.3L68 144.3l69.2 26.4zm5.7-34l2.5 5.2-2.5-5.2zm2.5 5.1l1.4 5.4-1.4-5.4zm1.4 5.5v5.7-5.7zm0 5.7l-1.1 5.4 1.1-5.4zm-1.1 5.4l-2.2 5.4 2.2-5.4zm-2.2 5.5l-.5.8.5-.8zm-4.6 4.9l-1.6 1.9 1.6-1.9zm0-36.2l4.1 4.1-4.1-4.1zm4 32.1l-4.1 4.1 4.1-4.1zm144.9 98.6h13.1-13.1zm64.5-31.3l.5 1.6-.5-1.6zm.6 1.6l1.4 1.1-1.4-1.1zm1.3 1.1l1.1.3-1.1-.3zm218.4.5l-36.2-.3 36.2.3zM333 272l3.3 3.3-3.3-3.3zm3.3-12v-17.7V260zm-3.3-29.7l3.3-3.3-3.3 3.3zm244.5 9.8v22.1-22.1zm-225.2 30.3v4.9-4.9zM333 272v-8.7 8.7zm3.3-12l-.5 1.6.5-1.6zm-.6 1.6l-1.6 1.4 1.6-1.4zm-1.6 1.4l-1.1.3 1.1-.3zm-1.1-24v-8.7 8.7zm-32.1-8.7l-3.3-3.3 3.3 3.3zm0 8.7v-8.7 8.7zm0 33v-8.7 8.7zm276.6-9.8l-4.9 4.9 4.9-4.9zM355.3 235h181.1-181.1zm0 32.1h181.1-181.1zm181.1 0h36.2-36.2zm-238.8 8.2h-9.8 9.8zm3.3-3.3l-3.3 3.3 3.3-3.3zm-13.1-44.9v12-12zm64.5 0h-16.1 16.1zm0 43.3l.5-1.6-.5 1.6zm.6-1.7l1.4-1.4-1.4 1.4zm1.3-1.3l1.1-.3-1.1.3zm-56.6-40.3h-9.8 9.8zm54.7 0v4.9-4.9zM300.9 239h-13.1 13.1zm51.4 36.3h-16.1 16.1zm-64.5-12v12-12zm284.8-28.1l4.9 4.9-4.9-4.9zM333 239l1.6.5-1.6-.5zm1.6.6l1.4 1.4-1.4-1.4zm1.4 1.3l.3 1.4-.3-1.4zm200.4-41.3h-20.1 20.1zm20.2 0v9.8-9.8zm-427.3 38.6l.8.8-.8-.8zm9.6.8h4.1-4.1zm8.1-88.5l-.8 5.7.8-5.7zm-.8 5.8l-1.6 5.4 1.6-5.4zm-1.6 5.4l-1.6 3 1.6-3zm93.9 77.3h7.4-7.4zm346.1-12.8V239v-12.8zm-441.7-89.5l2.5 5.2-2.5-5.2zm2.5 5.1l1.4 5.4-1.4-5.4zm1.4 5.5l.3 3.3-.3-3.3zm-7.9-14.7l4.1 4.1-4.1-4.1zm54.7 52.5v6.5-6.5zm363 24.3V223v-13.6zm-413.7-44.7l-4.1 4.1 4.1-4.1zm103 61.5V239v-12.8zM73 239v-39.5V239zm443.3-39.4V223v-23.4zm-270.4 26.6h20.7-20.7zm20.7 0h16.6-16.6zM73 101.5h32.1H73zM73 239h7.4H73zm69.9 0h45.7-45.7zm441.7 0H641h-56.4zm-445.7-70.2l-4.4 4.4 4.4-4.4zm-4.4 4.3l-5.2 3.5 5.2-3.5zm-5.2 3.6l-.3.3.3-.3zM641 199.6v4.9-4.9zm-451.5 38.6l-.8.8.8-.8zm93.7-12H513 283.2zm273.4-26.6H641h-84.4zM130.2 239h8.7-8.7zm429.6-12.8h24.8-24.8zm-3.2-3.2l3.3 3.3-3.3-3.3zm-40.3 0l-3.3 3.3 3.3-3.3zm-282.4-31.6v.3-.3zm-128.8-89.9v16.9-16.9zm-24 136.7l-.8.8.8-.8zM641 223.8V239v-15.2zM73 101.5V81.9v19.6zm164.7 136.7l.8.8-.8-.8zM73 199.6h8.2H73zm477 17.7V211v6.3zm-13.6-18.6h-49.6 49.6zm88.5-4v4.1-4.1zm0 4h-88.5 88.5zM153.8 239v24.2V239zm6.8 24.3h-6.5 6.5zm-6.5 0h-.3.3zm112.5 0h16.6-16.6zm16.6-24.3h17.7-17.7zm-122.6 24.3h21-21zm122.6 0h17.7-17.7zm-122.6 0V239v24.3zm106-24.3h16.6-16.6zm34.3 0v24.2V239zm-63.2 0h28.9-28.9zm8.2 24.3h20.7-20.7zM160.6 239h28.9-28.9zm144.9 28.1h22.6-22.6zm0 8.2h22.6-22.6zm22.6-40.3h-22.6 22.6zm0-7.9h-22.6 22.6zm-27.2 0h4.6-4.6zm27.2 0h4.9-4.9zm0 7.9v-7.9 7.9zm0 32.1v8.2-8.2zm-27.2 8.2h4.6-4.6zm4.6-8.2v8.2-8.2zm11.4-6.3l11.2 6.3-11.2-6.3zm11.2 14.5h4.9-4.9zm-27.2 0v-48.2 48.2zm32.1 0v-48.2 48.2zm-16.1-33.8l-11.4-6.5 11.4 6.5zm0 0l11.2-6.5-11.2 6.5zm0 19.3l-11.4 6.3 11.4-6.3zM305.5 235v-7.9 7.9zm206.7 40.3v-4.9 4.9zm24.2-40.3h-21 21zm15.2-26.5l-1.1.5 1.1-.5zm-1 .6l-.5 1.1.5-1.1zm10 22.9v-4.9 4.9zm-44.3-10.7v2.5-2.5zm44.3 54v-4.9 4.9zm-5.7-55.6l1.1.5-1.1-.5zm1.1.6l.5 1.1-.5-1.1zm-33.2-10.1v7.9-7.9zm-3.3-9l-3.3 3.3 3.3-3.3zm37.9 65.9h-21 21zm-36.2-58.6h-3.3 3.3zm0 11.2l1.1-.5-1.1.5zm1-.5l.5-1.1-.5 1.1zm14.2-18h-16.9 16.9zm16.9 0h-16.9 16.9zm-37.9 65.9l-3.3 3.3 3.3-3.3zm42 0l3.3 3.3-3.3-3.3zm-21 8.2h24.2-24.2zm-24.2-48.2h.8-.8zm45.2 8.1l3.3-3.3-3.3 3.3zm2.4-8.1l-1.9-.5 1.9.5zm-1.9-.6l-1.1-1.4 1.1 1.4zm-1.1-1.3l-.3-1.4.3 1.4zm-1.9-16.7h-3.3 3.3zM512.2 232v-4.9 4.9zm44.4-10.7v2.5-2.5zm-5-1.6l-1.1-.5 1.1.5zm-1-.5l-.5-1.1.5 1.1zM536.4 235l21 .3-21-.3zm-23.4-7.9l1.9-.5-1.9.5zm1.9-.6l1.1-1.4-1.1 1.4zm1.1-1.3l.3-1.4-.3 1.4zm-3.8 50.1h24.2-24.2zm5.7-66.8l-1.1-.5 1.1.5zm-1.1-.5l-.5-1.1.5 1.1zm19.6 59.1h-21 21zm-18.5-47.4l-1.1.5 1.1-.5zm-1.1.6l-.5 1.1.5-1.1zm1.1-.6h3.3-3.3zm-2.5 15.3l-3.3-3 3.3 3zm37.9-33.8l3.3 3.3-3.3-3.3zm6.5 25.9h.8-.8zm-43.5-22.6v2.5-2.5zm38.6 4l1.1-.5-1.1.5zm1.1-.5l.5-1.1-.5 1.1zm-4.4 11.7h3.3-3.3zm5-15.2v2.5-2.5zm-6.6 5.7v7.9-7.9zm-28.8-1.7l1.1.5-1.1-.5zm1 .6l.5 1.1-.5-1.1zm62.4 29.9h-8.2 8.2zm-24.8-12.8h-2.2 2.2zm81.2-21.7v14.4-14.4zm0 14.4v4.9-4.9zm-79.5 56.4l.5-8.2-.5 8.2zm-.9-43.3l.3.8-.3-.8zm.3.8l.3 2.2-.3-2.2zm.3 2.2v.3-.3zm0 32.1l-.3 2.2.3-2.2zm-.3 2.2l-.3 1.1.3-1.1zm1.1-34.1V227v8.2zM80.6 158.4l-7.4-7.4 7.4 7.4zm-7.4-7.3l-5.2-6.5 5.2 6.5zm-5.1-6.5v-.3.3zm0-.3l1.9-5.4-1.9 5.4zm1.9-5.5l3-4.9-3 4.9zm3-4.9l4.1-4.6-4.1 4.6zm4.1-4.6l4.9-3.8-4.9 3.8zm4.9-3.8l5.7-3-5.7 3zm5.7-3L94 120l-6.3 2.5zm6.2-2.4l6.8-1.1-6.8 1.1zm6.8-1.1l5.7-.5-5.7.5zm5.8-.6l6.8.5-6.8-.5zm6.8.6l6.5 1.4-6.5-1.4zm6.5 1.3l6.3 2.5-6.3-2.5zm6.3 2.5l5.7 3.3-5.7-3.3zm5.7 3.2l4.6 3.8-4.6-3.8zm4.6 3.9l2.5 2.7-2.5-2.7zm199.9 145.4H333h3.3zm-35.4 0h-3.3 3.3zm-3.3-48.2h3.3-3.3zm35.4 0h3.3-3.3zm182.2-.9H513h2.2zM80.6 158.4l1.6 6-1.6-6zm1.6 6l2.5 5.2-2.5-5.2zm2.5 5.2l1.6 2.5-1.6-2.5zm45.5 69.4h-.8.8zm-49.1 0h-.8.8zM73 101.5v32.4-32.4zm32.1 16.9h1.4-1.4zm1.4 0l6.8.5-6.8-.5zm6.8.6l6.5 1.4-6.5-1.4zm6.5 1.3l6.3 2.5-6.3-2.5zm6.3 2.5l5.7 3.3-5.7-3.3z"/><path fill="none" stroke="#97CCCE" stroke-miterlimit="10" d="M131.8 126l4.6 3.8-4.6-3.8zm4.6 3.9l2.5 2.7-2.5-2.7zm375.8 140.5v-3.3 3.3zm0-35.4v-3 3zM73 81.9l12.3-.5-12.3.5zm12.2-.5l11.4.3-11.4-.3zm11.5.3l10.9 1.1-10.9-1.1zm10.9 1l10.1 1.9-10.1-1.9zm10 2l9.3 2.7-9.3-2.7zm9.3 2.7l8.4 3.5-8.4-3.5zm8.4 3.5l7.9 4.4-7.9-4.4zm7.9 4.4l7.1 5.2-7.1-5.2zm7.1 5.1l3.5 2.7-3.5-2.7zm3.5 2.8l3.3 4.1-3.3-4.1zm3.3 4.1l3 4.9-3-4.9zm3 4.9l2.7 6.3-2.7-6.3zm2.7 6.2l2.2 7.9-2.2-7.9zm2.2 7.9l2.5 10.9-2.5-10.9zm2.5 10.9l3 15.5-3-15.5zm3 15.5l3.3 10.9-3.3-10.9zm3.2 10.9l3 6.8-3-6.8zm3 6.8l3.3 4.9-3.3-4.9zm3.3 4.9l1.6 1.9-1.6-1.9zm1.6 1.9l4.6 4.1-4.6-4.1zm4.6 4.1l5.7 3.3-5.7-3.3zm5.8 3.3l6.5 2.5-6.5-2.5zm6.5 2.4l7.6 2.2-7.6-2.2zm7.6 2.2l9 1.1-9-1.1zm9 1.1l10.9.8-10.9-.8zm10.9.8h13.3H226zm13.3 0l18.8-.5-18.8.5zm18.8-.5H281h-22.9zm22.9 0l13.1.8-13.1-.8zm13.1.8l2.5.3-2.5-.3zm2.4.3l12 1.6-12-1.6zm12 1.6l17.2 3.3-17.2-3.3zm17.2 3.3l26.7 5.4-26.7-5.4zm26.6 5.4l31.3 6-31.3-6zm31.3 6l20.4 2.5-20.4-2.5zm20.5 2.5l16.6 1.1-16.6-1.1zm16.6 1l10.6-.3-10.6.3zm10.6-.2l10.9-.8-10.9.8zm10.9-.8l11.7-2.2-11.7 2.2zm11.7-2.2l13.9-3.5-13.9 3.5zm13.9-3.6l17.4-5.2-17.4 5.2zm17.4-5.1l24-7.6-24 7.6zm24-7.7l18.5-4.6-18.5 4.6zm18.5-4.6l13.1-1.9-13.1 1.9zm13.1-1.9l11.7-.8-11.7.8zm11.7-.8h.8-.8zm.8 0l6.3.3-6.3-.3zm6.2.3l10.1.5-10.1-.5zm10.1.5l16.6 1.6-16.6-1.6zm16.6 1.6l17.4 2.7-17.4-2.7zm17.5 2.8l17.2 3.8-17.2-3.8zm17.1 3.8l4.1 1.1-4.1-1.1zm-136.4 6h31.9-31.9zM213.7 305.5V275v30.5zm0-35.1v-5.7 5.7zm0-10.4v-30.5V260zm0-35.4v-5.4 5.4zm0-10.3v-30.5 30.5zm322.7-19.4v35.7-35.7zm0 40.6v5.7-5.7zm0 10.6v35.7-35.7zm47.4 4.9H535h48.8zm-53.4 0h-5.2 5.2zm-10.1 0h-48.5 48.5zm-53.3 0h-5.2 5.2zm-10.1 0h-48.5 48.5zm-53.4 0h-5.2 5.2zm-9.8 0H345h48.7zm-53.6 0h-5.2 5.2zm-9.8 0h-48.7 48.7zm-13.4-30.5v61.3-61.3zm-211.8 83.9v-37.3 37.3zm0-42.2V257v5.2zm0-10.1v-37 37zm0-41.9v-5.4 5.4zm0-10.4v-37 37zm19.6 98.1V172.6v125.3zm-39.2 0V172.6v125.3zm43.8-120.7H81.1h48.2zm108.4 42.5v-28.6 28.6zm-48.2 0v-36.5 36.5zm56.4 43.6V239v24.3zm-64.3 0V239v24.3zm7.9-24.3h48.2-48.2zm-55-69.4l4.4-4.4-4.4 4.4zm4.4-4.3l4.1-3.8-4.1 3.8zm4-3.9l2.7-2.7-2.7 2.7zm0-4.6l3.8-3.8-3.8 3.8zm-4 4.1l4.1-4.1-4.1 4.1zm-7.7 7.6l7.6-7.6-7.6 7.6zm-3.2-1.3l10.9-10.9-10.9 10.9zm10.9-10.9l4.1-4.1-4.1 4.1zm4-4.1l3.8-3.8-3.8 3.8zm0-4.6l3.3-3-3.3 3zm-4 4l4.1-4.1-4.1 4.1zm-14.2 14.5l14.2-14.4-14.2 14.4zm-3.3-1.4l17.4-17.4-17.4 17.4zm17.5-17.4l4.1-4.1-4.1 4.1zm4-4.1l2.2-2.2-2.2 2.2zm0-4.6l.8-.8-.8.8zm-4 4.1l4.1-4.1-4.1 4.1zm-20.7 20.6l20.7-20.7-20.7 20.7zm-3.3-1l24-24.2-24 24.2zm24-24.3l3-2.7-3 2.7zm0-4.6l.5-.3-.5.3zm-27.3 27.5l27.2-27.5-27.2 27.5zm-3.2-1.4l28.9-28.9-28.9 28.9z"/><path fill="none" stroke="#97CCCE" stroke-miterlimit="10" d="M104.8 158.4l30-30-30 30zm-3.2-1.3l30.8-30.5-30.8 30.5zm-3.3-1.1l31.3-31.3L98.3 156zm-3.3-1.4l31.6-31.6L95 154.6zm-3.2-1.3l31.9-31.6-31.9 31.6zm-3.3-1.1l31.6-31.6-31.6 31.6zm-3.3-1.4l31.3-31.3-31.3 31.3zm-3.2-1.1l30.8-30.8L82 149.7zm-3.3-1.3l29.7-30-29.7 30zm-3.3-1.4l28.3-28.6L75.4 147zm-3.2-1.1l26.7-27-26.7 27zm-3.3-1.3l24-24.2-24 24.2zm1.1-5.8l15.2-15.2L70 138.8zm230.3 124.5l.5-.5-.5.5zm-6.8 0l7.4-7.4-7.4 7.4zm-6.8 0l14.2-14.2-14.2 14.2zm-3.5-3.3l17.7-17.7-17.7 17.7zm-3.3 3.3l3.3-3.3-3.3 3.3zm-6.8 0l10.1-10.3-10.1 10.3zm10.1-10.4l13.9-13.9-13.9 13.9zm0-6.8l7.1-7.1-7.1 7.1zM266.6 263l16.6-16.9-16.6 16.9zm-.3.3l.3-.3-.3.3zm-6.8 0l7.1-7.1-7.1 7.1zm7.1-7.1l16.6-16.9-16.6 16.9zm16.6-16.9l.3-.3-.3.3zm-16.6 10.1l10.1-10.3-10.1 10.3zm-13.9 13.9l13.9-13.9-13.9 13.9zm-6.8-.3l20.7-20.4-20.7 20.4zm20.7-20.4l3.3-3.5-3.3 3.5zm-20.7 13.6L263 239l-17.1 17.2zm0-6.8l10.3-10.3-10.3 10.3zm0-6.8l3.5-3.5-3.5 3.5zm-68.4 20.7l4.1-4.1-4.1 4.1zm-6.8 0l10.9-10.9-10.9 10.9zm-6.8 0l17.7-17.7-17.7 17.7zm-3.3-3.8l20.4-20.4-20.4 20.4zm0-6.8l13.6-13.6-13.6 13.6zm0-6.9l6.8-6.8-6.8 6.8zm170.8 29.5l1.6-1.4-1.6 1.4zm-2.2 0l3.8-3.8-3.8 3.8zm-1.1-1.1l4.9-4.9-4.9 4.9zm0-2.5l4.9-4.6-4.9 4.6zm0-2.2l4.9-4.9-4.9 4.9zm0-2.1l4.9-4.9-4.9 4.9zm-1.4-1.1l6.3-6-6.3 6zm-1.3-.8l7.6-7.6-7.6 7.6zm-1.7-.9l9.3-9-9.3 9zm-1.3-.8l10.6-10.6-10.6 10.6zm-1.4-.8l12-12-12 12zm-1.6-.8l13.6-13.3-13.6 13.3zm-15.3 13.1l1.4-1.4-1.4 1.4zm13.9-13.9l15-15-15 15zm-2.1 0l17.2-17.2-17.2 17.2zM302 275.3l3.5-3.8-3.5 3.8zm-1.1-1.1l4.6-4.9-4.6 4.9zm9.5-9.8L333 242l-22.6 22.4zm-9.5 7.3l32.1-32.1-32.1 32.1zm0-2.2l32.1-32.1-32.1 32.1zm0-2.1l32.1-32.1-32.1 32.1zm0-2.5l32.1-32.1-32.1 32.1zm0-2.2l32.1-32.1-32.1 32.1zm0-2.1l22.6-22.9-22.6 22.9zm27.2-27.5l4.9-4.6-4.9 4.6zm0-2.2l3.8-3.8-3.8 3.8zm-27.2 27.2l17.4-17.4-17.4 17.4zm0-2.2l15-15-15 15zm27.2-27.2l1.6-1.6-1.6 1.6zm-27.2 25l13.3-13.6-13.3 13.6zm0-2.4l12-12-12 12zm0-2.2l10.6-10.6-10.6 10.6zm0-2.2l9.3-9.3-9.3 9.3zm0-2.4l7.6-7.6-7.6 7.6zm0-2.2l6.3-6.3-6.3 6.3zm0-2.2l4.9-4.9-4.9 4.9zm0-2.4l4.6-4.9-4.6 4.9zm0-2.2l4.6-4.9-4.6 4.9zm0-2.4l4.6-4.6-4.6 4.6zm0-2.2l3.8-3.8-3.8 3.8zm0-2.2l1.6-1.6-1.6 1.6zm211.3 44.9l1.6 1.6-1.6-1.6zm.2-3.5l5.2 5.2-5.2-5.2zm1.9-1.7l6.8 6.8-6.8-6.8zm2.5-1.3l8.2 8.2-8.2-8.2zm3.5 0l8.2 8.2-8.2-8.2zm3.8 0l7.9 8.2-7.9-8.2zm3.6 0l8.2 8.2-8.2-8.2zm8.7 5.2l3 3-3-3zm-5.2-5.2l5.2 5.2-5.2-5.2zm3.8 0l1.4 1.6-1.4-1.6zm1.4 1.6l6.5 6.5-6.5-6.5zm2.2-1.6l8.2 8.2-8.2-8.2zm3.5 0l8.2 8.2-8.2-8.2zm3.8 0l7.9 8.2-7.9-8.2zm-33.7-37l5.2 4.9-5.2-4.9zm37.3 37l8.2 8.2-8.2-8.2zm3.5 0l7.6 7.6-7.6-7.6zm-40-40l7.9 7.9-7.9-7.9zm2.4-1.1l9.3 9-9.3-9zm41.4 41.1l3.8 3.8-3.8-3.8zM516.3 223l12 12-12-12zm.8-3l15 15-15-15zm3.2-.3l15.2 15.2-15.2-15.2zm2.5-1.1l13.6 13.6-13.6-13.6zm13.6 13.6l2.7 2.7-2.7-2.7zm0-3.5l6.5 6.3-6.5-6.3zm-13.6-13.6l13.6 13.6-13.6-13.6zm-6.5-10.1l3.8 3.5-3.8-3.5zm6.5 6.3l13.6 13.6-13.6-13.6zm13.6 13.6l10.1 10.1-10.1-10.1zm0-3.6L550 235l-13.6-13.7zm-18.5-18.5l18.5 18.5-18.5-18.5zm2.2-1.6l16.3 16.6-16.3-16.6zm16.3 16.6l17.4 17.4-17.4-17.4zm0-3.8l21 21-21-21zm-12.8-12.8l12.8 12.8-12.8-12.8zm3.5 0l9.3 9.3-9.3-9.3zm9.3 9.3l22.9 22.9-22.9-22.9zm0-3.6l24.2 24-24.2-24zm-5.4-5.7l5.4 5.7-5.4-5.7zm3.5 0l1.9 1.9-1.9-1.9zm1.9 1.9l13.6 13.6-13.6-13.6zm16.6 16.6l3.5 3.5-3.5-3.5zm7.4 7.4l.3.3-.3-.3zm-22.1-25.9l11.7 12-11.7-12zm3.5 0l8.4 8.4-8.4-8.4zm3.6 0l7.4 7.4-7.4-7.4zm3.8 0l6.8 6.8-6.8-6.8zm3.5 0l3.8 3.8-3.8-3.8zm16.6 65.9l8.2-8.2-8.2 8.2zm-4.6 0l12.8-12.8-12.8 12.8zm-4.6 0l17.4-17.2-17.4 17.2zm-4.6 0l22.1-21.8-22.1 21.8zm-4.4 0l26.4-26.4-26.4 26.4zm-4.6 0l29.1-28.9-29.1 28.9zm-4.7 0l31.3-31.3-31.3 31.3zm-4.3 0l31.9-31.9-31.9 31.9zm-4.6 0l3.5-3.5-3.5 3.5zm3.5-3.6l28.6-28.3-28.6 28.3zm0-4.3l24-24-24 24zm-8.2 7.9l8.2-7.9-8.2 7.9zm-4.6 0l12.8-12.5-12.8 12.5zm12.8-12.5l19.3-19.3-19.3 19.3zm0-4.7l15-15-15 15zm-17.2 17.2l17.2-17.2-17.2 17.2zm-4.6 0l21.8-21.8-21.8 21.8zm21.8-21.8l10.3-10.3-10.3 10.3zm0-4.4l5.7-6-5.7 6zM510 267.1l26.4-26.1-26.4 26.1zm-4.4 0l30.8-30.8-30.8 30.8zm30.8-30.8l1.4-1.4-1.4 1.4zM501 267.1l32.1-32.1-32.1 32.1zm-4.6 0l32.1-32.1-32.1 32.1zm-4.7 0l32.4-32.1-32.4 32.1zm-4.3 0l32.1-32.1-32.1 32.1zm-4.6 0l32.1-32.1-32.1 32.1zm-4.7 0l32.1-32.1-32.1 32.1zm-4.3 0l32.1-32.1-32.1 32.1zm-4.7 0l32.1-32.1-32.1 32.1zm-4.6 0l32.1-32.1-32.1 32.1zm-4.3 0l32.1-32.1-32.1 32.1zm-4.7 0l32.1-32.1-32.1 32.1zm-4.6 0L483 235l-32.1 32.1zm-4.6 0l32.4-32.1-32.4 32.1zm-4.4 0L474 235l-32.1 32.1zm-4.6 0l32.1-32.1-32.1 32.1zm-4.6 0l32.1-32.1-32.1 32.1zm-4.4 0l32.1-32.1-32.1 32.1zm-4.6 0l32.1-32.1-32.1 32.1zm-4.7 0l32.1-32.1-32.1 32.1zm-4.3 0l32.1-32.1-32.1 32.1zm-4.6 0l32.1-32.1-32.1 32.1zm-4.7 0l32.1-32.1-32.1 32.1zm-4.6 0l32.4-32.1-32.4 32.1zm-4.4 0l32.1-32.1-32.1 32.1zm-4.6 0l32.1-32.1-32.1 32.1zm-4.6 0l32.1-32.1-32.1 32.1zm-4.4 0L415 235l-32.2 32.1zm-4.6 0l32.1-32.1-32.1 32.1zm-4.6 0l32.1-32.1-32.1 32.1zm-4.7 0l32.4-32.1-32.4 32.1zm-4.3 0l32.1-32.1-32.1 32.1zm-12.5 8.2l.3-.3-.3.3zm7.9-8.2l32.1-32.1-32.1 32.1zm-4.7 0l32.1-32.1-32.1 32.1zm-7.9 8.2l4.9-4.9-4.9 4.9zm-4.6 0l40.3-40.3-40.3 40.3zm-4.6 0l40.3-40.3-40.3 40.3zm-3.3-1.1l38.9-39.2-38.9 39.2zm-1.9-2.8l36.5-36.5-36.5 36.5zm0-4.3l31.9-32.1-31.9 32.1zm3.3-7.9l24-24.2-24 24.2zm0-4.6l19.6-19.6-19.6 19.6zm0-4.4l16.3-16.6-16.3 16.6zm0-4.6l16.1-16.1-16.1 16.1zm-.3-4.4l14.2-14.2-14.2 14.2zm-38.7 34.1l3.5-3.5-3.5 3.5zm36.2-36.3l12-12-12 12zm-.5-3.8l8.2-8.2-8.2 8.2zm-40.3 40.1l8.2-7.9-8.2 7.9zm-4.4 0l12-12-12 12zm44.7-44.7l3.5-3.5-3.5 3.5zm-45.2 40.6l7.9-7.9-7.9 7.9zm0-4.7l3.5-3.3-3.5 3.3zm9.3-27.5l3.8-3.5-3.8 3.5zm-4.4 0l8.2-8.2-8.2 8.2zm-4.6 0l10.9-10.6-10.9 10.6zm-.3-4.3l7.9-7.6-7.9 7.6zm0-4.6l3.3-3-3.3 3zm350.4 8.9l2.7-2.7-2.7 2.7zm-6.8 0l9.5-9.5-9.5 9.5zm-6.8 0l15.8-15.8-15.8 15.8zm15.8-15.8l.5-.5-.5.5zm-2.4-4.3l3-3-3 3zm-1.1 1.1l1.1-1.1-1.1 1.1zm-19.1 19l19.1-19.1-19.1 19.1zm-6.8 0l20.1-20.1L611 239zm20.2-20.1l9.5-9.5-9.5 9.5zm9.5-9.5l.3-.3-.3.3zm-6.8 0l7.1-7.1-7.1 7.1zm-9.6 9.5l9.5-9.5-9.5 9.5zM604.2 239l20.1-20.1-20.1 20.1zm-6.8 0l20.1-20.1-20.1 20.1zm20.1-20.1l9.5-9.5-9.5 9.5zm9.6-9.5l9.5-9.8-9.5 9.8zm-6.8 0l9.5-9.8-9.5 9.8zm-9.6 9.5l9.5-9.5-9.5 9.5zM590.6 239l20.1-20.1-20.1 20.1zm-6-.8l19.1-19.3-19.1 19.3zm19.1-19.3l9.8-9.5-9.8 9.5zm9.8-9.5l9.5-9.8-9.5 9.8zm-6.8 0l9.5-9.8-9.5 9.8zm-9.9 9.5l9.8-9.5-9.8 9.5zm-12.2 12.5l12.3-12.5-12.3 12.5zm-1.6-5.2l7.1-7.4-7.1 7.4zm7-7.3l9.8-9.5-9.8 9.5zm9.8-9.5l9.5-9.8-9.5 9.8zm-6.8 0l9.5-9.8-9.5 9.8zm-9.8 9.5l9.8-9.5-9.8 9.5zm-7 7.3l7.1-7.4-7.1 7.4zm-6.9 0l7.1-7.4-7.1 7.4zm7.1-7.3l9.8-9.5-9.8 9.5zm9.8-9.5l9.5-9.8-9.5 9.8zm-6.8 0l9.5-9.8-9.5 9.8zm-9.8 9.5l9.8-9.5-9.8 9.5zm-7.1 7.3l7.1-7.4-7.1 7.4zm-4.9-2.1l5.2-5.2-5.2 5.2zm5.2-5.2l9.8-9.5-9.8 9.5zm9.8-9.5l9.5-9.8-9.5 9.8zm-6.8 0l9.5-9.8-9.5 9.8zm-9.2 9.2l9.3-9.3-9.3 9.3zm0-7.1l2.2-2.2-2.2 2.2zm2.1-2.1l9.8-9.8-9.8 9.8zm-2.1-4.7l5.2-5.2-5.2 5.2zm-48.8 21.5l8.4-8.4-8.4 8.4zm-6.8 0l15.2-15.2-15.2 15.2zm-6.8 0l22.1-22.1-22.1 22.1zm-6.8 0l26.4-26.7-26.4 26.7zm-6.8 0l26.4-26.7-26.4 26.7zm-6.8 0l26.4-26.7-26.4 26.7zm-6.8 0l26.4-26.7-26.4 26.7zm-6.8 0l26.4-26.7-26.4 26.7zm-6.8 0l24.2-24.5-24.2 24.5zm-6.9 0l21.5-21.5-21.5 21.5zm-6.8 0l19.1-19.1-19.1 19.1zm-6.8 0l17.2-17.2-17.2 17.2zm-6.8 0l15.8-15.8-15.8 15.8zm-7.1 0l15.2-15-15.2 15zm-6.8 0l15-14.7-15 14.7zm-6.8 0l15-14.7-15 14.7zm-6.8 0l15-15-15 15zm-6.8 0l15.5-15.5-15.5 15.5zm-6.8 0l16.1-16.1-16.1 16.1zm-6.8 0l16.6-16.6-16.6 16.6zm-6.8 0l17.4-17.4-17.4 17.4zm-6.8 0l18.2-18.2-18.2 18.2zm-6.8 0l19.3-19.3-19.3 19.3zm-6.8 0l20.4-20.4-20.4 20.4zm-6.8 0l21.5-21.5-21.5 21.5zm-6.8 0l22.6-22.6-22.6 22.6zm-6.8 0l23.7-23.7-23.7 23.7zm-6.9 0l24.8-25.1-24.8 25.1zm-6.8 0l25.9-26.1-25.9 26.1zm-6.8 0l27.2-27.2-27.2 27.2zm-6.8 0l28.3-28.3-28.3 28.3zm-7.1 0l29.7-29.7-29.7 29.7zm-6.8 0l30.8-30.8-30.8 30.8zm-6.8 0l31.9-31.9-31.9 31.9zm-6.8 0l32.9-32.7-32.9 32.7zm-6.8 0l33.8-33.8-33.8 33.8zm-6.8 0l34.6-34.6-34.6 34.6zM242.6 239l3.3-3.3-3.3 3.3zm12.8-12.8l35.4-35.4-35.4 35.4zm-6.8 0l35.7-35.7-35.7 35.7zm-10.9 10.9l8.2-8.2-8.2 8.2zm0-6.8l40-40-40 40zm0-6.8l33.2-33.2-33.2 33.2zm0-7.1l26.1-25.9-26.1 25.9zm0-6.8l19.1-18.8-19.1 18.8zm0-6.8l12-12-12 12zm0-6.8l5.2-4.9-5.2 4.9zm-49.8 43l1.6-1.6-1.6 1.6zm46.8-46.5l1.1-1.1-1.1 1.1zM181.1 239l8.4-8.4-8.4 8.4zm-6.8 0l15.2-15.2-15.2 15.2zm-6.8 0l22.1-22.1-22.1 22.1zm-6.9 0l28.9-28.9-28.9 28.9zm-6.8 0l35.7-35.7-35.7 35.7zm-6.8 0l42.5-42.5L147 239zm-6.8 0l53.4-53.4-53.4 53.4zm-6.8 0l55.8-55.8-55.8 55.8zm-4.1-2.7l55.8-55.8-55.8 55.8zm0-6.8l52.3-52.3-52.3 52.3zm0-6.8l49-49-49 49zm0-6.8l46.6-46.6-46.6 46.6zm0-6.8l44.7-44.7-44.7 44.7zm0-6.8l43-43-43 43zm0-6.8l41.4-41.7-41.4 41.7zM79 239l2.2-2.2L79 239zm50.3-50.3l40.3-40.3-40.3 40.3zm0-6.8l39.2-39.2-39.2 39.2zM73 238.2l8.2-8.2-8.2 8.2zm0-6.8l8.2-8.2-8.2 8.2zm72.7-72.7l21.8-21.8-21.8 21.8zm1.3-8.2l19.1-19.3-19.1 19.3zm-74 74.1l8.2-8.2-8.2 8.2zm0-7.1l8.2-7.9-8.2 7.9zm73.2-72.9l18.8-18.8-18.8 18.8zm-1.9-5.2l19.1-19.1-19.1 19.1zM73 210.7l8.2-7.9-8.2 7.9zm0-6.8l4.4-4.4-4.4 4.4zm68.9-68.6l19.9-19.9-19.9 19.9zm-3.6-3.5l21.2-21-21.2 21zm-3.5-3.3l22.1-21.8-22.1 21.8zm-3.8-3l22.6-22.6-22.6 22.6zm-4.4-2.5l23.1-23.1-23.1 23.1zm-4.9-1.9l24.2-24.2-24.2 24.2zm-5.2-1.6l25.3-25.3-25.3 25.3zm-6-.8l27-27-27 27zm-5.4-1.4l27.8-27.8-27.8 27.8zm0-6.8L128 87.7l-22.9 22.8zm0-6.8L122.8 86l-17.7 17.7zm-4.6-2.2l16.9-16.9-16.9 16.9zm-6.8 0l18-18.2-18 18.2zm-7.1 0l19.3-19.1-19.3 19.1zm-6.8 0l19.9-19.6-19.9 19.6zm-6.8 0l20.1-20.1L73 101.5zm0-6.8l13.6-13.3L73 94.7zm0-6.8l6.5-6.5-6.5 6.5zm415.8 110.3l.5.5-.5-.5zm3.5-1.1l1.6 1.6-1.6-1.6zm3.3-1.1l3 2.7-3-2.7zm3.5-1.1l3.8 3.8-3.8-3.8zm3.5-1.1l4.9 4.9-4.9-4.9zm3.6-1l6 6-6-6zm3.5-.9l7.1 6.8-7.1-6.8zm3.6-1.1l7.9 7.9-7.9-7.9zm3.5-1l9 9-9-9zm3.5-.9l10.1 9.8-10.1-9.8zm3.8-.8l10.6 10.6-10.6-10.6zm3.9-.8l11.4 11.4-11.4-11.4zm3.8-.8l12.3 12.3-12.3-12.3zm3.8-.6l12.8 12.8-12.8-12.8zm4.1-.5l13.3 13.3-13.3-13.3zm4.1-.3l13.9 13.6-13.9-13.6zm4.3-.2l14.2 13.9-14.2-13.9zm4.4-.3l14.2 14.2-14.2-14.2zm4.6 0l14.2 14.2-14.2-14.2zm4.6.3l14.2 13.9-14.2-13.9zm4.9.2l13.6 13.6-13.6-13.6zm4.9.3l13.3 13.3-13.3-13.3zm4.9.5l13.1 12.8-13.1-12.8zm5.2.6l12.3 12.3-12.3-12.3zm5.2.5l11.7 11.7-11.7-11.7zm5.1.9l11.2 10.9-11.2-10.9zm5.5.8l10.3 10.1-10.3-10.1zm5.7 1.1l9 9-9-9zm5.5 1l8.2 7.9-8.2-7.9zm5.9 1.4l6.8 6.5-6.8-6.5zm6 1.4l4.4 4.4-4.4-4.4zM62.1 150.5h45.5-45.5zm91.2 0h-45.7 45.7zm-45.7 38.7v-38.7 38.7zm0-77v38.4-38.4zm441.3 161.4l.3-1.1-.3 1.1zm.3-1.1l-1.1-.5 1.1.5zm-1.1-.5l-.3 1.1.3-1.1zm-.3 1.1l1.1.5-1.1-.5zm1.1.5l.3.5-.3-.5zm.3.6l.8-1.9-.8 1.9zm.8-1.9l-2.2-.8 2.2.8zm-2.2-.9l-.8 1.9.8-1.9zm-.8 1.9l2.2.8-2.2-.8zm2.2.9l.3.8-.3-.8zm.3.8l1.4-3.3-1.4 3.3zm1.3-3.3l-3.3-1.1 3.3 1.1zm-3.2-1.1l-1.4 3.3 1.4-3.3zm-1.4 3.3l3.3 1.1-3.3-1.1zm28.9 59.1l-26.7-60.2 26.7 60.2zm0 0H620h-44.9z"/><text transform="matrix(.9397 0 -.342 .9397 581.538 329.611)" fill="#97CCCE" font-family="'GOSTTypeA'" font-size="35.213">1</text><text transform="matrix(.9397 0 -.342 .9397 591.068 329.611)" fill="#97CCCE" font-family="'GOSTTypeA'" font-size="35.213">6</text><path fill="none" stroke="#97CCCE" stroke-miterlimit="10" d="M326.2 259.5l.8-.5-.8.5zm.8-.6l-.8-1.1.8 1.1zm-.8-1.1l-.8.8.8-.8zm-.8.8l.8.8-.8-.8zm.8.9l-.3.8.3-.8zm-.3.8l1.9-1.4-1.9 1.4zm1.9-1.4l-1.4-1.6 1.4 1.6zm-1.3-1.6l-1.9 1.4 1.9-1.4zm-1.9 1.3l1.4 1.6-1.4-1.6zm1.3 1.7v.8-.8zm0 .8l2.7-1.9-2.7 1.9zm2.7-1.9l-2.2-2.7 2.2 2.7zm-2.1-2.7l-2.7 1.9 2.7-1.9zm-2.8 1.9l2.2 2.7-2.2-2.7zm-12.5 107.5l15-107.3-15 107.3zm0 0h-44.9 44.9z"/><text transform="matrix(.9397 0 -.342 .9397 272.824 362.631)" fill="none" stroke="#97CCCE" stroke-miterlimit="10" font-family="'GOSTTypeA'" font-size="35.213">1</text><text transform="matrix(.9397 0 -.342 .9397 282.354 362.631)" fill="none" stroke="#97CCCE" stroke-miterlimit="10" font-family="'GOSTTypeA'" font-size="35.213">8</text><path fill="none" stroke="#97CCCE" stroke-miterlimit="10" d="M484.1 263.5l.5-.8-.5.8zm.6-.8l-.8-.5.8.5zm-.8-.5l-.9.8.9-.8zm-.9.8l1.1.5-1.1-.5zm1.1.5l.3.8-.3-.8zm.3.9l1.1-1.9-1.1 1.9zm1.1-1.9l-1.9-1.1 1.9 1.1zm-1.9-1.1l-1.4 1.9 1.4-1.9zm-1.4 1.9l2.2 1.1-2.2-1.1zm2.2 1.1v.8-.8zm0 .8l1.9-3-1.9 3zm1.9-3l-3-1.6 3 1.6zm-3-1.6l-1.6 3 1.6-3zm-1.6 2.9l2.7 1.6-2.7-1.6zm18.8 69.5l-16.6-70.2 16.6 70.2zm0 0h43.3-43.3z"/><text transform="matrix(.9397 0 -.342 .9397 506.855 329.61)" fill="#97CCCE" font-family="'GOSTTypeA'" font-size="35.213">1</text><text transform="matrix(.9397 0 -.342 .9397 516.385 329.61)" fill="#97CCCE" font-family="'GOSTTypeA'" font-size="35.213">5</text><path fill="none" stroke="#97CCCE" stroke-miterlimit="10" d="M536.4 235h181.1-181.1zm174.5 0l2.2-16.1-2.2 16.1zm2.2-16.1l-2.2 1.6 2.2-1.6zm-2.2 1.6l-1.9-1.6 1.9 1.6zm-1.9-1.6l1.9 16.1-1.9-16.1zm1.9 16.1v-22.3V235zm0-.3h.3-.3zm0-.3h.3m-.3-.3h.3m-.3-.2h.3m-.3-.3h.3m-.3-.3h.3m-.3-.2h.3m-.3-.3h.5m-.5-.3h.5m-.5-.3h.5m-.5-.2h.5m-.5-.3h.5m-.5-.3h.5m-.5-.3h.5m-.5-.2h.8m-.8-.3h.8m-.8-.3h.8m-.8-.2h.8m-.8-.3h.8m-.8-.3h.8m-.8-.3h.8m-.8-.2h.8m-.8-.3h1.1m-1.1-.3h1.1m-1.1-.2h1.1m-1.1-.3h1.1m-1.1-.3h1.1m-1.1-.3h1.1m-1.1-.2h1.1m-1.1-.3h1.4m-1.4-.3h1.4m-1.4-.3h1.4m-1.4-.2h1.4m-1.4-.3h1.4m-1.4-.3h1.4m-1.4-.2h1.4m-1.4-.3h1.6m-1.6-.3h1.6m-1.6-.3h1.6m-1.6-.2h1.6m-1.6-.3h1.6m-1.6-.3h1.6m-1.6-.3h1.6m-1.6-.2h1.6m-1.6-.3h1.9m-1.9-.3h1.9m-1.9-.2h1.9m-1.9-.3h1.9m-1.9-.3h1.9m-1.9-.3h1.9m-1.9-.2h1.9m-1.9-.3h2.2m-2.2-.3h2.2m-1.6-.2h1.6m-1.3-.3h1.4m-1.2-.3h1.1m-.5-.3h.5m-.3-.2h.3m-2.2 15.5h.3-.3zm0-.3h.3m-.3-.3h.3m-.3-.2h.3m-.3-.3h.3m-.3-.3h.3m-.3-.2h.3m-.3-.3h.5m-.5-.3h.5m-.5-.3h.5m-.5-.2h.5m-.5-.3h.5m-.5-.3h.5m-.5-.3h.5m-.5-.2h.8m-.8-.3h.8m-.8-.3h.8m-.8-.2h.8m-.8-.3h.8m-.8-.3h.8m-.8-.3h.8m-.8-.2h.8m-.8-.3h1.1m-1.1-.3h1.1m-1.1-.2h1.1m-1.1-.3h1.1m-1.1-.3h1.1m-1.1-.3h1.1m-1.1-.2h1.1m-1.1-.3h1.4m-1.4-.3h1.4m-1.4-.3h1.4m-1.4-.2h1.4m-1.4-.3h1.4m-1.4-.3h1.4m-1.4-.2h1.4m-1.4-.3h1.6m-1.6-.3h1.6m-1.6-.3h1.6m-1.6-.2h1.6m-1.6-.3h1.6m-1.6-.3h1.6m-1.6-.3h1.6m-1.6-.2h1.6m-1.6-.3h1.9m-1.9-.3h1.9m-1.9-.2h1.9m-1.9-.3h1.9m-1.9-.3h1.9m-1.9-.3h1.9m-1.9-.2h1.9m-1.9-.3h2.2m-2.2-.3h2.2m-1.6-.2h1.6m-1.3-.3h1.4m-1.2-.3h1.1m-.5-.3h.5m-.3-.2h.3m-2.4 13.3h.3-.3zm0-.3h.3m-.3-.2h.3m-.3-.3h.3m-.3-.3h.3m-.3-.3h.3m-.3-.2h.3m-.3-.3h.3m-.6-.3h.5m-.5-.2h.5m-.5-.3h.5m-.5-.3h.5m-.5-.3h.5m-.5-.2h.5m-.5-.3h.5m-.5-.3h.5m-.5-.2h.5m-.8-.3h.8m-.8-.3h.8m-.8-.3h.8m-.8-.2h.8m-.8-.3h.8m-.8-.3h.8m-.8-.3h.8m-.8-.2h.8m-1.1-.3h1.1m-1.1-.3h1.1m-1.1-.2h1.1m-1.1-.3h1.1m-1.1-.3h1.1m-1.1-.3h1.1m-1.1-.2h1.1m-1.1-.3h1.1m-1.1-.3h1.1m-1.3-.3h1.4m-1.4-.2h1.4m-1.4-.3h1.4m-1.4-.3h1.4m-1.4-.2h1.4m-1.4-.3h1.4m-1.4-.3h1.4m-1.4-.3h1.4m-1.7-.2h1.6m-1.6-.3h1.6m-1.6-.3h1.6m-1.6-.2h1.4m-1.4-.3h1.1m-1.1-.3h.8m-.8-.3h.5m-.5-.2h.3m1.1 13.3h.3-.3zm0-.3h.3m-.3-.2h.3m-.3-.3h.3m-.3-.3h.3m-.3-.3h.3m-.3-.2h.3m-.3-.3h.3m-.6-.3h.5m-.5-.2h.5m-.5-.3h.5m-.5-.3h.5m-.5-.3h.5m-.5-.2h.5m-.5-.3h.5m-.5-.3h.5m-.5-.2h.5m-.8-.3h.8m-.8-.3h.8m-.8-.3h.8m-.8-.2h.8m-.8-.3h.8m-.8-.3h.8m-.8-.3h.8m-.8-.2h.8m-1.1-.3h1.1m-1.1-.3h1.1m-1.1-.2h1.1m-1.1-.3h1.1m-1.1-.3h1.1m-1.1-.3h1.1m-1.1-.2h1.1m-1.1-.3h1.1m-1.1-.3h1.1m-1.3-.3h1.4m-1.4-.2h1.4m-1.4-.3h1.4m-1.4-.3h1.4m-1.4-.2h1.4m-1.4-.3h1.4m-1.4-.3h1.4m-1.4-.3h1.4m-1.7-.2h1.6m-1.6-.3h1.6m-1.6-.3h1.6m-1.6-.2h1.4m-1.4-.3h1.1m-1.1-.3h.8m-.8-.3h.5m-.5-.2h.3m1.3 47.9l-1.9 16.3 1.9-16.3zm-1.9 16.3l1.9-1.6-1.9 1.6zm1.9-1.6l2.2 1.6-2.2-1.6zm2.2 1.6l-2.2-16.3 2.2 16.3zm-2.2-16.3v22.6-22.6zm-1.6 16.1h.3-.3zm0-.3h.5m-.5-.3h.8m-.8-.3h1.1m-1.1-.2h1.4m-1.4-.3h1.6m-1.6-.3h1.6m-1.6-.3h1.6m-1.3-.2h1.4m-1.4-.3h1.4m-1.4-.3h1.4m-1.4-.2h1.4m-1.4-.3h1.4m-1.4-.3h1.4m-1.4-.3h1.4m-1.4-.2h1.4m-1.4-.3h1.4m-1.2-.3h1.1m-1.1-.2h1.1m-1.1-.3h1.1m-1.1-.3h1.1m-1.1-.3h1.1m-1.1-.2h1.1m-1.1-.3h1.1m-1.1-.3h1.1m-.8-.3h.8m-.8-.2h.8m-.8-.3h.8m-.8-.3h.8m-.8-.2h.8m-.8-.3h.8m-.8-.3h.8m-.8-.3h.8m-.8-.2h.8m-.5-.3h.5m-.5-.3h.5m-.5-.3h.5m-.5-.2h.5m-.5-.3h.5m-.5-.3h.5m-.5-.2h.5m-.5-.3h.5m-.2-.3h.3m-.3-.3h.3m-.3-.2h.3m-.3-.3h.3m-.3-.3h.3m-.3-.2h.3m-.3-.3h.3m-.3-.3h.3m-.3-.3h.3m-1.7 13.7h.3-.3zm0-.3h.5m-.5-.3h.8m-.8-.3h1.1m-1.1-.2h1.4m-1.4-.3h1.6m-1.6-.3h1.6m-1.6-.3h1.6m-1.3-.2h1.4m-1.4-.3h1.4m-1.4-.3h1.4m-1.4-.2h1.4m-1.4-.3h1.4m-1.4-.3h1.4m-1.4-.3h1.4m-1.4-.2h1.4m-1.4-.3h1.4m-1.2-.3h1.1m-1.1-.2h1.1m-1.1-.3h1.1m-1.1-.3h1.1m-1.1-.3h1.1m-1.1-.2h1.1m-1.1-.3h1.1m-1.1-.3h1.1m-.8-.3h.8m-.8-.2h.8m-.8-.3h.8m-.8-.3h.8m-.8-.2h.8m-.8-.3h.8m-.8-.3h.8m-.8-.3h.8m-.8-.2h.8m-.5-.3h.5m-.5-.3h.5m-.5-.3h.5m-.5-.2h.5m-.5-.3h.5m-.5-.3h.5m-.5-.2h.5m-.5-.3h.5m-.2-.3h.3m-.3-.3h.3m-.3-.2h.3m-.3-.3h.3m-.3-.3h.3m-.3-.2h.3m-.3-.3h.3m-.3-.3h.3m-.3-.3h.3m1.8 13.7h.3-.3zm-.2-.3h.5m-1.1-.3h1.1m-1.3-.3h1.4m-1.7-.2h1.6m-2.2-.3h2.2m-2.2-.3h2.2m-2.2-.3h1.9m-1.9-.2h1.9m-1.9-.3h1.9m-1.9-.3h1.9m-1.9-.2h1.9m-1.9-.3h1.9m-1.9-.3h1.9m-1.9-.3h1.6m-1.6-.2h1.6m-1.6-.3h1.6m-1.6-.3h1.6m-1.6-.2h1.6m-1.6-.3h1.6m-1.6-.3h1.6m-1.6-.3h1.6m-1.6-.2h1.4m-1.4-.3h1.4m-1.4-.3h1.4m-1.4-.3h1.4m-1.4-.2h1.4m-1.4-.3h1.4m-1.4-.3h1.4m-1.4-.2h1.1m-1.1-.3h1.1m-1.1-.3h1.1m-1.1-.3h1.1m-1.1-.2h1.1m-1.1-.3h1.1m-1.1-.3h1.1m-1.1-.3h1.1m-1.1-.2h.8m-.8-.3h.8m-.8-.3h.8m-.8-.2h.8m-.8-.3h.8m-.8-.3h.8m-.8-.3h.8m-.8-.2h.5m-.5-.3h.5m-.5-.3h.5m-.5-.2h.5m-.5-.3h.5m-.5-.3h.5m-.5-.3h.5m-.5-.2h.5m-.5-.3h.3m-.3-.3h.3m-.3-.3h.3m-.3-.2h.3m-.3-.3h.3m-.3-.3h.3m-.3-.2h.3m1.6 15.8h.3-.3zm-.2-.3h.5m-1.1-.3h1.1m-1.3-.3h1.4m-1.7-.2h1.6m-2.2-.3h2.2m-2.2-.3h2.2m-2.2-.3h1.9m-1.9-.2h1.9m-1.9-.3h1.9m-1.9-.3h1.9m-1.9-.2h1.9m-1.9-.3h1.9m-1.9-.3h1.9m-1.9-.3h1.6m-1.6-.2h1.6m-1.6-.3h1.6m-1.6-.3h1.6m-1.6-.2h1.6m-1.6-.3h1.6m-1.6-.3h1.6m-1.6-.3h1.6m-1.6-.2h1.4m-1.4-.3h1.4m-1.4-.3h1.4m-1.4-.3h1.4m-1.4-.2h1.4m-1.4-.3h1.4m-1.4-.3h1.4m-1.4-.2h1.1m-1.1-.3h1.1m-1.1-.3h1.1m-1.1-.3h1.1m-1.1-.2h1.1m-1.1-.3h1.1m-1.1-.3h1.1m-1.1-.3h1.1m-1.1-.2h.8m-.8-.3h.8m-.8-.3h.8m-.8-.2h.8m-.8-.3h.8m-.8-.3h.8m-.8-.3h.8m-.8-.2h.5m-.5-.3h.5m-.5-.3h.5m-.5-.2h.5m-.5-.3h.5m-.5-.3h.5m-.5-.3h.5m-.5-.2h.5m-.5-.3h.3m-.3-.3h.3m-.3-.3h.3m-.3-.2h.3m-.3-.3h.3m-.3-.3h.3m-.3-.2h.3m-.3-32.4v32.1V235zm0 32.1V351v-83.9zm-174.5 0h181.1-181.1z"/><path fill="#97CCCE" d="M687.4 339.4c-.4.7-.9 1.1-1.7 1.3-.8.2-1.6.1-2.5-.2-1.2-.4-2.3-1.3-3.2-2.5-.9-1.2-1.4-2.5-1.4-3.8v-.7l-3.1-2.1c-.3-.2-.4-.4-.4-.7 0-.2.1-.3.2-.4.1-.1.2-.1.4 0l.2.1 3.1 2.1c.3-.6.9-1.1 1.7-1.4.4-.1.8-.1 1.3-.1s.9.1 1.2.3c1.2.5 2.3 1.3 3.2 2.5.9 1.2 1.4 2.5 1.4 3.7v.5c0 .1 0 .2-.1.3l3.1 2.1c.3.2.4.4.4.7 0 .1 0 .2-.2.4-.1.1-.2.1-.4 0l-.2-.1-3-2zm-1.1-.8l-6.5-4.4v.4c0 1 .3 1.9 1 2.8.3.4.7.8 1.1 1.2l.6.4.5.2.3.1c.7.2 1.3.3 1.8.2.4-.1.9-.4 1.2-.9zm-6.2-5.4l6.5 4.4v-.5c0-1-.3-1.9-1-2.8-.7-.9-1.5-1.6-2.4-1.9-.6-.2-1.2-.3-1.8-.1-.5.2-.9.5-1.3.9z"/><text transform="matrix(0 -.9397 .9397 .342 691.268 333.049)" fill="#97CCCE" font-family="'GOSTTypeA'" font-size="25.031">2</text><path fill="none" stroke="#97CCCE" stroke-miterlimit="10" d="M683.2 318.3v-20.4 20.4z"/><text transform="matrix(0 -.9397 .9397 .342 676.683 315.921)" fill="#97CCCE" font-family="'GOSTTypeA'" font-size="25.031">H</text><text transform="matrix(0 -.9397 .9397 .342 676.683 305.711)" fill="#97CCCE" font-family="'GOSTTypeA'" font-size="25.031">9</text><text transform="matrix(0 -.9397 .9397 .342 702.848 324.807)" fill="#97CCCE" font-family="'GOSTTypeA'" font-size="25.031">d</text><text transform="matrix(0 -.9397 .9397 .342 702.848 315.872)" fill="#97CCCE" font-family="'GOSTTypeA'" font-size="25.031">9</text><text transform="matrix(0 -.9397 .9397 .342 691.268 299.2)" fill="#97CCCE" font-family="'GOSTTypeA'" font-size="25.031">*</text><path fill="none" stroke="#97CCCE" stroke-miterlimit="10" d="M300.9 233.1v-88.8 88.8zm0-82.6l-16.1-1.9 16.1 1.9zm-16.1-1.9l1.4 1.9-1.4-1.9zm1.4 1.9l-1.4 2.2 1.4-2.2zm-1.4 2.2l16.1-2.2-16.1 2.2zm16.1-2.2h-22.6 22.6zm-14.7-.2h12.5-12.5zm-.3-.3h10.6m-10.9-.3h8.4m-8.4-.2h6.3m-6.5-.3h4.1m-4.4-.3h2.2m-1.1 1.4h12.5-12.5zm-.3-.3h10.6m-10.9-.3h8.4m-8.4-.2h6.3m-6.5-.3h4.1m-4.4-.3h2.2m-2.2 3.6h1.9-1.9zm.3-.3h3.5m-3.5-.3h5.7m-5.5-.3h7.4m-7.1-.2h9m-9-.3h11.2m-10.9-.3H299m-12.8-.3h14.7m-15.8 2h1.9-1.9zm.3-.3h3.5m-3.5-.3h5.7m-5.5-.3h7.4m-7.1-.2h9m-9-.3h11.2m-10.9-.3H299m-12.8-.3h14.7m32.1 0l16.1 2.2-16.1-2.2zm16.1 2.2l-1.6-2.2 1.6 2.2zm-1.7-2.2l1.6-1.9-1.6 1.9zm1.7-1.9l-16.1 1.9 16.1-1.9zm-16.1 1.9h22.3H333zm14.2 2h1.9-1.9zm-1.9-.3h3.5m-5.7-.3h5.4m-7.3-.3h7.1m-9-.2h9m-11.2-.3H348m-12.8-.3h12.5m-14.7-.3h14.4m-.2 2h1.9-1.9zm-1.9-.3h3.5m-5.7-.3h5.4m-7.3-.3h7.1m-9-.2h9m-11.2-.3H348m-12.8-.3h12.5m-14.7-.3h14.4m-11.9-.2h12.3-12.3zm2.1-.3H348m-7.9-.3h8.2m-6-.2h6.3m-3.9-.3h4.1m-1.9-.3h2.2m-13.6 1.4h12.3-12.3zm2.1-.3H348m-7.9-.3h8.2m-6-.2h6.3m-3.9-.3h4.1m-1.9-.3h2.2m-48.2 1.6H333h-32.1zm32.1 0h83.6H333zm0 83.4v-89.6 89.6z"/><path fill="#97CCCE" d="M354.2 127c-.7-.4-1.1-.9-1.3-1.7-.2-.8-.1-1.6.2-2.5.4-1.2 1.3-2.3 2.5-3.2 1.2-.9 2.5-1.4 3.8-1.4h.7l2.1-3.1c.2-.3.4-.4.7-.4.2 0 .3 0 .4.1.1.1.1.2 0 .4l-.1.2-2.1 3.1c.6.3 1.1.9 1.4 1.7.1.4.1.8.1 1.3s-.1.9-.3 1.2c-.5 1.2-1.3 2.3-2.5 3.2-1.2.9-2.5 1.4-3.7 1.4h-.5c-.1 0-.2 0-.3-.1l-2.1 3.1c-.2.3-.4.4-.7.4-.1 0-.2-.1-.4-.2-.1-.1-.1-.2 0-.4l.1-.2 2-2.9zm.8-1.1l4.4-6.5h-.4c-1 0-1.9.3-2.8 1-.4.3-.8.7-1.2 1.1l-.4.6-.2.5-.1.3c-.2.7-.3 1.3-.2 1.8.1.4.4.9.9 1.2zm5.4-6.2l-4.4 6.5h.5c1 0 1.9-.3 2.8-1 .9-.7 1.6-1.5 1.9-2.4.2-.6.3-1.2.1-1.8-.2-.5-.5-.9-.9-1.3z"/><text transform="matrix(.9397 0 -.342 .9397 360.542 130.871)" fill="#97CCCE" font-family="'GOSTTypeA'" font-size="25.031">2</text><path fill="#97CCCE" d="M375.2 122.8h20.4-20.4z"/><text transform="matrix(.9397 0 -.342 .9397 377.67 116.288)" fill="#97CCCE" font-family="'GOSTTypeA'" font-size="25.031">H</text><text transform="matrix(.9397 0 -.342 .9397 387.88 116.288)" fill="#97CCCE" font-family="'GOSTTypeA'" font-size="25.031">9</text><text transform="matrix(.9397 0 -.342 .9397 368.786 142.453)" fill="#97CCCE" font-family="'GOSTTypeA'" font-size="25.031">d</text><text transform="matrix(.9397 0 -.342 .9397 377.72 142.453)" fill="#97CCCE" font-family="'GOSTTypeA'" font-size="25.031">9</text><text transform="matrix(.9397 0 -.342 .9397 394.39 130.871)" fill="#97CCCE" font-family="'GOSTTypeA'" font-size="25.031">*</text><path fill="none" stroke="#97CCCE" stroke-miterlimit="10" d="M191.7 284.8l1.1-.5-1.1.5zm1.1-.6l-.5-.8.5.8zm-.6-.8l-1.1.5 1.1-.5zm-1.1.6l.5.8-.5-.8zm.6.8l-.3.8.3-.8zm-.3.8l2.2-1.1-2.2 1.1zm2.2-1.1l-1.1-1.9 1.1 1.9zm-1.1-1.9l-2.2 1.1 2.2-1.1zm-2.2 1.1l1.1 1.9-1.1-1.9zm1.1 1.9l-.3.8.3-.8zm-.3.8l3-1.6-3 1.6zm3-1.6l-1.4-3 1.4 3zm-1.3-3l-3 1.6 3-1.6zm-3 1.6l1.4 3-1.4-3zm-24.3 82.5l26.4-81.7-26.4 81.7zm0 0h-40.3 40.3z"/><text transform="matrix(.9397 0 -.342 .9397 131.784 362.63)" fill="none" stroke="#97CCCE" stroke-miterlimit="10" font-family="'GOSTTypeA'" font-size="35.213">1</text><text transform="matrix(.9397 0 -.342 .9397 141.314 362.63)" fill="none" stroke="#97CCCE" stroke-miterlimit="10" font-family="'GOSTTypeA'" font-size="35.213">1</text><path fill="none" stroke="#97CCCE" stroke-miterlimit="10" d="M189.5 219.7V116.2v103.5zm0-97.2l16.1-2.2-16.1 2.2zm16.1-2.2l-1.6 2.2 1.6-2.2zm-1.7 2.2l1.6 2.2-1.6-2.2zm1.7 2.2l-16.1-2.2 16.1 2.2zm-13.9-2.5h12.5-12.5zm1.9-.2h10.9m-8.7-.3h9m-7.1-.3h7.1m-5.2-.3h5.4m-3.2-.2h3.5m-1.6-.3h1.9m-13.9 1.6h12.5-12.5zm1.9-.2h10.9m-8.7-.3h9m-7.1-.3h7.1m-5.2-.3h5.4m-3.2-.2h3.5m-1.6-.3h1.9m-1.9 3.8h1.9-1.9zm-1.9-.3h3.5m-5.7-.2h5.4m-7.3-.3h7.1m-9-.3h9m-11.2-.3h10.9m-12.8-.2h12.5m-14.7-.3h14.4m-.2 1.9h1.9-1.9zm-1.9-.3h3.5m-5.7-.2h5.4m-7.3-.3h7.1m-9-.3h9m-11.2-.3h10.9m-12.8-.2h12.5m-14.7-.3h14.4m33.8 0l-16.1 2.2 16.1-2.2zm-16.1 2.2l1.6-2.2-1.6 2.2zm1.7-2.2l-1.6-2.2 1.6 2.2zm-1.7-2.2l16.1 2.2-16.1-2.2zm.3 4.1h1.9-1.9zm.3-.3h3.5m-3.2-.2h5.4m-5.4-.3h7.4m-7.2-.3h9m-8.7-.3h10.9m-10.6-.2h12.5m-12.5-.3h14.4m-15.8 1.9h1.9-1.9zm.3-.3h3.5m-3.2-.2h5.4m-5.4-.3h7.4m-7.2-.3h9m-8.7-.3h10.9m-10.6-.2h12.5m-12.5-.3h14.4m-14.4-.3h12.5-12.5zm-.3-.2h10.9m-11.2-.3h9m-9.2-.3h7.4m-7.4-.3h5.4m-5.7-.2h3.5m-3.8-.3h1.9m-.5 1.6h12.5-12.5zm-.3-.2h10.9m-11.2-.3h9m-9.2-.3h7.4m-7.4-.3h5.4m-5.7-.2h3.5m-3.8-.3h1.9m-34.3 1.9h48.2-48.2zm48.2 0h83.9-83.9zm0 97.2V116.2v103.5z"/><text transform="matrix(.9397 0 -.342 .9397 266.248 102.805)" fill="#97CCCE" font-family="'GOSTTypeA'" font-size="25.031">3</text><path fill="#97CCCE" d="M279.6 94.7H300h-20.4z"/><text transform="matrix(.9397 0 -.342 .9397 282.097 88.222)" fill="#97CCCE" font-family="'GOSTTypeA'" font-size="25.031">7</text><text transform="matrix(.9397 0 -.342 .9397 292.308 88.222)" fill="#97CCCE" font-family="'GOSTTypeA'" font-size="25.031">H</text><text transform="matrix(.9397 0 -.342 .9397 273.213 114.386)" fill="#97CCCE" font-family="'GOSTTypeA'" font-size="25.031">6</text><text transform="matrix(.9397 0 -.342 .9397 283.422 114.386)" fill="#97CCCE" font-family="'GOSTTypeA'" font-size="25.031">g</text><text transform="matrix(.9397 0 -.342 .9397 298.819 102.805)" fill="#97CCCE" font-family="'GOSTTypeA'" font-size="25.031">*</text><path fill="none" stroke="#97CCCE" stroke-miterlimit="10" d="M81.1 239V47.6 239zm0-184.8L97.2 52l-16.1 2.2zM97.2 52l-1.6 2.2 1.6-2.2zm-1.6 2.2l1.6 2.2-1.6-2.2zm1.6 2.1l-16.1-2.2 16.1 2.2zm-13.9-2.4h12.5-12.5zm1.9-.3h10.9m-8.7-.3h9m-7.1-.2h7.1m-5.2-.3h5.4m-3.2-.3h3.5m-1.6-.2h1.9m-13.9 1.6h12.5-12.5zm1.9-.3h10.9m-8.7-.3h9m-7.1-.2h7.1m-5.2-.3h5.4m-3.2-.3h3.5m-1.6-.2h1.9m-1.9 3.8h1.9-1.9zm-1.9-.3h3.5m-5.7-.3h5.4m-7.3-.3h7.1m-9-.2h9m-11.2-.3h10.9m-12.8-.3h12.5m-14.7-.2h14.4m-.2 1.9h1.9-1.9zm-1.9-.3h3.5m-5.7-.3h5.4m-7.3-.3h7.1m-9-.2h9m-11.2-.3h10.9m-12.8-.3h12.5m-14.7-.2h14.4m33.8 0l-16.1 2.2 16.1-2.2zm-16 2.1l1.6-2.2-1.6 2.2zm1.6-2.1l-1.6-2.2 1.6 2.2zm-1.6-2.2l16.1 2.2-16.1-2.2zm.2 4.1h1.9-1.9zm.3-.3h3.5m-3.2-.3h5.4m-5.4-.3h7.4m-7.1-.2h9m-8.8-.3h10.9m-10.6-.3h12.5m-12.5-.2h14.4m-15.8 1.9h1.9-1.9zm.3-.3h3.5m-3.2-.3h5.4m-5.4-.3h7.4m-7.1-.2h9m-8.8-.3h10.9m-10.6-.3h12.5m-12.5-.2h14.4m-14.4-.3h12.5-12.5zm-.3-.3h10.9m-11.1-.3h9m-9.3-.2h7.4m-7.4-.3h5.4m-5.7-.3h3.5m-3.8-.2h1.9m-.5 1.6h12.5-12.5zm-.3-.3h10.9m-11.1-.3h9m-9.3-.2h7.4m-7.4-.3h5.4m-5.7-.3h3.5m-3.8-.2h1.9m-34.3 1.9h48.2-48.2zm48.2 0h83.6-83.6zm0 184.8V47.6 239z"/><text transform="matrix(.9397 0 -.342 .9397 157.713 34.39)" fill="#97CCCE" font-family="'GOSTTypeA'" font-size="25.031">3</text><path fill="none" stroke="#97CCCE" stroke-miterlimit="10" d="M171.3 26.4h20.4-20.4z"/><text transform="matrix(.9397 0 -.342 .9397 173.566 19.805)" fill="#97CCCE" font-family="'GOSTTypeA'" font-size="25.031">7</text><text transform="matrix(.9397 0 -.342 .9397 183.776 19.805)" fill="#97CCCE" font-family="'GOSTTypeA'" font-size="25.031">H</text><text transform="matrix(.9397 0 -.342 .9397 164.68 45.97)" fill="#97CCCE" font-family="'GOSTTypeA'" font-size="25.031">6</text><text transform="matrix(.9397 0 -.342 .9397 174.89 45.97)" fill="#97CCCE" font-family="'GOSTTypeA'" font-size="25.031">g</text><path fill="none" stroke="#97CCCE" stroke-miterlimit="10" d="M88.8 270.1l1.1-.5-1.1.5zm1.1-.6l-.5-1.1.5 1.1zm-.6-1.1l-1.1.5 1.1-.5zm-1.1.6l.5 1.1-.5-1.1zm.6 1.1l-.3.5.3-.5zm-.3.5l1.9-.8-1.9.8zm1.9-.8l-.5-2.2.5 2.2zm-.5-2.2l-2.2.8 2.2-.8zm-2.2.8l.8 2.2-.8-2.2zm.8 2.2l-.5.8.5-.8zm-.6.8l3.3-1.1-3.3 1.1zm3.3-1l-1.1-3.3 1.1 3.3zm-1.1-3.3l-3.3 1.1 3.3-1.1zm-3.2 1.1l1.1 3.3-1.1-3.3zm-42 97.7L89 269.3l-44.1 96.6zm0 0H0h44.9z"/><text transform="matrix(.9397 0 -.342 .9397 6.455 362.63)" fill="none" stroke="#97CCCE" stroke-miterlimit="10" font-family="'GOSTTypeA'" font-size="35.213">2</text><text transform="matrix(.9397 0 -.342 .9397 20.75 362.63)" fill="none" stroke="#97CCCE" stroke-miterlimit="10" font-family="'GOSTTypeA'" font-size="35.213">1</text><path fill="none" stroke="#97CCCE" stroke-miterlimit="10" d="M333 275.3l9.3 13.3-9.3-13.3zm9.3 13.3l-2.7-.5 2.7.5zm-2.8-.5l-1.1 2.5 1.1-2.5zm-1.1 2.4l-5.4-15.2 5.4 15.2zm2.5-2.2h1.4-1.4zm-1.4-.2h2.5m-2.5-.3h2.2m-2.4-.3h2.5m-2.5-.3h2.2m-2.5-.2h2.2m-2.2-.3h2.2m-2.5-.3h2.2m-2.2-.3h1.9m-2.2-.2h2.2m-2.2-.3h1.9m-2.1-.3h1.9m-1.9-.2h1.6m-1.9-.3h1.9m-1.9-.3h1.6m-1.9-.3h1.6m-1.6-.2h1.6m-1.8-.3h1.6m-1.6-.3h1.4m-1.7-.2h1.6m-1.6-.3h1.4m-1.7-.3h1.4m-1.4-.3h1.4m-1.7-.2h1.4m-1.4-.3h1.1m-1.3-.3h1.1m-1.1-.3h1.1m-1.4-.2h1.1m-1.1-.3h.8m-1.1-.3h1.1m-1.1-.2h.8m-1-.3h.8m-.8-.3h.8m-1.1-.3h.8m-.8-.2h.5m-.8-.3h.8m-.8-.3h.5m-.8-.2h.5m-.5-.3h.3m-.5-.3h.5m-.5-.3h.3m-.6-.2h.3m-.3-.3h.3m-.6-.3h.3m-.6-.5h.3m7.1 12.2h1.4-1.4zm-1.4-.2h2.5m-2.5-.3h2.2m-2.4-.3h2.5m-2.5-.3h2.2m-2.5-.2h2.2m-2.2-.3h2.2m-2.5-.3h2.2m-2.2-.3h1.9m-2.2-.2h2.2m-2.2-.3h1.9m-2.1-.3h1.9m-1.9-.2h1.6m-1.9-.3h1.9m-1.9-.3h1.6m-1.9-.3h1.6m-1.6-.2h1.6m-1.8-.3h1.6m-1.6-.3h1.4m-1.7-.2h1.6m-1.6-.3h1.4m-1.7-.3h1.4m-1.4-.3h1.4m-1.7-.2h1.4m-1.4-.3h1.1m-1.3-.3h1.1m-1.1-.3h1.1m-1.4-.2h1.1m-1.1-.3h.8m-1.1-.3h1.1m-1.1-.2h.8m-1-.3h.8m-.8-.3h.8m-1.1-.3h.8m-.8-.2h.5m-.8-.3h.8m-.8-.3h.5m-.8-.2h.5m-.5-.3h.3m-.5-.3h.5m-.5-.3h.3m-.6-.2h.3m-.3-.3h.3m-.6-.3h.3m-.6-.5h.3m4.6 14.1h.3-.3zm0-.2h.3m-.5-.3h.8m-.8-.3h.8m-.8-.3h1.1m-1.4-.2h1.4m-1.4-.3h1.6m-1.6-.3h1.6m-1.9-.2h1.9m-1.9-.3h1.9m-1.9-.3h1.6m-1.8-.3h1.9m-1.9-.2h1.6m-1.9-.3h1.9m-1.9-.3h1.6m-1.6-.3h1.6m-1.9-.2h1.6m-1.6-.3h1.6m-1.6-.3h1.4m-1.7-.2h1.6m-1.6-.3h1.4m-1.4-.3h1.4m-1.6-.3h1.4m-1.4-.2h1.4m-1.4-.3h1.1m-1.4-.3h1.4m-1.4-.2h1.1m-1.4-.3h1.4m-1.4-.3h1.1m-1.1-.3h1.1m-1.3-.2h1.1m-1.1-.3h1.1m-1.1-.3h.8m-1.1-.3h1.1m-1.1-.2h.8m-.8-.3h.8m-1.1-.3h.8m-.8-.2h.8m-.8-.3h.5m-.8-.3h.8m-.8-.3h.5m-.7-.2h.8m-.8-.3h.5m-.5-.3h.5m-.8-.2h.5m-.5-.3h.5m-.5-.3h.3m-.6-.3h.5m-.5-.2h.3m-.3-.3h.3m-.6-.3h.3m-.3-.3h.3m-.5-.5h.3m4.8 14.4h.3-.3zm0-.2h.3m-.5-.3h.8m-.8-.3h.8m-.8-.3h1.1m-1.4-.2h1.4m-1.4-.3h1.6m-1.6-.3h1.6m-1.9-.2h1.9m-1.9-.3h1.9m-1.9-.3h1.6m-1.8-.3h1.9m-1.9-.2h1.6m-1.9-.3h1.9m-1.9-.3h1.6m-1.6-.3h1.6m-1.9-.2h1.6m-1.6-.3h1.6m-1.6-.3h1.4m-1.7-.2h1.6m-1.6-.3h1.4m-1.4-.3h1.4m-1.6-.3h1.4m-1.4-.2h1.4m-1.4-.3h1.1m-1.4-.3h1.4m-1.4-.2h1.1m-1.4-.3h1.4m-1.4-.3h1.1m-1.1-.3h1.1m-1.3-.2h1.1m-1.1-.3h1.1m-1.1-.3h.8m-1.1-.3h1.1m-1.1-.2h.8m-.8-.3h.8m-1.1-.3h.8m-.8-.2h.8m-.8-.3h.5m-.8-.3h.8m-.8-.3h.5m-.7-.2h.8m-.8-.3h.5m-.5-.3h.5m-.8-.2h.5m-.5-.3h.5m-.5-.3h.3m-.6-.3h.5m-.5-.2h.3m-.3-.3h.3m-.6-.3h.3m-.3-.3h.3m-.5-.5h.3m46.5 90.1L333 275.3l47.1 90.6zm0 0h141.6-141.6z"/><text transform="matrix(.9397 0 -.342 .9397 386.47 357.695)" fill="none" stroke="#97CCCE" stroke-miterlimit="10" font-family="'GOSTTypeA'" font-size="25.031">Ð</text><text transform="matrix(.9397 0 -.342 .9397 396.682 357.695)" fill="none" stroke="#97CCCE" stroke-miterlimit="10" font-family="'GOSTTypeA'" font-size="25.031">à</text><text transform="matrix(.9397 0 -.342 .9397 405.616 357.695)" fill="none" stroke="#97CCCE" stroke-miterlimit="10" font-family="'GOSTTypeA'" font-size="25.031">ç</text><text transform="matrix(.9397 0 -.342 .9397 414.125 357.695)" fill="none" stroke="#97CCCE" stroke-miterlimit="10" font-family="'GOSTTypeA'" font-size="25.031">â</text><text transform="matrix(.9397 0 -.342 .9397 423.06 357.695)" fill="none" stroke="#97CCCE" stroke-miterlimit="10" font-family="'GOSTTypeA'" font-size="25.031">à</text><text transform="matrix(.9397 0 -.342 .9397 431.993 357.695)" fill="none" stroke="#97CCCE" stroke-miterlimit="10" font-family="'GOSTTypeA'" font-size="25.031">ë</text><text transform="matrix(.9397 0 -.342 .9397 440.928 357.695)" fill="none" stroke="#97CCCE" stroke-miterlimit="10" font-family="'GOSTTypeA'" font-size="25.031">ü</text><text transform="matrix(.9397 0 -.342 .9397 449.862 357.695)" fill="none" stroke="#97CCCE" stroke-miterlimit="10" font-family="'GOSTTypeA'" font-size="25.031">ö</text><text transform="matrix(.9397 0 -.342 .9397 460.073 357.695)" fill="none" stroke="#97CCCE" stroke-miterlimit="10" font-family="'GOSTTypeA'" font-size="25.031">å</text><text transform="matrix(.9397 0 -.342 .9397 469.008 357.695)" fill="none" stroke="#97CCCE" stroke-miterlimit="10" font-family="'GOSTTypeA'" font-size="25.031">â</text><text transform="matrix(.9397 0 -.342 .9397 477.941 357.695)" fill="none" stroke="#97CCCE" stroke-miterlimit="10" font-family="'GOSTTypeA'" font-size="25.031">à</text><text transform="matrix(.9397 0 -.342 .9397 486.876 357.695)" fill="none" stroke="#97CCCE" stroke-miterlimit="10" font-family="'GOSTTypeA'" font-size="25.031">ò</text><text transform="matrix(.9397 0 -.342 .9397 499.214 357.695)" fill="none" stroke="#97CCCE" stroke-miterlimit="10" font-family="'GOSTTypeA'" font-size="25.031">ü</text><path fill="none" stroke="#97CCCE" stroke-miterlimit="10" d="M333 227.1l11.7-11.2-11.7 11.2zm11.7-11.2v2.5-2.5zm0 2.4l2.5.8-2.5-.8zm2.5.9l-14.2 7.9 14.2-7.9zm-13.1 7h.3-.3zm.3-.2h.3m-.1-.3h.3m0-.3h.5m-.2-.2h.5m-.2-.3h.5m-.3-.3h.8m-.5-.3h.8m-.5-.2h.8m-.6-.3h1.1m-.8-.3h1.1m-.8-.3h1.1m-.8-.2h1.4m-1.2-.3h1.4m-1.1-.3h1.4m-1.1-.2h1.6m-1.4-.3h1.6m-1.3-.3h1.6m-1-.3h1.6m-1.4-.2h1.6m-1.3-.3h1.6m-1.3-.3h1.9m-1.6-.2h1.9m-1.7-.3h1.9m-1.6-.3h2.2m-1.9-.3h2.2m-2-.2h2.2m-1.9-.3h2.5m-2.2-.3h2.5m-2.2-.3h2.5m-2.3-.2h2.2m-1.9-.3h1.9m-1.6-.3h1.6m-1.3-.2h1.4m-1.2-.3h1.1m-.8-.3h.8m-.5-.3h.5m-.3-.2h.3m-10.6 10h.3-.3zm.3-.2h.3m-.1-.3h.3m0-.3h.5m-.2-.2h.5m-.2-.3h.5m-.3-.3h.8m-.5-.3h.8m-.5-.2h.8m-.6-.3h1.1m-.8-.3h1.1m-.8-.3h1.1m-.8-.2h1.4m-1.2-.3h1.4m-1.1-.3h1.4m-1.1-.2h1.6m-1.4-.3h1.6m-1.3-.3h1.6m-1-.3h1.6m-1.4-.2h1.6m-1.3-.3h1.6m-1.3-.3h1.9m-1.6-.2h1.9m-1.7-.3h1.9m-1.6-.3h2.2m-1.9-.3h2.2m-2-.2h2.2m-1.9-.3h2.5m-2.2-.3h2.5m-2.2-.3h2.5m-2.3-.2h2.2m-1.9-.3h1.9m-1.6-.3h1.6m-1.3-.2h1.4m-1.2-.3h1.1m-.8-.3h.8m-.5-.3h.5m-.3-.2h.3m-10.9 10.3h.3-.3zm.6-.3h.3m-.1-.2h.5m-.2-.3h.5m.1-.3h.5m-.3-.2h.8m-.5-.3h1.1m-.6-.3h1.1m-.8-.3h1.1m-.8-.2h1.4m-.9-.3h1.4m-1.1-.3h1.6m-1.3-.3h1.9m-1.4-.2h1.6m-1.3-.3h1.9m-1.6-.3h2.2m-1.7-.2h2.2m-1.9-.3h2.5m-2.2-.3h2.5m-2-.3h2.5m-2.2-.2h2.7m-2.5-.3h3m-2.4-.3h3m-2.7-.2h3m-2.8-.3h3.3m-2.7-.3h3.3m-3-.3h3.5m-3.3-.2h3.5m-2.9-.3h2.2m-2-.3h1.1m-11.7 7.9h.3-.3zm.6-.3h.3m-.1-.2h.5m-.2-.3h.5m.1-.3h.5m-.3-.2h.8m-.5-.3h1.1m-.6-.3h1.1m-.8-.3h1.1m-.8-.2h1.4m-.9-.3h1.4m-1.1-.3h1.6m-1.3-.3h1.9m-1.4-.2h1.6m-1.3-.3h1.9m-1.6-.3h2.2m-1.7-.2h2.2m-1.9-.3h2.5m-2.2-.3h2.5m-2-.3h2.5m-2.2-.2h2.7m-2.5-.3h3m-2.4-.3h3m-2.7-.2h3m-2.8-.3h3.3m-2.7-.3h3.3m-3-.3h3.5m-3.3-.2h3.5m-2.9-.3h2.2m-2-.3h1.1m34.6 147.3l21-188.7-21 188.7zm21-188.7L333 227.1l68.1-49.9zM173.4 298.7l-7.9-8.2 7.9 8.2zm-7.9-8.2v-24 24zm35.7 8.2h-27.8 27.8zm44.7-32.2H262h-16.1zm16 24v-24 24zm-96.4-24h16.1-16.1zm88.3 32.2h-27.5 27.5zm0 0l8.2-8.2-8.2 8.2zm-27.5-13.1h-25.1 25.1zm-25.1 0v13.1-13.1zm25.1 13.1v-13.1 13.1zm-44.7-32.2h64.3-64.3zm-16.1 24h35.7-35.7zm60.8 0H262h-35.7zm19.6-24V239v27.5zm-64.3 0V239v27.5zm12-74.8V239v-47.3zm-4.1 47.3v-43.3V239zm44.4-47.3V239v-47.3zm3.8 47.3v-43.3V239zm-48.2-43.3h48.2-48.2zm4.9-4.9h38.7-38.7zm0 0l-4.9 4.9 4.9-4.9zm38.7 0l4.6 4.9-4.6-4.9zm315.8 82.8l.3-1.1-.3 1.1zm.3-1.1l-1.1-.5 1.1.5zm-1.1-.5l-.3 1.1.3-1.1zm-.3 1.1l1.1.5-1.1-.5zm1.1.5l.3.5-.3-.5zm.3.6l.8-1.9-.8 1.9zm.8-1.9l-2.2-.8 2.2.8zm-2.2-.9l-.8 1.9.8-1.9zm-.8 1.9l2.2.8-2.2-.8zm2.2.9l.3.8-.3-.8zm.3.8l1.4-3.3-1.4 3.3zm1.3-3.3l-3.3-1.1 3.3 1.1zm-3.2-1.1l-1.4 3.3 1.4-3.3zm-1.4 3.3l3.3 1.1-3.3-1.1zm28.9 59.1l-26.7-60.2 26.7 60.2zm0 0H620h-44.9z"/><text transform="matrix(.9397 0 -.342 .9397 581.54 329.61)" fill="#97CCCE" font-family="'GOSTTypeA'" font-size="35.213">1</text><text transform="matrix(.9397 0 -.342 .9397 591.069 329.61)" fill="#97CCCE" font-family="'GOSTTypeA'" font-size="35.213">6</text><path fill="none" stroke="#97CCCE" stroke-miterlimit="10" d="M326.2 259.5l.8-.5-.8.5zm.8-.6l-.8-1.1.8 1.1zm-.8-1.1l-.8.8.8-.8zm-.8.8l.8.8-.8-.8zm.8.9l-.3.8.3-.8zm-.3.8l1.9-1.4-1.9 1.4zm1.9-1.4l-1.4-1.6 1.4 1.6zm-1.3-1.6l-1.9 1.4 1.9-1.4zm-1.9 1.3l1.4 1.6-1.4-1.6zm1.3 1.7v.8-.8zm0 .8l2.7-1.9-2.7 1.9zm2.7-1.9l-2.2-2.7 2.2 2.7zm-2.1-2.7l-2.7 1.9 2.7-1.9zm-2.8 1.9l2.2 2.7-2.2-2.7zm-12.5 107.5l15-107.3-15 107.3zm0 0h-44.9 44.9z"/><text transform="matrix(.9397 0 -.342 .9397 272.826 362.63)" fill="none" stroke="#97CCCE" stroke-miterlimit="10" font-family="'GOSTTypeA'" font-size="35.213">1</text><text transform="matrix(.9397 0 -.342 .9397 282.356 362.63)" fill="none" stroke="#97CCCE" stroke-miterlimit="10" font-family="'GOSTTypeA'" font-size="35.213">8</text><path fill="none" stroke="#97CCCE" stroke-miterlimit="10" d="M484.1 263.5l.5-.8-.5.8zm.6-.8l-.8-.5.8.5zm-.9-.5l-.8.8.8-.8zm-.8.8l1.1.5-1.1-.5zm1.1.5l.3.8-.3-.8zm.3.9l1.1-1.9-1.1 1.9zm1.1-1.9l-1.9-1.1 1.9 1.1zm-1.9-1.1l-1.4 1.9 1.4-1.9zm-1.4 1.9l2.2 1.1-2.2-1.1zm2.2 1.1v.8-.8zm0 .8l1.9-3-1.9 3zm1.9-3l-3-1.6 3 1.6zm-3-1.6l-1.6 3 1.6-3zm-1.6 2.9l2.7 1.6-2.7-1.6zm18.8 69.5l-16.6-70.2 16.6 70.2zm0 0h43.3-43.3z"/><text transform="matrix(.9397 0 -.342 .9397 506.853 329.61)" fill="#97CCCE" font-family="'GOSTTypeA'" font-size="35.213">1</text><text transform="matrix(.9397 0 -.342 .9397 516.383 329.61)" fill="#97CCCE" font-family="'GOSTTypeA'" font-size="35.213">5</text><path fill="none" stroke="#97CCCE" stroke-miterlimit="10" d="M710.9 235l2.2-16.1-2.2 16.1zm2.2-16.1l-2.2 1.6 2.2-1.6zm-2.2 1.6l-1.9-1.6 1.9 1.6zm-1.9-1.6l1.9 16.1-1.9-16.1zm1.9 16.1v-22.3V235zm0-.3h.3-.3zm0-.3h.3m-.3-.3h.3m-.3-.2h.3m-.3-.3h.3m-.3-.3h.3m-.3-.2h.3m-.3-.3h.5m-.5-.3h.5m-.5-.3h.5m-.5-.2h.5m-.5-.3h.5m-.5-.3h.5m-.5-.3h.5m-.5-.2h.8m-.8-.3h.8m-.8-.3h.8m-.8-.2h.8m-.8-.3h.8m-.8-.3h.8m-.8-.3h.8m-.8-.2h.8m-.8-.3h1.1m-1.1-.3h1.1m-1.1-.3h1.1m-1.1-.2h1.1m-1.1-.3h1.1m-1.1-.3h1.1m-1.1-.2h1.1m-1.1-.3h1.4m-1.4-.3h1.4m-1.4-.3h1.4m-1.4-.2h1.4m-1.4-.3h1.4m-1.4-.3h1.4m-1.4-.2h1.4m-1.4-.3h1.6m-1.6-.3h1.6m-1.6-.3h1.6m-1.6-.2h1.6m-1.6-.3h1.6m-1.6-.3h1.6m-1.6-.3h1.6m-1.6-.2h1.6m-1.6-.3h1.9m-1.9-.3h1.9m-1.9-.2h1.9m-1.9-.3h1.9m-1.9-.3h1.9m-1.9-.3h1.9m-1.9-.2h1.9m-1.9-.3h2.2m-2.2-.3h2.2m-1.6-.2h1.6m-1.3-.3h1.4m-1.2-.3h1.1m-.5-.3h.5m-.3-.2h.3m-2.2 15.5h.3-.3zm0-.3h.3m-.3-.3h.3m-.3-.2h.3m-.3-.3h.3m-.3-.3h.3m-.3-.2h.3m-.3-.3h.5m-.5-.3h.5m-.5-.3h.5m-.5-.2h.5m-.5-.3h.5m-.5-.3h.5m-.5-.3h.5m-.5-.2h.8m-.8-.3h.8m-.8-.3h.8m-.8-.2h.8m-.8-.3h.8m-.8-.3h.8m-.8-.3h.8m-.8-.2h.8m-.8-.3h1.1m-1.1-.3h1.1m-1.1-.3h1.1m-1.1-.2h1.1m-1.1-.3h1.1m-1.1-.3h1.1m-1.1-.2h1.1m-1.1-.3h1.4m-1.4-.3h1.4m-1.4-.3h1.4m-1.4-.2h1.4m-1.4-.3h1.4m-1.4-.3h1.4m-1.4-.2h1.4m-1.4-.3h1.6m-1.6-.3h1.6m-1.6-.3h1.6m-1.6-.2h1.6m-1.6-.3h1.6m-1.6-.3h1.6m-1.6-.3h1.6m-1.6-.2h1.6m-1.6-.3h1.9m-1.9-.3h1.9m-1.9-.2h1.9m-1.9-.3h1.9m-1.9-.3h1.9m-1.9-.3h1.9m-1.9-.2h1.9m-1.9-.3h2.2m-2.2-.3h2.2m-1.6-.2h1.6m-1.3-.3h1.4m-1.2-.3h1.1m-.5-.3h.5m-.3-.2h.3m-2.4 13.3h.3-.3zm0-.3h.3m-.3-.2h.3m-.3-.3h.3m-.3-.3h.3m-.3-.3h.3m-.3-.2h.3m-.3-.3h.3m-.6-.3h.5m-.5-.2h.5m-.5-.3h.5m-.5-.3h.5m-.5-.3h.5m-.5-.2h.5m-.5-.3h.5m-.5-.3h.5m-.5-.3h.5m-.8-.2h.8m-.8-.3h.8m-.8-.3h.8m-.8-.2h.8m-.8-.3h.8m-.8-.3h.8m-.8-.3h.8m-.8-.2h.8m-1.1-.3h1.1m-1.1-.3h1.1m-1.1-.2h1.1m-1.1-.3h1.1m-1.1-.3h1.1m-1.1-.3h1.1m-1.1-.2h1.1m-1.1-.3h1.1m-1.1-.3h1.1m-1.3-.3h1.4m-1.4-.2h1.4m-1.4-.3h1.4m-1.4-.3h1.4m-1.4-.2h1.4m-1.4-.3h1.4m-1.4-.3h1.4m-1.4-.3h1.4m-1.7-.2h1.6m-1.6-.3h1.6m-1.6-.3h1.6m-1.6-.2h1.4m-1.4-.3h1.1m-1.1-.3h.8m-.8-.3h.5m-.5-.2h.3m1.1 13.3h.3-.3zm0-.3h.3m-.3-.2h.3m-.3-.3h.3m-.3-.3h.3m-.3-.3h.3m-.3-.2h.3m-.3-.3h.3m-.6-.3h.5m-.5-.2h.5m-.5-.3h.5m-.5-.3h.5m-.5-.3h.5m-.5-.2h.5m-.5-.3h.5m-.5-.3h.5m-.5-.3h.5m-.8-.2h.8m-.8-.3h.8m-.8-.3h.8m-.8-.2h.8m-.8-.3h.8m-.8-.3h.8m-.8-.3h.8m-.8-.2h.8m-1.1-.3h1.1m-1.1-.3h1.1m-1.1-.2h1.1m-1.1-.3h1.1m-1.1-.3h1.1m-1.1-.3h1.1m-1.1-.2h1.1m-1.1-.3h1.1m-1.1-.3h1.1m-1.3-.3h1.4m-1.4-.2h1.4m-1.4-.3h1.4m-1.4-.3h1.4m-1.4-.2h1.4m-1.4-.3h1.4m-1.4-.3h1.4m-1.4-.3h1.4m-1.7-.2h1.6m-1.6-.3h1.6m-1.6-.3h1.6m-1.6-.2h1.4m-1.4-.3h1.1m-1.1-.3h.8m-.8-.3h.5m-.5-.2h.3m1.3 47.9l-1.9 16.3 1.9-16.3zm-1.9 16.3l1.9-1.6-1.9 1.6zm1.9-1.6l2.2 1.6-2.2-1.6zm2.2 1.6l-2.2-16.3 2.2 16.3zm-2.2-16.3v22.6-22.6zm-1.6 16.1h.3-.3zm0-.3h.5m-.5-.3h.8m-.8-.3h1.1m-1.1-.2h1.4m-1.4-.3h1.6m-1.6-.3h1.6m-1.6-.3h1.6m-1.3-.2h1.4m-1.4-.3h1.4m-1.4-.3h1.4m-1.4-.2h1.4m-1.4-.3h1.4m-1.4-.3h1.4m-1.4-.3h1.4m-1.4-.2h1.4m-1.4-.3h1.4m-1.2-.3h1.1m-1.1-.2h1.1m-1.1-.3h1.1m-1.1-.3h1.1m-1.1-.3h1.1m-1.1-.2h1.1m-1.1-.3h1.1m-1.1-.3h1.1m-.8-.3h.8m-.8-.2h.8m-.8-.3h.8m-.8-.3h.8m-.8-.2h.8m-.8-.3h.8m-.8-.3h.8m-.8-.3h.8m-.8-.2h.8m-.5-.3h.5m-.5-.3h.5m-.5-.3h.5m-.5-.2h.5m-.5-.3h.5m-.5-.3h.5m-.5-.2h.5m-.5-.3h.5m-.2-.3h.3m-.3-.3h.3m-.3-.2h.3m-.3-.3h.3m-.3-.3h.3m-.3-.2h.3m-.3-.3h.3m-.3-.3h.3m-.3-.3h.3m-1.7 13.7h.3-.3zm0-.3h.5m-.5-.3h.8m-.8-.3h1.1m-1.1-.2h1.4m-1.4-.3h1.6m-1.6-.3h1.6m-1.6-.3h1.6m-1.3-.2h1.4m-1.4-.3h1.4m-1.4-.3h1.4m-1.4-.2h1.4m-1.4-.3h1.4m-1.4-.3h1.4m-1.4-.3h1.4m-1.4-.2h1.4m-1.4-.3h1.4m-1.2-.3h1.1m-1.1-.2h1.1m-1.1-.3h1.1m-1.1-.3h1.1m-1.1-.3h1.1m-1.1-.2h1.1m-1.1-.3h1.1m-1.1-.3h1.1m-.8-.3h.8m-.8-.2h.8m-.8-.3h.8m-.8-.3h.8m-.8-.2h.8m-.8-.3h.8m-.8-.3h.8m-.8-.3h.8m-.8-.2h.8m-.5-.3h.5m-.5-.3h.5m-.5-.3h.5m-.5-.2h.5m-.5-.3h.5m-.5-.3h.5m-.5-.2h.5m-.5-.3h.5m-.2-.3h.3m-.3-.3h.3m-.3-.2h.3m-.3-.3h.3m-.3-.3h.3m-.3-.2h.3m-.3-.3h.3m-.3-.3h.3m-.3-.3h.3m1.8 13.7h.3-.3zm-.2-.3h.5m-1.1-.3h1.1m-1.3-.3h1.4m-1.7-.2h1.6m-2.2-.3h2.2m-2.2-.3h2.2m-2.2-.3h1.9m-1.9-.2h1.9m-1.9-.3h1.9m-1.9-.3h1.9m-1.9-.2h1.9m-1.9-.3h1.9m-1.9-.3h1.9m-1.9-.3h1.6m-1.6-.2h1.6m-1.6-.3h1.6m-1.6-.3h1.6m-1.6-.2h1.6m-1.6-.3h1.6m-1.6-.3h1.6m-1.6-.3h1.6m-1.6-.2h1.4m-1.4-.3h1.4m-1.4-.3h1.4m-1.4-.3h1.4m-1.4-.2h1.4m-1.4-.3h1.4m-1.4-.3h1.4m-1.4-.2h1.1m-1.1-.3h1.1m-1.1-.3h1.1m-1.1-.3h1.1m-1.1-.2h1.1m-1.1-.3h1.1m-1.1-.3h1.1m-1.1-.3h1.1m-1.1-.2h.8m-.8-.3h.8m-.8-.3h.8m-.8-.2h.8m-.8-.3h.8m-.8-.3h.8m-.8-.3h.8m-.8-.2h.5m-.5-.3h.5m-.5-.3h.5m-.5-.2h.5m-.5-.3h.5m-.5-.3h.5m-.5-.3h.5m-.5-.2h.5m-.5-.3h.3m-.3-.3h.3m-.3-.3h.3m-.3-.2h.3m-.3-.3h.3m-.3-.3h.3m-.3-.2h.3m1.6 15.8h.3-.3zm-.2-.3h.5m-1.1-.3h1.1m-1.3-.3h1.4m-1.7-.2h1.6m-2.2-.3h2.2m-2.2-.3h2.2m-2.2-.3h1.9m-1.9-.2h1.9m-1.9-.3h1.9m-1.9-.3h1.9m-1.9-.2h1.9m-1.9-.3h1.9m-1.9-.3h1.9m-1.9-.3h1.6m-1.6-.2h1.6m-1.6-.3h1.6m-1.6-.3h1.6m-1.6-.2h1.6m-1.6-.3h1.6m-1.6-.3h1.6m-1.6-.3h1.6m-1.6-.2h1.4m-1.4-.3h1.4m-1.4-.3h1.4m-1.4-.3h1.4m-1.4-.2h1.4m-1.4-.3h1.4m-1.4-.3h1.4m-1.4-.2h1.1m-1.1-.3h1.1m-1.1-.3h1.1m-1.1-.3h1.1m-1.1-.2h1.1m-1.1-.3h1.1m-1.1-.3h1.1m-1.1-.3h1.1m-1.1-.2h.8m-.8-.3h.8m-.8-.3h.8m-.8-.2h.8m-.8-.3h.8m-.8-.3h.8m-.8-.3h.8m-.8-.2h.5m-.5-.3h.5m-.5-.3h.5m-.5-.2h.5m-.5-.3h.5m-.5-.3h.5m-.5-.3h.5m-.5-.2h.5m-.5-.3h.3m-.3-.3h.3m-.3-.3h.3m-.3-.2h.3m-.3-.3h.3m-.3-.3h.3m-.3-.2h.3m-.3-32.4v32.1V235z"/><path fill="#97CCCE" d="M687.4 339.4c-.4.7-.9 1.1-1.7 1.3-.8.2-1.6.1-2.5-.2-1.2-.4-2.3-1.3-3.2-2.5-.9-1.2-1.4-2.5-1.4-3.8v-.7l-3.1-2.1c-.3-.2-.4-.4-.4-.7 0-.2.1-.3.2-.4.1-.1.2-.1.4 0l.2.1 3.1 2.1c.3-.6.9-1.1 1.7-1.4.4-.1.8-.1 1.3-.1s.9.1 1.2.3c1.2.5 2.3 1.3 3.2 2.5.9 1.2 1.4 2.5 1.4 3.7v.5c0 .1 0 .2-.1.3l3.1 2.1c.3.2.4.4.4.7 0 .1 0 .2-.2.4-.1.1-.2.1-.4 0l-.2-.1-3-2zm-1.1-.8l-6.5-4.4v.4c0 1 .3 1.9 1 2.8.3.4.7.8 1.1 1.2l.6.4.5.2.3.1c.7.2 1.3.3 1.8.2.4-.1.9-.4 1.2-.9zm-6.2-5.4l6.5 4.4v-.5c0-1-.3-1.9-1-2.8-.7-.9-1.5-1.6-2.4-1.9-.6-.2-1.2-.3-1.8-.1-.5.2-.9.5-1.3.9z"/><text transform="matrix(0 -.9397 .9397 .342 691.268 333.05)" fill="#97CCCE" font-family="'GOSTTypeA'" font-size="25.031">2</text><path fill="none" stroke="#97CCCE" stroke-miterlimit="10" d="M683.2 318.3v-20.4 20.4z"/><text transform="matrix(0 -.9397 .9397 .342 676.683 315.92)" fill="#97CCCE" font-family="'GOSTTypeA'" font-size="25.031">H</text><text transform="matrix(0 -.9397 .9397 .342 676.683 305.71)" fill="#97CCCE" font-family="'GOSTTypeA'" font-size="25.031">9</text><text transform="matrix(0 -.9397 .9397 .342 702.848 324.807)" fill="#97CCCE" font-family="'GOSTTypeA'" font-size="25.031">d</text><text transform="matrix(0 -.9397 .9397 .342 702.848 315.872)" fill="#97CCCE" font-family="'GOSTTypeA'" font-size="25.031">9</text><text transform="matrix(0 -.9397 .9397 .342 691.268 299.2)" fill="#97CCCE" font-family="'GOSTTypeA'" font-size="25.031">*</text><path fill="none" stroke="#97CCCE" stroke-miterlimit="10" d="M300.9 150.5l-16.1-1.9 16.1 1.9zm-16.1-1.9l1.4 1.9-1.4-1.9zm1.4 1.9l-1.4 2.2 1.4-2.2zm-1.4 2.2l16.1-2.2-16.1 2.2zm16.1-2.2h-22.6 22.6zm-14.7-.2h12.5-12.5zm-.3-.3h10.6m-10.9-.3h8.4m-8.4-.2h6.3m-6.5-.3h4.1m-4.4-.3h2.2m-1.1 1.4h12.5-12.5zm-.3-.3h10.6m-10.9-.3h8.4m-8.4-.2h6.3m-6.5-.3h4.1m-4.4-.3h2.2m-2.2 3.6h1.9-1.9zm.3-.3h3.5m-3.5-.3h5.7m-5.5-.3h7.4m-7.1-.2h9m-9-.3h11.2m-10.9-.3H299m-12.8-.3h14.7m-15.8 2h1.9-1.9zm.3-.3h3.5m-3.5-.3h5.7m-5.5-.3h7.4m-7.1-.2h9m-9-.3h11.2m-10.9-.3H299m-12.8-.3h14.7m32.1 0l16.1 2.2-16.1-2.2zm16.1 2.2l-1.6-2.2 1.6 2.2zm-1.7-2.2l1.6-1.9-1.6 1.9zm1.7-1.9l-16.1 1.9 16.1-1.9zm-16.1 1.9h22.3H333zm14.2 2h1.9-1.9zm-1.9-.3h3.5m-5.7-.3h5.4m-7.3-.3h7.1m-9-.2h9m-11.2-.3H348m-12.8-.3h12.5m-14.7-.3h14.4m-.2 2h1.9-1.9zm-1.9-.3h3.5m-5.7-.3h5.4m-7.3-.3h7.1m-9-.2h9m-11.2-.3H348m-12.8-.3h12.5m-14.7-.3h14.4m-11.9-.2h12.3-12.3zm2.1-.3H348m-7.9-.3h8.2m-6-.2h6.3m-3.9-.3h4.1m-1.9-.3h2.2m-13.6 1.4h12.3-12.3zm2.1-.3H348m-7.9-.3h8.2m-6-.2h6.3m-3.9-.3h4.1m-1.9-.3h2.2m-48.2 1.6H333h-32.1z"/><path fill="#97CCCE" d="M354.2 127c-.7-.4-1.1-.9-1.3-1.7-.2-.8-.1-1.6.2-2.5.4-1.2 1.3-2.3 2.5-3.2 1.2-.9 2.5-1.4 3.8-1.4h.7l2.1-3.1c.2-.3.4-.4.7-.4.2 0 .3 0 .4.1.1.1.1.2 0 .4l-.1.2-2.1 3.1c.6.3 1.1.9 1.4 1.7.1.4.1.8.1 1.3s-.1.9-.3 1.2c-.5 1.2-1.3 2.3-2.5 3.2-1.2.9-2.5 1.4-3.7 1.4h-.5c-.1 0-.2 0-.3-.1l-2.1 3.1c-.2.3-.4.4-.7.4-.1 0-.2-.1-.4-.2-.1-.1-.1-.2 0-.4l.1-.2 2-2.9zm.8-1.1l4.4-6.5h-.4c-1 0-1.9.3-2.8 1-.4.3-.8.7-1.2 1.1l-.4.6-.2.5-.1.3c-.2.7-.3 1.3-.2 1.8.1.4.4.9.9 1.2zm5.4-6.2l-4.4 6.5h.5c1 0 1.9-.3 2.8-1 .9-.7 1.6-1.5 1.9-2.4.2-.6.3-1.2.1-1.8-.2-.5-.5-.9-.9-1.3z"/><text transform="matrix(.9397 0 -.342 .9397 360.541 130.871)" fill="#97CCCE" font-family="'GOSTTypeA'" font-size="25.031">2</text><path fill="none" stroke="#97CCCE" stroke-miterlimit="10" d="M375.2 122.8h20.4-20.4z"/><text transform="matrix(.9397 0 -.342 .9397 377.67 116.287)" fill="#97CCCE" font-family="'GOSTTypeA'" font-size="25.031">H</text><text transform="matrix(.9397 0 -.342 .9397 387.881 116.287)" fill="#97CCCE" font-family="'GOSTTypeA'" font-size="25.031">9</text><text transform="matrix(.9397 0 -.342 .9397 368.784 142.453)" fill="#97CCCE" font-family="'GOSTTypeA'" font-size="25.031">d</text><text transform="matrix(.9397 0 -.342 .9397 377.72 142.453)" fill="#97CCCE" font-family="'GOSTTypeA'" font-size="25.031">9</text><text transform="matrix(.9397 0 -.342 .9397 394.39 130.871)" fill="#97CCCE" font-family="'GOSTTypeA'" font-size="25.031">*</text><path fill="none" stroke="#97CCCE" stroke-miterlimit="10" d="M191.7 284.8l1.1-.5-1.1.5zm1.1-.6l-.5-.8.5.8zm-.6-.8l-1.1.5 1.1-.5zm-1.1.6l.5.8-.5-.8zm.6.8l-.3.8.3-.8zm-.3.8l2.2-1.1-2.2 1.1zm2.2-1.1l-1.1-1.9 1.1 1.9zm-1.1-1.9l-2.2 1.1 2.2-1.1zm-2.2 1.1l1.1 1.9-1.1-1.9zm1.1 1.9l-.3.8.3-.8zm-.3.8l3-1.6-3 1.6zm3-1.6l-1.4-3 1.4 3zm-1.3-3l-3 1.6 3-1.6zm-3 1.6l1.4 3-1.4-3zm-24.3 82.5l26.4-81.7-26.4 81.7zm0 0h-40.3 40.3z"/><text transform="matrix(.9397 0 -.342 .9397 131.784 362.63)" fill="none" stroke="#97CCCE" stroke-miterlimit="10" font-family="'GOSTTypeA'" font-size="35.213">1</text><text transform="matrix(.9397 0 -.342 .9397 141.313 362.63)" fill="none" stroke="#97CCCE" stroke-miterlimit="10" font-family="'GOSTTypeA'" font-size="35.213">1</text><path fill="none" stroke="#97CCCE" stroke-miterlimit="10" d="M189.5 122.5l16.1-2.2-16.1 2.2zm16.1-2.2l-1.6 2.2 1.6-2.2zm-1.7 2.2l1.6 2.2-1.6-2.2zm1.7 2.2l-16.1-2.2 16.1 2.2zm-13.9-2.5h12.5-12.5zm1.9-.2h10.9m-8.7-.3h9m-7.1-.3h7.1m-5.2-.3h5.4m-3.2-.2h3.5m-1.6-.3h1.9m-13.9 1.6h12.5-12.5zm1.9-.2h10.9m-8.7-.3h9m-7.1-.3h7.1m-5.2-.3h5.4m-3.2-.2h3.5m-1.6-.3h1.9m-1.9 3.8h1.9-1.9zm-1.9-.3h3.5m-5.7-.2h5.4m-7.3-.3h7.1m-9-.3h9m-11.2-.3h10.9m-12.8-.2h12.5m-14.7-.3h14.4m-.2 1.9h1.9-1.9zm-1.9-.3h3.5m-5.7-.2h5.4m-7.3-.3h7.1m-9-.3h9m-11.2-.3h10.9m-12.8-.2h12.5m-14.7-.3h14.4m33.8 0l-16.1 2.2 16.1-2.2zm-16.1 2.2l1.6-2.2-1.6 2.2zm1.7-2.2l-1.6-2.2 1.6 2.2zm-1.7-2.2l16.1 2.2-16.1-2.2zm.3 4.1h1.9-1.9zm.3-.3h3.5m-3.2-.2h5.4m-5.4-.3h7.4m-7.2-.3h9m-8.7-.3h10.9m-10.6-.2h12.5m-12.5-.3h14.4m-15.8 1.9h1.9-1.9zm.3-.3h3.5m-3.2-.2h5.4m-5.4-.3h7.4m-7.2-.3h9m-8.7-.3h10.9m-10.6-.2h12.5m-12.5-.3h14.4m-14.4-.3h12.5-12.5zm-.3-.2h10.9m-11.2-.3h9m-9.2-.3h7.4m-7.4-.3h5.4m-5.7-.2h3.5m-3.8-.3h1.9m-.5 1.6h12.5-12.5zm-.3-.2h10.9m-11.2-.3h9m-9.2-.3h7.4m-7.4-.3h5.4m-5.7-.2h3.5m-3.8-.3h1.9m-34.3 1.9h48.2-48.2z"/><text transform="matrix(.9397 0 -.342 .9397 266.246 102.805)" fill="#97CCCE" font-family="'GOSTTypeA'" font-size="25.031">3</text><path fill="none" stroke="#97CCCE" stroke-miterlimit="10" d="M279.6 94.7H300h-20.4z"/><text transform="matrix(.9397 0 -.342 .9397 282.097 88.222)" fill="#97CCCE" font-family="'GOSTTypeA'" font-size="25.031">7</text><text transform="matrix(.9397 0 -.342 .9397 292.307 88.222)" fill="#97CCCE" font-family="'GOSTTypeA'" font-size="25.031">H</text><text transform="matrix(.9397 0 -.342 .9397 273.21 114.386)" fill="#97CCCE" font-family="'GOSTTypeA'" font-size="25.031">6</text><text transform="matrix(.9397 0 -.342 .9397 283.421 114.386)" fill="#97CCCE" font-family="'GOSTTypeA'" font-size="25.031">g</text><text transform="matrix(.9397 0 -.342 .9397 298.819 102.805)" fill="#97CCCE" font-family="'GOSTTypeA'" font-size="25.031">*</text><path fill="none" stroke="#97CCCE" stroke-miterlimit="10" d="M81.1 54.2L97.2 52l-16.1 2.2zM97.2 52l-1.6 2.2 1.6-2.2zm-1.6 2.2l1.6 2.2-1.6-2.2zm1.6 2.1l-16.1-2.2 16.1 2.2zm-13.9-2.4h12.5-12.5zm1.9-.3h10.9m-8.7-.3h9m-7.1-.2h7.1m-5.2-.3h5.4m-3.2-.3h3.5m-1.6-.2h1.9m-13.9 1.6h12.5-12.5zm1.9-.3h10.9m-8.7-.3h9m-7.1-.2h7.1m-5.2-.3h5.4m-3.2-.3h3.5m-1.6-.2h1.9m-1.9 3.8h1.9-1.9zm-1.9-.3h3.5m-5.7-.3h5.4m-7.3-.3h7.1m-9-.2h9m-11.2-.3h10.9m-12.8-.3h12.5m-14.7-.2h14.4m-.2 1.9h1.9-1.9zm-1.9-.3h3.5m-5.7-.3h5.4m-7.3-.3h7.1m-9-.2h9m-11.2-.3h10.9m-12.8-.3h12.5m-14.7-.2h14.4m33.8 0l-16.1 2.2 16.1-2.2zm-16 2.1l1.6-2.2-1.6 2.2zm1.6-2.1l-1.6-2.2 1.6 2.2zm-1.6-2.2l16.1 2.2-16.1-2.2zm.2 4.1h1.9-1.9zm.3-.3h3.5m-3.2-.3h5.4m-5.4-.3h7.4m-7.1-.2h9m-8.8-.3h10.9m-10.6-.3h12.5m-12.5-.2h14.4m-15.8 1.9h1.9-1.9zm.3-.3h3.5m-3.2-.3h5.4m-5.4-.3h7.4m-7.1-.2h9m-8.8-.3h10.9m-10.6-.3h12.5m-12.5-.2h14.4m-14.4-.3h12.5-12.5zm-.3-.3h10.9m-11.1-.3h9m-9.3-.2h7.4m-7.4-.3h5.4m-5.7-.3h3.5m-3.8-.2h1.9m-.5 1.6h12.5-12.5zm-.3-.3h10.9m-11.1-.3h9m-9.3-.2h7.4m-7.4-.3h5.4m-5.7-.3h3.5m-3.8-.2h1.9m-34.3 1.9h48.2-48.2z"/><text transform="matrix(.9397 0 -.342 .9397 157.714 34.386)" fill="#97CCCE" font-family="'GOSTTypeA'" font-size="25.031">3</text><path fill="none" stroke="#97CCCE" stroke-miterlimit="10" d="M171.3 26.4h20.4-20.4z"/><text transform="matrix(.9397 0 -.342 .9397 173.565 19.805)" fill="#97CCCE" font-family="'GOSTTypeA'" font-size="25.031">7</text><text transform="matrix(.9397 0 -.342 .9397 183.776 19.805)" fill="#97CCCE" font-family="'GOSTTypeA'" font-size="25.031">H</text><text transform="matrix(.9397 0 -.342 .9397 164.679 45.969)" fill="#97CCCE" font-family="'GOSTTypeA'" font-size="25.031">6</text><text transform="matrix(.9397 0 -.342 .9397 174.89 45.969)" fill="#97CCCE" font-family="'GOSTTypeA'" font-size="25.031">g</text><text transform="matrix(.9397 0 -.342 .9397 190.286 34.386)" fill="#97CCCE" font-family="'GOSTTypeA'" font-size="25.031">*</text><path fill="none" stroke="#97CCCE" stroke-miterlimit="10" d="M88.8 270.1l1.1-.5-1.1.5zm1.1-.6l-.5-1.1.5 1.1zm-.6-1.1l-1.1.5 1.1-.5zm-1.1.6l.5 1.1-.5-1.1zm.6 1.1l-.3.5.3-.5zm-.3.5l1.9-.8-1.9.8zm1.9-.8l-.5-2.2.5 2.2zm-.5-2.2l-2.2.8 2.2-.8zm-2.2.8l.8 2.2-.8-2.2zm.8 2.2l-.5.8.5-.8zm-.6.8l3.3-1.1-3.3 1.1zm3.3-1l-1.1-3.3 1.1 3.3zm-1.1-3.3l-3.3 1.1 3.3-1.1zm-3.2 1.1l1.1 3.3-1.1-3.3zm-42 97.7L89 269.3l-44.1 96.6zm0 0H0h44.9z"/><text transform="matrix(.9397 0 -.342 .9397 6.455 362.63)" fill="none" stroke="#97CCCE" stroke-miterlimit="10" font-family="'GOSTTypeA'" font-size="35.213">2</text><text transform="matrix(.9397 0 -.342 .9397 20.75 362.63)" fill="none" stroke="#97CCCE" stroke-miterlimit="10" font-family="'GOSTTypeA'" font-size="35.213">1</text><path fill="none" stroke="#97CCCE" stroke-miterlimit="10" d="M333 275.3l9.3 13.3-9.3-13.3zm9.3 13.3l-2.7-.5 2.7.5zm-2.8-.5l-1.1 2.5 1.1-2.5zm-1.1 2.4l-5.4-15.2 5.4 15.2zm2.5-2.2h1.4-1.4zm-1.4-.2h2.5m-2.5-.3h2.2m-2.4-.3h2.5m-2.5-.3h2.2m-2.5-.2h2.2m-2.2-.3h2.2m-2.5-.3h2.2m-2.2-.3h1.9m-2.2-.2h2.2m-2.2-.3h1.9m-2.1-.3h1.9m-1.9-.2h1.6m-1.9-.3h1.9m-1.9-.3h1.6m-1.9-.3h1.6m-1.6-.2h1.6m-1.8-.3h1.6m-1.6-.3h1.4m-1.7-.2h1.6m-1.6-.3h1.4m-1.7-.3h1.4m-1.4-.3h1.4m-1.7-.2h1.4m-1.4-.3h1.1m-1.3-.3h1.1m-1.1-.3h1.1m-1.4-.2h1.1m-1.1-.3h.8m-1.1-.3h1.1m-1.1-.2h.8m-1-.3h.8m-.8-.3h.8m-1.1-.3h.8m-.8-.2h.5m-.8-.3h.8m-.8-.3h.5m-.8-.3h.5m-.5-.2h.3m-.5-.3h.5m-.5-.3h.3m-.6-.2h.3m-.3-.3h.3m-.6-.3h.3m-.6-.5h.3m7.1 12.2h1.4-1.4zm-1.4-.2h2.5m-2.5-.3h2.2m-2.4-.3h2.5m-2.5-.3h2.2m-2.5-.2h2.2m-2.2-.3h2.2m-2.5-.3h2.2m-2.2-.3h1.9m-2.2-.2h2.2m-2.2-.3h1.9m-2.1-.3h1.9m-1.9-.2h1.6m-1.9-.3h1.9m-1.9-.3h1.6m-1.9-.3h1.6m-1.6-.2h1.6m-1.8-.3h1.6m-1.6-.3h1.4m-1.7-.2h1.6m-1.6-.3h1.4m-1.7-.3h1.4m-1.4-.3h1.4m-1.7-.2h1.4m-1.4-.3h1.1m-1.3-.3h1.1m-1.1-.3h1.1m-1.4-.2h1.1m-1.1-.3h.8m-1.1-.3h1.1m-1.1-.2h.8m-1-.3h.8m-.8-.3h.8m-1.1-.3h.8m-.8-.2h.5m-.8-.3h.8m-.8-.3h.5m-.8-.3h.5m-.5-.2h.3m-.5-.3h.5m-.5-.3h.3m-.6-.2h.3m-.3-.3h.3m-.6-.3h.3m-.6-.5h.3m4.6 14.1h.3-.3zm0-.2h.3m-.5-.3h.8m-.8-.3h.8m-.8-.3h1.1m-1.4-.2h1.4m-1.4-.3h1.6m-1.6-.3h1.6m-1.9-.2h1.9m-1.9-.3h1.9m-1.9-.3h1.6m-1.8-.3h1.9m-1.9-.2h1.6m-1.9-.3h1.9m-1.9-.3h1.6m-1.6-.3h1.6m-1.9-.2h1.6m-1.6-.3h1.6m-1.6-.3h1.4m-1.7-.2h1.6m-1.6-.3h1.4m-1.4-.3h1.4m-1.6-.3h1.4m-1.4-.2h1.4m-1.4-.3h1.1m-1.4-.3h1.4m-1.4-.2h1.1m-1.4-.3h1.4m-1.4-.3h1.1m-1.1-.3h1.1m-1.3-.2h1.1m-1.1-.3h1.1m-1.1-.3h.8m-1.1-.3h1.1m-1.1-.2h.8m-.8-.3h.8m-1.1-.3h.8m-.8-.2h.8m-.8-.3h.5m-.8-.3h.8m-.8-.3h.5m-.7-.2h.8m-.8-.3h.5m-.5-.3h.5m-.8-.3h.5m-.5-.2h.5m-.5-.3h.3m-.6-.3h.5m-.5-.2h.3m-.3-.3h.3m-.6-.3h.3m-.3-.3h.3m-.5-.5h.3m4.8 14.4h.3-.3zm0-.2h.3m-.5-.3h.8m-.8-.3h.8m-.8-.3h1.1m-1.4-.2h1.4m-1.4-.3h1.6m-1.6-.3h1.6m-1.9-.2h1.9m-1.9-.3h1.9m-1.9-.3h1.6m-1.8-.3h1.9m-1.9-.2h1.6m-1.9-.3h1.9m-1.9-.3h1.6m-1.6-.3h1.6m-1.9-.2h1.6m-1.6-.3h1.6m-1.6-.3h1.4m-1.7-.2h1.6m-1.6-.3h1.4m-1.4-.3h1.4m-1.6-.3h1.4m-1.4-.2h1.4m-1.4-.3h1.1m-1.4-.3h1.4m-1.4-.2h1.1m-1.4-.3h1.4m-1.4-.3h1.1m-1.1-.3h1.1m-1.3-.2h1.1m-1.1-.3h1.1m-1.1-.3h.8m-1.1-.3h1.1m-1.1-.2h.8m-.8-.3h.8m-1.1-.3h.8m-.8-.2h.8m-.8-.3h.5m-.8-.3h.8m-.8-.3h.5m-.7-.2h.8m-.8-.3h.5m-.5-.3h.5m-.8-.3h.5m-.5-.2h.5m-.5-.3h.3m-.6-.3h.5m-.5-.2h.3m-.3-.3h.3m-.6-.3h.3m-.3-.3h.3m-.5-.5h.3m46.5 90.1L333 275.3l47.1 90.6zm0 0h141.6-141.6z"/><text transform="matrix(.9397 0 -.342 .9397 386.47 357.694)" fill="none" stroke="#97CCCE" stroke-miterlimit="10" font-family="'GOSTTypeA'" font-size="25.031">Ð</text><text transform="matrix(.9397 0 -.342 .9397 396.68 357.694)" fill="none" stroke="#97CCCE" stroke-miterlimit="10" font-family="'GOSTTypeA'" font-size="25.031">à</text><text transform="matrix(.9397 0 -.342 .9397 405.615 357.694)" fill="none" stroke="#97CCCE" stroke-miterlimit="10" font-family="'GOSTTypeA'" font-size="25.031">ç</text><text transform="matrix(.9397 0 -.342 .9397 414.123 357.694)" fill="none" stroke="#97CCCE" stroke-miterlimit="10" font-family="'GOSTTypeA'" font-size="25.031">â</text><text transform="matrix(.9397 0 -.342 .9397 423.058 357.694)" fill="none" stroke="#97CCCE" stroke-miterlimit="10" font-family="'GOSTTypeA'" font-size="25.031">à</text><text transform="matrix(.9397 0 -.342 .9397 431.992 357.694)" fill="none" stroke="#97CCCE" stroke-miterlimit="10" font-family="'GOSTTypeA'" font-size="25.031">ë</text><text transform="matrix(.9397 0 -.342 .9397 440.928 357.694)" fill="none" stroke="#97CCCE" stroke-miterlimit="10" font-family="'GOSTTypeA'" font-size="25.031">ü</text><text transform="matrix(.9397 0 -.342 .9397 449.863 357.694)" fill="none" stroke="#97CCCE" stroke-miterlimit="10" font-family="'GOSTTypeA'" font-size="25.031">ö</text><text transform="matrix(.9397 0 -.342 .9397 460.072 357.694)" fill="none" stroke="#97CCCE" stroke-miterlimit="10" font-family="'GOSTTypeA'" font-size="25.031">å</text><text transform="matrix(.9397 0 -.342 .9397 469.007 357.694)" fill="none" stroke="#97CCCE" stroke-miterlimit="10" font-family="'GOSTTypeA'" font-size="25.031">â</text><text transform="matrix(.9397 0 -.342 .9397 477.942 357.694)" fill="none" stroke="#97CCCE" stroke-miterlimit="10" font-family="'GOSTTypeA'" font-size="25.031">à</text><text transform="matrix(.9397 0 -.342 .9397 486.875 357.694)" fill="none" stroke="#97CCCE" stroke-miterlimit="10" font-family="'GOSTTypeA'" font-size="25.031">ò</text><text transform="matrix(.9397 0 -.342 .9397 499.213 357.694)" fill="none" stroke="#97CCCE" stroke-miterlimit="10" font-family="'GOSTTypeA'" font-size="25.031">ü</text><path fill="none" stroke="#97CCCE" stroke-miterlimit="10" d="M333 227.1l11.7-11.2-11.7 11.2zm11.7-11.2v2.5-2.5zm0 2.4l2.5.8-2.5-.8zm2.5.9l-14.2 7.9 14.2-7.9zm-13.1 7h.3-.3zm.3-.2h.3m-.1-.3h.3m0-.3h.5m-.2-.2h.5m-.2-.3h.5m-.3-.3h.8m-.5-.3h.8m-.5-.2h.8m-.6-.3h1.1m-.8-.3h1.1m-.8-.3h1.1m-.8-.2h1.4m-1.2-.3h1.4m-1.1-.3h1.4m-1.1-.2h1.6m-1.4-.3h1.6m-1.3-.3h1.6m-1-.3h1.6m-1.4-.2h1.6m-1.3-.3h1.6m-1.3-.3h1.9m-1.6-.2h1.9m-1.7-.3h1.9m-1.6-.3h2.2m-1.9-.3h2.2m-2-.2h2.2m-1.9-.3h2.5m-2.2-.3h2.5m-2.2-.3h2.5m-2.3-.2h2.2m-1.9-.3h1.9m-1.6-.3h1.6m-1.3-.2h1.4m-1.2-.3h1.1m-.8-.3h.8m-.5-.3h.5m-.3-.2h.3m-10.6 10h.3-.3zm.3-.2h.3m-.1-.3h.3m0-.3h.5m-.2-.2h.5m-.2-.3h.5m-.3-.3h.8m-.5-.3h.8m-.5-.2h.8m-.6-.3h1.1m-.8-.3h1.1m-.8-.3h1.1m-.8-.2h1.4m-1.2-.3h1.4m-1.1-.3h1.4m-1.1-.2h1.6m-1.4-.3h1.6m-1.3-.3h1.6m-1-.3h1.6m-1.4-.2h1.6m-1.3-.3h1.6m-1.3-.3h1.9m-1.6-.2h1.9m-1.7-.3h1.9m-1.6-.3h2.2m-1.9-.3h2.2m-2-.2h2.2m-1.9-.3h2.5m-2.2-.3h2.5m-2.2-.3h2.5m-2.3-.2h2.2m-1.9-.3h1.9m-1.6-.3h1.6m-1.3-.2h1.4m-1.2-.3h1.1m-.8-.3h.8m-.5-.3h.5m-.3-.2h.3m-10.9 10.3h.3-.3zm.6-.3h.3m-.1-.2h.5m-.2-.3h.5m.1-.3h.5m-.3-.2h.8m-.5-.3h1.1m-.6-.3h1.1m-.8-.3h1.1m-.8-.2h1.4m-.9-.3h1.4m-1.1-.3h1.6m-1.3-.3h1.9m-1.4-.2h1.6m-1.3-.3h1.9m-1.6-.3h2.2m-1.7-.2h2.2m-1.9-.3h2.5m-2.2-.3h2.5m-2-.3h2.5m-2.2-.2h2.7m-2.5-.3h3m-2.4-.3h3m-2.7-.2h3m-2.8-.3h3.3m-2.7-.3h3.3m-3-.3h3.5m-3.3-.2h3.5m-2.9-.3h2.2m-2-.3h1.1m-11.7 7.9h.3-.3zm.6-.3h.3m-.1-.2h.5m-.2-.3h.5m.1-.3h.5m-.3-.2h.8m-.5-.3h1.1m-.6-.3h1.1m-.8-.3h1.1m-.8-.2h1.4m-.9-.3h1.4m-1.1-.3h1.6m-1.3-.3h1.9m-1.4-.2h1.6m-1.3-.3h1.9m-1.6-.3h2.2m-1.7-.2h2.2m-1.9-.3h2.5m-2.2-.3h2.5m-2-.3h2.5m-2.2-.2h2.7m-2.5-.3h3m-2.4-.3h3m-2.7-.2h3m-2.8-.3h3.3m-2.7-.3h3.3m-3-.3h3.5m-3.3-.2h3.5m-2.9-.3h2.2m-2-.3h1.1m34.6 147.3l21-188.7-21 188.7zm21-188.7L333 227.1l68.1-49.9z"/></svg>