<svg xmlns="http://www.w3.org/2000/svg" viewBox="0 0 648.6 500.3"><path fill="none" stroke="#97CCCE" stroke-miterlimit="10" d="M338.8 236.4l11.4 19.6-11.4-19.6zm13.4 22.9l2.2 4-2.2-4zm3.9 7.2l11.4 19.6-11.4-19.6zm13.4 23.1l2.2 3.7-2.2-3.7zm4.2 7l11.2 19.8-11.2-19.8zm13.2 23.1l2.2 3.7-2.2-3.7zm4.2 7l11.4 19.8-11.4-19.8zm-52.3-81.3l11.4-19.8-11.4 19.8zm13.4-23l2.2-3.7-2.2 3.7zm3.9-7.3l11.4-19.6-11.4 19.6zm13.4-23l2.2-3.7-2.2 3.7zm4.2-7.1l11.2-19.6-11.2 19.6zm13.2-23l2.2-3.7-2.2 3.7zm4.2-7.1l11.4-19.8-11.4 19.8zm-49.7 162.8l8.1-.4-8.1.4zm8.2-.4l8.1-1.3-8.1 1.3zm8.1-1.4l7.9-2.2-7.9 2.2zm7.9-2.2l7.7-3.1-7.7 3.1zm7.7-3l7.2-3.7-7.2 3.7zm7.2-3.8l6.8-4.6-6.8 4.6zm6.8-4.6l6.4-5.3-6.4 5.3zm6.4-5.2l5.7-5.9-5.7 5.9zm5.7-6l5.1-6.4-5.1 6.4zm5.1-6.3l4.4-7-4.4 7zm4.4-7.1l3.5-7.5-3.5 7.5zm3.5-7.4l2.6-7.7-2.6 7.7zm2.6-7.7l2-7.9-2 7.9zm2-7.9l1.1-8.1-1.1 8.1zm1.1-8.2v-8.3 8.3zm0-8.3l-.7-8.1.7 8.1zm-.7-8.1l-1.5-8.1 1.5 8.1zm-1.5-8.2l-2.4-7.7 2.4 7.7zm-2.4-7.7l-3.3-7.7 3.3 7.7zm-3.3-7.7l-4-7 4 7zm-4-7l-4.8-6.8 4.8 6.8zm-4.8-6.8l-5.5-5.9 5.5 5.9zm-5.5-5.9l-6.2-5.5 6.2 5.5zm-6.1-5.5l-6.6-4.8 6.6 4.8zm-6.6-4.8l-7-4.2 7 4.2zm-7.1-4.2l-7.7-3.3 7.7 3.3zm-7.7-3.3l-7.7-2.4 7.7 2.4zm-7.6-2.4l-8.1-1.8 8.1 1.8zm-8.2-1.8l-8.1-.7 8.1.7zm-8.1-.6h-8.3 8.3zm-8.3 0l-8.1 1.1 8.1-1.1zm-8.2 1.1l-7.9 1.8 7.9-1.8zm-7.9 1.7l-7.7 2.9 7.7-2.9zm-7.7 2.9l-7.5 3.5 7.5-3.5zm-7.4 3.5l-7 4.2 7-4.2zm-7.1 4.2l-6.6 5.1 6.6-5.1zm-6.6 5l-5.9 5.7 5.9-5.7zm-5.9 5.7l-5.3 6.2 5.3-6.2zm-5.3 6.2l-4.6 6.8 4.6-6.8zm-4.6 6.8l-3.7 7.2 3.7-7.2zm-3.7 7.2l-3.1 7.7 3.1-7.7zm-3.1 7.7l-2.2 7.9 2.2-7.9zm-2.2 7.9l-1.3 8.1 1.3-8.1zm-1.3 8.1l-.7 8.1.7-8.1zm-.7 8.2l.4 8.3-.4-8.3zm.5 8.3l1.3 8.1-1.3-8.1zm1.3 8.2l2.2 7.9-2.2-7.9zm2.2 7.9l2.9 7.5-2.9-7.5zm2.9 7.4l3.7 7.5-3.7-7.5zm3.7 7.5l4.6 6.8-4.6-6.8zm4.6 6.8l5.3 6.4-5.3-6.4zm5.3 6.4l5.7 5.7-5.7-5.7zm5.7 5.7l6.6 5.1-6.6-5.1zm6.6 5l6.8 4.4-6.8-4.4zm6.8 4.4l7.5 3.5-7.5-3.5zm7.5 3.5l7.7 2.9-7.7-2.9zm7.6 2.9l8.1 2-8.1-2zm8.2 2l8.1 1.1-8.1-1.1zm8.1 1.1l5.9.2-5.9-.2zm5.9 40.2l10.1-.4-10.1.4zm10.1-.5l10.1-1.3-10.1 1.3zm10.1-1.3l9.9-2.2-9.9 2.2zm9.9-2.2l9.7-3.1-9.7 3.1zm9.7-3l9.2-4-9.2 4zm9.2-4l9-4.6-9 4.6zm9-4.6l8.6-5.3-8.6 5.3zm8.6-5.3l8.1-6.2-8.1 6.2zm8.1-6.1l7.5-6.8-7.5 6.8zm7.5-6.8l6.8-7.5-6.8 7.5zm6.8-7.5l6.4-8.1-6.4 8.1zm6.4-8.1l5.5-8.3-5.5 8.3zm5.5-8.4l4.6-9-4.6 9zm4.6-9l4-9.4-4 9.4zm3.9-9.4l3.1-9.4-3.1 9.4zm3.1-9.5l2.4-9.9-2.4 9.9zm2.4-9.9l1.3-10.1-1.3 10.1zm1.3-10.1l.7-10.1-.7 10.1zm.7-10.1l-.4-10.1.4 10.1zm-.4-10.1l-1.3-10.1 1.3 10.1zm-1.4-10.1l-2-9.9 2 9.9zm-1.9-9.9l-3.1-9.7 3.1 9.7zm-3.1-9.6l-3.7-9.4 3.7 9.4zm-3.8-9.5l-4.4-9 4.4 9zm-4.3-9l-5.5-8.6 5.5 8.6zm-5.5-8.6L432 167l5.9 8.1zm-6-8.1l-6.8-7.7 6.8 7.7zm-6.8-7.7l-7.5-6.8 7.5 6.8zm-7.4-6.8l-7.9-6.4 7.9 6.4zm-8-6.4l-8.3-5.5 8.3 5.5zm-8.3-5.5l-9-4.8 9 4.8zm-9-4.8l-9.2-4 9.2 4zm-9.2-3.9l-9.7-3.3 9.7 3.3zm-9.7-3.3l-9.9-2.4 9.9 2.4zm-9.9-2.4l-9.9-1.3 9.9 1.3zm-9.9-1.4l-10.1-.7 10.1.7zm-10.1-.6l-10.1.2 10.1-.2zm-10.1.2l-10.1 1.1 10.1-1.1zm-10.1 1.1l-9.9 2 9.9-2zm-9.9 2l-9.9 2.9 9.9-2.9zm-9.9 2.8l-9.2 3.7 9.2-3.7zm-9.2 3.8l-9.2 4.4 9.2-4.4zm-9.2 4.4l-8.6 5.3 8.6-5.3zm-8.6 5.2l-8.1 5.9 8.1-5.9zm-8.1 6l-7.7 6.8 7.7-6.8zm-7.7 6.8l-7 7.2 7-7.2zm-7 7.2l-6.4 7.9 6.4-7.9zm-6.4 7.9l-5.7 8.3 5.7-8.3zm-5.7 8.4l-4.8 9 4.8-9zm-4.8 9l-4.2 9.2 4.2-9.2zm-4.2 9.2l-3.3 9.4 3.3-9.4zm-3.3 9.4l-2.4 9.9 2.4-9.9zm-2.4 9.9l-1.5 10.1 1.5-10.1zm-1.6 10.1l-.7 10.1.7-10.1zm-.6 10.1v10.1-10.1zm0 10.1l1.1 9.9-1.1-9.9zm1.1 9.9l2 10.1-2-10.1zm2 10.1l2.6 9.7-2.6-9.7zm2.6 9.7l3.7 9.4-3.7-9.4zm3.7 9.4l4.4 9.2-4.4-9.2zm4.4 9.3l5.1 8.6-5.1-8.6zm5.1 8.5l5.9 8.3-5.9-8.3zm5.9 8.4l6.6 7.7-6.6-7.7zm6.6 7.7l7.2 7-7.2-7zm7.2 7l7.9 6.4-7.9-6.4zm8 6.4l8.3 5.7-8.3-5.7zm8.3 5.7l8.8 5.1-8.8-5.1zm8.8 5l9.2 4.2-9.2-4.2zm9.2 4.2l9.7 3.3-9.7-3.3zm9.7 3.3l9.7 2.6-9.7-2.6zm9.6 2.6l10.1 1.8L317 355zm10.2 1.8l10.1.7-10.1-.7zm10.1.7l4.2.2-4.2-.2zm35.3-6.8l-5.3-.9 5.3.9zm-5.3-.9l-4.8-1.5 4.8 1.5zm-4.8-1.6l-4.6-2.6 4.6 2.6zm-4.6-2.6l-4.2-3.1 4.2 3.1zm-4.2-3.1l-3.5-4 3.5 4zm-3.5-3.9l-2.2-3.3 2.2 3.3zm-25-172.7l4.8-1.5-4.8 1.5zm4.8-1.5l4.8-2.4-4.8 2.4zm4.8-2.4l4.2-3.1-4.2 3.1zm4.2-3.1l3.5-3.7-3.5 3.7zm3.5-3.8l2.9-4.2-2.9 4.2zm-111.8 57.8l3.3-4.2-3.3 4.2zm3.3-4.2l4-3.3-4 3.3zm4-3.2l4.4-2.9-4.4 2.9zm4.4-2.9l4.8-2-4.8 2zm4.8-2l5.3-1.1-5.3 1.1zm5.3-1.1l4-.2-4 .2zm3.9 82.8l-5.3-.4 5.3.4zm-5.3-.4l-5.1-1.3 5.1 1.3zm-5-1.3l-4.6-2.2 4.6 2.2zm-4.6-2.2l-4.4-2.9 4.4 2.9zm-4.4-2.9l-3.7-3.5 3.7 3.5zm-3.7-3.5l-2.6-3.3 2.6 3.3zm181.2-54.5l2.2 7.9-2.2-7.9zm2.2 7.9l1.1 8.1-1.1-8.1zm1.1 8.2l.4 8.1-.4-8.1zm.4 8.1l-.7 8.3.7-8.3zm-.6 8.3l-1.3 7.9 1.3-7.9zm-1.4 8l-1.8 6.2 1.8-6.2zM348 146.6l2.9-4.4-2.9 4.4zm2.9-4.4l3.7-3.7-3.7 3.7zm3.7-3.7l4.2-3.1-4.2 3.1zm4.2-3.1l4.8-2.2-4.8 2.2zm4.8-2.2l4.8-1.5-4.8 1.5zm4.8-1.6l4.2-.7-4.2.7zm-23 199.1l-2.9-4.2 2.9 4.2zm-2.9-4.2l-1.1-1.1 1.1 1.1zm-17.3-10.6l-7.9-2.2 7.9 2.2zm-7.9-2.2l-7.7-3.1 7.7 3.1zm-7.7-3l-7.2-3.7 7.2 3.7zm-7.3-3.8l-6.8-4.6 6.8 4.6zm-6.8-4.6l-6.4-5.3 6.4 5.3zm-6.4-5.2l-4.6-4.6 4.6 4.6zM372.6 131l-9.9-2.2 9.9 2.2zm-9.9-2.2l-9.9-1.5 9.9 1.5zm-9.8-1.6l-9.9-.7 9.9.7zm-9.9-.6l-10.1.4 10.1-.4zm-10.1.4l-9.9 1.1 9.9-1.1zm-9.9 1.1l-9.9 2.2 9.9-2.2zm-9.9 2.2l-9.4 2.9 9.4-2.9zm-9.5 2.9l-9.4 3.7 9.4-3.7zm-9.4 3.7l-8.8 4.4 8.8-4.4zm-8.8 4.4l-8.6 5.5 8.6-5.5zm-8.6 5.5l-7.9 5.9 7.9-5.9zm-7.9 5.9l-7.5 6.6 7.5-6.6zm-7.4 6.6l-6.8 7.5 6.8-7.5zm-6.8 7.5l-6.2 7.9 6.2-7.9zm-6.2 7.9L243 183l5.5-8.3zM243 183l-4.6 8.8 4.6-8.8zm-4.6 8.8l-4 9.2 4-9.2zm-3.9 9.3l-3.1 9.7 3.1-9.7zm-3.1 9.6l-.7 2.2.7-2.2zm110 144.3l10.1-.4-10.1.4zm10.1-.4l9.9-1.3-9.9 1.3zm9.9-1.3l9.7-2.2-9.7 2.2zm9.7-2.2l1.5-.4-1.5.4zm-86.6-161.9l5.9-5.7-5.9 5.7zm6-5.7l6.4-5.3-6.4 5.3zm6.3-5.3l7-4.4-7 4.4zm7.1-4.4l7.2-3.5-7.2 3.5zm7.2-3.5l7.9-2.9-7.9 2.9zm7.9-2.9l6.2-1.5-6.2 1.5zm-34.5 125l-3.7-3.5 3.7 3.5zm-3.7-3.5l-4.4-2.9 4.4 2.9zm-4.4-2.8l-4.8-2 4.8 2zm-4.8-2l-5.1-1.3 5.1 1.3zm-5.1-1.3l-4.8-.4 4.8.4zm-35.8-14.1l2.9 9.7-2.9-9.7zm2.9 9.7l3.7 9.2-3.7-9.2zm3.7 9.2l4.6 9-4.6-9zm4.6 9l5.3 8.6-5.3-8.6zm5.3 8.6l5.9 7.9-5.9-7.9zm5.9 7.9l6.6 7.5-6.6-7.5zm6.6 7.5l7.5 7-7.5-7zm7.5 7l7.7 6.2-7.7-6.2zm7.7 6.1l8.6 5.5-8.6-5.5zm8.5 5.5l8.8 4.6-8.8-4.6zm8.8 4.6l9.2 4-9.2-4zm9.2 4l9.4 3.1-9.4-3.1zm9.5 3.1l9.9 2.2-9.9-2.2zm9.9 2.2l9.9 1.3-9.9-1.3zm9.9 1.3l9.9.7-9.9-.7zm9.9.6h.9-.9zm76.6-162.5l-2.2 4.6 2.2-4.6zm-2.2 4.6l-1.3 5.1 1.3-5.1zm-1.3 5.1l-.7 5.3.7-5.3zm-.7 5.2l.4 5.3-.4-5.3zm.5 5.3l1.1 4.8-1.1-4.8zm6.4 81.1l2.2 4.6-2.2-4.6zm2.1 4.6l1.5 5.1-1.5-5.1zm1.6 5l.4 5.3-.4-5.3zm.4 5.3l-.2 5.3.2-5.3zm-.2 5.3l-1.3 5.1 1.3-5.1zm-1.3 5l-1.5 3.7 1.5-3.7zM348 335.3l-2.6-4.6 2.6 4.6zM341.4 109l-10.8.4 10.8-.4zm-10.7.5l-10.5 1.3 10.5-1.3zm-10.6 1.3l-10.5 2.2 10.5-2.2zm-10.5 2.2l-10.3 3.1 10.3-3.1zm-10.3 3l-10.1 3.7 10.1-3.7zm-10.2 3.8l-9.7 4.8 9.7-4.8zm-9.6 4.8l-9.4 5.3 9.4-5.3zm-9.5 5.3l-8.8 6.4 8.8-6.4zm-8.7 6.4l-8.1 6.8 8.1-6.8zm-8.2 6.8l-7.7 7.5 7.7-7.5zm-7.7 7.4l-7 8.1 7-8.1zm-7 8.2l-6.4 8.8 6.4-8.8zm-6.4 8.7l-5.7 9.2 5.7-9.2zm-5.7 9.3l-4.8 9.4 4.8-9.4zm-4.8 9.4l-4 10.1 4-10.1zm-4 10.1l-3.3 10.1 3.3-10.1zm-3.3 10.1l-2.4 10.5 2.4-10.5zm-2.4 10.6l-1.5 10.8 1.5-10.8zm-1.5 10.7l-.7 10.8.7-10.8zm-.7 10.8l.2 10.5-.2-10.5zm.2 10.5l1.1 10.8-1.1-10.8zm1.1 10.8l2 10.5-2-10.5zm2 10.6l2.9 10.5-2.9-10.5zm2.9 10.5l3.7 10.1-3.7-10.1zm3.7 10.1l4.4 9.7-4.4-9.7zm4.4 9.7l5.3 9.4-5.3-9.4zm5.3 9.4l6.2 8.8-6.2-8.8zm6.1 8.8l6.6 8.6-6.6-8.6zm6.6 8.6l7.5 7.7-7.5-7.7zm7.5 7.7l7.9 7.2-7.9-7.2zm7.9 7.2l8.6 6.6-8.6-6.6zm8.6 6.6l9 5.7-9-5.7zm9 5.7l9.7 5.1-9.7-5.1zm9.6 5.1l9.9 4.4-9.9-4.4zm9.9 4.3l10.1 3.3-10.1-3.3zm10.1 3.3l10.5 2.6-10.5-2.6zm10.6 2.7l10.5 1.8-10.5-1.8zm10.5 1.7l10.8.9-10.8-.9zm10.8.9h5.1-5.1zm9-221.6l2.6-4.4-2.6 4.4zm-4 221.6l10.8-.4-10.8.4zm10.8-.4l10.8-1.3-10.8 1.3zm10.8-1.3l10.5-2.2-10.5 2.2zm10.5-2.2l10.3-3.1-10.3 3.1zm10.3-3.1l9.9-3.7-9.9 3.7zm9.9-3.7l9.7-4.6-9.7 4.6zm9.7-4.7l9.4-5.5-9.4 5.5zm9.4-5.5l8.8-6.2-8.8 6.2zm8.8-6.1l8.1-7-8.1 7zm8.1-7l7.7-7.5-7.7 7.5zm7.7-7.5l7-8.1-7 8.1zm7.1-8.1l6.4-8.8-6.4 8.8zm6.3-8.8l5.7-9-5.7 9zm5.7-9l4.8-9.7-4.8 9.7zm4.9-9.7l4.2-9.9-4.2 9.9zm4.1-9.9l3.1-10.3-3.1 10.3zm3.1-10.3l2.4-10.5-2.4 10.5zm2.4-10.5l1.5-10.5-1.5 10.5zm1.6-10.6l.7-10.8-.7 10.8zm.6-10.7l-.2-10.8.2 10.8zm-.2-10.8l-1.1-10.8 1.1 10.8zm-1.1-10.8l-2-10.5 2 10.5zm-2-10.5l-2.9-10.3 2.9 10.3zm-2.8-10.3l-3.7-10.1 3.7 10.1zm-3.8-10.1l-4.4-9.9 4.4 9.9zm-4.3-9.9l-5.3-9.4 5.3 9.4zm-5.3-9.5l-6.2-8.8 6.2 8.8zm-6.2-8.8l-6.6-8.6 6.6 8.6zm-6.6-8.5l-7.5-7.7 7.5 7.7zm-7.4-7.7l-7.9-7.2 7.9 7.2zm-7.9-7.3l-8.6-6.6 8.6 6.6zm-8.6-6.6l-9-5.7 9 5.7zm-9-5.7l-9.7-5.1 9.7 5.1zm-9.7-5l-9.9-4.2 9.9 4.2zm-9.9-4.2l-10.1-3.5 10.1 3.5zm-10.1-3.5l-10.5-2.6 10.5 2.6zm-10.5-2.6l-10.5-1.8 10.5 1.8zm-10.6-1.8l-10.8-.7 10.8.7zm-10.7-.7l-5.1-.2 5.1.2zm73.4 78.9l-2.6 4.4 2.6-4.4zm-158.2 11.2l5.1-.4-5.1.4zm5-.4l5.1-1.3-5.1 1.3zm5.1-1.4l4.8-2-4.8 2zm4.8-1.9l4.4-3.1-4.4 3.1zm4.4-3.1l3.5-3.3-3.5 3.3zm60.4 183.2l-10.8-.4 10.8.4zm-10.7-.4l-11-1.3 11 1.3zm-11-1.4l-10.5-2.2 10.5 2.2zm-10.6-2.2l-10.5-2.9 10.5 2.9zm-10.5-2.8l-10.1-4 10.1 4zm-10.1-4l-9.9-4.6 9.9 4.6zm-9.9-4.6l-9.4-5.5 9.4 5.5zm-9.4-5.5l-9-6.2 9 6.2zm-9-6.1l-8.3-7 8.3 7zm-8.4-7.1l-7.9-7.5 7.9 7.5zm-7.9-7.4l-7-8.1 7 8.1zm-7-8.2l-6.6-8.8 6.6 8.8zm-6.6-8.7l-5.7-9.2 5.7 9.2zm-5.7-9.3l-5.1-9.7 5.1 9.7zm-5.1-9.6l-4.4-9.9 4.4 9.9zm-4.4-9.9l-3.3-10.3 3.3 10.3zm-3.3-10.3l-2.6-10.8 2.6 10.8zm-2.6-10.8l-1.8-10.8 1.8 10.8zm-1.8-10.8l-.9-10.8.9 10.8zm-.8-10.7v-11 11zm0-11l1.1-10.8-1.1 10.8zm1.1-10.8l1.8-10.8-1.8 10.8zm1.7-10.7l2.6-10.5-2.6 10.5zm2.6-10.6l3.5-10.3-3.5 10.3zm3.6-10.3l4.2-9.9-4.2 9.9zm4.1-9.9l5.1-9.7-5.1 9.7zm5.1-9.7l5.9-9.2-5.9 9.2zm5.9-9.2l6.6-8.6-6.6 8.6zm6.6-8.6l7.2-8.1-7.2 8.1zm7.3-8.1l7.9-7.5-7.9 7.5zm7.9-7.5l8.3-7-8.3 7zm8.3-7l9-6.2-9 6.2zm9-6.1l9.4-5.3-9.4 5.3zm9.5-5.3l9.9-4.6-9.9 4.6zm9.8-4.6l10.3-3.7-10.3 3.7zm10.4-3.7l10.3-3.1-10.3 3.1zm10.3-3.1l10.8-2.2-10.8 2.2zm10.8-2.2l10.8-1.1-10.8 1.1zm10.7-1.1l10.1-.4-10.1.4zm89.6 52.5l2 5.1-2-5.1zm2 5l.9 5.1-.9-5.1zm.9 5.1l.2 5.3-.2-5.3zm.2 5.3l-.7 5.1.7-5.1zm-.6 5l-1.8 5.1 1.8-5.1zm-1.8 5.1l-1.8 3.7 1.8-3.7zm-80.2 141l-3.7-3.7 3.7 3.7zm-3.7-3.7l-4.4-2.9 4.4 2.9zm-4.4-2.9l-4.8-2 4.8 2zm-4.8-2l-3.3-.9 3.3.9zm92.4 6l6.8-7.2-6.8 7.2zm6.9-7.3l6.4-7.9-6.4 7.9zm6.3-7.9l5.5-8.3-5.5 8.3zm5.5-8.4l4.6-8.8-4.6 8.8zm4.6-8.7l4-9.2-4 9.2zm4-9.3l3.1-9.7-3.1 9.7zm3.1-9.6l2.4-9.7-2.4 9.7zm2.4-9.7l1.3-9.9-1.3 9.9zm1.3-9.9l.7-10.1-.7 10.1zm.7-10.1l-.4-9.9.4 9.9zm-.5-9.9l-1.1-9.9 1.1 9.9zm-1.1-9.9l-2.2-9.9 2.2 9.9zm-2.2-9.8l-2.9-9.7 2.9 9.7zm-2.8-9.7l-3.7-9.2 3.7 9.2zm-3.8-9.2l-4.6-8.8 4.6 8.8zm-4.6-8.8l-5.3-8.6 5.3 8.6zm-5.3-8.6l-6.2-7.9 6.2 7.9zm-6.1-7.9l-6.6-7.5 6.6 7.5zm-6.6-7.5l-1.8-1.8 1.8 1.8zm-11-13.1l-8.3-5.7 8.3 5.7zm-8.3-5.8l-8.8-4.8 8.8 4.8zm-8.8-4.8l-7.5-3.5 7.5 3.5zm17.1 197.3l3.7-3.5-3.7 3.5zm3.8-3.5l3.3-4.2-3.3 4.2zm3.3-4.2l2.2-3.7-2.2 3.7zm-4.2-62.4l-1.1 5.3 1.1-5.3zm-1.1 5.3l-.4 5.1.4-5.1zm-.5 5l.7 5.3-.7-5.3zm.7 5.3l1.5 5.1-1.5-5.1zm1.5 5.1l2 4.4-2-4.4zm-184.5-71.9l-2.6 4.6 2.6-4.6zm-2.6 4.6l-1.8 4.8 1.8-4.8zm-1.8 4.9l-.9 4.4.9-4.4zm-.9 4.4l-.7 10.1.7-10.1zm-.6 10.1V247v-10.1zm0 10.1l.7 8.1-.7-8.1zm116.6-141.1l11 .4-11-.4zm11 .5l10.8 1.3-10.8-1.3zm10.8 1.3l10.5 2.2-10.5-2.2zm10.5 2.2l10.5 3.1-10.5-3.1zm10.6 3.1l10.1 3.7-10.1-3.7zm10.1 3.7l9.9 4.8-9.9-4.8zm9.9 4.8l9.4 5.3-9.4-5.3zm9.4 5.3l9 6.4-9-6.4zm9 6.4l8.3 6.8-8.3-6.8zm8.4 6.8l7.9 7.5-7.9-7.5zm7.9 7.5l7 8.1-7-8.1zm7 8.1l6.6 8.8-6.6-8.8zm6.6 8.8l5.9 9.2-5.9-9.2zm5.9 9.2l4.8 9.7-4.8-9.7zm4.8 9.7l4.4 10.1-4.4-10.1zm4.4 10.1l3.3 10.3-3.3-10.3zm3.3 10.3l2.6 10.5-2.6-10.5zm2.7 10.5l1.8 10.8-1.8-10.8zm1.7 10.8l.9 10.8-.9-10.8zm.9 10.8v11-11zm0 10.9l-.9 10.8.9-10.8zm-.9 10.8l-2 10.8 2-10.8zm-2 10.8l-2.6 10.5 2.6-10.5zm-2.6 10.5l-3.3 10.3 3.3-10.3zm-3.3 10.3l-4.4 10.1 4.4-10.1zm-4.4 10.1l-5.1 9.4 5.1-9.4zm-5 9.5l-5.9 9.2 5.9-9.2zm-6 9.2l-6.6 8.8 6.6-8.8zm-6.5 8.8l-7.2 8.1 7.2-8.1zm-7.3 8.1l-7.9 7.5 7.9-7.5zm-7.9 7.5l-8.3 6.8 8.3-6.8zm-8.4 6.8l-9 6.2 9-6.2zm-9 6.2l-9.4 5.3 9.4-5.3zm-9.4 5.2l-9.9 4.6 9.9-4.6zm-9.9 4.6l-10.3 4 10.3-4zm-10.3 4l-10.3 2.9 10.3-2.9zm-10.3 2.9l-10.8 2.2 10.8-2.2zm-10.8 2.2l-10.8 1.3 10.8-1.3zm-10.8 1.3l-10.1.2 10.1-.2zm21.1-24.8l2.4.2-2.4-.2zm48.3-191.8l-2.6-4.4 2.6 4.4zm-2.6-4.4l-3.3-4 3.3 4zm-3.3-4l-3.3-3.1 3.3 3.1zm2.2 138.6l2.6 4.6-2.6-4.6zm-30.1 59.1l9.2-4.4-9.2 4.4zm9.2-4.4l8.6-5.1-8.6 5.1zm8.6-5l6.8-4.6-6.8 4.6zM256.4 199.3h5.3-5.3zM375 350.9l5.1-.4-5.1.4zm5.1-.5l5.1-1.3-5.1 1.3zm5-1.3l2-.9-2 .9zm-123.4-66.8h-5.3 5.3zm-36.3-27.2l1.1 5.1-1.1-5.1zm1.1 5l2 4.8-2-4.8zm2 4.9l2.2 3.7-2.2-3.7zm158.6-131.6l-5.1-1.5 5.1 1.5zm-5-1.5l-5.1-.9 5.1.9zm-5.1-.9h-4.4 4.4zm-35.6 250v-30.1V381zm0-33.9v-4 4zm0-7.9v-30.1 30.1zm0-33.8v-4 4zm0-7.9v-29.9 29.9zm0-33.8v-4 4zm0-7.9v-14.9 14.9zm0-155.1v30.1-30.1zm0 34v3.7-3.7zm0 7.7v30.1-30.1zm0 34.1v3.7-3.7zm0 7.6v30.1-30.1zm0 33.9v4-4zm0 7.9v14.9-14.9zm140.2 14.9h-30.1 30.1zm-34.1 0h-3.7 3.7zm-7.7 0h-30.1 30.1zm-33.8 0h-4 4zm-7.9 0h-29.9 29.9zm-33.8 0h-4 4zm-7.9 0h-14.9 14.9zm-155.1 0h30.1-30.1zm34 0h3.7-3.7zm7.7 0h30.1H243zm33.8 0h4-4zm8 0h30.1-30.1zm33.8 0h4-4zm7.9 0h14.9-14.9z"/><text transform="matrix(0 .9397 -.9397 -.342 524.056 252.415)" fill="none" stroke="#97CCCE" stroke-miterlimit="10" font-family="'GOSTTypeA'" font-size="28.408">À</text><text transform="matrix(0 .9397 -.9397 -.342 189.75 34.126)" fill="#97CCCE" font-family="'GOSTTypeA'" font-size="28.408">À</text><path fill="none" stroke="#97CCCE" stroke-miterlimit="10" d="M525.1 240.8h-25.9 25.9zm-170.7 0h-13 13zm-13 0l-6.4-11.2 6.4 11.2zM238.2 62l-13-22.4 13 22.4zm280.3 178.8l1.5 11.6-1.5-11.6zm1.5 11.7l-1.5-1.1 1.5 1.1zm-1.5-1.1l-1.5 1.1 1.5-1.1zm-1.6 1.1l1.5-11.6-1.5 11.6zm1.8-9.9v9-9zm.2 1.7v7.5m.2-5.9v6.2m.3-4.5v4.4m.2-2.8v3.1m.2-1.4v1.5m-1.1-9.8v9-9zm.2 1.7v7.5m.2-5.9v6.2m.3-4.5v4.4m.2-2.8v3.1m.2-1.4v1.5m-2.6-1.5v1.5-1.5zm.2-1.7v3.1m.2-4.7v4.4m.2-6.1v6.2m.2-7.8v7.5m.3-9.2v9m.2-10.8v10.5m-1.3-.4v1.5-1.5zm.2-1.7v3.1m.2-4.7v4.4m.2-6.1v6.2m.2-7.8v7.5m.3-9.2v9m.2-10.8v10.5m0 20.7v-31.2V272zm-290-226.7l-9.4 7 9.4-7zm-9.4 7l.4-1.8-.4 1.8zm.4-1.7l-2-.9 2 .9zm-2-.9l11-4.4-11 4.4zm1.8 1.8v.9-.9zm.2-.9v1.5m.2-1.5v1.3m.3-1.5v1.5m.2-1.5v1.3m.2-1.6v1.3m.2-1.3v1.1m.2-1.3v1.3m.3-1.5V51m.2-1.3v1.1m.2-1.3v1.1m.2-1.1v1.1m.2-1.3v1.1m.2-1.4v1.1m.3-1.1v.9m.2-1.1v1.1m.2-1.1v.9m.2-1.1v.9m.2-.9v.7m.3-.9v.9m.2-1.1v.8m.2-.8v.7m.2-1v.7m.2-.7v.7m.3-.9v.7m.2-.9v.7m.2-.7v.4m.2-.6v.7m.2-.7v.4m.3-.6v.4m.2-.4v.2m.2-.4v.4m.2-.7v.4m.2-.4v.2m.3-.4v.2m.2-.2v.2m.2-.4v.2m.2-.4v.2m.5-.4v.2m-8.6 5.5v.9-.9zm.2-.9v1.5m.2-1.5v1.3m.3-1.5v1.5m.2-1.5v1.3m.2-1.6v1.3m.2-1.3v1.1m.2-1.3v1.3m.3-1.5V51m.2-1.3v1.1m.2-1.3v1.1m.2-1.1v1.1m.2-1.3v1.1m.2-1.4v1.1m.3-1.1v.9m.2-1.1v1.1m.2-1.1v.9m.2-1.1v.9m.2-.9v.7m.3-.9v.9m.2-1.1v.8m.2-.8v.7m.2-1v.7m.2-.7v.7m.3-.9v.7m.2-.9v.7m.2-.7v.4m.2-.6v.7m.2-.7v.4m.3-.6v.4m.2-.4v.2m.2-.4v.4m.2-.7v.4m.2-.4v.2m.3-.4v.2m.2-.2v.2m.2-.4v.2m.2-.4v.2m.5-.4v.2m-10.1 3.7v.2-.2zm.2 0v.2m.2-.4v.7m.2-.7v.7m.2-.9v1.1m.3-1.1v1.1m.2-1.1v1.3m.2-1.6v1.5m.2-1.5v1.5m.2-1.7v1.8m.3-1.8v1.5m.2-1.5v1.5m.2-1.7v1.5m.2-1.5v1.5m.2-1.7v1.5m.3-1.5v1.3m.2-1.3v1.3m.2-1.5v1.3m.2-1.3v1.3m.2-1.6v1.3m.2-1.3V49m.3-1.1V49m.2-1.3v1.1m.2-1.1v1.1m.2-1.3v1.1m.2-1.1v1.1m.3-1.1v.9m.2-1.1v.9m.2-.9v.9m.2-1.1v.9m.2-.9v.9m.3-.9v.7m.2-.9v.7m.2-.7v.7m.2-1v.7m.2-.7v.7m.3-.7v.4m.2-.6v.7m.2-.7v.4m.2-.6v.4m.2-.4v.4m.3-.4v.2m.2-.4v.4m.2-.4v.2m.2-.4v.2m.2-.2v.2m.5-.5v.2m-10.3 4v.2-.2zm.2 0v.2m.2-.4v.7m.2-.7v.7m.2-.9v1.1m.3-1.1v1.1m.2-1.1v1.3m.2-1.6v1.5m.2-1.5v1.5m.2-1.7v1.8m.3-1.8v1.5m.2-1.5v1.5m.2-1.7v1.5m.2-1.5v1.5m.2-1.7v1.5m.3-1.5v1.3m.2-1.3v1.3m.2-1.5v1.3m.2-1.3v1.3m.2-1.6v1.3m.2-1.3V49m.3-1.1V49m.2-1.3v1.1m.2-1.1v1.1m.2-1.3v1.1m.2-1.1v1.1m.3-1.1v.9m.2-1.1v.9m.2-.9v.9m.2-1.1v.9m.2-.9v.9m.3-.9v.7m.2-.9v.7m.2-.7v.7m.2-1v.7m.2-.7v.7m.3-.7v.4m.2-.6v.7m.2-.7v.4m.2-.6v.4m.2-.4v.4m.3-.4v.2m.2-.4v.4m.2-.4v.2m.2-.4v.2m.2-.2v.2m.5-.5v.2m-26.6 15.2l27-15.6-27 15.6zm198.4 281l73.6 127.6-73.6-127.6zm70.9 123.2l-6.2 4.6 6.2-4.6zm-6.1 4.6l.2-1.3-.2 1.3zm.2-1.3l-1.3-.4 1.3.4zm-1.3-.4l7.2-2.9-7.2 2.9zm1.3.4v1.3-1.3zm.2 0v1.1m.2-1.3v1.1m.2-1.1v.9m.3-1.1v1.1m.2-1.1v.9m.2-1.2v.9m.2-.9v.7m.2-.9v.9m.3-1.1v.9m.2-.9v.7m.2-.9v.7m.2-.7v.7m.2-.9v.7m.3-.7v.4m.2-.7v.4m.2-.4v.4m.2-.6v.4m.2-.6v.4m.3-.4v.2m.2-.4v.4m.2-.4v.2m.2-.4v.2m.5-.5v.2m-5.3 2.7v1.3-1.3zm.2 0v1.1m.2-1.3v1.1m.2-1.1v.9m.3-1.1v1.1m.2-1.1v.9m.2-1.2v.9m.2-.9v.7m.2-.9v.9m.3-1.1v.9m.2-.9v.7m.2-.9v.7m.2-.7v.7m.2-.9v.7m.3-.7v.4m.2-.7v.4m.2-.4v.4m.2-.6v.4m.2-.6v.4m.3-.4v.2m.2-.4v.4m.2-.4v.2m.2-.4v.2m.5-.5v.2m-6.4 2.3v.2-.2zm.2 0v.2m.2-.5v.4m.2-.4v.7m.3-.7v.7m.2-.9v.9m.2-.9v.9m.2-1.1v.9m.2-.9v.9m.3-.9v.7m.2-.9v.9m.2-.9v.7m.2-.9v.9m.2-.9v.7m.3-.7v.4m.2-.7v.7m.2-.7v.4m.2-.6v.7m.2-.7v.4m.3-.4v.4m.2-.6v.4m.2-.4v.4m.2-.6v.4m.2-.4v.2m.3-.2v.2m.2-.4v.2m.2-.2v.2m.2-.5v.2m.2-.2v.2m.5-.4v.2m-6.6 2.5v.2-.2zm.2 0v.2m.2-.5v.4m.2-.4v.7m.3-.7v.7m.2-.9v.9m.2-.9v.9m.2-1.1v.9m.2-.9v.9m.3-.9v.7m.2-.9v.9m.2-.9v.7m.2-.9v.9m.2-.9v.7m.3-.7v.4m.2-.7v.7m.2-.7v.4m.2-.6v.7m.2-.7v.4m.3-.4v.4m.2-.6v.4m.2-.4v.4m.2-.6v.4m.2-.4v.2m.3-.2v.2m.2-.4v.2m.2-.2v.2m.2-.5v.2m.2-.2v.2m.5-.4v.2m-388-224.7l1.1 7.7-1.1-7.7zm1.1 7.7l-.9-.7.9.7zm-.8-.7l-1.1.9 1.1-.9zm-1.1.9l.9-7.9-.9 7.9zm1.1-6.3v5.5-5.5zm.2 1.5v4.2m.2-2.7v2.9m.2-1.3v1.5m-.6-6.1v5.5-5.5zm.2 1.5v4.2m.2-2.7v2.9m.2-1.3v1.5m-1.5-1.8v2-2zm.2-1.9v3.7m.2-5.7v5.5m.2-7.5v7.2m-.6-1.3v2-2zm.2-1.9v3.7m.2-5.7v5.5m.2-7.5v7.2m388.4 217.1l-13.2 7 13.2-7zm-13.2 7l-13.6 6.4 13.6-6.4zm-13.6 6.4l-14.1 5.7 14.1-5.7zm-14 5.7l-14.3 4.6 14.3-4.6zm-14.3 4.6l-14.7 4 14.7-4zm-14.7 4l-14.7 3.1 14.7-3.1zm-14.8 3.1l-14.9 2.2 14.9-2.2zm-14.9 2.1l-14.9 1.3 14.9-1.3zm-14.9 1.4l-15.2.4 15.2-.4zm-15.2.4l-14.9-.4 14.9.4zm-14.9-.4l-15.2-1.3 15.2 1.3zm-15.2-1.4l-14.9-2.2 14.9 2.2zm-14.9-2.1l-14.7-3.1 14.7 3.1zm-14.7-3.1l-14.5-4 14.5 4zm-14.5-4l-14.3-4.8 14.3 4.8zm-14.3-4.8l-14.1-5.5 14.1 5.5zm-14.1-5.5l-13.6-6.4 13.6 6.4zm-13.6-6.4l-13.4-7.2 13.4 7.2zm-13.4-7.2l-12.7-7.9 12.7 7.9zm-12.7-7.9l-12.3-8.8 12.3 8.8zm-12.3-8.8l-11.9-9.2 11.9 9.2zm-11.9-9.2l-11.2-10.1 11.2 10.1zm-11.2-10.1l-10.8-10.8 10.8 10.8zm-10.8-10.8l-9.9-11.2 9.9 11.2zm-9.9-11.2l-9.4-11.9 9.4 11.9zm-9.4-11.9l-8.6-12.3 8.6 12.3zm-8.6-12.3l-7.9-13 7.9 13zm-7.9-12.9l-7-13.2 7 13.2zm-7-13.2l-6.4-13.6 6.4 13.6zm-6.4-13.6l-5.7-14.1 5.7 14.1zm-5.7-14.1l-4.6-14.5 4.6 14.5zm-4.6-14.5l-4-14.5 4 14.5zm-3.9-14.5l-2.9-14.7 2.9 14.7zm-2.9-14.7l-2.2-14.9 2.2 14.9zm-2.2-14.9l-1.3-15.2 1.3 15.2zm-1.3-15.2l-.4-14.3.4 14.3zm123.7-14.3H77.4h129.2z"/><text transform="matrix(.8138 .4698 -.7661 .6428 191.64 447.055)" fill="#97CCCE" font-family="'GOSTTypeA'" font-size="20.194">1</text><text transform="matrix(.8138 .4698 -.7661 .6428 196.395 449.802)" fill="#97CCCE" font-family="'GOSTTypeA'" font-size="20.194">2</text><text transform="matrix(.8138 .4698 -.7661 .6428 203.528 453.92)" fill="#97CCCE" font-family="'GOSTTypeA'" font-size="20.194">0</text><path fill="#97CCCE" d="M223.7 452.7c-.4.3-.9.5-1.5.6-.6.1-1.2 0-1.6-.3-.4-.2-.6-.6-.7-1 0-.4.1-.8.6-1.2.4-.3.9-.5 1.5-.6.6-.1 1.2 0 1.6.3.4.2.6.6.7 1 0 .5-.2.9-.6 1.2zm-.8-.4c.2-.2.3-.3.3-.6 0-.2-.1-.4-.3-.5-.2-.1-.4-.2-.8-.1-.3 0-.6.1-.8.3-.2.2-.3.4-.3.6 0 .2.1.4.3.5.2.1.5.2.8.1.3 0 .6-.1.8-.3z"/><text transform="matrix(.8138 .4698 -.7661 .6428 215.42 460.784)" fill="#97CCCE" font-family="'GOSTTypeA'" font-size="20.194">±</text><text transform="matrix(.8138 .4698 -.7661 .6428 221.661 464.39)" fill="#97CCCE" font-family="'GOSTTypeA'" font-size="20.194">1</text><path fill="none" stroke="#97CCCE" stroke-miterlimit="10" d="M206.6 240.8h-52.3 52.3zm-47.1 0l-.9-7.7.9 7.7zm-.8-7.7l1.1.7-1.1-.7zm1.1.7l.9-.7-.9.7zm.8-.7l-1.1 7.7 1.1-7.7zm-1.7.2v1.8-1.8zm.2.3v3.5m.2-3.5v5.5m.2-5.3v7m-.6-7.5v1.8-1.8zm.2.3v3.5m.2-3.5v5.5m.2-5.3v7m.3-7v5.5-5.5zm.2 0v4m.2-4.2v2.6m.2-2.9v1.3m-.6-.8v5.5-5.5zm.2 0v4m.2-4.2v2.6m.2-2.9v1.3m263-153.7v.4-.4zm.2-.4v.9m.2-1.4v1.5m.2-1.7v1.8m.2-2.2v2.4m.3-2.9v2.9m.2-3.3v3.3m.2-3.8v4m.2-4.4V82m.2-4.8v5.1m.3-5.6v5.5m.2-5.3v5.5m.2-5.2v5.3m.2-5.1v5.1m.2-5.1v5.3m.3-5.1v5.1m.2-4.9v5.1m.2-5.1v5.1m.2-4.9v4.8m.2-4.5v4.8m.3-4.6v4.6m.2-4.6v4.6m.2-4.4v4.4m.2-4.2v4.2m.2-4.2v4.2m.3-4v4m.2-3.7v3.7m.2-3.7v3.7m.2-3.3v3.3m.2-3.1v3.1m.3-2.9v3.1m.2-2.6v2.6m.2-2.4v2.4m.2-2.2v2.2m.2-2v2m.3-1.5v1.5m.2-1.3v1.3m.2-1.1v1.1m.2-.6v.7m.2-.5v.4m.3-.2v.2m-8.8-2.4v.4-.4zm.2-.4v.9m.2-1.4v1.5m.2-1.7v1.8m.2-2.2v2.4m.3-2.9v2.9m.2-3.3v3.3m.2-3.8v4m.2-4.4V82m.2-4.8v5.1m.3-5.6v5.5m.2-5.3v5.5m.2-5.2v5.3m.2-5.1v5.1m.2-5.1v5.3m.3-5.1v5.1m.2-4.9v5.1m.2-5.1v5.1m.2-4.9v4.8m.2-4.5v4.8m.3-4.6v4.6m.2-4.6v4.6m.2-4.4v4.4m.2-4.2v4.2m.2-4.2v4.2m.3-4v4m.2-3.7v3.7m.2-3.7v3.7m.2-3.3v3.3m.2-3.1v3.1m.3-2.9v3.1m.2-2.6v2.6m.2-2.4v2.4m.2-2.2v2.2m.2-2v2m.3-1.5v1.5m.2-1.3v1.3m.2-1.1v1.1m.2-.6v.7m.2-.5v.4m.3-.2v.2m.2 0l-7.2-2.9 7.2 2.9zm-7.3-2.8l1.1-.4-1.1.4zm1.1-.5l-.2-1.3.2 1.3zm-.2-1.3l6.4 4.6-6.4-4.6zm-.7 1.8v.2-.2zm.3 0v.2m.2-.5v.7m.2-.7v.7m.2-.9v.9m.2-.7v.9m.3-.6v.7m.2-.7v.9m.2-.7v.7m.2-.7v.7m.2-.5v.7m.3-.7v.7m.2-.5v.7m.2-.7v.7m.2-.5v.4m.2-.4v.7m.3-.4v.4m.2-.4v.7m.2-.5v.4m.2-.2v.2m.2-.2v.4m.3-.2v.2m.2-.2v.4m.2-.2v.2m.2-.2v.2m.2.1v.2m.3-.2v.2m.2 0v.2m.2-.2v.2m.4 0v.2m-6.6-2.8v.2-.2zm.3 0v.2m.2-.5v.7m.2-.7v.7m.2-.9v.9m.2-.7v.9m.3-.6v.7m.2-.7v.9m.2-.7v.7m.2-.7v.7m.2-.5v.7m.3-.7v.7m.2-.5v.7m.2-.7v.7m.2-.5v.4m.2-.4v.7m.3-.4v.4m.2-.4v.7m.2-.5v.4m.2-.2v.2m.2-.2v.4m.3-.2v.2m.2-.2v.4m.2-.2v.2m.2-.2v.2m.2.1v.2m.3-.2v.2m.2 0v.2m.2-.2v.2m.4 0v.2m-5.7-4.4V80v-1.1zm.2.2v1.1m.3-.8v1.1m.2-1.1v1.1m.2-.9v1.1m.2-.9v.9m.2-.7v.9m.3-.9v.9m.2-.7v.9m.2-.6v.7m.2-.7v.9m.2-.7v.7m.3-.5v.7m.2-.5v.4m.2-.4v.7m.2-.5v.7m.2-.4v.4m.3-.2v.4m.2-.4v.4m.2-.2v.4m.2-.2v.2m.2-.2v.4m.3-.2v.2m.2.1v.2m.4 0v.2m-5.5-4.2V80v-1.1zm.2.2v1.1m.3-.8v1.1m.2-1.1v1.1m.2-.9v1.1m.2-.9v.9m.2-.7v.9m.3-.9v.9m.2-.7v.9m.2-.6v.7m.2-.7v.9m.2-.7v.7m.3-.5v.7m.2-.5v.4m.2-.4v.7m.2-.5v.7m.2-.4v.4m.3-.2v.4m.2-.4v.4m.2-.2v.4m.2-.2v.2m.2-.2v.4m.3-.2v.2m.2.1v.2m.4 0v.2M159.5 240.8l.4-12.5-.4 12.5zm.5-12.5l1.3-12.7-1.3 12.7zm1.3-12.7l2.2-12.3-2.2 12.3zm2.2-12.3l3.1-12.3-3.1 12.3zm3.1-12.3l4-12.1-4 12.1zm3.9-12.1l4.6-11.6-4.6 11.6zm4.6-11.7l5.5-11.4-5.5 11.4zm5.5-11.4l6.4-11-6.4 11zm6.4-11l7-10.5-7 10.5zm7-10.5l7.7-9.9-7.7 9.9zm7.7-9.9l8.6-9.4-8.6 9.4zm8.6-9.5l9-8.8-9 8.8zm9-8.7L229 98l-9.7 8.2zM229 98l10.1-7.5L229 98zm10.1-7.4l10.8-6.8-10.8 6.8zm10.7-6.8l11-5.9-11 5.9zm11-6l11.6-5.3-11.6 5.3zm11.7-5.2l11.9-4.4-11.9 4.4zm11.8-4.4l12.1-3.5-12.1 3.5zm12.1-3.6l12.3-2.6-12.3 2.6zm12.3-2.6l12.5-2-12.5 2zm12.5-2l12.7-.9-12.7.9zm12.8-.8l12.5-.2-12.5.2zm12.5-.3l12.7.9-12.7-.9zm12.7.9l12.5 1.8-12.5-1.8zm12.5 1.8L384 64l-12.3-2.4zM384 64l12.1 3.5L384 64zm12.1 3.5l12.1 4.2-12.1-4.2zm12.1 4.2l11.4 5.1-11.4-5.1zm11.4 5l11.2 5.7-11.2-5.7zm11.2 5.7l1.5.9-1.5-.9zm-30.9 57.4L435 78.9l-35.1 60.9z"/><text transform="matrix(-.8138 .4698 -.1736 -.9848 276.318 74.656)" fill="#97CCCE" font-family="'GOSTTypeA'" font-size="20.194">1</text><text transform="matrix(-.8138 .4698 -.1736 -.9848 271.562 77.403)" fill="#97CCCE" font-family="'GOSTTypeA'" font-size="20.194">2</text><text transform="matrix(-.8138 .4698 -.1736 -.9848 264.428 81.52)" fill="#97CCCE" font-family="'GOSTTypeA'" font-size="20.194">0</text><path fill="#97CCCE" d="M255.3 99.6c-.1-.5 0-1 .2-1.6.2-.6.6-1 1-1.3.4-.2.8-.2 1.2-.1.4.2.6.5.7 1.1.1.5 0 1-.2 1.6-.2.6-.6 1-1 1.3-.4.2-.8.3-1.2.1-.3-.2-.6-.5-.7-1.1zm.8-.4c0 .2.2.4.3.5.2.1.4.1.6 0 .2-.1.4-.3.5-.6.1-.3.2-.6.1-.8 0-.3-.2-.5-.4-.6-.2-.1-.4-.1-.6 0-.2.1-.4.3-.5.6v.9z"/><text transform="matrix(-.8138 .4698 -.1736 -.9848 252.537 88.386)" fill="#97CCCE" font-family="'GOSTTypeA'" font-size="20.194">±</text><path fill="none" stroke="#97CCCE" stroke-miterlimit="10" d="M237.7 187.2l7.5 2.6-7.5-2.6zm7.5 2.7l-1.3.4 1.3-.4zm-1.3.4l.2 1.3-.2-1.3zm.2 1.3l-6.4-4.4 6.4 4.4zm-5.3-3.9v.2-.2zm.5.2v.2m.2-.2v.2m.2 0v.2m.2-.2v.2m.3-.2v.4m.2-.2v.2m.2-.2v.4m.2-.4v.4m.2-.2v.4m.3-.4v.4m.2-.4v.7m.2-.4v.4m.2-.4v.7m.2-.5v.4m.3-.4v.7m.2-.7v.7m.2-.5v.7m.2-.7v.7m.2-.7v.9m.3-.7v.7m.2-.7v.9m.2-.9v.9m.2-.7v.7m.2-.7v.7m.3-.7v.4m.2-.1v.2m.2-.2v.2m-6.2-2.4v.2-.2zm.5.2v.2m.2-.2v.2m.2 0v.2m.2-.2v.2m.3-.2v.4m.2-.2v.2m.2-.2v.4m.2-.4v.4m.2-.2v.4m.3-.4v.4m.2-.4v.7m.2-.4v.4m.2-.4v.7m.2-.5v.4m.3-.4v.7m.2-.7v.7m.2-.5v.7m.2-.7v.7m.2-.7v.9m.3-.7v.7m.2-.7v.9m.2-.9v.9m.2-.7v.7m.2-.7v.7m.3-.7v.4m.2-.1v.2m.2-.2v.2m-6.8-2.7v.2-.2zm.2.3v.2m.2-.2v.2m.2 0v.2m.3-.2v.4m.2-.2v.2m.2-.2v.4m.2-.2v.4m.2-.4v.4m.3-.2v.4m.2-.4v.7m.2-.4v.4m.2-.4v.7m.2-.5v.7m.3-.7v.9m.2-.7v.7m.2-.7v.9m.2-.7v.9m.2-.9v.9m.3-.7v.9m.2-.9v1.1m.2-.8v.9m.2-.9v1.1m.2-.9v1.1m.3-1.1v1.1m.2-.9v1.1m.2-1.1v1.3m-5.7-4.2v.2-.2zm.2.3v.2m.2-.2v.2m.2 0v.2m.3-.2v.4m.2-.2v.2m.2-.2v.4m.2-.2v.4m.2-.4v.4m.3-.2v.4m.2-.4v.7m.2-.4v.4m.2-.4v.7m.2-.5v.7m.3-.7v.9m.2-.7v.7m.2-.7v.9m.2-.7v.9m.2-.9v.9m.3-.7v.9m.2-.9v1.1m.2-.8v.9m.2-.9v1.1m.2-.9v1.1m.3-1.1v1.1m.2-.9v1.1m.2-1.1v1.3m201.2 102.8l-7.5-2.6 7.5 2.6zm-7.5-2.6l1.3-.4-1.3.4zm1.4-.5l-.2-1.3.2 1.3zm-.3-1.3l6.4 4.4-6.4-4.4zm-.8 1.8v.2-.2zm.2 0v.2m.2-.4v.7m.2-.7v.7m.2-.7v.7m.3-1v1.1m.2-.8v.9m.2-.9v.9m.2-.7v.9m.2-.9v.9m.3-.7v.7m.2-.7v.9m.2-.7v.7m.2-.7v.7m.2-.5v.7m.3-.7v.7m.2-.4v.4m.2-.4v.7m.2-.5v.4m.2-.4v.7m.3-.5v.4m.2-.4v.4m.2-.2v.4m.2-.4v.4m.2-.2v.2m.3-.2v.4m.2-.1v.2m.2-.2v.2m.2 0v.2m.2-.2v.2m.5 0v.2m-6.8-2.6v.2-.2zm.2 0v.2m.2-.4v.7m.2-.7v.7m.2-.7v.7m.3-1v1.1m.2-.8v.9m.2-.9v.9m.2-.7v.9m.2-.9v.9m.3-.7v.7m.2-.7v.9m.2-.7v.7m.2-.7v.7m.2-.5v.7m.3-.7v.7m.2-.4v.4m.2-.4v.7m.2-.5v.4m.2-.4v.7m.3-.5v.4m.2-.4v.4m.2-.2v.4m.2-.4v.4m.2-.2v.2m.3-.2v.4m.2-.1v.2m.2-.2v.2m.2 0v.2m.2-.2v.2m.5 0v.2m-5.7-4.2v1.1-1.1zm.2.3v1.1m.2-.9v.9m.2-.9v1.1m.2-.9v.9m.3-.7v.9m.2-.9v.9m.2-.7v.9m.2-.6v.7m.2-.7v.9m.3-.7v.7m.2-.5v.7m.2-.7v.7m.2-.5v.7m.2-.5v.4m.3-.1v.4m.2-.4v.4m.2-.2v.4m.2-.2v.2m.2-.2v.4m.3-.2v.2m.2 0v.2m.2-.2v.2m.2.1v.2m.5 0v.2m-5.5-4v1.1-1.1zm.2.3v1.1m.2-.9v.9m.2-.9v1.1m.2-.9v.9m.3-.7v.9m.2-.9v.9m.2-.7v.9m.2-.6v.7m.2-.7v.9m.3-.7v.7m.2-.5v.7m.2-.7v.7m.2-.5v.7m.2-.5v.4m.3-.1v.4m.2-.4v.4m.2-.2v.4m.2-.2v.2m.2-.2v.4m.3-.2v.2m.2 0v.2m.2-.2v.2m.2.1v.2m.5 0v.2m-206.8-107l207.4 107.2-207.4-107.2zm207.4 107.2l54.5 28.3-54.5-28.3zm54.5 28.4v60.6-60.6z"/><path fill="#97CCCE" d="M508.2 328.2c.3-.5.7-.9 1.4-1 .6-.2 1.3-.1 2 .1 1 .4 1.8 1 2.6 2s1.1 2 1.1 3v.6l2.5 1.7c.2.2.3.3.3.6 0 .1 0 .2-.1.3-.1.1-.2.1-.3 0l-.2-.1-2.5-1.7c-.2.5-.7.9-1.4 1.1-.3.1-.6.1-1 .1s-.7-.1-1-.2c-1-.4-1.9-1-2.6-2-.7-1-1.1-2-1.1-3v-.4c0-.1 0-.2.1-.3l-2.5-1.7c-.2-.2-.3-.3-.3-.6 0-.1 0-.2.1-.3.1-.1.2-.1.3 0l.2.1 2.4 1.7zm.9.6l5.2 3.5v-.3c0-.8-.3-1.5-.8-2.3-.3-.4-.6-.7-.9-.9l-.5-.3-.4-.2-.2-.1c-.5-.2-1-.2-1.4-.1-.4.1-.8.3-1 .7zm4.9 4.4l-5.3-3.6v.4c0 .8.3 1.5.8 2.3.5.7 1.2 1.3 2 1.5.5.2 1 .2 1.4.1.5-.1.8-.4 1.1-.7z"/><text transform="matrix(0 .9397 -.9397 -.342 504.985 333.24)" fill="#97CCCE" font-family="'GOSTTypeA'" font-size="20.194">2</text><text transform="matrix(0 .9397 -.9397 -.342 504.985 341.478)" fill="#97CCCE" font-family="'GOSTTypeA'" font-size="20.194">2</text><text transform="matrix(0 .9397 -.9397 -.342 504.985 349.715)" fill="#97CCCE" font-family="'GOSTTypeA'" font-size="20.194">,</text><text transform="matrix(0 .9397 -.9397 -.342 504.985 352.46)" fill="#97CCCE" font-family="'GOSTTypeA'" font-size="20.194">5</text><text transform="matrix(0 .9397 -.9397 -.342 504.985 359.668)" fill="#97CCCE" font-family="'GOSTTypeA'" font-size="20.194">H</text><text transform="matrix(0 .9397 -.9397 -.342 504.985 367.907)" fill="#97CCCE" font-family="'GOSTTypeA'" font-size="20.194">1</text><text transform="matrix(0 .9397 -.9397 -.342 504.985 373.398)" fill="#97CCCE" font-family="'GOSTTypeA'" font-size="20.194">1</text><path fill="none" stroke="#97CCCE" stroke-miterlimit="10" d="M277.1 286.5l-2.9 7.2 2.9-7.2zm-2.9 7.3l-.7-1.1.7 1.1zm-.6-1.1h-1.1 1.1zm-1.1 0l4.6-6.2-4.6 6.2zm1.3-.3v.7-.7zm.2-.4v1.5m.2-1.9v2.2m.2-2.7v2.2m.3-2.4v1.8m.2-2.2v1.8m.2-2.3v1.5m.2-1.9v1.5m.2-1.7v1.1m.2-1.6v1.1m.3-1.5v.9m.2-1.4v.9m.2-1.1v.4m.2-.8v.4m.2-.9v.2m-3 5.3v.7-.7zm.2-.4v1.5m.2-1.9v2.2m.2-2.7v2.2m.3-2.4v1.8m.2-2.2v1.8m.2-2.3v1.5m.2-1.9v1.5m.2-1.7v1.1m.2-1.6v1.1m.3-1.5v.9m.2-1.4v.9m.2-1.1v.4m.2-.8v.4m.2-.9v.2m-4.1 5.3v.2-.2zm.2-.2v.4m.2-.8v.9m.2-1.1v1.1m.3-1.4v1.3m.2-1.7v1.5m.2-1.7v1.3m.2-1.5v1.1m.2-1.6v1.1m.3-1.3v1.1m.2-1.3v.9m.2-1.4v.9m.2-1.1v.7m.2-.9v.7m.2-1.1v.7m.3-1v.4m.2-.6v.2m.2-.6v.4m.2-.6v.2m-3.9 5v.2-.2zm.2-.2v.4m.2-.8v.9m.2-1.1v1.1m.3-1.4v1.3m.2-1.7v1.5m.2-1.7v1.3m.2-1.5v1.1m.2-1.6v1.1m.3-1.3v1.1m.2-1.3v.9m.2-1.4v.9m.2-1.1v.7m.2-.9v.7m.2-1.1v.7m.3-1v.4m.2-.6v.2m.2-.6v.4m.2-.6v.2M237.7 355l39.3-68.5-39.3 68.5zm0 0v85-85z"/><text transform="matrix(0 .9397 -.9397 -.342 243.01 361.75)" fill="#97CCCE" font-family="'GOSTTypeA'" font-size="20.194">R</text><text transform="matrix(0 .9397 -.9397 -.342 243.01 369.988)" fill="#97CCCE" font-family="'GOSTTypeA'" font-size="20.194">3</text><text transform="matrix(0 .9397 -.9397 -.342 243.01 377.195)" fill="#97CCCE" font-family="'GOSTTypeA'" font-size="20.194">H</text><text transform="matrix(0 .9397 -.9397 -.342 243.01 385.433)" fill="#97CCCE" font-family="'GOSTTypeA'" font-size="20.194">1</text><text transform="matrix(0 .9397 -.9397 -.342 243.01 390.924)" fill="#97CCCE" font-family="'GOSTTypeA'" font-size="20.194">1</text><text transform="matrix(0 .9397 -.9397 -.342 243.01 396.416)" fill="#97CCCE" font-family="'GOSTTypeA'" font-size="20.194">*</text><text transform="matrix(0 .9397 -.9397 -.342 221.9 356.26)" fill="#97CCCE" font-family="'GOSTTypeA'" font-size="20.194">1</text><text transform="matrix(0 .9397 -.9397 -.342 221.9 361.75)" fill="#97CCCE" font-family="'GOSTTypeA'" font-size="20.194">2</text><text transform="matrix(0 .9397 -.9397 -.342 221.9 375.48)" fill="#97CCCE" font-family="'GOSTTypeA'" font-size="20.194">ð</text><text transform="matrix(0 .9397 -.9397 -.342 221.9 382.688)" fill="#97CCCE" font-family="'GOSTTypeA'" font-size="20.194">à</text><text transform="matrix(0 .9397 -.9397 -.342 221.9 389.896)" fill="#97CCCE" font-family="'GOSTTypeA'" font-size="20.194">ä</text><text transform="matrix(0 .9397 -.9397 -.342 221.9 397.103)" fill="#97CCCE" font-family="'GOSTTypeA'" font-size="20.194">è</text><text transform="matrix(0 .9397 -.9397 -.342 221.9 404.311)" fill="#97CCCE" font-family="'GOSTTypeA'" font-size="20.194">ó</text><text transform="matrix(0 .9397 -.9397 -.342 221.9 411.52)" fill="#97CCCE" font-family="'GOSTTypeA'" font-size="20.194">ñ</text><text transform="matrix(0 .9397 -.9397 -.342 221.9 418.727)" fill="#97CCCE" font-family="'GOSTTypeA'" font-size="20.194">î</text><text transform="matrix(0 .9397 -.9397 -.342 221.9 425.935)" fill="#97CCCE" font-family="'GOSTTypeA'" font-size="20.194">â</text><path fill="none" stroke="#97CCCE" stroke-miterlimit="10" d="M288.7 296.6l4.6-6.4-4.6 6.4zm4.6-6.4l.2 1.3-.2-1.3zm.2 1.4h1.1-1.1zm1.1 0l-5.9 5.1 5.9-5.1zm-5.2 4.1v.2-.2zm.2-.2v.2m.2-.4v.2m.2-.6v.4m.2-.7v.4m.3-.8v.7m.2-.9v.7m.2-.9v.7m.2-1.2v.9m.2-1.1v.9m.3-1.1v.9m.2-1.4v1.1m.2-1.3v1.1m.2-1.5v1.3m.2-1.5v1.3m.3-1.6v1.3m.2-1.7v1.5m.2-1.7v1.5m.2-2v1.8m-3.9 3.7v.2-.2zm.2-.2v.2m.2-.4v.2m.2-.6v.4m.2-.7v.4m.3-.8v.7m.2-.9v.7m.2-.9v.7m.2-1.2v.9m.2-1.1v.9m.3-1.1v.9m.2-1.4v1.1m.2-1.3v1.1m.2-1.5v1.3m.2-1.5v1.3m.3-1.6v1.3m.2-1.7v1.5m.2-1.7v1.5m.2-2v1.8m-4.4 4.4v.2-.2zm.2-.2v.2m.3-.4v.2m.2-.5v.2m.2-.4v.2m.2-.4v.2m.2-.4v.4m.3-.6v.4m.2-.7v.4m.2-.6v.4m.2-.6v.4m.2-.6v.4m.3-.6v.4m.2-.7v.7m.2-.9v.7m.2-.9v.7m.2-.9v.7m.3-.9v.7m.2-1v.7m.2-.9v.7m.2-.9v.9m.2-1.3v1.1m.3-1.1v.9m.2-.9v.7m.2-.7v.4m.2-.4v.2m-5.5 4.6v.2-.2zm.2-.2v.2m.3-.4v.2m.2-.5v.2m.2-.4v.2m.2-.4v.2m.2-.4v.4m.3-.6v.4m.2-.7v.4m.2-.6v.4m.2-.6v.4m.2-.6v.4m.3-.6v.4m.2-.7v.7m.2-.9v.7m.2-.9v.7m.2-.9v.7m.3-.9v.7m.2-1v.7m.2-.9v.7m.2-.9v.9m.2-1.3v1.1m.3-1.1v.9m.2-.9v.7m.2-.7v.4m.2-.4v.2M394.1 185l-4.4 6.4 4.4-6.4zm-4.3 6.4l-.2-1.3.2 1.3zm-.3-1.3h-1.3 1.3zm-1.3 0l5.9-5.1-5.9 5.1zm1.6-.2v1.5-1.5zm.2-.3v1.5m.2-1.7v1.5m.2-1.7v1.3m.2-1.5v1.3m.3-1.5v1.1m.2-1.4v1.1m.2-1.3v.9m.2-1.1v.9m.2-1.1v.7m.3-1.2v.9m.2-1.1v.9m.2-1.1v.7m.2-.9v.7m.2-.9v.4m.3-.7v.4m.2-.6v.2m.2-.4v.2m-3.7 3.8v1.5-1.5zm.2-.3v1.5m.2-1.7v1.5m.2-1.7v1.3m.2-1.5v1.3m.3-1.5v1.1m.2-1.4v1.1m.2-1.3v.9m.2-1.1v.9m.2-1.1v.7m.3-1.2v.9m.2-1.1v.9m.2-1.1v.7m.2-.9v.7m.2-.9v.4m.3-.7v.4m.2-.6v.2m.2-.4v.2m-4.8 3.8v.2-.2zm.2-.3v.4m.2-.6v.7m.2-.9v.9m.2-1.1v1.1m.3-1.1v.9m.2-1.1v.9m.2-1.2v.9m.2-1.1v.9m.2-1.1v.9m.3-1.1v.9m.2-1.1v.9m.2-.9v.7m.2-1v.7m.2-.9v.7m.3-.9v.4m.2-.6v.4m.2-.6v.4m.2-.7v.4m.2-.4v.2m.3-.4v.2m.2-.4v.2m.2-.4v.2m.2-.4v.2m.2-.5v.2m-5.2 4.5v.2-.2zm.2-.3v.4m.2-.6v.7m.2-.9v.9m.2-1.1v1.1m.3-1.1v.9m.2-1.1v.9m.2-1.2v.9m.2-1.1v.9m.2-1.1v.9m.3-1.1v.9m.2-1.1v.9m.2-.9v.7m.2-1v.7m.2-.9v.7m.3-.9v.4m.2-.6v.4m.2-.6v.4m.2-.7v.4m.2-.4v.2m.3-.4v.2m.2-.4v.2m.2-.4v.2m.2-.4v.2m.2-.5v.2M288.7 296.6L394.1 185 288.7 296.6zM394.1 185l75.1-79.1-75.1 79.1zm75.2-79.1V46.2v59.7z"/><path fill="#97CCCE" d="M478 51.7c.3-.5.7-.9 1.4-1 .6-.2 1.3-.1 2 .1 1 .4 1.8 1 2.6 2s1.1 2 1.1 3v.6l2.5 1.7c.2.2.3.3.3.6 0 .1 0 .2-.1.3-.1.1-.2.1-.3 0l-.2-.1-2.5-1.7c-.2.5-.7.9-1.4 1.1-.3.1-.6.1-1 .1s-.7-.1-1-.2c-1-.4-1.9-1-2.6-2-.7-1-1.1-2-1.1-3v-.4c0-.1 0-.2.1-.3l-2.5-1.7c-.2-.2-.3-.3-.3-.6 0-.1 0-.2.1-.3.1-.1.2-.1.3 0l.2.1 2.4 1.7zm.9.6l5.2 3.5v-.3c0-.8-.3-1.5-.8-2.3-.3-.4-.6-.7-.9-.9l-.5-.3-.4-.2-.2-.1c-.5-.2-1-.2-1.4-.1-.4.1-.7.3-1 .7zm5 4.4l-5.3-3.6v.4c0 .8.3 1.5.8 2.3.5.7 1.2 1.3 2 1.5.5.2 1 .2 1.4.1s.8-.4 1.1-.7z"/><text transform="matrix(0 .9397 -.9397 -.342 474.844 56.738)" fill="#97CCCE" font-family="'GOSTTypeA'" font-size="20.194">1</text><text transform="matrix(0 .9397 -.9397 -.342 474.844 62.23)" fill="#97CCCE" font-family="'GOSTTypeA'" font-size="20.194">4</text><text transform="matrix(0 .9397 -.9397 -.342 474.844 70.468)" fill="#97CCCE" font-family="'GOSTTypeA'" font-size="20.194">,</text><text transform="matrix(0 .9397 -.9397 -.342 474.844 73.214)" fill="#97CCCE" font-family="'GOSTTypeA'" font-size="20.194">8</text><text transform="matrix(0 .9397 -.9397 -.342 485.283 86.112)" fill="#97CCCE" font-family="'GOSTTypeA'" font-size="13.348">+</text><text transform="matrix(0 .9397 -.9397 -.342 485.283 90.461)" fill="#97CCCE" font-family="'GOSTTypeA'" font-size="13.348">0</text><text transform="matrix(0 .9397 -.9397 -.342 485.283 95.952)" fill="#97CCCE" font-family="'GOSTTypeA'" font-size="13.348">,</text><text transform="matrix(0 .9397 -.9397 -.342 485.283 97.782)" fill="#97CCCE" font-family="'GOSTTypeA'" font-size="13.348">1</text><path fill="none" stroke="#97CCCE" stroke-miterlimit="10" d="M451 .5h18.2H451zm0 0v18-18zm18.3 0v18-18zm-18.3 18h18.2H451zm0 0v55.6-55.6zm18.3 0v55.6-55.6zM451 74.1h18.2H451zm0 31.8h18.2H451zm0-31.8V106 74.1zm18.3 0V106 74.1zm-9-60l1.8-.4-1.8.4zm1.7-.4l1.8-1.3-1.8 1.3zm1.8-1.3l.9-1.8-.9 1.8zm.9-1.8v-2 2zm0-2l-.9-1.8.9 1.8zm-.9-1.7l-1.5-1.3 1.5 1.3zm-1.6-1.3l-1.8-.7 1.8.7zm-1.7-.7l-2 .4 2-.4zm-2 .4l-1.8 1.1 1.8-1.1zm-1.7 1.1l-.9 1.8.9-1.8zm-.9 1.8l-.2 2 .2-2zm-.2 2l.7 1.8-.7-1.8zm.6 1.7l1.5 1.5-1.5-1.5zm1.6 1.6l1.8.7-1.8-.7zm1.7.6h.7-.7zm.7 2.7l2.4-.4-2.4.4zm2.4-.5l2.2-1.3-2.2 1.3zm2.2-1.3l1.5-1.8-1.5 1.8zm1.5-1.8l.9-2.4-.9 2.4zm.9-2.4V8.2v2.6zm0-2.6l-.9-2.2.9 2.2zm-.9-2.2l-1.5-2 1.5 2zm-1.5-2l-2.2-1.3 2.2 1.3zm-2.2-1.3l-2.4-.4 2.4.4zm-2.4-.4l-2.4.4 2.4-.4zm-2.4.4L455.7 4l2.2-1.3zM455.7 4l-1.8 1.8 1.8-1.8zm-1.8 1.8l-.9 2.4.9-2.4zm-.9 2.4v2.4-2.4zm0 2.4l.9 2.4-.9-2.4zm.9 2.4l1.5 2-1.5-2zm1.5 2l2.2 1.3-2.2-1.3zm2.2 1.3l2.4.4-2.4-.4zm2.4.5h.2-.2z"/><path fill="#97CCCE" d="M457.8 26.1c.2-.4.5-.6 1-.7.4-.1.9-.1 1.4.1.7.2 1.3.7 1.8 1.4s.8 1.4.8 2.1v.4l1.7 1.2c.2.1.2.2.2.4 0 .1 0 .2-.1.2s-.1.1-.2 0l-.1-.1-1.7-1.2c-.2.4-.5.6-.9.8-.2.1-.4.1-.7.1-.3 0-.5-.1-.7-.1-.7-.3-1.3-.7-1.8-1.4s-.8-1.4-.8-2.1v-.5l-1.7-1.2c-.2-.1-.2-.2-.2-.4 0-.1 0-.1.1-.2h.2l.1.1 1.6 1.1zm.6.4L462 29v-.2c0-.5-.2-1.1-.6-1.6-.2-.2-.4-.5-.6-.7l-.3-.2-.3-.1-.1-.1c-.4-.1-.7-.2-1-.1-.2 0-.5.2-.7.5zm3.5 3l-3.7-2.5v.3c0 .5.2 1.1.6 1.6.4.5.8.9 1.4 1.1.4.1.7.2 1 .1.3-.2.5-.3.7-.6z"/><text transform="matrix(0 .9397 -.9397 -.342 455.601 33.428)" fill="#97CCCE" font-family="'GOSTTypeA'" font-size="14.033">0</text><text transform="matrix(0 .9397 -.9397 -.342 455.601 39.194)" fill="#97CCCE" font-family="'GOSTTypeA'" font-size="14.033">,</text><text transform="matrix(0 .9397 -.9397 -.342 455.601 41.117)" fill="#97CCCE" font-family="'GOSTTypeA'" font-size="14.033">0</text><text transform="matrix(0 .9397 -.9397 -.342 455.601 46.883)" fill="#97CCCE" font-family="'GOSTTypeA'" font-size="14.033">5</text><path fill="none" stroke="#97CCCE" stroke-miterlimit="10" d="M460.1 69.1c-1.9 0-3.6-.7-5-2.1-1.4-1.4-2.1-3-2.1-5s.7-3.6 2.1-5c1.4-1.4 3-2.1 5-2.1 1.9 0 3.6.7 5 2.1 1.4 1.4 2.1 3.1 2.1 5 0 2-.7 3.6-2.1 5-1.3 1.4-3 2.1-5 2.1zm0-.7c1.8 0 3.3-.6 4.6-1.9 1.3-1.3 1.9-2.8 1.9-4.6 0-1.8-.6-3.3-1.9-4.6-1.3-1.3-2.8-1.9-4.6-1.9-1.8 0-3.3.6-4.5 1.9-1.3 1.3-1.9 2.8-1.9 4.6 0 1.8.6 3.3 1.9 4.6 1.2 1.3 2.8 1.9 4.5 1.9zm-4.1-3.5c-.1 0-.2 0-.2-.1-.1-.1-.1-.1-.1-.2s0-.2.1-.2c.1-.1.1-.1.2-.1h7.2l-3.2-2c-.1-.1-.2-.2-.2-.3 0-.1.1-.2.2-.3l3.2-2H456c-.1 0-.2 0-.2-.1-.1-.1-.1-.1-.1-.2s0-.2.1-.2c.1-.1.1-.1.2-.1h8.4c.1 0 .2 0 .2.1.1.1.1.1.1.2v.2s-.1.1-.2.1l-3.7 2.3 3.7 2.3c.1.1.2.2.2.3 0 .1 0 .1-.1.2s-.2.1-.3.1H456z"/><text transform="matrix(0 .9397 -.9397 -.342 455.601 78.658)" fill="none" stroke="#97CCCE" stroke-miterlimit="10" font-family="'GOSTTypeA'" font-size="14.033">Ã</text><path fill="none" stroke="#97CCCE" stroke-miterlimit="10" d="M460.1 100.9c-1.9 0-3.6-.7-5-2.1-1.4-1.4-2.1-3-2.1-5s.7-3.6 2.1-5c1.4-1.4 3-2.1 5-2.1 1.9 0 3.6.7 5 2.1 1.4 1.4 2.1 3.1 2.1 5 0 2-.7 3.6-2.1 5-1.3 1.4-3 2.1-5 2.1zm0-.7c1.8 0 3.3-.6 4.6-1.9 1.3-1.3 1.9-2.8 1.9-4.6 0-1.8-.6-3.3-1.9-4.6-1.3-1.3-2.8-1.9-4.6-1.9-1.8 0-3.3.6-4.5 1.9-1.3 1.3-1.9 2.8-1.9 4.6 0 1.8.6 3.3 1.9 4.6 1.2 1.3 2.8 1.9 4.5 1.9zm-4.1-3.6c-.1 0-.2 0-.2-.1-.1-.1-.1-.1-.1-.2s0-.2.1-.2c.1-.1.1-.1.2-.1h7.2l-3.2-2c-.1-.1-.2-.2-.2-.3 0-.1.1-.2.2-.3l3.2-2H456c-.1 0-.2 0-.2-.1-.1-.1-.1-.1-.1-.2s0-.2.1-.2c.1-.1.1-.1.2-.1h8.4c.1 0 .2 0 .2.1.1.1.1.1.1.2v.2s-.1.1-.2.1l-3.7 2.3 3.7 2.3c.1.1.2.2.2.3 0 .1 0 .1-.1.2s-.2.1-.3.1H456zM144.2 282.3l-6.6-4.2 6.6 4.2zm-6.6-4.1l1.1-.2-1.1.2zm1.1-.3l.2-1.3-.2 1.3zm.2-1.3l5.3 5.7-5.3-5.7zm-1.1 1.6v.2-.2zm.2 0v.4m.2-.4v.4m.3-.4v.7m.2-1v1.1m.2-.8v.9m.2-.7v.9m.2-.7v.9m.3-.7v.7m.2-.7v.9m.2-.7v.7m.2-.4v.7m.2-.5v.7m.3-.5v.4m.2-.4v.7m.2-.5v.7m.2-.5v.4m.2-.1v.4m.3-.2v.4m.2-.4v.4m.2-.2v.4m.2-.2v.2m.2 0v.2m.2.1v.2m.3-.2v.2m.2 0v.2m.2 0v.2m-5.7-3.9v.2-.2zm.2 0v.4m.2-.4v.4m.3-.4v.7m.2-1v1.1m.2-.8v.9m.2-.7v.9m.2-.7v.9m.3-.7v.7m.2-.7v.9m.2-.7v.7m.2-.4v.7m.2-.5v.7m.3-.5v.4m.2-.4v.7m.2-.5v.7m.2-.5v.4m.2-.1v.4m.3-.2v.4m.2-.4v.4m.2-.2v.4m.2-.2v.2m.2 0v.2m.2.1v.2m.3-.2v.2m.2 0v.2m.2 0v.2m-4.6-5.5v1.5-1.5zm.2.5v1.3m.2-1.1v1.3m.3-1.1v1.3m.2-1.1v1.1m.2-.9v1.1m.2-.8v1.1m.2-.9v1.1m.3-.9v1.1m.2-.9v.9m.2-.7v.9m.2-.6v.9m.2-.7v.9m.3-.5v.7m.2-.5v.4m.2-.1v.4m.2-.2v.4m.2-.2v.4m.2-.2v.4m.3-.2v.2m.2.1v.2m.2 0v.2m.2 0v.2m.2 0v.2m-5-5.7v1.5-1.5zm.2.5v1.3m.2-1.1v1.3m.3-1.1v1.3m.2-1.1v1.1m.2-.9v1.1m.2-.8v1.1m.2-.9v1.1m.3-.9v1.1m.2-.9v.9m.2-.7v.9m.2-.6v.9m.2-.7v.9m.3-.5v.7m.2-.5v.4m.2-.1v.4m.2-.2v.4m.2-.2v.4m.2-.2v.4m.3-.2v.2m.2.1v.2m.2 0v.2m.2 0v.2m.2 0v.2m.3 0l-22.4-18.2 22.4 18.2zm-22.4-18.2v-55.8 55.8zm12.9-54l-13 7.5 13-7.5zm-12.9 7.4l22 12.7-22-12.7zm21.9 12.8v34-34z"/><text transform="matrix(0 .9397 -.9397 -.342 125.812 228.244)" fill="#97CCCE" font-family="'GOSTTypeA'" font-size="14.033">R</text><text transform="matrix(0 .9397 -.9397 -.342 125.812 234.012)" fill="#97CCCE" font-family="'GOSTTypeA'" font-size="14.033">a</text><text transform="matrix(0 .9397 -.9397 -.342 125.812 242.9)" fill="#97CCCE" font-family="'GOSTTypeA'" font-size="14.033">2</text><text transform="matrix(0 .9397 -.9397 -.342 125.812 248.667)" fill="#97CCCE" font-family="'GOSTTypeA'" font-size="14.033">,</text><text transform="matrix(0 .9397 -.9397 -.342 125.812 250.59)" fill="#97CCCE" font-family="'GOSTTypeA'" font-size="14.033">5</text><path fill="none" stroke="#97CCCE" stroke-miterlimit="10" d="M77.4 199.3l-5.5 5.7 5.5-5.7zm-5.5 5.7v-1.3 1.3zm0-1.3l-1.3-.4 1.3.4zm-1.3-.4l6.8-4-6.8 4zm1.5.4v1.1-1.1zm.2-.2v1.1m.3-1.3v1.1m.2-1.4v1.1m.2-1.3v1.1m.2-1.1v.9m.2-1.1v.9m.3-1.1v.9m.2-1.1v.9m.2-1.2v.9m.2-.9v.7m.2-.9v.7m.3-.9v.7m.2-.9v.7m.2-.9v.7m.2-.7v.4m.2-.7v.4m.3-.6v.4m.2-.6v.4m.2-.6v.4m.2-.4v.2m.2-.4v.2m.2-.5v.2m.3-.4v.2m-5.1 4v1.1-1.1zm.2-.2v1.1m.3-1.3v1.1m.2-1.4v1.1m.2-1.3v1.1m.2-1.1v.9m.2-1.1v.9m.3-1.1v.9m.2-1.1v.9m.2-1.2v.9m.2-.9v.7m.2-.9v.7m.3-.9v.7m.2-.9v.7m.2-.9v.7m.2-.7v.4m.2-.7v.4m.3-.6v.4m.2-.6v.4m.2-.6v.4m.2-.4v.2m.2-.4v.2m.2-.5v.2m.3-.4v.2m-6.4 3.6v.2-.2zm.2-.3v.4m.2-.4v.4m.3-.6v.9m.2-.9v.9m.2-1.1v1.1m.2-1.3v1.3m.2-1.3v1.1m.3-1.3v1.1m.2-1.1v.9m.2-1.2v.9m.2-.9v.9m.2-1.1v.9m.3-1.1v.9m.2-.9v.7m.2-.9v.7m.2-.7v.7m.2-.9v.7m.3-1v.7m.2-.7v.4m.2-.6v.4m.2-.4v.4m.2-.6v.4m.3-.4v.2m.2-.4v.2m.2-.4v.2m.2-.2v.2m.2-.5v.2m-5.9 3.4v.2-.2zm.2-.3v.4m.2-.4v.4m.3-.6v.9m.2-.9v.9m.2-1.1v1.1m.2-1.3v1.3m.2-1.3v1.1m.3-1.3v1.1m.2-1.1v.9m.2-1.2v.9m.2-.9v.9m.2-1.1v.9m.3-1.1v.9m.2-.9v.7m.2-.9v.7m.2-.7v.7m.2-.9v.7m.3-1v.7m.2-.7v.4m.2-.6v.4m.2-.4v.4m.2-.6v.4m.3-.4v.2m.2-.4v.2m.2-.4v.2m.2-.2v.2m.2-.5v.2m.7-.6l-26.1 20.4 26.1-20.4zm-26.2 20.4v55.6-55.6zm13 1.6l-13 7.5 13-7.5zm-13 7.4l22 12.7-22-12.7zm22 12.8v34-34z"/><text transform="matrix(0 .9397 -.9397 -.342 55.315 239.495)" fill="#97CCCE" font-family="'GOSTTypeA'" font-size="14.033">R</text><text transform="matrix(0 .9397 -.9397 -.342 55.315 245.26)" fill="#97CCCE" font-family="'GOSTTypeA'" font-size="14.033">a</text><text transform="matrix(0 .9397 -.9397 -.342 55.315 254.151)" fill="#97CCCE" font-family="'GOSTTypeA'" font-size="14.033">2</text><text transform="matrix(0 .9397 -.9397 -.342 55.315 259.917)" fill="#97CCCE" font-family="'GOSTTypeA'" font-size="14.033">,</text><text transform="matrix(0 .9397 -.9397 -.342 55.315 261.84)" fill="#97CCCE" font-family="'GOSTTypeA'" font-size="14.033">5</text><path fill="none" stroke="#97CCCE" stroke-miterlimit="10" d="M256.4 199.3H14.8h241.6zm-236.3 0l.9 7.9-.9-7.9zm.8 7.9l-.9-.9.9.9zm-.8-.9l-1.1.9 1.1-.9zm-1.1.9l1.1-7.9-1.1 7.9zm1.3-5.9v5.3-5.3zm.2 2v3.5m.2-1.6v1.8m-.4-5.7v5.3-5.3zm.2 2v3.5m.2-1.6v1.8m-1.5-1.3v1.5-1.5zm.2-1.6v2.9m.2-4.4v4.2m.2-5.7v5.5m.3-7.3v7m-.9-.6v1.5-1.5zm.2-1.6v2.9m.2-4.4v4.2m.2-5.7v5.5m.3-7.3v7m0 76l-1.1-7.7 1.1 7.7zm-1.1-7.7l1.1.7-1.1-.7zm1.1.7l.9-.7-.9.7zm.8-.7l-.9 7.7.9-7.7zm-1.7.3v1.3-1.3zm.2.2v2.6m.2-2.6v4.2m.2-4v5.5m.3-5.5v7m-.9-7.4v1.3-1.3zm.2.2v2.6m.2-2.6v4.2m.2-4v5.5m.3-5.5v7m.2-7v5.3-5.3zm.2-.2v3.5m.2-3.7v1.8m-.4-1.4v5.3-5.3zm.2-.2v3.5m.2-3.7v1.8m-.6-77.4v83-83zm236.3 83H14.8h241.6z"/><text transform="matrix(0 .9397 -.9397 -.342 25.602 225.116)" fill="#97CCCE" font-family="'GOSTTypeA'" font-size="20.194">8</text><text transform="matrix(0 .9397 -.9397 -.342 36.04 238.017)" fill="#97CCCE" font-family="'GOSTTypeA'" font-size="13.348">+</text><text transform="matrix(0 .9397 -.9397 -.342 36.04 242.365)" fill="#97CCCE" font-family="'GOSTTypeA'" font-size="13.348">0</text><text transform="matrix(0 .9397 -.9397 -.342 36.04 247.856)" fill="#97CCCE" font-family="'GOSTTypeA'" font-size="13.348">,</text><text transform="matrix(0 .9397 -.9397 -.342 36.04 249.687)" fill="#97CCCE" font-family="'GOSTTypeA'" font-size="13.348">1</text><text transform="matrix(0 .9397 -.9397 -.342 4.151 217.851)" fill="#97CCCE" font-family="'GOSTTypeA'" font-size="20.194">3</text><text transform="matrix(0 .9397 -.9397 -.342 4.151 230.55)" fill="#97CCCE" font-family="'GOSTTypeA'" font-size="20.194">ï</text><text transform="matrix(0 .9397 -.9397 -.342 4.151 237.758)" fill="#97CCCE" font-family="'GOSTTypeA'" font-size="20.194">à</text><text transform="matrix(0 .9397 -.9397 -.342 4.151 244.966)" fill="#97CCCE" font-family="'GOSTTypeA'" font-size="20.194">ç</text><text transform="matrix(0 .9397 -.9397 -.342 4.151 251.83)" fill="#97CCCE" font-family="'GOSTTypeA'" font-size="20.194">à</text><text transform="matrix(0 .9397 -.9397 -.342 524.055 252.415)" fill="#97CCCE" font-family="'GOSTTypeA'" font-size="28.408">À</text><text transform="matrix(0 .9397 -.9397 -.342 189.749 34.126)" fill="#97CCCE" font-family="'GOSTTypeA'" font-size="28.408">À</text><path fill="none" stroke="#97CCCE" stroke-miterlimit="10" d="M518.5 240.8l1.5 11.6-1.5-11.6zm1.5 11.7l-1.5-1.1 1.5 1.1zm-1.5-1.1l-1.5 1.1 1.5-1.1zm-1.6 1.1l1.5-11.6-1.5 11.6zm1.8-9.9v9-9zm.2 1.7v7.5m.2-5.9v6.2m.3-4.5v4.4m.2-2.8v3.1m.2-1.4v1.5m-1.1-9.8v9-9zm.2 1.7v7.5m.2-5.9v6.2m.3-4.5v4.4m.2-2.8v3.1m.2-1.4v1.5m-2.6-1.5v1.5-1.5zm.2-1.7v3.1m.2-4.7v4.4m.2-6.1v6.2m.2-7.8v7.5m.3-9.2v9m.2-10.8v10.5m-1.3-.4v1.5-1.5zm.2-1.7v3.1m.2-4.7v4.4m.2-6.1v6.2m.2-7.8v7.5m.3-9.2v9m.2-10.8v10.5m0 20.7v-31.2V272zm-290-226.7l-9.4 7 9.4-7zm-9.4 7l.4-1.8-.4 1.8zm.4-1.7l-2-.9 2 .9zm-2-.9l11-4.4-11 4.4zm1.8 1.8v.9-.9zm.2-.9v1.5m.2-1.5v1.3m.3-1.5v1.5m.2-1.5v1.3m.2-1.6v1.3m.2-1.3v1.1m.2-1.3v1.3m.3-1.5V51m.2-1.3v1.1m.2-1.3v1.1m.2-1.1v1.1m.2-1.3v1.1m.2-1.4v1.1m.3-1.1v.9m.2-1.1v1.1m.2-1.1v.9m.2-1.1v.9m.2-.9v.7m.3-.9v.9m.2-1.1v.8m.2-.8v.7m.2-1v.7m.2-.7v.7m.3-.9v.7m.2-.9v.7m.2-.7v.4m.2-.6v.7m.2-.7v.4m.3-.6v.4m.2-.4v.2m.2-.5v.4m.2-.6v.4m.2-.4v.2m.3-.4v.2m.2-.2v.2m.2-.4v.2m.2-.4v.2m.5-.4v.2m-8.6 5.5v.9-.9zm.2-.9v1.5m.2-1.5v1.3m.3-1.5v1.5m.2-1.5v1.3m.2-1.6v1.3m.2-1.3v1.1m.2-1.3v1.3m.3-1.5V51m.2-1.3v1.1m.2-1.3v1.1m.2-1.1v1.1m.2-1.3v1.1m.2-1.4v1.1m.3-1.1v.9m.2-1.1v1.1m.2-1.1v.9m.2-1.1v.9m.2-.9v.7m.3-.9v.9m.2-1.1v.8m.2-.8v.7m.2-1v.7m.2-.7v.7m.3-.9v.7m.2-.9v.7m.2-.7v.4m.2-.6v.7m.2-.7v.4m.3-.6v.4m.2-.4v.2m.2-.5v.4m.2-.6v.4m.2-.4v.2m.3-.4v.2m.2-.2v.2m.2-.4v.2m.2-.4v.2m.5-.4v.2m-10.1 3.7v.2-.2zm.2 0v.2m.2-.4v.7m.2-.7v.7m.2-.9v1.1m.3-1.1v1.1m.2-1.1v1.3m.2-1.6v1.5m.2-1.5v1.5m.2-1.7v1.8m.3-1.8v1.5m.2-1.5v1.5m.2-1.7v1.5m.2-1.5v1.5m.2-1.7v1.5m.3-1.5v1.3m.2-1.3v1.3m.2-1.5v1.3m.2-1.3v1.3m.2-1.6v1.3m.2-1.3V49m.3-1.1V49m.2-1.3v1.1m.2-1.1v1.1m.2-1.3v1.1m.2-1.1v1.1m.3-1.1v.9m.2-1.1v.9m.2-.9v.9m.2-1.1v.9m.2-.9v.9m.3-.9v.7m.2-1v.7m.2-.7v.7m.2-.9v.7m.2-.7v.7m.3-.7v.4m.2-.6v.7m.2-.7v.4m.2-.6v.4m.2-.4v.4m.3-.4v.2m.2-.4v.4m.2-.4v.2m.2-.4v.2m.2-.2v.2m.5-.5v.2m-10.3 4v.2-.2zm.2 0v.2m.2-.4v.7m.2-.7v.7m.2-.9v1.1m.3-1.1v1.1m.2-1.1v1.3m.2-1.6v1.5m.2-1.5v1.5m.2-1.7v1.8m.3-1.8v1.5m.2-1.5v1.5m.2-1.7v1.5m.2-1.5v1.5m.2-1.7v1.5m.3-1.5v1.3m.2-1.3v1.3m.2-1.5v1.3m.2-1.3v1.3m.2-1.6v1.3m.2-1.3V49m.3-1.1V49m.2-1.3v1.1m.2-1.1v1.1m.2-1.3v1.1m.2-1.1v1.1m.3-1.1v.9m.2-1.1v.9m.2-.9v.9m.2-1.1v.9m.2-.9v.9m.3-.9v.7m.2-1v.7m.2-.7v.7m.2-.9v.7m.2-.7v.7m.3-.7v.4m.2-.6v.7m.2-.7v.4m.2-.6v.4m.2-.4v.4m.3-.4v.2m.2-.4v.4m.2-.4v.2m.2-.4v.2m.2-.2v.2m.5-.5v.2m-26.6 15.2l27-15.6-27 15.6zm269.3 404.2l-6.2 4.6 6.2-4.6zm-6.1 4.6l.2-1.3-.2 1.3zm.2-1.3l-1.3-.4 1.3.4zm-1.3-.4l7.2-2.9-7.2 2.9zm1.3.4v1.3-1.3zm.2 0v1.1m.2-1.3v1.1m.2-1.1v.9m.3-1.1v1.1m.2-1.1v.9m.2-1.2v.9m.2-.9v.7m.2-.9v.9m.3-1.1v.9m.2-.9v.7m.2-.9v.7m.2-.7v.7m.2-.9v.7m.3-.7v.4m.2-.7v.4m.2-.4v.4m.2-.6v.4m.2-.6v.4m.3-.4v.2m.2-.4v.4m.2-.4v.2m.2-.4v.2m.5-.5v.2m-5.3 2.7v1.3-1.3zm.2 0v1.1m.2-1.3v1.1m.2-1.1v.9m.3-1.1v1.1m.2-1.1v.9m.2-1.2v.9m.2-.9v.7m.2-.9v.9m.3-1.1v.9m.2-.9v.7m.2-.9v.7m.2-.7v.7m.2-.9v.7m.3-.7v.4m.2-.7v.4m.2-.4v.4m.2-.6v.4m.2-.6v.4m.3-.4v.2m.2-.4v.4m.2-.4v.2m.2-.4v.2m.5-.5v.2m-6.4 2.3v.2-.2zm.2 0v.2m.2-.5v.4m.2-.4v.7m.3-.7v.7m.2-.9v.9m.2-.9v.9m.2-1.1v.9m.2-.9v.9m.3-.9v.7m.2-.9v.9m.2-.9v.7m.2-.9v.9m.2-.9v.7m.3-.7v.4m.2-.7v.7m.2-.7v.4m.2-.6v.7m.2-.7v.4m.3-.4v.4m.2-.6v.4m.2-.4v.4m.2-.6v.4m.2-.4v.2m.3-.2v.2m.2-.4v.2m.2-.2v.2m.2-.5v.2m.2-.2v.2m.5-.4v.2m-6.6 2.5v.2-.2zm.2 0v.2m.2-.5v.4m.2-.4v.7m.3-.7v.7m.2-.9v.9m.2-.9v.9m.2-1.1v.9m.2-.9v.9m.3-.9v.7m.2-.9v.9m.2-.9v.7m.2-.9v.9m.2-.9v.7m.3-.7v.4m.2-.7v.7m.2-.7v.4m.2-.6v.7m.2-.7v.4m.3-.4v.4m.2-.6v.4m.2-.4v.4m.2-.6v.4m.2-.4v.2m.3-.2v.2m.2-.4v.2m.2-.2v.2m.2-.5v.2m.2-.2v.2m.5-.4v.2m-388-224.7l1.1 7.7-1.1-7.7zm1.1 7.7l-.9-.7.9.7zm-.8-.7l-1.1.9 1.1-.9zm-1.1.9l.9-7.9-.9 7.9zm1.1-6.3v5.5-5.5zm.2 1.5v4.2m.2-2.7v2.9m.2-1.3v1.5m-.6-6.1v5.5-5.5zm.2 1.5v4.2m.2-2.7v2.9m.2-1.3v1.5m-1.5-1.8v2-2zm.2-1.9v3.7m.2-5.7v5.5m.2-7.5v7.2m-.6-1.3v2-2zm.2-1.9v3.7m.2-5.7v5.5m.2-7.5v7.2m388.4 217.1l-13.2 7 13.2-7zm-13.2 7l-13.6 6.4 13.6-6.4zm-13.6 6.4l-14.1 5.7 14.1-5.7zm-14 5.7l-14.3 4.6 14.3-4.6zm-14.3 4.6l-14.7 4 14.7-4zm-14.7 4l-14.7 3.1 14.7-3.1zm-14.8 3l-14.9 2.2 14.9-2.2zm-14.9 2.2l-14.9 1.3 14.9-1.3zm-14.9 1.4l-15.2.4 15.2-.4zm-15.2.4l-14.9-.4 14.9.4zm-14.9-.4l-15.2-1.3 15.2 1.3zm-15.2-1.4l-14.9-2.2 14.9 2.2zm-14.9-2.2l-14.7-3.1 14.7 3.1zm-14.7-3l-14.5-4 14.5 4zm-14.5-4l-14.3-4.8 14.3 4.8zm-14.3-4.8l-14.1-5.5 14.1 5.5zm-14.1-5.5l-13.6-6.4 13.6 6.4zm-13.6-6.4l-13.4-7.2 13.4 7.2zm-13.4-7.2l-12.7-7.9 12.7 7.9zm-12.7-7.9l-12.3-8.8 12.3 8.8zm-12.3-8.8l-11.9-9.2 11.9 9.2zm-11.9-9.2l-11.2-10.1 11.2 10.1zm-11.2-10.1l-10.8-10.8 10.8 10.8zm-10.8-10.8l-9.9-11.2 9.9 11.2zm-9.8-11.2l-9.4-11.9 9.4 11.9zm-9.5-11.9l-8.6-12.3 8.6 12.3zm-8.6-12.3l-7.9-13 7.9 13zm-7.9-12.9l-7-13.2 7 13.2zm-7-13.2l-6.4-13.6 6.4 13.6zm-6.4-13.6l-5.7-14.1 5.7 14.1zm-5.7-14.1l-4.6-14.5 4.6 14.5zm-4.6-14.5l-4-14.5 4 14.5zm-3.9-14.5l-2.9-14.7 2.9 14.7zm-2.9-14.7l-2.2-14.9 2.2 14.9zm-2.2-14.9l-1.3-15.2 1.3 15.2zm-1.3-15.2l-.4-14.3.4 14.3z"/><text transform="matrix(.8138 .4698 -.7661 .6428 191.64 447.055)" fill="#97CCCE" font-family="'GOSTTypeA'" font-size="20.194">1</text><text transform="matrix(.8138 .4698 -.7661 .6428 196.396 449.8)" fill="#97CCCE" font-family="'GOSTTypeA'" font-size="20.194">2</text><text transform="matrix(.8138 .4698 -.7661 .6428 203.529 453.92)" fill="#97CCCE" font-family="'GOSTTypeA'" font-size="20.194">0</text><path fill="#97CCCE" d="M223.7 452.7c-.4.3-.9.5-1.5.6-.6.1-1.2 0-1.6-.3-.4-.2-.6-.6-.7-1 0-.4.1-.8.6-1.2.4-.3.9-.5 1.5-.6.6-.1 1.2 0 1.6.3.4.2.6.6.7 1 0 .5-.2.9-.6 1.2zm-.8-.4c.2-.2.3-.3.3-.6 0-.2-.1-.4-.3-.5-.2-.1-.4-.2-.8-.1-.3 0-.6.1-.8.3-.2.2-.3.4-.3.6 0 .2.1.4.3.5.2.1.5.2.8.1.3 0 .6-.1.8-.3z"/><text transform="matrix(.8138 .4698 -.7661 .6428 215.42 460.786)" fill="#97CCCE" font-family="'GOSTTypeA'" font-size="20.194">±</text><text transform="matrix(.8138 .4698 -.7661 .6428 221.662 464.389)" fill="#97CCCE" font-family="'GOSTTypeA'" font-size="20.194">1</text><path fill="none" stroke="#97CCCE" stroke-miterlimit="10" d="M159.5 240.8l-.9-7.7.9 7.7zm-.8-7.7l1.1.7-1.1-.7zm1.1.7l.9-.7-.9.7zm.8-.7l-1.1 7.7 1.1-7.7zm-1.7.2v1.8-1.8zm.2.3v3.5m.2-3.5v5.5m.2-5.3v7m-.6-7.5v1.8-1.8zm.2.3v3.5m.2-3.5v5.5m.2-5.3v7m.3-7v5.5-5.5zm.2 0v4m.2-4.2v2.6m.2-2.9v1.3m-.6-.8v5.5-5.5zm.2 0v4m.2-4.2v2.6m.2-2.9v1.3m263-153.7v.4-.4zm.2-.4v.9m.2-1.4v1.5m.2-1.7v1.8m.2-2.2v2.4m.3-2.9v2.9m.2-3.3v3.3m.2-3.8v4m.2-4.4V82m.2-4.8v5.1m.3-5.6v5.5m.2-5.3v5.5m.2-5.2v5.3m.2-5.1v5.1m.2-5.1v5.3m.3-5.1v5.1m.2-4.9v5.1m.2-5.1v5.1m.2-4.9v4.8m.2-4.5v4.8m.3-4.6v4.6m.2-4.6v4.6m.2-4.4v4.4m.2-4.2v4.2m.2-4.2v4.2m.3-4v4m.2-3.7v3.7m.2-3.7v3.7m.2-3.3v3.3m.2-3.1v3.1m.3-2.9v3.1m.2-2.6v2.6m.2-2.4v2.4m.2-2.2v2.2m.2-2v2m.3-1.5v1.5m.2-1.3v1.3m.2-1.1v1.1m.2-.6v.7m.2-.5v.4m.3-.2v.2m-8.8-2.4v.4-.4zm.2-.4v.9m.2-1.4v1.5m.2-1.7v1.8m.2-2.2v2.4m.3-2.9v2.9m.2-3.3v3.3m.2-3.8v4m.2-4.4V82m.2-4.8v5.1m.3-5.6v5.5m.2-5.3v5.5m.2-5.2v5.3m.2-5.1v5.1m.2-5.1v5.3m.3-5.1v5.1m.2-4.9v5.1m.2-5.1v5.1m.2-4.9v4.8m.2-4.5v4.8m.3-4.6v4.6m.2-4.6v4.6m.2-4.4v4.4m.2-4.2v4.2m.2-4.2v4.2m.3-4v4m.2-3.7v3.7m.2-3.7v3.7m.2-3.3v3.3m.2-3.1v3.1m.3-2.9v3.1m.2-2.6v2.6m.2-2.4v2.4m.2-2.2v2.2m.2-2v2m.3-1.5v1.5m.2-1.3v1.3m.2-1.1v1.1m.2-.6v.7m.2-.5v.4m.3-.2v.2m.2 0l-7.2-2.9 7.2 2.9zm-7.3-2.8l1.1-.4-1.1.4zm1.1-.5l-.2-1.3.2 1.3zm-.2-1.3l6.4 4.6-6.4-4.6zm-.7 1.8v.2-.2zm.3 0v.2m.2-.5v.7m.2-.7v.7m.2-.9v.9m.2-.7v.9m.3-.6v.7m.2-.7v.9m.2-.7v.7m.2-.7v.7m.2-.5v.7m.3-.7v.7m.2-.5v.7m.2-.7v.7m.2-.5v.4m.2-.4v.7m.3-.4v.4m.2-.4v.7m.2-.5v.4m.2-.2v.2m.2-.2v.4m.3-.2v.2m.2-.2v.4m.2-.2v.2m.2-.2v.2m.2.1v.2m.3-.2v.2m.2 0v.2m.2-.2v.2m.4 0v.2m-6.6-2.8v.2-.2zm.3 0v.2m.2-.5v.7m.2-.7v.7m.2-.9v.9m.2-.7v.9m.3-.6v.7m.2-.7v.9m.2-.7v.7m.2-.7v.7m.2-.5v.7m.3-.7v.7m.2-.5v.7m.2-.7v.7m.2-.5v.4m.2-.4v.7m.3-.4v.4m.2-.4v.7m.2-.5v.4m.2-.2v.2m.2-.2v.4m.3-.2v.2m.2-.2v.4m.2-.2v.2m.2-.2v.2m.2.1v.2m.3-.2v.2m.2 0v.2m.2-.2v.2m.4 0v.2m-5.7-4.4V80v-1.1zm.2.2v1.1m.3-.8v1.1m.2-1.1v1.1m.2-.9v1.1m.2-.9v.9m.2-.7v.9m.3-.9v.9m.2-.7v.9m.2-.6v.7m.2-.7v.9m.2-.7v.7m.3-.5v.7m.2-.5v.4m.2-.4v.7m.2-.5v.7m.2-.4v.4m.3-.2v.4m.2-.4v.4m.2-.2v.4m.2-.2v.2m.2-.2v.4m.3-.2v.2m.2.1v.2m.4 0v.2m-5.5-4.2V80v-1.1zm.2.2v1.1m.3-.8v1.1m.2-1.1v1.1m.2-.9v1.1m.2-.9v.9m.2-.7v.9m.3-.9v.9m.2-.7v.9m.2-.6v.7m.2-.7v.9m.2-.7v.7m.3-.5v.7m.2-.5v.4m.2-.4v.7m.2-.5v.7m.2-.4v.4m.3-.2v.4m.2-.4v.4m.2-.2v.4m.2-.2v.2m.2-.2v.4m.3-.2v.2m.2.1v.2m.4 0v.2M159.5 240.8l.4-12.5-.4 12.5zm.5-12.5l1.3-12.7-1.3 12.7zm1.3-12.7l2.2-12.3-2.2 12.3zm2.2-12.3l3.1-12.3-3.1 12.3zm3.1-12.3l4-12.1-4 12.1zm3.9-12.1l4.6-11.6-4.6 11.6zm4.6-11.7l5.5-11.4-5.5 11.4zm5.5-11.4l6.4-11-6.4 11zm6.4-11l7-10.5-7 10.5zm7-10.5l7.7-9.9-7.7 9.9zm7.7-9.9l8.6-9.4-8.6 9.4zm8.6-9.5l9-8.8-9 8.8zm9-8.7L229 98l-9.7 8.2zM229 98l10.1-7.5L229 98zm10.1-7.4l10.8-6.8-10.8 6.8zm10.7-6.8l11-5.9-11 5.9zm11-6l11.6-5.3-11.6 5.3zm11.7-5.2l11.9-4.4-11.9 4.4zm11.8-4.4l12.1-3.5-12.1 3.5zm12.1-3.6l12.3-2.6-12.3 2.6zm12.3-2.6l12.5-2-12.5 2zm12.5-2l12.7-.9-12.7.9zm12.8-.8l12.5-.2-12.5.2zm12.5-.3l12.7.9-12.7-.9zm12.7.9l12.5 1.8-12.5-1.8zm12.5 1.8L384 64l-12.3-2.4zM384 64l12.1 3.5L384 64zm12.1 3.5l12.1 4.2-12.1-4.2zm12.1 4.2l11.4 5.1-11.4-5.1zm11.4 5l11.2 5.7-11.2-5.7zm11.2 5.7l1.5.9-1.5-.9z"/><text transform="matrix(-.8138 .4698 -.1736 -.9848 276.319 74.655)" fill="#97CCCE" font-family="'GOSTTypeA'" font-size="20.194">1</text><text transform="matrix(-.8138 .4698 -.1736 -.9848 271.563 77.402)" fill="#97CCCE" font-family="'GOSTTypeA'" font-size="20.194">2</text><text transform="matrix(-.8138 .4698 -.1736 -.9848 264.428 81.52)" fill="#97CCCE" font-family="'GOSTTypeA'" font-size="20.194">0</text><path fill="#97CCCE" d="M255.3 99.6c-.1-.5 0-1 .2-1.6.2-.6.6-1 1-1.3.4-.2.8-.2 1.2-.1.4.2.6.5.7 1.1.1.5 0 1-.2 1.6-.2.6-.6 1-1 1.3-.4.2-.8.3-1.2.1-.3-.2-.6-.5-.7-1.1zm.8-.4c0 .2.2.4.3.5.2.1.4.1.6 0 .2-.1.4-.3.5-.6.1-.3.2-.6.1-.8 0-.3-.2-.5-.4-.6-.2-.1-.4-.1-.6 0-.2.1-.4.3-.5.6v.9z"/><text transform="matrix(-.8138 .4698 -.1736 -.9848 252.538 88.386)" fill="#97CCCE" font-family="'GOSTTypeA'" font-size="20.194">±</text><path fill="none" stroke="#97CCCE" stroke-miterlimit="10" d="M237.7 187.2l7.5 2.6-7.5-2.6zm7.5 2.7l-1.3.4 1.3-.4zm-1.3.4l.2 1.3-.2-1.3zm.2 1.3l-6.4-4.4 6.4 4.4zm-5.3-3.9v.2-.2zm.5.2v.2m.2-.2v.2m.2 0v.2m.2-.2v.2m.3-.2v.4m.2-.2v.2m.2-.2v.4m.2-.4v.4m.2-.2v.4m.3-.4v.4m.2-.4v.7m.2-.4v.4m.2-.4v.7m.2-.5v.4m.3-.4v.7m.2-.7v.7m.2-.5v.7m.2-.7v.7m.2-.7v.9m.3-.7v.7m.2-.7v.9m.2-.9v.9m.2-.7v.7m.2-.7v.7m.3-.7v.4m.2-.1v.2m.2-.2v.2m-6.2-2.4v.2-.2zm.5.2v.2m.2-.2v.2m.2 0v.2m.2-.2v.2m.3-.2v.4m.2-.2v.2m.2-.2v.4m.2-.4v.4m.2-.2v.4m.3-.4v.4m.2-.4v.7m.2-.4v.4m.2-.4v.7m.2-.5v.4m.3-.4v.7m.2-.7v.7m.2-.5v.7m.2-.7v.7m.2-.7v.9m.3-.7v.7m.2-.7v.9m.2-.9v.9m.2-.7v.7m.2-.7v.7m.3-.7v.4m.2-.1v.2m.2-.2v.2m-6.8-2.7v.2-.2zm.2.3v.2m.2-.2v.2m.2 0v.2m.3-.2v.4m.2-.2v.2m.2-.2v.4m.2-.2v.4m.2-.4v.4m.3-.2v.4m.2-.4v.7m.2-.4v.4m.2-.4v.7m.2-.5v.7m.3-.7v.9m.2-.7v.7m.2-.7v.9m.2-.7v.9m.2-.9v.9m.3-.7v.9m.2-.9v1.1m.2-.8v.9m.2-.9v1.1m.2-.9v1.1m.3-1.1v1.1m.2-.9v1.1m.2-1.1v1.3m-5.7-4.2v.2-.2zm.2.3v.2m.2-.2v.2m.2 0v.2m.3-.2v.4m.2-.2v.2m.2-.2v.4m.2-.2v.4m.2-.4v.4m.3-.2v.4m.2-.4v.7m.2-.4v.4m.2-.4v.7m.2-.5v.7m.3-.7v.9m.2-.7v.7m.2-.7v.9m.2-.7v.9m.2-.9v.9m.3-.7v.9m.2-.9v1.1m.2-.8v.9m.2-.9v1.1m.2-.9v1.1m.3-1.1v1.1m.2-.9v1.1m.2-1.1v1.3m201.2 102.8l-7.5-2.6 7.5 2.6zm-7.5-2.6l1.3-.4-1.3.4zm1.4-.5l-.2-1.3.2 1.3zm-.3-1.3l6.4 4.4-6.4-4.4zm-.8 1.8v.2-.2zm.2 0v.2m.2-.4v.7m.2-.7v.7m.2-.7v.7m.3-1v1.1m.2-.8v.9m.2-.9v.9m.2-.7v.9m.2-.9v.9m.3-.7v.7m.2-.7v.9m.2-.7v.7m.2-.7v.7m.2-.5v.7m.3-.7v.7m.2-.4v.4m.2-.4v.7m.2-.5v.4m.2-.4v.7m.3-.5v.4m.2-.4v.4m.2-.2v.4m.2-.4v.4m.2-.2v.2m.3-.2v.4m.2-.1v.2m.2-.2v.2m.2 0v.2m.2-.2v.2m.5 0v.2m-6.8-2.6v.2-.2zm.2 0v.2m.2-.4v.7m.2-.7v.7m.2-.7v.7m.3-1v1.1m.2-.8v.9m.2-.9v.9m.2-.7v.9m.2-.9v.9m.3-.7v.7m.2-.7v.9m.2-.7v.7m.2-.7v.7m.2-.5v.7m.3-.7v.7m.2-.4v.4m.2-.4v.7m.2-.5v.4m.2-.4v.7m.3-.5v.4m.2-.4v.4m.2-.2v.4m.2-.4v.4m.2-.2v.2m.3-.2v.4m.2-.1v.2m.2-.2v.2m.2 0v.2m.2-.2v.2m.5 0v.2m-5.7-4.2v1.1-1.1zm.2.3v1.1m.2-.9v.9m.2-.9v1.1m.2-.9v.9m.3-.7v.9m.2-.9v.9m.2-.7v.9m.2-.6v.7m.2-.7v.9m.3-.7v.7m.2-.5v.7m.2-.7v.7m.2-.5v.7m.2-.5v.4m.3-.1v.4m.2-.4v.4m.2-.2v.4m.2-.2v.2m.2-.2v.4m.3-.2v.2m.2 0v.2m.2-.2v.2m.2.1v.2m.5 0v.2m-5.5-4v1.1-1.1zm.2.3v1.1m.2-.9v.9m.2-.9v1.1m.2-.9v.9m.3-.7v.9m.2-.9v.9m.2-.7v.9m.2-.6v.7m.2-.7v.9m.3-.7v.7m.2-.5v.7m.2-.7v.7m.2-.5v.7m.2-.5v.4m.3-.1v.4m.2-.4v.4m.2-.2v.4m.2-.2v.2m.2-.2v.4m.3-.2v.2m.2 0v.2m.2-.2v.2m.2.1v.2m.5 0v.2m-206.8-107l207.4 107.2-207.4-107.2zm207.4 107.2l54.5 28.3-54.5-28.3zm54.5 28.4v60.6-60.6z"/><path fill="#97CCCE" d="M508.2 328.2c.3-.5.7-.9 1.4-1 .6-.2 1.3-.1 2 .1 1 .4 1.8 1 2.6 2s1.1 2 1.1 3v.6l2.5 1.7c.2.2.3.3.3.6 0 .1 0 .2-.1.3-.1.1-.2.1-.3 0l-.2-.1-2.5-1.7c-.2.5-.7.9-1.4 1.1-.3.1-.6.1-1 .1s-.7-.1-1-.2c-1-.4-1.9-1-2.6-2-.7-1-1.1-2-1.1-3v-.4c0-.1 0-.2.1-.3l-2.5-1.7c-.2-.2-.3-.3-.3-.6 0-.1 0-.2.1-.3.1-.1.2-.1.3 0l.2.1 2.4 1.7zm.9.6l5.2 3.5v-.3c0-.8-.3-1.5-.8-2.3-.3-.4-.6-.7-.9-.9l-.5-.3-.4-.2-.2-.1c-.5-.2-1-.2-1.4-.1-.4.1-.8.3-1 .7zm4.9 4.4l-5.3-3.6v.4c0 .8.3 1.5.8 2.3.5.7 1.2 1.3 2 1.5.5.2 1 .2 1.4.1.5-.1.8-.4 1.1-.7z"/><text transform="matrix(0 .9397 -.9397 -.342 504.985 333.238)" fill="#97CCCE" font-family="'GOSTTypeA'" font-size="20.194">2</text><text transform="matrix(0 .9397 -.9397 -.342 504.985 341.476)" fill="#97CCCE" font-family="'GOSTTypeA'" font-size="20.194">2</text><text transform="matrix(0 .9397 -.9397 -.342 504.985 349.714)" fill="#97CCCE" font-family="'GOSTTypeA'" font-size="20.194">,</text><text transform="matrix(0 .9397 -.9397 -.342 504.985 352.459)" fill="#97CCCE" font-family="'GOSTTypeA'" font-size="20.194">5</text><text transform="matrix(0 .9397 -.9397 -.342 504.985 359.667)" fill="#97CCCE" font-family="'GOSTTypeA'" font-size="20.194">H</text><text transform="matrix(0 .9397 -.9397 -.342 504.985 367.905)" fill="#97CCCE" font-family="'GOSTTypeA'" font-size="20.194">1</text><text transform="matrix(0 .9397 -.9397 -.342 504.985 373.396)" fill="#97CCCE" font-family="'GOSTTypeA'" font-size="20.194">1</text><path fill="none" stroke="#97CCCE" stroke-miterlimit="10" d="M277.1 286.5l-2.9 7.2 2.9-7.2zm-2.9 7.3l-.7-1.1.7 1.1zm-.6-1.1h-1.1 1.1zm-1.1 0l4.6-6.2-4.6 6.2zm1.3-.3v.7-.7zm.2-.4v1.5m.2-1.9v2.2m.2-2.7v2.2m.3-2.4v1.8m.2-2.2v1.8m.2-2.3v1.5m.2-1.9v1.5m.2-1.7v1.1m.2-1.6v1.1m.3-1.5v.9m.2-1.4v.9m.2-1.1v.4m.2-.8v.4m.2-.9v.2m-3 5.3v.7-.7zm.2-.4v1.5m.2-1.9v2.2m.2-2.7v2.2m.3-2.4v1.8m.2-2.2v1.8m.2-2.3v1.5m.2-1.9v1.5m.2-1.7v1.1m.2-1.6v1.1m.3-1.5v.9m.2-1.4v.9m.2-1.1v.4m.2-.8v.4m.2-.9v.2m-4.1 5.3v.2-.2zm.2-.2v.4m.2-.8v.9m.2-1.1v1.1m.3-1.4v1.3m.2-1.7v1.5m.2-1.7v1.3m.2-1.5v1.1m.2-1.6v1.1m.3-1.3v1.1m.2-1.3v.9m.2-1.4v.9m.2-1.1v.7m.2-.9v.7m.2-1.1v.7m.3-1v.4m.2-.6v.2m.2-.6v.4m.2-.6v.2m-3.9 5v.2-.2zm.2-.2v.4m.2-.8v.9m.2-1.1v1.1m.3-1.4v1.3m.2-1.7v1.5m.2-1.7v1.3m.2-1.5v1.1m.2-1.6v1.1m.3-1.3v1.1m.2-1.3v.9m.2-1.4v.9m.2-1.1v.7m.2-.9v.7m.2-1.1v.7m.3-1v.4m.2-.6v.2m.2-.6v.4m.2-.6v.2M237.7 355l39.3-68.5-39.3 68.5zm0 0v85-85z"/><text transform="matrix(0 .9397 -.9397 -.342 243.01 361.75)" fill="#97CCCE" font-family="'GOSTTypeA'" font-size="20.194">R</text><text transform="matrix(0 .9397 -.9397 -.342 243.01 369.988)" fill="#97CCCE" font-family="'GOSTTypeA'" font-size="20.194">3</text><text transform="matrix(0 .9397 -.9397 -.342 243.01 377.195)" fill="#97CCCE" font-family="'GOSTTypeA'" font-size="20.194">H</text><text transform="matrix(0 .9397 -.9397 -.342 243.01 385.433)" fill="#97CCCE" font-family="'GOSTTypeA'" font-size="20.194">1</text><text transform="matrix(0 .9397 -.9397 -.342 243.01 390.924)" fill="#97CCCE" font-family="'GOSTTypeA'" font-size="20.194">1</text><text transform="matrix(0 .9397 -.9397 -.342 243.01 396.416)" fill="#97CCCE" font-family="'GOSTTypeA'" font-size="20.194">*</text><text transform="matrix(0 .9397 -.9397 -.342 221.902 356.26)" fill="#97CCCE" font-family="'GOSTTypeA'" font-size="20.194">1</text><text transform="matrix(0 .9397 -.9397 -.342 221.902 361.751)" fill="#97CCCE" font-family="'GOSTTypeA'" font-size="20.194">2</text><text transform="matrix(0 .9397 -.9397 -.342 221.902 375.48)" fill="#97CCCE" font-family="'GOSTTypeA'" font-size="20.194">ð</text><text transform="matrix(0 .9397 -.9397 -.342 221.902 382.689)" fill="#97CCCE" font-family="'GOSTTypeA'" font-size="20.194">à</text><text transform="matrix(0 .9397 -.9397 -.342 221.902 389.897)" fill="#97CCCE" font-family="'GOSTTypeA'" font-size="20.194">ä</text><text transform="matrix(0 .9397 -.9397 -.342 221.902 397.104)" fill="#97CCCE" font-family="'GOSTTypeA'" font-size="20.194">è</text><text transform="matrix(0 .9397 -.9397 -.342 221.902 404.312)" fill="#97CCCE" font-family="'GOSTTypeA'" font-size="20.194">ó</text><text transform="matrix(0 .9397 -.9397 -.342 221.902 411.52)" fill="#97CCCE" font-family="'GOSTTypeA'" font-size="20.194">ñ</text><text transform="matrix(0 .9397 -.9397 -.342 221.902 418.728)" fill="#97CCCE" font-family="'GOSTTypeA'" font-size="20.194">î</text><text transform="matrix(0 .9397 -.9397 -.342 221.902 425.936)" fill="#97CCCE" font-family="'GOSTTypeA'" font-size="20.194">â</text><path fill="none" stroke="#97CCCE" stroke-miterlimit="10" d="M288.7 296.6l4.6-6.4-4.6 6.4zm4.6-6.4l.2 1.3-.2-1.3zm.2 1.4h1.1-1.1zm1.1 0l-5.9 5.1 5.9-5.1zm-5.2 4.1v.2-.2zm.2-.2v.2m.2-.4v.2m.2-.6v.4m.2-.7v.4m.3-.8v.7m.2-.9v.7m.2-.9v.7m.2-1.2v.9m.2-1.1v.9m.3-1.1v.9m.2-1.4v1.1m.2-1.3v1.1m.2-1.5v1.3m.2-1.5v1.3m.3-1.6v1.3m.2-1.7v1.5m.2-1.7v1.5m.2-2v1.8m-3.9 3.7v.2-.2zm.2-.2v.2m.2-.4v.2m.2-.6v.4m.2-.7v.4m.3-.8v.7m.2-.9v.7m.2-.9v.7m.2-1.2v.9m.2-1.1v.9m.3-1.1v.9m.2-1.4v1.1m.2-1.3v1.1m.2-1.5v1.3m.2-1.5v1.3m.3-1.6v1.3m.2-1.7v1.5m.2-1.7v1.5m.2-2v1.8m-4.4 4.4v.2-.2zm.2-.2v.2m.3-.4v.2m.2-.5v.2m.2-.4v.2m.2-.4v.2m.2-.4v.4m.3-.6v.4m.2-.7v.4m.2-.6v.4m.2-.6v.4m.2-.6v.4m.3-.6v.4m.2-.7v.7m.2-.9v.7m.2-.9v.7m.2-.9v.7m.3-.9v.7m.2-1v.7m.2-.9v.7m.2-.9v.9m.2-1.3v1.1m.3-1.1v.9m.2-.9v.7m.2-.7v.4m.2-.4v.2m-5.5 4.6v.2-.2zm.2-.2v.2m.3-.4v.2m.2-.5v.2m.2-.4v.2m.2-.4v.2m.2-.4v.4m.3-.6v.4m.2-.7v.4m.2-.6v.4m.2-.6v.4m.2-.6v.4m.3-.6v.4m.2-.7v.7m.2-.9v.7m.2-.9v.7m.2-.9v.7m.3-.9v.7m.2-1v.7m.2-.9v.7m.2-.9v.9m.2-1.3v1.1m.3-1.1v.9m.2-.9v.7m.2-.7v.4m.2-.4v.2M394.1 185l-4.4 6.4 4.4-6.4zm-4.3 6.4l-.2-1.3.2 1.3zm-.3-1.3h-1.3 1.3zm-1.3 0l5.9-5.1-5.9 5.1zm1.6-.2v1.5-1.5zm.2-.3v1.5m.2-1.7v1.5m.2-1.7v1.3m.2-1.5v1.3m.3-1.5v1.1m.2-1.4v1.1m.2-1.3v.9m.2-1.1v.9m.2-1.1v.7m.3-1.2v.9m.2-1.1v.9m.2-1.1v.7m.2-.9v.7m.2-.9v.4m.3-.7v.4m.2-.6v.2m.2-.4v.2m-3.7 3.8v1.5-1.5zm.2-.3v1.5m.2-1.7v1.5m.2-1.7v1.3m.2-1.5v1.3m.3-1.5v1.1m.2-1.4v1.1m.2-1.3v.9m.2-1.1v.9m.2-1.1v.7m.3-1.2v.9m.2-1.1v.9m.2-1.1v.7m.2-.9v.7m.2-.9v.4m.3-.7v.4m.2-.6v.2m.2-.4v.2m-4.8 3.8v.2-.2zm.2-.3v.4m.2-.6v.7m.2-.9v.9m.2-1.1v1.1m.3-1.1v.9m.2-1.1v.9m.2-1.2v.9m.2-1.1v.9m.2-1.1v.9m.3-1.1v.9m.2-1.1v.9m.2-.9v.7m.2-1v.7m.2-.9v.7m.3-.9v.4m.2-.6v.4m.2-.6v.4m.2-.7v.4m.2-.4v.2m.3-.4v.2m.2-.4v.2m.2-.4v.2m.2-.4v.2m.2-.5v.2m-5.2 4.5v.2-.2zm.2-.3v.4m.2-.6v.7m.2-.9v.9m.2-1.1v1.1m.3-1.1v.9m.2-1.1v.9m.2-1.2v.9m.2-1.1v.9m.2-1.1v.9m.3-1.1v.9m.2-1.1v.9m.2-.9v.7m.2-1v.7m.2-.9v.7m.3-.9v.4m.2-.6v.4m.2-.6v.4m.2-.7v.4m.2-.4v.2m.3-.4v.2m.2-.4v.2m.2-.4v.2m.2-.4v.2m.2-.5v.2M288.7 296.6L394.1 185 288.7 296.6zM394.1 185l75.1-79.1-75.1 79.1zm75.2-79.1V46.2v59.7z"/><path fill="#97CCCE" d="M478 51.7c.3-.5.7-.9 1.4-1 .6-.2 1.3-.1 2 .1 1 .4 1.8 1 2.6 2s1.1 2 1.1 3v.6l2.5 1.7c.2.2.3.3.3.6 0 .1 0 .2-.1.3-.1.1-.2.1-.3 0l-.2-.1-2.5-1.7c-.2.5-.7.9-1.4 1.1-.3.1-.6.1-1 .1s-.7-.1-1-.2c-1-.4-1.9-1-2.6-2-.7-1-1.1-2-1.1-3v-.4c0-.1 0-.2.1-.3l-2.5-1.7c-.2-.2-.3-.3-.3-.6 0-.1 0-.2.1-.3.1-.1.2-.1.3 0l.2.1 2.4 1.7zm.9.6l5.2 3.5v-.3c0-.8-.3-1.5-.8-2.3-.3-.4-.6-.7-.9-.9l-.5-.3-.4-.2-.2-.1c-.5-.2-1-.2-1.4-.1-.4.1-.7.3-1 .7zm5 4.4l-5.3-3.6v.4c0 .8.3 1.5.8 2.3.5.7 1.2 1.3 2 1.5.5.2 1 .2 1.4.1s.8-.4 1.1-.7z"/><text transform="matrix(0 .9397 -.9397 -.342 474.844 56.736)" fill="#97CCCE" font-family="'GOSTTypeA'" font-size="20.194">1</text><text transform="matrix(0 .9397 -.9397 -.342 474.844 62.228)" fill="#97CCCE" font-family="'GOSTTypeA'" font-size="20.194">4</text><text transform="matrix(0 .9397 -.9397 -.342 474.844 70.465)" fill="#97CCCE" font-family="'GOSTTypeA'" font-size="20.194">,</text><text transform="matrix(0 .9397 -.9397 -.342 474.844 73.211)" fill="#97CCCE" font-family="'GOSTTypeA'" font-size="20.194">8</text><text transform="matrix(0 .9397 -.9397 -.342 485.282 86.112)" fill="#97CCCE" font-family="'GOSTTypeA'" font-size="13.348">+</text><text transform="matrix(0 .9397 -.9397 -.342 485.282 90.46)" fill="#97CCCE" font-family="'GOSTTypeA'" font-size="13.348">0</text><text transform="matrix(0 .9397 -.9397 -.342 485.282 95.95)" fill="#97CCCE" font-family="'GOSTTypeA'" font-size="13.348">,</text><text transform="matrix(0 .9397 -.9397 -.342 485.282 97.782)" fill="#97CCCE" font-family="'GOSTTypeA'" font-size="13.348">1</text><path fill="none" stroke="#97CCCE" stroke-miterlimit="10" d="M451 .5h18.2H451zm0 0v18-18zm18.3 0v18-18zm-18.3 18h18.2H451zm0 0v55.6-55.6zm18.3 0v55.6-55.6zM451 74.1h18.2H451zm0 31.8h18.2H451zm0-31.8V106 74.1zm18.3 0V106 74.1zm-9-60l1.8-.4-1.8.4zm1.7-.4l1.8-1.3-1.8 1.3zm1.8-1.3l.9-1.8-.9 1.8zm.9-1.8v-2 2zm0-2l-.9-1.8.9 1.8zm-.9-1.7l-1.5-1.3 1.5 1.3zm-1.6-1.3l-1.8-.7 1.8.7zm-1.7-.7l-2 .4 2-.4zm-2 .4l-1.8 1.1 1.8-1.1zm-1.7 1.1l-.9 1.8.9-1.8zm-.9 1.8l-.2 2 .2-2zm-.2 2l.7 1.8-.7-1.8zm.6 1.7l1.5 1.5-1.5-1.5zm1.6 1.6l1.8.7-1.8-.7zm1.7.6h.7-.7zm.7 2.7l2.4-.4-2.4.4zm2.4-.5l2.2-1.3-2.2 1.3zm2.2-1.3l1.5-1.8-1.5 1.8zm1.5-1.8l.9-2.4-.9 2.4zm.9-2.4V8.2v2.6zm0-2.6l-.9-2.2.9 2.2zm-.9-2.2l-1.5-2 1.5 2zm-1.5-2l-2.2-1.3 2.2 1.3zm-2.2-1.3l-2.4-.4 2.4.4zm-2.4-.4l-2.4.4 2.4-.4zm-2.4.4L455.7 4l2.2-1.3zM455.7 4l-1.8 1.8 1.8-1.8zm-1.8 1.8l-.9 2.4.9-2.4zm-.9 2.4v2.4-2.4zm0 2.4l.9 2.4-.9-2.4zm.9 2.4l1.5 2-1.5-2zm1.5 2l2.2 1.3-2.2-1.3zm2.2 1.3l2.4.4-2.4-.4zm2.4.5h.2-.2z"/><path fill="#97CCCE" d="M457.8 26.1c.2-.4.5-.6 1-.7.4-.1.9-.1 1.4.1.7.2 1.3.7 1.8 1.4s.8 1.4.8 2.1v.4l1.7 1.2c.2.1.2.2.2.4 0 .1 0 .2-.1.2s-.1.1-.2 0l-.1-.1-1.7-1.2c-.2.4-.5.6-.9.8-.2.1-.4.1-.7.1-.3 0-.5-.1-.7-.1-.7-.3-1.3-.7-1.8-1.4s-.8-1.4-.8-2.1v-.5l-1.7-1.2c-.2-.1-.2-.2-.2-.4 0-.1 0-.1.1-.2h.2l.1.1 1.6 1.1zm.6.4L462 29v-.2c0-.5-.2-1.1-.6-1.6-.2-.2-.4-.5-.6-.7l-.3-.2-.3-.1-.1-.1c-.4-.1-.7-.2-1-.1-.2 0-.5.2-.7.5zm3.5 3l-3.7-2.5v.3c0 .5.2 1.1.6 1.6.4.5.8.9 1.4 1.1.4.1.7.2 1 .1.3-.2.5-.3.7-.6z"/><text transform="matrix(0 .9397 -.9397 -.342 455.601 33.43)" fill="#97CCCE" font-family="'GOSTTypeA'" font-size="14.033">0</text><text transform="matrix(0 .9397 -.9397 -.342 455.601 39.195)" fill="#97CCCE" font-family="'GOSTTypeA'" font-size="14.033">,</text><text transform="matrix(0 .9397 -.9397 -.342 455.601 41.118)" fill="#97CCCE" font-family="'GOSTTypeA'" font-size="14.033">0</text><text transform="matrix(0 .9397 -.9397 -.342 455.601 46.884)" fill="#97CCCE" font-family="'GOSTTypeA'" font-size="14.033">5</text><path fill="#97CCCE" d="M460.1 69.1c-1.9 0-3.6-.7-5-2.1-1.4-1.4-2.1-3-2.1-5s.7-3.6 2.1-5c1.4-1.4 3-2.1 5-2.1 1.9 0 3.6.7 5 2.1 1.4 1.4 2.1 3.1 2.1 5 0 2-.7 3.6-2.1 5-1.3 1.4-3 2.1-5 2.1zm0-.7c1.8 0 3.3-.6 4.6-1.9 1.3-1.3 1.9-2.8 1.9-4.6 0-1.8-.6-3.3-1.9-4.6-1.3-1.3-2.8-1.9-4.6-1.9-1.8 0-3.3.6-4.5 1.9-1.3 1.3-1.9 2.8-1.9 4.6 0 1.8.6 3.3 1.9 4.6 1.2 1.3 2.8 1.9 4.5 1.9zm-4.1-3.5c-.1 0-.2 0-.2-.1-.1-.1-.1-.1-.1-.2s0-.2.1-.2c.1-.1.1-.1.2-.1h7.2l-3.2-2c-.1-.1-.2-.2-.2-.3 0-.1.1-.2.2-.3l3.2-2H456c-.1 0-.2 0-.2-.1-.1-.1-.1-.1-.1-.2s0-.2.1-.2c.1-.1.1-.1.2-.1h8.4c.1 0 .2 0 .2.1.1.1.1.1.1.2v.2s-.1.1-.2.1l-3.7 2.3 3.7 2.3c.1.1.2.2.2.3 0 .1 0 .1-.1.2s-.2.1-.3.1H456z"/><text transform="matrix(0 .9397 -.9397 -.342 455.601 78.656)" fill="#97CCCE" font-family="'GOSTTypeA'" font-size="14.033">Ã</text><path fill="#97CCCE" d="M460.1 100.9c-1.9 0-3.6-.7-5-2.1-1.4-1.4-2.1-3-2.1-5s.7-3.6 2.1-5c1.4-1.4 3-2.1 5-2.1 1.9 0 3.6.7 5 2.1 1.4 1.4 2.1 3.1 2.1 5 0 2-.7 3.6-2.1 5-1.3 1.4-3 2.1-5 2.1zm0-.7c1.8 0 3.3-.6 4.6-1.9 1.3-1.3 1.9-2.8 1.9-4.6 0-1.8-.6-3.3-1.9-4.6-1.3-1.3-2.8-1.9-4.6-1.9-1.8 0-3.3.6-4.5 1.9-1.3 1.3-1.9 2.8-1.9 4.6 0 1.8.6 3.3 1.9 4.6 1.2 1.3 2.8 1.9 4.5 1.9zm-4.1-3.6c-.1 0-.2 0-.2-.1-.1-.1-.1-.1-.1-.2s0-.2.1-.2c.1-.1.1-.1.2-.1h7.2l-3.2-2c-.1-.1-.2-.2-.2-.3 0-.1.1-.2.2-.3l3.2-2H456c-.1 0-.2 0-.2-.1-.1-.1-.1-.1-.1-.2s0-.2.1-.2c.1-.1.1-.1.2-.1h8.4c.1 0 .2 0 .2.1.1.1.1.1.1.2v.2s-.1.1-.2.1l-3.7 2.3 3.7 2.3c.1.1.2.2.2.3 0 .1 0 .1-.1.2s-.2.1-.3.1H456z"/><path fill="none" stroke="#97CCCE" stroke-miterlimit="10" d="M144.2 282.3l-6.6-4.2 6.6 4.2zm-6.6-4.1l1.1-.2-1.1.2zm1.1-.3l.2-1.3-.2 1.3zm.2-1.3l5.3 5.7-5.3-5.7zm-1.1 1.6v.2-.2zm.2 0v.4m.2-.4v.4m.3-.4v.7m.2-1v1.1m.2-.8v.9m.2-.7v.9m.2-.7v.9m.3-.7v.7m.2-.7v.9m.2-.7v.7m.2-.4v.7m.2-.5v.7m.3-.5v.4m.2-.4v.7m.2-.5v.7m.2-.5v.4m.2-.1v.4m.3-.2v.4m.2-.4v.4m.2-.2v.4m.2-.2v.2m.2 0v.2m.3.1v.2m.2-.2v.2m.2 0v.2m.2 0v.2m-5.7-3.9v.2-.2zm.2 0v.4m.2-.4v.4m.3-.4v.7m.2-1v1.1m.2-.8v.9m.2-.7v.9m.2-.7v.9m.3-.7v.7m.2-.7v.9m.2-.7v.7m.2-.4v.7m.2-.5v.7m.3-.5v.4m.2-.4v.7m.2-.5v.7m.2-.5v.4m.2-.1v.4m.3-.2v.4m.2-.4v.4m.2-.2v.4m.2-.2v.2m.2 0v.2m.3.1v.2m.2-.2v.2m.2 0v.2m.2 0v.2m-4.6-5.5v1.5-1.5zm.2.5v1.3m.2-1.1v1.3m.3-1.1v1.3m.2-1.1v1.1m.2-.9v1.1m.2-.8v1.1m.2-.9v1.1m.3-.9v1.1m.2-.9v.9m.2-.7v.9m.2-.6v.9m.2-.7v.9m.3-.5v.7m.2-.5v.4m.2-.1v.4m.2-.2v.4m.2-.2v.4m.3-.2v.4m.2-.2v.2m.2.1v.2m.2 0v.2m.2 0v.2m.2 0v.2m-5-5.7v1.5-1.5zm.2.5v1.3m.2-1.1v1.3m.3-1.1v1.3m.2-1.1v1.1m.2-.9v1.1m.2-.8v1.1m.2-.9v1.1m.3-.9v1.1m.2-.9v.9m.2-.7v.9m.2-.6v.9m.2-.7v.9m.3-.5v.7m.2-.5v.4m.2-.1v.4m.2-.2v.4m.2-.2v.4m.3-.2v.4m.2-.2v.2m.2.1v.2m.2 0v.2m.2 0v.2m.2 0v.2m.3 0l-22.4-18.2 22.4 18.2zm-22.4-18.2v-55.8 55.8zm12.9-54l-13 7.5 13-7.5zm-12.9 7.4l22 12.7-22-12.7zm21.9 12.8v34-34z"/><text transform="matrix(0 .9397 -.9397 -.342 125.81 228.243)" fill="#97CCCE" font-family="'GOSTTypeA'" font-size="14.033">R</text><text transform="matrix(0 .9397 -.9397 -.342 125.81 234.01)" fill="#97CCCE" font-family="'GOSTTypeA'" font-size="14.033">a</text><text transform="matrix(0 .9397 -.9397 -.342 125.81 242.899)" fill="#97CCCE" font-family="'GOSTTypeA'" font-size="14.033">2</text><text transform="matrix(0 .9397 -.9397 -.342 125.81 248.665)" fill="#97CCCE" font-family="'GOSTTypeA'" font-size="14.033">,</text><text transform="matrix(0 .9397 -.9397 -.342 125.81 250.586)" fill="#97CCCE" font-family="'GOSTTypeA'" font-size="14.033">5</text><path fill="none" stroke="#97CCCE" stroke-miterlimit="10" d="M77.4 199.3l-5.5 5.7 5.5-5.7zm-5.5 5.7v-1.3 1.3zm0-1.3l-1.3-.4 1.3.4zm-1.3-.4l6.8-4-6.8 4zm1.5.4v1.1-1.1zm.2-.2v1.1m.3-1.3v1.1m.2-1.4v1.1m.2-1.3v1.1m.2-1.1v.9m.2-1.1v.9m.3-1.1v.9m.2-1.1v.9m.2-1.2v.9m.2-.9v.7m.2-.9v.7m.3-.9v.7m.2-.9v.7m.2-.9v.7m.2-.7v.4m.2-.7v.4m.3-.6v.4m.2-.6v.4m.2-.6v.4m.2-.4v.2m.2-.4v.2m.3-.5v.2m.2-.4v.2m-5.1 4v1.1-1.1zm.2-.2v1.1m.3-1.3v1.1m.2-1.4v1.1m.2-1.3v1.1m.2-1.1v.9m.2-1.1v.9m.3-1.1v.9m.2-1.1v.9m.2-1.2v.9m.2-.9v.7m.2-.9v.7m.3-.9v.7m.2-.9v.7m.2-.9v.7m.2-.7v.4m.2-.7v.4m.3-.6v.4m.2-.6v.4m.2-.6v.4m.2-.4v.2m.2-.4v.2m.3-.5v.2m.2-.4v.2m-6.4 3.6v.2-.2zm.2-.3v.4m.2-.4v.4m.3-.6v.9m.2-.9v.9m.2-1.1v1.1m.2-1.3v1.3m.2-1.3v1.1m.3-1.3v1.1m.2-1.1v.9m.2-1.2v.9m.2-.9v.9m.2-1.1v.9m.3-1.1v.9m.2-.9v.7m.2-.9v.7m.2-.7v.7m.2-.9v.7m.3-1v.7m.2-.7v.4m.2-.6v.4m.2-.4v.4m.2-.6v.4m.3-.4v.2m.2-.4v.2m.2-.4v.2m.2-.2v.2m.2-.5v.2m-5.9 3.4v.2-.2zm.2-.3v.4m.2-.4v.4m.3-.6v.9m.2-.9v.9m.2-1.1v1.1m.2-1.3v1.3m.2-1.3v1.1m.3-1.3v1.1m.2-1.1v.9m.2-1.2v.9m.2-.9v.9m.2-1.1v.9m.3-1.1v.9m.2-.9v.7m.2-.9v.7m.2-.7v.7m.2-.9v.7m.3-1v.7m.2-.7v.4m.2-.6v.4m.2-.4v.4m.2-.6v.4m.3-.4v.2m.2-.4v.2m.2-.4v.2m.2-.2v.2m.2-.5v.2m.7-.6l-26.1 20.4 26.1-20.4zm-26.2 20.4v55.6-55.6zm13 1.6l-13 7.5 13-7.5zm-13 7.4l22 12.7-22-12.7zm22 12.8v34-34z"/><text transform="matrix(0 .9397 -.9397 -.342 55.315 239.494)" fill="#97CCCE" font-family="'GOSTTypeA'" font-size="14.033">R</text><text transform="matrix(0 .9397 -.9397 -.342 55.315 245.26)" fill="#97CCCE" font-family="'GOSTTypeA'" font-size="14.033">a</text><text transform="matrix(0 .9397 -.9397 -.342 55.315 254.15)" fill="#97CCCE" font-family="'GOSTTypeA'" font-size="14.033">2</text><text transform="matrix(0 .9397 -.9397 -.342 55.315 259.915)" fill="#97CCCE" font-family="'GOSTTypeA'" font-size="14.033">,</text><text transform="matrix(0 .9397 -.9397 -.342 55.315 261.837)" fill="#97CCCE" font-family="'GOSTTypeA'" font-size="14.033">5</text><path fill="none" stroke="#97CCCE" stroke-miterlimit="10" d="M20.1 199.3l.9 7.9-.9-7.9zm.8 7.9l-.9-.9.9.9zm-.8-.9l-1.1.9 1.1-.9zm-1.1.9l1.1-7.9-1.1 7.9zm1.3-5.9v5.3-5.3zm.2 2v3.5m.2-1.6v1.8m-.4-5.7v5.3-5.3zm.2 2v3.5m.2-1.6v1.8m-1.5-1.3v1.5-1.5zm.2-1.6v2.9m.2-4.4v4.2m.2-5.7v5.5m.3-7.3v7m-.9-.6v1.5-1.5zm.2-1.6v2.9m.2-4.4v4.2m.2-5.7v5.5m.3-7.3v7m0 76l-1.1-7.7 1.1 7.7zm-1.1-7.7l1.1.7-1.1-.7zm1.1.7l.9-.7-.9.7zm.8-.7l-.9 7.7.9-7.7zm-1.7.3v1.3-1.3zm.2.2v2.6m.2-2.6v4.2m.2-4v5.5m.3-5.5v7m-.9-7.4v1.3-1.3zm.2.2v2.6m.2-2.6v4.2m.2-4v5.5m.3-5.5v7m.2-7v5.3-5.3zm.2-.2v3.5m.2-3.7v1.8m-.4-1.4v5.3-5.3zm.2-.2v3.5m.2-3.7v1.8m-.6-77.4v83-83z"/><text transform="matrix(0 .9397 -.9397 -.342 25.602 225.115)" fill="#97CCCE" font-family="'GOSTTypeA'" font-size="20.194">8</text><text transform="matrix(0 .9397 -.9397 -.342 36.04 238.016)" fill="#97CCCE" font-family="'GOSTTypeA'" font-size="13.348">+</text><text transform="matrix(0 .9397 -.9397 -.342 36.04 242.364)" fill="#97CCCE" font-family="'GOSTTypeA'" font-size="13.348">0</text><text transform="matrix(0 .9397 -.9397 -.342 36.04 247.855)" fill="#97CCCE" font-family="'GOSTTypeA'" font-size="13.348">,</text><text transform="matrix(0 .9397 -.9397 -.342 36.04 249.686)" fill="#97CCCE" font-family="'GOSTTypeA'" font-size="13.348">1</text><text transform="matrix(0 .9397 -.9397 -.342 4.151 217.85)" fill="#97CCCE" font-family="'GOSTTypeA'" font-size="20.194">3</text><text transform="matrix(0 .9397 -.9397 -.342 4.151 230.549)" fill="#97CCCE" font-family="'GOSTTypeA'" font-size="20.194">ï</text><text transform="matrix(0 .9397 -.9397 -.342 4.151 237.757)" fill="#97CCCE" font-family="'GOSTTypeA'" font-size="20.194">à</text><text transform="matrix(0 .9397 -.9397 -.342 4.151 244.965)" fill="#97CCCE" font-family="'GOSTTypeA'" font-size="20.194">ç</text><text transform="matrix(0 .9397 -.9397 -.342 4.151 251.829)" fill="#97CCCE" font-family="'GOSTTypeA'" font-size="20.194">à</text><path fill="none" stroke="#97CCCE" stroke-miterlimit="10" d="M635.3 327.7l-22 12.7 22-12.7zm-21.9 12.7l34.7 20.2-34.7-20.2zm34.7 20.2v106.8-106.8z"/><text transform="matrix(0 .9397 -.9397 -.342 618.872 360.505)" fill="#97CCCE" font-family="'GOSTTypeA'" font-size="28.408">R</text><text transform="matrix(0 .9397 -.9397 -.342 618.872 372.037)" fill="#97CCCE" font-family="'GOSTTypeA'" font-size="28.408">a</text><text transform="matrix(0 .9397 -.9397 -.342 618.872 389.816)" fill="#97CCCE" font-family="'GOSTTypeA'" font-size="28.408">3</text><text transform="matrix(0 .9397 -.9397 -.342 618.872 399.907)" fill="#97CCCE" font-family="'GOSTTypeA'" font-size="28.408">,</text><text transform="matrix(0 .9397 -.9397 -.342 618.872 403.752)" fill="#97CCCE" font-family="'GOSTTypeA'" font-size="28.408">2</text><text transform="matrix(0 .9397 -.9397 -.342 618.872 422.972)" fill="#97CCCE" font-family="'GOSTTypeA'" font-size="28.408">(</text><path fill="none" stroke="#97CCCE" stroke-miterlimit="10" d="M630.5 435.3l-14.1 8.1 14.1-8.1zm-14.1 8.2l25.5 14.7-25.5-14.7z"/><text transform="matrix(0 .9397 -.9397 -.342 618.872 456.369)" fill="#97CCCE" font-family="'GOSTTypeA'" font-size="28.408">)</text></svg>