<svg xmlns="http://www.w3.org/2000/svg" viewBox="0 0 362.7 717.5"><path fill="#42385D" d="M284.3 40h-1.4c-.1 0-.2-.1-.3-.2-.1-.1-.1-.3 0-.4 0-.1.1-.3.3-.4.1-.1.3-.2.5-.2h1.4l-.2-1.5V37c0-.1.2-.3.3-.4.2-.1.3-.2.5-.2s.3.1.4.3l.2 1.3 1.1-1.3c.2-.2.4-.3.6-.3.2 0 .3.1.4.2.1.1.1.2 0 .4 0 .1-.1.2-.2.3l-1.3 1.5h1.4c.2 0 .3.1.4.2.1.1.1.3 0 .4 0 .1-.1.2-.3.4-.2.1-.3.2-.5.2h-1.4l.2 1.5v.3c0 .1-.2.3-.3.4-.2.1-.3.2-.5.2s-.3-.1-.4-.3l-.2-1.3-1.1 1.3c-.2.2-.4.3-.6.3-.2 0-.3-.1-.4-.2-.1-.1-.1-.2 0-.4 0-.1.1-.2.2-.3l1.2-1.5zM310 26.1l-1.5 4c0 .1-.1.2-.3.4s-.3.2-.5.2c-.1 0-.2 0-.3-.1-.1-.1-.1-.2 0-.4l5.4-14.9c.1-.4.4-.6.8-.6h4c.6 0 1.1.2 1.4.7.3.5.3 1 .1 1.6l-2.5 6.9c-.2.6-.7 1.2-1.3 1.6-.6.4-1.2.7-1.9.7H310zm.4-1.1h3.4c.3 0 .6-.1.9-.3.3-.2.5-.5.6-.8l2.5-6.9c.1-.3.1-.6 0-.8-.1-.2-.4-.3-.7-.3h-3.4l-3.3 9.1zm-10.2-2.8c.6-1.6 1.5-3.1 2.8-4.4 1.4-1.4 3-2.5 4.9-3.1h.3c.1 0 .2.1.3.2.1.1.1.3 0 .4 0 .1-.1.2-.2.3-.1.1-.2.2-.4.2-.3.1-.7.2-1.1.4l-.5.3-.2.1-.4.2c-.6.4-1.3.9-1.9 1.6-.5.5-.9 1-1.3 1.6-.4.6-.7 1.1-.9 1.6h3.4c1 0 1.7.3 2.1 1 .4.7.5 1.5.1 2.4l-.8 2.3c-.3.9-1 1.7-1.9 2.4-.9.7-1.9 1-2.8 1h-1.2c-.9 0-1.6-.3-2.1-1-.2-.3-.3-.7-.4-1.1V28l.1-.4.1-.4 2-5zm1 .5l-1.7 4.6c-.2.6-.2 1.2.1 1.6.3.4.7.7 1.4.7h1.1c.6 0 1.3-.2 1.9-.7.6-.4 1-1 1.3-1.6l.8-2.3c.2-.6.2-1.2-.1-1.6-.3-.5-.7-.7-1.4-.7h-3.4zm-44.309 116.462l1.677.28-.164.986-1.677-.28z"/><path fill="#42385D" d="M254.4 139.2h2.5v1h-2.5z"/><path fill="#42385D" d="M250.655 138.874l3.79.271-.07.998-3.791-.271zM244 138.9h6.5v1H244z"/><path fill="#42385D" d="M243.96 138.865l.053.999-5.193.274-.053-.999z"/><path fill="#42385D" d="M238.738 139.196l.141.99-1.881.268-.14-.99z"/><path fill="#42385D" d="M236.4 139.5h.5v1h-.5zm-41.1 21.4h1V181h-1zM271 156h1v.8h-1zm-48.2-.5h1v1.4h-1zm70.8 437.3h1V632h-1zm-16.3-4.9h12.5v1h-12.5z"/><path fill="#42385D" d="M293.793 631.666l.707.708-4.384 4.384-.707-.708z"/><path fill="#42385D" d="M277.3 635.8h12.5v1h-12.5zm12.84-47.723l4.384 4.384-.707.707-4.384-4.384z"/><path fill="#42385D" d="M276.8 588.1h1v48.2h-1zm-111.165 39.946l8.197 7.923-.695.719-8.197-7.923zm7.537-40.318l.707.707-8.203 8.202-.707-.707z"/><path fill="#42385D" d="M164.8 596.3h1v32.1h-1zm8.7-8.7h103.7v1H173.5zm0 48.2h103.7v1H173.5zm-6.942-55.74l.934.357-26.432 69.116-.934-.358zm-28.651-8.465l.428.904-5.153 2.437-.427-.904z"/><path fill="#42385D" d="M143.392 570.214l.242.97-5.434 1.356-.242-.97z"/><path fill="#42385D" d="M143.6 570.2h5.7v1h-5.7z"/><path fill="#42385D" d="M149.325 570.27l5.491 1.098-.196.981-5.491-1.098z"/><path fill="#42385D" d="M154.926 571.36l5.479 2.191-.372.929-5.478-2.192z"/><path fill="#42385D" d="M160.514 573.546l.833.554-.554.833-.833-.554zm4.944 4.692l1.898 1.627-.65.76-1.899-1.627zm-32.885-4.056l.707.707-4.1 4.101-.708-.707z"/><path fill="#42385D" d="M161.276 574.154l4.101 4.102-.707.707-4.1-4.102zM259.1 416.6h1v13.1h-1zm-29.383-52.45l.316.948-1.613.538-.316-.949z"/><path fill="#42385D" d="M230.586 362.888l.781.625-1.062 1.327-.78-.624z"/><path fill="#42385D" d="M230.757 362.018l.97.242-.266 1.067-.97-.242zm.291-217.117l1 .008-.283 36.2-1-.008zm40.148 235.925l.707.707-3.253 3.253-.707-.707zM238.6 380.7h17.7v1h-17.7zm-14.857.145l3.252 3.253-.707.707-3.252-3.253zM236.4 139.5h22.1v1h-22.1zm30.2 225.1h4.9v1h-4.9z"/><path fill="#42385D" d="M259.6 384h8.7v1h-8.7zm-3.212-3.27l1.612.537-.316.949-1.613-.538z"/><path fill="#42385D" d="M258.223 381.417l1.344 1.613-.768.64-1.344-1.613z"/><path fill="#42385D" d="M259.783 383.281l.267 1.067-.97.243-.268-1.067zM226.6 384h8.7v1h-8.7zm-.313 32.244l.707.707-3.253 3.253-.707-.707z"/><path fill="#42385D" d="M226.6 416.1h8.7v1h-8.7zm33 0h8.7v1h-8.7zm-.815-276.54l4.88 4.88-.708.707-4.879-4.88zM230.7 181.1h1v181.1h-1zm32.2 0h1v181.1h-1z"/><path fill="#42385D" d="M262.9 144.9h1v36.2h-1zm8.1 275h1v9.8h-1z"/><path fill="#42385D" d="M268.649 416.225l3.252 3.253-.707.707-3.252-3.253zM223.3 429.2h12v1h-12zm-.5-64.1h1v16.1h-1zm42.38-.943l1.613.538-.317.948-1.612-.537z"/><path fill="#42385D" d="M264.029 362.896l1.343 1.344-.707.707-1.344-1.343z"/><path fill="#42385D" d="M263.817 361.977l.266 1.067-.97.242-.267-1.067zM222.8 419.9h1v9.8h-1zm.5-55.3h4.9v1h-4.9zm11.5 52h1v13.1h-1zm36.2-51.5h1v16.1h-1zm-11.4 64.1h12v1h-12zm-23.488-289.6l.707.708-4.88 4.879-.706-.707zm-.704 243.088l.949.316-.538 1.613-.948-.316z"/><path fill="#42385D" d="M236.833 381.09l.707.707-1.343 1.343-.707-.707z"/><path fill="#42385D" d="M238.547 380.701l.196.981-1.373.274-.196-.981zM195.3 181.1h1v20.1h-1zm.5-20.7h9.8v1h-9.8zm39.195 426.517l.707.707-.848.849-.708-.707zM234.8 574.5h1v4.1h-1zm-87.916-4.572l5.742.82-.142.99-5.742-.82z"/><path fill="#42385D" d="M152.627 570.789l5.46 1.638-.288.958-5.46-1.638z"/><path fill="#42385D" d="M158.234 572.467l2.985 1.628-.48.878-2.984-1.629zM234.8 471.6h1v7.4h-1zm-12.3-339.2h12.8v1h-12.8zm-84.593 439.195l.428.904-5.153 2.437-.427-.904z"/><path fill="#42385D" d="M143.392 570.214l.242.97-5.434 1.356-.242-.97zm3.453-.278l.083.997-3.289.274-.083-.997zm-14.272 4.246l.707.707-4.1 4.101-.708-.707zM181.4 523.4h6.5v1h-6.5zm24.2-363h13.6v1h-13.6zm-44.324 413.754l4.101 4.102-.707.707-4.1-4.102zM222.5 471.1h12.8v1h-12.8zM195.8 644h39.5v1h-39.5zm0-443.3h23.4v1h-23.4z"/><path fill="#42385D" d="M222 450.9h1v20.7h-1z"/><path fill="#42385D" d="M222 434.3h1v16.6h-1zM97.3 612.4h1v32.1h-1zm137.5 24.7h1v7.4h-1zm0-108.3h1v45.7h-1zm0-452.3h1v56.4h-1zm-69.363 501.782l4.384 4.384-.707.707-4.384-4.384z"/><path fill="#42385D" d="M169.88 582.714l3.557 5.2-.825.564-3.558-5.2z"/><path fill="#42385D" d="M173.295 587.79l.283.283-.707.707-.283-.283zM195.8 76h4.9v1h-4.9zm39.03 451.607l.848.85-.708.706-.848-.85zM222 204.5h1v229.8h-1z"/><path fill="#42385D" d="M195.3 76.5h1v84.4h-1zm39.5 502.1h1v8.7h-1zM222 132.9h1v24.8h-1z"/><path fill="#42385D" d="M222.16 157.322l.706.707-3.252 3.253-.707-.707zm-2.57 43.59l3.252 3.252-.707.707-3.252-3.252zM187.7 483.1h.3v1h-.3zM97.8 611.9h16.9v1H97.8zm137.082 24.03l.848.848-.708.707-.848-.85zM220.1 76h15.2v1h-15.2zM78.2 644h19.6v1H78.2zm156.745-165.402l.707.707-.848.848-.707-.707zM195.3 636.3h1v8.2h-1zm12-469.3h6.3v1h-6.3zm-12.8 14.1h1v49.6h-1zm-3.6-89h4.1v1h-4.1z"/><path fill="#42385D" d="M194.5 92.6h1v88.5h-1zm40.8 470.5h24.2v1h-24.2z"/><path fill="#42385D" d="M259.1 556.8h1v6.5h-1zm0 6.6h1v.3h-1zm0-129.1h1v16.6h-1zm-24.3-17.7h1v17.7h-1z"/><path fill="#42385D" d="M259.1 535.9h1v21h-1zm0-119.3h1v17.7h-1z"/><path fill="#42385D" d="M235.3 556.3h24.2v1h-24.2zm-.5-122h1v16.6h-1zm.5-18.2h24.2v1h-24.2z"/><path fill="#42385D" d="M234.8 450.9h1v28.9h-1zm24.3 0h1v20.7h-1zM234.8 528h1v28.9h-1zm28.1-138.6h1V412h-1zm8.1 0h1V412h-1zm-40.3 0h1V412h-1zm-7.9 0h1V412h-1zm0 22.6h1v4.6h-1zm0-27.5h1v4.9h-1z"/><path fill="#42385D" d="M223.3 388.9h7.9v1h-7.9zm40.1 0h8.2v1h-8.2zM271 412h1v4.6h-1z"/><path fill="#42385D" d="M263.4 411.5h8.2v1h-8.2zm-.466-22.436l.873.488-6.248 11.172-.873-.488zM271 384.5h1v4.9h-1zm-47.7 31.6h48.2v1h-48.2z"/><path fill="#42385D" d="M223.3 384h48.2v1h-48.2zm14.024 16.315l.868.496-6.543 11.464-.868-.496z"/><path fill="#42385D" d="M231.702 389.04l6.516 11.132-.863.505-6.516-11.133zm25.858 11.204l6.245 11.403-.877.48-6.244-11.402zM223.3 411.5h7.9v1h-7.9zm43.3-206.7h4.9v1h-4.9zm-35.9-23.7h1v21h-1zm-25.441-15.48l.537 1.073-.895.448-.537-1.073z"/><path fill="#42385D" d="M205.577 166.47l1.073.537-.447.894-1.073-.537zM223.3 156.3h4.9v1h-4.9zm-5.7 44.4h2.5v1h-2.5zm49-44.4h4.9v1h-4.9zm-50.483 4.952l.895.447-.537 1.073-.894-.447z"/><path fill="#42385D" d="M217.395 160.494l.447.894-1.074.537-.447-.895zM206.5 194.2h7.9v1h-7.9zm-8.681 3.43l3.253 3.252-.708.707-3.252-3.253zM262.9 160.1h1v21h-1zm-58.6 36.2h1v3.3h-1zm11.577-1.293l.537 1.073-.894.448-.537-1.074z"/><path fill="#42385D" d="M214.564 194.273l1.073.536-.447.895-1.073-.537zM197 181.1h1V198h-1zm0-16.9h1v16.9h-1zm66.707 37.509l3.252 3.253-.707.707-3.252-3.253zm2.543-45.199l.707.707-3.253 3.253-.707-.707zm4.75.29h1V181h-1zm-48.2 47.7h1v.8h-1zm5.797-47.972l3.253 3.252-.707.707-3.253-3.252zm-5.703.983l.961.276-.55 1.922-.962-.275z"/><path fill="#42385D" d="M222.494 159.146l.625.781-1.328 1.062-.625-.78z"/><path fill="#42385D" d="M221.347 160.207l.195.98-1.373.274-.195-.98zM204.3 162.6h1v3.3h-1zm19 42.2h4.9v1h-4.9z"/><path fill="#42385D" d="M217.6 160.4h2.5v1h-2.5zm-2.096 5.222l.894.448-.536 1.073-.895-.447z"/><path fill="#42385D" d="M215.198 166.47l.447.894-1.073.536-.447-.894zm15.831-6.378l1 .012-.267 20.998-1-.012zm-7.709 42.378l.55 1.924-.961.275-.55-1.923z"/><path fill="#42385D" d="M221.734 201.037l1.328 1.061-.625.781-1.327-1.062z"/><path fill="#42385D" d="M220.202 200.801l1.373.275-.196.98-1.373-.274zM271 181.1h1v24.2h-1zm-66.569 18.255l.895.446-.536 1.074-.895-.446z"/><path fill="#42385D" d="M204.076 200.172l.447.894-1.074.537-.447-.895zM262.9 181.1h1v21h-1zm-46.448 18.198l.537 1.073-.894.448-.537-1.073z"/><path fill="#42385D" d="M216.802 200.192l1.073.536-.447.895-1.073-.537zM215.5 196.3h1v3.3h-1zm15.29 5.406l.737.676-2.975 3.241-.737-.676zm-30.378-41.176l.707.707-3.252 3.253-.708-.707zm22.388-3.73h1v.8h-1zm-22.1 43.9h2.5v1h-2.5zm4.015-39.497l.536 1.074-.894.447-.537-1.074z"/><path fill="#42385D" d="M203.388 160.472l1.074.536-.447.895-1.074-.536zM215.5 162.6h1v3.3h-1z"/><path fill="#42385D" d="M200.7 160.4h2.5v1h-2.5zm5.8 6.6h7.9v1h-7.9zm-1.594 28.031l.894.447-.537 1.073-.894-.447z"/><path fill="#42385D" d="M206.272 194.197l.447.894-1.073.537-.447-.895zM234.8 132.9h1v8.2h-1zM222 157.7h1v2.2h-1zM200.7 76h14.4v1h-14.4zm14.5 0h4.9v1h-4.9zm48.249 78.934l8.182.545-.067.998-8.181-.545zm-34.603 1.12l.317.948-.854.285-.316-.948z"/><path fill="#42385D" d="M231.203 155.752l.123.993-2.183.27-.123-.992z"/><path fill="#42385D" d="M231.2 155.8h.3v1h-.3zm32.28-.032l2.183.273-.124.992-2.183-.272z"/><path fill="#42385D" d="M265.647 156.063l1.068.267-.243.97-1.067-.267zM223.3 155h8.2v1h-8.2zm-68.995 481.516l.707.708-7.354 7.353-.707-.707z"/><path fill="#42385D" d="M147.117 643.826l.622.784-6.503 5.157-.622-.783z"/><path fill="#42385D" d="M140.6 648.9h.3v1h-.3z"/><path fill="#42385D" d="M135.324 646.964l5.474 1.916-.33.944-5.475-1.916z"/><path fill="#42385D" d="M130.499 644.077l4.864 2.972-.522.854-4.864-2.972z"/><path fill="#42385D" d="M125.858 640.068l4.65 4.102-.663.75-4.648-4.103z"/><path fill="#42385D" d="M122.13 635.235l3.807 4.894-.79.614-3.806-4.894z"/><path fill="#42385D" d="M119.22 629.613l3.016 5.758-.886.464-3.016-5.758zm-2.432-6.253l2.442 6.24-.931.364-2.442-6.24z"/><path fill="#42385D" d="M115.779 616.593l1.09 6.813-.987.158-1.09-6.813z"/><path fill="#42385D" d="M115.159 610.966l.54 5.674-.995.095-.54-5.674z"/><path fill="#42385D" d="M114.775 604.18l.997.08-.545 6.778-.996-.08z"/><path fill="#42385D" d="M116.056 597.553l.98.203-1.363 6.56-.979-.203z"/><path fill="#42385D" d="M118.545 591.232l.93.365-2.445 6.237-.93-.365z"/><path fill="#42385D" d="M121.89 585.456l.87.496-3.275 5.73-.868-.496z"/><path fill="#42385D" d="M125.685 580.74l.772.635-3.812 4.633-.772-.636z"/><path fill="#42385D" d="M128.51 578.222l.67.744-2.753 2.474-.668-.744zM271 381.2h1v3.3h-1zm0 35.4h1v3.3h-1zm-48.2 0h1v3.3h-1zm0-35.4h1v3.3h-1zm-.8-178.9h1v2.2h-1zm-61.484 432.456l.262.965-5.982 1.628-.263-.965z"/><path fill="#42385D" d="M165.618 632.375l.428.904-5.153 2.437-.427-.904zm2.404-1.636l.555.832-2.413 1.608-.555-.832zM234.8 587.3h1v.8h-1zm0 49h1v.8h-1zm-137 7.7h32.4v1H97.8zm16.4-33h1v1.4h-1z"/><path fill="#42385D" d="M114.775 604.18l.997.08-.545 6.778-.996-.08z"/><path fill="#42385D" d="M116.056 597.553l.98.203-1.363 6.56-.979-.203z"/><path fill="#42385D" d="M118.545 591.232l.93.365-2.445 6.237-.93-.365z"/><path fill="#42385D" d="M121.89 585.456l.87.496-3.275 5.73-.868-.496z"/><path fill="#42385D" d="M125.685 580.74l.772.635-3.812 4.633-.772-.636z"/><path fill="#42385D" d="M128.51 578.222l.67.744-2.753 2.474-.668-.744zM263.4 204.8h3.3v1h-3.3zm-35.2 0h3v1h-3zM78.146 632.218l.546 12.287-1 .045-.545-12.288zm-.714-11.444l1 .023-.267 11.397-1-.023z"/><path fill="#42385D" d="M78.544 609.862l.995.1-1.085 10.845-.995-.1z"/><path fill="#42385D" d="M80.44 599.783l.983.186-1.912 10.12-.982-.185zm2.751-9.32l.96.282-2.701 9.212-.96-.282z"/><path fill="#42385D" d="M86.722 581.92l.923.387-3.559 8.483-.922-.386z"/><path fill="#42385D" d="M91.127 574.001l.876.482-4.342 7.884-.876-.483z"/><path fill="#42385D" d="M96.306 566.858l.808.59-5.19 7.107-.808-.59z"/><path fill="#42385D" d="M99.058 563.347l.793.61-2.742 3.568-.793-.61z"/><path fill="#42385D" d="M103.194 559.997l.625.78-4.06 3.25-.626-.782zm5.002-3.025l.521.853-4.864 2.972-.521-.853z"/><path fill="#42385D" d="M114.519 554.246l.398.917-6.238 2.708-.398-.918z"/><path fill="#42385D" d="M122.423 551.934l.265.964-7.905 2.176-.266-.964z"/><path fill="#42385D" d="M133.33 549.491l.22.976-10.927 2.458-.22-.975zm15.597-2.983l.189.981-15.514 2.993-.19-.982z"/><path fill="#42385D" d="M159.774 543.292l.287.957-10.919 3.276-.287-.958z"/><path fill="#42385D" d="M166.515 540.265l.402.916-6.776 2.976-.402-.916z"/><path fill="#42385D" d="M171.308 537.133l.555.832-4.91 3.273-.554-.832zm1.902-1.635l.65.76-1.9 1.626-.65-.76z"/><path fill="#42385D" d="M177.24 530.977l.75.662-4.103 4.648-.75-.662z"/><path fill="#42385D" d="M180.404 525.24l.868.495-3.274 5.73-.868-.496z"/><path fill="#42385D" d="M182.862 518.836l.936.351-2.46 6.554-.936-.352zm2.171-7.616l.962.276-2.175 7.595-.961-.276z"/><path fill="#42385D" d="M186.062 502.238l.993.121-1.101 9.033-.993-.12z"/><path fill="#42385D" d="M186.896 491.459l.997.074-.809 10.87-.997-.075zm.004-13.359h1v13.3h-1z"/><path fill="#42385D" d="M187.38 459.306l.545 18.793-1 .028-.545-18.792z"/><path fill="#42385D" d="M186.4 436.5h1v22.9h-1z"/><path fill="#42385D" d="M187.201 423.365l.998.062-.819 13.074-.998-.062z"/><path fill="#42385D" d="M187.443 420.859l.994.111-.279 2.485-.993-.112z"/><path fill="#42385D" d="M189.133 408.896l.99.135-1.63 11.99-.99-.135z"/><path fill="#42385D" d="M192.333 391.776l.983.188-3.282 17.19-.982-.188zm5.478-26.711l.98.199-5.42 26.653-.98-.2zm5.991-31.348l.982.187-5.984 31.335-.983-.187z"/><path fill="#42385D" d="M206.246 313.32l.993.118-2.455 20.454-.993-.12z"/><path fill="#42385D" d="M207.352 296.8l.998.065-1.086 16.565-.998-.066z"/><path fill="#42385D" d="M208.018 286.195l.272 10.597-1 .025-.271-10.596zm-.763-10.931l.815 10.87-.997.074-.815-10.87z"/><path fill="#42385D" d="M205.087 263.491l2.177 11.7-.983.182-2.177-11.699zm-3.57-13.959l3.532 13.856-.969.247-3.532-13.856z"/><path fill="#42385D" d="M196.293 232.083l5.18 17.447-.96.284-5.179-17.446z"/><path fill="#42385D" d="M188.688 208.191l7.61 23.918-.953.303-7.61-23.917z"/><path fill="#42385D" d="M184.121 189.679l4.632 18.529-.97.242-4.632-18.529zm-1.905-13.083l1.905 13.061-.99.145-1.904-13.062z"/><path fill="#42385D" d="M181.315 164.975l.814 11.672-.998.07-.814-11.672z"/><path fill="#42385D" d="M180.4 164.2h1v.8h-1z"/><path fill="#42385D" d="M180.633 157.876l1 .044-.278 6.293-.999-.043z"/><path fill="#42385D" d="M181.181 147.786l1 .054-.543 10.086-.999-.054z"/><path fill="#42385D" d="M182.814 131.189l.995.098-1.63 16.62-.996-.098zm2.743-17.452l.988.154-2.716 17.39-.988-.155z"/><path fill="#42385D" d="M189.303 96.583l.976.216-3.814 17.182-.976-.217zm1.167-4.136l.966.258-1.084 4.058-.966-.258zM195.3 201.2h1v31.9h-1zm76 302h30.5v1h-30.5zm-10.4 0h5.7v1h-5.7zm-35.1 0h30.5v1h-30.5zm-10.4 0h5.4v1h-5.4zm-35.4 0h30.5v1H180zm11.2-322.6h35.7v1h-35.7zm40.6 0h5.7v1h-5.7zm10.6 0h35.7v1h-35.7z"/><path fill="#42385D" d="M246.8 133.7h1v48.7h-1zm0 53.4h1v5.2h-1zm0 10h1v48.5h-1zm0 53.4h1v5.2h-1zm0 10.1h1v48.5h-1zm0 53.3h1v5.2h-1zm0 9.8h1v48.7h-1zm0 53.7h1v5.2h-1zm0 9.8h1v48.7h-1z"/><path fill="#42385D" d="M216.8 400h61.3v1h-61.3zm46.6 211.9h37.3v1h-37.3zm-10.1 0h5.2v1h-5.2zm-41.9 0h37v1h-37zm-10.4 0h5.4v1H201zm-41.9 0h37v1h-37zm9.8-19.6h125.3v1H168.9zm0 39.2h125.3v1H168.9z"/><path fill="#42385D" d="M173 588.1h1v48.2h-1zm14.4-108.8H216v1h-28.6zm-7.9 48.2H216v1h-36.5zm55.8-56.4h24.2v1h-24.2zm0 64.3h24.2v1h-24.2zm-.5-55.6h1V528h-1zm-72.945 98.44l4.384 4.383-.707.707-4.384-4.384z"/><path fill="#42385D" d="M158.048 574.205l3.821 4.094-.731.682-3.821-4.094z"/><path fill="#42385D" d="M155.3 571.446l2.758 2.758-.707.707-2.758-2.758zm-5.665-1.059l3.818 3.818-.707.708-3.819-3.819z"/><path fill="#42385D" d="M153.42 574.176l4.1 4.101-.706.707-4.101-4.1z"/><path fill="#42385D" d="M157.546 578.239l7.637 7.636-.707.708-7.637-7.637zm-4.696.037l10.89 10.89-.707.706-10.89-10.889z"/><path fill="#42385D" d="M148.81 574.197l4.102 4.1-.707.708-4.101-4.101z"/><path fill="#42385D" d="M145.026 570.407l3.819 3.819-.707.707-3.82-3.818zm-3.859.506l2.973 3.243-.738.676-2.973-3.244zm3.035 3.304l4.101 4.102-.707.707-4.1-4.101z"/><path fill="#42385D" d="M148.249 578.226l14.419 14.146-.7.714-14.42-14.147zm-4.363-.032l17.395 17.395-.708.707-17.394-17.395z"/><path fill="#42385D" d="M139.815 574.187l4.101 4.1-.707.708-4.101-4.101zm-2.157-2.247l2.192 2.19-.707.708-2.192-2.192zm-3.244 1.42l.849.849-.707.707-.849-.848z"/><path fill="#42385D" d="M135.206 574.208l4.101 4.1-.707.708-4.1-4.101z"/><path fill="#42385D" d="M139.215 578.246l20.718 20.718-.707.707-20.718-20.718zm-4.557.034l24.248 23.975-.703.711-24.248-23.975zm-2.743-3.046l2.69 2.96-.74.672-2.69-2.96zm-2.021 2.57l.268.537-.895.447-.268-.537z"/><path fill="#42385D" d="M130.042 578.247l27.5 27.23-.703.71-27.5-27.229zm-2.733 1.677l28.85 28.85-.708.707-28.85-28.85zm-2.183 2.454l29.98 29.981-.706.707-29.981-29.98zm-1.824 2.448l30.484 30.752-.71.704-30.484-30.752zm-1.946 2.688l31.324 31.325-.707.707-31.324-31.325zm-1.689 3.037l31.607 31.607-.707.708-31.607-31.608zm-1.353 2.962l31.614 31.884-.71.704-31.614-31.884zm-1.116 3.508l31.607 31.608-.707.707-31.608-31.608zm-1.064 3.56l31.325 31.325-.707.707-31.325-31.324zm-.494 3.807l30.76 30.759-.708.707-30.759-30.76zm-.57 4.327l29.975 29.704-.704.71-29.975-29.704zm.01 4.702l28.562 28.29-.704.71-28.562-28.29zm.526 4.913l26.936 26.662-.704.711-26.935-26.662zm1.369 5.957l24.248 23.976-.703.71-24.248-23.975zm3.222 7.613l15.273 15.273-.707.707-15.273-15.273zm139.146-215.636l.566.566-.707.707-.566-.566zm-6.793.009l7.354 7.354-.707.707-7.354-7.353zm-6.792.01l14.142 14.142-.707.707-14.142-14.142zm-6.8-.092l17.678 17.678-.708.707-17.677-17.678zm17.695 17.719l3.253 3.253-.707.707-3.253-3.252zm-7.037.04l10.317 10.045-.697.717-10.318-10.045zm-14.008-13.896l13.86 13.86-.707.706-13.86-13.859zm.067 6.869l7.07 7.07-.706.708-7.071-7.071z"/><path fill="#42385D" d="M242.755 433.917l16.893 16.621-.701.713-16.894-16.621z"/><path fill="#42385D" d="M259.646 450.5l.283.284-.707.707-.283-.283zm-6.793.01l7.071 7.07-.707.708-7.07-7.071z"/><path fill="#42385D" d="M235.953 433.922l16.893 16.62-.701.714-16.893-16.621z"/><path fill="#42385D" d="M235.67 433.72l.283.283-.707.707-.283-.283zm.004 6.803l10.318 10.045-.698.717-10.317-10.046zm10.386 9.997l13.86 13.859-.707.707-13.86-13.86zm-6.916.047l20.44 20.713-.712.703-20.44-20.714z"/><path fill="#42385D" d="M235.63 447.305l3.528 3.255-.678.735-3.527-3.256zm.068 6.785l17.182 17.183-.707.707-17.182-17.183zm.009 6.802l10.324 10.324-.707.707L235 461.6zm-.002 6.798l3.536 3.536-.707.707-3.536-3.535zm20.102 67.793l4.1 4.101-.706.707-4.101-4.101zm-6.793.01l10.89 10.89-.707.706-10.89-10.89zm-6.792.009l17.677 17.677-.707.708-17.678-17.678zm-6.545.534l20.435 20.436-.707.707-20.435-20.436zm.009 6.804l13.647 13.646-.707.707-13.647-13.647zm-.021 6.836l6.789 6.788-.707.707-6.79-6.788zm34.858-165.514l1.344 1.613-.768.64-1.344-1.613zm-2.496-.058l3.818 3.82-.707.706-3.818-3.819zm-2.137-.027l4.878 4.879-.707.707-4.879-4.879zm-2.165.016l4.6 4.871-.728.687-4.6-4.872zm-2.445.005l4.88 4.879-.707.707-4.88-4.88zm-2.212-.02l4.879 4.88-.708.707-4.878-4.88zm-2.187.038l6.014 6.288-.723.69-6.013-6.287zm-2.455-.012l7.637 7.637-.708.707-7.636-7.637zm-2.119.054l8.985 9.257-.718.697-8.985-9.257zm-2.477-.018l10.607 10.607-.708.707-10.606-10.606zm-2.22-.014l11.95 11.95-.707.708-11.95-11.95zm-2.123.023l13.368 13.641-.714.7-13.368-13.641zm25.08 27.434l1.343 1.343-.707.707-1.343-1.343zm-27.553-27.42l14.99 14.99-.706.708-14.991-14.99zm-2.152-.11l17.183 17.182-.707.707-17.183-17.182zm27.213 27.487l3.81 3.538-.68.733-3.81-3.539zm-2.221.048l4.871 4.6-.686.728-4.871-4.6zm-27.213-27.442l22.35 22.622-.712.703-22.349-22.623zm-2.401-.064l32.103 32.102-.707.707-32.103-32.102zm-2.2-.017l32.102 32.102-.707.707-32.102-32.102zm-2.116.057l32.102 32.102-.707.707-32.102-32.102zm-2.493-.037l32.103 32.102-.707.708-32.103-32.103zm-2.186-.013l32.102 32.102-.707.707-32.102-32.102zm7.025 9.558l22.904 22.632-.703.712-22.904-22.634zm-9.217-9.56l4.6 4.87-.727.688-4.6-4.871zm-1.423 1.12l3.82 3.819-.708.707-3.818-3.819zm13.647 13.607l17.395 17.394-.708.707-17.394-17.394zm.292 2.443l14.99 14.99-.707.708-14.99-14.99zm-13.911-13.829l1.626 1.626-.707.707-1.626-1.626zm13.134 15.467l13.641 13.368-.7.714-13.64-13.368zm-.849 1.369l11.95 11.95-.707.707-11.95-11.95zm-.806 1.4l10.606 10.606-.707.707-10.606-10.606zm-.877 1.328l9.263 9.263-.707.707-9.263-9.263zm-.76 1.709l7.636 7.638-.707.707-7.637-7.638zm-.866 1.298l6.294 6.293-.708.707-6.293-6.293zm-.754 1.323l4.879 4.88-.707.707-4.879-4.88zm-2.521.275l4.87 4.6-.686.727-4.87-4.6zm-2.117.087l4.87 4.601-.686.727-4.87-4.6zm-2.23-.074l4.596 4.596-.707.708-4.596-4.597zm-1.361.805l3.819 3.819-.708.707-3.818-3.818zm.027 2.222l1.627 1.626-.708.707-1.626-1.627zm47.512-211.34l.706.707-1.626 1.626-.707-.707zm-.054-3.802l.707.707-5.162 5.162-.707-.707zm.027-3.543l.707.707-6.788 6.788-.707-.707zm-.009-3.83l.707.707-8.202 8.202-.707-.707zm-.028-3.512l.707.707-8.202 8.203-.707-.708zm.027-3.564l.695.719-8.193 7.926-.695-.719zm.007-3.822l.707.707-8.202 8.203-.707-.707zm-.039-3.481l.707.707-2.97 2.97-.707-.708z"/><path fill="#42385D" d="M268.217 180.749l.707.707-5.162 5.162-.707-.707zm-3.525-.048l.64.768-1.613 1.345-.64-.768z"/><path fill="#42385D" d="M271.19 174.216l.707.707-6.506 6.506-.707-.707zm-.024-3.906l.707.707-8.202 8.202-.707-.707zm-.028-3.512l.707.707-8.203 8.203-.707-.707zm.027-3.564l.695.719-8.193 7.926-.696-.719zm-40.305 36.6l.726.688-4.88 5.157-.726-.687zm40.312-40.421l.707.707-8.202 8.202-.707-.707zm-.552-2.886l.707.707-7.636 7.636-.707-.707zm-39.762 39.748l.707.707-7.92 7.92-.707-.707zm-.045-3.834l.717.697-8.988 9.253-.718-.697zm36.063-35.973l.707.707-3.818 3.818-.707-.707zm-36.057 32.412l.707.708-11.95 11.95-.707-.707zm.046-3.86l.707.706-14.99 14.99-.708-.706zm.028-3.518l.707.708-15.273 15.273-.707-.707zm-2.703-.827l.707.707-13.647 13.647-.707-.707z"/><path fill="#42385D" d="M230.887 178.021l.708.708-2.758 2.757-.707-.707zm-.022-3.817l.722.692-6.295 6.57-.722-.691z"/><path fill="#42385D" d="M224.678 180.703l.707.707-13.647 13.647-.707-.707zm-20.191 16.394l.732.681-3.54 3.81-.732-.682zm16.388-16.385l.707.707-13.647 13.647-.707-.707zm10.013-10.077l.707.707-10.04 10.04-.708-.706zm-.002-3.581l.707.707-13.647 13.647-.707-.707z"/><path fill="#42385D" d="M217.317 180.715l.707.707-18.526 18.526-.707-.707zm-3.575.01l.701.713-16.61 16.338-.701-.713zm17.439-17.458l.707.707-17.394 17.395-.707-.707zm-.294-3.458l.708.707-21.001 21-.707-.706z"/><path fill="#42385D" d="M209.95 180.721l.707.707-12.799 12.799-.707-.708zm-3.609.026l.707.707-9.263 9.263-.707-.707zm22.903-22.853l.707.707-22.84 22.84-.707-.708zm-2.419-1.394l.71.703-23.978 24.245-.711-.703z"/><path fill="#42385D" d="M202.854 180.655l.69.724-5.72 5.45-.69-.725zm-3.866.059l.708.707-1.91 1.91-.707-.708zm13.686-13.629l.707.707-13.647 13.647-.707-.707zm6.52-6.481l.707.707-3.535 3.536-.707-.708zm4.066-4.092l.707.708-.283.282-.707-.707zm-14.104 10.6l.7.715-12.01 11.748-.7-.715zm-3.567-.304l.707.707-8.415 8.415-.707-.708zm-1.146-2.472l.707.707-7.354 7.354-.707-.707zm-.533-3.178l.708.707-6.788 6.789-.708-.707zm-2.943-.6l.708.708-3.819 3.818-.707-.707zm54.597-20.988l8.203 8.203-.707.707-8.203-8.203zm-4.694.051l12.798 12.799-.707.707-12.799-12.799zm-4.298.019l17.186 17.458-.712.702-17.187-17.459zm-4.634-.002l21.784 22.057-.712.703-21.783-22.057zm-4.651.002l26.446 26.445-.708.707-26.445-26.446zm-2.424 1.828l28.856 29.127-.71.703-28.856-29.126zm-2.463 2.535l31.325 31.324-.707.707-31.324-31.324zm-.58 3.791l31.89 31.89-.708.708-31.89-31.89zm28.396 32.919l3.536 3.536-.708.707-3.536-3.536zm-28.41-28.599l28.289 28.563-.71.703-28.29-28.562zm.014 4.615l23.971 23.97-.707.707-23.97-23.97z"/><path fill="#42385D" d="M255.756 180.728l7.922 8.197-.719.695-7.922-8.197zm-4.616-.005l12.52 12.793-.714.7-12.521-12.794zm-19.276-19.347l19.304 19.304-.708.707-19.303-19.304zm-.313 4.351l14.99 14.99-.706.708-14.99-14.99zm15.071 14.983l17.182 17.183-.707.707-17.182-17.182zm-4.697.052l21.778 21.779-.707.707-21.779-21.779zm-10.335-10.387l10.324 10.324-.707.707-10.323-10.324zm-.004 4.609l6.003 5.731-.69.724-6.004-5.732z"/><path fill="#42385D" d="M237.535 180.727l26.167 26.442-.711.703-26.167-26.441zm-4.638.003l30.759 30.758-.707.707-30.759-30.759z"/><path fill="#42385D" d="M231.613 179.393l1.344 1.344-.707.707-1.344-1.344zm-.013 4.6l32.103 32.103-.707.707-32.102-32.103zm.023 4.608l32.103 32.103-.707.707-32.103-32.102zm-.014 4.364l32.107 32.38-.71.705-32.107-32.38zm.004 4.632l32.102 32.102-.707.707-32.102-32.102zm.021 4.608l32.102 32.103-.707.707-32.103-32.102zm-.051 4.68l32.103 32.102-.707.707-32.103-32.102zm.04 4.316l32.103 32.103-.708.707-32.102-32.103zm-.05 4.679l32.102 32.103-.707.707-32.102-32.103zm.021 4.609l32.102 32.102-.707.707-32.103-32.102zm.039 4.316l32.103 32.103-.707.707-32.103-32.103zm-.05 4.679l32.103 32.103-.708.707-32.102-32.102zm.021 4.609l32.102 32.102-.707.707-32.102-32.102zm-.016 4.363l32.106 32.38-.71.705-32.107-32.381zm.005 4.632l32.103 32.103-.707.707-32.103-32.102zm.021 4.609l32.102 32.102-.707.707-32.102-32.102zm.017 4.608l32.103 32.103-.707.707-32.103-32.103zm-.028 4.388l32.103 32.102-.707.707-32.103-32.102zm.021 4.608l32.102 32.102-.707.707-32.102-32.102zm-.054 4.679l32.103 32.102-.707.707-32.102-32.102zm.044 4.317l32.102 32.102-.707.707-32.102-32.102zm.017 4.608l32.102 32.102-.707.707-32.102-32.102zm-.051 4.679l32.103 32.102-.707.707-32.102-32.102zm-.014 4.363l32.107 32.38-.71.704-32.107-32.38zm.004 4.633l32.103 32.102-.707.707-32.103-32.102zm.02 4.608l32.103 32.102-.707.707-32.102-32.102zm.021 4.608l32.103 32.103-.707.707-32.103-32.103zm-.031 4.387l32.103 32.103-.707.707-32.103-32.102zm.021 4.609l32.102 32.102-.707.707-32.102-32.102zm.021 4.608l32.102 32.103-.707.707-32.103-32.103zm-.012 4.364l32.107 32.38-.71.704-32.107-32.38zm.001 4.632l32.102 32.102-.707.707-32.102-32.102zm39.979 44.399l.283.282-.707.708-.283-.283zm-39.958-39.791l32.102 32.103-.707.707-32.103-32.103zm-.051 4.679l32.103 32.103-.707.707-32.103-32.102zm35.382 35.093l4.879 4.879-.707.707-4.88-4.88zm-35.353-30.77l40.305 40.305-.707.707-40.305-40.304zm.02 4.609l40.305 40.305-.707.707-40.304-40.305zm-.036 4.655l39.24 38.965-.704.71-39.24-38.965zm.026 4.351l36.487 36.487-.707.707-36.486-36.486zm.003 4.621l32.097 31.825-.704.71-32.097-31.825zm-.032 4.622l24.249 23.976-.703.71-24.249-23.975zm.013 4.393l19.587 19.587-.707.707-19.587-19.587zm-1.374 3.187l16.61 16.338-.7.713-16.611-16.338zm-4.097.38l16.052 16.051-.708.708-16.05-16.052zm-2.465 2.129l14.142 14.142-.707.707-14.142-14.142zm44.684 49.337l3.535 3.536-.707.707-3.535-3.535zm-44.589-44.694l11.95 11.95-.707.707-11.95-11.95zm-.142 4.317l8.203 8.203-.707.707-8.203-8.203zm40.349 40.377l7.924 8.196-.719.695-7.924-8.196zm-4.02.491l11.95 11.95-.708.707-11.95-11.95zm-36.262-36.213l3.536 3.535-.707.708-3.536-3.535zm36.219 40.819l7.92 7.92-.708.706-7.92-7.92zm.045 4.428l3.256 3.527-.735.678-3.256-3.526zm-27.837-9.613l3.539 3.81-.733.68-3.539-3.81zm-4.595.079l8.202 8.203-.707.707-8.202-8.203zm-2.448 1.831l10.611 10.883-.716.698-10.61-10.883zm-1.329 3.328l7.64 7.914-.719.695-7.64-7.914zm-.039 4.588l2.973 3.244-.737.676-2.973-3.244zm9.192-349.87l2.757 2.758-.707.707-2.757-2.758zm-6.782.004l9.546 9.546-.707.707-9.546-9.546zm-6.234.602l15.769 15.769-.707.707-15.769-15.769z"/><path fill="#42385D" d="M219.345 76.19l.566.565-.707.707-.566-.565zm-6.784-.006l2.97 2.97-.706.707-2.97-2.97z"/><path fill="#42385D" d="M215.445 79.16l1.06 1.06-.707.708-1.06-1.061zm1.18 1.053l19.092 19.091-.708.708-19.091-19.092zm-1.103 5.754l20.153 20.152-.707.707-20.153-20.152z"/><path fill="#42385D" d="M206.046 76.42l9.546 9.546-.707.707-9.546-9.546zm-.3-.305l.283.282-.707.707-.283-.282zm-6.87.083l7.071 7.071-.707.707-7.071-7.07zm7.104 7.095l9.546 9.546-.707.707L205.273 84z"/><path fill="#42385D" d="M215.528 92.769l20.152 20.152-.707.707-20.153-20.152zm.005 6.801l20.152 20.153-.707.707-20.152-20.152z"/><path fill="#42385D" d="M205.985 90.095l9.546 9.545-.707.708-9.546-9.546z"/><path fill="#42385D" d="M196.205 80.49l9.822 9.55-.697.717-9.823-9.55zm.005 6.801l9.822 9.55-.697.718-9.823-9.55z"/><path fill="#42385D" d="M205.99 96.897l9.546 9.545-.707.707-9.546-9.545z"/><path fill="#42385D" d="M215.538 106.373l20.152 20.152-.707.707-20.152-20.152zm.04 7.085l19.298 19.027-.703.712-19.297-19.027z"/><path fill="#42385D" d="M206.03 103.68l9.55 9.824-.717.697-9.55-9.823z"/><path fill="#42385D" d="M196.214 94.093l9.823 9.55-.697.718-9.823-9.55zm-.064 6.874l9.822 9.55-.697.717-9.823-9.55z"/><path fill="#42385D" d="M206.035 110.483l9.55 9.823-.717.697-9.55-9.823z"/><path fill="#42385D" d="M215.574 120.245l12.509 12.237-.7.715-12.509-12.238zm-.116 6.825l7.347 7.076-.694.72-7.347-7.076z"/><path fill="#42385D" d="M206.04 117.285l9.55 9.823-.717.697-9.55-9.823z"/><path fill="#42385D" d="M196.154 107.769l9.823 9.55-.697.717-9.823-9.55zm.005 6.802l9.823 9.55-.697.717-9.823-9.55z"/><path fill="#42385D" d="M206.045 124.088l9.55 9.823-.717.697-9.55-9.823z"/><path fill="#42385D" d="M215.463 133.872l7.347 7.076-.694.72-7.347-7.076zm.01 6.783l7.347 7.074-.694.72-7.347-7.074z"/><path fill="#42385D" d="M206.05 130.89l9.55 9.823-.717.697-9.55-9.823z"/><path fill="#42385D" d="M196.164 121.373l9.822 9.55-.697.717-9.823-9.55zm.004 6.802l9.823 9.55-.697.717-9.823-9.55z"/><path fill="#42385D" d="M206.055 137.692l9.55 9.823-.717.697-9.55-9.823z"/><path fill="#42385D" d="M215.478 147.456l7.347 7.075-.694.72-7.347-7.074zm.09 6.814l5.162 5.161-.707.707-5.162-5.162z"/><path fill="#42385D" d="M205.988 144.564l9.55 9.823-.716.697-9.55-9.823z"/><path fill="#42385D" d="M196.173 134.977l9.823 9.55-.697.717-9.823-9.55zm.005 6.802l9.823 9.55-.697.717-9.823-9.55z"/><path fill="#42385D" d="M205.971 151.297l9.263 9.263-.707.707-9.263-9.263zm.037 7.077l2.192 2.192-.708.707-2.191-2.192z"/><path fill="#42385D" d="M196.214 148.55l9.829 9.828-.707.707-9.829-9.828zm.036 6.84l5.162 5.162-.707.707-5.162-5.162zm18.18 45.422l8.414 8.414-.707.707-8.414-8.414zm-6.784.008l15.273 15.274-.707.707-15.273-15.273zm-6.796.01l22.062 22.062-.707.707-22.062-22.061zm-4.695 2.497l26.651 26.38-.703.712-26.652-26.382zm.005 6.802l26.65 26.38-.703.712-26.65-26.382zm.004 6.801l26.652 26.382-.704.71-26.651-26.38zm.006 6.802l26.65 26.382-.703.71-26.651-26.38zm.004 6.802l26.651 26.381-.703.711-26.652-26.381zm2.169 8.947l24.529 24.257-.703.711-24.53-24.257zm3.03 9.629l21.496 21.496-.707.707-21.496-21.496zm2.428 9.193l19.092 19.092-.707.707-19.092-19.092zm1.877 8.741l17.183 17.182-.707.707-17.183-17.182zm1.463 8.146l15.769 15.768-.707.707-15.769-15.768zm.725 7.587l14.995 15.267-.713.7-14.995-15.266zm.368 7.103l14.712 14.984-.713.7-14.713-14.983zm-.066 6.872l14.712 14.984-.713.7-14.713-14.983zm-.341 6.758l14.99 14.99-.707.707-14.99-14.99zm-.473 6.279l15.485 15.485-.707.707-15.486-15.485zm-.556 6.206l16.051 16.051-.707.708-16.051-16.052zm-.538 6.351l16.616 16.617-.707.707-16.617-16.616zm-.828 5.982l17.395 17.395-.708.707-17.394-17.395zm-.828 5.982l18.243 18.242-.707.707-18.243-18.243zm-1.039 5.682l19.304 19.304-.707.707-19.304-19.304zm-1.11 5.754l20.435 20.435-.707.707-20.435-20.435zm-1.025 5.686l21.496 21.496-.707.707-21.496-21.496zm-1.176 5.684l22.627 22.627-.707.708-22.627-22.628zm-1.105 5.755l23.688 23.688-.707.707-23.688-23.688zm-1.264 5.719l25.027 24.752-.703.711-25.028-24.752zm-1.131 5.746l26.158 25.885-.704.711-26.157-25.885zm-1.061 5.431l27.224 27.223-.707.707-27.224-27.223zm-1.168 5.686l28.284 28.284-.707.707-28.284-28.284zm-1.342 5.747l29.698 29.698-.707.707-29.698-29.699zm-1.035 5.683l30.76 30.76-.708.706-30.759-30.759zm-1.098 5.757l31.89 31.89-.707.708-31.89-31.89zm-.837 5.745l32.675 32.944-.71.705-32.675-32.944zm-1.096 5.992l33.73 33.728-.708.707-33.729-33.728zm-.831 5.98l34.578 34.577-.707.707-34.578-34.577zm44.16 50.878l3.253 3.253-.707.707-3.253-3.253zm-44.984-44.895l35.426 35.425-.707.707-35.426-35.426zm-.208 6.502l35.638 35.638-.707.707-35.638-35.638zm38.396 38.454l8.202 8.202-.707.708-8.203-8.203zm-38.744-31.875l40.022 40.022-.707.707-40.022-40.022zm.002 6.8l33.234 33.234-.708.707-33.233-33.233zm.3 7.061l25.885 26.157-.711.704-25.885-26.158zm.257 7.024l18.813 19.087-.712.702-18.814-19.087zm-.033 7.108l11.95 11.95-.707.707-11.95-11.95zm.323 6.862l4.882 5.155-.726.687-4.882-5.154zm46.236 53.309l1.627 1.626-.708.707-1.626-1.626zm-45.958-46.301l1.06 1.06-.706.708-1.061-1.06zm39.197 46.322l8.415 8.415-.708.707-8.414-8.414zm-6.824-.002l15.273 15.273-.707.707-15.273-15.273zm-6.78.014l22.061 22.062-.707.707-22.061-22.062zm-6.805.005l28.85 28.85-.707.707-28.85-28.85zm-6.793.009l35.638 35.638-.707.707-35.638-35.638zm-6.863-.061l42.497 42.497-.707.707-42.497-42.497zm-10.888-4.025l53.386 53.386-.707.707-53.386-53.386zm-2.419 4.27l55.79 55.79-.707.708-55.79-55.79zm-2.718 4.112l55.79 55.79-.707.707-55.79-55.79zm-3.265 3.585l52.255 52.255-.707.707-52.255-52.255zm-3.545 3.217l49.003 49.001-.707.707-49.002-49.002zm-4.369 2.54l46.528 46.527-.708.707-46.527-46.527zm-4.864 1.87l44.688 44.689-.707.707-44.688-44.689zm-5.205 1.578l42.992 42.991-.707.708-42.992-42.992zm-5.406 1.661l41.642 41.371-.705.71-41.641-41.372zm82.996 89.568l2.19 2.193-.706.707-2.192-2.193zm-88.492-88.462l40.305 40.305-.708.707-40.304-40.304zm-5.689 1.055l39.174 39.173-.708.707-39.173-39.174zm87.369 87.39l8.202 8.203-.707.707-8.202-8.202zm-6.766.024l8.203 8.202-.707.707-8.203-8.202zm-86.337-86.305l21.779 21.778-.707.707-21.779-21.778zm-5.731 1.373l19.298 19.027-.702.712-19.298-19.027zm85.23 84.919l8.202 8.202-.707.707-8.202-8.202zm-6.739.057l7.923 8.197-.72.695-7.922-8.197zM122.4 552.163l18.809 18.808-.707.708-18.81-18.81zm-5.388 1.589l19.091 19.092-.707.707-19.091-19.092zm82.476 82.232l7.923 8.196-.72.695-7.922-8.196zm-3.272 3.777l4.384 4.384-.707.707-4.384-4.384zm-84.167-84.355l19.87 19.87-.708.707-19.87-19.87zm-4.65 2.098l20.934 21.208-.711.703-20.935-21.209zm-4.069 2.826l21.783 22.056-.712.702-21.783-22.056zm-3.793 3.215l22.627 22.628-.707.707-22.627-22.628zm-3.006 3.825l23.123 23.123-.708.707-23.122-23.122zm-2.935 3.79l24.253 24.254-.707.708-24.253-24.254zm-2.814 4.096l25.314 25.314-.707.707-25.314-25.314zm-2.406 4.297l26.94 26.94-.707.707-26.94-26.94zm-2.189 4.707l27.789 27.789-.707.707-27.79-27.79zm-1.867 4.865l22.839 22.84-.707.707-22.84-22.84zm-1.675 5.153l17.677 17.677-.707.707-17.678-17.677zm-1.412 5.484l16.9 16.9-.707.707-16.9-16.9zm-1.31 5.708l18.237 17.966-.701.712-18.238-17.966zm-.807 5.723l19.027 19.298-.712.702-19.027-19.298zm-.526 6.31l19.59 19.862-.711.703-19.591-19.862zm-.545 6.476l20.152 20.152-.707.707-20.152-20.152zm-.033 6.533l13.369 13.641-.715.7-13.368-13.641zm.024 7.062l6.505 6.506-.707.707-6.505-6.506zm116.57-409.763l.707.707-.565.566-.707-.707zm.064-4.63l.707.707-1.626 1.627-.707-.707zm.013-4.567l.74.672-2.69 2.96-.74-.672zm-.047-4.4l.707.707-3.818 3.819-.707-.707zm.064-4.629l.707.707-4.879 4.879-.707-.707zm-.078-4.63l.707.707-6.01 6.01-.707-.706zm.021-4.651l.72.694-6.794 7.061-.72-.693zm.031-4.311l.707.707-7.92 7.92-.707-.707zm-.007-4.7l.707.707-8.98 8.98-.707-.707zm-.047-4.57l.717.698-9.832 10.106-.717-.697zm.042-4.387l.707.708-10.606 10.606-.708-.707zm.008-4.624l.706.707-11.455 11.455-.707-.707zm.007-4.624l.707.707-12.233 12.233-.707-.707zm.002-4.398l.707.707-12.799 12.799-.707-.707zm-.049-4.619l.707.707-13.365 13.365-.707-.708zm-.005-4.571l.714.7-13.584 13.85-.714-.7zm.035-4.616l.714.7-13.864 14.136-.714-.7zm-.013-4.433l.707.707-14.142 14.142-.707-.707zm-.02-4.608l.707.707-14.142 14.142-.707-.707zm.023-4.563l.713.7-13.864 14.136-.714-.7zm.016-4.422l.707.707-13.647 13.647-.708-.707zm-.006-4.674l.706.707-13.364 13.364-.707-.707zm-.044-4.54l.715.7-12.797 13.082-.715-.7zm.04-4.364l.707.707-12.232 12.233-.708-.707zm.009-4.598l.707.707-11.738 11.738-.707-.707zm.033-4.683l.716.698-10.894 11.167-.715-.699zm-.042-4.591l.717.697-10.041 10.322-.717-.698zm0-4.418l.707.707-8.98 8.98-.707-.707zm.054-4.608l.72.695-7.927 8.193-.719-.695zm-.016-4.584l.722.693-6.508 6.783-.721-.692zm-.881-3.577l.707.707-4.384 4.384-.707-.707zM146.3 609.9h1v45.5h-1z"/><path fill="#42385D" d="M146.3 564.2h1v45.7h-1z"/><path fill="#42385D" d="M146.8 609.4h38.7v1h-38.7zm-38.4 0h38.4v1h-38.4zm160.546-441.626l1.068.266-.243.97-1.067-.266z"/><path fill="#42385D" d="M268.327 168.017l.895.447-.537 1.073-.894-.447z"/><path fill="#42385D" d="M268.333 168.85l1.068.267-.243.97-1.067-.267z"/><path fill="#42385D" d="M269.419 168.315l.895.447-.536 1.073-.895-.446z"/><path fill="#42385D" d="M270.237 167.84l.447.894-.537.268-.447-.894z"/><path fill="#42385D" d="M268.773 167.057l1.93.827-.394.92-1.93-.828z"/><path fill="#42385D" d="M268.034 167.283l.937.35-.807 2.155-.937-.351z"/><path fill="#42385D" d="M267.898 169.134l1.93.827-.394.92-1.93-.828z"/><path fill="#42385D" d="M269.94 168.097l.936.352-.809 2.153-.936-.352z"/><path fill="#42385D" d="M271.114 167.57l.317.948-.854.285-.317-.948z"/><path fill="#42385D" d="M268.23 166.184l3.231 1.346-.385.923-3.23-1.346z"/><path fill="#42385D" d="M267.498 166.413l.948.316-1.075 3.226-.949-.316z"/><path fill="#42385D" d="M267.118 169.477l3.231 1.346-.384.923-3.231-1.346z"/><path fill="#42385D" d="M270.784 167.821l.948.316-1.075 3.226-.948-.316z"/><path fill="#42385D" d="M329.076 141.929l.406.913-60.128 26.722-.406-.914z"/><path fill="#42385D" d="M328.8 97.5h1v44.9h-1zm-3.7 30.1c.3.1.5.2.6.4.1.2.2.4.2.7 0 .1-.1.3-.2.5-.1.1-.3.1-.6 0l-19.1-6.9 3.5 4.7c.2.2.2.4.2.6 0 .2-.1.4-.2.5-.2.1-.4.1-.6 0-.1 0-.3-.2-.6-.4l-4.9-6.6c-.2-.2-.2-.4-.2-.6 0-.2.1-.4.2-.5.1-.1.3-.1.6 0l21.1 7.6zm-11.2-7.2c-2.2-.8-4.3-2.1-6.2-4-2-2-3.5-4.3-4.4-6.8l-.1-.4c0-.2.1-.4.3-.4s.4-.1.6 0c.2.1.3.1.4.2.1.1.2.3.3.5l.1.3.2.4.4.8c.2.5.5 1 .9 1.5.5.9 1.3 1.8 2.2 2.7.6.6 1.4 1.2 2.2 1.8.8.6 1.6 1 2.2 1.3v-4.8c0-1.4.5-2.3 1.4-2.9.9-.6 2.1-.7 3.4-.2l3.2 1.2c1.3.5 2.5 1.4 3.4 2.7.9 1.3 1.4 2.6 1.4 3.9v1.6c0 1.2-.5 2.2-1.4 2.8-.9.7-2.1.7-3.4.2l-7.1-2.4zm.7-1.3l6.5 2.4c.9.3 1.6.3 2.3-.2.6-.4 1-1.1 1-1.9v-1.6c0-.9-.3-1.8-.9-2.6-.6-.9-1.4-1.4-2.3-1.8l-3.2-1.2c-.9-.3-1.7-.3-2.3.1s-.9 1-.9 2v4.8zm-59.024 271.13l.554.832-.832.555-.554-.832z"/><path fill="#42385D" d="M254.895 390.109l.6.8-1.12.84-.6-.8z"/><path fill="#42385D" d="M254.422 390.902l.848.848-.707.708-.849-.849z"/><path fill="#42385D" d="M255.368 390.89l.707.707-.848.849-.708-.707z"/><path fill="#42385D" d="M255.88 390.804l.853.285-.316.949-.854-.285z"/><path fill="#42385D" d="M255.6 389.368l1.337 1.871-.814.582-1.337-1.872z"/><path fill="#42385D" d="M254.881 389.304l.64.768-1.611 1.345-.641-.767z"/><path fill="#42385D" d="M253.954 390.779l1.337 1.872-.814.58-1.336-1.87z"/><path fill="#42385D" d="M256.208 391.16l.64.767-1.611 1.346-.641-.768z"/><path fill="#42385D" d="M256.6 391h.8v1h-.8z"/><path fill="#42385D" d="M255.877 388.584l1.892 2.704-.82.573-1.891-2.704z"/><path fill="#42385D" d="M255.116 388.457l.625.78-2.734 2.187-.624-.781z"/><path fill="#42385D" d="M253.098 390.685l1.892 2.704-.82.573-1.891-2.704z"/><path fill="#42385D" d="M257.036 391.16l.625.782-2.733 2.186-.625-.78z"/><path fill="#42385D" d="M254.966 390.83l107.26 14.977-.138.99-107.26-14.977z"/><path fill="#42385D" d="M361.7 406.2h1v44.9h-1zm-3.6 30.1c.3.1.5.2.6.5.1.2.2.4.2.7 0 .1-.1.3-.2.5-.1.1-.3.1-.6 0l-19.1-7 3.5 4.7c.2.2.2.4.2.6 0 .2-.1.4-.2.5-.2.1-.4.1-.6 0-.1 0-.3-.2-.6-.4l-4.9-6.6c-.2-.2-.2-.4-.2-.6 0-.2.1-.4.2-.5.1-.1.3-.1.6 0l21.1 7.6zm-4-15.9c1.3.5 2.5 1.4 3.4 2.7.9 1.3 1.4 2.6 1.4 3.9v1.6c0 1.2-.5 2.2-1.4 2.8-.9.7-2.1.7-3.4.2l-3.2-1.2c-.8-.3-1.6-.8-2.4-1.5-.8-.7-1.4-1.6-1.9-2.6-.5.4-1 .6-1.7.7-.6.1-1.4 0-2.1-.3l-1.7-.6c-1.2-.5-2.4-1.3-3.4-2.7-.5-.6-.8-1.3-1.1-1.9l-.2-.9-.1-.5v-.5c0-1.3.5-2.3 1.4-3 .5-.3 1-.5 1.6-.5l.9.1.5.1.5.2 1.6.6c.8.3 1.5.7 2.1 1.2.6.5 1.2 1.2 1.7 2 .4-.6.9-1 1.7-1.2s1.7-.1 2.6.2l3.2 1.1zm-11.3-1.7l-1.6-.6c-.9-.3-1.7-.3-2.3.1s-.9 1-.9 1.9c0 .9.3 1.8.9 2.6s1.4 1.5 2.3 1.8l1.6.6c.9.3 1.7.3 2.3-.1.6-.4.9-1 .9-1.9 0-.9-.3-1.7-.9-2.6-.7-.8-1.4-1.4-2.3-1.8zm11.3 3.3l-3.2-1.2c-.9-.3-1.7-.3-2.3.1-.6.4-.9 1-.9 2v1.6c0 .9.3 1.8.9 2.6.6.9 1.4 1.5 2.3 1.8l3.2 1.2c.9.3 1.6.3 2.3-.2s1-1.1 1-1.9v-1.6c0-.9-.3-1.8-.9-2.6-.8-.8-1.5-1.4-2.4-1.8zM140.6 200.7h68.3v1h-68.3z"/><path fill="#42385D" d="M145.406 185.1l1.908 16.087-.993.118-1.908-16.087z"/><path fill="#42385D" d="M145.224 184.782l1.899 1.626-.651.76-1.898-1.627z"/><path fill="#42385D" d="M148.7 184.726l.6.8-2.161 1.62-.6-.801z"/><path fill="#42385D" d="M148.5 185.104l.991.135-2.182 16.053-.99-.135z"/><path fill="#42385D" d="M147.1 198.8h-1v-2.2h-.3v-2.5h-.3V192h-.3v-2.5h-.2v-2.2h-.3v-2.1h1v.2h.3v.3h.2v.3h.3v.2h.3v.3h.3z"/><path fill="#42385D" d="M147.1 198.8h-1v-2.2h-.3v-2.5h-.3V192h-.3v-2.5h-.2v-2.2h-.3v-2.1h1v.2h.3v.3h.2v.3h.3v.2h.3v.3h.3z"/><path fill="#42385D" d="M147.3 201.2h-1v-14.4h.3v-.3h.3v-.3h.2v-.2h.6v-.3h.3v-.3h.2v-.2h1v1.9h-.2v1.9h-.3v2.1h-.3v1.9h-.3v2h-.2v2.1h-.3v1.9h-.3z"/><path fill="#42385D" d="M147.3 201.2h-1v-14.4h.3v-.3h.3v-.3h.2v-.2h.6v-.3h.3v-.3h.2v-.2h1v1.9h-.2v1.9h-.3v2.1h-.3v1.9h-.3v2h-.2v2.1h-.3v1.9h-.3zm-.025-40.36l2.176 16.052-.991.134-2.176-16.052z"/><path fill="#42385D" d="M147.145 175l2.16 1.62-.6.8-2.16-1.62z"/><path fill="#42385D" d="M146.53 174.998l.65.76-1.899 1.626-.65-.76z"/><path fill="#42385D" d="M146.362 160.895l.993.118-1.913 16.086-.993-.118z"/><path fill="#42385D" d="M149.2 176.7h-1v-.3h-.2v-.2h-.6v-.3h-.3v-.3h-.2v-.2h-.6v-14.5h1v1.9h.3v1.9h.3v2.2h.2v1.9h.3v1.9h.3v2.2h.3v1.9h.2z"/><path fill="#42385D" d="M149.2 176.7h-1v-.3h-.2v-.2h-.6v-.3h-.3v-.3h-.2v-.2h-.6v-14.5h1v1.9h.3v1.9h.3v2.2h.2v1.9h.3v1.9h.3v2.2h.3v1.9h.2z"/><path fill="#42385D" d="M145.7 176.7h-1v-2.2h.3v-2.1h.2v-2.5h.3v-2.2h.3v-2.4h.3v-2.2h1v12.3h-.3v.2h-.3v.3h-.3v.3h-.2v.2h-.3z"/><path fill="#42385D" d="M145.7 176.7h-1v-2.2h.3v-2.1h.2v-2.5h.3v-2.2h.3v-2.4h.3v-2.2h1v12.3h-.3v.2h-.3v.3h-.3v.3h-.2v.2h-.3z"/><path fill="#42385D" d="M146.3 160.9h1v40.3h-1zm0-96.1h1v96.1h-1z"/><path fill="#42385D" d="M140.6 160.4h61.5v1h-61.5zm-17.3-20.7c-.4.7-.9 1.1-1.7 1.3-.8.2-1.6.1-2.5-.2-1.2-.4-2.3-1.3-3.2-2.5-.9-1.2-1.4-2.5-1.4-3.8v-.7l-3.1-2.1c-.3-.2-.4-.4-.4-.7 0-.2 0-.3.1-.4.1-.1.2-.1.4 0l.2.1 3.1 2.1c.3-.6.9-1.1 1.7-1.4.4-.1.8-.1 1.3-.1s.9.1 1.2.3c1.2.5 2.3 1.3 3.2 2.5.9 1.2 1.4 2.5 1.4 3.7v.5c0 .1 0 .2-.1.3l3.1 2.1c.3.2.4.4.4.7 0 .1-.1.2-.2.4-.1.1-.2.1-.4 0l-.2-.1-2.9-2zm-1.1-.8l-6.5-4.4v.4c0 1 .3 1.9 1 2.8.3.4.7.8 1.1 1.2l.6.4.5.2.3.1c.7.2 1.3.3 1.8.2.4-.1.8-.4 1.2-.9zm-6.2-5.4l6.5 4.4v-.5c0-1-.3-1.9-1-2.8-.7-.9-1.5-1.6-2.4-1.9-.6-.2-1.2-.3-1.8-.1-.5.2-.9.5-1.3.9zm11.1-8.7v6.9c0 .1-.1.2-.2.3-.1.1-.3.1-.4 0-.1 0-.2-.1-.3-.2l-9.5-9.8-.4-.4-.4-.3c-.3-.2-.6-.3-.8-.4-.8-.3-1.4-.2-2 .2-.2.2-.4.4-.6.8-.1.3-.2.7-.2 1.1 0 .5.1 1.1.4 1.6.3.6.8 1.1 1.5 1.7l.3.3c0 .1.1.2.1.4s-.1.3-.2.4c-.1.1-.2.1-.4 0l-.2-.1c-.9-.7-1.6-1.4-2.1-2.3-.4-.8-.6-1.5-.6-2.3 0-1.1.4-1.9 1.1-2.5.8-.6 1.7-.7 2.8-.3.4.1.7.3 1.1.6.4.2.8.6 1.2 1l8.6 8.9v-5.8c0-.1.1-.2.2-.3.1-.1.3-.1.4 0 .1.1.3.1.4.3.2-.2.2 0 .2.2zm2-2.6c.2.1.3.2.3.4.1.1.1.2.1.3 0 .2-.1.3-.2.4-.1.1-.2.1-.4 0l-.2-.1-2.3-1.4c-.2-.1-.3-.2-.3-.3-.1-.1-.1-.2-.1-.4s.1-.3.2-.4c.1-.1.2-.1.4 0l.2.1 2.3 1.4zm-5.4-11.8c.9.3 1.8 1 2.4 1.9.7.9 1 1.9 1 2.8v2.9c0 .2-.1.3-.2.4-.1.1-.3.1-.4 0-.1 0-.2-.1-.3-.3-.1-.1-.2-.3-.2-.5v-2.9c0-.6-.2-1.3-.7-1.9-.4-.6-1-1-1.6-1.3l-2.3-.8c-.6-.2-1.2-.2-1.6.1-.4.3-.7.7-.7 1.4v2.9c0 .4-.2.5-.6.4l-6.9-2.5c-.4-.1-.6-.4-.6-.8v-5.7c0-.1.1-.2.2-.3.1-.1.3-.1.4 0 .1.1.3.1.4.3.1.1.2.3.2.5v5.2l5.8 2.1V112c0-.9.3-1.6 1-2.1s1.5-.5 2.4-.1l2.3.6zm-5.1-24.6h1v20.4h-1zm-15.2 6.7l-6.3-2.3c-.1 0-.2-.1-.4-.3-.1-.2-.2-.3-.2-.5 0-.1.1-.2.2-.3.1-.1.2-.1.4 0l14.9 5.4c.2.1.3.2.4.3.1.1.1.3.1.5 0 .1 0 .2-.1.4-.1.1-.2.1-.4 0l-7.5-2.7v5.8l7.5 2.7c.2.1.3.2.4.3.1.1.1.3.1.5 0 .1 0 .2-.1.4-.1.1-.2.1-.4 0l-14.9-5.4c-.1 0-.2-.1-.4-.3-.1-.2-.2-.3-.2-.5 0-.1.1-.2.2-.3.1-.1.2-.1.4 0l6.3 2.3v-6zm1.6-10.8c1.6.6 3.1 1.5 4.4 2.8 1.4 1.4 2.5 3 3.1 4.9v.3c0 .1-.1.2-.2.3-.1.1-.3.1-.4 0-.1 0-.2-.1-.3-.2s-.2-.2-.2-.4c-.1-.3-.2-.7-.4-1.1l-.3-.5-.1-.2-.2-.4c-.4-.6-.9-1.3-1.6-1.9-.5-.4-1-.9-1.6-1.3-.6-.4-1.1-.7-1.6-.9v3.4c0 1-.3 1.7-1 2.1-.7.4-1.5.5-2.4.1l-2.3-.8c-.9-.3-1.7-1-2.4-1.9s-1-1.9-1-2.8V82c0-.9.3-1.6 1-2.1.3-.2.7-.3 1.1-.4h.6l.4.1.4.1 5 2zm-.5 1L99.9 81c-.6-.2-1.2-.2-1.6.1-.4.3-.7.7-.7 1.4v1.1c0 .6.2 1.3.7 1.9.4.6 1 1 1.6 1.3l2.3.8c.6.2 1.2.2 1.6-.1.5-.3.7-.7.7-1.4v-3.4zm22.7 21.4v-1.7c0-.1.1-.2.2-.3.1-.1.3-.1.4 0 .1.1.3.1.4.3.1.1.2.3.2.5v1.7l9.8 3.6c.2.1.3.2.4.3.1.1.1.3.1.5 0 .1 0 .2-.1.4-.1.1-.2.1-.4 0l-9.8-3.6v.6c0 .2-.1.3-.2.4-.1.1-.3.1-.4 0-.1 0-.2-.1-.4-.3s-.2-.3-.2-.5v-.6l-2.3-.8c-.6-.2-1.2-.6-1.6-1.3-.5-.6-.7-1.2-.7-1.9v-.6c0-.1.1-.2.2-.3s.3-.1.4 0c.1 0 .3.1.4.3.1.1.2.3.2.5v.6c0 .3.1.6.3.9.2.3.5.5.8.6l2.3.7zm4-11.1c1.6.6 3.1 1.5 4.4 2.8 1.4 1.4 2.5 3 3.1 4.9v.3c0 .1-.1.2-.2.3-.1.1-.3.1-.4 0-.1 0-.2-.1-.3-.2-.1-.1-.2-.2-.2-.4-.1-.3-.2-.7-.4-1.1l-.3-.5-.1-.2-.2-.4c-.4-.6-.9-1.3-1.6-1.9-.5-.4-1-.9-1.6-1.3-.6-.4-1.1-.7-1.6-.9v3.4c0 1-.3 1.7-1 2.1-.7.4-1.5.5-2.4.1l-2.3-.8c-.9-.3-1.7-1-2.4-1.9s-1-1.9-1-2.8v-1.2c0-.9.3-1.6 1-2.1.3-.2.7-.3 1.1-.4h.6l.4.1.4.1 5 2zm-.5.9l-4.6-1.7c-.6-.2-1.2-.2-1.6.1-.4.3-.7.7-.7 1.4v1.1c0 .6.2 1.3.7 1.9.4.6 1 1 1.6 1.3l2.3.8c.6.2 1.2.2 1.6-.1.5-.3.7-.7.7-1.4v-3.4zM113.4 76v-1.4c0-.1.1-.2.2-.3.1-.1.3-.1.4 0 .1.1.3.1.4.3.1.1.2.3.2.5v1.4l1.5-.2h.3c.1.1.3.2.4.3.1.2.2.3.2.5s-.1.3-.3.4l-1.3.2 1.3 1.1c.2.2.3.4.3.6 0 .2-.1.3-.2.4-.1.1-.2.1-.4 0-.1 0-.2-.1-.3-.2l-1.5-1.3v1.4c0 .2-.1.3-.2.4-.1.1-.3.1-.4 0-.1 0-.2-.1-.3-.3-.2-.1-.2-.3-.2-.5v-1.4l-1.5.2h-.3c-.1-.1-.3-.2-.4-.3-.1-.2-.2-.3-.2-.5s.1-.3.3-.4l1.3-.2-1.3-1.1c-.2-.2-.3-.4-.3-.6 0-.2.1-.3.2-.4.1-.1.2-.1.4 0 .1 0 .2.1.3.2l1.4 1.2zm145.863 156.405l.832.555-.554.832-.832-.555z"/><path fill="#42385D" d="M258.587 232.5l.832.555-.555.832-.832-.554z"/><path fill="#42385D" d="M258.847 233.247l.848.849-.707.707-.849-.849z"/><path fill="#42385D" d="M259.409 233.15l.894.448-.536 1.073-.895-.447z"/><path fill="#42385D" d="M260.446 232.575l.317.949-.854.285-.317-.949z"/><path fill="#42385D" d="M258.991 231.537l1.91 1.092-.496.868-1.91-1.092z"/><path fill="#42385D" d="M258.32 231.717l.869.496-1.093 1.91-.868-.497z"/><path fill="#42385D" d="M257.891 233.504l1.872 1.337-.581.814-1.872-1.337z"/><path fill="#42385D" d="M260.214 232.802l.895.447-1.074 2.146-.894-.447z"/><path fill="#42385D" d="M260.6 232.6h.8v1h-.8z"/><path fill="#42385D" d="M258.766 230.73l3.037 1.933-.537.844-3.037-1.932z"/><path fill="#42385D" d="M257.958 230.94l.877.48-1.628 2.984-.878-.48z"/><path fill="#42385D" d="M257.02 233.731l2.986 1.628-.479.878-2.985-1.628z"/><path fill="#42385D" d="M261.027 232.743l.857.515-1.646 2.743-.858-.514z"/><path fill="#42385D" d="M329.142 216.468l.23.973-70.257 16.627-.23-.973z"/><path fill="#42385D" d="M328.8 173.7h1V217h-1zm-3.7 28.5c.3.1.5.2.6.4.1.2.2.4.2.7 0 .1-.1.3-.2.5-.1.1-.3.1-.6 0l-19.1-6.9 3.5 4.7c.2.2.2.4.2.6 0 .2-.1.4-.2.5-.2.1-.4.1-.6 0-.1 0-.3-.2-.6-.4l-4.9-6.6c-.2-.2-.2-.4-.2-.6 0-.2.1-.4.2-.5.1-.1.3-.1.6 0l21.1 7.6zM321 188c1.3.5 2.5 1.4 3.4 2.7 1 1.3 1.4 2.6 1.4 3.9v4.1c0 .2-.1.4-.2.5-.2.1-.4.1-.6 0-.1 0-.3-.2-.5-.4s-.3-.5-.3-.7V194c0-.9-.3-1.8-.9-2.6-.6-.9-1.4-1.4-2.3-1.8l-3.2-1.2c-.9-.3-1.7-.3-2.3.1s-.9 1-.9 1.9v4.1c0 .5-.3.7-.8.5l-9.7-3.5c-.5-.2-.8-.6-.8-1.1v-8.1c0-.2.1-.3.3-.5.2-.1.4-.1.5-.1.2.1.4.2.5.4.2.2.3.4.3.7v7.3l8.1 2.9v-3.2c0-1.3.5-2.3 1.4-2.9.9-.6 2.1-.7 3.4-.2l3.2 1.3zM230.7 0h1v181.1h-1z"/><path fill="#42385D" d="M215.24 3.826l16.052 2.177-.134.991-16.053-2.177z"/><path fill="#42385D" d="M215.585 4.014l1.62 2.16-.8.6-1.62-2.16z"/><path fill="#42385D" d="M216.46 6.192l.76.65-1.625 1.9-.76-.651z"/><path fill="#42385D" d="M231.18 6.04l.117.992-16.089 1.899-.117-.993z"/><path fill="#42385D" d="M208.9 6h22.3v1h-22.3z"/><path fill="#42385D" d="M231.5 6.5h-15.2V6h-.3v-.3h-.2v-.3h-.3v-.5h-.3v-.3h-.3v-.2h2.7v.2h1.9v.3h2.2v.3h1.9v.2h1.9v.3h2.1V6h2v.3h1.9z"/><path fill="#42385D" d="M231.5 6.5h-15.2V6h-.3v-.3h-.2v-.3h-.3v-.5h-.3v-.3h-.3v-.2h2.7v.2h1.9v.3h2.2v.3h1.9v.2h1.9v.3h2.1V6h2v.3h1.9zm-13.7 1.7h-2.9v-.3h.3v-.3h.3v-.2h.3v-.3h.2v-.3h.3v-.3h13v.3h-2.2v.3h-2.4v.3h-2.2v.2H220v.3h-2.2z"/><path fill="#42385D" d="M217.8 8.2h-2.9v-.3h.3v-.3h.3v-.2h.3v-.3h.2v-.3h.3v-.3h13v.3h-2.2v.3h-2.4v.3h-2.2v.2H220v.3h-2.2zm45.622-2.148l16.29 1.9-.116.994-16.29-1.9z"/><path fill="#42385D" d="M278.43 6.2l1.627 1.898-.76.65-1.626-1.897z"/><path fill="#42385D" d="M279.312 4.085l.8.6-1.618 2.16-.8-.599z"/><path fill="#42385D" d="M279.633 3.811l.133.991-16.353 2.192-.133-.992z"/><path fill="#42385D" d="M263.4 6H286v1h-22.6z"/><path fill="#42385D" d="M279.9 8.2H277v-.3h-2.4v-.3h-2.2v-.2h-2.5v-.3h-2.1v-.3h-2.5v-.3h13.3v.3h.2v.3h.3v.3h.3v.2h.3v.3h.2z"/><path fill="#42385D" d="M279.9 8.2H277v-.3h-2.4v-.3h-2.2v-.2h-2.5v-.3h-2.1v-.3h-2.5v-.3h13.3v.3h.2v.3h.3v.3h.3v.2h.3v.3h.2zm-1.3-1.7h-15.5v-.2h1.9V6h2.2v-.3h1.9v-.3h2.2v-.2h1.9v-.3h2.2v-.3h1.9v-.2h2.6v.2h-.2v.3h-.3v.5h-.3v.3h-.3V6h-.2z"/><path fill="#42385D" d="M278.6 6.5h-15.5v-.2h1.9V6h2.2v-.3h1.9v-.3h2.2v-.2h1.9v-.3h2.2v-.3h1.9v-.2h2.6v.2h-.2v.3h-.3v.5h-.3v.3h-.3V6h-.2z"/><path fill="#42385D" d="M231.2 6h32.1v1h-32.1zm32.2 0h83.9v1h-83.9z"/><path fill="#42385D" d="M262.9 0h1v181.1h-1zm72.7 30.1c.7.4 1.1.9 1.3 1.7.2.8.1 1.6-.2 2.5-.4 1.2-1.3 2.3-2.5 3.2-1.2.9-2.5 1.4-3.8 1.4h-.7l-2.1 3.1c-.2.3-.4.4-.7.4-.2 0-.3-.1-.4-.2-.1-.1-.1-.2 0-.4l.1-.2 2.1-3.1c-.6-.3-1.1-.9-1.4-1.7-.1-.4-.1-.8-.1-1.3s.1-.9.3-1.2c.5-1.2 1.3-2.3 2.5-3.2 1.2-.9 2.5-1.4 3.7-1.4h.5c.1 0 .2 0 .3.1l2.1-3.1c.2-.3.4-.4.7-.4.1 0 .2 0 .4.2.1.1.1.2 0 .4l-.1.2-2 3zm-.7 1.1l-4.4 6.5h.4c1 0 1.9-.3 2.8-1 .4-.3.8-.7 1.2-1.1l.4-.6.2-.5.1-.3c.2-.7.3-1.3.2-1.8-.1-.5-.4-.9-.9-1.2zm-5.4 6.1l4.4-6.5h-.5c-1 0-1.9.3-2.8 1-.9.7-1.6 1.5-1.9 2.4-.2.6-.3 1.2-.1 1.8.1.6.4 1 .9 1.3zm-8.8-11.1h6.9c.1 0 .2.1.3.2.1.1.1.3 0 .4 0 .1-.1.2-.2.3l-9.8 9.5-.4.4-.3.4c-.2.3-.3.6-.4.8-.3.8-.2 1.4.2 2 .2.2.4.4.8.6.3.1.7.2 1.1.2.5 0 1.1-.1 1.6-.4s1.1-.8 1.7-1.5l.3-.3c.1 0 .2-.1.4-.1s.3.1.4.2c.1.1.1.2 0 .4l-.1.2c-.7.9-1.4 1.6-2.3 2.1-.8.4-1.5.6-2.3.6-1.1 0-1.9-.4-2.5-1.1-.6-.8-.7-1.7-.3-2.8.1-.4.3-.7.6-1.1.2-.4.6-.8 1-1.2l8.9-8.6h-5.8c-.1 0-.2-.1-.3-.2-.1-.1-.1-.3 0-.4 0-.1.1-.3.3-.4-.1-.1.1-.2.2-.2zm-26.6 7.6h20.4v1h-20.4zm6.7 16.2l-2.3 6.3c0 .1-.1.2-.3.4s-.3.2-.5.2c-.1 0-.2 0-.3-.1-.1-.1-.1-.2 0-.4l5.4-14.9c.1-.2.2-.3.3-.4.1-.1.3-.1.5-.1.1 0 .2 0 .4.1.1.1.1.2 0 .4l-2.7 7.5h5.8l2.7-7.5c.1-.2.2-.3.3-.4.1-.1.3-.1.5-.1.1 0 .2 0 .4.1.1.1.1.2 0 .4l-5.4 14.9c0 .1-.1.2-.3.4s-.3.2-.5.2c-.1 0-.2 0-.3-.1-.1-.1-.1-.2 0-.4l2.3-6.3h-6zm-10.7-1.7c.6-1.6 1.5-3.1 2.8-4.4 1.4-1.4 3-2.5 4.9-3.1h.3c.1 0 .2.1.3.2.1.1.1.3 0 .4 0 .1-.1.2-.2.3-.1.1-.2.2-.4.2-.3.1-.7.2-1.1.4l-.5.3-.2.1-.4.2c-.6.4-1.3.9-1.9 1.6-.4.5-.9 1-1.3 1.6-.4.6-.7 1.1-.9 1.6h3.4c1 0 1.7.3 2.1 1 .4.7.5 1.5.1 2.4l-.8 2.3c-.3.9-1 1.7-1.9 2.4-.9.7-1.9 1-2.8 1h-1.2c-.9 0-1.6-.3-2.1-1-.2-.3-.3-.7-.4-1.1v-.6l.1-.4.1-.4 2-5zm.9.5l-1.7 4.6c-.2.6-.2 1.2.1 1.6.3.4.7.7 1.4.7h1.1c.6 0 1.3-.2 1.9-.7.6-.4 1-1 1.3-1.6l.8-2.3c.2-.6.2-1.2-.1-1.6-.3-.5-.7-.7-1.4-.7H291zM140.6 416.1h88.8v1h-88.8z"/><path fill="#42385D" d="M146.346 416.499l.993.117-1.898 16.088-.993-.117z"/><path fill="#42385D" d="M146.546 430.925l.58.814-1.872 1.336-.58-.814z"/><path fill="#42385D" d="M147.045 430.875l2.205 1.378-.53.848-2.205-1.378z"/><path fill="#42385D" d="M147.367 416.527l2.177 16.052-.991.135-2.177-16.053z"/><path fill="#42385D" d="M146.3 416.6h1v22.6h-1z"/><path fill="#42385D" d="M145.7 432.4h-1v-2.2h.3V428h.2v-2.4h.3v-2.2h.3V421h.3v-2.2h1v12.5h-.3v.3h-.3v.2h-.5v.3h-.3z"/><path fill="#42385D" d="M145.7 432.4h-1v-2.2h.3V428h.2v-2.4h.3v-2.2h.3V421h.3v-2.2h1v12.5h-.3v.3h-.3v.2h-.5v.3h-.3z"/><path fill="#42385D" d="M149.2 432.4h-1v-.3h-.5v-.3h-.3v-.2h-.5v-.3h-.6v-14.7h1v1.9h.3v1.9h.3v2.2h.2v1.9h.3v1.9h.3v2.2h.3v1.9h.2z"/><path fill="#42385D" d="M149.2 432.4h-1v-.3h-.5v-.3h-.3v-.2h-.5v-.3h-.6v-14.7h1v1.9h.3v1.9h.3v2.2h.2v1.9h.3v1.9h.3v2.2h.3v1.9h.2zm-.69-64.092l.992.134-2.183 16.053-.99-.135z"/><path fill="#42385D" d="M148.654 368.03l.599.8-2.161 1.619-.6-.8z"/><path fill="#42385D" d="M145.227 368.002l1.898 1.627-.65.76-1.899-1.628z"/><path fill="#42385D" d="M145.465 368.347l1.908 16.086-.993.118-1.908-16.087z"/><path fill="#42385D" d="M146.3 362.1h1v22.3h-1z"/><path fill="#42385D" d="M147.3 384.5h-1V370h.3v-.2h.3v-.3h.2v-.3h.6v-.3h.3v-.2h.2v-.3h1v1.9h-.2v1.9h-.3v2.2h-.3v1.9h-.3v1.9h-.2v2.2h-.3v1.9h-.3z"/><path fill="#42385D" d="M147.3 384.5h-1V370h.3v-.2h.3v-.3h.2v-.3h.6v-.3h.3v-.2h.2v-.3h1v1.9h-.2v1.9h-.3v2.2h-.3v1.9h-.3v1.9h-.2v2.2h-.3v1.9h-.3z"/><path fill="#42385D" d="M147.1 382h-1v-2.2h-.3v-2.4h-.3v-2.2h-.3v-2.4h-.2v-2.2h-.3v-2.2h1v.3h.3v.2h.2v.3h.3v.3h.3v.3h.3z"/><path fill="#42385D" d="M147.1 382h-1v-2.2h-.3v-2.4h-.3v-2.2h-.3v-2.4h-.2v-2.2h-.3v-2.2h1v.3h.3v.2h.2v.3h.3v.3h.3v.3h.3zm-.8 2.5h1v32.1h-1z"/><path fill="#42385D" d="M146.3 300.9h1v83.6h-1z"/><path fill="#42385D" d="M140.6 384h89.6v1h-89.6zm-17.3-20.8c-.4.7-.9 1.1-1.7 1.3-.8.2-1.6.1-2.5-.2-1.2-.4-2.3-1.3-3.2-2.5-.9-1.2-1.4-2.5-1.4-3.8v-.7l-3.1-2.1c-.3-.2-.4-.4-.4-.7 0-.2 0-.3.1-.4.1-.1.2-.1.4 0l.2.1 3.1 2.1c.3-.6.9-1.1 1.7-1.4.4-.1.8-.1 1.3-.1s.9.1 1.2.3c1.2.5 2.3 1.3 3.2 2.5.9 1.2 1.4 2.5 1.4 3.7v.5c0 .1 0 .2-.1.3l3.1 2.1c.3.2.4.4.4.7 0 .1-.1.2-.2.4-.1.1-.2.1-.4 0l-.2-.1-2.9-2zm-1.1-.7l-6.5-4.4v.4c0 1 .3 1.9 1 2.8.3.4.7.8 1.1 1.2l.6.4.5.2.3.1c.7.2 1.3.3 1.8.2.4-.1.8-.4 1.2-.9zm-6.2-5.4l6.5 4.4v-.5c0-1-.3-1.9-1-2.8-.7-.9-1.5-1.6-2.4-1.9-.6-.2-1.2-.3-1.8-.1-.5.1-.9.4-1.3.9zm11.1-8.8v6.9c0 .1-.1.2-.2.3-.1.1-.3.1-.4 0-.1 0-.2-.1-.3-.2l-9.5-9.8-.4-.4-.4-.3c-.3-.2-.6-.3-.8-.4-.8-.3-1.4-.2-2 .2-.2.2-.4.4-.6.8s-.2.7-.2 1.1c0 .5.1 1.1.4 1.6.3.6.8 1.1 1.5 1.7l.3.3c0 .1.1.2.1.4s-.1.3-.2.4c-.1.1-.2.1-.4 0l-.2-.1c-.9-.7-1.6-1.4-2.1-2.3-.4-.8-.6-1.5-.6-2.3 0-1.1.4-1.9 1.1-2.5.8-.6 1.7-.7 2.8-.3.4.1.7.3 1.1.6.4.2.8.6 1.2 1l8.6 8.9v-5.8c0-.1.1-.2.2-.3.1-.1.3-.1.4 0 .1 0 .3.1.4.3.2-.1.2.1.2.2zm-8.5-26.5h1v20.4h-1zm-15.2 6.6l-6.3-2.3c-.1 0-.2-.1-.4-.3-.1-.2-.2-.3-.2-.5 0-.1 0-.2.1-.3.1-.1.2-.1.4 0l14.9 5.4c.2.1.3.2.4.3.1.1.1.3.1.5 0 .1 0 .2-.1.4-.1.1-.2.1-.4 0l-7.5-2.7v5.8l7.5 2.7c.2.1.3.2.4.3.1.1.1.3.1.5 0 .1 0 .2-.1.4-.1.1-.2.1-.4 0L97.1 333c-.1 0-.2-.1-.4-.3-.1-.2-.2-.3-.2-.5 0-.1 0-.2.1-.3.1-.1.2-.1.4 0l6.3 2.3v-5.8zm1.6-10.7c1.6.6 3.1 1.5 4.4 2.8 1.4 1.4 2.5 3 3.1 4.9v.3c0 .1-.1.2-.2.3-.1.1-.3.1-.4 0-.1 0-.2-.1-.3-.2-.1-.1-.2-.2-.2-.4-.1-.3-.2-.7-.4-1.1l-.3-.5-.1-.2-.2-.4c-.4-.6-.9-1.3-1.6-1.9-.5-.4-1-.9-1.6-1.3-.6-.4-1.1-.7-1.6-.9v3.4c0 1-.3 1.7-1 2.1-.7.4-1.5.5-2.4.1l-2.3-.8c-.9-.3-1.7-1-2.4-1.9-.7-.9-1-1.9-1-2.8V318c0-.9.3-1.6 1-2.1.3-.2.7-.3 1.1-.4h.6l.4.1.4.1 5 2zm-.5.9l-4.6-1.7c-.6-.2-1.2-.2-1.6.1-.4.3-.7.7-.7 1.4v1.1c0 .6.2 1.3.7 1.9.4.6 1 1 1.6 1.3l2.3.8c.6.2 1.2.2 1.6-.1.5-.3.7-.7.7-1.4v-3.4zm22.7 19l-4-1.5c-.1 0-.2-.1-.4-.3s-.2-.3-.2-.5c0-.1 0-.3.1-.3.1-.1.2-.1.4 0l14.9 5.4c.4.1.6.4.6.8v4c0 .6-.2 1.1-.7 1.4-.5.3-1 .3-1.6.1l-6.9-2.5c-.6-.2-1.2-.7-1.6-1.3-.4-.6-.7-1.2-.7-1.9v-3.4zm1.2.4v3.4c0 .3.1.6.3.9.2.3.5.5.8.6l6.9 2.5c.3.1.6.1.8 0s.3-.4.3-.7v-3.4l-9.1-3.3zm2.8-10.2c1.6.6 3.1 1.5 4.4 2.8 1.4 1.4 2.5 3 3.1 4.9v.3c0 .1-.1.2-.2.3-.1.1-.3.1-.4 0-.1 0-.2-.1-.3-.2-.1-.1-.2-.2-.2-.4-.1-.3-.2-.7-.4-1.1l-.3-.5-.1-.2-.2-.4c-.4-.6-.9-1.3-1.6-1.9-.5-.4-1-.9-1.6-1.3-.6-.4-1.1-.7-1.6-.9v3.4c0 1-.3 1.7-1 2.1-.7.4-1.5.5-2.4.1l-2.3-.8c-.9-.3-1.7-1-2.4-1.9s-1-1.9-1-2.8v-1.2c0-.9.3-1.6 1-2.1.3-.2.7-.3 1.1-.4h.6l.4.1.4.1 5 2zm-.5 1l-4.6-1.7c-.6-.2-1.2-.2-1.6.1-.4.3-.7.7-.7 1.4v1.1c0 .6.2 1.3.7 1.9.4.6 1 1 1.6 1.3l2.3.8c.6.2 1.2.2 1.6-.1.5-.3.7-.7.7-1.4v-3.4zm-17.3-16.9v-1.4c0-.1.1-.2.2-.3.1-.1.3-.1.4 0 .1.1.3.1.4.3.1.1.2.3.2.5v1.4l1.5-.2h.3c.1.1.3.2.4.3.1.2.2.3.2.5s-.1.3-.3.4l-1.3.2 1.3 1.1c.2.2.3.4.3.6 0 .2-.1.3-.2.4-.1.1-.2.1-.4 0-.1 0-.2-.1-.3-.2l-1.5-1.3v1.4c0 .2-.1.3-.2.4-.1.1-.3.1-.4 0-.1 0-.2-.1-.3-.3-.2-.1-.2-.3-.2-.5v-1.4l-1.5.2h-.3c-.1-.1-.3-.2-.4-.3-.1-.2-.2-.3-.2-.5s.1-.3.3-.4l1.3-.2-1.3-1.1c-.2-.2-.3-.4-.3-.6 0-.2.1-.3.2-.4.1-.1.2-.1.4 0 .1 0 .2.1.3.2l1.4 1.2zm167.64 212.571l.536 1.074-.895.446-.536-1.073z"/><path fill="#42385D" d="M280.187 524.297l.555.832-.832.555-.555-.832z"/><path fill="#42385D" d="M280.12 525.045l.537 1.073-.894.448-.537-1.073z"/><path fill="#42385D" d="M280.754 525.439l.554.832-.832.555-.554-.833z"/><path fill="#42385D" d="M281.185 525.264l.854.284-.316.949-.854-.284z"/><path fill="#42385D" d="M281.209 523.638l1.073 2.146-.894.448-1.074-2.147z"/><path fill="#42385D" d="M280.53 523.393l.496.869-1.911 1.09-.496-.868z"/><path fill="#42385D" d="M279.302 524.775l1.073 2.147-.894.447-1.073-2.147z"/><path fill="#42385D" d="M281.63 525.617l.498.868-1.91 1.092-.497-.868z"/><path fill="#42385D" d="M282.067 525.627l.854.285-.317.949-.854-.285z"/><path fill="#42385D" d="M281.539 523.12l1.628 2.986-.878.479-1.628-2.985z"/><path fill="#42385D" d="M280.857 522.914l.414.91-3.004 1.367-.414-.91z"/><path fill="#42385D" d="M278.507 524.496l1.628 2.985-.878.479-1.628-2.985z"/><path fill="#42385D" d="M282.472 525.88l.414.91-3.003 1.367-.414-.91z"/><path fill="#42385D" d="M280.666 524.995l81.64 26.392-.308.952-81.64-26.392z"/><path fill="#42385D" d="M361.7 551.9h1v40.3h-1zm-3.6 25.4c.3.1.5.2.6.4.1.2.2.4.2.7 0 .1-.1.3-.2.5-.1.1-.3.1-.6 0L339 572l3.5 4.7c.2.2.2.4.2.6 0 .2-.1.4-.2.5-.2.1-.4.1-.6 0-.1 0-.3-.2-.6-.4l-4.9-6.6c-.2-.2-.2-.4-.2-.6 0-.2.1-.4.2-.5s.3-.1.6 0l21.1 7.6zm0-9.5c.3.1.5.2.6.4.1.2.2.4.2.7 0 .1-.1.3-.2.5-.1.1-.3.1-.6 0l-19.1-6.9 3.5 4.7c.2.2.2.4.2.6 0 .2-.1.4-.2.5-.2.1-.4.1-.6 0-.1 0-.3-.2-.6-.4l-4.9-6.6c-.2-.2-.2-.4-.2-.6 0-.2.1-.4.2-.5s.3-.1.6 0l21.1 7.6zm-245.6-40.3H216v1H112.5z"/><path fill="#42385D" d="M117.148 511.854l2.177 16.053-.99.134-2.178-16.052z"/><path fill="#42385D" d="M116.903 511.475l2.16 1.62-.6.8-2.16-1.62z"/><path fill="#42385D" d="M120.625 511.566l.6.8-2.161 1.62-.6-.801z"/><path fill="#42385D" d="M120.512 511.817l.99.134-2.181 16.053-.991-.135z"/><path fill="#42385D" d="M119 525.8h-1v-1.9h-.3v-2.2h-.2v-1.9h-.3v-1.9h-.3v-2.2h-.3v-1.9h-.2v-1.9h1v.3h.2v.2h.3v.3h.6v.3h.2v.3h.3z"/><path fill="#42385D" d="M119 525.8h-1v-1.9h-.3v-2.2h-.2v-1.9h-.3v-1.9h-.3v-2.2h-.3v-1.9h-.2v-1.9h1v.3h.2v.2h.3v.3h.6v.3h.2v.3h.3z"/><path fill="#42385D" d="M119.3 528h-1v-14.5h.3v-.2h.2v-.3h.3v-.3h.5v-.3h.3v-.2h.3v-.3h1v1.9h-.3v1.9h-.3v2.2h-.2v1.9h-.3v1.9h-.3v2.2h-.2v1.9h-.3z"/><path fill="#42385D" d="M119.3 528h-1v-14.5h.3v-.2h.2v-.3h.3v-.3h.5v-.3h.3v-.2h.3v-.3h1v1.9h-.3v1.9h-.3v2.2h-.2v1.9h-.3v1.9h-.3v2.2h-.2v1.9h-.3zm-.002-48.251l2.178 16.052-.991.135-2.177-16.053z"/><path fill="#42385D" d="M119.087 493.806l2.16 1.62-.6.8-2.16-1.62z"/><path fill="#42385D" d="M118.436 493.849l.6.8-2.162 1.619-.6-.8z"/><path fill="#42385D" d="M118.307 479.713l.991.135-2.182 16.052-.99-.134z"/><path fill="#42385D" d="M121.2 495.6h-1v-.3h-.3v-.3h-.5v-.3h-.3v-.2h-.3v-.3h-.5v-14.4h1v1.9h.3v1.9h.2v2.2h.3v1.9h.3v1.9h.2v2.1h.3v2h.3z"/><path fill="#42385D" d="M121.2 495.6h-1v-.3h-.3v-.3h-.5v-.3h-.3v-.2h-.3v-.3h-.5v-14.4h1v1.9h.3v1.9h.2v2.2h.3v1.9h.3v1.9h.2v2.1h.3v2h.3z"/><path fill="#42385D" d="M117.4 495.6h-1v-1.9h.2v-2h.3v-2.1h.3v-1.9h.3v-1.9h.2v-2.2h.3v-1.9h1v12.5h-.3v.3h-.2v.2h-.3v.3h-.6v.3h-.2z"/><path fill="#42385D" d="M117.4 495.6h-1v-1.9h.2v-2h.3v-2.1h.3v-1.9h.3v-1.9h.2v-2.2h.3v-1.9h1v12.5h-.3v.3h-.2v.2h-.3v.3h-.6v.3h-.2z"/><path fill="#42385D" d="M118.3 479.8h1V528h-1zm0-83.9h1v83.9h-1z"/><path fill="#42385D" d="M112.5 479.3H216v1H112.5zm-22.2-37.5c.3-.4.7-.7 1.2-.9.6-.1 1.2-.1 1.8.1l2.3.8c1 .3 1.8 1 2.4 1.9s1 1.8 1 2.8v2.9c0 .2-.1.3-.2.4-.1.1-.3.1-.4 0-.1 0-.2-.1-.3-.3-.1-.2-.2-.3-.2-.5v-2.9c0-.6-.2-1.3-.7-1.9-.4-.6-1-1-1.6-1.3l-2.3-.8c-.6-.2-1.2-.2-1.6.1-.4.3-.7.7-.7 1.4v.6c0 .2-.1.3-.2.4-.1.1-.3.1-.4 0-.1 0-.2-.1-.3-.3-.2-.2-.2-.3-.2-.5 0-.6-.2-1.3-.7-1.9-.4-.6-1-1-1.6-1.3l-1.1-.4c-.6-.2-1.2-.2-1.6.1s-.7.7-.7 1.4v2.3c0 .2-.1.3-.2.4-.1.1-.3.1-.4 0-.1 0-.2-.1-.4-.3-.1-.1-.2-.3-.2-.5v-2.3c0-1 .3-1.7 1-2.1s1.5-.5 2.4-.1l1.1.4.4.1.2.1.2.2c.2.1.4.3.7.5.5.4.9.9 1.3 1.4zm.2-24.4h1v20.4h-1zm-21.4 3.2l14.9 8.9c.1 0 .2.1.3.3l.1.4c0 .1 0 .3-.1.4-.1.1-.2.1-.4 0l-.1-.1-14.2-8.5v5.6l1.1.4c.2.1.3.2.4.3.1.1.1.3.1.5 0 .1 0 .2-.1.4-.1.1-.2.1-.4 0l-1.7-.6c-.4-.1-.6-.4-.6-.8v-6.9c0-.2 0-.3.1-.4.1-.1.2-.1.4 0l.2.1zm6.2-6.8l-6.3-2.3c-.1 0-.2-.1-.4-.3-.1-.2-.2-.3-.2-.5 0-.1 0-.2.1-.3.1-.1.2-.1.4 0l14.9 5.4c.2.1.3.2.4.3.1.1.1.3.1.5 0 .1 0 .2-.1.4-.1.1-.2.1-.4 0l-7.5-2.7v5.8l7.5 2.7c.2.1.3.2.4.3.1.1.1.3.1.5 0 .1 0 .2-.1.4-.1.1-.2.1-.4 0L69 418.4c-.1 0-.2-.1-.4-.3-.1-.2-.2-.3-.2-.5 0-.1 0-.2.1-.3.1-.1.2-.1.4 0l6.3 2.3v-5.8zm26.8 26.2c-1.6-.6-3.1-1.5-4.4-2.8-1.4-1.4-2.5-3-3.1-4.9v-.3c0-.2.1-.3.2-.3.1-.1.3-.1.4 0 .1 0 .2.1.3.2.1.1.2.2.2.4l.1.2.1.3.3.6c.2.4.4.7.6 1.1.4.6.9 1.3 1.6 1.9.5.4 1 .9 1.5 1.3.6.4 1.1.7 1.6.9v-3.4c0-1 .3-1.7 1-2.1.7-.4 1.5-.5 2.4-.1l2.3.8c1 .3 1.8 1 2.4 1.9s1 1.8 1 2.8v1.1c0 .9-.3 1.6-1 2-.7.5-1.5.5-2.4.2l-5.1-1.8zm.5-1l4.6 1.7c.6.2 1.2.2 1.6-.1.5-.3.7-.7.7-1.4v-1.1c0-.6-.2-1.3-.7-1.9s-1-1-1.6-1.3l-2.3-.8c-.6-.2-1.2-.2-1.6.1s-.7.7-.7 1.4v3.4zm8.1-11.8v3.4c0 .6-.2 1.1-.7 1.4-.5.3-1 .3-1.6.1l-6.9-2.5c-.6-.2-1.2-.6-1.6-1.3s-.7-1.2-.7-1.9v-4c0-.4.2-.5.6-.4l13.2 4.8c.6.2 1.2.6 1.6 1.2s.7 1.2.7 1.9v4c0 .1-.1.2-.2.4-.1.1-.3.1-.4 0-.1 0-.2-.1-.4-.3-.1-.1-.2-.3-.2-.5v-4c0-.3-.1-.6-.3-.9-.2-.3-.5-.5-.8-.6l-2.3-.8zm-1.2-.5l-9.2-3.3v3.4c0 .3.1.6.3.9.2.3.5.5.8.6l6.9 2.5c.3.1.6.1.8-.1s.3-.4.3-.7v-3.3zm-24.2-19.2v-1.4c0-.1.1-.2.2-.3.1-.1.3-.1.4 0 .1 0 .3.1.4.3.1.1.2.3.2.5v1.4l1.5-.2h.3c.1 0 .3.2.4.3.1.2.2.3.2.5s-.1.3-.3.4l-1.3.2 1.3 1.1c.2.2.3.4.3.6 0 .2-.1.3-.2.4-.1.1-.2.1-.4 0-.1 0-.2-.1-.3-.2l-1.5-1.3v1.4c0 .2-.1.3-.2.4-.1.1-.3.1-.4 0-.1 0-.2-.1-.4-.3-.1-.1-.2-.3-.2-.5v-1.4l-1.5.2h-.3c-.1 0-.3-.2-.4-.3-.1-.2-.2-.3-.2-.5s.1-.3.3-.4l1.3-.2-1.3-1.1c-.2-.2-.3-.4-.3-.6 0-.2.1-.3.2-.4.1-.1.2-.1.4 0 .1 0 .2.1.3.2l1.5 1.2zM43.9 635.8h191.4v1H43.9z"/><path fill="#42385D" d="M48.763 620.16l2.177 16.052-.99.134-2.178-16.052z"/><path fill="#42385D" d="M48.583 619.859l2.16 1.62-.6.8-2.16-1.62z"/><path fill="#42385D" d="M52.298 619.85l.6.8-2.162 1.618-.599-.8z"/><path fill="#42385D" d="M52.11 620.212l.99.135-2.182 16.052-.99-.134z"/><path fill="#42385D" d="M50.7 634.2h-1v-2h-.3v-2.1h-.3v-1.9h-.3v-1.9h-.2v-2.2h-.3v-1.9H48v-1.9h1v.2h.3v.3h.3v.3h.5v.3h.3v.2h.3z"/><path fill="#42385D" d="M50.7 634.2h-1v-2h-.3v-2.1h-.3v-1.9h-.3v-1.9h-.2v-2.2h-.3v-1.9H48v-1.9h1v.2h.3v.3h.3v.3h.5v.3h.3v.2h.3z"/><path fill="#42385D" d="M50.9 636.3h-1v-14.4h.3v-.3h.3v-.2h.3v-.3h.5v-.3h.3v-.3h.2v-.2h1v1.9h-.2v1.9h-.3v2.2H52v1.9h-.2v1.9h-.3v2.1h-.3v2h-.3z"/><path fill="#42385D" d="M50.9 636.3h-1v-14.4h.3v-.3h.3v-.2h.3v-.3h.5v-.3h.3v-.3h.2v-.2h1v1.9h-.2v1.9h-.3v2.2H52v1.9h-.2v1.9h-.3v2.1h-.3v2h-.3zm.02-48.223l2.177 16.053-.991.134-2.177-16.052z"/><path fill="#42385D" d="M50.774 602.212l2.16 1.62-.6.8-2.16-1.62z"/><path fill="#42385D" d="M50.109 602.132l.6.8-2.162 1.62-.6-.801z"/><path fill="#42385D" d="M49.905 588.108l.991.135-2.182 16.053-.991-.135z"/><path fill="#42385D" d="M52.8 603.9h-1v-.2h-.2v-.3H51v-.3h-.2v-.3h-.3v-.2h-.6v-14.5h1v1.9h.3v1.9h.3v2.2h.3v1.9h.2v1.9h.3v2.2h.3v1.9h.2z"/><path fill="#42385D" d="M52.8 603.9h-1v-.2h-.2v-.3H51v-.3h-.2v-.3h-.3v-.2h-.6v-14.5h1v1.9h.3v1.9h.3v2.2h.3v1.9h.2v1.9h.3v2.2h.3v1.9h.2z"/><path fill="#42385D" d="M49 603.9h-1V602h.3v-1.9h.3v-2.2h.2V596h.3v-1.9h.3v-2.2h.3V590h1v12.6h-.3v.2h-.3v.3h-.3v.3h-.5v.3H49z"/><path fill="#42385D" d="M49 603.9h-1V602h.3v-1.9h.3v-2.2h.2V596h.3v-1.9h.3v-2.2h.3V590h1v12.6h-.3v.2h-.3v.3h-.3v.3h-.5v.3H49z"/><path fill="#42385D" d="M49.9 588.1h1v48.2h-1zm0-83.6h1v83.6h-1z"/><path fill="#42385D" d="M43.9 587.6h191.4v1H43.9zm-22-37.2c.3-.4.7-.7 1.2-.9.6-.1 1.2-.1 1.8.1l2.3.8c1 .3 1.8 1 2.4 1.9.7.9 1 1.8 1 2.8v2.9c0 .2-.1.3-.2.4-.1.1-.3.1-.4 0-.1 0-.2-.1-.3-.3-.1-.2-.2-.3-.2-.5v-2.9c0-.6-.2-1.3-.7-1.9-.4-.6-1-1-1.6-1.3l-2.3-.8c-.6-.2-1.2-.2-1.6.1-.4.3-.7.7-.7 1.4v.6c0 .2-.1.3-.2.4-.1.1-.3.1-.4 0-.1 0-.2-.1-.3-.3-.2-.2-.2-.3-.2-.5 0-.6-.2-1.3-.7-1.9-.4-.6-1-1-1.6-1.3l-1.1-.4c-.6-.2-1.2-.2-1.6.1-.4.3-.7.7-.7 1.4v2.3c0 .2-.1.3-.2.4-.1.1-.3.1-.4 0-.1 0-.2-.1-.3-.3-.2-.1-.2-.3-.2-.5v-2.3c0-1 .3-1.7 1-2.1.7-.4 1.5-.5 2.4-.1l1.1.4.4.1.2.1.2.2c.2.1.4.3.7.5.4.3.8.8 1.2 1.4zm.3-24.6h1v20.4h-1zM.7 529.1l14.9 8.9c.1 0 .2.1.3.3l.1.4c0 .1 0 .3-.1.4-.1.1-.2.1-.4 0l-.1-.1-14.2-8.5v5.6l1.1.4c.2.1.3.2.4.3.1.1.1.3.1.5 0 .1 0 .2-.1.4-.1.1-.2.1-.4 0l-1.7-.6c-.4-.1-.6-.4-.6-.8v-6.9c0-.2 0-.3.1-.4.1-.1.2-.1.4 0l.2.1zm6.2-6.8L.6 520c-.1 0-.2-.1-.4-.3-.1-.2-.2-.3-.2-.5 0-.1 0-.2.1-.3.1-.1.2-.1.4 0l14.9 5.4c.2.1.3.2.4.3.1.1.1.3.1.5 0 .1 0 .2-.1.4-.1.1-.2.1-.4 0l-7.5-2.7v5.8l7.5 2.7c.2.1.3.2.4.3.1.1.1.3.1.5 0 .1 0 .2-.1.4-.1.1-.2.1-.4 0L.5 527.1c-.1 0-.2-.1-.4-.3-.1-.2-.2-.3-.2-.5 0-.1 0-.2.1-.3.1-.1.2-.1.4 0l6.3 2.3v-6zm26.8 26.2c-1.6-.6-3.1-1.5-4.4-2.8-1.4-1.4-2.5-3-3.1-4.9v-.3c0-.2.1-.3.2-.3.1-.1.3-.1.4 0 .1 0 .2.1.3.2.1.1.2.2.2.4l.1.2.1.3.3.6c.2.4.4.7.6 1.1.4.6.9 1.3 1.6 1.9.5.4 1 .9 1.5 1.3.6.4 1.1.7 1.6.9v-3.4c0-1 .3-1.7 1-2.1.7-.4 1.5-.5 2.4-.1l2.3.8c1 .3 1.8 1 2.4 1.9s1 1.8 1 2.8v1.1c0 .9-.3 1.6-1 2-.7.5-1.5.5-2.4.2l-5.1-1.8zm.5-.9l4.6 1.7c.6.2 1.2.2 1.6-.1.5-.3.7-.7.7-1.4v-1.1c0-.6-.2-1.3-.7-1.9-.4-.6-1-1-1.6-1.3l-2.3-.8c-.6-.2-1.2-.2-1.6.1s-.7.7-.7 1.4v3.4zm8-11.9v3.4c0 .6-.2 1.1-.7 1.4-.5.3-1 .3-1.6.1l-6.9-2.5c-.6-.2-1.2-.6-1.6-1.3s-.7-1.2-.7-1.9v-4c0-.4.2-.5.6-.4l13.2 4.8c.6.2 1.2.6 1.6 1.2s.7 1.2.7 1.9v4c0 .1-.1.2-.2.4-.1.1-.3.1-.4 0-.1 0-.2-.1-.4-.3-.1-.1-.2-.3-.2-.5v-4c0-.3-.1-.6-.3-.9-.2-.3-.5-.5-.8-.6l-2.3-.8zm-1.1-.4l-9.2-3.3v3.4c0 .3.1.6.3.9.2.3.5.5.8.6l6.9 2.5c.3.1.6.1.8-.1.2-.2.3-.4.3-.7v-3.3zm225.13 92.138l.537 1.073-.895.447-.536-1.073z"/><path fill="#42385D" d="M265.6 627.19l.447.894-1.073.537-.448-.895z"/><path fill="#42385D" d="M265.152 627.932l.537 1.074-.894.447-.537-1.073z"/><path fill="#42385D" d="M266.114 628.244l.448.894-1.074.537-.447-.895z"/><path fill="#42385D" d="M266.578 628.188l.537.269-.447.894-.537-.268z"/><path fill="#42385D" d="M266.595 626.929l.828 1.93-.92.394-.827-1.93z"/><path fill="#42385D" d="M265.967 626.611l.242.97-2.135.533-.242-.97z"/><path fill="#42385D" d="M264.41 627.483l.807 2.153-.937.351-.807-2.153z"/><path fill="#42385D" d="M266.745 628.512l.352.936-2.153.81-.352-.937z"/><path fill="#42385D" d="M267.099 628.575l.831.555-.555.832-.832-.555z"/><path fill="#42385D" d="M267.105 626.115l1.075 3.225-.949.316-1.074-3.225z"/><path fill="#42385D" d="M266.434 625.777l.317.949-3.226 1.075-.316-.949z"/><path fill="#42385D" d="M263.817 627.176l1.075 3.226-.949.316-1.075-3.226z"/><path fill="#42385D" d="M267.59 629.034l.317.949-3.226 1.075-.316-.949z"/><path fill="#42385D" d="M265.745 627.987l96.62 44.084-.415.91-96.62-44.084z"/><path fill="#42385D" d="M361.7 672.5h1v44.9h-1zm-2.8 26.4v9.7c0 .2-.1.4-.3.5-.2.1-.4.1-.6 0-.2-.1-.3-.1-.4-.3L344.2 695l-.6-.6-.6-.4c-.4-.3-.8-.5-1.2-.6-1.1-.4-2-.3-2.8.3-.3.3-.6.6-.8 1.1-.2.5-.3.9-.3 1.5 0 .7.2 1.5.6 2.3.4.8 1.1 1.6 2.1 2.3.2.1.3.3.4.4.1.1.1.3.1.5s-.1.4-.2.5-.3.1-.6 0l-.3-.2c-1.3-.9-2.3-2-2.9-3.2-.6-1.1-.9-2.2-.9-3.3 0-1.5.5-2.7 1.6-3.6 1.1-.9 2.4-1 4-.5.5.2 1 .5 1.6.8.5.3 1.1.8 1.7 1.5l12.2 12.5v-8.1c0-.2.1-.3.3-.5.2-.1.4-.1.5-.1.2.1.4.2.5.4.2.4.3.7.3.9zm-.8-10.5c.3.1.5.2.6.4.1.2.2.4.2.7 0 .1-.1.3-.2.5-.1.1-.3.1-.6 0l-19.1-7 3.5 4.7c.2.2.2.4.2.6 0 .2-.1.4-.2.5-.2.1-.4.1-.6 0-.1 0-.3-.2-.6-.4l-4.9-6.6c-.2-.2-.2-.4-.2-.6 0-.2.1-.4.2-.5s.3-.1.6 0l21.1 7.7zm-63.463-144.709l.695.72-8.193 7.925-.695-.718z"/><path fill="#42385D" d="M262.8 551.4h24v1h-24zm31.6-35.1h1v27.8h-1zm-32.1-60.8h1v16.1h-1z"/><path fill="#42385D" d="M262.8 455h24v1h-24zm-.5 80.9h1V552h-1zm32.1-72.2h1v27.5h-1z"/><path fill="#42385D" d="M287.187 455.177l8.202 8.203-.707.707-8.203-8.203zM281.4 491.2h1v25h-1z"/><path fill="#42385D" d="M281.9 515.8H295v1h-13.1zm0-25.1H295v1h-13.1zm-19.6-19.1h1v64.3h-1z"/><path fill="#42385D" d="M286.3 516.3h1V552h-1zm0-60.8h1v35.7h-1zm-51 15.6h27.5v1h-27.5zm0 64.3h27.5v1h-27.5zm-47.4-12h47.4v1h-47.4zm4.1 4.1h43.3v1H192zm-4.1-44.4h47.4v1h-47.4zm4.1-3.8h43.3v1H192z"/><path fill="#42385D" d="M191.5 479.8h1V528h-1zm-4.9 4.6h1v38.7h-1z"/><path fill="#42385D" d="M187.48 522.688l4.879 4.878-.707.708-4.88-4.88zm4.203-43.263l.686.727-4.87 4.602-.687-.727zm77.251-311.661l1.067.267-.242.97-1.067-.267z"/><path fill="#42385D" d="M268.332 168.014l.895.446-.535 1.074-.895-.447z"/><path fill="#42385D" d="M268.346 168.86l1.067.266-.242.97-1.068-.266z"/><path fill="#42385D" d="M269.414 168.319l.894.447-.536 1.073-.895-.447z"/><path fill="#42385D" d="M270.237 167.84l.447.894-.537.269-.447-.895z"/><path fill="#42385D" d="M268.76 167.06l1.93.828-.393.92-1.93-.829z"/><path fill="#42385D" d="M268.034 167.298l.936.352-.81 2.153-.935-.352z"/><path fill="#42385D" d="M267.91 169.13l1.93.828-.394.92-1.93-.828z"/><path fill="#42385D" d="M269.94 168.082l.937.351-.807 2.154-.937-.351z"/><path fill="#42385D" d="M271.112 167.57l.316.949-.854.284-.316-.949z"/><path fill="#42385D" d="M268.22 166.17l3.23 1.347-.385.923-3.23-1.347z"/><path fill="#42385D" d="M267.498 166.413l.948.316-1.075 3.226-.949-.316z"/><path fill="#42385D" d="M267.118 169.477l3.231 1.346-.384.923-3.231-1.346z"/><path fill="#42385D" d="M270.784 167.821l.949.316-1.076 3.226-.948-.316z"/><path fill="#42385D" d="M329.075 141.93l.407.913-60.129 26.722-.406-.914z"/><path fill="#42385D" d="M328.8 97.5h1v44.9h-1zm-3.7 30.1c.3.1.5.2.6.4.1.2.2.4.2.7 0 .1-.1.3-.2.5-.1.1-.3.1-.6 0l-19.1-6.9 3.5 4.7c.2.2.2.4.2.6 0 .2-.1.4-.2.5-.2.1-.4.1-.6 0-.1 0-.3-.2-.6-.4l-4.9-6.6c-.2-.2-.2-.4-.2-.6 0-.2.1-.4.2-.5.1-.1.3-.1.6 0l21.1 7.6zm-11.2-7.2c-2.2-.8-4.3-2.1-6.2-4-2-2-3.5-4.3-4.4-6.8l-.1-.4c0-.2.1-.4.3-.4.2-.1.4-.1.6 0 .2.1.3.1.4.2.1.1.2.3.3.5l.1.3.2.4.4.8c.2.5.5 1 .9 1.5.5.9 1.3 1.8 2.2 2.7.6.6 1.4 1.2 2.2 1.8.8.6 1.6 1 2.2 1.3v-4.8c0-1.4.5-2.3 1.4-2.9.9-.6 2.1-.7 3.4-.2l3.2 1.2c1.3.5 2.5 1.4 3.4 2.7.9 1.3 1.4 2.6 1.4 3.9v1.6c0 1.2-.5 2.2-1.4 2.8-.9.7-2.1.7-3.4.2l-7.1-2.4zm.7-1.3l6.5 2.4c.9.3 1.6.3 2.3-.2.6-.4 1-1.1 1-1.9v-1.6c0-.9-.3-1.8-.9-2.6-.6-.9-1.4-1.4-2.3-1.8l-3.2-1.2c-.9-.3-1.7-.3-2.3.1-.6.4-.9 1-.9 2v4.8zm-59.025 271.131l.555.832-.832.555-.555-.832z"/><path fill="#42385D" d="M254.895 390.11l.6.8-1.12.84-.6-.8z"/><path fill="#42385D" d="M254.406 390.9l.85.847-.707.708-.85-.848z"/><path fill="#42385D" d="M255.368 390.89l.707.707-.849.849-.707-.707z"/><path fill="#42385D" d="M255.9 390.784l.853.284-.316.95-.854-.285z"/><path fill="#42385D" d="M255.581 389.338l1.337 1.871-.813.581-1.337-1.87z"/><path fill="#42385D" d="M254.88 389.304l.642.768-1.612 1.346-.641-.768z"/><path fill="#42385D" d="M253.954 390.779l1.337 1.872-.814.58-1.336-1.87z"/><path fill="#42385D" d="M256.208 391.16l.64.767-1.611 1.346-.641-.768z"/><path fill="#42385D" d="M256.6 391h.8v1h-.8z"/><path fill="#42385D" d="M255.877 388.585l1.892 2.703-.82.574-1.892-2.704z"/><path fill="#42385D" d="M255.115 388.457l.625.781-2.733 2.187-.625-.781z"/><path fill="#42385D" d="M253.083 390.696l1.893 2.704-.82.573-1.892-2.703z"/><path fill="#42385D" d="M257.036 391.161l.625.781-2.734 2.187-.624-.781z"/><path fill="#42385D" d="M254.966 390.83l107.26 14.977-.138.99-107.26-14.977z"/><path fill="#42385D" d="M361.7 406.2h1v44.9h-1zm-3.6 30.1c.3.1.5.2.6.4.1.2.2.4.2.7 0 .1-.1.3-.2.5-.1.1-.3.1-.6 0L339 431l3.5 4.7c.2.2.2.4.2.6 0 .2-.1.4-.2.5-.2.1-.4.1-.6 0-.1 0-.3-.2-.6-.4l-4.9-6.6c-.2-.2-.2-.4-.2-.6 0-.2.1-.4.2-.5s.3-.1.6 0l21.1 7.6zm-4-15.9c1.3.5 2.5 1.4 3.4 2.7s1.4 2.6 1.4 3.9v1.6c0 1.2-.5 2.2-1.4 2.8-.9.7-2.1.7-3.4.2l-3.2-1.2c-.8-.3-1.6-.8-2.4-1.5-.8-.7-1.4-1.6-1.9-2.6-.5.4-1 .6-1.7.7-.6.1-1.4 0-2.1-.3l-1.7-.6c-1.2-.5-2.4-1.3-3.4-2.7-.5-.6-.8-1.3-1.1-1.9l-.2-.9-.1-.5v-.5c0-1.3.5-2.3 1.4-3 .5-.3 1-.5 1.6-.5l.9.1.5.1.5.2 1.6.6c.8.3 1.5.7 2.1 1.2.6.5 1.2 1.2 1.7 2 .4-.6.9-1 1.7-1.2.8-.2 1.7-.1 2.6.2l3.2 1.1zm-11.3-1.7l-1.6-.6c-.9-.3-1.7-.3-2.3.1-.6.4-.9 1-.9 1.9 0 .9.3 1.8.9 2.6.6.9 1.4 1.5 2.3 1.8l1.6.6c.9.3 1.7.3 2.3-.1.6-.4.9-1 .9-1.9 0-.9-.3-1.7-.9-2.6-.7-.8-1.4-1.4-2.3-1.8zm11.3 3.3l-3.2-1.2c-.9-.3-1.7-.3-2.3.1-.6.4-.9 1-.9 2v1.6c0 .9.3 1.8.9 2.6.6.9 1.4 1.5 2.3 1.8l3.2 1.2c.9.3 1.6.3 2.3-.2.6-.4 1-1.1 1-1.9v-1.6c0-.9-.3-1.8-.9-2.6-.8-.8-1.5-1.4-2.4-1.8zM145.406 185.1l1.908 16.087-.993.118-1.908-16.086z"/><path fill="#42385D" d="M145.224 184.782l1.898 1.626-.65.76-1.899-1.627z"/><path fill="#42385D" d="M148.7 184.726l.6.8-2.161 1.62-.6-.8z"/><path fill="#42385D" d="M148.5 185.104l.991.135-2.182 16.053-.99-.135z"/><path fill="#42385D" d="M147.1 198.8h-1v-2.2h-.3v-2.5h-.3V192h-.3v-2.5h-.2v-2.2h-.3v-2.1h1v.2h.3v.3h.2v.3h.3v.2h.3v.3h.3z"/><path fill="#42385D" d="M147.1 198.8h-1v-2.2h-.3v-2.5h-.3V192h-.3v-2.5h-.2v-2.2h-.3v-2.1h1v.2h.3v.3h.2v.3h.3v.2h.3v.3h.3z"/><path fill="#42385D" d="M147.3 201.2h-1v-14.4h.3v-.3h.3v-.3h.2v-.2h.6v-.3h.3v-.3h.2v-.2h1v1.9h-.2v1.9h-.3v2.1h-.3v1.9h-.3v2h-.2v2.1h-.3v1.9h-.3z"/><path fill="#42385D" d="M147.3 201.2h-1v-14.4h.3v-.3h.3v-.3h.2v-.2h.6v-.3h.3v-.3h.2v-.2h1v1.9h-.2v1.9h-.3v2.1h-.3v1.9h-.3v2h-.2v2.1h-.3v1.9h-.3zm-.015-40.347l2.177 16.052-.99.135-2.178-16.053z"/><path fill="#42385D" d="M147.152 175.004l2.16 1.62-.6.8-2.16-1.62z"/><path fill="#42385D" d="M146.53 174.998l.65.76-1.899 1.626-.65-.76z"/><path fill="#42385D" d="M146.362 160.895l.993.118-1.913 16.086-.993-.118z"/><path fill="#42385D" d="M149.2 176.7h-1v-.3h-.2v-.2h-.6v-.3h-.3v-.3h-.2v-.2h-.6v-14.5h1v1.9h.3v1.9h.3v2.2h.2v1.9h.3v1.9h.3v2.2h.3v1.9h.2z"/><path fill="#42385D" d="M149.2 176.7h-1v-.3h-.2v-.2h-.6v-.3h-.3v-.3h-.2v-.2h-.6v-14.5h1v1.9h.3v1.9h.3v2.2h.2v1.9h.3v1.9h.3v2.2h.3v1.9h.2z"/><path fill="#42385D" d="M145.7 176.7h-1v-2.2h.3v-2.1h.2v-2.5h.3v-2.2h.3v-2.4h.3v-2.2h1v12.3h-.3v.2h-.3v.3h-.3v.3h-.2v.2h-.3z"/><path fill="#42385D" d="M145.7 176.7h-1v-2.2h.3v-2.1h.2v-2.5h.3v-2.2h.3v-2.4h.3v-2.2h1v12.3h-.3v.2h-.3v.3h-.3v.3h-.2v.2h-.3z"/><path fill="#42385D" d="M146.3 160.9h1v40.3h-1zm-23-21.2c-.4.7-.9 1.1-1.7 1.3-.8.2-1.6.1-2.5-.2-1.2-.4-2.3-1.3-3.2-2.5-.9-1.2-1.4-2.5-1.4-3.8v-.7l-3.1-2.1c-.3-.2-.4-.4-.4-.7 0-.2 0-.3.1-.4.1-.1.2-.1.4 0l.2.1 3.1 2.1c.3-.6.9-1.1 1.7-1.4.4-.1.8-.1 1.3-.1s.9.1 1.2.3c1.2.5 2.3 1.3 3.2 2.5.9 1.2 1.4 2.5 1.4 3.7v.5c0 .1 0 .2-.1.3l3.1 2.1c.3.2.4.4.4.7 0 .1-.1.2-.2.4-.1.1-.2.1-.4 0l-.2-.1-2.9-2zm-1.1-.8l-6.5-4.4v.4c0 1 .3 1.9 1 2.8.3.4.7.8 1.1 1.2l.6.4.5.2.3.1c.7.2 1.3.3 1.8.2.4-.1.8-.4 1.2-.9zm-6.2-5.4l6.5 4.4v-.5c0-1-.3-1.9-1-2.8-.7-.9-1.5-1.6-2.4-1.9-.6-.2-1.2-.3-1.8-.1-.5.2-.9.5-1.3.9zm11.1-8.7v6.9c0 .1-.1.2-.2.3-.1.1-.3.1-.4 0-.1 0-.2-.1-.3-.2l-9.5-9.8-.4-.4-.4-.3c-.3-.2-.6-.3-.8-.4-.8-.3-1.4-.2-2 .2-.2.2-.4.4-.6.8-.1.3-.2.7-.2 1.1 0 .5.1 1.1.4 1.6.3.6.8 1.1 1.5 1.7l.3.3c0 .1.1.2.1.4s-.1.3-.2.4c-.1.1-.2.1-.4 0l-.2-.1c-.9-.7-1.6-1.4-2.1-2.3-.4-.8-.6-1.5-.6-2.3 0-1.1.4-1.9 1.1-2.5.8-.6 1.7-.7 2.8-.3.4.1.7.3 1.1.6.4.2.8.6 1.2 1l8.6 8.9v-5.8c0-.1.1-.2.2-.3.1-.1.3-.1.4 0 .1.1.3.1.4.3.2-.2.2 0 .2.2zm2-2.6c.2.1.3.2.3.4.1.1.1.2.1.3 0 .2-.1.3-.2.4-.1.1-.2.1-.4 0l-.2-.1-2.3-1.4c-.2-.1-.3-.2-.3-.3-.1-.1-.1-.2-.1-.4s.1-.3.2-.4c.1-.1.2-.1.4 0l.2.1 2.3 1.4zm-5.4-11.8c.9.3 1.8 1 2.4 1.9.7.9 1 1.9 1 2.8v2.9c0 .2-.1.3-.2.4-.1.1-.3.1-.4 0-.1 0-.2-.1-.3-.3-.1-.1-.2-.3-.2-.5v-2.9c0-.6-.2-1.3-.7-1.9-.4-.6-1-1-1.6-1.3l-2.3-.8c-.6-.2-1.2-.2-1.6.1-.4.3-.7.7-.7 1.4v2.9c0 .4-.2.5-.6.4l-6.9-2.5c-.4-.1-.6-.4-.6-.8v-5.7c0-.1.1-.2.2-.3.1-.1.3-.1.4 0 .1.1.3.1.4.3.1.1.2.3.2.5v5.2l5.8 2.1V112c0-.9.3-1.6 1-2.1s1.5-.5 2.4-.1l2.3.6zm-5.1-24.6h1v20.4h-1zm-15.2 6.7l-6.3-2.3c-.1 0-.2-.1-.4-.3-.1-.2-.2-.3-.2-.5 0-.1.1-.2.2-.3.1-.1.2-.1.4 0l14.9 5.4c.2.1.3.2.4.3.1.1.1.3.1.5 0 .1 0 .2-.1.4-.1.1-.2.1-.4 0l-7.5-2.7v5.8l7.5 2.7c.2.1.3.2.4.3.1.1.1.3.1.5 0 .1 0 .2-.1.4-.1.1-.2.1-.4 0l-14.9-5.4c-.1 0-.2-.1-.4-.3-.1-.2-.2-.3-.2-.5 0-.1.1-.2.2-.3.1-.1.2-.1.4 0l6.3 2.3v-6zm1.6-10.8c1.6.6 3.1 1.5 4.4 2.8 1.4 1.4 2.5 3 3.1 4.9v.3c0 .1-.1.2-.2.3-.1.1-.3.1-.4 0-.1 0-.2-.1-.3-.2s-.2-.2-.2-.4c-.1-.3-.2-.7-.4-1.1l-.3-.5-.1-.2-.2-.4c-.4-.6-.9-1.3-1.6-1.9-.5-.4-1-.9-1.6-1.3-.6-.4-1.1-.7-1.6-.9v3.4c0 1-.3 1.7-1 2.1-.7.4-1.5.5-2.4.1l-2.3-.8c-.9-.3-1.7-1-2.4-1.9s-1-1.9-1-2.8V82c0-.9.3-1.6 1-2.1.3-.2.7-.3 1.1-.4h.6l.4.1.4.1 5 2zm-.5 1L99.9 81c-.6-.2-1.2-.2-1.6.1-.4.3-.7.7-.7 1.4v1.1c0 .6.2 1.3.7 1.9.4.6 1 1 1.6 1.3l2.3.8c.6.2 1.2.2 1.6-.1.5-.3.7-.7.7-1.4v-3.4zm22.7 21.4v-1.7c0-.1.1-.2.2-.3.1-.1.3-.1.4 0 .1.1.3.1.4.3.1.1.2.3.2.5v1.7l9.8 3.6c.2.1.3.2.4.3.1.1.1.3.1.5 0 .1 0 .2-.1.4-.1.1-.2.1-.4 0l-9.8-3.6v.6c0 .2-.1.3-.2.4-.1.1-.3.1-.4 0-.1 0-.2-.1-.4-.3s-.2-.3-.2-.5v-.6l-2.3-.8c-.6-.2-1.2-.6-1.6-1.3-.5-.6-.7-1.2-.7-1.9v-.6c0-.1.1-.2.2-.3s.3-.1.4 0c.1 0 .3.1.4.3.1.1.2.3.2.5v.6c0 .3.1.6.3.9.2.3.5.5.8.6l2.3.7zm4-11.1c1.6.6 3.1 1.5 4.4 2.8 1.4 1.4 2.5 3 3.1 4.9v.3c0 .1-.1.2-.2.3-.1.1-.3.1-.4 0-.1 0-.2-.1-.3-.2-.1-.1-.2-.2-.2-.4-.1-.3-.2-.7-.4-1.1l-.3-.5-.1-.2-.2-.4c-.4-.6-.9-1.3-1.6-1.9-.5-.4-1-.9-1.6-1.3-.6-.4-1.1-.7-1.6-.9v3.4c0 1-.3 1.7-1 2.1-.7.4-1.5.5-2.4.1l-2.3-.8c-.9-.3-1.7-1-2.4-1.9s-1-1.9-1-2.8v-1.2c0-.9.3-1.6 1-2.1.3-.2.7-.3 1.1-.4h.6l.4.1.4.1 5 2zm-.5.9l-4.6-1.7c-.6-.2-1.2-.2-1.6.1-.4.3-.7.7-.7 1.4v1.1c0 .6.2 1.3.7 1.9.4.6 1 1 1.6 1.3l2.3.8c.6.2 1.2.2 1.6-.1.5-.3.7-.7.7-1.4v-3.4zM113.4 76v-1.4c0-.1.1-.2.2-.3.1-.1.3-.1.4 0 .1.1.3.1.4.3.1.1.2.3.2.5v1.4l1.5-.2h.3c.1.1.3.2.4.3.1.2.2.3.2.5s-.1.3-.3.4l-1.3.2 1.3 1.1c.2.2.3.4.3.6 0 .2-.1.3-.2.4-.1.1-.2.1-.4 0-.1 0-.2-.1-.3-.2l-1.5-1.3v1.4c0 .2-.1.3-.2.4-.1.1-.3.1-.4 0-.1 0-.2-.1-.3-.3-.2-.1-.2-.3-.2-.5v-1.4l-1.5.2h-.3c-.1-.1-.3-.2-.4-.3-.1-.2-.2-.3-.2-.5s.1-.3.3-.4l1.3-.2-1.3-1.1c-.2-.2-.3-.4-.3-.6 0-.2.1-.3.2-.4.1-.1.2-.1.4 0 .1 0 .2.1.3.2l1.4 1.2zm145.86 156.396l.833.555-.555.832-.832-.555z"/><path fill="#42385D" d="M258.587 232.501l.832.555-.555.832-.832-.555z"/><path fill="#42385D" d="M258.835 233.248l.85.849-.708.707-.849-.848z"/><path fill="#42385D" d="M259.415 233.148l.895.447-.536 1.074-.895-.447z"/><path fill="#42385D" d="M260.446 232.576l.316.948-.854.285-.316-.949z"/><path fill="#42385D" d="M259 231.526l1.91 1.091-.497.868-1.91-1.09z"/><path fill="#42385D" d="M258.338 231.706l.869.496-1.09 1.91-.87-.495z"/><path fill="#42385D" d="M257.891 233.504l1.872 1.337-.581.814-1.872-1.337z"/><path fill="#42385D" d="M260.214 232.802l.895.447-1.074 2.146-.894-.447z"/><path fill="#42385D" d="M260.6 232.6h.8v1h-.8z"/><path fill="#42385D" d="M258.766 230.731l3.037 1.933-.537.844-3.037-1.933z"/><path fill="#42385D" d="M257.957 230.94l.878.48-1.628 2.984-.878-.479z"/><path fill="#42385D" d="M257.039 233.743l2.985 1.628-.48.878-2.984-1.628z"/><path fill="#42385D" d="M261.027 232.744l.857.514-1.646 2.744-.858-.515z"/><path fill="#42385D" d="M329.142 216.468l.23.974-70.257 16.627-.23-.973z"/><path fill="#42385D" d="M328.8 173.7h1V217h-1zm-3.7 28.5c.3.1.5.2.6.4.1.2.2.4.2.7 0 .1-.1.3-.2.5-.1.1-.3.1-.6 0l-19.1-6.9 3.5 4.7c.2.2.2.4.2.6 0 .2-.1.4-.2.5-.2.1-.4.1-.6 0-.1 0-.3-.2-.6-.4l-4.9-6.6c-.2-.2-.2-.4-.2-.6 0-.2.1-.4.2-.5.1-.1.3-.1.6 0l21.1 7.6zM321 188c1.3.5 2.5 1.4 3.4 2.7s1.4 2.6 1.4 3.9v4.1c0 .2-.1.4-.2.5-.2.1-.4.1-.6 0-.1 0-.3-.2-.5-.4s-.3-.5-.3-.7V194c0-.9-.3-1.8-.9-2.6s-1.4-1.4-2.3-1.8l-3.2-1.2c-.9-.3-1.7-.3-2.3.1-.6.4-.9 1-.9 1.9v4.1c0 .5-.3.7-.8.5l-9.7-3.5c-.5-.2-.8-.6-.8-1.1v-8.1c0-.2.1-.3.3-.5.2-.1.4-.1.5-.1.2.1.4.2.5.4.2.2.3.4.3.7v7.3l8.1 2.9v-3.2c0-1.3.5-2.3 1.4-2.9.9-.6 2.1-.7 3.4-.2l3.2 1.3zM215.24 3.818l16.053 2.177-.134.99-16.053-2.176z"/><path fill="#42385D" d="M215.582 4l1.62 2.16-.8.6-1.62-2.16z"/><path fill="#42385D" d="M216.461 6.192l.76.65-1.626 1.9-.76-.651z"/><path fill="#42385D" d="M231.18 6.04l.116.993-16.088 1.899-.117-.993z"/><path fill="#42385D" d="M208.9 6h22.3v1h-22.3z"/><path fill="#42385D" d="M231.5 6.5h-15.2V6h-.3v-.3h-.2v-.3h-.3v-.5h-.3v-.3h-.3v-.2h2.7v.2h1.9v.3h2.2v.3h1.9v.2h1.9v.3h2.1V6h2v.3h1.9z"/><path fill="#42385D" d="M231.5 6.5h-15.2V6h-.3v-.3h-.2v-.3h-.3v-.5h-.3v-.3h-.3v-.2h2.7v.2h1.9v.3h2.2v.3h1.9v.2h1.9v.3h2.1V6h2v.3h1.9zm-13.7 1.7h-2.9v-.3h.3v-.3h.3v-.2h.3v-.3h.2v-.3h.3v-.3h13v.3h-2.2v.3h-2.4v.3h-2.2v.2H220v.3h-2.2z"/><path fill="#42385D" d="M217.8 8.2h-2.9v-.3h.3v-.3h.3v-.2h.3v-.3h.2v-.3h.3v-.3h13v.3h-2.2v.3h-2.4v.3h-2.2v.2H220v.3h-2.2zm45.621-2.142l16.29 1.9-.116.994-16.29-1.9z"/><path fill="#42385D" d="M278.431 6.196l1.627 1.898-.759.65-1.627-1.897z"/><path fill="#42385D" d="M279.312 4.086l.8.6-1.618 2.16-.8-.599z"/><path fill="#42385D" d="M279.633 3.812l.133.991-16.353 2.191-.133-.99z"/><path fill="#42385D" d="M263.4 6H286v1h-22.6z"/><path fill="#42385D" d="M279.9 8.2H277v-.3h-2.4v-.3h-2.2v-.2h-2.5v-.3h-2.1v-.3h-2.5v-.3h13.3v.3h.2v.3h.3v.3h.3v.2h.3v.3h.2z"/><path fill="#42385D" d="M279.9 8.2H277v-.3h-2.4v-.3h-2.2v-.2h-2.5v-.3h-2.1v-.3h-2.5v-.3h13.3v.3h.2v.3h.3v.3h.3v.2h.3v.3h.2zm-1.3-1.7h-15.5v-.2h1.9V6h2.2v-.3h1.9v-.3h2.2v-.2h1.9v-.3h2.2v-.3h1.9v-.2h2.6v.2h-.2v.3h-.3v.5h-.3v.3h-.3V6h-.2z"/><path fill="#42385D" d="M278.6 6.5h-15.5v-.2h1.9V6h2.2v-.3h1.9v-.3h2.2v-.2h1.9v-.3h2.2v-.3h1.9v-.2h2.6v.2h-.2v.3h-.3v.5h-.3v.3h-.3V6h-.2z"/><path fill="#42385D" d="M231.2 6h32.1v1h-32.1zm104.4 24.1c.7.4 1.1.9 1.3 1.7.2.8.1 1.6-.2 2.5-.4 1.2-1.3 2.3-2.5 3.2-1.2.9-2.5 1.4-3.8 1.4h-.7l-2.1 3.1c-.2.3-.4.4-.7.4-.2 0-.3-.1-.4-.2-.1-.1-.1-.2 0-.4l.1-.2 2.1-3.1c-.6-.3-1.1-.9-1.4-1.7-.1-.4-.1-.8-.1-1.3s.1-.9.3-1.2c.5-1.2 1.3-2.3 2.5-3.2 1.2-.9 2.5-1.4 3.7-1.4h.5c.1 0 .2 0 .3.1l2.1-3.1c.2-.3.4-.4.7-.4.1 0 .2 0 .4.2.1.1.1.2 0 .4l-.1.2-2 3zm-.7 1.1l-4.4 6.5h.4c1 0 1.9-.3 2.8-1 .4-.3.8-.7 1.2-1.1l.4-.6.2-.5.1-.3c.2-.7.3-1.3.2-1.8-.1-.5-.4-.9-.9-1.2zm-5.4 6.1l4.4-6.5h-.5c-1 0-1.9.3-2.8 1-.9.7-1.6 1.5-1.9 2.4-.2.6-.3 1.2-.1 1.8.1.6.4 1 .9 1.3zm-8.8-11.1h6.9c.1 0 .2.1.3.2.1.1.1.3 0 .4 0 .1-.1.2-.2.3l-9.8 9.5-.4.4-.3.4c-.2.3-.3.6-.4.8-.3.8-.2 1.4.2 2 .2.2.4.4.8.6.3.1.7.2 1.1.2.5 0 1.1-.1 1.6-.4.6-.3 1.1-.8 1.7-1.5l.3-.3c.1 0 .2-.1.4-.1s.3.1.4.2.1.2 0 .4l-.1.2c-.7.9-1.4 1.6-2.3 2.1-.8.4-1.5.6-2.3.6-1.1 0-1.9-.4-2.5-1.1-.6-.8-.7-1.7-.3-2.8.1-.4.3-.7.6-1.1.2-.4.6-.8 1-1.2l8.9-8.6h-5.8c-.1 0-.2-.1-.3-.2-.1-.1-.1-.3 0-.4.1-.1.1-.3.3-.4-.1-.1.1-.2.2-.2zm-26.6 7.6h20.4v1h-20.4zm6.7 16.2l-2.3 6.3c0 .1-.1.2-.3.4s-.3.2-.5.2c-.1 0-.2 0-.3-.1-.1-.1-.1-.2 0-.4l5.4-14.9c.1-.2.2-.3.3-.4.1-.1.3-.1.5-.1.1 0 .2 0 .4.1.1.1.1.2 0 .4l-2.7 7.5h5.8l2.7-7.5c.1-.2.2-.3.3-.4.1-.1.3-.1.5-.1.1 0 .2 0 .4.1.1.1.1.2 0 .4l-5.4 14.9c0 .1-.1.2-.3.4s-.3.2-.5.2c-.1 0-.2 0-.3-.1-.1-.1-.1-.2 0-.4l2.3-6.3h-6zm-10.7-1.7c.6-1.6 1.5-3.1 2.8-4.4 1.4-1.4 3-2.5 4.9-3.1h.3c.1 0 .2.1.3.2.1.1.1.3 0 .4 0 .1-.1.2-.2.3-.1.1-.2.2-.4.2-.3.1-.7.2-1.1.4l-.5.3-.2.1-.4.2c-.6.4-1.3.9-1.9 1.6-.5.5-.9 1-1.3 1.6-.4.6-.7 1.1-.9 1.6h3.4c1 0 1.7.3 2.1 1 .4.7.5 1.5.1 2.4l-.8 2.3c-.3.9-1 1.7-1.9 2.4-.9.7-1.9 1-2.8 1h-1.2c-.9 0-1.6-.3-2.1-1-.2-.3-.3-.7-.4-1.1v-.6l.1-.4.1-.4 2-5zm.9.5l-1.7 4.6c-.2.6-.2 1.2.1 1.6.3.4.7.7 1.4.7h1.1c.6 0 1.3-.2 1.9-.7.6-.4 1-1 1.3-1.6l.8-2.3c.2-.6.2-1.2-.1-1.6-.3-.5-.7-.7-1.4-.7H291zM146.346 416.499l.993.117-1.898 16.088-.993-.117z"/><path fill="#42385D" d="M146.546 430.925l.58.814-1.872 1.336-.58-.814z"/><path fill="#42385D" d="M147.058 430.893l2.205 1.378-.53.848-2.205-1.378z"/><path fill="#42385D" d="M147.36 416.515l2.178 16.053-.991.134-2.178-16.053z"/><path fill="#42385D" d="M146.3 416.6h1v22.6h-1z"/><path fill="#42385D" d="M145.7 432.4h-1v-2.2h.3V428h.2v-2.4h.3v-2.2h.3V421h.3v-2.2h1v12.5h-.3v.3h-.3v.2h-.5v.3h-.3z"/><path fill="#42385D" d="M145.7 432.4h-1v-2.2h.3V428h.2v-2.4h.3v-2.2h.3V421h.3v-2.2h1v12.5h-.3v.3h-.3v.2h-.5v.3h-.3z"/><path fill="#42385D" d="M149.2 432.4h-1v-.3h-.5v-.3h-.3v-.2h-.5v-.3h-.6v-14.7h1v1.9h.3v1.9h.3v2.2h.2v1.9h.3v1.9h.3v2.2h.3v1.9h.2z"/><path fill="#42385D" d="M149.2 432.4h-1v-.3h-.5v-.3h-.3v-.2h-.5v-.3h-.6v-14.7h1v1.9h.3v1.9h.3v2.2h.2v1.9h.3v1.9h.3v2.2h.3v1.9h.2zm-.69-64.092l.992.134-2.183 16.053-.99-.135z"/><path fill="#42385D" d="M148.654 368.03l.599.8-2.161 1.619-.6-.8z"/><path fill="#42385D" d="M145.227 368.002l1.898 1.628-.65.759-1.899-1.627z"/><path fill="#42385D" d="M145.464 368.347l1.909 16.087-.993.117-1.909-16.086z"/><path fill="#42385D" d="M146.3 362.1h1v22.3h-1z"/><path fill="#42385D" d="M147.3 384.5h-1V370h.3v-.2h.3v-.3h.2v-.3h.6v-.3h.3v-.2h.2v-.3h1v1.9h-.2v1.9h-.3v2.2h-.3v1.9h-.3v1.9h-.2v2.2h-.3v1.9h-.3z"/><path fill="#42385D" d="M147.3 384.5h-1V370h.3v-.2h.3v-.3h.2v-.3h.6v-.3h.3v-.2h.2v-.3h1v1.9h-.2v1.9h-.3v2.2h-.3v1.9h-.3v1.9h-.2v2.2h-.3v1.9h-.3z"/><path fill="#42385D" d="M147.1 382h-1v-2.2h-.3v-2.4h-.3v-2.2h-.3v-2.4h-.2v-2.2h-.3v-2.2h1v.3h.3v.2h.2v.3h.3v.3h.3v.3h.3z"/><path fill="#42385D" d="M147.1 382h-1v-2.2h-.3v-2.4h-.3v-2.2h-.3v-2.4h-.2v-2.2h-.3v-2.2h1v.3h.3v.2h.2v.3h.3v.3h.3v.3h.3zm-.8 2.5h1v32.1h-1zm-23-21.3c-.4.7-.9 1.1-1.7 1.3-.8.2-1.6.1-2.5-.2-1.2-.4-2.3-1.3-3.2-2.5-.9-1.2-1.4-2.5-1.4-3.8v-.7l-3.1-2.1c-.3-.2-.4-.4-.4-.7 0-.2 0-.3.1-.4.1-.1.2-.1.4 0l.2.1 3.1 2.1c.3-.6.9-1.1 1.7-1.4.4-.1.8-.1 1.3-.1s.9.1 1.2.3c1.2.5 2.3 1.3 3.2 2.5.9 1.2 1.4 2.5 1.4 3.7v.5c0 .1 0 .2-.1.3l3.1 2.1c.3.2.4.4.4.7 0 .1-.1.2-.2.4-.1.1-.2.1-.4 0l-.2-.1-2.9-2zm-1.1-.7l-6.5-4.4v.4c0 1 .3 1.9 1 2.8.3.4.7.8 1.1 1.2l.6.4.5.2.3.1c.7.2 1.3.3 1.8.2.4-.1.8-.4 1.2-.9zm-6.2-5.4l6.5 4.4v-.5c0-1-.3-1.9-1-2.8-.7-.9-1.5-1.6-2.4-1.9-.6-.2-1.2-.3-1.8-.1-.5.1-.9.4-1.3.9zm11.1-8.8v6.9c0 .1-.1.2-.2.3-.1.1-.3.1-.4 0-.1 0-.2-.1-.3-.2l-9.5-9.8-.4-.4-.4-.3c-.3-.2-.6-.3-.8-.4-.8-.3-1.4-.2-2 .2-.2.2-.4.4-.6.8-.1.3-.2.7-.2 1.1 0 .5.1 1.1.4 1.6.3.6.8 1.1 1.5 1.7l.3.3c0 .1.1.2.1.4s-.1.3-.2.4c-.1.1-.2.1-.4 0l-.2-.1c-.9-.7-1.6-1.4-2.1-2.3-.4-.8-.6-1.5-.6-2.3 0-1.1.4-1.9 1.1-2.5.8-.6 1.7-.7 2.8-.3.4.1.7.3 1.1.6.4.2.8.6 1.2 1l8.6 8.9v-5.8c0-.1.1-.2.2-.3.1-.1.3-.1.4 0 .1.1.3.1.4.3.2-.1.2.1.2.2zm-8.5-26.5h1v20.4h-1zm-15.2 6.6l-6.3-2.3c-.1 0-.2-.1-.4-.3-.1-.2-.2-.3-.2-.5 0-.1 0-.2.1-.3.1-.1.2-.1.4 0l14.9 5.4c.2.1.3.2.4.3.1.1.1.3.1.5 0 .1 0 .2-.1.4-.1.1-.2.1-.4 0l-7.5-2.7v5.8l7.5 2.7c.2.1.3.2.4.3.1.1.1.3.1.5 0 .1 0 .2-.1.4-.1.1-.2.1-.4 0L97.1 333c-.1 0-.2-.1-.4-.3-.1-.2-.2-.3-.2-.5 0-.1 0-.2.1-.3.1-.1.2-.1.4 0l6.3 2.3v-5.8zm1.6-10.7c1.6.6 3.1 1.5 4.4 2.8 1.4 1.4 2.5 3 3.1 4.9v.3c0 .1-.1.2-.2.3-.1.1-.3.1-.4 0-.1 0-.2-.1-.3-.2s-.2-.2-.2-.4c-.1-.3-.2-.7-.4-1.1l-.3-.5-.1-.2-.2-.4c-.4-.6-.9-1.3-1.6-1.9-.5-.4-1-.9-1.6-1.3-.6-.4-1.1-.7-1.6-.9v3.4c0 1-.3 1.7-1 2.1-.7.4-1.5.5-2.4.1l-2.3-.8c-.9-.3-1.7-1-2.4-1.9-.7-.9-1-1.9-1-2.8V318c0-.9.3-1.6 1-2.1.3-.2.7-.3 1.1-.4h.6l.4.1.4.1 5 2zm-.5.9l-4.6-1.7c-.6-.2-1.2-.2-1.6.1-.4.3-.7.7-.7 1.4v1.1c0 .6.2 1.3.7 1.9.4.6 1 1 1.6 1.3l2.3.8c.6.2 1.2.2 1.6-.1.5-.3.7-.7.7-1.4v-3.4zm22.7 19l-4-1.5c-.1 0-.2-.1-.4-.3s-.2-.3-.2-.5c0-.1 0-.3.1-.3.1-.1.2-.1.4 0l14.9 5.4c.4.1.6.4.6.8v4c0 .6-.2 1.1-.7 1.4-.5.3-1 .3-1.6.1l-6.9-2.5c-.6-.2-1.2-.7-1.6-1.3-.4-.6-.7-1.2-.7-1.9v-3.4zm1.2.4v3.4c0 .3.1.6.3.9.2.3.5.5.8.6l6.9 2.5c.3.1.6.1.8 0s.3-.4.3-.7v-3.4l-9.1-3.3zm2.8-10.2c1.6.6 3.1 1.5 4.4 2.8 1.4 1.4 2.5 3 3.1 4.9v.3c0 .1-.1.2-.2.3-.1.1-.3.1-.4 0-.1 0-.2-.1-.3-.2-.1-.1-.2-.2-.2-.4-.1-.3-.2-.7-.4-1.1l-.3-.5-.1-.2-.2-.4c-.4-.6-.9-1.3-1.6-1.9-.5-.4-1-.9-1.6-1.3-.6-.4-1.1-.7-1.6-.9v3.4c0 1-.3 1.7-1 2.1-.7.4-1.5.5-2.4.1l-2.3-.8c-.9-.3-1.7-1-2.4-1.9s-1-1.9-1-2.8v-1.2c0-.9.3-1.6 1-2.1.3-.2.7-.3 1.1-.4h.6l.4.1.4.1 5 2zm-.5 1l-4.6-1.7c-.6-.2-1.2-.2-1.6.1-.4.3-.7.7-.7 1.4v1.1c0 .6.2 1.3.7 1.9.4.6 1 1 1.6 1.3l2.3.8c.6.2 1.2.2 1.6-.1.5-.3.7-.7.7-1.4v-3.4zm-17.3-16.9v-1.4c0-.1.1-.2.2-.3.1-.1.3-.1.4 0 .1.1.3.1.4.3.1.1.2.3.2.5v1.4l1.5-.2h.3c.1.1.3.2.4.3.1.2.2.3.2.5s-.1.3-.3.4l-1.3.2 1.3 1.1c.2.2.3.4.3.6 0 .2-.1.3-.2.4-.1.1-.2.1-.4 0-.1 0-.2-.1-.3-.2l-1.5-1.3v1.4c0 .2-.1.3-.2.4-.1.1-.3.1-.4 0-.1 0-.2-.1-.3-.3-.2-.1-.2-.3-.2-.5v-1.4l-1.5.2h-.3c-.1-.1-.3-.2-.4-.3-.1-.2-.2-.3-.2-.5s.1-.3.3-.4l1.3-.2-1.3-1.1c-.2-.2-.3-.4-.3-.6 0-.2.1-.3.2-.4.1-.1.2-.1.4 0 .1 0 .2.1.3.2l1.4 1.2zm167.64 212.571l.536 1.074-.895.446-.536-1.073z"/><path fill="#42385D" d="M280.187 524.297l.555.832-.832.555-.555-.832z"/><path fill="#42385D" d="M280.12 525.045l.537 1.073-.894.448-.537-1.073z"/><path fill="#42385D" d="M280.754 525.439l.554.832-.832.555-.554-.833z"/><path fill="#42385D" d="M281.185 525.264l.854.284-.316.949-.854-.284z"/><path fill="#42385D" d="M281.17 523.644l1.075 2.147-.895.447-1.074-2.146z"/><path fill="#42385D" d="M280.53 523.394l.495.868-1.91 1.091-.496-.868z"/><path fill="#42385D" d="M279.302 524.775l1.073 2.147-.894.447-1.073-2.147z"/><path fill="#42385D" d="M281.63 525.617l.498.868-1.91 1.092-.497-.868z"/><path fill="#42385D" d="M282.067 525.627l.854.285-.317.949-.854-.285z"/><path fill="#42385D" d="M281.539 523.12l1.628 2.986-.878.479-1.628-2.985z"/><path fill="#42385D" d="M280.857 522.914l.414.91-3.004 1.367-.414-.91z"/><path fill="#42385D" d="M278.507 524.496l1.628 2.985-.878.479-1.628-2.985z"/><path fill="#42385D" d="M282.472 525.88l.414.91-3.003 1.367-.414-.91z"/><path fill="#42385D" d="M280.669 524.995l81.638 26.392-.307.951-81.639-26.392z"/><path fill="#42385D" d="M361.7 551.9h1v40.3h-1zm-3.6 25.4c.3.1.5.2.6.4.1.2.2.4.2.7 0 .1-.1.3-.2.5-.1.1-.3.1-.6 0L339 572l3.5 4.7c.2.2.2.4.2.6 0 .2-.1.4-.2.5-.2.1-.4.1-.6 0-.1 0-.3-.2-.6-.4l-4.9-6.6c-.2-.2-.2-.4-.2-.6 0-.2.1-.4.2-.5s.3-.1.6 0l21.1 7.6zm0-9.5c.3.1.5.2.6.4.1.2.2.4.2.7 0 .1-.1.3-.2.5-.1.1-.3.1-.6 0l-19.1-6.9 3.5 4.7c.2.2.2.4.2.6 0 .2-.1.4-.2.5-.2.1-.4.1-.6 0-.1 0-.3-.2-.6-.4l-4.9-6.6c-.2-.2-.2-.4-.2-.6 0-.2.1-.4.2-.5s.3-.1.6 0l21.1 7.6zm-240.953-55.945l2.178 16.052-.991.135-2.177-16.053z"/><path fill="#42385D" d="M116.903 511.476l2.16 1.62-.6.8-2.16-1.62z"/><path fill="#42385D" d="M120.625 511.567l.6.8-2.162 1.618-.599-.8z"/><path fill="#42385D" d="M120.512 511.817l.99.135-2.181 16.052-.991-.135z"/><path fill="#42385D" d="M119 525.8h-1v-1.9h-.3v-2.2h-.2v-1.9h-.3v-1.9h-.3v-2.2h-.3v-1.9h-.2v-1.9h1v.3h.2v.2h.3v.3h.6v.3h.2v.3h.3z"/><path fill="#42385D" d="M119 525.8h-1v-1.9h-.3v-2.2h-.2v-1.9h-.3v-1.9h-.3v-2.2h-.3v-1.9h-.2v-1.9h1v.3h.2v.2h.3v.3h.6v.3h.2v.3h.3z"/><path fill="#42385D" d="M119.3 528h-1v-14.5h.3v-.2h.2v-.3h.3v-.3h.5v-.3h.3v-.2h.3v-.3h1v1.9h-.3v1.9h-.3v2.2h-.2v1.9h-.3v1.9h-.3v2.2h-.2v1.9h-.3z"/><path fill="#42385D" d="M119.3 528h-1v-14.5h.3v-.2h.2v-.3h.3v-.3h.5v-.3h.3v-.2h.3v-.3h1v1.9h-.3v1.9h-.3v2.2h-.2v1.9h-.3v1.9h-.3v2.2h-.2v1.9h-.3zm-.005-48.26l2.177 16.052-.99.134-2.178-16.052z"/><path fill="#42385D" d="M119.098 493.755l2.16 1.62-.6.8-2.16-1.62z"/><path fill="#42385D" d="M118.436 493.85l.6.8-2.162 1.618-.6-.8z"/><path fill="#42385D" d="M118.308 479.713l.99.135-2.182 16.052-.99-.134z"/><path fill="#42385D" d="M121.2 495.6h-1v-.3h-.3v-.3h-.5v-.3h-.3v-.2h-.3v-.3h-.5v-14.4h1v1.9h.3v1.9h.2v2.2h.3v1.9h.3v1.9h.2v2.1h.3v2h.3z"/><path fill="#42385D" d="M121.2 495.6h-1v-.3h-.3v-.3h-.5v-.3h-.3v-.2h-.3v-.3h-.5v-14.4h1v1.9h.3v1.9h.2v2.2h.3v1.9h.3v1.9h.2v2.1h.3v2h.3z"/><path fill="#42385D" d="M117.4 495.6h-1v-1.9h.2v-2h.3v-2.1h.3v-1.9h.3v-1.9h.2v-2.2h.3v-1.9h1v12.5h-.3v.3h-.2v.2h-.3v.3h-.6v.3h-.2z"/><path fill="#42385D" d="M117.4 495.6h-1v-1.9h.2v-2h.3v-2.1h.3v-1.9h.3v-1.9h.2v-2.2h.3v-1.9h1v12.5h-.3v.3h-.2v.2h-.3v.3h-.6v.3h-.2z"/><path fill="#42385D" d="M118.3 479.8h1V528h-1zm-28-38c.3-.4.7-.7 1.2-.9.6-.1 1.2-.1 1.8.1l2.3.8c1 .3 1.8 1 2.4 1.9s1 1.8 1 2.8v2.9c0 .2-.1.3-.2.4-.1.1-.3.1-.4 0-.1 0-.2-.1-.3-.3-.1-.2-.2-.3-.2-.5v-2.9c0-.6-.2-1.3-.7-1.9-.4-.6-1-1-1.6-1.3l-2.3-.8c-.6-.2-1.2-.2-1.6.1-.4.3-.7.7-.7 1.4v.6c0 .2-.1.3-.2.4-.1.1-.3.1-.4 0-.1 0-.2-.1-.3-.3-.2-.2-.2-.3-.2-.5 0-.6-.2-1.3-.7-1.9-.4-.6-1-1-1.6-1.3l-1.1-.4c-.6-.2-1.2-.2-1.6.1s-.7.7-.7 1.4v2.3c0 .2-.1.3-.2.4-.1.1-.3.1-.4 0-.1 0-.2-.1-.4-.3-.1-.1-.2-.3-.2-.5v-2.3c0-1 .3-1.7 1-2.1s1.5-.5 2.4-.1l1.1.4.4.1.2.1.2.2c.2.1.4.3.7.5.5.4.9.9 1.3 1.4zm.2-24.4h1v20.4h-1zm-21.4 3.2l14.9 8.9c.1 0 .2.1.3.3l.1.4c0 .1 0 .3-.1.4-.1.1-.2.1-.4 0l-.1-.1-14.2-8.5v5.6l1.1.4c.2.1.3.2.4.3.1.1.1.3.1.5 0 .1 0 .2-.1.4-.1.1-.2.1-.4 0l-1.7-.6c-.4-.1-.6-.4-.6-.8v-6.9c0-.2 0-.3.1-.4.1-.1.2-.1.4 0l.2.1zm6.2-6.8l-6.3-2.3c-.1 0-.2-.1-.4-.3-.1-.2-.2-.3-.2-.5 0-.1 0-.2.1-.3.1-.1.2-.1.4 0l14.9 5.4c.2.1.3.2.4.3.1.1.1.3.1.5 0 .1 0 .2-.1.4-.1.1-.2.1-.4 0l-7.5-2.7v5.8l7.5 2.7c.2.1.3.2.4.3.1.1.1.3.1.5 0 .1 0 .2-.1.4-.1.1-.2.1-.4 0L69 418.4c-.1 0-.2-.1-.4-.3-.1-.2-.2-.3-.2-.5 0-.1 0-.2.1-.3.1-.1.2-.1.4 0l6.3 2.3v-5.8zm26.8 26.2c-1.6-.6-3.1-1.5-4.4-2.8-1.4-1.4-2.5-3-3.1-4.9v-.3c0-.2.1-.3.2-.3.1-.1.3-.1.4 0 .1 0 .2.1.3.2.1.1.2.2.2.4l.1.2.1.3.3.6c.2.4.4.7.6 1.1.4.6.9 1.3 1.6 1.9.5.4 1 .9 1.5 1.3.6.4 1.1.7 1.6.9v-3.4c0-1 .3-1.7 1-2.1.7-.4 1.5-.5 2.4-.1l2.3.8c1 .3 1.8 1 2.4 1.9.7.9 1 1.8 1 2.8v1.1c0 .9-.3 1.6-1 2-.7.5-1.5.5-2.4.2l-5.1-1.8zm.5-1l4.6 1.7c.6.2 1.2.2 1.6-.1.5-.3.7-.7.7-1.4v-1.1c0-.6-.2-1.3-.7-1.9s-1-1-1.6-1.3l-2.3-.8c-.6-.2-1.2-.2-1.6.1s-.7.7-.7 1.4v3.4zm8.1-11.8v3.4c0 .6-.2 1.1-.7 1.4-.5.3-1 .3-1.6.1l-6.9-2.5c-.6-.2-1.2-.6-1.6-1.3s-.7-1.2-.7-1.9v-4c0-.4.2-.5.6-.4l13.2 4.8c.6.2 1.2.6 1.6 1.2.5.6.7 1.2.7 1.9v4c0 .1-.1.2-.2.4-.1.1-.3.1-.4 0-.1 0-.2-.1-.4-.3-.1-.1-.2-.3-.2-.5v-4c0-.3-.1-.6-.3-.9-.2-.3-.5-.5-.8-.6l-2.3-.8zm-1.2-.5l-9.2-3.3v3.4c0 .3.1.6.3.9.2.3.5.5.8.6l6.9 2.5c.3.1.6.1.8-.1s.3-.4.3-.7v-3.3zm-24.2-19.2v-1.4c0-.1.1-.2.2-.3.1-.1.3-.1.4 0 .1 0 .3.1.4.3.1.1.2.3.2.5v1.4l1.5-.2h.3c.1 0 .3.2.4.3.1.2.2.3.2.5s-.1.3-.3.4l-1.3.2 1.3 1.1c.2.2.3.4.3.6 0 .2-.1.3-.2.4-.1.1-.2.1-.4 0-.1 0-.2-.1-.3-.2l-1.5-1.3v1.4c0 .2-.1.3-.2.4-.1.1-.3.1-.4 0-.1 0-.2-.1-.4-.3-.1-.1-.2-.3-.2-.5v-1.4l-1.5.2h-.3c-.1 0-.3-.2-.4-.3-.1-.2-.2-.3-.2-.5s.1-.3.3-.4l1.3-.2-1.3-1.1c-.2-.2-.3-.4-.3-.6 0-.2.1-.3.2-.4.1-.1.2-.1.4 0 .1 0 .2.1.3.2l1.5 1.2zM48.767 620.178l2.177 16.053-.99.134-2.178-16.052z"/><path fill="#42385D" d="M48.577 619.9l2.16 1.62-.6.8-2.16-1.62z"/><path fill="#42385D" d="M52.298 619.85l.6.8-2.162 1.618-.6-.8z"/><path fill="#42385D" d="M52.11 620.212l.99.135-2.182 16.052-.99-.134z"/><path fill="#42385D" d="M50.7 634.2h-1v-2h-.3v-2.1h-.3v-1.9h-.3v-1.9h-.2v-2.2h-.3v-1.9H48v-1.9h1v.2h.3v.3h.3v.3h.5v.3h.3v.2h.3z"/><path fill="#42385D" d="M50.7 634.2h-1v-2h-.3v-2.1h-.3v-1.9h-.3v-1.9h-.2v-2.2h-.3v-1.9H48v-1.9h1v.2h.3v.3h.3v.3h.5v.3h.3v.2h.3z"/><path fill="#42385D" d="M50.9 636.3h-1v-14.4h.3v-.3h.3v-.2h.3v-.3h.5v-.3h.3v-.3h.2v-.2h1v1.9h-.2v1.9h-.3v2.2H52v1.9h-.2v1.9h-.3v2.1h-.3v2h-.3z"/><path fill="#42385D" d="M50.9 636.3h-1v-14.4h.3v-.3h.3v-.2h.3v-.3h.5v-.3h.3v-.3h.2v-.2h1v1.9h-.2v1.9h-.3v2.2H52v1.9h-.2v1.9h-.3v2.1h-.3v2h-.3zm.02-48.222l2.176 16.052-.99.135-2.178-16.053z"/><path fill="#42385D" d="M50.774 602.213l2.16 1.62-.6.8-2.16-1.62z"/><path fill="#42385D" d="M50.109 602.132l.6.8-2.162 1.62-.6-.801z"/><path fill="#42385D" d="M49.905 588.108l.991.135-2.182 16.053-.991-.135z"/><path fill="#42385D" d="M52.8 603.9h-1v-.2h-.2v-.3H51v-.3h-.2v-.3h-.3v-.2h-.6v-14.5h1v1.9h.3v1.9h.3v2.2h.3v1.9h.2v1.9h.3v2.2h.3v1.9h.2z"/><path fill="#42385D" d="M52.8 603.9h-1v-.2h-.2v-.3H51v-.3h-.2v-.3h-.3v-.2h-.6v-14.5h1v1.9h.3v1.9h.3v2.2h.3v1.9h.2v1.9h.3v2.2h.3v1.9h.2z"/><path fill="#42385D" d="M49 603.9h-1V602h.3v-1.9h.3v-2.2h.2V596h.3v-1.9h.3v-2.2h.3V590h1v12.6h-.3v.2h-.3v.3h-.3v.3h-.5v.3H49z"/><path fill="#42385D" d="M49 603.9h-1V602h.3v-1.9h.3v-2.2h.2V596h.3v-1.9h.3v-2.2h.3V590h1v12.6h-.3v.2h-.3v.3h-.3v.3h-.5v.3H49z"/><path fill="#42385D" d="M49.9 588.1h1v48.2h-1zm-28-37.7c.3-.4.7-.7 1.2-.9s1.2-.1 1.8.1l2.3.8c1 .3 1.8 1 2.4 1.9.7.9 1 1.8 1 2.8v2.9c0 .2-.1.3-.2.4-.1.1-.3.1-.4 0-.1 0-.2-.1-.4-.3-.1-.1-.2-.3-.2-.5v-2.9c0-.6-.2-1.3-.7-1.9-.4-.6-1-1-1.6-1.3l-2.3-.8c-.6-.2-1.2-.2-1.6.1-.4.3-.7.7-.7 1.4v.6c0 .2-.1.3-.2.4-.1.1-.3.1-.4 0-.1 0-.2-.1-.4-.3s-.2-.3-.2-.5c0-.6-.2-1.3-.7-1.9-.4-.6-1-1-1.6-1.3l-1.1-.4c-.6-.2-1.2-.2-1.6.1-.4.3-.7.7-.7 1.4v2.3c0 .2-.1.3-.2.4-.1.1-.3.1-.4 0-.1 0-.2-.1-.4-.3-.1-.1-.2-.3-.2-.5v-2.3c0-1 .3-1.7 1-2.1s1.5-.5 2.4-.1l1.1.4.4.1.2.1.2.2c.2.1.4.3.7.5.7.3 1.1.8 1.5 1.4zm.3-24.6h1v20.4h-1zM.7 529.1l14.9 8.9c.1 0 .2.1.3.3l.1.4c0 .1 0 .3-.1.4-.1.1-.2.1-.4 0l-.1-.1-14.2-8.5v5.6l1.1.4c.2.1.3.2.4.3.1.1.1.3.1.5 0 .1 0 .2-.1.4-.1.1-.2.1-.4 0l-1.7-.6c-.4-.1-.6-.4-.6-.8v-6.9c0-.2 0-.3.1-.4.1-.1.2-.1.4 0l.2.1zm6.2-6.8L.6 520c-.1 0-.2-.1-.4-.3-.1-.2-.2-.3-.2-.5 0-.1 0-.2.1-.3.1-.1.2-.1.4 0l14.9 5.4c.2.1.3.2.4.3.1.1.1.3.1.5 0 .1 0 .2-.1.4-.1.1-.2.1-.4 0l-7.5-2.7v5.8l7.5 2.7c.2.1.3.2.4.3.1.1.1.3.1.5 0 .1 0 .2-.1.4-.1.1-.2.1-.4 0L.5 527.1c-.1 0-.2-.1-.4-.3-.1-.2-.2-.3-.2-.5 0-.1 0-.2.1-.3.1-.1.2-.1.4 0l6.3 2.3v-6zm26.8 26.2c-1.6-.6-3.1-1.5-4.4-2.8-1.4-1.4-2.5-3-3.1-4.9v-.3c0-.2.1-.3.2-.3.1-.1.3-.1.4 0 .1 0 .2.1.3.2.1.1.2.2.2.4l.1.2.1.3.3.6c.2.4.4.7.6 1.1.4.6.9 1.3 1.6 1.9.5.4 1 .9 1.5 1.3.6.4 1.1.7 1.6.9v-3.4c0-1 .3-1.7 1-2.1.7-.4 1.5-.5 2.4-.1l2.3.8c1 .3 1.8 1 2.4 1.9.7.9 1 1.8 1 2.8v1.1c0 .9-.3 1.6-1 2s-1.5.5-2.4.2l-5.1-1.8zm.5-.9l4.6 1.7c.6.2 1.2.2 1.6-.1s.7-.7.7-1.4v-1.1c0-.6-.2-1.3-.7-1.9-.4-.6-1-1-1.6-1.3l-2.3-.8c-.6-.2-1.2-.2-1.6.1-.4.3-.7.7-.7 1.4v3.4zm8-11.9v3.4c0 .6-.2 1.1-.7 1.4-.5.3-1 .3-1.6.1l-6.9-2.5c-.6-.2-1.2-.6-1.6-1.3-.5-.6-.7-1.2-.7-1.9v-4c0-.4.2-.5.6-.4l13.2 4.8c.6.2 1.2.6 1.6 1.2.5.6.7 1.2.7 1.9v4c0 .1-.1.2-.2.4-.1.1-.3.1-.4 0-.1 0-.2-.1-.4-.3-.1-.1-.2-.3-.2-.5v-4c0-.3-.1-.6-.3-.9-.2-.3-.5-.5-.8-.6l-2.3-.8zm-1.1-.4l-9.2-3.3v3.4c0 .3.1.6.3.9.2.3.5.5.8.6l6.9 2.5c.3.1.6.1.8-.1s.3-.4.3-.7v-3.3zM16.9 516v-1.4c0-.1.1-.2.2-.3.1-.1.3-.1.4 0 .1 0 .3.1.4.3.1.1.2.3.2.5v1.4l1.5-.2h.3c.1.1.3.2.4.3.1.2.2.3.2.5s-.1.3-.3.4l-1.3.2 1.3 1.1c.2.2.3.4.3.6 0 .2-.1.3-.2.4s-.2.1-.4 0c-.1 0-.2-.1-.3-.2l-1.5-1.3v1.4c0 .2-.1.3-.2.4-.1.1-.3.1-.4 0-.1 0-.2-.1-.4-.3-.1-.2-.2-.3-.2-.5v-1.4l-1.5.2h-.3c-.1 0-.3-.2-.4-.3-.1-.2-.2-.3-.2-.5s.1-.3.3-.4l1.3-.2-1.3-1.1c-.2-.2-.3-.4-.3-.6 0-.2.1-.3.2-.4.1-.1.2-.1.4 0 .1 0 .2.1.3.2l1.5 1.2zm249.306 111.418l.537 1.073-.895.447-.537-1.073z"/><path fill="#42385D" d="M265.6 627.19l.447.894-1.074.537-.447-.894z"/><path fill="#42385D" d="M265.152 627.932l.537 1.074-.894.447-.537-1.073z"/><path fill="#42385D" d="M266.114 628.244l.448.894-1.074.537-.447-.895z"/><path fill="#42385D" d="M266.578 628.188l.537.269-.447.894-.537-.268z"/><path fill="#42385D" d="M266.595 626.929l.828 1.93-.92.394-.827-1.93z"/><path fill="#42385D" d="M265.966 626.611l.242.97-2.134.533-.242-.97z"/><path fill="#42385D" d="M264.393 627.513l.808 2.154-.936.35-.808-2.153z"/><path fill="#42385D" d="M266.745 628.512l.352.936-2.153.81-.352-.937z"/><path fill="#42385D" d="M267.099 628.575l.831.555-.555.832-.832-.555z"/><path fill="#42385D" d="M267.105 626.115l1.075 3.225-.949.316-1.074-3.225z"/><path fill="#42385D" d="M266.434 625.777l.317.949-3.226 1.075-.316-.949z"/><path fill="#42385D" d="M263.817 627.176l1.075 3.226-.949.316-1.075-3.226z"/><path fill="#42385D" d="M267.59 629.034l.317.949-3.226 1.075-.316-.949z"/><path fill="#42385D" d="M265.744 627.987l96.621 44.084-.415.91-96.62-44.084z"/><path fill="#42385D" d="M361.7 672.5h1v44.9h-1zm-2.8 26.4v9.7c0 .2-.1.4-.3.5-.2.1-.4.1-.6 0-.2-.1-.3-.1-.4-.3L344.2 695l-.6-.6-.6-.4c-.4-.3-.8-.5-1.2-.6-1.1-.4-2-.3-2.8.3-.3.3-.6.6-.8 1.1-.2.5-.3.9-.3 1.5 0 .7.2 1.5.6 2.3.4.8 1.1 1.6 2.1 2.3.2.1.3.3.4.4.1.1.1.3.1.5s-.1.4-.2.5c-.1.1-.3.1-.6 0l-.3-.2c-1.3-.9-2.3-2-2.9-3.2-.6-1.1-.9-2.2-.9-3.3 0-1.5.5-2.7 1.6-3.6 1.1-.9 2.4-1 4-.5.5.2 1 .5 1.6.8.5.3 1.1.8 1.7 1.5l12.2 12.5v-8.1c0-.2.1-.3.3-.5.2-.1.4-.1.5-.1.2.1.4.2.5.4.2.4.3.7.3.9zm-.8-10.5c.3.1.5.2.6.4.1.2.2.4.2.7 0 .1-.1.3-.2.5-.1.1-.3.1-.6 0l-19.1-7 3.5 4.7c.2.2.2.4.2.6 0 .2-.1.4-.2.5-.2.1-.4.1-.6 0-.1 0-.3-.2-.6-.4l-4.9-6.6c-.2-.2-.2-.4-.2-.6 0-.2.1-.4.2-.5s.3-.1.6 0l21.1 7.7z"/></svg>