<svg xmlns="http://www.w3.org/2000/svg" viewBox="0 0 403.2 424.9"><text transform="matrix(.9397 0 -.342 .9397 164.268 419.562)" fill="#97CCCE" font-family="'GOSTTypeA'" font-size="20.57">Å</text><text transform="matrix(.9397 0 -.342 .9397 141.919 178.346)" fill="#97CCCE" font-family="'GOSTTypeA'" font-size="20.57">Í</text><path fill="none" stroke="#97CCCE" stroke-miterlimit="10" d="M260.5 348.3l9.4-2.5-9.4 2.5zm9.4-2.6l9.1-3.2-9.1 3.2zm9.1-3.2l8.9-3.7-8.9 3.7zm8.9-3.6l8.7-4.3-8.7 4.3zm8.8-4.3l8.3-4.9-8.3 4.9zm8.2-5l8-5.4-8 5.4zm8-5.4l7.8-5.9-7.8 5.9zm7.8-5.8l7.2-6.4-7.2 6.4zm7.1-6.4l6.8-7-6.8 7zm6.9-7l6.4-7.2-6.4 7.2zm6.3-7.2l5.7-7.8-5.7 7.8zm5.8-7.8l5.4-8.1-5.4 8.1zm5.4-8.1l4.8-8.3-4.8 8.3zm4.7-8.2l4.1-8.7-4.1 8.7zm4.2-8.8l3.7-8.9-3.7 8.9zm3.6-8.9l3-9.2-3 9.2zm3.1-9.2l2.1-8-2.1 8zM254.3 347.5l2.2.8-2.2-.8zm2.3.8l2.4.2-2.4-.2zm2.4.1l1.6-.2-1.6.2zm-59.5-.9l-2.4.8 2.4-.8zm-2.4.8l-2.4.2 2.4-.2zm-2.4.1l-1.4-.2 1.4.2zm10.3-1.7h-2.4 2.4zm-2.4 0l-2.4.5 2.4-.5zm-2.3.4l-.8.3.8-.3zm54 .4l-2.4-.6 2.4.6zm-2.3-.7l-2.4-.2 2.4.2zm-2.4-.1h-.8.8zm4.7.8l2.2.8-2.2-.8zm2.3.8l2.4.2-2.4-.2zm2.4.1l1.6-.2-1.6.2zm-59.5-.9l-2.4.8 2.4-.8zm-2.4.8l-2.4.2 2.4-.2zm-2.4.1l-1.4-.2 1.4.2zm10.3-1.7h-2.4 2.4zm-2.4 0l-2.4.5 2.4-.5zm-2.3.4l-.8.3.8-.3zm54 .4l-2.4-.6 2.4.6zm-2.3-.7l-2.4-.2 2.4.2zm-2.4-.1h-.8.8zm119.6-169l.8-2.2-.8 2.2zm.8-2.2l.2-2.4-.2 2.4zm.1-2.4l-.3-1.6.3 1.6zm-.9 59.5l.8 2.4-.8-2.4zm.8 2.4l.2 2.4-.2-2.4zm.1 2.4l-.3 1.4.3-1.4zm-1.7-10.3l-.2 2.4.2-2.4zm-.2 2.3l.6 2.4-.6-2.4zm.7 2.4l.3.8-.3-.8zm.3-54.1l-.8 2.4.8-2.4zm-.8 2.4l-.2 2.4.2-2.4zm-.2 2.4l.2.8-.2-.8zM199.5 62.9l-2.4-.8 2.4.8zm-2.4-.8l-2.4-.2 2.4.2zm-2.4-.2l-1.4.3 1.4-.3zm59.6 1l2.2-.8-2.2.8zm2.3-.8l2.4-.2-2.4.2zm2.4-.2l1.6.3-1.6-.3zm-10.2 1.8l2.4.2-2.4-.2zm2.4.2l2.4-.6-2.4.6zm2.3-.7l.8-.3-.8.3zm-54-.3l2.4.8-2.4-.8zm2.3.8l2.4.2-2.4-.2zm2.4.2l.8-.2-.8.2zM84.6 232.6l-.8 2.4.8-2.4zm-.8 2.4l-.2 2.4.2-2.4zm-.1 2.4l.2 1.4-.2-1.4zm.9-59.7l-.8-2.2.8 2.2zm-.8-2.2l-.2-2.4.2 2.4zm-.1-2.4l.2-1.6-.2 1.6zm1.7 10.2v-2.4 2.4zm0-2.4l-.5-2.4.5 2.4zm-.5-2.4l-.3-.8.3.8zm-.3 54.1l.6-2.4-.6 2.4zm.7-2.4l.2-2.4-.2 2.4zm.1-2.4v-.8.8zm-1.6 11l2.5 9.4-2.5-9.4zm2.6 9.4l3.2 9.1-3.2-9.1zm3.2 9.1l3.7 9.1-3.7-9.1zm3.6 9l4.3 8.6-4.3-8.6zm4.3 8.6l4.9 8.3-4.9-8.3zm4.9 8.3l5.4 8.1-5.4-8.1zm5.4 8.1l5.9 7.6-5.9-7.6zm5.9 7.6l6.4 7.2-6.4-7.2zm6.4 7.2l7 6.8-7-6.8zm7 6.8l7.2 6.4-7.2-6.4zm7.1 6.4l7.8 5.9-7.8-5.9zm7.8 5.9l8.1 5.2-8.1-5.2zm8.2 5.2l8.3 4.8-8.3-4.8zm8.2 4.8l8.7 4.3-8.7-4.3zm8.8 4.3l8.9 3.7-8.9-3.7zm8.9 3.7l9.2 3-9.2-3zm9.2 3l8 2.1-8-2.1zm8-283.9l-9.4 2.5 9.4-2.5zm-9.4 2.5l-9.1 3 9.1-3zm-9.1 3l-9.1 3.8 9.1-3.8zm-9.1 3.8l-8.6 4.3 8.6-4.3zm-8.5 4.3l-8.3 4.8 8.3-4.8zm-8.3 4.8l-8.1 5.4 8.1-5.4zm-8.1 5.4l-7.6 5.9 7.6-5.9zm-7.7 5.9l-7.2 6.5 7.2-6.5zm-7.1 6.5l-6.8 6.8 6.8-6.8zm-6.9 6.9l-6.4 7.3 6.4-7.3zm-6.3 7.3l-5.9 7.6 5.9-7.6zm-5.9 7.6l-5.2 8.1 5.2-8.1zm-5.3 8.1l-4.8 8.4 4.8-8.4zm-4.7 8.5l-4.3 8.7 4.3-8.7zm-4.3 8.7l-3.7 8.9 3.7-8.9zm-3.7 8.9l-3 9.2 3-9.2zm-3 9.2l-2.1 7.8 2.1-7.8zm283.9 7.8l-2.5-9.4 2.5 9.4zm-2.5-9.3l-3-9.1 3 9.1zm-3-9.1l-3.8-8.9 3.8 8.9zm-3.9-8.9l-4.3-8.7 4.3 8.7zm-4.3-8.8l-4.8-8.3 4.8 8.3zm-4.7-8.2l-5.4-8 5.4 8zm-5.4-8l-5.9-7.8 5.9 7.8zm-5.9-7.8l-6.5-7.2 6.5 7.2zm-6.5-7.1l-6.8-6.8 6.8 6.8zm-6.9-6.9l-7.3-6.4 7.3 6.4zm-7.3-6.3l-7.6-5.7 7.6 5.7zm-7.6-5.8l-8.1-5.4 8.1 5.4zm-8.2-5.4l-8.4-4.8 8.4 4.8zm-8.4-4.8l-8.7-4.1 8.7 4.1zm-8.7-4.1l-8.9-3.7 8.9 3.7zm-8.9-3.6l-9.2-3 9.2 3zm-9.3-3.1l-7.8-2.1 7.8 2.1zm-184.6 141l.3 9.5-.3-9.5zm.3 9.5l1 9.4-1-9.4zm.9 9.4l.5 2.9-.5-2.9zM370 205.3l-.3-9.5.3 9.5zm-.3-9.6l-1-9.5 1 9.5zm-1-9.5l-.3-2.9.3 2.9zM53.4 207.5v-5.6 5.6zm0-5.6l.3-8.3-.3 8.3zm.4-8.3l1-11.1-1 11.1zm.9-11.1l1.6-11.9-1.6 11.9zm1.6-11.9l2.1-12.1-2.1 12.1zm2.1-12.1l2.9-11.9-2.9 11.9zm2.8-11.9l3.3-11.1-3.3 11.1zm3.4-11.2l3.7-10.2-3.7 10.2zm3.6-10.1l4-9.1-4 9.1zm4-9.1l4.1-8.3-4.1 8.3zm4.1-8.3l4.3-7.2-4.3 7.2zm4.3-7.1l3.2-4.6-3.2 4.6zm3.2-4.7l4.6-5.9-4.6 5.9zm4.6-5.8l5.2-5.9-5.2 5.9zm5.3-5.9l6.2-5.9-6.2 5.9zm6.2-5.9l7-5.9-7 5.9zm7-5.9l7.8-5.7-7.8 5.7zm7.8-5.7l8.7-5.9-8.7 5.9zm8.7-5.9l9.5-5.6-9.5 5.6zm9.6-5.6l10.3-5.4-10.3 5.4zm10.3-5.4l10.8-4.9-10.8 4.9zm10.8-4.9l11.3-4.3-11.3 4.3zm11.3-4.3l11.1-3.8-11.1 3.8zm11.2-3.8l10.7-2.9-10.7 2.9zm10.6-2.9l10.2-2.2-10.2 2.2zm10.2-2.2l9.4-1.4-9.4 1.4zm9.4-1.4l8.7-.8-8.7.8zm8.7-.8l8.1-.2-8.1.2zm8.1-.2h3.3-3.3zm3.4 0l7.3.6-7.3-.6zm7.3.6l8 1.1-8-1.1zm8 1.1l8.3 1.9-8.3-1.9zm8.2 2l8.7 2.4-8.7-2.4zm8.8 2.3l9.4 3.2-9.4-3.2zm9.4 3.2l9.7 4-9.7-4zm9.7 4l10.2 4.8-10.2-4.8zm10.1 4.8l10.5 5.7-10.5-5.7zm10.5 5.7l10.7 6.4-10.7-6.4zm10.7 6.4l10.5 7-10.5-7zm10.5 7l9.9 7.3-9.9-7.3zm9.9 7.3l9.2 7.6-9.2-7.6zm9.2 7.6l8.3 7.6-8.3-7.6zm8.2 7.6l7.2 7.3-7.2-7.3zm7.2 7.4l6.4 7.2-6.4-7.2zm6.4 7.1l5.2 7-5.2-7zm5.2 7l3.8 5.6-3.8-5.6zm3.8 5.6l4 6.7-4-6.7zm4 6.7l3.8 7.6-3.8-7.6zm3.8 7.6l3.8 8.4-3.8-8.4zm3.8 8.4l3.5 9.4-3.5-9.4zm3.5 9.4l3.2 10.2-3.2-10.2zm3.2 10.2l3 11.1-3-11.1zm3.1 11.1l2.5 11.8-2.5-11.8zm2.5 11.8l1.9 12.2-1.9-12.2zm1.9 12.2l1.4 12.6-1.4-12.6zm1.4 12.6l.6 12.2-.6-12.2zm.7 12.3l.2 11.8-.2-11.8zm.1 11.7l-.6 11 .6-11zm-.6 11l-1.1 10.2 1.1-10.2zm-1.1 10.2l-1.4 9.2 1.4-9.2zm-1.4 9.2l-2.1 8.6 2.1-8.6zm-2.1 8.6l-2.4 7.8 2.4-7.8zm-2.4 7.8l-2.7 6.8 2.7-6.8zm-2.7 6.8l-.2.2.2-.2zm-.2.2l-2.9 6 2.9-6zm-2.8 6l-3.8 6.8 3.8-6.8zm-3.8 6.9l-4.8 7 4.8-7zm-4.8 7l-5.4 7.2 5.4-7.2zm-5.4 7.1l-6.4 7.6 6.4-7.6zm-6.4 7.7l-7.3 7.8 7.3-7.8zm-7.3 7.8l-8.3 7.8 8.3-7.8zm-8.3 7.8l-9.1 8 9.1-8zm-9 7.9l-9.9 7.6 9.9-7.6zm-9.9 7.6l-10 7.2 10-7.2zm-10 7.2l-9.9 6.2 9.9-6.2zm-9.9 6.2l-9.7 5.2 9.7-5.2zm-9.7 5.3l-8.9 4.5 8.9-4.5zm-8.9 4.4l-8.4 3.5 8.4-3.5zm-8.4 3.5l-8 2.7 8-2.7zm-8 2.7l-6.4 1.7 6.4-1.7zm-6.3 1.8l-5.1 1 5.1-1zm-5.1.9l-5.9.6 5.9-.6zm-5.9.7h-6.4 6.4zm-6.4 0l-7-.5 7 .5zm-7-.5l-7.6-1 7.6 1zm-7.6-1l-8.4-1.6 8.4 1.6zm-8.4-1.6l-9.4-2.2 9.4 2.2zm-9.4-2.2l-10.3-3 10.3 3zm-10.4-3l-11.6-3.8 11.6 3.8zm-11.6-3.8l-13.4-4.9 13.4 4.9zm-13.3-5l-15.4-6.4 15.4 6.4zm-15.5-6.3l-16.1-7.2 16.1 7.2zm-16-7.2l-13.4-6.4 13.4 6.4zm-13.4-6.3l-10.7-5.2 10.7 5.2zm-10.7-5.3l-8.7-4.6 8.7 4.6zm-8.7-4.6l-7.3-4 7.3 4zm-7.3-4l-6.4-3.3 6.4 3.3zm-6.4-3.3l-5.2-2.9 5.2 2.9zm-5.2-2.9l-4.5-2.5 4.5 2.5zm-4.5-2.5l-3.7-2.2 3.7 2.2zm-3.6-2.3l-3-1.6 3 1.6zm-3.1-1.6l-2.2-1.4 2.2 1.4zm-2.2-1.4l-1.7-1 1.7 1zm-1.7-.9l-1-.6 1 .6zm-1-.7l-.5-.3.5.3zm-.5-.3h-.2.2zm-.1 0v-.3.3zm0-.3l-.5-1 .5 1zm-.5-1l-.6-1.4.6 1.4zm-.6-1.4l-.8-2.1.8 2.1zm-.8-2.1l-1.1-2.9 1.1 2.9zm-1.2-2.8l-1.4-3.5 1.4 3.5zm-1.4-3.5l-1.6-4.3 1.6 4.3zm-1.6-4.3l-1.9-5.2 1.9 5.2zm-1.9-5.3l-2.2-6.2 2.2 6.2zm-2.2-6.2l-2.7-7.3 2.7 7.3zm-2.7-7.3l-3-9.1 3 9.1zm-3-9.1l-3.7-11.3 3.7 11.3zm-3.7-11.2L60 246.5l4.1 14.8zM60 246.5l-3.2-13 3.2 13zm-3.2-13.1L55 224l1.8 9.4zM55 224l-1.1-7.5L55 224zm-1.1-7.4l-.5-6.4.5 6.4zm-.5-6.4v-2.7 2.7zm32-26.9l-1.1 9.5 1.1-9.5zm-1.1 9.6l-.6 9.5.6-9.5zm-.6 9.5v2.9-2.9zM248.8 63.7l-9.5-1.1 9.5 1.1zm-9.6-1.1l-9.5-.5 9.5.5zm-9.5-.5l-9.5.2 9.5-.2zm-9.6.2l-9.5.6 9.5-.6zm-9.5.6l-5.6.8 5.6-.8zm157.8 164.2l1.1-9.4-1.1 9.4zm1.1-9.4l.5-9.5-.5 9.5zm.5-9.6v-2.9 2.9zM205 346.7l9.4 1.1-9.4-1.1zm9.4 1.1l9.5.6-9.5-.6zm9.6.6l9.5-.2-9.5.2zm9.5-.1l9.5-.8-9.5.8zm9.5-.8l5.7-.8-5.7.8zm127-142.2l-.3-9.5.3 9.5zm-.3-9.6l-1-9.5 1 9.5zm-1-9.5l-1.6-9.4 1.6 9.4zm-1.6-9.4l-2.2-9.2 2.2 9.2zm-2.2-9.2l-2.7-9.2 2.7 9.2zm-2.7-9.3l-3.5-8.9 3.5 8.9zm-3.5-8.9l-4-8.6 4 8.6zm-4-8.6l-4.6-8.4 4.6 8.4zm-4.6-8.4l-5.1-8.1 5.1 8.1zm-5.1-8.1l-5.6-7.6 5.6 7.6zm-5.6-7.6l-6.2-7.3 6.2 7.3zm-6.2-7.4l-6.7-6.8 6.7 6.8zm-6.6-6.8l-7-6.4 7 6.4zm-7-6.4l-7.5-6 7.5 6zm-7.5-6l-7.8-5.4 7.8 5.4zm-7.8-5.4l-8.3-4.8 8.3 4.8zm-8.3-4.8l-8.4-4.5 8.4 4.5zm-8.4-4.4l-8.9-3.7 8.9 3.7zm-8.9-3.7l-8.9-3.2 8.9 3.2zm-8.9-3.2l-9.2-2.5 9.2 2.5zm-9.3-2.5l-9.4-1.9 9.4 1.9zm-9.3-1.9l-9.4-1.3 9.4 1.3zm-9.4-1.3l-9.5-.8 9.5.8zm-9.6-.8h-9.5 9.5zm-9.5 0l-9.5.6 9.5-.6zm-9.6.6l-9.4 1.3 9.4-1.3zm-9.3 1.3l-9.4 1.7 9.4-1.7zm-9.4 1.8l-9.2 2.5 9.2-2.5zm-9.3 2.5l-9.1 3 9.1-3zm-9 3l-8.7 3.7 8.7-3.7zm-8.8 3.7l-8.6 4.3 8.6-4.3zm-8.6 4.3l-8.3 4.8 8.3-4.8zm-8.2 4.8l-7.8 5.4 7.8-5.4zm-7.8 5.4l-7.6 5.9 7.6-5.9zm-7.7 5.8l-7 6.4 7-6.4zm-7 6.4l-6.7 6.8 6.7-6.8zm-6.6 6.9l-6.2 7.2 6.2-7.2zm-6.2 7.1l-5.7 7.6 5.7-7.6zm-5.8 7.6l-5.2 8.1 5.2-8.1zm-5.2 8.2l-4.6 8.3 4.6-8.3zm-4.6 8.2l-4.1 8.6 4.1-8.6zm-4.2 8.6l-3.5 8.9 3.5-8.9zm-3.5 8.9l-2.9 9.1 2.9-9.1zm-2.8 9.1l-2.2 9.4 2.2-9.4zm-2.3 9.4l-1.7 9.4 1.7-9.4zm-1.7 9.4l-1 9.4 1-9.4zm-1 9.3l-.5 9.5.5-9.5zm-.4 9.6l.3 9.5-.3-9.5zm.3 9.5l.8 9.5-.8-9.5zm.8 9.6l1.6 9.4-1.6-9.4zm1.6 9.4l2.1 9.4-2.1-9.4zm2 9.3l2.7 9.1-2.7-9.1zm2.7 9.1l3.5 8.9-3.5-8.9zm3.5 8.9l3.8 8.7-3.8-8.7zm3.9 8.8l4.6 8.4-4.6-8.4zm4.6 8.4l4.9 8.1-4.9-8.1zm4.9 8.1l5.7 7.6-5.7-7.6zm5.7 7.6l6 7.5-6-7.5zm6.1 7.5l6.5 6.8-6.5-6.8zm6.5 6.9l7 6.5-7-6.5zm7 6.5l7.5 6-7.5-6zm7.5 6l7.8 5.4-7.8-5.4zm7.8 5.4l8.1 4.9-8.1-4.9zm8.1 5l8.4 4.5-8.4-4.5zm8.4 4.4l8.7 3.8-8.7-3.8zm8.8 3.8l9.1 3.2-9.1-3.2zm9 3.2l9.2 2.7-9.2-2.7zm9.2 2.7l9.2 1.9-9.2-1.9zm9.3 1.9l9.5 1.4-9.5-1.4zm9.5 1.5l9.4.8-9.4-.8zm9.4.8h9.5-9.5zm9.5 0l9.5-.5-9.5.5zm9.6-.5l9.5-1.1-9.5 1.1zm9.5-1.1l9.4-1.7-9.4 1.7zm9.4-1.8l9.2-2.4-9.2 2.4zm9.2-2.4l9.1-3-9.1 3zm9.1-3l8.7-3.7-8.7 3.7zm8.8-3.6l8.6-4.1-8.6 4.1zm8.5-4.2l8.3-4.8-8.3 4.8zm8.3-4.8l8-5.2-8 5.2zm8-5.2l7.6-5.9-7.6 5.9zm7.6-5.9l7.2-6.4-7.2 6.4zm7.2-6.4l6.7-6.7-6.7 6.7zm6.6-6.6l6.2-7.2-6.2 7.2zm6.2-7.2l5.9-7.6-5.9 7.6zm5.9-7.6l5.2-8-5.2 8zm5.3-8l4.6-8.3-4.6 8.3zm4.6-8.3l4.1-8.6-4.1 8.6zm4.1-8.5l3.7-8.9-3.7 8.9zm3.7-8.9l3-9.1-3 9.1zm3-9.1l2.2-9.2-2.2 9.2zm2.2-9.2l1.7-9.4-1.7 9.4zm1.8-9.4l1.1-9.5-1.1 9.5zm1.1-9.6l.5-9.5-.5 9.5zm.5-9.5v-2.2 2.2z"/><text transform="matrix(.9397 0 -.342 .9397 189.53 16.276)" fill="#97CCCE" font-family="'GOSTTypeA'" font-size="20.57">Ä</text><text transform="matrix(.9397 0 -.342 .9397 198.925 16.276)" fill="#97CCCE" font-family="'GOSTTypeA'" font-size="20.57">-</text><text transform="matrix(.9397 0 -.342 .9397 206.232 16.276)" fill="#97CCCE" font-family="'GOSTTypeA'" font-size="20.57">Ä</text><text transform="matrix(.9397 0 -.342 .9397 215.627 16.276)" fill="#97CCCE" font-family="'GOSTTypeA'" font-size="20.57">(</text><text transform="matrix(.9397 0 -.342 .9397 219.454 16.276)" fill="#97CCCE" font-family="'GOSTTypeA'" font-size="20.57">2</text><text transform="matrix(.9397 0 -.342 .9397 227.804 16.276)" fill="#97CCCE" font-family="'GOSTTypeA'" font-size="20.57">0</text><text transform="matrix(.9397 0 -.342 .9397 236.155 16.276)" fill="#97CCCE" font-family="'GOSTTypeA'" font-size="20.57">:</text><text transform="matrix(.9397 0 -.342 .9397 238.94 16.276)" fill="#97CCCE" font-family="'GOSTTypeA'" font-size="20.57">1</text><text transform="matrix(.9397 0 -.342 .9397 244.506 16.276)" fill="#97CCCE" font-family="'GOSTTypeA'" font-size="20.57">)</text><path fill="none" stroke="#97CCCE" stroke-miterlimit="10" d="M315.1 322.6l-1.9-5.2 1.9 5.2zm-1.9-5.2l.8.3-.8-.3zm.8.3l.6-.6-.6.6zm.6-.6l.5 5.6-.5-5.6zm.3 5.1h.2-.2zm0-.2h.2m-.3-.3h.2m-.2-.2h.2m-.2-.1h.2m-.4-.2h.2m-.2-.1h.2m-.3-.2h.3m-.3-.2h.3m-.3-.1h.3m-.5-.2h.3m-.3-.1h.3m-.3-.2h.3m-.5-.2h.5m-.5-.1h.3m-.3-.2h.3m-.4-.1h.5m-.5-.2h.5m-.7-.2h.6m-.6-.1h.5m-.5-.2h.5m-.6-.1h.6m-.6-.2h.6m-.6-.1h.5m-.7-.2h.6m-.6-.2h.6m-.6-.1h.6m-.7-.2h.6m-.6-.1h.3m1.2 4.6h.2-.2zm0-.2h.2m-.3-.3h.2m-.2-.2h.2m-.2-.1h.2m-.4-.2h.2m-.2-.1h.2m-.3-.2h.3m-.3-.2h.3m-.3-.1h.3m-.5-.2h.3m-.3-.1h.3m-.3-.2h.3m-.5-.2h.5m-.5-.1h.3m-.3-.2h.3m-.4-.1h.5m-.5-.2h.5m-.7-.2h.6m-.6-.1h.5m-.5-.2h.5m-.6-.1h.6m-.6-.2h.6m-.6-.1h.5m-.7-.2h.6m-.6-.2h.6m-.6-.1h.6m-.7-.2h.6m-.6-.1h.3m1.2 4.3h.2-.2zm0-.2h.2m-.2-.2h.2m-.2-.1h.2m-.3-.2h.3m-.3-.1h.3m-.3-.2h.3m-.3-.2h.2m-.2-.1h.2m-.4-.2h.3m-.3-.1h.3m-.3-.2h.3m-.3-.2h.3m-.4-.1h.5m-.5-.2h.5m-.5-.1h.5m-.5-.2h.5m-.5-.2h.5m-.7-.1h.6m-.6-.2h.5m-.5-.1h.5m-.5-.2h.5m-.7-.1h.6m-.6-.2h.6m-.6-.2h.6m-.6-.1h.6m-.7-.2h.8m-.7-.1h.6m-.4-.2h.5m-.3-.2h.3m.1 4.7h.2-.2zm0-.2h.2m-.2-.2h.2m-.2-.1h.2m-.3-.2h.3m-.3-.1h.3m-.3-.2h.3m-.3-.2h.2m-.2-.1h.2m-.4-.2h.3m-.3-.1h.3m-.3-.2h.3m-.3-.2h.3m-.4-.1h.5m-.5-.2h.5m-.5-.1h.5m-.5-.2h.5m-.5-.2h.5m-.7-.1h.6m-.6-.2h.5m-.5-.1h.5m-.5-.2h.5m-.7-.1h.6m-.6-.2h.6m-.6-.2h.6m-.6-.1h.6m-.7-.2h.8m-.7-.1h.6m-.4-.2h.5m-.3-.2h.3m.3 5.4l-6.2-28.6 6.2 28.6zm-6.2-28.6h-43.3 43.3zm-40.4-6.5l3.7 6.5-3.7-6.5zm3.7 6.5l7.2-12.1-7.2 12.1zm7.1-12.1h31.5-31.5z"/><text transform="matrix(.9397 0 -.342 .9397 280.093 291.082)" fill="#97CCCE" font-family="'GOSTTypeA'" font-size="10.161">R</text><text transform="matrix(.9397 0 -.342 .9397 284.268 291.082)" fill="#97CCCE" font-family="'GOSTTypeA'" font-size="10.161">a</text><text transform="matrix(.9397 0 -.342 .9397 290.705 291.082)" fill="#97CCCE" font-family="'GOSTTypeA'" font-size="10.161">0</text><text transform="matrix(.9397 0 -.342 .9397 294.88 291.082)" fill="#97CCCE" font-family="'GOSTTypeA'" font-size="10.161">,</text><text transform="matrix(.9397 0 -.342 .9397 296.272 291.082)" fill="#97CCCE" font-family="'GOSTTypeA'" font-size="10.161">4</text><text transform="matrix(.9397 0 -.342 .9397 300.447 291.082)" fill="#97CCCE" font-family="'GOSTTypeA'" font-size="10.161">0</text><path fill="none" stroke="#97CCCE" stroke-miterlimit="10" d="M196.8 393.3l-21 31.3 21-31.3zm-21 31.3h-13.4 13.4zm105.3-76.2l-.3-5.9.3 5.9zm-.4-5.9l-1-5.9 1 5.9zm-.9-5.9l-1.6-5.6 1.6 5.6zm-1.6-5.5l-2.2-5.4 2.2 5.4zm-2.2-5.4l-2.7-5.2 2.7 5.2zm-2.7-5.3l-3.3-4.8 3.3 4.8zm-3.4-4.8l-3.8-4.6 3.8 4.6zm-3.8-4.6l-4.3-4 4.3 4zm-4.3-3.9l-4.6-3.5 4.6 3.5zm-4.6-3.5l-5.1-3 5.1 3zm-5.1-3.1l-5.2-2.5 5.2 2.5zm-5.2-2.5l-5.6-1.7 5.6 1.7zm-5.6-1.8l-5.7-1.3 5.7 1.3zm-5.7-1.2l-5.9-.6 5.9.6zm-5.9-.7h-5.9 5.9zm-5.9 0l-5.7.6 5.7-.6zm-5.7.7l-5.7 1.3 5.7-1.3zm-5.8 1.2l-5.6 1.9 5.6-1.9zm-5.5 2l-5.4 2.4 5.4-2.4zm-5.4 2.3l-4.9 3 4.9-3zm-5 3.1l-4.8 3.7 4.8-3.7zm-4.7 3.6l-4.1 4 4.1-4zm-4.2 4l-3.8 4.5 3.8-4.5zm-3.8 4.4l-3.3 4.9 3.3-4.9zm-3.3 5l-2.7 5.2 2.7-5.2zm-2.7 5.2l-2.1 5.4 2.1-5.4zm-2.1 5.4l-1.6 5.6 1.6-5.6zm-1.6 5.6l-1 5.9 1-5.9zm-.9 5.9l-.3 5.9.3-5.9zm-.4 5.9l.3 5.7-.3-5.7zm.4 5.7l1 5.9-1-5.9zm.9 5.9l1.6 5.6-1.6-5.6zm1.6 5.6l2.2 5.6-2.2-5.6zm2.2 5.5l2.7 5.1-2.7-5.1zm2.7 5.1l3.3 4.9-3.3-4.9zm3.4 4.9l3.8 4.5-3.8-4.5zm3.8 4.5l4.3 4-4.3-4zm4.3 4l4.6 3.5-4.6-3.5zm4.6 3.5l5.1 3-5.1-3zm5.1 3l5.4 2.4-5.4-2.4zm5.4 2.4l5.6 1.9-5.6-1.9zm5.6 1.9l5.7 1.3-5.7-1.3zm5.7 1.3l5.7.6-5.7-.6zm5.7.6l5.9-.2-5.9.2zm5.9-.2l5.9-.6-5.9.6zm5.9-.6l5.7-1.3-5.7 1.3zm5.7-1.3l5.6-1.9-5.6 1.9zm5.6-1.9l5.2-2.4-5.2 2.4zm5.2-2.4l5.1-3.2-5.1 3.2zm5.1-3.1l4.6-3.5-4.6 3.5zm4.6-3.5l4.3-4-4.3 4zm4.3-4l3.7-4.6-3.7 4.6zm3.7-4.6l3.3-4.8-3.3 4.8zm3.3-4.8l2.7-5.2-2.7 5.2zm2.7-5.3l2.1-5.4-2.1 5.4zm2.1-5.4l1.6-5.7-1.6 5.7zm1.6-5.7l1-5.7-1 5.7zm.9-5.7l.3-5.6-.3 5.6zm88.2-167l-5.6 1.4 5.6-1.4zm-5.6 1.4l.5-.8-.5.8zm.5-.8l-.6-.6.6.6zm-.7-.6h5.7-5.7zm.4 1.2h.5-.5zm.1-.1h1m-1-.2h1.6m-1.4-.1h2.1m-2.1-.2h2.7m-1.5-.2h2.1m-.8-.1h1.4m-.1-.2h.8m-4.9 1.1h.5-.5zm.1-.1h1m-1-.2h1.6m-1.4-.1h2.1m-2.1-.2h2.7m-1.5-.2h2.1m-.8-.1h1.4m-.1-.2h.8m-4.8.3h1.4-1.4zm-.1-.1h2.9m-3.1-.2h4.3m-4.5-.1h5.7m-5.2.4h1.4-1.4zm-.1-.1h2.9m-3.1-.2h4.3m-4.5-.1h5.7M84.9 223.6l5.4-1.6-5.4 1.6zm5.4-1.6l-.5 1 .5-1zm-.4.9l.6.6-.6-.6zm.6.7h-5.6 5.6zm-4.9-.2h.6-.6zm.5-.2h1.4m-.8-.1h2.1m-1.6-.2h2.7m-2.3-.1H90m-1.7-.2H90m-1.2-.2h1.4m-.8-.1h.8m-.3-.2h.5m-4.8 1.3h.6-.6zm.5-.2h1.4m-.8-.1h2.1m-1.6-.2h2.7m-2.3-.1H90m-1.7-.2H90m-1.2-.2h1.4m-.8-.1h.8m-.3-.2h.5m-4.2 1.3h4.1-4.1zm1.3-.2h2.7m-1.4-.1H90m-3.8.3h4.1-4.1zm1.3-.2h2.7m-1.4-.1H90M368.9 187l-284 36.6 284-36.6zm1.1 18.3l-.3-9.5.3 9.5zm-.3-9.6l-1-9.5 1 9.5zm-1-9.5l-.3-3 .3 3zM84.9 223.6L35.1 230l49.8-6.4zm-49.7 6.3H0h35.2z"/><path fill="#97CCCE" d="M3.1 225.3c-.3-.1-.4-.4-.5-.7-.1-.3-.1-.7.1-1 .2-.5.5-.9 1-1.3s1-.6 1.5-.6h.3l.8-1.2c.1-.1.2-.2.3-.2.1 0 .1 0 .1.1v.3l-.8 1.2c.3.1.4.4.6.7 0 .1.1.3 0 .5 0 .2-.1.4-.1.5-.2.5-.5.9-1 1.3s-1 .6-1.5.6h-.3l-.8 1.3c-.1.1-.2.2-.3.2 0 0-.1 0-.2-.1v-.3l.8-1.3zm.3-.5l1.8-2.6H5c-.4 0-.8.1-1.1.4-.2.1-.3.3-.5.5l-.2.2-.1.2v.1c-.1.3-.1.5-.1.7.1.2.2.4.4.5zm2.2-2.5L3.8 225H4c.4 0 .8-.1 1.1-.4.4-.3.6-.6.8-1 .1-.3.1-.5 0-.7 0-.3-.1-.4-.3-.6z"/><text transform="matrix(.9397 0 -.342 .9397 5.74 226.83)" fill="#97CCCE" font-family="'GOSTTypeA'" font-size="10.161">7</text><text transform="matrix(.9397 0 -.342 .9397 9.916 226.83)" fill="#97CCCE" font-family="'GOSTTypeA'" font-size="10.161">,</text><text transform="matrix(.9397 0 -.342 .9397 11.307 226.83)" fill="#97CCCE" font-family="'GOSTTypeA'" font-size="10.161">6</text><text transform="matrix(.9397 0 -.342 .9397 15.483 226.83)" fill="#97CCCE" font-family="'GOSTTypeA'" font-size="10.161">2</text><text transform="matrix(.9397 0 -.342 .9397 22.022 221.54)" fill="#97CCCE" font-family="'GOSTTypeA'" font-size="6.939">+</text><text transform="matrix(.9397 0 -.342 .9397 24.226 221.54)" fill="#97CCCE" font-family="'GOSTTypeA'" font-size="6.939">0</text><text transform="matrix(.9397 0 -.342 .9397 27.01 221.54)" fill="#97CCCE" font-family="'GOSTTypeA'" font-size="6.939">,</text><text transform="matrix(.9397 0 -.342 .9397 27.937 221.54)" fill="#97CCCE" font-family="'GOSTTypeA'" font-size="6.939">0</text><text transform="matrix(.9397 0 -.342 .9397 30.721 221.54)" fill="#97CCCE" font-family="'GOSTTypeA'" font-size="6.939">5</text><path fill="none" stroke="#97CCCE" stroke-miterlimit="10" d="M115.3 300.9l-4.8 3 4.8-3zm-4.8 3l1 .2-1-.2zm1 .1v1-1zm0 1l3.8-4.1-3.8 4.1zm3.8-4.1l-7.2 6 7.2-6zm-4.8 3h1.3-1.3zm.4-.2h1.1m-.8-.1h1m-.9-.2h1m-.6-.2h.8m-.7-.1h1m-.7-.2h.8m-.4-.1h.6m-.5-.2h.6m-.3-.2h.5m-.3-.1h.6m-.3-.2h.5m-.3-.1h.5m-.2-.2h.3m0-.1h.2m0-.2h.3m0-.2h.2m-.1-.1h.2m-4.5 2.7h1.3-1.3zm.4-.2h1.1m-.8-.1h1m-.9-.2h1m-.6-.2h.8m-.7-.1h1m-.7-.2h.8m-.4-.1h.6m-.5-.2h.6m-.3-.2h.5m-.3-.1h.6m-.3-.2h.5m-.3-.1h.5m-.2-.2h.3m0-.1h.2m0-.2h.3m0-.2h.2m-.1-.1h.2m-3.5 3.6h.2-.2zm0-.1h.3m-.3-.2h.5m-.5-.1h.6m-.6-.2h.8m-.8-.2h1m-.7-.1h.8m-.6-.2h.8m-.7-.1h.8m-.6-.2h.8m-.6-.2h.8m-.5-.1h.6m-.5-.2h.5m-.3-.1h.5m-.3-.2h.5m-.4-.2h.5m-.2-.1h.3m-.1-.2h.3m-.2-.1h.3m-.1-.2h.3m-.1-.1h.3m0-.2h.2m-.1-.2h.2m0-.1h.2m0-.2h.2m-3.9 3.8h.2-.2zm0-.1h.3m-.3-.2h.5m-.5-.1h.6m-.6-.2h.8m-.8-.2h1m-.7-.1h.8m-.6-.2h.8m-.7-.1h.8m-.6-.2h.8m-.6-.2h.8m-.5-.1h.6m-.5-.2h.5m-.3-.1h.5m-.3-.2h.5m-.4-.2h.5m-.2-.1h.3m-.1-.2h.3m-.2-.1h.3m-.1-.2h.3m-.1-.1h.3m0-.2h.2m-.1-.2h.2m0-.1h.2m0-.2h.2m223.1-191.3l4.8-3.2-4.8 3.2zm4.8-3.2l-1-.2 1 .2zm-1-.2l-.2-1 .2 1zm-.2-.9l-3.7 4.3 3.7-4.3zm-3.6 4.3l7-6.2-7 6.2zm.6-.5h.2-.2zm.2-.2h.2m-.1-.1h.3m-.1-.2h.3m-.1-.1h.5m-.2-.2h.3m-.2-.2h.5m-.3-.1h.5m-.3-.2h.6m-.5-.1h.6m-.4-.2h.8m-.7-.2h.8m-.5-.1h.8m-.6-.2h.8m-.6-.1h1m-.9-.2h1m-.8-.2h1.1m-1-.1h1.1m-4.1 2.7h.2-.2zm.2-.2h.2m-.1-.1h.3m-.1-.2h.3m-.1-.1h.5m-.2-.2h.3m-.2-.2h.5m-.3-.1h.5m-.3-.2h.6m-.5-.1h.6m-.4-.2h.8m-.7-.2h.8m-.5-.1h.8m-.6-.2h.8m-.6-.1h1m-.9-.2h1m-.8-.2h1.1m-1-.1h1.1m-4.6 3h.2-.2zm.2-.2h.2m0-.1h.2m-.1-.2h.2m0-.1h.2m-.1-.2h.2m-.2-.1h.3m-.1-.2h.5m-.3-.2h.5m-.4-.1h.5m-.3-.2h.5m-.4-.1h.5m-.3-.2h.5m-.5-.2h.6m-.4-.1h.8m-.7-.2h.8m-.6-.1h.8m-.7-.2h.8m-.6-.2h.8m-.7-.1h.8m-.8-.2h1m-.8-.1h.8m-.6-.2h.6m-.5-.2h.5m-.3-.1h.3m-.2-.2h.2m-3.7 4h.2-.2zm.2-.2h.2m0-.1h.2m-.1-.2h.2m0-.1h.2m-.1-.2h.2m-.2-.1h.3m-.1-.2h.5m-.3-.2h.5m-.4-.1h.5m-.3-.2h.5m-.4-.1h.5m-.3-.2h.5m-.5-.2h.6m-.4-.1h.8m-.7-.2h.8m-.6-.1h.8m-.7-.2h.8m-.6-.2h.8m-.7-.1h.8m-.8-.2h1m-.8-.1h.8m-.6-.2h.6m-.5-.2h.5m-.3-.1h.3m-.2-.2h.2m-227 195.4l223.2-191.2-223.2 191.2zm254.5-62.1l1.9-9.4-1.9 9.4zm1.9-9.4l1.3-9.7-1.3 9.7zm1.3-9.7l.6-9.5-.6 9.5zm.6-9.5v-9.7 9.7zm0-9.7l-.6-9.7.6 9.7zm-.6-9.7l-1.1-9.5 1.1 9.5zm-1.1-9.6l-1.9-9.4 1.9 9.4zm-1.9-9.3l-2.5-9.4 2.5 9.4zm-2.6-9.4l-3.2-9.2 3.2 9.2zm-3.1-9.3l-3.7-8.9 3.7 8.9zm-3.7-8.9l-4.3-8.6 4.3 8.6zm-4.3-8.5l-4.8-8.4 4.8 8.4zm-4.8-8.5l-5.4-8 5.4 8zm-5.4-7.9l-5.9-7.6 5.9 7.6zm-5.9-7.7l-2.4-2.9 2.4 2.9zm-1.7-2l29.6-25.4-29.6 25.4zm29.6-25.5h35-35z"/><path fill="#97CCCE" d="M371.1 79.7c-.3-.1-.4-.4-.5-.7-.1-.3-.1-.7.1-1 .2-.5.5-.9 1-1.3s1-.6 1.5-.6h.3l.8-1.2c.1-.1.2-.2.3-.2.1 0 .1 0 .1.1v.3l-.8 1.2c.3.1.4.4.6.7 0 .1.1.3 0 .5 0 .2-.1.4-.1.5-.2.5-.5.9-1 1.3s-1 .6-1.5.6h-.3l-.8 1.3c-.1.1-.2.2-.3.2 0 0-.1 0-.2-.1V81l.8-1.3zm.3-.5l1.8-2.6h-.2c-.4 0-.8.1-1.1.4-.2.1-.3.3-.5.5l-.2.2-.1.2v.1c-.1.3-.1.5-.1.7 0 .2.2.4.4.5zm2.1-2.5l-1.8 2.6h.2c.4 0 .8-.1 1.1-.4.4-.3.6-.6.8-1 .1-.3.1-.5 0-.7.1-.2-.1-.4-.3-.5z"/><text transform="matrix(.9397 0 -.342 .9397 373.671 81.215)" fill="#97CCCE" font-family="'GOSTTypeA'" font-size="10.161">7</text><text transform="matrix(.9397 0 -.342 .9397 377.847 81.215)" fill="#97CCCE" font-family="'GOSTTypeA'" font-size="10.161">,</text><text transform="matrix(.9397 0 -.342 .9397 379.238 81.215)" fill="#97CCCE" font-family="'GOSTTypeA'" font-size="10.161">8</text><text transform="matrix(.9397 0 -.342 .9397 383.413 81.215)" fill="#97CCCE" font-family="'GOSTTypeA'" font-size="10.161">2</text><text transform="matrix(.9397 0 -.342 .9397 389.954 75.924)" fill="#97CCCE" font-family="'GOSTTypeA'" font-size="6.939">+</text><text transform="matrix(.9397 0 -.342 .9397 392.158 75.924)" fill="#97CCCE" font-family="'GOSTTypeA'" font-size="6.939">0</text><text transform="matrix(.9397 0 -.342 .9397 394.94 75.924)" fill="#97CCCE" font-family="'GOSTTypeA'" font-size="6.939">,</text><text transform="matrix(.9397 0 -.342 .9397 395.869 75.924)" fill="#97CCCE" font-family="'GOSTTypeA'" font-size="6.939">0</text><text transform="matrix(.9397 0 -.342 .9397 398.652 75.924)" fill="#97CCCE" font-family="'GOSTTypeA'" font-size="6.939">5</text><path fill="none" stroke="#97CCCE" stroke-miterlimit="10" d="M49.6 205.3h32-32zm34.7 0h2.9-2.9zm5.7 0h31.8H90zm34.7 0h2.7-2.7zm5.6 0h32-32zm34.6 0h2.9-2.9zm5.8 0h31.8-31.8zm34.6 0h2.7-2.7zm5.6 0h15.9-15.9zm190.1 0h-31.2H401zm-34 0h-2.9 2.9zm-5.6 0h-31.2 31.2zm-34.1 0h-2.9 2.9zm-5.5 0h-31.2 31.2zm-34.1 0h-2.9 2.9zm-5.7 0h-31.2H282zm-33.9 0h-2.9 2.9zm-5.7 0h-15.6 15.6zm-15.6 177.5v-32 32zm0-34.7v-2.9 2.9zm0-5.7v-32 32zm0-34.7v-2.9 2.9zm0-5.7v-32 32zm0-34.7v-2.9 2.9zm0-5.7v-32 32zm0-34.7V224v2.9zm0-5.7v-15.9 15.9zm0-195.5v32.4-32.4zm0 35.3v2.7V61zm0 5.6V99 66.6zm0 35.1v2.9-2.9zm0 5.7v32.3-32.3zm0 35.2v2.9-2.9zm0 5.6v32.4-32.4zm0 35.3v2.7-2.7zm0 5.5v16.2V189zM84.6 232.6l-60.1 60.1 60.1-60.1zm-58.2 58.1l4.5 3.5-4.5-3.5zm4.5 3.5l-.8.2.8-.2zm-.8.1l-.2 1 .2-1zm-.2 1l-3.5-4.6 3.5 4.6zm0-1.1h1-1zm-.2-.2h1m-1.1-.1h1m-1.2-.2h1m-1.1-.2h.8m-1-.1h.8m-1-.2h.8m-.9-.1h.8m-1-.2h.6m-.7-.2h.6m-.8-.1h.6m-.7-.2h.5m-.7-.1h.5m-.7-.2h.5m-.6-.2h.5m-.7-.1h.3m-.4-.2h.3m-.5-.1h.3m-.5-.2h.3m-.4-.1h.1m-.3-.2h.2m-.3-.2h.2m3.1 3.4h1-1zm-.2-.2h1m-1.1-.1h1m-1.2-.2h1m-1.1-.2h.8m-1-.1h.8m-1-.2h.8m-.9-.1h.8m-1-.2h.6m-.7-.2h.6m-.8-.1h.6m-.7-.2h.5m-.7-.1h.5m-.7-.2h.5m-.6-.2h.5m-.7-.1h.3m-.4-.2h.3m-.5-.1h.3m-.5-.2h.3m-.4-.1h.1m-.3-.2h.2m-.3-.2h.2m3.1 4.3h.2-.2zm-.2-.1h.3m-.4-.2h.5m-.7-.1h.6m-.6-.2h.6m-.7-.2h.8m-1-.1h.8m-1-.2h.8m-.8-.1h.6m-.7-.2h.6m-.8-.2h.6m-.7-.1h.6m-.6-.2h.5m-.7-.1h.5m-.6-.2h.5m-.7-.2h.5m-.5-.1h.3m-.5-.2h.3m-.4-.1h.3m-.5-.2h.3m-.3-.2h.2m-.3-.1h.2m-.4-.2h.2m-.4-.1h.2m2.7 3.6h.2-.2zm-.2-.1h.3m-.4-.2h.5m-.7-.1h.6m-.6-.2h.6m-.7-.2h.8m-1-.1h.8m-1-.2h.8m-.8-.1h.6m-.7-.2h.6m-.8-.2h.6m-.7-.1h.6m-.6-.2h.5m-.7-.1h.5m-.6-.2h.5m-.7-.2h.5m-.5-.1h.3m-.5-.2h.3m-.4-.1h.3m-.5-.2h.3m-.3-.2h.2m-.3-.1h.2m-.4-.2h.2m-.4-.1h.2m114.2 114.2l-4.6-3.5 4.6 3.5zm-4.6-3.5l1-.2-1 .2zm.9-.2l.2-1-.2 1zm.2-.9l3.5 4.6-3.5-4.6zm2.7 3.9h.2-.2zm-.1-.1h.2m-.4-.2h.2m-.5-.1h.3m-.5-.2h.3m-.4-.2h.3m-.7-.1h.5m-.6-.2h.5m-.7-.1h.5m-.8-.2h.6m-.8-.1h.6m-.7-.2h.6m-.9-.2h.8m-1-.1h.8m-1-.2h.8m-1.1-.1h1m-1.1-.2h1m-1.2-.2h1m-1.3-.1h1.1m2.7 2.8h.2-.2zm-.1-.1h.2m-.4-.2h.2m-.5-.1h.3m-.5-.2h.3m-.4-.2h.3m-.7-.1h.5m-.6-.2h.5m-.7-.1h.5m-.8-.2h.6m-.8-.1h.6m-.7-.2h.6m-.9-.2h.8m-1-.1h.8m-1-.2h.8m-1.1-.1h1m-1.1-.2h1m-1.2-.2h1m-1.3-.1h1.1m3.3 3.3h.2-.2zm-.1-.1h.2m-.4-.2h.2m-.3-.2h.2m-.4-.1h.3m-.4-.2h.3m-.5-.1h.3m-.5-.2h.3m-.4-.2h.5m-.7-.1h.5m-.6-.2h.5m-.7-.1h.5m-.7-.2h.6m-.7-.1h.6m-.8-.2h.6m-.7-.2h.6m-.8-.1h.8m-1-.2h.8m-.9-.1h.8m-1-.2h.8m-.9-.2h1m-1.2-.1h1m-1.2-.2h1m-.8-.1h.6m-.6-.2h.6m-.6-.2h.5m-.5-.1h.3m-.3-.2h.2m3.1 4.3h.2-.2zm-.1-.1h.2m-.4-.2h.2m-.3-.2h.2m-.4-.1h.3m-.4-.2h.3m-.5-.1h.3m-.5-.2h.3m-.4-.2h.5m-.7-.1h.5m-.6-.2h.5m-.7-.1h.5m-.7-.2h.6m-.7-.1h.6m-.8-.2h.6m-.7-.2h.6m-.8-.1h.8m-1-.2h.8m-.9-.1h.8m-1-.2h.8m-.9-.2h1m-1.2-.1h1m-1.2-.2h1m-.8-.1h.6m-.6-.2h.6m-.6-.2h.5m-.5-.1h.3m-.3-.2h.2M26.4 290.7l115 115-115-115zm173.1 56.8l-60.1 60.1 60.1-60.1z"/><text transform="matrix(.6645 .6645 -.9063 .4226 78.114 338.249)" fill="#97CCCE" font-family="'GOSTTypeA'" font-size="10.161">4</text><text transform="matrix(.6645 .6645 -.9063 .4226 81.066 341.202)" fill="#97CCCE" font-family="'GOSTTypeA'" font-size="10.161">,</text><text transform="matrix(.6645 .6645 -.9063 .4226 82.05 342.186)" fill="#97CCCE" font-family="'GOSTTypeA'" font-size="10.161">3</text><text transform="matrix(.6645 .6645 -.9063 .4226 90.046 342.7)" fill="#97CCCE" font-family="'GOSTTypeA'" font-size="6.939">+</text><text transform="matrix(.6645 .6645 -.9063 .4226 91.605 344.258)" fill="#97CCCE" font-family="'GOSTTypeA'" font-size="6.939">0</text><text transform="matrix(.6645 .6645 -.9063 .4226 93.573 346.226)" fill="#97CCCE" font-family="'GOSTTypeA'" font-size="6.939">,</text><text transform="matrix(.6645 .6645 -.9063 .4226 94.23 346.882)" fill="#97CCCE" font-family="'GOSTTypeA'" font-size="6.939">2</text><path fill="none" stroke="#97CCCE" stroke-miterlimit="10" d="M140 183.3l-18.1 35.5 18.1-35.5zm0 0h15.9H140zM79.1 304.5l21.5 21.5-21.5-21.5zm-5.3-13.2l45.8 45.7-45.8-45.7zm-4.6-12.7l67.9 68.1-67.9-68.1zm-4.1-12.1l88.3 88.4-88.3-88.4zM61.6 255l106.7 106.7L61.6 255zm69.1 61.3l51.4 51.4-51.4-51.4zm-72-72.1l57.1 57.1-57.1-57.1zm-2.2-10.1l41.4 41.4-41.4-41.4zm100.2 100.2l38.2 38.2-38.2-38.2zm15.1 7.1l34.7 34.7-34.7-34.7zM54.7 224.3l35.9 35.9-35.9-35.9zm-.9-8.9L86.4 248l-32.6-32.6zM184 345.7l33.4 33.2-33.4-33.2zm10.7 2.7l32.8 32.8-32.8-32.8zM53.4 207.2l30.2 30.2-30.2-30.2zm.2-8l31.7 31.7-31.7-31.7zm147.6 147.6l35.5 35.6-35.5-35.6zm8.3.5l35.8 35.8-35.8-35.8zM53.9 191.6l30.9 30.9-30.9-30.9zm.7-7.3L84 213.7l-29.4-29.4zm163.8 163.8l34.8 35-34.8-35zm8.1.3l34 34-34-34zM55.4 177.1l28.3 28.5-28.3-28.5zm.9-7L84 197.8l-27.7-27.7zm178 178l33.1 33.1-33.1-33.1zm7.5-.5l32 32-32-32zM57.4 163.4l27 26.9-27-26.9zm1.5-6.7l26.6 26.6-26.6-26.6zm189.9 190l31 31-31-31zm9.7 1.7l27 27-27-27zM60.3 150.2l23.4 23.4-23.4-23.4zM62 144l22.9 22.9L62 144zm203.2 203l25.9 26.1-25.9-26.1zm6-1.8l25.3 25.3-25.3-25.3zM63.8 137.8l23.1 23.1-23.1-23.1zm2.1-6L89 154.9l-23.1-23.1zm211.3 211.4l24.5 24.7-24.5-24.7zm5.8-2.3l23.9 24-23.9-24zM67.9 126l23.2 23.1L67.9 126zm2.4-5.7l23.2 23.2-23.2-23.2zm218.2 218.3l23.4 23.4-23.4-23.4zm5.3-2.6l23.1 22.9-23.1-22.9zM72.7 114.9l23.4 23.4-23.4-23.4zm2.7-5.4L98.9 133l-23.5-23.5zM299 333.1l22.6 22.6-22.6-22.6zm5.1-2.8l22.3 22.3-22.3-22.3zM78.3 104.4l23.5 23.5-23.5-23.5zm3.1-4.9l23.5 23.7-23.5-23.7zm227.5 227.6l22.1 22-22.1-22zm4.6-3.3l22 22-22-22zM84.6 94.9l23.7 23.7-23.7-23.7zm3.7-4.5l23.4 23.5-23.4-23.5zm229.8 230l21.8 21.6-21.8-21.6zm4.3-3.6l21.8 21.6-21.8-21.6zM91.9 86.3l23.4 23.4-23.4-23.4zm4-4l23.2 23.1-23.2-23.1zm230.8 230.6l21.6 21.8-21.6-21.8zm4-3.8l21.8 21.8-21.8-21.8zM100 78.3l22.9 23.1L100 78.3zm4.3-3.6L127 97.4l-22.7-22.7zM334.7 305l22 22-22-22zm3.8-4.1l22 22-22-22zM108.8 71.2l22.4 22.4-22.4-22.4zm4.6-3.4l22.3 22.3-22.3-22.3zM342 296.4l22.3 22.3-22.3-22.3zm3.5-4.5l22.6 22.4-22.6-22.4zM118 64.5l22.1 22.1L118 64.5zm5-3.2l22 22-22-22zm225.8 225.9l22.7 22.9-22.7-22.9zm3-4.8l23.2 23.1-23.2-23.1zM127.9 58.3l21.8 22-21.8-22zm5.1-2.9l21.8 21.8L133 55.4zm221.9 221.9l23.4 23.5-23.4-23.5zm2.7-5.1l23.9 23.7-23.9-23.7zM138.1 52.7l21.8 21.8-21.8-21.8zm5.4-2.7l21.8 21.8L143.5 50zm216.8 216.8l24 24-24-24zm2.4-5.5l24.3 24.3-24.3-24.3zM148.9 47.5l22 22-22-22zm5.5-2.4l22.1 22.1-22.1-22.1zm210.5 210.4l24.5 24.5-24.5-24.5zm2.1-5.9l24.5 24.5-24.5-24.5zM160 42.7l22.4 22.4L160 42.7zm5.9-2.1l22.7 22.7-22.7-22.7zm202.8 202.8l24.5 24.5-24.5-24.5zm1.4-6.5l24.7 24.7-24.7-24.7zM171.8 38.6L195.2 62l-23.4-23.4zm6-1.9l27.2 27-27.2-27zm190.6 190.4l27.5 27.7-27.5-27.7zm.8-7l27.7 27.7-27.7-27.7zM184 34.9l28 28-28-28zm6.6-1.6l28.8 28.9-28.8-28.9zm179.2 179.4l27.8 27.7-27.8-27.7zm.2-7.8l28 28-28-28zM197.1 32l30.1 30.1L197.1 32zm6.8-1.1l31.5 31.3-31.5-31.3zm165.9 165.8l28.3 28.3-28.3-28.3zm-.8-8.8l28.9 28.9-28.9-28.9zM211.1 30l33.1 33.1L211.1 30zm7.5-.5l34 34-34-34zm149.9 150l28.9 28.9-28.9-28.9zm1.6-6.4l26.6 26.6-26.6-26.6zM226.5 29.5L259 61.9l-32.5-32.4zm8.6.6l34.5 34.5-34.5-34.5zm132.3 132.4l28 28-28-28zm-4.4-12.4l30.9 30.9-30.9-30.9zM244.6 31.7L282 69.1l-37.4-37.4zm10.7 2.7l41.8 41.7-41.8-41.7zM356 135l35.8 35.8L356 135zm-18.2-26l51.1 51.1-51.1-51.1zm-70.7-70.8l56 56-56-56zm13.5 5.6l104.7 104.7L280.6 43.8zm16 8l83.5 83.5-83.5-83.5zm20.7 12.7l54.6 54.7-54.6-54.7zM21.8 229.9l-3.8 6.5 3.8-6.5zm-3.8 6.5l-3.8-6.5 3.8 6.5zm0-6.5V245v-15.1zm-7 28.3V245v13.2zm0-13.2h14-14zm14 0v13.2V245zm0 13.2H11h14z"/><text transform="matrix(.9397 0 -.342 .9397 14.238 254.848)" fill="#97CCCE" font-family="'GOSTTypeA'" font-size="10.161">Æ</text><text transform="matrix(.9397 0 -.342 .9397 189.531 16.276)" fill="#97CCCE" font-family="'GOSTTypeA'" font-size="20.57">Ä</text><text transform="matrix(.9397 0 -.342 .9397 198.925 16.276)" fill="#97CCCE" font-family="'GOSTTypeA'" font-size="20.57">-</text><text transform="matrix(.9397 0 -.342 .9397 206.232 16.276)" fill="#97CCCE" font-family="'GOSTTypeA'" font-size="20.57">Ä</text><text transform="matrix(.9397 0 -.342 .9397 215.626 16.276)" fill="#97CCCE" font-family="'GOSTTypeA'" font-size="20.57">(</text><text transform="matrix(.9397 0 -.342 .9397 219.454 16.276)" fill="#97CCCE" font-family="'GOSTTypeA'" font-size="20.57">2</text><text transform="matrix(.9397 0 -.342 .9397 227.804 16.276)" fill="#97CCCE" font-family="'GOSTTypeA'" font-size="20.57">0</text><text transform="matrix(.9397 0 -.342 .9397 236.155 16.276)" fill="#97CCCE" font-family="'GOSTTypeA'" font-size="20.57">:</text><text transform="matrix(.9397 0 -.342 .9397 238.939 16.276)" fill="#97CCCE" font-family="'GOSTTypeA'" font-size="20.57">1</text><text transform="matrix(.9397 0 -.342 .9397 244.506 16.276)" fill="#97CCCE" font-family="'GOSTTypeA'" font-size="20.57">)</text><path fill="none" stroke="#97CCCE" stroke-miterlimit="10" d="M315.1 322.6l-1.9-5.2 1.9 5.2zm-1.9-5.2l.8.3-.8-.3zm.8.3l.6-.6-.6.6zm.6-.6l.5 5.6-.5-5.6zm.3 5.1h.2-.2zm0-.2h.2m-.3-.3h.2m-.2-.2h.2m-.2-.1h.2m-.4-.2h.2m-.2-.1h.2m-.3-.2h.3m-.3-.2h.3m-.3-.1h.3m-.5-.2h.3m-.3-.1h.3m-.3-.2h.3m-.5-.2h.5m-.5-.1h.3m-.3-.2h.3m-.4-.1h.5m-.5-.2h.5m-.7-.2h.6m-.6-.1h.5m-.5-.2h.5m-.6-.1h.6m-.6-.2h.6m-.6-.1h.5m-.7-.2h.6m-.6-.2h.6m-.6-.1h.6m-.7-.2h.6m-.6-.1h.3m1.2 4.6h.2-.2zm0-.2h.2m-.3-.3h.2m-.2-.2h.2m-.2-.1h.2m-.4-.2h.2m-.2-.1h.2m-.3-.2h.3m-.3-.2h.3m-.3-.1h.3m-.5-.2h.3m-.3-.1h.3m-.3-.2h.3m-.5-.2h.5m-.5-.1h.3m-.3-.2h.3m-.4-.1h.5m-.5-.2h.5m-.7-.2h.6m-.6-.1h.5m-.5-.2h.5m-.6-.1h.6m-.6-.2h.6m-.6-.1h.5m-.7-.2h.6m-.6-.2h.6m-.6-.1h.6m-.7-.2h.6m-.6-.1h.3m1.2 4.3h.2-.2zm0-.2h.2m-.2-.2h.2m-.2-.1h.2m-.3-.2h.3m-.3-.1h.3m-.3-.2h.3m-.3-.2h.2m-.2-.1h.2m-.4-.2h.3m-.3-.1h.3m-.3-.2h.3m-.3-.2h.3m-.4-.1h.5m-.5-.2h.5m-.5-.1h.5m-.5-.2h.5m-.5-.2h.5m-.7-.1h.6m-.6-.2h.5m-.5-.1h.5m-.5-.2h.5m-.7-.1h.6m-.6-.2h.6m-.6-.2h.6m-.6-.1h.6m-.7-.2h.8m-.7-.1h.6m-.4-.2h.5m-.3-.2h.3m.1 4.7h.2-.2zm0-.2h.2m-.2-.2h.2m-.2-.1h.2m-.3-.2h.3m-.3-.1h.3m-.3-.2h.3m-.3-.2h.2m-.2-.1h.2m-.4-.2h.3m-.3-.1h.3m-.3-.2h.3m-.3-.2h.3m-.4-.1h.5m-.5-.2h.5m-.5-.1h.5m-.5-.2h.5m-.5-.2h.5m-.7-.1h.6m-.6-.2h.5m-.5-.1h.5m-.5-.2h.5m-.7-.1h.6m-.6-.2h.6m-.6-.2h.6m-.6-.1h.6m-.7-.2h.8m-.7-.1h.6m-.4-.2h.5m-.3-.2h.3m.3 5.4l-6.2-28.6 6.2 28.6zm-6.2-28.6h-43.3 43.3zm-40.4-6.5l3.7 6.5-3.7-6.5zm3.7 6.5l7.2-12.1-7.2 12.1zm7.1-12.1h31.5-31.5z"/><text transform="matrix(.9397 0 -.342 .9397 280.093 291.082)" fill="#97CCCE" font-family="'GOSTTypeA'" font-size="10.161">R</text><text transform="matrix(.9397 0 -.342 .9397 284.268 291.082)" fill="#97CCCE" font-family="'GOSTTypeA'" font-size="10.161">a</text><text transform="matrix(.9397 0 -.342 .9397 290.704 291.082)" fill="#97CCCE" font-family="'GOSTTypeA'" font-size="10.161">0</text><text transform="matrix(.9397 0 -.342 .9397 294.88 291.082)" fill="#97CCCE" font-family="'GOSTTypeA'" font-size="10.161">,</text><text transform="matrix(.9397 0 -.342 .9397 296.272 291.082)" fill="#97CCCE" font-family="'GOSTTypeA'" font-size="10.161">4</text><text transform="matrix(.9397 0 -.342 .9397 300.447 291.082)" fill="#97CCCE" font-family="'GOSTTypeA'" font-size="10.161">0</text><path fill="none" stroke="#97CCCE" stroke-miterlimit="10" d="M196.8 393.3l-21 31.3 21-31.3zm-21 31.3h-13.4 13.4zm105.3-76.2l-.3-5.9.3 5.9zm-.4-5.9l-1-5.9 1 5.9zm-.9-5.9l-1.6-5.6 1.6 5.6zm-1.6-5.5l-2.2-5.4 2.2 5.4zm-2.2-5.4l-2.7-5.2 2.7 5.2zm-2.7-5.3l-3.3-4.8 3.3 4.8zm-3.4-4.8l-3.8-4.6 3.8 4.6zm-3.8-4.6l-4.3-4 4.3 4zm-4.3-3.9l-4.6-3.5 4.6 3.5zm-4.6-3.5l-5.1-3 5.1 3zm-5.1-3.1l-5.2-2.5 5.2 2.5zm-5.2-2.5l-5.6-1.7 5.6 1.7zm-5.6-1.8l-5.7-1.3 5.7 1.3zm-5.7-1.2l-5.9-.6 5.9.6zm-5.9-.7h-5.9 5.9zm-5.9 0l-5.7.6 5.7-.6zm-5.7.7l-5.7 1.3 5.7-1.3zm-5.8 1.2l-5.6 1.9 5.6-1.9zm-5.5 2l-5.4 2.4 5.4-2.4zm-5.4 2.3l-4.9 3 4.9-3zm-5 3.1l-4.8 3.7 4.8-3.7zm-4.7 3.6l-4.1 4 4.1-4zm-4.2 4l-3.8 4.5 3.8-4.5zm-3.8 4.4l-3.3 4.9 3.3-4.9zm-3.3 5l-2.7 5.2 2.7-5.2zm-2.7 5.2l-2.1 5.4 2.1-5.4zm-2.1 5.4l-1.6 5.6 1.6-5.6zm-1.6 5.6l-1 5.9 1-5.9zm-.9 5.9l-.3 5.9.3-5.9zm-.4 5.9l.3 5.7-.3-5.7zm.4 5.7l1 5.9-1-5.9zm.9 5.9l1.6 5.6-1.6-5.6zm1.6 5.6l2.2 5.6-2.2-5.6zm2.2 5.5l2.7 5.1-2.7-5.1zm2.7 5.1l3.3 4.9-3.3-4.9zm3.4 4.9l3.8 4.5-3.8-4.5zm3.8 4.5l4.3 4-4.3-4zm4.3 4l4.6 3.5-4.6-3.5zm4.6 3.5l5.1 3-5.1-3zm5.1 3l5.4 2.4-5.4-2.4zm5.4 2.4l5.6 1.9-5.6-1.9zm5.6 1.9l5.7 1.3-5.7-1.3zm5.7 1.3l5.7.6-5.7-.6zm5.7.6l5.9-.2-5.9.2zm5.9-.2l5.9-.6-5.9.6zm5.9-.6l5.7-1.3-5.7 1.3zm5.7-1.3l5.6-1.9-5.6 1.9zm5.6-1.9l5.2-2.4-5.2 2.4zm5.2-2.4l5.1-3.2-5.1 3.2zm5.1-3.1l4.6-3.5-4.6 3.5zm4.6-3.5l4.3-4-4.3 4zm4.3-4l3.7-4.6-3.7 4.6zm3.7-4.6l3.3-4.8-3.3 4.8zm3.3-4.8l2.7-5.2-2.7 5.2zm2.7-5.3l2.1-5.4-2.1 5.4zm2.1-5.4l1.6-5.7-1.6 5.7zm1.6-5.7l1-5.7-1 5.7zm.9-5.7l.3-5.6-.3 5.6zm88.2-167l-5.6 1.4 5.6-1.4zm-5.6 1.4l.5-.8-.5.8zm.5-.8l-.6-.6.6.6zm-.7-.6h5.7-5.7zm.4 1.2h.5-.5zm.1-.1h1m-1-.2h1.6m-1.4-.1h2.1m-2.1-.2h2.7m-1.5-.2h2.1m-.8-.1h1.4m-.1-.2h.8m-4.9 1.1h.5-.5zm.1-.1h1m-1-.2h1.6m-1.4-.1h2.1m-2.1-.2h2.7m-1.5-.2h2.1m-.8-.1h1.4m-.1-.2h.8m-4.8.3h1.4-1.4zm-.1-.1h2.9m-3.1-.2h4.3m-4.5-.1h5.7m-5.2.4h1.4-1.4zm-.1-.1h2.9m-3.1-.2h4.3m-4.5-.1h5.7M84.9 223.6l5.4-1.6-5.4 1.6zm5.4-1.6l-.5 1 .5-1zm-.4.9l.6.6-.6-.6zm.6.7h-5.6 5.6zm-4.9-.2h.6-.6zm.5-.2h1.4m-.8-.1h2.1m-1.6-.2h2.7m-2.3-.1H90m-1.7-.2H90m-1.2-.2h1.4m-.8-.1h.8m-.3-.2h.5m-4.8 1.3h.6-.6zm.5-.2h1.4m-.8-.1h2.1m-1.6-.2h2.7m-2.3-.1H90m-1.7-.2H90m-1.2-.2h1.4m-.8-.1h.8m-.3-.2h.5m-4.2 1.3h4.1-4.1zm1.3-.2h2.7m-1.4-.1H90m-3.8.3h4.1-4.1zm1.3-.2h2.7m-1.4-.1H90M368.9 187l-284 36.6 284-36.6zm-284 36.6L35.1 230l49.8-6.4zm-49.7 6.3H0h35.2z"/><path fill="#97CCCE" d="M3.1 225.3c-.3-.1-.4-.4-.5-.7-.1-.3-.1-.7.1-1 .2-.5.5-.9 1-1.3s1-.6 1.5-.6h.3l.8-1.2c.1-.1.2-.2.3-.2.1 0 .1 0 .1.1v.3l-.8 1.2c.3.1.4.4.6.7 0 .1.1.3 0 .5 0 .2-.1.4-.1.5-.2.5-.5.9-1 1.3s-1 .6-1.5.6h-.3l-.8 1.3c-.1.1-.2.2-.3.2 0 0-.1 0-.2-.1v-.3l.8-1.3zm.3-.5l1.8-2.6H5c-.4 0-.8.1-1.1.4-.2.1-.3.3-.5.5l-.2.2-.1.2v.1c-.1.3-.1.5-.1.7.1.2.2.4.4.5zm2.2-2.5L3.8 225H4c.4 0 .8-.1 1.1-.4.4-.3.6-.6.8-1 .1-.3.1-.5 0-.7 0-.3-.1-.4-.3-.6z"/><text transform="matrix(.9397 0 -.342 .9397 5.74 226.83)" fill="#97CCCE" font-family="'GOSTTypeA'" font-size="10.161">7</text><text transform="matrix(.9397 0 -.342 .9397 9.917 226.83)" fill="#97CCCE" font-family="'GOSTTypeA'" font-size="10.161">,</text><text transform="matrix(.9397 0 -.342 .9397 11.308 226.83)" fill="#97CCCE" font-family="'GOSTTypeA'" font-size="10.161">6</text><text transform="matrix(.9397 0 -.342 .9397 15.483 226.83)" fill="#97CCCE" font-family="'GOSTTypeA'" font-size="10.161">2</text><text transform="matrix(.9397 0 -.342 .9397 22.023 221.54)" fill="#97CCCE" font-family="'GOSTTypeA'" font-size="6.939">+</text><text transform="matrix(.9397 0 -.342 .9397 24.226 221.54)" fill="#97CCCE" font-family="'GOSTTypeA'" font-size="6.939">0</text><text transform="matrix(.9397 0 -.342 .9397 27.01 221.54)" fill="#97CCCE" font-family="'GOSTTypeA'" font-size="6.939">,</text><text transform="matrix(.9397 0 -.342 .9397 27.938 221.54)" fill="#97CCCE" font-family="'GOSTTypeA'" font-size="6.939">0</text><text transform="matrix(.9397 0 -.342 .9397 30.721 221.54)" fill="#97CCCE" font-family="'GOSTTypeA'" font-size="6.939">5</text><path fill="none" stroke="#97CCCE" stroke-miterlimit="10" d="M115.3 300.9l-4.8 3 4.8-3zm-4.8 3l1 .2-1-.2zm1 .1v1-1zm0 1l3.8-4.1-3.8 4.1zm3.8-4.1l-7.2 6 7.2-6zm-4.8 3h1.3-1.3zm.4-.2h1.1m-.8-.1h1m-.9-.2h1m-.6-.2h.8m-.7-.1h1m-.7-.2h.8m-.4-.1h.6m-.5-.2h.6m-.3-.2h.5m-.3-.1h.6m-.3-.2h.5m-.3-.1h.5m-.2-.2h.3m0-.1h.2m0-.2h.3m0-.2h.2m-.1-.1h.2m-4.5 2.7h1.3-1.3zm.4-.2h1.1m-.8-.1h1m-.9-.2h1m-.6-.2h.8m-.7-.1h1m-.7-.2h.8m-.4-.1h.6m-.5-.2h.6m-.3-.2h.5m-.3-.1h.6m-.3-.2h.5m-.3-.1h.5m-.2-.2h.3m0-.1h.2m0-.2h.3m0-.2h.2m-.1-.1h.2m-3.5 3.6h.2-.2zm0-.1h.3m-.3-.2h.5m-.5-.1h.6m-.6-.2h.8m-.8-.2h1m-.7-.1h.8m-.6-.2h.8m-.7-.1h.8m-.6-.2h.8m-.6-.2h.8m-.5-.1h.6m-.5-.2h.5m-.3-.1h.5m-.3-.2h.5m-.4-.2h.5m-.2-.1h.3m-.1-.2h.3m-.2-.1h.3m-.1-.2h.3m-.1-.1h.3m0-.2h.2m-.1-.2h.2m0-.1h.2m0-.2h.2m-3.9 3.8h.2-.2zm0-.1h.3m-.3-.2h.5m-.5-.1h.6m-.6-.2h.8m-.8-.2h1m-.7-.1h.8m-.6-.2h.8m-.7-.1h.8m-.6-.2h.8m-.6-.2h.8m-.5-.1h.6m-.5-.2h.5m-.3-.1h.5m-.3-.2h.5m-.4-.2h.5m-.2-.1h.3m-.1-.2h.3m-.2-.1h.3m-.1-.2h.3m-.1-.1h.3m0-.2h.2m-.1-.2h.2m0-.1h.2m0-.2h.2m223.1-191.3l4.8-3.2-4.8 3.2zm4.8-3.2l-1-.2 1 .2zm-1-.2l-.2-1 .2 1zm-.2-.9l-3.7 4.3 3.7-4.3zm-3.6 4.3l7-6.2-7 6.2zm.6-.5h.2-.2zm.2-.2h.2m-.1-.1h.3m-.1-.2h.3m-.1-.1h.5m-.2-.2h.3m-.2-.2h.5m-.3-.1h.5m-.3-.2h.6m-.5-.1h.6m-.4-.2h.8m-.7-.2h.8m-.5-.1h.8m-.6-.2h.8m-.6-.1h1m-.9-.2h1m-.8-.2h1.1m-1-.1h1.1m-4.1 2.7h.2-.2zm.2-.2h.2m-.1-.1h.3m-.1-.2h.3m-.1-.1h.5m-.2-.2h.3m-.2-.2h.5m-.3-.1h.5m-.3-.2h.6m-.5-.1h.6m-.4-.2h.8m-.7-.2h.8m-.5-.1h.8m-.6-.2h.8m-.6-.1h1m-.9-.2h1m-.8-.2h1.1m-1-.1h1.1m-4.6 3h.2-.2zm.2-.2h.2m0-.1h.2m-.1-.2h.2m0-.1h.2m-.1-.2h.2m-.2-.1h.3m-.1-.2h.5m-.3-.2h.5m-.4-.1h.5m-.3-.2h.5m-.4-.1h.5m-.3-.2h.5m-.5-.2h.6m-.4-.1h.8m-.7-.2h.8m-.6-.1h.8m-.7-.2h.8m-.6-.2h.8m-.7-.1h.8m-.8-.2h1m-.8-.1h.8m-.6-.2h.6m-.5-.2h.5m-.3-.1h.3m-.2-.2h.2m-3.7 4h.2-.2zm.2-.2h.2m0-.1h.2m-.1-.2h.2m0-.1h.2m-.1-.2h.2m-.2-.1h.3m-.1-.2h.5m-.3-.2h.5m-.4-.1h.5m-.3-.2h.5m-.4-.1h.5m-.3-.2h.5m-.5-.2h.6m-.4-.1h.8m-.7-.2h.8m-.6-.1h.8m-.7-.2h.8m-.6-.2h.8m-.7-.1h.8m-.8-.2h1m-.8-.1h.8m-.6-.2h.6m-.5-.2h.5m-.3-.1h.3m-.2-.2h.2m-227 195.4l223.2-191.2-223.2 191.2zm223.2-191.2l29.6-25.4-29.6 25.4zm29.6-25.5h35-35z"/><path fill="#97CCCE" d="M371.1 79.7c-.3-.1-.4-.4-.5-.7-.1-.3-.1-.7.1-1 .2-.5.5-.9 1-1.3s1-.6 1.5-.6h.3l.8-1.2c.1-.1.2-.2.3-.2.1 0 .1 0 .1.1v.3l-.8 1.2c.3.1.4.4.6.7 0 .1.1.3 0 .5 0 .2-.1.4-.1.5-.2.5-.5.9-1 1.3s-1 .6-1.5.6h-.3l-.8 1.3c-.1.1-.2.2-.3.2 0 0-.1 0-.2-.1V81l.8-1.3zm.3-.5l1.8-2.6h-.2c-.4 0-.8.1-1.1.4-.2.1-.3.3-.5.5l-.2.2-.1.2v.1c-.1.3-.1.5-.1.7 0 .2.2.4.4.5zm2.1-2.5l-1.8 2.6h.2c.4 0 .8-.1 1.1-.4.4-.3.6-.6.8-1 .1-.3.1-.5 0-.7.1-.2-.1-.4-.3-.5z"/><text transform="matrix(.9397 0 -.342 .9397 373.671 81.215)" fill="#97CCCE" font-family="'GOSTTypeA'" font-size="10.161">7</text><text transform="matrix(.9397 0 -.342 .9397 377.846 81.215)" fill="#97CCCE" font-family="'GOSTTypeA'" font-size="10.161">,</text><text transform="matrix(.9397 0 -.342 .9397 379.238 81.215)" fill="#97CCCE" font-family="'GOSTTypeA'" font-size="10.161">8</text><text transform="matrix(.9397 0 -.342 .9397 383.413 81.215)" fill="#97CCCE" font-family="'GOSTTypeA'" font-size="10.161">2</text><text transform="matrix(.9397 0 -.342 .9397 389.954 75.924)" fill="#97CCCE" font-family="'GOSTTypeA'" font-size="6.939">+</text><text transform="matrix(.9397 0 -.342 .9397 392.157 75.924)" fill="#97CCCE" font-family="'GOSTTypeA'" font-size="6.939">0</text><text transform="matrix(.9397 0 -.342 .9397 394.94 75.924)" fill="#97CCCE" font-family="'GOSTTypeA'" font-size="6.939">,</text><text transform="matrix(.9397 0 -.342 .9397 395.869 75.924)" fill="#97CCCE" font-family="'GOSTTypeA'" font-size="6.939">0</text><text transform="matrix(.9397 0 -.342 .9397 398.653 75.924)" fill="#97CCCE" font-family="'GOSTTypeA'" font-size="6.939">5</text><path fill="none" stroke="#97CCCE" stroke-miterlimit="10" d="M26.4 290.7l4.5 3.5-4.5-3.5zm4.5 3.5l-.8.2.8-.2zm-.8.1l-.2 1 .2-1zm-.2 1l-3.5-4.6 3.5 4.6zm0-1.1h1-1zm-.2-.2h1m-1.1-.1h1m-1.2-.2h1m-1.1-.2h.8m-1-.1h.8m-1-.2h.8m-.9-.1h.8m-1-.2h.6m-.7-.2h.6m-.8-.1h.6m-.7-.2h.5m-.7-.1h.5m-.7-.2h.5m-.6-.2h.5m-.7-.1h.3m-.4-.2h.3m-.5-.1h.3m-.5-.2h.3m-.4-.1h.1m-.3-.2h.2m-.3-.2h.2m3.1 3.4h1-1zm-.2-.2h1m-1.1-.1h1m-1.2-.2h1m-1.1-.2h.8m-1-.1h.8m-1-.2h.8m-.9-.1h.8m-1-.2h.6m-.7-.2h.6m-.8-.1h.6m-.7-.2h.5m-.7-.1h.5m-.7-.2h.5m-.6-.2h.5m-.7-.1h.3m-.4-.2h.3m-.5-.1h.3m-.5-.2h.3m-.4-.1h.1m-.3-.2h.2m-.3-.2h.2m3.1 4.3h.2-.2zm-.2-.1h.3m-.4-.2h.5m-.7-.1h.6m-.6-.2h.6m-.7-.2h.8m-1-.1h.8m-1-.2h.8m-.8-.1h.6m-.7-.2h.6m-.8-.2h.6m-.7-.1h.6m-.6-.2h.5m-.7-.1h.5m-.6-.2h.5m-.7-.2h.5m-.5-.1h.3m-.5-.2h.3m-.4-.1h.3m-.5-.2h.3m-.3-.2h.2m-.3-.1h.2m-.4-.2h.2m-.4-.1h.2m2.7 3.6h.2-.2zm-.2-.1h.3m-.4-.2h.5m-.7-.1h.6m-.6-.2h.6m-.7-.2h.8m-1-.1h.8m-1-.2h.8m-.8-.1h.6m-.7-.2h.6m-.8-.2h.6m-.7-.1h.6m-.6-.2h.5m-.7-.1h.5m-.6-.2h.5m-.7-.2h.5m-.5-.1h.3m-.5-.2h.3m-.4-.1h.3m-.5-.2h.3m-.3-.2h.2m-.3-.1h.2m-.4-.2h.2m-.4-.1h.2m114.2 114.2l-4.6-3.5 4.6 3.5zm-4.6-3.5l1-.2-1 .2zm.9-.2l.2-1-.2 1zm.2-.9l3.5 4.6-3.5-4.6zm2.7 3.9h.2-.2zm-.1-.1h.2m-.4-.2h.2m-.5-.1h.3m-.5-.2h.3m-.4-.2h.3m-.7-.1h.5m-.6-.2h.5m-.7-.1h.5m-.8-.2h.6m-.8-.1h.6m-.7-.2h.6m-.9-.2h.8m-1-.1h.8m-1-.2h.8m-1.1-.1h1m-1.1-.2h1m-1.2-.2h1m-1.3-.1h1.1m2.7 2.8h.2-.2zm-.1-.1h.2m-.4-.2h.2m-.5-.1h.3m-.5-.2h.3m-.4-.2h.3m-.7-.1h.5m-.6-.2h.5m-.7-.1h.5m-.8-.2h.6m-.8-.1h.6m-.7-.2h.6m-.9-.2h.8m-1-.1h.8m-1-.2h.8m-1.1-.1h1m-1.1-.2h1m-1.2-.2h1m-1.3-.1h1.1m3.3 3.3h.2-.2zm-.1-.1h.2m-.4-.2h.2m-.3-.2h.2m-.4-.1h.3m-.4-.2h.3m-.5-.1h.3m-.5-.2h.3m-.4-.2h.5m-.7-.1h.5m-.6-.2h.5m-.7-.1h.5m-.7-.2h.6m-.7-.1h.6m-.8-.2h.6m-.7-.2h.6m-.8-.1h.8m-1-.2h.8m-.9-.1h.8m-1-.2h.8m-.9-.2h1m-1.2-.1h1m-1.2-.2h1m-.8-.1h.6m-.6-.2h.6m-.6-.2h.5m-.5-.1h.3m-.3-.2h.2m3.1 4.3h.2-.2zm-.1-.1h.2m-.4-.2h.2m-.3-.2h.2m-.4-.1h.3m-.4-.2h.3m-.5-.1h.3m-.5-.2h.3m-.4-.2h.5m-.7-.1h.5m-.6-.2h.5m-.7-.1h.5m-.7-.2h.6m-.7-.1h.6m-.8-.2h.6m-.7-.2h.6m-.8-.1h.8m-1-.2h.8m-.9-.1h.8m-1-.2h.8m-.9-.2h1m-1.2-.1h1m-1.2-.2h1m-.8-.1h.6m-.6-.2h.6m-.6-.2h.5m-.5-.1h.3m-.3-.2h.2M26.4 290.7l115 115-115-115z"/><text transform="matrix(.6645 .6645 -.9063 .4226 78.114 338.249)" fill="#97CCCE" font-family="'GOSTTypeA'" font-size="10.161">4</text><text transform="matrix(.6645 .6645 -.9063 .4226 81.067 341.202)" fill="#97CCCE" font-family="'GOSTTypeA'" font-size="10.161">,</text><text transform="matrix(.6645 .6645 -.9063 .4226 82.05 342.185)" fill="#97CCCE" font-family="'GOSTTypeA'" font-size="10.161">3</text><text transform="matrix(.6645 .6645 -.9063 .4226 90.046 342.7)" fill="#97CCCE" font-family="'GOSTTypeA'" font-size="6.939">+</text><text transform="matrix(.6645 .6645 -.9063 .4226 91.605 344.258)" fill="#97CCCE" font-family="'GOSTTypeA'" font-size="6.939">0</text><text transform="matrix(.6645 .6645 -.9063 .4226 93.573 346.226)" fill="#97CCCE" font-family="'GOSTTypeA'" font-size="6.939">,</text><text transform="matrix(.6645 .6645 -.9063 .4226 94.23 346.882)" fill="#97CCCE" font-family="'GOSTTypeA'" font-size="6.939">2</text><path fill="none" stroke="#97CCCE" stroke-miterlimit="10" d="M140 183.3l-18.1 35.5 18.1-35.5zm0 0h15.9H140zM21.8 229.9l-3.8 6.5 3.8-6.5zm-3.8 6.5l-3.8-6.5 3.8 6.5zm0-6.5V245v-15.1zm-7 28.3V245v13.2zm0-13.2h14-14zm14 0v13.2V245zm0 13.2H11h14z"/><text transform="matrix(.9397 0 -.342 .9397 14.238 254.848)" fill="#97CCCE" font-family="'GOSTTypeA'" font-size="10.161">Æ</text></svg>