<svg xmlns="http://www.w3.org/2000/svg" viewBox="0 0 403.1 422.8"><path fill="#42385D" d="M269.805 343.074l.262.965-9.362 2.54-.262-.965z"/><path fill="#42385D" d="M278.834 339.981l.332.944-9.056 3.187-.332-.943zm8.843-3.737l.38.925-8.881 3.644-.38-.925zm8.817-4.221l.441.898-8.705 4.277-.441-.897z"/><path fill="#42385D" d="M304.657 327.115l.511.86-8.248 4.91-.512-.858zm7.954-5.413l.563.827-7.935 5.403-.563-.827z"/><path fill="#42385D" d="M320.377 315.865l.603.797-7.82 5.908-.602-.798z"/><path fill="#42385D" d="M327.461 309.483l.664.748-7.179 6.373-.664-.747z"/><path fill="#42385D" d="M334.259 302.532l.715.7-6.853 7.005-.715-.699z"/><path fill="#42385D" d="M340.604 295.342l.748.664-6.374 7.179-.747-.664z"/><path fill="#42385D" d="M346.364 287.638l.806.591-5.737 7.821-.807-.591zm5.432-8.061l.832.555-5.38 8.071-.833-.555zm4.67-8.333l.866.5-4.753 8.225-.866-.5z"/><path fill="#42385D" d="M360.634 262.565l.904.428-4.148 8.769-.904-.428z"/><path fill="#42385D" d="M364.268 253.69l.925.38-3.653 8.879-.925-.38z"/><path fill="#42385D" d="M367.225 244.482l.95.31-3.01 9.22-.951-.31z"/><path fill="#42385D" d="M369.344 236.606l.968.252-2.064 7.936-.968-.252zM254.538 344.827l2.26.808-.337.942-2.26-.808z"/><path fill="#42385D" d="M256.642 345.63l2.395.16-.067.998-2.394-.16z"/><path fill="#42385D" d="M260.517 345.59l.1.996-1.592.16-.1-.996zm-61.226-.691l.316.948-2.371.79-.317-.948z"/><path fill="#42385D" d="M197.07 345.659l.066.997-2.395.16-.066-.998z"/><path fill="#42385D" d="M193.369 345.636l1.391.155-.11.993-1.392-.154zm9.231-1.536h2.4v1h-2.4z"/><path fill="#42385D" d="M202.544 344.104l.197.98-2.353.471-.197-.98z"/><path fill="#42385D" d="M200.05 344.628l.37.93-.837.332-.37-.929zm52.03-.422l2.415.644-.257.966-2.416-.644z"/><path fill="#42385D" d="M249.643 344.03l2.394.16-.066.998-2.395-.16z"/><path fill="#42385D" d="M248.8 344.1h.8v1h-.8zm5.738.727l2.26.808-.337.942-2.26-.808z"/><path fill="#42385D" d="M256.642 345.63l2.395.16-.067.998-2.394-.16z"/><path fill="#42385D" d="M260.517 345.59l.1.996-1.592.16-.1-.996zm-61.226-.691l.316.948-2.371.79-.317-.948z"/><path fill="#42385D" d="M197.07 345.659l.066.997-2.395.16-.066-.998z"/><path fill="#42385D" d="M193.369 345.636l1.391.155-.11.993-1.392-.154zm9.231-1.536h2.4v1h-2.4z"/><path fill="#42385D" d="M202.544 344.104l.197.98-2.353.471-.197-.98z"/><path fill="#42385D" d="M200.05 344.628l.37.93-.837.332-.37-.929zm52.03-.422l2.415.644-.257.966-2.416-.644z"/><path fill="#42385D" d="M249.643 344.03l2.394.16-.066.998-2.395-.16z"/><path fill="#42385D" d="M248.8 344.1h.8v1h-.8zm120.723-170.892l.942.336-.807 2.26-.941-.335z"/><path fill="#42385D" d="M369.683 170.973l.998.067-.159 2.395-.998-.067z"/><path fill="#42385D" d="M370.316 169.366l.314 1.569-.98.196-.315-1.569zm-.667 60.949l.79 2.372-.949.316-.79-2.372z"/><path fill="#42385D" d="M370.458 232.904l.16 2.394-.998.067-.16-2.395z"/><path fill="#42385D" d="M369.655 235.196l.976.217-.325 1.464-.976-.216zm-1.77-10.326l.998.067-.16 2.395-.997-.067z"/><path fill="#42385D" d="M368.734 227.195l.645 2.416-.966.257-.645-2.415z"/><path fill="#42385D" d="M369.335 229.536l.334.836-.928.371-.335-.835zm-.613-54.034l.949.316-.79 2.372-.95-.316z"/><path fill="#42385D" d="M367.884 177.97l.997.067-.159 2.394-.998-.066z"/><path fill="#42385D" d="M368.696 180.31l.157.785-.98.196-.158-.784zM197.226 59.528l2.372.79-.317.95-2.371-.791z"/><path fill="#42385D" d="M194.737 59.323l2.395.16-.066.997-2.395-.16z"/><path fill="#42385D" d="M194.544 59.368l.217.977-1.464.325-.217-.977zm61.88.187l.336.942-2.26.806-.336-.941z"/><path fill="#42385D" d="M258.937 59.374l.066.998-2.395.16-.066-.999z"/><path fill="#42385D" d="M259.011 59.332l1.569.313-.196.98-1.569-.313zm-10.173 1.793l2.395.16-.067.997-2.395-.16z"/><path fill="#42385D" d="M253.412 60.678l.258.966-2.415.645-.258-.966z"/><path fill="#42385D" d="M254.166 60.276l.372.929-.836.334-.371-.929zm-54.544.047l2.372.79-.316.95-2.372-.791z"/><path fill="#42385D" d="M201.837 61.12l2.395.16-.067.997-2.394-.16z"/><path fill="#42385D" d="M204.87 61.074l.197.98-.784.158-.198-.98zM84.144 230.303l.948.316-.79 2.372-.95-.317z"/><path fill="#42385D" d="M83.28 232.868l.998.066-.16 2.395-.997-.066z"/><path fill="#42385D" d="M84.146 235.197l.155 1.392-.994.11-.154-1.391zm.154-62.019l.806 2.26-.941.336-.808-2.26z"/><path fill="#42385D" d="M84.174 171.033l.16 2.394-.998.067-.16-2.395z"/><path fill="#42385D" d="M83.282 169.345l.995.1-.16 1.592-.994-.1zM84.9 178.8h1v2.4h-1z"/><path fill="#42385D" d="M85.443 176.358l.47 2.354-.98.196-.47-2.353z"/><path fill="#42385D" d="M85.13 175.478l.335.835-.929.372-.334-.836zm-.395 52.53l.966.258-.645 2.416-.966-.258z"/><path fill="#42385D" d="M84.883 225.668l.998.067-.16 2.395-.997-.067z"/><path fill="#42385D" d="M84.9 224.9h1v.8h-1zm-.592 11.633l2.538 9.362-.965.261-2.539-9.361zm2.575 9.43l3.178 9.059-.943.33-3.179-9.058z"/><path fill="#42385D" d="M90.02 254.973l3.666 9.087-.927.374-3.667-9.087z"/><path fill="#42385D" d="M93.71 264.035l4.294 8.587-.894.447-4.294-8.586z"/><path fill="#42385D" d="M97.918 272.617l4.916 8.245-.859.512-4.916-8.245z"/><path fill="#42385D" d="M102.892 280.82l5.38 8.07-.831.555-5.381-8.071zm5.38 8.085l5.861 7.603-.792.61-5.86-7.603z"/><path fill="#42385D" d="M114.105 296.463l6.377 7.175-.747.664-6.377-7.175z"/><path fill="#42385D" d="M120.44 303.642l7.008 6.85-.699.716-7.009-6.85z"/><path fill="#42385D" d="M127.45 310.445l7.175 6.377-.664.748-7.175-6.377z"/><path fill="#42385D" d="M134.597 316.804l7.822 5.905-.603.798-7.821-5.905z"/><path fill="#42385D" d="M142.337 322.692l8.145 5.27-.544.84-8.144-5.27z"/><path fill="#42385D" d="M150.389 327.893l8.229 4.748-.5.866-8.229-4.748zm8.264 4.703l8.708 4.274-.44.897-8.709-4.273zm8.701 4.314l8.88 3.648-.38.925-8.88-3.648z"/><path fill="#42385D" d="M176.197 340.582l9.218 3.018-.311.95-9.218-3.018zm9.26 3.005l7.936 2.064-.252.968-7.936-2.064zm7.644-283.883l.262.965-9.361 2.54-.262-.966z"/><path fill="#42385D" d="M183.724 62.172l.317.948-9.107 3.039-.316-.949z"/><path fill="#42385D" d="M174.638 65.28l.387.921-9.033 3.8-.388-.922zm-9.158 3.768l.446.894-8.586 4.293-.447-.894z"/><path fill="#42385D" d="M156.924 73.362l.5.867-8.229 4.749-.5-.867zm-8.313 4.792l.555.832-8.071 5.38-.555-.832zm-8.096 5.479l.61.792-7.604 5.86-.61-.792zm-7.688 5.917l.674.738-7.17 6.534-.673-.739z"/><path fill="#42385D" d="M125.653 96.092l.707.707-6.859 6.859-.707-.708z"/><path fill="#42385D" d="M118.77 102.985l.754.656-6.364 7.32-.755-.655z"/><path fill="#42385D" d="M112.339 110.271l.792.61-5.86 7.605-.792-.61z"/><path fill="#42385D" d="M106.52 117.926l.84.543-5.266 8.146-.84-.543z"/><path fill="#42385D" d="M101.245 126.098l.87.493-4.775 8.442-.87-.492zm-4.875 8.466l.898.441-4.273 8.708-.898-.44z"/><path fill="#42385D" d="M92.079 143.26l.925.38-3.648 8.88-.925-.38zm-3.65 9.014l.95.312-3.022 9.217-.95-.312z"/><path fill="#42385D" d="M85.444 161.525l.966.257-2.08 7.828-.966-.257zm282.346-1.628l2.538 9.361-.965.262-2.538-9.362z"/><path fill="#42385D" d="M364.748 150.845l3.036 9.108-.949.316-3.036-9.108zm-3.836-8.999l3.821 8.915-.919.394-3.82-8.915zm-4.34-8.758l4.274 8.707-.897.441-4.274-8.708z"/><path fill="#42385D" d="M351.806 124.842l4.748 8.229-.866.5-4.749-8.23z"/><path fill="#42385D" d="M346.36 116.86l5.399 7.938-.827.563-5.398-7.939z"/><path fill="#42385D" d="M340.456 108.989l5.905 7.821-.798.603-5.906-7.821z"/><path fill="#42385D" d="M333.97 101.81l6.533 7.17-.74.673-6.532-7.17z"/><path fill="#42385D" d="M327.072 94.939l6.859 6.859-.707.707-6.859-6.86z"/><path fill="#42385D" d="M319.745 88.539l7.32 6.365-.657.754-7.32-6.365zm-7.719-5.699l7.6 5.7-.6.8-7.6-5.7zm-8.105-5.471l8.072 5.38-.555.833-8.071-5.38z"/><path fill="#42385D" d="M295.495 72.59l8.442 4.78-.493.87-8.442-4.779z"/><path fill="#42385D" d="M286.676 68.475l8.77 4.146-.428.904-8.77-4.145zm-8.943-3.674l8.88 3.648-.38.925-8.88-3.648z"/><path fill="#42385D" d="M268.508 61.707l9.218 3.02-.312.95-9.218-3.02z"/><path fill="#42385D" d="M260.673 59.671l7.829 2.077-.256.966-7.83-2.076zM84.195 203.174l.316 9.494-1 .034-.316-9.495z"/><path fill="#42385D" d="M84.45 212.589l.95 9.352-.995.1-.95-9.351zm.977 9.376l.477 2.86-.986.165-.477-2.86zm284.713-28.438l.317 9.494-1 .033-.316-9.494z"/><path fill="#42385D" d="M369.241 184.005l.955 9.552-.995.1-.955-9.553z"/><path fill="#42385D" d="M368.903 181.14l.32 2.882-.993.11-.32-2.882zM52.9 199.8h1v5.6h-1z"/><path fill="#42385D" d="M53.26 191.489l1 .038-.316 8.294-1-.038z"/><path fill="#42385D" d="M54.176 180.377l.996.085-.951 11.16-.997-.085zm1.634-11.989l.99.131-1.581 11.896-.991-.132z"/><path fill="#42385D" d="M57.84 156.294l.986.17-2.078 12.122-.986-.169z"/><path fill="#42385D" d="M60.747 144.349l.972.233-2.87 11.96-.972-.233z"/><path fill="#42385D" d="M64.079 133.198l.958.287-3.33 11.112-.958-.288zm3.686-10.253l.942.338-3.649 10.165-.94-.338z"/><path fill="#42385D" d="M71.714 113.895l.916.402-3.973 9.067-.916-.401zm4.209-8.325l.895.447-4.114 8.229-.895-.447zm4.324-7.228l.857.515-4.271 7.117-.857-.515z"/><path fill="#42385D" d="M83.403 93.7l.824.568-3.178 4.61-.824-.567z"/><path fill="#42385D" d="M88.052 87.772l.787.617-4.628 5.902-.787-.617z"/><path fill="#42385D" d="M93.318 81.979l.746.666-5.26 5.893-.746-.666z"/><path fill="#42385D" d="M99.584 75.988l.688.726-6.239 5.92-.688-.726z"/><path fill="#42385D" d="M106.538 70.138l.644.766-6.966 5.854-.644-.765z"/><path fill="#42385D" d="M114.39 64.372l.592.806-7.817 5.743-.592-.806zm8.828-5.907l.558.83-8.71 5.862-.559-.83z"/><path fill="#42385D" d="M132.697 52.894l.503.863-9.503 5.541-.503-.864z"/><path fill="#42385D" d="M143.03 47.432l.464.886-10.366 5.427-.463-.886z"/><path fill="#42385D" d="M153.905 42.503l.415.91-10.828 4.937-.415-.91z"/><path fill="#42385D" d="M165.235 38.24l.356.935-11.31 4.301-.355-.935z"/><path fill="#42385D" d="M176.38 34.398l.323.946-11.163 3.824-.324-.946zm10.712-2.874l.26.966-10.623 2.856-.26-.965z"/><path fill="#42385D" d="M197.255 29.27l.214.976-10.159 2.225-.214-.977z"/><path fill="#42385D" d="M206.705 27.85l.15.99-9.39 1.428-.151-.989zm8.83-.753l.09.996-8.765.79-.09-.995z"/><path fill="#42385D" d="M223.637 26.896l.02 1-8.099.158-.02-1z"/><path fill="#42385D" d="M223.6 26.9h3.3v1h-3.3zm3.448-.014l7.272.632-.086.996-7.273-.632zm7.347.66l7.922 1.108-.138.99-7.923-1.108z"/><path fill="#42385D" d="M242.322 28.637l8.282 1.911-.224.975-8.283-1.911zm8.388 1.91l8.78 2.396-.264.964-8.78-2.395z"/><path fill="#42385D" d="M259.438 32.928l9.376 3.178-.321.947-9.376-3.178zm9.437 3.231l9.716 3.981-.38.926-9.715-3.982z"/><path fill="#42385D" d="M278.546 40.163l10.141 4.754-.424.906-10.142-4.755zm10.236 4.721l10.535 5.746-.479.878-10.535-5.746z"/><path fill="#42385D" d="M299.3 50.705l10.647 6.356-.512.859-10.647-6.356z"/><path fill="#42385D" d="M309.957 56.965l10.483 6.99-.555.832-10.483-6.99zm10.547 7.075l9.878 7.329-.596.803-9.878-7.328z"/><path fill="#42385D" d="M330.371 71.42l9.245 7.65-.638.771-9.245-7.65z"/><path fill="#42385D" d="M339.643 79.029l8.303 7.664-.678.735-8.303-7.664z"/><path fill="#42385D" d="M347.889 86.674l7.133 7.291-.715.7-7.133-7.291zm7.228 7.322l6.379 7.175-.748.665-6.378-7.175z"/><path fill="#42385D" d="M361.47 101.183l5.22 6.96-.8.6-5.22-6.96zm5.267 7.072l3.846 5.608-.825.565-3.845-5.608z"/><path fill="#42385D" d="M370.563 113.782l3.99 6.702-.86.512-3.99-6.703zm3.989 6.79l3.801 7.602-.894.447-3.801-7.602z"/><path fill="#42385D" d="M378.385 128.184l3.836 8.472-.91.413-3.837-8.472z"/><path fill="#42385D" d="M382.24 136.659l3.494 9.37-.937.35-3.494-9.37z"/><path fill="#42385D" d="M385.71 146.06l3.19 10.214-.954.298-3.191-10.213z"/><path fill="#42385D" d="M388.972 156.28l3.013 11.098-.966.262-3.013-11.098z"/><path fill="#42385D" d="M391.932 167.397l2.536 11.729-.978.211-2.535-11.729zm2.557 11.859l1.908 12.252-.988.154-1.908-12.252z"/><path fill="#42385D" d="M396.412 191.49l1.426 12.52-.993.113-1.427-12.52z"/><path fill="#42385D" d="M397.848 204.07l.638 12.284-.998.052-.639-12.284z"/><path fill="#42385D" d="M398.508 216.37l.16 11.8-1 .013-.16-11.799z"/><path fill="#42385D" d="M397.631 228.084l.998.058-.644 10.982-.999-.059zm-.682 11.003l.994.11-1.116 10.138-.994-.11z"/><path fill="#42385D" d="M395.906 249.193l.988.155-1.435 9.188-.988-.154zm-1.463 9.231l.972.234-2.061 8.556-.973-.235z"/><path fill="#42385D" d="M392.421 266.93l.957.293-2.4 7.84-.957-.292z"/><path fill="#42385D" d="M390.016 274.646l.93.367-2.718 6.883-.93-.368z"/><path fill="#42385D" d="M387.422 281.362l.707.708-.141.141-.707-.707z"/><path fill="#42385D" d="M387.165 281.716l.904.428-2.865 6.056-.904-.427z"/><path fill="#42385D" d="M384.403 287.674l.873.488-3.807 6.808-.873-.488zm-3.824 6.806l.826.563-4.784 7.026-.826-.563zm-4.799 7.032l.798.603-5.425 7.18-.798-.602z"/><path fill="#42385D" d="M370.352 308.634l.768.64-6.344 7.601-.768-.64z"/><path fill="#42385D" d="M364.063 316.242l.73.685-7.322 7.802-.73-.684zm-7.321 7.816l.685.728-8.302 7.812-.686-.728z"/><path fill="#42385D" d="M348.47 331.77l.66.751-9.093 7.983-.66-.752z"/><path fill="#42385D" d="M339.435 339.684l.612.791-9.89 7.644-.612-.791z"/><path fill="#42385D" d="M329.568 347.356l.582.814-10.008 7.151-.58-.813z"/><path fill="#42385D" d="M319.545 354.431l.533.846-9.897 6.24-.533-.846z"/><path fill="#42385D" d="M309.8 360.701l.476.88-9.67 5.243-.477-.879zm-9.698 5.226l.448.895-8.944 4.472-.448-.895z"/><path fill="#42385D" d="M291.206 370.345l.383.924-8.406 3.483-.383-.923z"/><path fill="#42385D" d="M282.868 373.817l.322.946-7.953 2.706-.322-.947zm-8.013 2.653l.266.964-6.363 1.751-.266-.964z"/><path fill="#42385D" d="M268.593 378.248l.183.983-5.111.955-.184-.983zm-5.123.926l.107.994-5.866.634-.107-.994z"/><path fill="#42385D" d="M251.3 379.8h6.4v1h-6.4z"/><path fill="#42385D" d="M244.347 379.37l6.984.476-.068.998-6.984-.477z"/><path fill="#42385D" d="M236.789 378.441l7.64.955-.123.993-7.641-.955z"/><path fill="#42385D" d="M228.396 376.825l8.451 1.594-.185.983-8.451-1.595zm-9.429-2.24l9.34 2.216-.23.973-9.341-2.216z"/><path fill="#42385D" d="M208.645 371.595l10.365 3.03-.28.96-10.366-3.03z"/><path fill="#42385D" d="M197.056 367.816l11.59 3.81-.312.95-11.59-3.81zm-13.332-4.944l13.322 4.917-.346.938-13.322-4.916z"/><path fill="#42385D" d="M168.344 356.463l15.44 6.366-.382.924-15.44-6.366z"/><path fill="#42385D" d="M152.25 349.352l16.076 7.163-.407.913-16.076-7.163z"/><path fill="#42385D" d="M138.958 342.986l13.363 6.362-.43.903-13.363-6.363zm-10.699-5.276l10.675 5.258-.442.897-10.675-5.257z"/><path fill="#42385D" d="M119.519 333.148l8.758 4.618-.467.884-8.757-4.617z"/><path fill="#42385D" d="M112.236 329.174l7.293 3.963-.478.879-7.292-3.964zm-6.381-3.391l6.374 3.346-.464.886-6.375-3.347z"/><path fill="#42385D" d="M100.612 322.94l5.267 2.873-.479.878-5.267-2.874z"/><path fill="#42385D" d="M96.203 320.39l4.428 2.53-.496.869-4.428-2.53zm-3.719-2.26l3.673 2.236-.52.854-3.673-2.235z"/><path fill="#42385D" d="M89.455 316.553l3.008 1.583-.465.885-3.01-1.583z"/><path fill="#42385D" d="M87.307 315.17l2.187 1.405-.541.841-2.187-1.406zm-1.837-1.009l1.755.958-.478.878-1.756-.958z"/><path fill="#42385D" d="M84.589 313.562l.915.61-.555.832-.915-.61z"/><path fill="#42385D" d="M84.094 313.334l.5.333-.556.832-.499-.333z"/><path fill="#42385D" d="M83.7 313.2h.2v1h-.2z"/><path fill="#42385D" d="M83.2 313.4h1v.3h-1z"/><path fill="#42385D" d="M83.637 312.188l.492.984-.895.447-.492-.984z"/><path fill="#42385D" d="M83.023 310.78l.65 1.463-.914.406-.65-1.462zm-.871-2.074l.79 2.054-.934.359-.79-2.054z"/><path fill="#42385D" d="M81.124 305.916l1.123 2.89-.932.361-1.123-2.889zm-1.445-3.582l1.439 3.517-.926.379-1.439-3.517z"/><path fill="#42385D" d="M78.083 298.05l1.597 4.314-.938.347-1.597-4.314z"/><path fill="#42385D" d="M76.219 292.853l1.914 5.263-.94.341-1.914-5.262zm-2.251-6.23l2.229 6.212-.941.338-2.23-6.212zm-2.774-7.327l2.704 7.317-.938.346-2.704-7.316z"/><path fill="#42385D" d="M68.197 270.286l3.035 9.108-.948.316-3.036-9.107z"/><path fill="#42385D" d="M64.567 258.988l3.667 11.32-.951.309-3.668-11.32z"/><path fill="#42385D" d="M60.493 244.256l4.147 14.832-.963.269-4.147-14.832zm-3.185-13.033l3.176 13.018-.972.237-3.176-13.018zm-1.787-9.427l1.742 9.34-.983.183-1.742-9.34z"/><path fill="#42385D" d="M54.393 214.37l1.12 7.517-.99.148-1.12-7.518z"/><path fill="#42385D" d="M53.9 208.05l.48 6.381-.997.075-.48-6.382z"/><path fill="#42385D" d="M52.9 205.4h1v2.7h-1zm32.058-24.227l.994.116-1.116 9.535-.993-.116z"/><path fill="#42385D" d="M83.82 190.68l.999.066-.638 9.579-.997-.066z"/><path fill="#42385D" d="M83.2 200.3h1v2.9h-1zM239.3 59.958l9.535 1.113-.116.993-9.536-1.112z"/><path fill="#42385D" d="M229.744 59.466l9.588.48-.05.998-9.588-.48zm-.068-.004l.018 1-9.498.167-.018-1zm-9.581.222l.066.998-9.578.637-.067-.998z"/><path fill="#42385D" d="M210.495 60.29l.14.99-5.544.788-.14-.99zM368.96 215.471l.993.118-1.114 9.434-.993-.117z"/><path fill="#42385D" d="M369.44 205.977l1 .051-.488 9.587-1-.05z"/><path fill="#42385D" d="M369.5 203.1h1v2.9h-1zM205.085 344.034l9.434 1.12-.118.992-9.433-1.119z"/><path fill="#42385D" d="M214.447 345.189l9.578.639-.066.997-9.579-.639zm19.111.407l.018 1-9.498.167-.018-1z"/><path fill="#42385D" d="M242.95 344.881l.085.997-9.567.806-.084-.996z"/><path fill="#42385D" d="M248.67 344.064l.138.991-5.746.793-.137-.99zm121.47-150.537l.317 9.494-1 .033-.316-9.494z"/><path fill="#42385D" d="M369.241 184.005l.955 9.552-.995.1-.955-9.553z"/><path fill="#42385D" d="M367.579 174.627l1.587 9.366-.986.168-1.587-9.367z"/><path fill="#42385D" d="M365.34 165.385l2.23 9.235-.973.235-2.228-9.235zm-2.638-9.346l2.7 9.212-.959.281-2.7-9.212z"/><path fill="#42385D" d="M359.086 147.108l3.51 8.936-.93.365-3.51-8.936z"/><path fill="#42385D" d="M355.182 138.549l3.991 8.62-.907.421-3.991-8.621zm-4.617-8.502l4.61 8.42-.878.48-4.609-8.42z"/><path fill="#42385D" d="M345.488 121.942l5.103 8.132-.847.531-5.103-8.132zm-5.672-7.661l5.538 7.595-.808.59-5.538-7.596z"/><path fill="#42385D" d="M333.591 106.897l6.209 7.323-.763.647-6.208-7.323z"/><path fill="#42385D" d="M326.898 100.027l6.707 6.868-.715.699-6.708-6.868z"/><path fill="#42385D" d="M319.896 93.624l7.03 6.39-.673.74-7.03-6.39z"/><path fill="#42385D" d="M312.39 87.57l7.465 6.035-.628.778-7.465-6.036z"/><path fill="#42385D" d="M304.533 82.164l7.805 5.415-.57.822-7.805-5.416z"/><path fill="#42385D" d="M296.286 77.388l8.23 4.747-.5.866-8.23-4.747zm-8.5-4.484l8.4 4.438-.467.884-8.4-4.437z"/><path fill="#42385D" d="M278.854 69.2l8.88 3.647-.38.925-8.88-3.647z"/><path fill="#42385D" d="M269.957 66.043l8.947 3.195-.336.942-8.947-3.195z"/><path fill="#42385D" d="M260.718 63.464l9.254 2.553-.266.964-9.254-2.553z"/><path fill="#42385D" d="M251.288 61.56l9.407 1.914-.2.98-9.406-1.913zm-9.484-1.29l9.414 1.276-.135.99-9.413-1.276z"/><path fill="#42385D" d="M232.247 59.5l9.566.797-.083.997-9.566-.797z"/><path fill="#42385D" d="M222.7 59.5h9.5v1h-9.5z"/><path fill="#42385D" d="M222.678 59.477l.066.998-9.579.638-.066-.998z"/><path fill="#42385D" d="M213.09 60.079l.135.99-9.413 1.28-.135-.99z"/><path fill="#42385D" d="M203.67 61.436l.183.983-9.338 1.743-.184-.983z"/><path fill="#42385D" d="M194.288 63.205l.266.964-9.256 2.55-.265-.963z"/><path fill="#42385D" d="M185.005 65.697l.316.949-9.106 3.038-.317-.948z"/><path fill="#42385D" d="M175.9 68.743l.386.922-8.765 3.665-.385-.923z"/><path fill="#42385D" d="M167.11 72.379l.447.894-8.586 4.293-.447-.894zm-8.643 4.361l.5.867-8.228 4.749-.5-.866z"/><path fill="#42385D" d="M150.204 81.552l.57.822-7.803 5.419-.57-.822z"/><path fill="#42385D" d="M142.37 87.003l.611.792-7.604 5.86-.61-.792z"/><path fill="#42385D" d="M134.663 92.841l.672.74-7.03 6.39-.672-.74z"/><path fill="#42385D" d="M127.711 99.228l.716.699-6.709 6.867-.715-.698z"/><path fill="#42385D" d="M121.007 106.145l.756.655-6.223 7.179-.755-.655z"/><path fill="#42385D" d="M114.789 113.256l.8.6-5.698 7.601-.8-.6zm-5.804 7.734l.84.542-5.266 8.146-.84-.543z"/><path fill="#42385D" d="M103.788 129.076l.873.487-4.63 8.295-.873-.487z"/><path fill="#42385D" d="M99.137 137.363l.901.433-4.118 8.562-.901-.434zm-4.161 8.688l.93.366-3.506 8.936-.931-.365z"/><path fill="#42385D" d="M91.454 154.957l.953.3-2.858 9.06-.954-.3z"/><path fill="#42385D" d="M88.633 164.035l.973.23-2.214 9.342-.973-.23zm-2.25 9.455l.983.183-1.743 9.338-.983-.183z"/><path fill="#42385D" d="M84.587 182.863l.995.101-.954 9.351-.995-.101zm-.944 9.426l.999.05-.478 9.588-.999-.05z"/><path fill="#42385D" d="M84.222 201.9l.317 9.495-1 .033-.316-9.494z"/><path fill="#42385D" d="M84.483 211.379l.797 9.566-.997.083-.797-9.566z"/><path fill="#42385D" d="M85.236 220.871l1.588 9.366-.986.167-1.588-9.366zm1.656 9.366l2.065 9.375-.976.215-2.066-9.375zm1.998 9.397l2.715 9.104-.959.286-2.715-9.104z"/><path fill="#42385D" d="M91.572 248.628l3.51 8.935-.93.366-3.51-8.935z"/><path fill="#42385D" d="M95.094 257.516l3.8 8.707-.917.4-3.8-8.707zm3.787 8.751l4.608 8.422-.877.48-4.608-8.422z"/><path fill="#42385D" d="M103.55 274.61l4.934 8.118-.855.52-4.934-8.119z"/><path fill="#42385D" d="M108.406 282.685l5.7 7.6-.8.6-5.7-7.6z"/><path fill="#42385D" d="M114.074 290.293l6.036 7.465-.778.629-6.035-7.465zm6.082 7.444l6.556 6.875-.724.69-6.556-6.875z"/><path fill="#42385D" d="M126.642 304.563l7.023 6.544-.682.732-7.023-6.545z"/><path fill="#42385D" d="M133.597 311.062l7.465 6.035-.629.778-7.465-6.036z"/><path fill="#42385D" d="M141.048 317.062l7.805 5.415-.57.822-7.805-5.415zm7.78 5.464l8.118 4.936-.52.854-8.117-4.935z"/><path fill="#42385D" d="M156.867 327.415l8.4 4.438-.467.884-8.4-4.437zm8.447 4.395l8.707 3.8-.4.916-8.707-3.8zm8.732 3.834l9.058 3.179-.331.943-9.059-3.178z"/><path fill="#42385D" d="M183.01 338.854l9.212 2.7-.281.96-9.213-2.7z"/><path fill="#42385D" d="M192.17 341.536l9.204 1.905-.203.98-9.204-1.906zm9.288 1.859l9.594 1.438-.149.989-9.593-1.438z"/><path fill="#42385D" d="M210.958 344.796l9.366.794-.084.997-9.366-.794z"/><path fill="#42385D" d="M220.3 345.6h9.5v1h-9.5zm19.09-.458l.051 1-9.587.487-.051-.999z"/><path fill="#42385D" d="M248.89 344.072l.114.993-9.535 1.105-.115-.993z"/><path fill="#42385D" d="M258.218 342.29l.183.982-9.338 1.745-.184-.983zm9.233-2.382l.25.969-9.199 2.374-.25-.969z"/><path fill="#42385D" d="M276.47 336.93l.316.949-9.107 3.035-.317-.949z"/><path fill="#42385D" d="M285.196 333.252l.387.922-8.76 3.674-.387-.922z"/><path fill="#42385D" d="M293.75 329.209l.433.9-8.559 4.123-.434-.901zm8.255-4.843l.5.866-8.225 4.753-.5-.866zm7.945-5.232l.55.834-7.926 5.235-.551-.834z"/><path fill="#42385D" d="M317.528 313.279l.612.79-7.596 5.871-.611-.791z"/><path fill="#42385D" d="M324.68 306.949l.664.748-7.178 6.373-.664-.748z"/><path fill="#42385D" d="M331.264 300.314l.707.707-6.647 6.647-.707-.707z"/><path fill="#42385D" d="M337.46 293.12l.756.654-6.218 7.183-.756-.654z"/><path fill="#42385D" d="M343.31 285.585l.79.611-5.87 7.596-.791-.612zm5.28-7.954l.835.551-5.235 7.927-.835-.551z"/><path fill="#42385D" d="M353.192 269.351l.873.487-4.622 8.299-.874-.487z"/><path fill="#42385D" d="M357.305 260.885l.9.434-4.121 8.56-.901-.435zm3.641-8.883l.925.38-3.653 8.878-.925-.38zm3.011-9.119l.95.316-3.036 9.107-.95-.316z"/><path fill="#42385D" d="M366.129 233.73l.972.235-2.226 9.236-.972-.234zm1.759-9.339l.983.184-1.745 9.338-.983-.183zm1.058-9.548l.993.115-1.105 9.536-.993-.115z"/><path fill="#42385D" d="M369.439 205.377l.999.05-.488 9.588-.999-.05zm.061-2.277h1v2.2h-1zM197.9 13.2c.3 0 .4.2.3.5l-.3.9c0 .1-.1.2-.3.3s-.3.2-.4.2-.2 0-.3-.1c-.1-.1-.1-.2 0-.3l.2-.5h-5.7l-.2.5c0 .1-.1.2-.3.3s-.3.2-.4.2-.2 0-.3-.1c-.1-.1-.1-.2 0-.3l.3-.9c.1-.3.3-.5.6-.5h.5l5.4-12c0-.1.1-.2.2-.3l.2-.1h4c.3 0 .4.2.3.5l-4.3 11.8.5-.1zm-5.2 0h3.7l4.1-11.3h-2.9l-4.9 11.3zm14.4-3.3h-5.7c-.1 0-.2 0-.3-.1v-.3c0-.1.1-.2.2-.3.1-.1.3-.2.4-.2h5.7c.1 0 .2.1.3.2.1.1.1.2 0 .3s-.1.2-.2.3c-.1.1-.3.1-.4.1zm7.5 3.3c.3 0 .4.2.3.5l-.3.9c0 .1-.1.2-.3.3s-.3.2-.4.2-.2 0-.3-.1c-.1-.1-.1-.2 0-.3l.2-.5h-5.7l-.2.5c0 .1-.1.2-.3.3s-.3.2-.4.2-.2 0-.3-.1c-.1-.1-.1-.2 0-.3l.3-.9c.1-.3.3-.5.6-.5h.5l5.2-11.8c0-.1.1-.2.2-.3l.2-.1h4c.3 0 .4.2.3.5l-4.3 11.8.7-.3zm-5.2 0h3.7l4.1-11.3h-2.9l-4.9 11.3zm9 1.3v.1c0 .1-.1.2-.3.3s-.3.1-.4.1c-.1 0-.2 0-.2-.1-.1 0-.1-.1-.1-.3.1-1.1.3-2.3.6-3.5l.2-1 .1-.5.1-.4.1-.4.1-.3.4-1.2c.9-2.4 2.1-4.8 3.6-7.2 0-.1.1-.2.2-.2.1-.1.2-.1.3-.1.1 0 .2 0 .3.1.1.1.1.2 0 .3l-.1.1c-.3.5-.6 1.1-1 1.6-.3.6-.6 1.2-1 1.8l-.2 1.3c-.2.3-.3.6-.4.8l-.4.9-.3.8c-.4 1.2-.8 2.4-1.1 3.5-.1.5-.2 1.1-.3 1.7l-.1.9-.1.9zm8.1-.3h-5.6c-.1 0-.2-.1-.3-.2v-.4c0-.1.1-.2.1-.2l8-7.8.3-.4.3-.3c.2-.2.3-.5.4-.7.2-.6.2-1.2-.2-1.6-.2-.2-.4-.4-.6-.5-.3-.1-.6-.2-.9-.2-.4 0-.9.1-1.3.4-.5.2-.9.7-1.4 1.2l-.2.2c-.1 0-.2.1-.3.1-.1 0-.2 0-.3-.1-.1-.1-.1-.2 0-.3l.1-.2c.5-.8 1.2-1.3 1.9-1.7.6-.3 1.3-.5 1.9-.5.9 0 1.6.3 2.1.9.5.6.6 1.4.3 2.3-.1.3-.3.6-.5.9-.2.3-.5.6-.9 1l-7.3 7.1h4.8c.1 0 .2 0 .3.2.1.1.1.2 0 .3s-.1.2-.2.3c-.2.1-.3.2-.5.2zm9.9-2.9c-.3.8-.8 1.4-1.6 2-.8.6-1.5.8-2.3.8h-.9c-.7 0-1.3-.3-1.7-.8-.4-.5-.4-1.2-.1-2l2.7-7.6c.3-.8.8-1.4 1.5-2 .8-.6 1.5-.8 2.3-.8h.9c.8 0 1.3.3 1.7.8.4.6.4 1.2.1 2l-2.6 7.6zm-.9 0l2.7-7.6c.2-.5.2-1-.1-1.3-.2-.4-.6-.6-1.1-.6h-1c-.5 0-1 .2-1.5.6-.5.4-.8.8-1 1.3l-2.7 7.6c-.2.5-.2 1 .1 1.3.2.4.6.6 1.1.6h.9c.5 0 1-.2 1.5-.5s.9-.8 1.1-1.4zm3.9-1.2c.1.1.1.2 0 .3 0 .1-.1.2-.2.3-.1.1-.3.2-.4.2-.1 0-.2 0-.3-.1v-.3c0-.1.1-.2.2-.3.1-.1.3-.2.4-.2.1-.1.2 0 .3.1zm1.7-4.8c.1.1.1.2 0 .3s-.1.3-.2.4c-.1.1-.3.2-.4.2-.1 0-.2 0-.3-.1v-.3c0-.1.1-.2.2-.3.1-.1.3-.2.4-.2.1-.1.2-.1.3 0zm2.7 8.4c-.1.2-.1.3-.3.4-.1.1-.2.1-.4.1-.1 0-.2 0-.3-.1-.1-.1-.1-.2 0-.4l4.1-11.1-2.8 2c-.1.1-.3.1-.4.1-.1 0-.2 0-.3-.1s-.1-.2 0-.3c0-.1.1-.2.3-.3l3.9-2.8c.1-.1.2-.1.4-.1.1 0 .2 0 .3.1.1.1.1.2 0 .3l-4.5 12.2zm2.3 1c-.1.1-.1.2-.2.3-.1.1-.2.1-.3.1-.1 0-.2 0-.3-.1-.1-.1-.1-.2 0-.3l.1-.1c.3-.5.7-1.1 1-1.6s.6-1.2 1-1.8l.4-.9.2-.5.1-.4.2-.5.3-.6.2-.6c.4-1.1.8-2.3 1-3.5.1-.6.3-1.2.3-1.7l.1-.9.1-.8V.7c0-.1.1-.2.3-.3.1-.1.3-.1.4-.1.1 0 .1 0 .2.1.1 0 .1.1.1.3-.2 2.4-.8 4.8-1.7 7.2-.7 2-1.9 4.4-3.5 6.8zm67.572 300.46l1.914 5.262-.94.342-1.914-5.263z"/><path fill="#42385D" d="M313.434 314.804l.836.334-.372.929-.835-.334z"/><path fill="#42385D" d="M314.29 314.58l.708.707-.637.636-.707-.707z"/><path fill="#42385D" d="M315.187 314.937l.479 5.58-.997.085-.478-5.58z"/><path fill="#42385D" d="M315.1 320.6h-.2v-1.2h.2v1.2zm-.2-.5h-.2v-1.3h.2v1.3zm-.1-.5h-.2v-.3h-.2v-.5h-.2v-.5h-.2v-.8h-.2v-.5h-.2v-.5h-.2v-.5h-.2v-1.2h.3v.2h.3v.2h.2v.6h.2v.6h.2v.8h.2v.6h.2v1.8z"/><path fill="#42385D" d="M315.1 320.6h-.2v-1.2h.2v1.2zm-.2-.5h-.2v-1.3h.2v1.3zm-.1-.5h-.2v-.3h-.2v-.5h-.2v-.5h-.2v-.8h-.2v-.5h-.2v-.5h-.2v-.5h-.2v-1.2h.3v.2h.3v.2h.2v.6h.2v.6h.2v.8h.2v.6h.2v1.8z"/><path fill="#42385D" d="M315.1 320.2h-.2v-.6h-.1v-.8h-.2v-.6h-.1v-.8h-.2v-.7h-.2v-.6h-.1v-1h.1v-.2h.2v-.1h.2v-.2h.3v1.8h.1v1.9h.2z"/><path fill="#42385D" d="M315.1 320.2h-.2v-.6h-.1v-.8h-.2v-.6h-.1v-.8h-.2v-.7h-.2v-.6h-.1v-1h.1v-.2h.2v-.1h.2v-.2h.3v1.8h.1v1.9h.2z"/><path fill="#42385D" d="M309.408 291.818l6.203 28.635-.977.211-6.203-28.634z"/><path fill="#42385D" d="M265.6 291.4h43.3v1h-43.3z"/><path fill="#42385D" d="M268.953 285.13l3.67 6.542-.873.49-3.669-6.542z"/><path fill="#42385D" d="M278.881 279.513l.86.51-7.13 12.048-.86-.51zm.419.287h31.5-31.5zm4.1 6.4l.5 2.5v.1c0 .1-.1.1-.1.2-.1 0-.1.1-.2.1h-.1s0-.1-.1-.1l-.6-2.7h-.8l-.9 2.6c0 .1-.1.1-.1.2-.1 0-.1.1-.2.1 0 0-.1 0-.1-.1v-.2l2.2-6.1c.1-.2.2-.2.3-.2h1.6c.4 0 .7.1.8.4.2.3.2.6.1 1l-.3.9c-.1.4-.4.7-.8 1s-.8.3-1.2.3zm-1.2-.5h1.4c.3 0 .5-.1.8-.3.3-.2.4-.4.5-.7l.3-.9c.1-.3.1-.5 0-.7-.1-.2-.3-.3-.6-.3h-1.4l-1 2.9zm5.8 2.8c.1 0 .1.1.1.2s-.1.1-.1.2c-.1 0-.1.1-.2.1h-.1c-.1 0-.1-.1-.2-.1 0 0-.1-.1-.1-.2-.3.2-.5.3-.8.3h-.9c-.3 0-.4-.1-.6-.3-.1-.2-.1-.4 0-.7l1-2.8c.1-.2.3-.4.5-.6.2-.2.5-.3.8-.3h1.6c.2 0 .2.1.1.2l-1.3 3.5v.3c0 .1.1.2.2.2zm-.6-.5l1.2-3.3h-1.4c-.1 0-.3 0-.4.1l-.3.3-1 2.8v.3c.1.1.2.1.3.1h.9c.1 0 .3 0 .4-.1.1.1.2 0 .3-.2zm7.5-.4c-.1.4-.4.7-.8 1-.4.3-.8.4-1.1.4h-.5c-.4 0-.6-.1-.8-.4-.2-.3-.2-.6-.1-1l1.4-3.7c.1-.4.4-.7.8-1 .4-.3.8-.4 1.1-.4h.5c.4 0 .7.1.8.4.2.3.2.6.1 1l-1.4 3.7zm-.4 0l1.4-3.7c.1-.3.1-.5 0-.7-.1-.2-.3-.3-.6-.3h-.5c-.3 0-.5.1-.8.3-.2.2-.4.4-.5.7l-1.4 3.7c-.1.3-.1.5 0 .7.1.2.3.3.5.3h.5c.3 0 .5-.1.8-.3s.5-.5.6-.7zm.8 2.2l-.1.1h-.1c-.1 0-.1 0-.1-.1v-.3l.6-.9c0-.1.1-.1.1-.1h.2c.1 0 .1 0 .1.1v.3l-.7.9zm4.4-2.7h.7c.1 0 .1 0 .1.1v.2c0 .1-.1.1-.1.2-.1 0-.1.1-.2.1h-.7l-.4 1.2c0 .1-.1.1-.1.2-.1 0-.1.1-.2.1 0 0-.1 0-.1-.1v-.2l.4-1.2h-1.6c-.1 0-.1 0-.1-.1v-.3l2.6-4.7c0-.1.1-.1.1-.1h.2c.1 0 .1 0 .1.1v.3l-2.5 4.4h1.3l.4-1.2s.1-.1.1-.2c.1-.1.1-.1.2-.1s.1 0 .1.1v.2l-.3 1zm5 .5c-.1.4-.4.7-.8 1-.4.3-.8.4-1.1.4h-.5c-.4 0-.6-.1-.8-.4-.2-.3-.2-.6-.1-1l1.4-3.7c.1-.4.4-.7.8-1 .4-.3.8-.4 1.1-.4h.5c.4 0 .7.1.8.4.2.3.2.6.1 1l-1.4 3.7zm-.5 0l1.4-3.7c.1-.3.1-.5 0-.7-.1-.2-.3-.3-.6-.3h-.5c-.3 0-.5.1-.8.3-.2.2-.4.4-.5.7l-1.4 3.7c-.1.3-.1.5 0 .7.1.2.3.3.5.3h.5c.3 0 .5-.1.8-.3s.5-.5.6-.7zM196.346 390.91l.83.556-20.98 31.321-.83-.557z"/><path fill="#42385D" d="M162.4 422h13.4v1h-13.4zm118.819-81.576l.318 5.891-.998.054-.319-5.891z"/><path fill="#42385D" d="M280.252 334.452l.96 5.923-.987.16-.96-5.923z"/><path fill="#42385D" d="M278.72 328.795l1.593 5.576-.962.275-1.593-5.577z"/><path fill="#42385D" d="M276.412 323.417l2.208 5.363-.925.38-2.208-5.363z"/><path fill="#42385D" d="M273.755 318.111l2.703 5.245-.89.458-2.702-5.245z"/><path fill="#42385D" d="M270.366 313.272l3.326 4.75-.819.575-3.327-4.752zm-3.858-4.722l3.825 4.623-.77.638-3.825-4.623z"/><path fill="#42385D" d="M262.153 304.539l4.33 4.008-.68.734-4.33-4.008z"/><path fill="#42385D" d="M257.491 301.049l4.621 3.505-.604.797-4.621-3.506z"/><path fill="#42385D" d="M252.376 297.96l5.073 3.013-.51.86-5.073-3.013z"/><path fill="#42385D" d="M247.072 295.488l5.218 2.53-.436.9-5.219-2.53z"/><path fill="#42385D" d="M241.478 293.673l5.533 1.74-.3.954-5.533-1.74z"/><path fill="#42385D" d="M235.683 292.375l5.76 1.28-.218.976-5.76-1.28z"/><path fill="#42385D" d="M229.773 291.683l5.866.633-.107.995-5.866-.634z"/><path fill="#42385D" d="M223.8 291.7h5.9v1h-5.9z"/><path fill="#42385D" d="M223.697 291.695l.111.994-5.764.645-.11-.993z"/><path fill="#42385D" d="M217.929 292.353l.216.976-5.76 1.279-.216-.976z"/><path fill="#42385D" d="M212.234 293.667l.324.946-5.58 1.914-.325-.946zm-5.667 1.95l.403.914-5.398 2.382-.403-.915z"/><path fill="#42385D" d="M201.148 297.977l.522.853-4.947 3.028-.522-.853zm-5.017 3.123l.609.793-4.76 3.653-.61-.794z"/><path fill="#42385D" d="M191.352 304.716l.693.72-4.108 3.952-.693-.72zm-4.228 4.057l.76.651-3.84 4.48-.76-.65z"/><path fill="#42385D" d="M183.286 313.194l.828.56-3.363 4.97-.828-.561z"/><path fill="#42385D" d="M179.943 318.187l.89.457-2.699 5.247-.89-.457z"/><path fill="#42385D" d="M177.178 323.517l.934.358-2.073 5.417-.934-.357z"/><path fill="#42385D" d="M175.136 328.973l.961.276-1.596 5.576-.961-.275z"/><path fill="#42385D" d="M173.485 334.649l.987.16-.961 5.923-.987-.16z"/><path fill="#42385D" d="M172.56 340.575l.998.055-.323 5.891-.998-.055z"/><path fill="#42385D" d="M173.247 346.406l.317 5.691-.999.056-.316-5.691zm.345 5.732l.96 5.923-.987.16-.96-5.923z"/><path fill="#42385D" d="M174.447 357.915l1.593 5.577-.961.274-1.593-5.576z"/><path fill="#42385D" d="M176.076 363.434l2.228 5.571-.929.372-2.228-5.571z"/><path fill="#42385D" d="M178.236 369.003l2.722 5.122-.884.469-2.72-5.122z"/><path fill="#42385D" d="M180.886 374.024l3.365 4.968-.828.561-3.365-4.968z"/><path fill="#42385D" d="M184.254 378.953l3.84 4.479-.76.65-3.84-4.479z"/><path fill="#42385D" d="M188 383.338l4.33 4.008-.68.734-4.329-4.009z"/><path fill="#42385D" d="M192.271 387.247l4.62 3.506-.604.797-4.62-3.506z"/><path fill="#42385D" d="M196.837 390.77l5.073 3.011-.51.86-5.074-3.012z"/><path fill="#42385D" d="M201.845 393.753l5.398 2.382-.404.915-5.398-2.382z"/><path fill="#42385D" d="M207.246 396.063l5.582 1.913-.324.946-5.582-1.913z"/><path fill="#42385D" d="M212.803 397.973l5.76 1.28-.217.976-5.76-1.28z"/><path fill="#42385D" d="M218.477 399.296l5.764.64-.11.995-5.765-.641z"/><path fill="#42385D" d="M229.96 399.757l.028 1-5.897.161-.028-1zm5.913-.732l.108.994-5.866.634-.107-.995z"/><path fill="#42385D" d="M241.542 397.853l.217.976-5.76 1.279-.217-.977z"/><path fill="#42385D" d="M247.036 395.916l.324.946-5.58 1.914-.325-.946z"/><path fill="#42385D" d="M252.262 393.539l.414.91-5.28 2.402-.413-.91z"/><path fill="#42385D" d="M257.288 390.398l.53.848-5.09 3.177-.529-.848z"/><path fill="#42385D" d="M261.827 386.917l.605.797-4.618 3.509-.605-.797z"/><path fill="#42385D" d="M266.135 383.01l.679.734-4.33 4.008-.68-.734z"/><path fill="#42385D" d="M269.71 378.457l.784.621-3.666 4.623-.784-.622z"/><path fill="#42385D" d="M273.023 373.767l.82.574-3.332 4.748-.819-.574zm2.702-5.267l.89.457-2.699 5.247-.889-.458z"/><path fill="#42385D" d="M277.791 363.117l.934.358-2.074 5.416-.933-.357z"/><path fill="#42385D" d="M279.329 357.467l.963.268-1.58 5.684-.963-.268z"/><path fill="#42385D" d="M280.268 351.752l.986.164-.951 5.72-.987-.163z"/><path fill="#42385D" d="M280.56 346.278l.999.057-.317 5.59-.999-.056zM170.4 417.9h-4.7c-.4 0-.6-.2-.7-.3-.1-.2-.2-.4-.1-.8l4.5-12.3c.2-.5.6-.8 1.1-.8h4.7c.3 0 .5.1.7.4.1.2.2.5.1.8-.1.2-.2.4-.4.5-.2.2-.5.3-.7.3H171l-1.4 3.7h1.6c.3 0 .5.1.7.4.1.2.2.5.1.8-.1.2-.2.4-.4.5-.2.2-.5.3-.7.3h-2l-1.7 4.7h3.5c.3 0 .5.1.7.4.1.2.2.5.1.8-.1.2-.2.4-.4.5-.2.1-.4.1-.7.1zm198.343-233.5l.25.968-5.52 1.425-.25-.969z"/><path fill="#42385D" d="M363.332 185.178l.858.515-.463.772-.858-.515z"/><path fill="#42385D" d="M363.482 184.507l.636.636-.706.708-.637-.637z"/><path fill="#42385D" d="M363.1 184.4h5.7v1h-5.7z"/><path fill="#42385D" d="M363.9 186.6h-.4v-1h.1v-.3h.2v-.3h1.2v-.2h1.3v-.1h1.3v-.2h.8v1h-.6v.2h-.7v.1h-.6v.2h-.7v.1h-.6v.2h-.6v.2h-.7z"/><path fill="#42385D" d="M363.9 186.6h-.4v-1h.1v-.3h.2v-.3h1.2v-.2h1.3v-.1h1.3v-.2h.8v1h-.6v.2h-.7v.1h-.6v.2h-.7v.1h-.6v.2h-.6v.2h-.7z"/><path fill="#42385D" d="M365 185.8h-1.4v-.1h-.1v-.2h-.2v-.1h-.2v-1h5.8v1h-1.3v.1h-1.3v.2H365z"/><path fill="#42385D" d="M365 185.8h-1.4v-.1h-.1v-.2h-.2v-.1h-.2v-1h5.8v1h-1.3v.1h-1.3v.2H365zM90.219 219.312l.282.96-5.372 1.58-.282-.959z"/><path fill="#42385D" d="M89.889 219.62l.894.448-.492.984-.894-.447z"/><path fill="#42385D" d="M90.203 220.401l.636.637-.707.707-.636-.637z"/><path fill="#42385D" d="M84.9 220.9h5.6v1h-5.6z"/><path fill="#42385D" d="M86.2 221.8h-.6v-1h.5v-.2h.6v-.1h.5v-.2h.4v-.2h.7v-.1h.5v-.2h.6v-.1h.5v-.2h.4v1h-.1v.3H90v.3h-.1v.2h-1.1v.2h-1.3v.1h-1.3z"/><path fill="#42385D" d="M86.2 221.8h-.6v-1h.5v-.2h.6v-.1h.5v-.2h.4v-.2h.7v-.1h.5v-.2h.6v-.1h.5v-.2h.4v1h-.1v.3H90v.3h-.1v.2h-1.1v.2h-1.3v.1h-1.3z"/><path fill="#42385D" d="M90.3 221.8h-4.1v-1h1.3v-.2h1.3v-.1H90v.1h.2v.2h.1z"/><path fill="#42385D" d="M90.3 221.8h-4.1v-1h1.3v-.2h1.3v-.1H90v.1h.2v.2h.1z"/><path fill="#42385D" d="M368.813 184.347l.128.992-283.953 36.617-.127-.991zm1.327 9.18l.317 9.494-1 .033-.316-9.494z"/><path fill="#42385D" d="M369.241 184.005l.955 9.552-.995.1-.955-9.553zm-.295-3.043l.314 2.984-.994.104-.315-2.983zM84.895 220.886l.126.992-49.793 6.37-.127-.992z"/><path fill="#42385D" d="M0 227.3h35.2v1H0zm3.1-4.1c-.3-.1-.4-.4-.5-.7-.1-.3-.1-.7.1-1 .2-.5.5-.9 1-1.3s1-.6 1.5-.6h.3l.8-1.2c.1-.1.2-.2.3-.2.1 0 .1 0 .1.1v.3l-.8 1.2c.3.1.4.4.6.7 0 .1.1.3 0 .5 0 .2-.1.4-.1.5-.2.5-.5.9-1 1.3s-1 .6-1.5.6h-.3l-.8 1.3c-.1.1-.2.2-.3.2 0 0-.1 0-.2-.1v-.3l.8-1.3zm.3-.5l1.8-2.6H5c-.4 0-.8.1-1.1.4-.2.1-.3.3-.5.5l-.2.2-.1.2v.1c-.1.2-.1.5 0 .7 0 .2.1.4.3.5zm2.2-2.5l-1.8 2.6H4c.4 0 .8-.1 1.1-.4.4-.3.6-.6.8-1 .1-.3.1-.5 0-.7 0-.2-.1-.3-.3-.5zm6.1-1.7l-3.6 6.1-.1.1h-.2c-.1 0-.1 0-.1-.1v-.3l3.4-5.8H8.9l-.2.5c0 .1-.1.1-.1.2-.1 0-.1.1-.2.1 0 0-.1 0-.1-.1v-.2l.3-.7c.1-.2.2-.2.3-.2h2.8c.1 0 .1 0 .2.1-.1.1-.1.1-.2.3zm-1.4 7c-.1.1-.1.1-.2.1H10c-.1 0-.1 0-.1-.1v-.3l.6-.9c0-.1.1-.1.1-.1h.2c.1 0 .1 0 .1.1v.3l-.6.9zm2.7-4.3c.2-.6.6-1.2 1.1-1.8.6-.6 1.2-1 2-1.3h.1c.1 0 .1 0 .1.1v.2s0 .1-.1.1c0 0-.1.1-.2.1h-.2l-.2.1c-.1.1-.3.2-.4.2-.2.2-.5.4-.8.6-.2.2-.4.4-.5.6-.2.2-.3.4-.4.6H15c.4 0 .7.1.8.4.2.3.2.6 0 1l-.3.9c-.1.4-.4.7-.8 1-.4.3-.8.4-1.1.4h-.5c-.4 0-.6-.1-.8-.4s-.2-.6-.1-1l.8-1.8zm.4.3l-.7 1.9c-.1.3-.1.5 0 .7.1.2.3.3.5.3h.5c.3 0 .5-.1.8-.3.2-.2.4-.4.5-.7l.3-.9c.1-.3.1-.5 0-.7-.1-.2-.3-.3-.6-.3h-1.3zm5.6 3.2h-2.8c-.1 0-.1 0-.1-.1v-.2s0-.1.1-.1l4-3.9.2-.2.1-.2c.1-.1.1-.2.2-.3.1-.3.1-.6-.1-.8-.1-.1-.2-.2-.3-.2-.1-.1-.3-.1-.4-.1-.2 0-.4.1-.7.2s-.5.3-.7.6l-.1.1h-.1c-.1 0-.1 0-.1-.1v-.3c.3-.4.6-.7.9-.9.3-.2.6-.3.9-.3.4 0 .8.2 1 .5.2.3.3.7.1 1.1-.1.2-.1.3-.2.4-.1.1-.2.3-.4.5l-3.6 3.5h2.3c.1 0 .1 0 .1.1v.2c0 .1-.1.1-.1.2-.1.3-.2.3-.2.3zm4.9-7h.6s.1 0 .1.1v.1s0 .1-.1.1-.1.1-.1.1h-.6l-.2.6c0 .1 0 .1-.1.1h-.2v-.1l.2-.6h-.7v-.1s0-.1.1-.1l.1-.1h.6l.2-.6s0-.1.1-.1l.1-.1h.1v.1l-.2.6zm3.2.8c-.1.3-.3.5-.5.7-.3.2-.5.3-.8.3h-.3c-.2 0-.4-.1-.6-.3-.1-.2-.1-.4 0-.7l.9-2.5c.1-.3.3-.5.5-.7.3-.2.5-.3.8-.3h.3c.3 0 .5.1.6.3.1.2.1.4 0 .7l-.9 2.5zm-.3 0l.9-2.5c.1-.2.1-.3 0-.4-.1-.1-.2-.2-.4-.2H27c-.2 0-.3.1-.5.2s-.3.3-.3.5l-.9 2.5c-.1.2-.1.3 0 .4.1.1.2.2.4.2h.3c.2 0 .3-.1.5-.2.1-.2.2-.3.3-.5zm.5 1.5l-.1.1H27v-.1l.4-.6.1-.1h.2v.1l-.4.6zm3.5-1.5c-.1.3-.3.5-.5.7-.3.2-.5.3-.8.3h-.3c-.2 0-.4-.1-.6-.3-.1-.2-.1-.4 0-.7l.9-2.5c.1-.3.3-.5.5-.7.3-.2.5-.3.8-.3h.3c.3 0 .5.1.6.3.1.2.1.4 0 .7l-.9 2.5zm-.3 0l.9-2.5c.1-.2.1-.3 0-.4-.1-.1-.2-.2-.4-.2h-.3c-.2 0-.3.1-.5.2s-.3.3-.3.5l-.9 2.5c-.1.2-.1.3 0 .4.1.1.2.2.4.2h.3c.2 0 .3-.1.5-.2.1-.2.3-.3.3-.5zm2.8 0c-.1.3-.3.5-.5.7-.3.2-.5.3-.8.3h-.9v-.1s0-.1.1-.1l.1-.1h.8c.2 0 .3-.1.5-.2s.3-.3.3-.5l.2-.6c.1-.2.1-.3 0-.4-.1-.1-.2-.2-.4-.2H32c-.1 0-.1-.1-.1-.2l.7-1.9c0-.1.1-.2.2-.2h1.6s.1 0 .1.1v.1s0 .1-.1.1-.1.1-.1.1h-1.4l-.6 1.6h.6c.3 0 .5.1.6.3.1.2.1.4 0 .7l-.2.5zm81.763 79.766l.535.845-4.732 2.994-.535-.845z"/><path fill="#42385D" d="M110.593 301.23l.986.164-.164.986-.987-.165z"/><path fill="#42385D" d="M111 301.9h1v1h-1z"/><path fill="#42385D" d="M114.943 298.405l.735.678-3.798 4.116-.735-.679z"/><path fill="#42385D" d="M114.954 298.324l.646.763-7.179 6.068-.646-.764z"/><path fill="#42385D" d="M111.8 302.3h-1.3v-1h.4v-.2h.3v-.2h.1v-.1h.4v-.2h.1v-.1h.3v-.2h.4v-.1h.1v-.2h.3v-.2h.2v-.1h.3v-.2h.2v-.1h.3v-.2h.3v-.2h.2v-.1h.3v-.2h.1v-.1h.2v1h-.2v.1h-.1v.2h-.3v.1h-.2v.2h-.2v.2h-.1v.1h-.2v.2h-.3v.1h-.1v.2h-.2v.2h-.2v.1h-.1v.2h-.3v.1h-.2v.2h-.2v.1h-.1v.2h-.2z"/><path fill="#42385D" d="M111.8 302.3h-1.3v-1h.4v-.2h.3v-.2h.1v-.1h.4v-.2h.1v-.1h.3v-.2h.4v-.1h.1v-.2h.3v-.2h.2v-.1h.3v-.2h.2v-.1h.3v-.2h.3v-.2h.2v-.1h.3v-.2h.1v-.1h.2v1h-.2v.1h-.1v.2h-.3v.1h-.2v.2h-.2v.2h-.1v.1h-.2v.2h-.3v.1h-.1v.2h-.2v.2h-.2v.1h-.1v.2h-.3v.1h-.2v.2h-.2v.1h-.1v.2h-.2z"/><path fill="#42385D" d="M111.7 303.2h-.2v-1.8h.3v-.1h.2v-.2h.1v-.2h.2v-.1h.2v-.2h.3v-.1h.1v-.2h.2v-.1h.2v-.2h.1v-.2h.3v-.1h.2v-.2h.1v-.1h.2v-.2h.2v-.2h.3v-.1h.1v-.2h.2v-.1h.2v-.2h.1v1h-.1v.2h-.2v.1h-.2v.2h-.1v.1h-.2v.2h-.1v.2h-.2v.1h-.2v.2h-.1v.1h-.2v.2h-.1v.2h-.2v.3h-.1v.1h-.2v.2h-.2v.1h-.1v.2h-.2v.2h-.1v.1h-.2v.2h-.2v.1h-.1v.2h-.2v.2h-.1z"/><path fill="#42385D" d="M111.7 303.2h-.2v-1.8h.3v-.1h.2v-.2h.1v-.2h.2v-.1h.2v-.2h.3v-.1h.1v-.2h.2v-.1h.2v-.2h.1v-.2h.3v-.1h.2v-.2h.1v-.1h.2v-.2h.2v-.2h.3v-.1h.1v-.2h.2v-.1h.2v-.2h.1v1h-.1v.2h-.2v.1h-.2v.2h-.1v.1h-.2v.2h-.1v.2h-.2v.1h-.2v.2h-.1v.1h-.2v.2h-.1v.2h-.2v.3h-.1v.1h-.2v.2h-.2v.1h-.1v.2h-.2v.2h-.1v.1h-.2v.2h-.2v.1h-.1v.2h-.2v.2h-.1zM342.983 104l.554.832-4.743 3.162-.554-.832z"/><path fill="#42385D" d="M342.395 103.744l.986.165-.165.986-.986-.164z"/><path fill="#42385D" d="M342.67 103.146l.164.987-.986.164-.165-.986z"/><path fill="#42385D" d="M341.755 102.936l.761.648-3.63 4.264-.761-.648z"/><path fill="#42385D" d="M345.15 100.99l.664.748-7.03 6.24-.664-.748z"/><path fill="#42385D" d="M339.3 107.6h-.2v-1h.2v-.2h.1v-.1h.2v-.2h.2v-.2h.3v-.1h.1v-.2h.2v-.1h.2v-.2h.1v-.2h.2v-.1h.1v-.2h.3v-.1h.2v-.2h.2v-.2h.1v-.1h.2v-.2h.1v-.1h1.2v1h-.2v.1h-.3v.2h-.2v.1h-.3v.2h-.2v.2h-.3v.1h-.1v.2h-.4v.1h-.1v.2h-.3v.2h-.2v.1h-.3v.2h-.2v.1h-.3v.2h-.1v.2h-.4v.1h-.1z"/><path fill="#42385D" d="M339.3 107.6h-.2v-1h.2v-.2h.1v-.1h.2v-.2h.2v-.2h.3v-.1h.1v-.2h.2v-.1h.2v-.2h.1v-.2h.2v-.1h.1v-.2h.3v-.1h.2v-.2h.2v-.2h.1v-.1h.2v-.2h.1v-.1h1.2v1h-.2v.1h-.3v.2h-.2v.1h-.3v.2h-.2v.2h-.3v.1h-.1v.2h-.4v.1h-.1v.2h-.3v.2h-.2v.1h-.3v.2h-.2v.1h-.3v.2h-.1v.2h-.4v.1h-.1z"/><path fill="#42385D" d="M338.8 107.9h-.2v-1h.2v-.2h.2v-.1h.1v-.2h.2v-.1h.1v-.4h.2v-.1h.2v-.2h.1v-.1h.2v-.2h.1v-.2h.2v-.3h.2v-.1h.1v-.2h.2v-.2h.1v-.1h.2v-.2h.1v-.3h.2v-.1h.2v-.2h.1v-.2h.2v-.1h.1v-.2h.2v1.8h-.2v.2h-.1v.1h-.2v.2h-.1v.1h-.2v.2h-.2v.2h-.3v.1h-.1v.2h-.2v.1h-.1v.2h-.2v.2h-.2v.1h-.1v.2h-.3v.1h-.2v.2h-.2v.2h-.1v.1h-.2v.2h-.1v.1h-.2z"/><path fill="#42385D" d="M338.8 107.9h-.2v-1h.2v-.2h.2v-.1h.1v-.2h.2v-.1h.1v-.4h.2v-.1h.2v-.2h.1v-.1h.2v-.2h.1v-.2h.2v-.3h.2v-.1h.1v-.2h.2v-.2h.1v-.1h.2v-.2h.1v-.3h.2v-.1h.2v-.2h.1v-.2h.2v-.1h.1v-.2h.2v1.8h-.2v.2h-.1v.1h-.2v.2h-.1v.1h-.2v.2h-.2v.2h-.3v.1h-.1v.2h-.2v.1h-.1v.2h-.2v.2h-.2v.1h-.1v.2h-.3v.1h-.2v.2h-.2v.2h-.1v.1h-.2v.2h-.1v.1h-.2z"/><path fill="#42385D" d="M338.202 107.211l.65.76-223.275 191.123-.65-.76zm33.08 119.99l.98.2-1.912 9.407-.98-.199z"/><path fill="#42385D" d="M372.526 217.594l.992.13-1.282 9.716-.991-.13z"/><path fill="#42385D" d="M373.119 208.077l.998.067-.638 9.579-.998-.067z"/><path fill="#42385D" d="M373.1 198.4h1v9.7h-1z"/><path fill="#42385D" d="M373.517 188.696l.634 9.68-.998.065-.634-9.68zm-1.131-9.646l1.112 9.536-.993.116-1.113-9.535z"/><path fill="#42385D" d="M370.512 169.59l1.914 9.408-.98.2-1.914-9.408zm-2.657-9.41l2.538 9.36-.965.263-2.538-9.362z"/><path fill="#42385D" d="M364.763 151l3.195 9.266-.946.326-3.195-9.265zm-3.722-8.973l3.647 8.88-.925.38-3.647-8.88zm-4.298-8.678l4.293 8.586-.894.447-4.293-8.586z"/><path fill="#42385D" d="M352 124.99l4.779 8.442-.87.493-4.779-8.442zm-5.455-8.056l5.398 7.939-.826.562-5.399-7.938z"/><path fill="#42385D" d="M340.693 109.318l5.86 7.603-.792.61-5.86-7.602zm-2.45-2.868l2.37 2.843-.769.64-2.369-2.842z"/><path fill="#42385D" d="M367.762 81.735l.652.757-29.558 25.444-.652-.758z"/><path fill="#42385D" d="M368.1 81.6h35v1h-35zm3-4.1c-.3-.1-.4-.4-.5-.7-.1-.3-.1-.7.1-1 .2-.5.5-.9 1-1.3s1-.6 1.5-.6h.3l.8-1.2c.1-.1.2-.2.3-.2.1 0 .1 0 .1.1v.3l-.8 1.2c.3.1.4.4.6.7 0 .1.1.3 0 .5 0 .2-.1.4-.1.5-.2.5-.5.9-1 1.3s-1 .6-1.5.6h-.3l-.8 1.3c-.1.1-.2.2-.3.2 0 0-.1 0-.2-.1v-.3l.8-1.3zm.3-.4l1.8-2.6h-.2c-.4 0-.8.1-1.1.4-.2.1-.3.3-.5.5l-.2.2-.1.2v.1c-.1.3-.1.5-.1.7 0 .2.2.4.4.5zm2.1-2.5l-1.8 2.6h.2c.4 0 .8-.1 1.1-.4.4-.3.6-.6.8-1 .1-.3.1-.5 0-.7.1-.2-.1-.4-.3-.5zm6.2-1.7l-3.6 6.1-.1.1h-.2c-.1 0-.1 0-.1-.1v-.3l3.4-5.8h-2.3l-.2.5c0 .1-.1.1-.1.2-.1 0-.1.1-.2.1 0 0-.1 0-.1-.1v-.2l.3-.7c.1-.2.2-.2.3-.2h2.8c.1 0 .1 0 .2.1-.1.1-.1.1-.1.3zm-1.5 7l-.1.1h-.1c-.1 0-.1 0-.1-.1v-.3l.6-.9c0-.1.1-.1.1-.1h.2c.1 0 .1 0 .1.1v.3l-.7.9zm5.3-2.2c-.1.4-.4.7-.8 1-.4.3-.8.4-1.1.4h-.5c-.4 0-.6-.1-.8-.4-.2-.3-.2-.6-.1-1l.3-.9c.1-.2.2-.5.4-.7s.5-.4.8-.6c-.1-.1-.2-.3-.2-.5s0-.4.1-.6l.2-.5c.1-.4.4-.7.8-1l.6-.3.3-.1h.3c.4 0 .7.1.9.4.1.1.1.3.1.4v.3l-.1.1-.2.5-.3.6c-.1.2-.3.3-.6.5.2.1.3.3.4.5.1.2 0 .5-.1.7l-.4 1.2zm-.5 0l.3-.9c.1-.3.1-.5 0-.7s-.3-.3-.6-.3h-.5c-.3 0-.5.1-.8.3s-.4.4-.5.7l-.3.9c-.1.3-.1.5 0 .7.1.2.3.3.5.3h.5c.3 0 .5-.1.8-.3.3-.2.5-.4.6-.7zm1-3.3l.2-.5c.1-.3.1-.5 0-.7-.1-.2-.3-.3-.6-.3s-.5.1-.8.3c-.2.2-.4.4-.5.7l-.2.5c-.1.3-.1.5 0 .7.1.2.3.3.6.3s.5-.1.8-.3c.2-.2.4-.4.5-.7zm2.9 4.7h-2.8c-.1 0-.1 0-.1-.1v-.2s0-.1.1-.1l4-3.9.2-.2.1-.2c.1-.1.1-.2.2-.3.1-.3.1-.6-.1-.8-.1-.1-.2-.2-.3-.2-.1-.1-.3-.1-.4-.1-.2 0-.4.1-.7.2-.2.1-.5.3-.7.6l-.1.1h-.1c-.1 0-.1 0-.1-.1v-.3c.3-.4.6-.7.9-.9.3-.2.6-.3.9-.3.4 0 .8.2 1 .5.3.3.3.7.1 1.1-.1.2-.1.3-.2.4-.1.1-.2.3-.4.5l-3.6 3.5h2.3c.1 0 .1 0 .1.1v.2c0 .1-.1.1-.1.2-.1.3-.1.3-.2.3zm5-7h.6s.1 0 .1.1v.1s0 .1-.1.1l-.1.1h-.6l-.2.6c0 .1 0 .1-.1.1h-.2v-.1l.2-.6h-.7v-.1s0-.1.1-.1l.1-.1h.6l.2-.6s0-.1.1-.1l.1-.1h.1v.1l-.2.6zm3.2.8c-.1.3-.3.5-.5.7-.3.2-.5.3-.8.3h-.3c-.2 0-.4-.1-.6-.3s-.1-.4 0-.7l.9-2.5c.1-.3.3-.5.5-.7.3-.2.5-.3.8-.3h.3c.3 0 .5.1.6.3.1.2.1.4 0 .7l-.9 2.5zm-.4 0l.9-2.5c.1-.2.1-.3 0-.4-.1-.1-.2-.2-.4-.2h-.3c-.2 0-.3.1-.5.2s-.3.3-.4.5l-.9 2.5c-.1.2-.1.3 0 .4.1.1.2.2.4.2h.3c.2 0 .3-.1.5-.2.3-.2.4-.4.4-.5zm.5 1.5l-.1.1h-.2v-.1l.4-.6.1-.1h.2v.1l-.4.6zm3.6-1.5c-.1.3-.3.5-.5.7-.3.2-.5.3-.8.3h-.3c-.2 0-.4-.1-.6-.3s-.1-.4 0-.7l.9-2.5c.1-.3.3-.5.5-.7.3-.2.5-.3.8-.3h.3c.3 0 .5.1.6.3.1.2.1.4 0 .7l-.9 2.5zm-.4 0l.9-2.5c.1-.2.1-.3 0-.4-.1-.1-.2-.2-.4-.2h-.3c-.2 0-.3.1-.5.2s-.3.3-.4.5l-.9 2.5c-.1.2-.1.3 0 .4.1.1.2.2.4.2h.3c.2 0 .3-.1.5-.2.3-.2.4-.4.4-.5zm2.8 0c-.1.3-.3.5-.5.7-.3.2-.5.3-.8.3h-.9v-.1s0-.1.1-.1l.1-.1h.8c.2 0 .3-.1.5-.2s.3-.3.3-.5l.2-.6c.1-.2.1-.3 0-.4-.1-.1-.2-.2-.4-.2h-.8c-.1 0-.1-.1-.1-.2l.7-1.9c0-.1.1-.2.2-.2h1.6s.1 0 .1.1v.1s0 .1-.1.1l-.1.1h-1.4l-.6 1.6h.6c.3 0 .5.1.6.3.1.2.1.4 0 .7l-.1.5zM49.6 202.6h32v1h-32zm34.7 0h2.9v1h-2.9zm5.7 0h31.8v1H90zm34.7 0h2.7v1h-2.7zm5.6 0h32v1h-32zm34.6 0h2.9v1h-2.9zm5.8 0h31.8v1h-31.8zm34.6 0h2.7v1h-2.7zm5.6 0h15.9v1h-15.9zm158.9 0H401v1h-31.2zm-5.7 0h2.9v1h-2.9zm-33.9 0h31.2v1h-31.2zm-5.7 0h2.9v1h-2.9zm-33.9 0h31.2v1h-31.2zm-5.7 0h2.9v1h-2.9zm-34.1 0H282v1h-31.2zm-5.5 0h2.9v1h-2.9zm-18.5 0h15.6v1h-15.6zm-.5 146.1h1v32h-1zm0-5.6h1v2.9h-1zm0-34.8h1v32h-1zm0-5.6h1v2.9h-1zm0-34.8h1v32h-1zm0-5.6h1v2.9h-1zm0-34.8h1v32h-1zm0-5.6h1v2.9h-1z"/><path fill="#42385D" d="M226.3 203.1h1V219h-1zm0-179.5h1V56h-1zm0 35.3h1v2.7h-1zm0 5.5h1v32.4h-1zm0 35.2h1v2.9h-1zm0 5.7h1v32.3h-1zm0 35.2h1v2.9h-1zm0 5.5h1v32.4h-1zm0 35.4h1v2.7h-1zm0 5.5h1v16.2h-1zM84.264 230.213l.707.707-60.103 60.103-.707-.707z"/><path fill="#42385D" d="M26.723 288.173l4.482 3.522-.618.786-4.482-3.522z"/><path fill="#42385D" d="M30.815 291.6l.196.981-.784.157-.196-.98z"/><path fill="#42385D" d="M29.582 292.114l.986.164-.164.987-.986-.164z"/><path fill="#42385D" d="M26.806 288.322l3.505 4.621-.796.604-3.506-4.62z"/><path fill="#42385D" d="M30.9 292.6h-1v-.2h-.2v-.2h-.2v-.2h-.2v-.2h-.2v-.2h-.2v-.2h-.2v-.2h-.2v-.2h-.2v-.2h-.2v.2h-.2v-.2h-.2v-.2h.3v-.2h-.2v-.2h-.2v-.2h-.4v-.2H27v-1.2h.3v.2h.2v.2h.2v.2h.2v.2h.3v.2h.2v.2h.2v.2h.2v.2h.3v.2h.2v.2h.2v.2h.3v.2h.2v.2h.2v.2h.2v.2h.3v.2h.2v.2h.2v.2h.2v.4zm-3.9-3.1h-.2v-1h.2v1zm-.1-.1h-.2v-1h.2v1zm-.2-.2h-.2v-1h.2v1z"/><path fill="#42385D" d="M30.9 292.6h-1v-.2h-.2v-.2h-.2v-.2h-.2v-.2h-.2v-.2h-.2v-.2h-.2v-.2h-.2v-.2h-.2v-.2h-.2v.2h-.2v-.2h-.2v-.2h.3v-.2h-.2v-.2h-.2v-.2h-.4v-.2H27v-1.2h.3v.2h.2v.2h.2v.2h.2v.2h.3v.2h.2v.2h.2v.2h.2v.2h.3v.2h.2v.2h.2v.2h.3v.2h.2v.2h.2v.2h.2v.2h.3v.2h.2v.2h.2v.2h.2v.4zm-3.9-3.1h-.2v-1h.2v1zm-.1-.1h-.2v-1h.2v1zm-.2-.2h-.2v-1h.2v1z"/><path fill="#42385D" d="M30.1 293.5h-.2v-.2h-.2v-.2h-.2v-.1h-.2v-.3h-.2v-.2h-.2v-.2h-.2v-.3h-.2v-.2h-.2v-.2h-.2v-.3h-.2v-.2h-.2v-.2h.3v-.3h-.2v-.2h-.2v-.2h-.2V289h.2v.2h.2v.2h.2v.2h.2v.2h.2v.2h.2v.2h.2v.2h.2v.2h.2v.2h.2v.2h.2v.2h.2v.2h.2v.2h.2v.2h.2v.2h.2v1.5zm-2.6-3.3h-.2v-1h.2v1zm-.1-.2h-.2v-1h.2v1zm-.2-.1H27v-1h.2v1z"/><path fill="#42385D" d="M30.1 293.5h-.2v-.2h-.2v-.2h-.2v-.1h-.2v-.3h-.2v-.2h-.2v-.2h-.2v-.3h-.2v-.2h-.2v-.2h-.2v-.3h-.2v-.2h-.2v-.2h.3v-.3h-.2v-.2h-.2v-.2h-.2V289h.2v.2h.2v.2h.2v.2h.2v.2h.2v.2h.2v.2h.2v.2h.2v.2h.2v.2h.2v.2h.2v.2h.2v.2h.2v.2h.2v.2h.2v.2h.2v1.5zm-2.6-3.3h-.2v-1h.2v1zm-.1-.2h-.2v-1h.2v1zm-.2-.1H27v-1h.2v1zm109.917 109.738l4.621 3.505-.604.797-4.621-3.505z"/><path fill="#42385D" d="M137.692 399.442l.164.987-.986.164-.164-.987z"/><path fill="#42385D" d="M137.38 398.804l.987.165-.164.986-.987-.164z"/><path fill="#42385D" d="M138.291 398.711l3.505 4.62-.796.605-3.506-4.62z"/><path fill="#42385D" d="M140.8 403.4h-.2v-1h.2v1zm-.2-.1h-.2v-1h.2v1zm-.1-.2h-.2v-1h.2v1zm-.2-.1h-.3v-.2h-.2v-.2h-.2v-.2h-.3v-.2h-.2v-.2h-.4v-.2h-.2v-.2h-.2v-.2h-.3v-.2h-.2v-.2h-.5v-.2h-.2v-.2h-.2v-.2h-.3v-1h1.1v.2h.2v.2h.2v.2h.2v.2h.2v.2h.2v.2h.2v.2h.2v.2h.2v.2h.2v.2h.2v.2h.2v.2h.2v.2h.2v.2h.2v.2h.2v.6z"/><path fill="#42385D" d="M140.8 403.4h-.2v-1h.2v1zm-.2-.1h-.2v-1h.2v1zm-.1-.2h-.2v-1h.2v1zm-.2-.1h-.3v-.2h-.2v-.2h-.2v-.2h-.3v-.2h-.2v-.2h-.4v-.2h-.2v-.2h-.2v-.2h-.3v-.2h-.2v-.2h-.5v-.2h-.2v-.2h-.2v-.2h-.3v-1h1.1v.2h.2v.2h.2v.2h.2v.2h.2v.2h.2v.2h.2v.2h.2v.2h.2v.2h.2v.2h.2v.2h.2v.2h.2v.2h.2v.2h.2v.2h.2v.6z"/><path fill="#42385D" d="M141.4 403.9h-.2v-1h.2v1zm-.2-.2h-.2v-1h.2v1zm-.1-.1h-.2v-1h.2v1zm-.2-.2h-.2v-.2h-.2v-.2h-.4v-.2h-.2v-.2h.1v-.2h-.2v-.2h-.2v-.2h-.4v-.2h-.2v-.4h-.2v-.2h-.2v-.2h-.4v-.2h-.2v-.2h-.2v-.2h-.2v-.2h-.2v-1h.2v-.8h.2v.2h.2v.2h.2v.2h.2v.3h.2v.2h.2v.2h.2v.3h.2v.2h.2v.2h.2v.3h.2v.2h.2v.2h.2v.3h.2v.2h.2v.2h.2v.3h.2v.2h.2v.2h.2v.9z"/><path fill="#42385D" d="M141.4 403.9h-.2v-1h.2v1zm-.2-.2h-.2v-1h.2v1zm-.1-.1h-.2v-1h.2v1zm-.2-.2h-.2v-.2h-.2v-.2h-.4v-.2h-.2v-.2h.1v-.2h-.2v-.2h-.2v-.2h-.4v-.2h-.2v-.4h-.2v-.2h-.2v-.2h-.4v-.2h-.2v-.2h-.2v-.2h-.2v-.2h-.2v-1h.2v-.8h.2v.2h.2v.2h.2v.2h.2v.3h.2v.2h.2v.2h.2v.3h.2v.2h.2v.2h.2v.3h.2v.2h.2v.2h.2v.3h.2v.2h.2v.2h.2v.3h.2v.2h.2v.2h.2v.9z"/><path fill="#42385D" d="M26.744 288.242l114.974 114.975-.707.707L26.037 288.949z"/><path fill="#42385D" d="M199.107 344.993l.707.707-60.104 60.104-.707-.707zM82.2 338.6c-.3 0-.4-.1-.6-.2l-.3-.3-.8.4c-.1.1-.2.1-.4.1H80c-.2 0-.3-.1-.5-.2-.1-.1-.1-.2-.2-.4v-.2c0-.1.1-.4.4-.6l.5-.2-.6-.6c-.2-.2-.2-.4-.2-.6 0-.2.2-.4.4-.5h.1l5.2-1.5h.2l.3.1.3.2c.1.1.2.3.2.5s-.2.4-.4.5h-.1l-2.8.8h.1c.2 0 .4.1.5.2.1.1.2.3.2.5s-.2.4-.4.5l-.5.2c.2.2.2.4.2.6 0 .2-.2.4-.4.5-.1.1-.2.2-.3.2zm-1.5 1.8h-.2c-.1 0-.3-.1-.4-.2-.2-.2-.2-.4-.2-.6 0-.2.2-.4.4-.5h.1l1.1-.3h.4c.1 0 .3.1.4.2.1.2.2.3.2.5s-.2.4-.4.5H82l-1.3.4zm0-1v.5-.5z"/><path fill="#42385D" d="M84.8 342.4h-.5c-.6-.1-1-.3-1.4-.7l-.8-.8c-.2-.2-.2-.4-.2-.6.1-.2.2-.4.4-.5.2-.1.7-.1 1 .2l.8.8c.1.1.3.2.5.2s.4 0 .5-.1l.9-.4c.1 0 .2-.1.2-.1s0-.1-.1-.1l-.2-.2c-.2-.2-.2-.4-.2-.6.1-.2.2-.4.4-.5.1 0 .2-.1.4-.1s.4.1.6.2c.1.1.3.2.5.2s.4 0 .5-.1l.4-.2.2-.1s0-.1-.1-.1l-.7-.7c-.2-.2-.2-.4-.2-.6.1-.2.2-.4.4-.5.2-.1.7-.1.9.2l.7.7c.5.5.5 1 .4 1.3-.1.3-.3.8-.9 1.1l-.9.4c-.1 0-.2.1-.4.1h-.3c0 .1-.1.2-.1.3-.2.3-.4.5-.8.7l-.9.4c-.2.2-.6.2-1 .2zm8.2-.5c-.2 0-.4-.1-.5-.2l-.2-.2-.3.1c-.1 0-.2.1-.3.1h-.1c-.2 0-.3-.1-.4-.2-.1-.1-.1-.2-.2-.3v-.2c0-.2.1-.4.3-.5-.1-.1-.2-.3-.1-.5s.2-.3.4-.4c.4-.2.6-.1.8.1l.2.2.4-.2h.3c.2 0 .4.1.4.2.1.1.2.3.2.5s-.1.4-.3.5c.1.2.2.3.1.5 0 .2-.2.3-.3.4-.2 0-.3.1-.4.1z"/><path fill="#42385D" d="M93.7 344.1h-.3c-.4-.1-.8-.2-1-.5l-.2-.2c-.3-.3-.4-.6-.3-1 0-.3.2-.6.7-.9l2.5-1.1c.3-.2.7-.2 1.1-.1.4.1.8.2 1 .5l.2.2c.3.3.4.7.3 1.1-.1.3-.2.6-.7.9l-2.5 1.1h-.8zm2.1-2.7h-.2l-2.5 1.1.2.2s.1.1.2.1h.3l2.5-1.1-.2-.2s-.1 0-.3-.1c.1 0 .1 0 0 0z"/><path fill="#42385D" d="M93.3 345.2h-.2c-.1 0-.2-.1-.3-.2-.2-.2-.2-.4-.2-.6 0-.2.2-.3.3-.4h.1l.9-.2h.2c.1 0 .2.1.3.2.1.1.2.3.2.5s-.2.4-.4.5h-.1l-.8.2z"/><path fill="#42385D" d="M96.1 347c-.2 0-.4-.1-.5-.2l-1.3-1.3c-.1-.1-.2-.3-.2-.5v-.1l-.2-.2h.3c.1-.1.1-.2.2-.2h4.4v-.1s-.1-.1-.2-.1h-.7c-.1 0-.2-.1-.3-.1-.2-.2-.3-.4-.2-.6 0-.2.2-.4.4-.5h.1c.5-.1.8-.1 1.1 0 .3.1.6.2.8.5.4.4.5.8.4 1.1 0 .3-.2.7-.8 1-.1.1-.3.1-.5.1h-2.7l.3.3c.1.1.2.4.2.6 0 .2-.2.3-.3.4-.1-.1-.2-.1-.3-.1zm43.427-166.047l.89.455-18.108 35.442-.89-.455z"/><path fill="#42385D" d="M140 180.7h15.9v1H140zm11.3-12l1.9-5.2c0-.1.1-.2.3-.3.1-.1.3-.2.4-.2.1 0 .2 0 .3.1s.1.2 0 .3l-4.5 12.3c-.1.2-.1.3-.3.4-.1.1-.2.1-.4.1-.1 0-.2 0-.3-.1-.1-.1-.1-.2 0-.4l2.2-6.1h-4.7l-2.2 6.1c-.1.2-.1.3-.3.4-.1.1-.2.1-.4.1-.1 0-.2 0-.3-.1-.1-.1-.1-.2 0-.4l4.5-12.3c0-.1.1-.2.3-.3.1-.1.3-.2.4-.2.1 0 .2 0 .3.1s.1.2 0 .3l-1.9 5.2h4.7zM79.43 302.014l21.496 21.495-.707.707-21.495-21.495zm-5.249-13.178l45.827 45.671-.706.709-45.827-45.672zm-4.594-12.699l67.946 68.1-.708.707-67.946-68.1zm-4.171-12.113l88.312 88.463-.707.706-88.313-88.462zm-3.472-11.412l106.702 106.702-.707.707L61.237 253.319zm69.126 61.226l51.407 51.406-.707.707-51.406-51.406zm-72.022-72.032l57.134 57.133-.708.708-57.133-57.134zM56.83 231.57l41.366 41.365-.707.707-41.366-41.366zm100.245 100.217l38.183 38.183-.707.707-38.183-38.183zm15.088 7.126l34.648 34.648-.707.707-34.648-34.648zM55.095 221.892l35.92 35.92-.706.707-35.92-35.92zm-.963-8.949l32.597 32.597-.707.707-32.597-32.597zm130.289 130.304l33.385 33.224-.706.709-33.384-33.225zm10.611 2.704l32.739 32.74-.707.706-32.74-32.738zM53.785 204.734l30.193 30.193-.707.707-30.193-30.193zm.159-8.042l31.678 31.678-.707.707L53.237 197.4zM201.57 344.327l35.486 35.648-.708.705-35.487-35.647zm8.276.536l35.78 35.779-.708.707-35.78-35.78zM54.251 189.093l30.83 30.83-.707.706-30.83-30.83zm.659-7.247l29.416 29.415-.707.707-29.415-29.415zm163.809 163.781l34.851 35.01-.708.706-34.852-35.01zm8.187.335l34.011 34.011-.707.707-34.01-34.01zM55.7 174.593l28.346 28.505-.71.705-28.345-28.505zm1.002-6.96l27.647 27.647-.707.707-27.647-27.647zm177.936 177.942l33.093 33.093-.708.707-33.092-33.093zm7.518-.387l31.96 31.961-.706.707-31.961-31.96zM57.76 161.008l27.02 26.86-.704.71-27.02-26.86zm1.493-6.706L85.84 180.89l-.707.707-26.587-26.587zm189.804 189.885l31.042 31.041-.707.707-31.042-31.041zm9.806 1.759l27.01 27.011-.706.707-27.011-27.01zM60.612 147.725l23.405 23.405-.707.708-23.405-23.405zm1.755-6.137l22.91 22.91-.708.707-22.91-22.91zm203.11 202.893l25.94 26.103-.71.705-25.94-26.103zm6.08-1.668l25.314 25.315-.707.707-25.314-25.314zM64.158 135.319l23.051 23.051-.707.707-23.051-23.051zm2.059-5.991L89.27 152.38l-.707.707-23.052-23.052zm211.351 211.373l24.527 24.687-.71.705-24.526-24.687zm5.798-2.203l23.893 24.052-.71.704-23.892-24.052zM68.265 123.624l23.2 23.044-.704.71-23.2-23.044zm2.409-5.782l23.193 23.193-.708.707-23.192-23.193zm218.243 218.221l23.405 23.405-.707.708-23.405-23.405zm5.258-2.536l23.06 22.902-.706.71-23.058-22.903zM73.003 112.417l23.405 23.405-.707.707-23.405-23.405zm2.705-5.367l23.546 23.546-.707.707-23.546-23.547zm223.729 223.636l22.556 22.556-.707.707-22.556-22.556zm5.034-2.887l22.274 22.273-.707.707-22.274-22.273zM78.604 101.978l23.546 23.547-.707.707-23.546-23.546zm3.198-4.981l23.536 23.697-.709.705-23.537-23.697zm227.458 227.68l22.143 21.98-.705.71-22.142-21.98zm4.655-3.378l21.92 21.92-.707.707-21.92-21.92zM84.97 92.388l23.689 23.688-.707.707-23.688-23.688zm3.658-4.405l23.396 23.555-.71.705-23.396-23.556zM318.51 317.958l21.788 21.628-.705.71-21.788-21.628zm4.257-3.613l21.788 21.628-.704.71-21.788-21.628zm-230.5-230.5l23.405 23.405-.707.708L91.56 84.553zm4.039-3.998l23.2 23.044-.704.71-23.2-23.044zm230.802 230.628l21.628 21.788-.71.705-21.628-21.788zm3.968-3.809l21.779 21.778-.707.707-21.779-21.778zM100.403 75.803l22.902 23.062-.71.705-22.902-23.062zm4.293-3.646l22.769 22.768-.707.708-22.769-22.77zM334.972 302.54l21.92 21.92-.707.706-21.92-21.92zm3.851-4.194l21.92 21.92-.707.707-21.92-21.92zM109.164 68.756l22.415 22.415-.707.707-22.415-22.415zm4.566-3.359l22.274 22.274-.707.707-22.274-22.274zm228.642 228.538l22.274 22.274-.707.707-22.274-22.274zm3.534-4.465l22.565 22.407-.704.71L345.2 290.18zM118.367 61.968L140.5 84.1l-.707.707-22.133-22.132zm4.913-3.112l21.92 21.92-.708.707-21.92-21.92zm225.917 225.876l22.759 22.92-.71.704-22.758-22.92zm3.002-4.806l23.2 23.044-.704.71-23.201-23.044zM128.258 55.776l21.77 21.93-.71.705-21.77-21.93zm5.101-2.798l21.779 21.778-.707.707-21.78-21.778zm221.854 221.913l23.396 23.556-.71.704-23.395-23.555zm2.713-5.101l23.84 23.678-.705.71-23.84-23.678zM138.452 50.284l21.778 21.779-.707.707-21.779-21.779zm5.401-2.707l21.779 21.778-.708.708-21.778-21.78zm216.774 216.761l24.04 24.041-.706.707-24.042-24.041zm2.375-5.578l24.324 24.325-.707.707-24.324-24.324zM149.232 44.954l21.92 21.92-.707.707-21.92-21.92zm5.609-2.335l22.132 22.132-.707.707-22.132-22.132zM365.21 253.07l24.465 24.466-.707.707-24.466-24.466zm2.082-5.87l24.466 24.466-.707.707-24.466-24.465zM160.389 40.251l22.415 22.415-.708.707-22.415-22.415zm5.865-2.075l22.768 22.769-.707.707-22.768-22.769zm202.768 202.785l24.466 24.466-.708.707-24.465-24.466zm1.473-6.561l24.678 24.677-.707.707-24.678-24.677zM172.135 36.036L195.54 59.44l-.707.707-23.405-23.405zm6.06-1.794l27.233 27.072-.705.709L177.49 34.95zm190.53 190.331l27.5 27.655-.71.705-27.499-27.655zm.75-7.009l27.648 27.647-.707.707-27.648-27.647zM184.351 32.42l28.002 28-.707.708-28.002-28.002zm6.505-1.576l28.768 28.932-.71.705-28.767-28.931zM370.123 210.29L397.991 238l-.705.709-27.868-27.71zm.235-7.822l28.002 28.001-.707.707-28.002-28.001zM197.437 29.635l30.052 30.052-.708.707-30.051-30.052zm6.856-1.13l31.475 31.316-.705.709-31.475-31.316zm165.912 165.719l28.284 28.284-.707.707-28.284-28.284zm-.865-8.78l28.92 28.92-.706.708-28.92-28.92zM211.413 27.487l33.092 33.092-.707.707-33.092-33.092zm7.491-.462l34.012 34.012-.708.707-34.011-34.012zM368.9 177.09l28.92 28.92-.707.707-28.92-28.92zm1.562-6.455l26.587 26.587-.707.707-26.587-26.587zM226.873 27.034l32.456 32.456-.708.707-32.455-32.456zm8.523.616l34.507 34.506-.708.707-34.506-34.506zm132.33 132.36l28 28-.706.707-28.002-28zm-4.403-12.392l30.83 30.83-.708.707-30.83-30.83zM244.992 29.258l37.406 37.406-.708.707-37.405-37.406zm10.616 2.752l41.795 41.643-.706.709-41.795-41.643zm100.777 100.47l35.779 35.779-.707.707-35.78-35.78zm-18.139-25.932l51.052 51.052-.707.707-51.052-51.052zM267.455 35.78l56.002 56.003-.707.707-56.002-56.002zm13.498 5.535l104.65 104.65-.707.708-104.65-104.65zm16.086 8.008l83.508 83.509-.707.707-83.509-83.509zm20.699 12.686l54.582 54.736-.708.706-54.582-54.736zM21.361 227.576l.863.505-3.843 6.558-.862-.506z"/><path fill="#42385D" d="M14.566 227.585l3.84 6.559-.863.505-3.84-6.559z"/><path fill="#42385D" d="M17.5 227.8h1v15.1h-1zm-7 15.1h1v13.2h-1z"/><path fill="#42385D" d="M11 242.4h14v1H11z"/><path fill="#42385D" d="M24.5 242.9h1v13.2h-1z"/><path fill="#42385D" d="M11 255.6h14v1H11zm7.4-6.6l2.4-2.6c.1-.1.2-.1.2-.1.1 0 .1 0 .1.1v.2s0 .1-.1.1l-2.4 2.7.3 3.2v.1c0 .1-.1.1-.1.2-.1 0-.1.1-.2.1h-.1v-.1l-.3-3.1-1.1 3c0 .1-.1.1-.1.2-.1 0-.1.1-.2.1 0 0-.1 0-.1-.1v-.2l1.1-3-2.5 3.1-.1.1h-.1c-.1 0-.1 0-.1-.1v-.2l.1-.1 2.6-3.2-.5-2.7v-.1l.1-.1c.1-.1.1-.1.2-.1s.1 0 .1.1l.5 2.6.9-2.5c0-.1.1-.1.1-.2.1 0 .1-.1.2-.1s.1 0 .1.1v.2l-1 2.4zM197.9 13.2c.3 0 .4.2.3.5l-.3.9c0 .1-.1.2-.3.3-.1.1-.3.2-.4.2s-.2 0-.3-.1-.1-.2 0-.3l.2-.5h-5.7l-.2.5c0 .1-.1.2-.3.3-.1.1-.3.2-.4.2s-.2 0-.3-.1c-.1-.1-.1-.2 0-.3l.3-.9c.1-.3.3-.5.6-.5h.5l5.4-12c0-.1.1-.2.2-.3l.2-.1h4c.3 0 .4.2.3.5l-4.3 11.8.5-.1zm-5.2 0h3.7l4.1-11.3h-2.9l-4.9 11.3zm14.4-3.3h-5.7c-.1 0-.2 0-.3-.1v-.3c0-.1.1-.2.2-.3.1-.1.3-.2.4-.2h5.7c.1 0 .2.1.3.2.1.1.1.2 0 .3 0 .1-.1.2-.2.3-.1.1-.3.1-.4.1zm7.5 3.3c.3 0 .4.2.3.5l-.3.9c0 .1-.1.2-.3.3-.1.1-.3.2-.4.2s-.2 0-.3-.1c-.1-.1-.1-.2 0-.3l.2-.5h-5.7l-.2.5c0 .1-.1.2-.3.3-.1.1-.3.2-.4.2s-.2 0-.3-.1-.1-.2 0-.3l.3-.9c.1-.3.3-.5.6-.5h.5l5.2-11.8c0-.1.1-.2.2-.3l.2-.1h4c.3 0 .4.2.3.5l-4.3 11.8.7-.3zm-5.2 0h3.7l4.1-11.3h-2.9l-4.9 11.3zm9 1.3v.1c0 .1-.1.2-.3.3-.1.1-.3.1-.4.1-.1 0-.2 0-.2-.1-.1 0-.1-.1-.1-.3.1-1.1.3-2.3.6-3.5l.2-1 .1-.5.1-.4.1-.4.1-.3.4-1.2c.9-2.4 2.1-4.8 3.6-7.2 0-.1.1-.2.2-.2.1-.1.2-.1.3-.1.1 0 .2 0 .3.1s.1.2 0 .3l-.1.1c-.3.5-.6 1.1-1 1.6-.3.6-.6 1.2-1 1.8l-.2 1.3c-.2.3-.3.6-.4.8l-.4.9-.3.8c-.4 1.2-.8 2.4-1.1 3.5-.1.5-.2 1.1-.3 1.7l-.1.9-.1.9zm8.1-.3h-5.6c-.1 0-.2 0-.3-.2v-.4c0-.1.1-.2.1-.2l8-7.8.3-.4.3-.3c.2-.2.3-.5.4-.7.2-.6.2-1.2-.2-1.6-.2-.2-.4-.4-.6-.5-.3-.1-.6-.2-.9-.2-.4 0-.9.1-1.3.4-.5.2-.9.7-1.4 1.2l-.2.2c-.1 0-.2.1-.3.1-.1 0-.2 0-.3-.1-.1-.1-.1-.2 0-.3l.1-.2c.5-.8 1.2-1.3 1.9-1.7.6-.3 1.3-.5 1.9-.5.9 0 1.6.3 2.1.9.5.6.6 1.4.3 2.3-.1.3-.3.6-.5.9-.2.3-.5.6-.9 1l-7.3 7.1h4.8c.1 0 .2 0 .3.2.1.1.1.2 0 .3 0 .1-.1.2-.2.3-.2.1-.3.2-.5.2zm9.9-2.9c-.3.8-.8 1.4-1.6 2-.8.6-1.5.8-2.3.8h-.9c-.7 0-1.3-.3-1.7-.8-.4-.5-.4-1.2-.1-2l2.7-7.6c.3-.8.8-1.4 1.5-2 .8-.6 1.5-.8 2.3-.8h.9c.8 0 1.3.3 1.7.8.4.6.4 1.2.1 2l-2.6 7.6zm-.9 0l2.7-7.6c.2-.5.2-1-.1-1.3-.2-.4-.6-.6-1.1-.6h-1c-.5 0-1 .2-1.5.6-.5.4-.8.8-1 1.3l-2.7 7.6c-.2.5-.2 1 .1 1.3.2.4.6.6 1.1.6h.9c.5 0 1-.2 1.5-.5.5-.4.9-.8 1.1-1.4zm3.9-1.2c.1.1.1.2 0 .3s-.1.2-.2.3-.3.2-.4.2c-.1 0-.2 0-.3-.1v-.3c0-.1.1-.2.2-.3.1-.1.3-.2.4-.2.1-.1.2 0 .3.1zm1.7-4.8c.1.1.1.2 0 .3 0 .1-.1.2-.2.3-.1.1-.3.2-.4.2-.1 0-.2 0-.3-.1v-.3c0-.1.1-.2.2-.3.1-.1.3-.2.4-.2.1 0 .2 0 .3.1zm2.7 8.4c-.1.2-.1.3-.3.4-.1.1-.2.1-.4.1-.1 0-.2 0-.3-.1-.1-.1-.1-.2 0-.4l4.1-11.1-2.8 2c-.1.1-.3.1-.4.1-.1 0-.2 0-.3-.1-.1-.1-.1-.2 0-.3 0-.1.1-.2.3-.3l3.9-2.8c.1-.1.2-.1.4-.1.1 0 .2 0 .3.1.1.1.1.2 0 .3l-4.5 12.2zm2.3 1c-.1.1-.1.2-.2.3-.1.1-.2.1-.3.1-.1 0-.2 0-.3-.1-.1-.1-.1-.2 0-.3l.1-.1c.3-.5.6-1.1 1-1.6.3-.6.6-1.2 1-1.8l.4-.9.2-.5.1-.4.2-.5.3-.6.2-.6c.4-1.1.8-2.3 1-3.5.1-.6.3-1.2.3-1.7l.1-.9.1-.8V.7c0-.1.1-.2.3-.3.1-.1.3-.1.4-.1.1 0 .1 0 .2.1.1 0 .1.1.1.3-.2 2.4-.8 4.8-1.7 7.2-.7 2-1.9 4.4-3.5 6.8zm67.572 300.46l1.914 5.262-.94.342-1.914-5.263z"/><path fill="#42385D" d="M313.434 314.804l.836.334-.372.929-.835-.334z"/><path fill="#42385D" d="M314.29 314.58l.708.707-.637.636-.707-.707z"/><path fill="#42385D" d="M315.187 314.937l.479 5.58-.997.085-.478-5.58z"/><path fill="#42385D" d="M315.1 320.6h-.2v-1.2h.2v1.2zm-.2-.5h-.2v-1.3h.2v1.3zm-.1-.5h-.2v-.3h-.2v-.5h-.2v-.5h-.2v-.8h-.2v-.5h-.2v-.5h-.2v-.5h-.2v-1.2h.3v.2h.3v.2h.2v.6h.2v.6h.2v.8h.2v.6h.2v1.8z"/><path fill="#42385D" d="M315.1 320.6h-.2v-1.2h.2v1.2zm-.2-.5h-.2v-1.3h.2v1.3zm-.1-.5h-.2v-.3h-.2v-.5h-.2v-.5h-.2v-.8h-.2v-.5h-.2v-.5h-.2v-.5h-.2v-1.2h.3v.2h.3v.2h.2v.6h.2v.6h.2v.8h.2v.6h.2v1.8z"/><path fill="#42385D" d="M315.1 320.2h-.2v-.6h-.1v-.8h-.2v-.6h-.1v-.8h-.2v-.7h-.2v-.6h-.1v-1h.1v-.2h.2v-.1h.2v-.2h.3v1.8h.1v1.9h.2z"/><path fill="#42385D" d="M315.1 320.2h-.2v-.6h-.1v-.8h-.2v-.6h-.1v-.8h-.2v-.7h-.2v-.6h-.1v-1h.1v-.2h.2v-.1h.2v-.2h.3v1.8h.1v1.9h.2z"/><path fill="#42385D" d="M309.426 291.841l6.205 28.635-.977.212-6.206-28.635z"/><path fill="#42385D" d="M265.6 291.4h43.3v1h-43.3z"/><path fill="#42385D" d="M268.953 285.13l3.67 6.542-.873.49-3.669-6.542z"/><path fill="#42385D" d="M278.881 279.513l.86.51-7.13 12.048-.86-.51z"/><path fill="#42385D" d="M279.3 279.3h31.5v1h-31.5zm4.1 6.9l.5 2.5v.1c0 .1-.1.1-.1.2-.1 0-.1.1-.2.1h-.1s0-.1-.1-.1l-.6-2.7h-.8l-.9 2.6c0 .1-.1.1-.1.2-.1 0-.1.1-.2.1 0 0-.1 0-.1-.1v-.2l2.2-6.1c.1-.2.2-.2.3-.2h1.6c.4 0 .7.1.8.4.2.3.2.6.1 1l-.3.9c-.1.4-.4.7-.8 1s-.8.3-1.2.3zm-1.2-.5h1.4c.3 0 .5-.1.8-.3.3-.2.4-.4.5-.7l.3-.9c.1-.3.1-.5 0-.7-.1-.2-.3-.3-.6-.3h-1.4l-1 2.9zm5.8 2.8c.1 0 .1.1.1.2s-.1.1-.1.2c-.1 0-.1.1-.2.1h-.1c-.1 0-.1-.1-.2-.1 0 0-.1-.1-.1-.2-.3.2-.5.3-.8.3h-.9c-.3 0-.4-.1-.6-.3-.1-.2-.1-.4 0-.7l1-2.8c.1-.2.3-.4.5-.6.2-.2.5-.3.8-.3h1.6c.2 0 .2.1.1.2l-1.3 3.5v.3c0 .1.1.2.2.2zm-.6-.5l1.2-3.3h-1.4c-.1 0-.3 0-.4.1l-.3.3-1 2.8v.3c.1.1.2.1.3.1h.9c.1 0 .3 0 .4-.1.1.1.2 0 .3-.2zm7.5-.4c-.1.4-.4.7-.8 1-.4.3-.8.4-1.1.4h-.5c-.4 0-.6-.1-.8-.4-.2-.3-.2-.6-.1-1l1.4-3.7c.1-.4.4-.7.8-1 .4-.3.8-.4 1.1-.4h.5c.4 0 .7.1.8.4.2.3.2.6.1 1l-1.4 3.7zm-.4 0l1.4-3.7c.1-.3.1-.5 0-.7-.1-.2-.3-.3-.6-.3h-.5c-.3 0-.5.1-.8.3-.2.2-.4.4-.5.7l-1.4 3.7c-.1.3-.1.5 0 .7.1.2.3.3.5.3h.5c.3 0 .5-.1.8-.3s.5-.5.6-.7zm.8 2.2l-.1.1h-.1c-.1 0-.1 0-.1-.1v-.3l.6-.9c0-.1.1-.1.1-.1h.2c.1 0 .1 0 .1.1v.3l-.7.9zm4.4-2.7h.7c.1 0 .1 0 .1.1v.2c0 .1-.1.1-.1.2-.1 0-.1.1-.2.1h-.7l-.4 1.2c0 .1-.1.1-.1.2-.1 0-.1.1-.2.1 0 0-.1 0-.1-.1v-.2l.4-1.2h-1.6c-.1 0-.1 0-.1-.1v-.3l2.6-4.7c0-.1.1-.1.1-.1h.2c.1 0 .1 0 .1.1v.3l-2.5 4.4h1.3l.4-1.2s.1-.1.1-.2c.1-.1.1-.1.2-.1s.1 0 .1.1v.2l-.3 1zm5 .5c-.1.4-.4.7-.8 1-.4.3-.8.4-1.1.4h-.5c-.4 0-.6-.1-.8-.4-.2-.3-.2-.6-.1-1l1.4-3.7c.1-.4.4-.7.8-1 .4-.3.8-.4 1.1-.4h.5c.4 0 .7.1.8.4.2.3.2.6.1 1l-1.4 3.7zm-.5 0l1.4-3.7c.1-.3.1-.5 0-.7-.1-.2-.3-.3-.6-.3h-.5c-.3 0-.5.1-.8.3-.2.2-.4.4-.5.7l-1.4 3.7c-.1.3-.1.5 0 .7.1.2.3.3.5.3h.5c.3 0 .5-.1.8-.3s.5-.5.6-.7zM196.346 390.91l.83.556-20.98 31.32-.83-.556z"/><path fill="#42385D" d="M162.4 422h13.4v1h-13.4zm118.819-81.576l.318 5.891-.998.054-.319-5.891z"/><path fill="#42385D" d="M280.26 334.46l.96 5.922-.987.16-.96-5.922z"/><path fill="#42385D" d="M278.73 328.816l1.594 5.577-.962.275-1.593-5.577z"/><path fill="#42385D" d="M276.413 323.392l2.209 5.363-.925.38-2.209-5.362z"/><path fill="#42385D" d="M273.755 318.112l2.702 5.245-.889.458-2.702-5.245z"/><path fill="#42385D" d="M270.374 313.26l3.326 4.752-.82.573-3.325-4.752zm-3.882-4.686l3.826 4.623-.77.637-3.826-4.622z"/><path fill="#42385D" d="M262.153 304.539l4.33 4.008-.68.734-4.33-4.008z"/><path fill="#42385D" d="M257.491 301.049l4.621 3.505-.604.797-4.621-3.506z"/><path fill="#42385D" d="M252.399 297.97l5.073 3.013-.51.86-5.074-3.012z"/><path fill="#42385D" d="M247.071 295.489l5.22 2.53-.437.9-5.219-2.53z"/><path fill="#42385D" d="M241.496 293.666l5.533 1.74-.3.953-5.533-1.739z"/><path fill="#42385D" d="M235.683 292.375l5.76 1.28-.218.976-5.76-1.28z"/><path fill="#42385D" d="M229.773 291.683l5.866.633-.107.995-5.866-.634z"/><path fill="#42385D" d="M223.8 291.7h5.9v1h-5.9z"/><path fill="#42385D" d="M223.709 291.706l.11.994-5.766.635-.11-.994z"/><path fill="#42385D" d="M217.928 292.354l.217.976-5.76 1.278-.216-.976z"/><path fill="#42385D" d="M212.234 293.667l.324.946-5.58 1.914-.325-.946zm-5.667 1.95l.403.914-5.398 2.382-.403-.915z"/><path fill="#42385D" d="M201.148 297.977l.522.853-4.947 3.028-.522-.853zm-5.017 3.123l.609.793-4.76 3.653-.61-.794z"/><path fill="#42385D" d="M191.352 304.716l.693.72-4.108 3.953-.693-.721zm-4.228 4.057l.76.651-3.84 4.48-.76-.65z"/><path fill="#42385D" d="M183.286 313.194l.828.56-3.363 4.969-.828-.56z"/><path fill="#42385D" d="M179.943 318.187l.89.457-2.699 5.247-.89-.457z"/><path fill="#42385D" d="M177.192 323.494l.934.358-2.074 5.417-.934-.358z"/><path fill="#42385D" d="M175.136 328.974l.961.275-1.596 5.576-.961-.275z"/><path fill="#42385D" d="M173.485 334.65l.987.16-.961 5.922-.987-.16z"/><path fill="#42385D" d="M172.56 340.575l.998.055-.323 5.891-.998-.055z"/><path fill="#42385D" d="M173.249 346.405l.316 5.691-.999.056-.316-5.692zm.341 5.743l.96 5.922-.986.16-.96-5.922z"/><path fill="#42385D" d="M174.456 357.925l1.593 5.577-.962.275-1.593-5.577z"/><path fill="#42385D" d="M176.07 363.43l2.229 5.571-.929.372-2.228-5.571z"/><path fill="#42385D" d="M178.236 369.003l2.722 5.122-.884.469-2.72-5.122z"/><path fill="#42385D" d="M180.908 374.025l3.365 4.967-.828.56-3.365-4.966z"/><path fill="#42385D" d="M184.258 378.99l3.84 4.479-.76.65-3.84-4.48z"/><path fill="#42385D" d="M188.005 383.306l4.33 4.009-.68.733-4.33-4.008z"/><path fill="#42385D" d="M192.31 387.237l4.62 3.505-.603.797-4.621-3.505z"/><path fill="#42385D" d="M196.86 390.733l5.074 3.012-.51.86-5.074-3.012z"/><path fill="#42385D" d="M201.856 393.716l5.398 2.382-.403.915-5.398-2.382z"/><path fill="#42385D" d="M207.216 396.054l5.58 1.914-.324.946-5.58-1.914zm5.587 1.919l5.76 1.28-.217.976-5.76-1.28z"/><path fill="#42385D" d="M218.485 399.282l5.765.64-.11.993-5.765-.64z"/><path fill="#42385D" d="M229.96 399.757l.027 1-5.897.161-.028-1zm5.913-.732l.107.994-5.865.634-.108-.994z"/><path fill="#42385D" d="M241.542 397.853l.217.976-5.76 1.279-.217-.977z"/><path fill="#42385D" d="M247.035 395.916l.325.946-5.581 1.914-.325-.946z"/><path fill="#42385D" d="M252.261 393.539l.414.91-5.28 2.402-.413-.91z"/><path fill="#42385D" d="M257.288 390.398l.53.849-5.09 3.177-.53-.848z"/><path fill="#42385D" d="M261.791 386.913l.604.797-4.624 3.502-.603-.797z"/><path fill="#42385D" d="M266.134 383.01l.68.734-4.33 4.008-.68-.734z"/><path fill="#42385D" d="M269.71 378.456l.784.622-3.667 4.623-.783-.622z"/><path fill="#42385D" d="M273.023 373.767l.819.574-3.332 4.748-.818-.574zm2.702-5.267l.889.457-2.698 5.246-.89-.457z"/><path fill="#42385D" d="M277.79 363.117l.935.358-2.074 5.416-.934-.357z"/><path fill="#42385D" d="M279.329 357.467l.963.268-1.58 5.684-.963-.268z"/><path fill="#42385D" d="M280.268 351.752l.986.164-.951 5.72-.987-.163z"/><path fill="#42385D" d="M280.56 346.278l.999.057-.317 5.59-.999-.056zM170.4 417.9h-4.7c-.4 0-.6-.2-.7-.3-.1-.2-.2-.4-.1-.8l4.5-12.3c.2-.5.6-.8 1.1-.8h4.7c.3 0 .5.1.7.4.1.2.2.5.1.8-.1.2-.2.4-.4.5-.2.2-.5.3-.7.3H171l-1.4 3.7h1.6c.3 0 .5.1.7.4.1.2.2.5.1.8-.1.2-.2.4-.4.5-.2.2-.5.3-.7.3h-2l-1.7 4.7h3.5c.3 0 .5.1.7.4.1.2.2.5.1.8-.1.2-.2.4-.4.5-.2.1-.4.1-.7.1zm198.343-233.5l.25.968-5.52 1.424-.25-.968z"/><path fill="#42385D" d="M363.332 185.178l.857.515-.463.772-.857-.515z"/><path fill="#42385D" d="M363.481 184.507l.637.636-.707.708-.636-.637z"/><path fill="#42385D" d="M363.1 184.4h5.7v1h-5.7z"/><path fill="#42385D" d="M363.9 186.6h-.4v-1h.1v-.3h.2v-.3h1.2v-.2h1.3v-.1h1.3v-.2h.8v1h-.6v.2h-.7v.1h-.6v.2h-.7v.1h-.6v.2h-.6v.2h-.7z"/><path fill="#42385D" d="M363.9 186.6h-.4v-1h.1v-.3h.2v-.3h1.2v-.2h1.3v-.1h1.3v-.2h.8v1h-.6v.2h-.7v.1h-.6v.2h-.7v.1h-.6v.2h-.6v.2h-.7z"/><path fill="#42385D" d="M365 185.8h-1.4v-.1h-.1v-.2h-.2v-.1h-.2v-1h5.8v1h-1.3v.1h-1.3v.2H365z"/><path fill="#42385D" d="M365 185.8h-1.4v-.1h-.1v-.2h-.2v-.1h-.2v-1h5.8v1h-1.3v.1h-1.3v.2H365zM90.218 219.312l.283.96-5.372 1.58-.283-.959z"/><path fill="#42385D" d="M89.889 219.62l.894.448-.492.984-.894-.447z"/><path fill="#42385D" d="M90.22 220.409l.637.636-.707.707-.637-.636z"/><path fill="#42385D" d="M84.9 220.9h5.6v1h-5.6z"/><path fill="#42385D" d="M86.2 221.8h-.6v-1h.5v-.2h.6v-.1h.5v-.2h.4v-.2h.7v-.1h.5v-.2h.6v-.1h.5v-.2h.4v1h-.1v.3H90v.3h-.1v.2h-1.1v.2h-1.3v.1h-1.3z"/><path fill="#42385D" d="M86.2 221.8h-.6v-1h.5v-.2h.6v-.1h.5v-.2h.4v-.2h.7v-.1h.5v-.2h.6v-.1h.5v-.2h.4v1h-.1v.3H90v.3h-.1v.2h-1.1v.2h-1.3v.1h-1.3z"/><path fill="#42385D" d="M90.3 221.8h-4.1v-1h1.3v-.2h1.3v-.1H90v.1h.2v.2h.1z"/><path fill="#42385D" d="M90.3 221.8h-4.1v-1h1.3v-.2h1.3v-.1H90v.1h.2v.2h.1z"/><path fill="#42385D" d="M368.812 184.346l.128.992-283.952 36.618-.128-.992z"/><path fill="#42385D" d="M84.894 220.885l.127.992-49.793 6.37-.127-.991z"/><path fill="#42385D" d="M0 227.3h35.2v1H0zm3.1-4.1c-.3-.1-.4-.4-.5-.7-.1-.3-.1-.7.1-1 .2-.5.5-.9 1-1.3s1-.6 1.5-.6h.3l.8-1.2c.1-.1.2-.2.3-.2.1 0 .1 0 .1.1v.3l-.8 1.2c.3.1.4.4.6.7 0 .1.1.3 0 .5 0 .2-.1.4-.1.5-.2.5-.5.9-1 1.3s-1 .6-1.5.6h-.3l-.8 1.3c-.1.1-.2.2-.3.2 0 0-.1 0-.2-.1v-.3l.8-1.3zm.3-.5l1.8-2.6H5c-.4 0-.8.1-1.1.4-.2.1-.3.3-.5.5l-.2.2-.1.2v.1c-.1.2-.1.5 0 .7 0 .2.1.4.3.5zm2.2-2.5l-1.8 2.6H4c.4 0 .8-.1 1.1-.4.4-.3.6-.6.8-1 .1-.3.1-.5 0-.7 0-.2-.1-.3-.3-.5zm6.1-1.7l-3.6 6.1-.1.1h-.2c-.1 0-.1 0-.1-.1v-.3l3.4-5.8H8.9l-.2.5c0 .1-.1.1-.1.2-.1 0-.1.1-.2.1 0 0-.1 0-.1-.1v-.2l.3-.7c.1-.2.2-.2.3-.2h2.8c.1 0 .1 0 .2.1-.1.1-.1.1-.2.3zm-1.4 7l-.1.1h-.1c-.1 0-.1 0-.1-.1v-.3l.6-.9c0-.1.1-.1.1-.1h.2c.1 0 .1 0 .1.1v.3l-.7.9zm2.7-4.3c.2-.6.6-1.2 1.1-1.8.6-.6 1.2-1 2-1.3h.1c.1 0 .1 0 .1.1v.2s0 .1-.1.1c0 0-.1.1-.2.1h-.2l-.2.1c-.1.1-.3.2-.4.2-.2.2-.5.4-.8.6-.2.2-.4.4-.5.6-.2.2-.3.4-.4.6H15c.4 0 .7.1.8.4.2.3.2.6 0 1l-.3.9c-.1.4-.4.7-.8 1-.4.3-.8.4-1.1.4h-.5c-.4 0-.6-.1-.8-.4-.2-.3-.2-.6-.1-1l.8-1.8zm.4.3l-.7 1.9c-.1.3-.1.5 0 .7.1.2.3.3.5.3h.5c.3 0 .5-.1.8-.3.2-.2.4-.4.5-.7l.3-.9c.1-.3.1-.5 0-.7-.1-.2-.3-.3-.6-.3h-1.3zm5.6 3.2h-2.8c-.1 0-.1 0-.1-.1v-.2s0-.1.1-.1l4-3.9.2-.2.1-.2c.1-.1.1-.2.2-.3.1-.3.1-.6-.1-.8-.1-.1-.2-.2-.3-.2-.1-.1-.3-.1-.4-.1-.2 0-.4.1-.7.2s-.5.3-.7.6l-.1.1h-.1c-.1 0-.1 0-.1-.1v-.3c.3-.4.6-.7.9-.9.3-.2.6-.3.9-.3.4 0 .8.2 1 .5.2.3.3.7.1 1.1-.1.2-.1.3-.2.4-.1.1-.2.3-.4.5l-3.6 3.5h2.3c.1 0 .1 0 .1.1v.2c0 .1-.1.1-.1.2-.1.3-.2.3-.2.3zm4.9-7h.6s.1 0 .1.1v.1s0 .1-.1.1l-.1.1h-.6l-.2.6c0 .1 0 .1-.1.1h-.2v-.1l.2-.6h-.7v-.1s0-.1.1-.1l.1-.1h.6l.2-.6s0-.1.1-.1l.1-.1h.1v.1l-.2.6zm3.2.8c-.1.3-.3.5-.5.7-.3.2-.5.3-.8.3h-.3c-.2 0-.4-.1-.6-.3s-.1-.4 0-.7l.9-2.5c.1-.3.3-.5.5-.7.3-.2.5-.3.8-.3h.3c.3 0 .5.1.6.3.1.2.1.4 0 .7l-.9 2.5zm-.3 0l.9-2.5c.1-.2.1-.3 0-.4-.1-.1-.2-.2-.4-.2H27c-.2 0-.3.1-.5.2s-.3.3-.4.5l-.9 2.5c-.1.2-.1.3 0 .4.1.1.2.2.4.2h.3c.2 0 .3-.1.5-.2.2-.2.3-.3.4-.5zm.5 1.5l-.1.1H27v-.1l.4-.6.1-.1h.2v.1l-.4.6zm3.5-1.5c-.1.3-.3.5-.5.7-.3.2-.5.3-.8.3h-.3c-.2 0-.4-.1-.6-.3s-.1-.4 0-.7l.9-2.5c.1-.3.3-.5.5-.7.3-.2.5-.3.8-.3h.3c.3 0 .5.1.6.3.1.2.1.4 0 .7l-.9 2.5zm-.3 0l.9-2.5c.1-.2.1-.3 0-.4-.1-.1-.2-.2-.4-.2h-.3c-.2 0-.3.1-.5.2s-.3.3-.4.5l-.9 2.5c-.1.2-.1.3 0 .4.1.1.2.2.4.2h.3c.2 0 .3-.1.5-.2.2-.2.4-.3.4-.5zm2.8 0c-.1.3-.3.5-.5.7-.3.2-.5.3-.8.3h-.9v-.1s0-.1.1-.1l.1-.1h.8c.2 0 .3-.1.5-.2s.3-.3.3-.5l.2-.6c.1-.2.1-.3 0-.4s-.2-.2-.4-.2H32c-.1 0-.1-.1-.1-.2l.7-1.9c0-.1.1-.2.2-.2h1.6s.1 0 .1.1v.1s0 .1-.1.1l-.1.1h-1.4l-.6 1.6h.6c.3 0 .5.1.6.3.1.2.1.4 0 .7l-.2.5zm81.763 79.766l.535.845-4.732 2.994-.535-.845z"/><path fill="#42385D" d="M110.593 301.23l.986.164-.164.986-.987-.165z"/><path fill="#42385D" d="M111 301.9h1v1h-1z"/><path fill="#42385D" d="M114.943 298.405l.735.678-3.798 4.116-.735-.679z"/><path fill="#42385D" d="M114.954 298.324l.646.763-7.179 6.068-.646-.764z"/><path fill="#42385D" d="M111.8 302.3h-1.3v-1h.4v-.2h.3v-.2h.1v-.1h.4v-.2h.1v-.1h.3v-.2h.4v-.1h.1v-.2h.3v-.2h.2v-.1h.3v-.2h.2v-.1h.3v-.2h.3v-.2h.2v-.1h.3v-.2h.1v-.1h.2v1h-.2v.1h-.1v.2h-.3v.1h-.2v.2h-.2v.2h-.1v.1h-.2v.2h-.3v.1h-.1v.2h-.2v.2h-.2v.1h-.1v.2h-.3v.1h-.2v.2h-.2v.1h-.1v.2h-.2z"/><path fill="#42385D" d="M111.8 302.3h-1.3v-1h.4v-.2h.3v-.2h.1v-.1h.4v-.2h.1v-.1h.3v-.2h.4v-.1h.1v-.2h.3v-.2h.2v-.1h.3v-.2h.2v-.1h.3v-.2h.3v-.2h.2v-.1h.3v-.2h.1v-.1h.2v1h-.2v.1h-.1v.2h-.3v.1h-.2v.2h-.2v.2h-.1v.1h-.2v.2h-.3v.1h-.1v.2h-.2v.2h-.2v.1h-.1v.2h-.3v.1h-.2v.2h-.2v.1h-.1v.2h-.2z"/><path fill="#42385D" d="M111.7 303.2h-.2v-1.8h.3v-.1h.2v-.2h.1v-.2h.2v-.1h.2v-.2h.3v-.1h.1v-.2h.2v-.1h.2v-.2h.1v-.2h.3v-.1h.2v-.2h.1v-.1h.2v-.2h.2v-.2h.3v-.1h.1v-.2h.2v-.1h.2v-.2h.1v1h-.1v.2h-.2v.1h-.2v.2h-.1v.1h-.2v.2h-.1v.2h-.2v.1h-.2v.2h-.1v.1h-.2v.2h-.1v.2h-.2v.3h-.1v.1h-.2v.2h-.2v.1h-.1v.2h-.2v.2h-.1v.1h-.2v.2h-.2v.1h-.1v.2h-.2v.2h-.1z"/><path fill="#42385D" d="M111.7 303.2h-.2v-1.8h.3v-.1h.2v-.2h.1v-.2h.2v-.1h.2v-.2h.3v-.1h.1v-.2h.2v-.1h.2v-.2h.1v-.2h.3v-.1h.2v-.2h.1v-.1h.2v-.2h.2v-.2h.3v-.1h.1v-.2h.2v-.1h.2v-.2h.1v1h-.1v.2h-.2v.1h-.2v.2h-.1v.1h-.2v.2h-.1v.2h-.2v.1h-.2v.2h-.1v.1h-.2v.2h-.1v.2h-.2v.3h-.1v.1h-.2v.2h-.2v.1h-.1v.2h-.2v.2h-.1v.1h-.2v.2h-.2v.1h-.1v.2h-.2v.2h-.1zM342.983 104l.554.832-4.743 3.162-.554-.832z"/><path fill="#42385D" d="M342.395 103.744l.986.165-.165.986-.986-.164z"/><path fill="#42385D" d="M342.665 103.14l.164.986-.986.164-.165-.986z"/><path fill="#42385D" d="M341.755 102.936l.761.648-3.63 4.264-.761-.648z"/><path fill="#42385D" d="M345.15 100.99l.663.748-7.03 6.24-.663-.747z"/><path fill="#42385D" d="M339.3 107.6h-.2v-1h.2v-.2h.1v-.1h.2v-.2h.2v-.2h.3v-.1h.1v-.2h.2v-.1h.2v-.2h.1v-.2h.2v-.1h.1v-.2h.3v-.1h.2v-.2h.2v-.2h.1v-.1h.2v-.2h.1v-.1h1.2v1h-.2v.1h-.3v.2h-.2v.1h-.3v.2h-.2v.2h-.3v.1h-.1v.2h-.4v.1h-.1v.2h-.3v.2h-.2v.1h-.3v.2h-.2v.1h-.3v.2h-.1v.2h-.4v.1h-.1z"/><path fill="#42385D" d="M339.3 107.6h-.2v-1h.2v-.2h.1v-.1h.2v-.2h.2v-.2h.3v-.1h.1v-.2h.2v-.1h.2v-.2h.1v-.2h.2v-.1h.1v-.2h.3v-.1h.2v-.2h.2v-.2h.1v-.1h.2v-.2h.1v-.1h1.2v1h-.2v.1h-.3v.2h-.2v.1h-.3v.2h-.2v.2h-.3v.1h-.1v.2h-.4v.1h-.1v.2h-.3v.2h-.2v.1h-.3v.2h-.2v.1h-.3v.2h-.1v.2h-.4v.1h-.1z"/><path fill="#42385D" d="M338.8 107.9h-.2v-1h.2v-.2h.2v-.1h.1v-.2h.2v-.1h.1v-.4h.2v-.1h.2v-.2h.1v-.1h.2v-.2h.1v-.2h.2v-.3h.2v-.1h.1v-.2h.2v-.2h.1v-.1h.2v-.2h.1v-.3h.2v-.1h.2v-.2h.1v-.2h.2v-.1h.1v-.2h.2v1.8h-.2v.2h-.1v.1h-.2v.2h-.1v.1h-.2v.2h-.2v.2h-.3v.1h-.1v.2h-.2v.1h-.1v.2h-.2v.2h-.2v.1h-.1v.2h-.3v.1h-.2v.2h-.2v.2h-.1v.1h-.2v.2h-.1v.1h-.2z"/><path fill="#42385D" d="M338.8 107.9h-.2v-1h.2v-.2h.2v-.1h.1v-.2h.2v-.1h.1v-.4h.2v-.1h.2v-.2h.1v-.1h.2v-.2h.1v-.2h.2v-.3h.2v-.1h.1v-.2h.2v-.2h.1v-.1h.2v-.2h.1v-.3h.2v-.1h.2v-.2h.1v-.2h.2v-.1h.1v-.2h.2v1.8h-.2v.2h-.1v.1h-.2v.2h-.1v.1h-.2v.2h-.2v.2h-.3v.1h-.1v.2h-.2v.1h-.1v.2h-.2v.2h-.2v.1h-.1v.2h-.3v.1h-.2v.2h-.2v.2h-.1v.1h-.2v.2h-.1v.1h-.2z"/><path fill="#42385D" d="M338.202 107.211l.65.76-223.275 191.123-.65-.76zm29.559-25.476l.653.758-29.558 25.443-.653-.758z"/><path fill="#42385D" d="M368.1 81.6h35v1h-35zm3-4.1c-.3-.1-.4-.4-.5-.7-.1-.3-.1-.7.1-1 .2-.5.5-.9 1-1.3s1-.6 1.5-.6h.3l.8-1.2c.1-.1.2-.2.3-.2.1 0 .1 0 .1.1v.3l-.8 1.2c.3.1.4.4.6.7 0 .1.1.3 0 .5 0 .2-.1.4-.1.5-.2.5-.5.9-1 1.3s-1 .6-1.5.6h-.3l-.8 1.3c-.1.1-.2.2-.3.2 0 0-.1 0-.2-.1v-.3l.8-1.3zm.3-.4l1.8-2.6h-.2c-.4 0-.8.1-1.1.4-.2.1-.3.3-.5.5l-.2.2-.1.2v.1c-.1.3-.1.5-.1.7 0 .2.2.4.4.5zm2.1-2.5l-1.8 2.6h.2c.4 0 .8-.1 1.1-.4.4-.3.6-.6.8-1 .1-.3.1-.5 0-.7.1-.2-.1-.4-.3-.5zm6.2-1.7l-3.6 6.1-.1.1h-.2c-.1 0-.1 0-.1-.1v-.3l3.4-5.8h-2.3l-.2.5c0 .1-.1.1-.1.2-.1 0-.1.1-.2.1 0 0-.1 0-.1-.1v-.2l.3-.7c.1-.2.2-.2.3-.2h2.8c.1 0 .1 0 .2.1-.1.1-.1.1-.1.3zm-1.5 7l-.1.1h-.1c-.1 0-.1 0-.1-.1v-.3l.6-.9c0-.1.1-.1.1-.1h.2c.1 0 .1 0 .1.1v.3l-.7.9zm5.3-2.2c-.1.4-.4.7-.8 1-.4.3-.8.4-1.1.4h-.5c-.4 0-.6-.1-.8-.4-.2-.3-.2-.6-.1-1l.3-.9c.1-.2.2-.5.4-.7s.5-.4.8-.6c-.1-.1-.2-.3-.2-.5s0-.4.1-.6l.2-.5c.1-.4.4-.7.8-1l.6-.3.3-.1h.3c.4 0 .7.1.9.4.1.1.1.3.1.4v.3l-.1.1-.2.5-.3.6c-.1.2-.3.3-.6.5.2.1.3.3.4.5.1.2 0 .5-.1.7l-.4 1.2zm-.5 0l.3-.9c.1-.3.1-.5 0-.7s-.3-.3-.6-.3h-.5c-.3 0-.5.1-.8.3s-.4.4-.5.7l-.3.9c-.1.3-.1.5 0 .7.1.2.3.3.5.3h.5c.3 0 .5-.1.8-.3.3-.2.5-.4.6-.7zm1-3.3l.2-.5c.1-.3.1-.5 0-.7-.1-.2-.3-.3-.6-.3s-.5.1-.8.3c-.2.2-.4.4-.5.7l-.2.5c-.1.3-.1.5 0 .7.1.2.3.3.6.3s.5-.1.8-.3c.2-.2.4-.4.5-.7zm2.9 4.7h-2.8c-.1 0-.1 0-.1-.1v-.2s0-.1.1-.1l4-3.9.2-.2.1-.2c.1-.1.1-.2.2-.3.1-.3.1-.6-.1-.8-.1-.1-.2-.2-.3-.2-.1-.1-.3-.1-.4-.1-.2 0-.4.1-.7.2-.2.1-.5.3-.7.6l-.1.1h-.1c-.1 0-.1 0-.1-.1v-.3c.3-.4.6-.7.9-.9.3-.2.6-.3.9-.3.4 0 .8.2 1 .5.3.3.3.7.1 1.1-.1.2-.1.3-.2.4-.1.1-.2.3-.4.5l-3.6 3.5h2.3c.1 0 .1 0 .1.1v.2c0 .1-.1.1-.1.2-.1.3-.1.3-.2.3zm5-7h.6s.1 0 .1.1v.1s0 .1-.1.1l-.1.1h-.6l-.2.6c0 .1 0 .1-.1.1h-.2v-.1l.2-.6h-.7v-.1s0-.1.1-.1l.1-.1h.6l.2-.6s0-.1.1-.1l.1-.1h.1v.1l-.2.6zm3.2.8c-.1.3-.3.5-.5.7-.3.2-.5.3-.8.3h-.3c-.2 0-.4-.1-.6-.3s-.1-.4 0-.7l.9-2.5c.1-.3.3-.5.5-.7.3-.2.5-.3.8-.3h.3c.3 0 .5.1.6.3.1.2.1.4 0 .7l-.9 2.5zm-.4 0l.9-2.5c.1-.2.1-.3 0-.4-.1-.1-.2-.2-.4-.2h-.3c-.2 0-.3.1-.5.2s-.3.3-.4.5l-.9 2.5c-.1.2-.1.3 0 .4.1.1.2.2.4.2h.3c.2 0 .3-.1.5-.2.3-.2.4-.4.4-.5zm.5 1.5l-.1.1h-.2v-.1l.4-.6.1-.1h.2v.1l-.4.6zm3.6-1.5c-.1.3-.3.5-.5.7-.3.2-.5.3-.8.3h-.3c-.2 0-.4-.1-.6-.3s-.1-.4 0-.7l.9-2.5c.1-.3.3-.5.5-.7.3-.2.5-.3.8-.3h.3c.3 0 .5.1.6.3.1.2.1.4 0 .7l-.9 2.5zm-.4 0l.9-2.5c.1-.2.1-.3 0-.4-.1-.1-.2-.2-.4-.2h-.3c-.2 0-.3.1-.5.2s-.3.3-.4.5l-.9 2.5c-.1.2-.1.3 0 .4.1.1.2.2.4.2h.3c.2 0 .3-.1.5-.2.3-.2.4-.4.4-.5zm2.8 0c-.1.3-.3.5-.5.7-.3.2-.5.3-.8.3h-.9v-.1s0-.1.1-.1l.1-.1h.8c.2 0 .3-.1.5-.2s.3-.3.3-.5l.2-.6c.1-.2.1-.3 0-.4-.1-.1-.2-.2-.4-.2h-.8c-.1 0-.1-.1-.1-.2l.7-1.9c0-.1.1-.2.2-.2h1.6s.1 0 .1.1v.1s0 .1-.1.1l-.1.1h-1.4l-.6 1.6h.6c.3 0 .5.1.6.3s.1.4 0 .7l-.1.5zM26.723 288.173l4.482 3.522-.618.786-4.482-3.522z"/><path fill="#42385D" d="M30.812 291.613l.196.98-.785.157-.195-.981z"/><path fill="#42385D" d="M29.582 292.114l.986.165-.164.986-.987-.164z"/><path fill="#42385D" d="M26.787 288.31l3.505 4.622-.796.604-3.505-4.621z"/><path fill="#42385D" d="M30.9 292.6h-1v-.2h-.2v-.2h-.2v-.2h-.2v-.2h-.2v-.2h-.2v-.2h-.2v-.2h-.2v-.2h-.2v-.2h-.2v.2h-.2v-.2h-.2v-.2h.3v-.2h-.2v-.2h-.2v-.2h-.4v-.2H27v-1.2h.3v.2h.2v.2h.2v.2h.2v.2h.3v.2h.2v.2h.2v.2h.2v.2h.3v.2h.2v.2h.2v.2h.3v.2h.2v.2h.2v.2h.2v.2h.3v.2h.2v.2h.2v.2h.2v.4zm-3.9-3.1h-.2v-1h.2v1zm-.1-.1h-.2v-1h.2v1zm-.2-.2h-.2v-1h.2v1z"/><path fill="#42385D" d="M30.9 292.6h-1v-.2h-.2v-.2h-.2v-.2h-.2v-.2h-.2v-.2h-.2v-.2h-.2v-.2h-.2v-.2h-.2v-.2h-.2v.2h-.2v-.2h-.2v-.2h.3v-.2h-.2v-.2h-.2v-.2h-.4v-.2H27v-1.2h.3v.2h.2v.2h.2v.2h.2v.2h.3v.2h.2v.2h.2v.2h.2v.2h.3v.2h.2v.2h.2v.2h.3v.2h.2v.2h.2v.2h.2v.2h.3v.2h.2v.2h.2v.2h.2v.4zm-3.9-3.1h-.2v-1h.2v1zm-.1-.1h-.2v-1h.2v1zm-.2-.2h-.2v-1h.2v1z"/><path fill="#42385D" d="M30.1 293.5h-.2v-.2h-.2v-.2h-.2v-.1h-.2v-.3h-.2v-.2h-.2v-.2h-.2v-.3h-.2v-.2h-.2v-.2h-.2v-.3h-.2v-.2h-.2v-.2h.3v-.3h-.2v-.2h-.2v-.2h-.2V289h.2v.2h.2v.2h.2v.2h.2v.2h.2v.2h.2v.2h.2v.2h.2v.2h.2v.2h.2v.2h.2v.2h.2v.2h.2v.2h.2v.2h.2v.2h.2v1.5zm-2.6-3.3h-.2v-1h.2v1zm-.1-.2h-.2v-1h.2v1zm-.2-.1H27v-1h.2v1z"/><path fill="#42385D" d="M30.1 293.5h-.2v-.2h-.2v-.2h-.2v-.1h-.2v-.3h-.2v-.2h-.2v-.2h-.2v-.3h-.2v-.2h-.2v-.2h-.2v-.3h-.2v-.2h-.2v-.2h.3v-.3h-.2v-.2h-.2v-.2h-.2V289h.2v.2h.2v.2h.2v.2h.2v.2h.2v.2h.2v.2h.2v.2h.2v.2h.2v.2h.2v.2h.2v.2h.2v.2h.2v.2h.2v.2h.2v.2h.2v1.5zm-2.6-3.3h-.2v-1h.2v1zm-.1-.2h-.2v-1h.2v1zm-.2-.1H27v-1h.2v1zm109.877 109.743l4.62 3.506-.604.796-4.62-3.506z"/><path fill="#42385D" d="M137.669 399.428l.163.987-.987.163-.163-.987z"/><path fill="#42385D" d="M137.38 398.805l.987.164-.164.986-.987-.164z"/><path fill="#42385D" d="M138.303 398.72l3.505 4.62-.796.604-3.506-4.62z"/><path fill="#42385D" d="M140.8 403.4h-.2v-1h.2v1zm-.2-.1h-.2v-1h.2v1zm-.1-.2h-.2v-1h.2v1zm-.2-.1h-.3v-.2h-.2v-.2h-.2v-.2h-.3v-.2h-.2v-.2h-.4v-.2h-.2v-.2h-.2v-.2h-.3v-.2h-.2v-.2h-.5v-.2h-.2v-.2h-.2v-.2h-.3v-1h1.1v.2h.2v.2h.2v.2h.2v.2h.2v.2h.2v.2h.2v.2h.2v.2h.2v.2h.2v.2h.2v.2h.2v.2h.2v.2h.2v.2h.2v.2h.2v.6z"/><path fill="#42385D" d="M140.8 403.4h-.2v-1h.2v1zm-.2-.1h-.2v-1h.2v1zm-.1-.2h-.2v-1h.2v1zm-.2-.1h-.3v-.2h-.2v-.2h-.2v-.2h-.3v-.2h-.2v-.2h-.4v-.2h-.2v-.2h-.2v-.2h-.3v-.2h-.2v-.2h-.5v-.2h-.2v-.2h-.2v-.2h-.3v-1h1.1v.2h.2v.2h.2v.2h.2v.2h.2v.2h.2v.2h.2v.2h.2v.2h.2v.2h.2v.2h.2v.2h.2v.2h.2v.2h.2v.2h.2v.2h.2v.6z"/><path fill="#42385D" d="M141.4 403.9h-.2v-1h.2v1zm-.2-.2h-.2v-1h.2v1zm-.1-.1h-.2v-1h.2v1zm-.2-.2h-.2v-.2h-.2v-.2h-.4v-.2h-.2v-.2h.1v-.2h-.2v-.2h-.2v-.2h-.4v-.2h-.2v-.4h-.2v-.2h-.2v-.2h-.4v-.2h-.2v-.2h-.2v-.2h-.2v-.2h-.2v-1h.2v-.8h.2v.2h.2v.2h.2v.2h.2v.3h.2v.2h.2v.2h.2v.3h.2v.2h.2v.2h.2v.3h.2v.2h.2v.2h.2v.3h.2v.2h.2v.2h.2v.3h.2v.2h.2v.2h.2v.9z"/><path fill="#42385D" d="M141.4 403.9h-.2v-1h.2v1zm-.2-.2h-.2v-1h.2v1zm-.1-.1h-.2v-1h.2v1zm-.2-.2h-.2v-.2h-.2v-.2h-.4v-.2h-.2v-.2h.1v-.2h-.2v-.2h-.2v-.2h-.4v-.2h-.2v-.4h-.2v-.2h-.2v-.2h-.4v-.2h-.2v-.2h-.2v-.2h-.2v-.2h-.2v-1h.2v-.8h.2v.2h.2v.2h.2v.2h.2v.3h.2v.2h.2v.2h.2v.3h.2v.2h.2v.2h.2v.3h.2v.2h.2v.2h.2v.3h.2v.2h.2v.2h.2v.3h.2v.2h.2v.2h.2v.9z"/><path fill="#42385D" d="M26.744 288.242l114.974 114.975-.707.707L26.037 288.949zM82.2 338.6c-.3 0-.5-.1-.6-.2l-.2-.2-.8.4c-.1.1-.2.1-.4.1h-.1c-.2 0-.3-.1-.5-.2-.1-.1-.2-.2-.2-.4v-.2c0-.1.1-.4.4-.6l.5-.2-.6-.6c-.2-.2-.2-.4-.2-.6 0-.2.2-.4.4-.5h.1l5.2-1.4h.2l.3.1.3.2c.2.2.2.3.2.6 0 .2-.2.4-.4.5h-.1l-2.8.8h.1c.2 0 .4.1.5.2.1.1.2.3.2.5s-.2.4-.4.5l-.5.2c.2.2.2.4.2.6-.1.2-.2.4-.4.5-.2-.2-.3-.1-.4-.1zm-1.5 1.8h-.2c-.1 0-.3-.1-.4-.2-.2-.2-.2-.4-.2-.6 0-.2.2-.4.4-.5h.1l1.1-.3h.4c.1 0 .3.1.4.2.1.1.2.3.2.5s-.2.4-.4.5H82l-1.3.4zm0-1v.5-.5z"/><path fill="#42385D" d="M84.8 342.4h-.5c-.6-.1-1-.3-1.4-.7l-.8-.8c-.2-.2-.2-.4-.2-.6.1-.3.2-.4.4-.5.3-.1.7-.1 1 .2l.8.8c.1.1.3.2.5.2s.4 0 .5-.1l.9-.4c.1 0 .2-.1.2-.1s0-.1-.1-.1l-.2-.2c-.2-.2-.2-.4-.2-.6.1-.2.2-.4.4-.5.1 0 .2-.1.4-.1s.4.1.6.2c.1.1.3.2.5.2s.4 0 .5-.1l.4-.2c.1 0 .2-.1.2-.1l-.1-.1-.7-.7c-.2-.2-.2-.4-.2-.6.1-.2.2-.4.4-.5.2-.1.7-.1 1 .2l.7.7c.5.5.5 1 .4 1.3-.1.3-.3.8-.9 1.1l-.9.4c-.1 0-.2.1-.4.1h-.3c0 .1-.1.2-.1.3-.2.3-.4.5-.8.7l-.9.4c-.3.2-.7.2-1.1.2zm8.2-.5c-.2 0-.4-.1-.5-.2l-.2-.2-.3.1c-.1 0-.2.1-.3.1h-.1c-.2 0-.3-.1-.4-.2-.1-.1-.1-.2-.2-.3v-.2c0-.2.1-.4.3-.5-.1-.2-.2-.3-.1-.5s.2-.3.4-.4c.1 0 .2-.1.3-.1.2 0 .4.1.5.2l.2.2.4-.2h.3c.2 0 .4.1.4.2.1.1.2.3.2.5s-.1.4-.3.5c.1.1.2.3.1.5 0 .2-.2.3-.3.4-.2 0-.3.1-.4.1z"/><path fill="#42385D" d="M93.7 344.1h-.3c-.4-.1-.8-.2-1-.5l-.2-.2c-.3-.3-.4-.6-.3-1 0-.3.2-.6.7-.9l2.5-1.1c.3-.2.7-.2 1.1-.1.4.1.8.2 1 .5l.2.2c.4.4.4.8.3 1.1-.1.3-.2.6-.7.9l-2.5 1.1h-.8zm2.1-2.7h-.2l-2.5 1.1.2.2s.1.1.2.1h.3l2.5-1.1-.2-.2-.3-.1z"/><path fill="#42385D" d="M93.3 345.2h-.2c-.1 0-.2-.1-.3-.2-.1-.1-.2-.4-.2-.6 0-.2.2-.3.3-.4h.1l.9-.2h.2c.1 0 .2.1.3.2.1.1.2.3.2.5s-.2.4-.4.5h-.1l-.8.2z"/><path fill="#42385D" d="M96.1 347c-.2 0-.4-.1-.5-.2l-1.3-1.3c-.1-.1-.2-.3-.2-.5v-.1l-.2-.2h.3c.1-.1.1-.2.2-.2h4.4v-.1s-.1-.1-.2-.1h-.7c-.1 0-.2-.1-.3-.1-.2-.2-.3-.4-.2-.6 0-.2.2-.4.4-.5h.1c.5-.1.8-.1 1.1 0 .3.1.6.2.8.5.4.4.5.8.4 1.1 0 .3-.2.7-.8 1-.1.1-.3.1-.5.1h-2.7l.3.3c.1.1.2.4.2.6 0 .2-.2.3-.3.4-.1-.1-.2-.1-.3-.1zm0-1v.5-.5zm43.427-165.047l.89.455-18.108 35.442-.89-.455z"/><path fill="#42385D" d="M140 180.7h15.9v1H140zm11.3-12l1.9-5.2c0-.1.1-.2.3-.3.1-.1.3-.2.4-.2.1 0 .2 0 .3.1s.1.2 0 .3l-4.5 12.3c-.1.2-.1.3-.3.4-.1.1-.2.1-.4.1-.1 0-.2 0-.3-.1-.1-.1-.1-.2 0-.4l2.2-6.1h-4.7l-2.2 6.1c-.1.2-.1.3-.3.4-.1.1-.2.1-.4.1-.1 0-.2 0-.3-.1-.1-.1-.1-.2 0-.4l4.5-12.3c0-.1.1-.2.3-.3.1-.1.3-.2.4-.2.1 0 .2 0 .3.1s.1.2 0 .3l-1.9 5.2h4.7zM21.36 227.576l.864.505-3.843 6.558-.863-.506z"/><path fill="#42385D" d="M14.558 227.574l3.84 6.559-.864.505-3.84-6.559z"/><path fill="#42385D" d="M17.5 227.8h1v15.1h-1zm-7 15.1h1v13.2h-1z"/><path fill="#42385D" d="M11 242.4h14v1H11z"/><path fill="#42385D" d="M24.5 242.9h1v13.2h-1z"/><path fill="#42385D" d="M11 255.6h14v1H11z"/></svg>