<svg xmlns="http://www.w3.org/2000/svg" viewBox="0 0 403.1 422.8"><path fill="#5AB6C0" d="M168.6 410.8l-2.1 5.7h4.2c.1 0 .2 0 .3.2.1.1.1.2 0 .3s-.1.2-.2.3c-.1.1-.3.2-.4.2h-4.7c-.3 0-.4-.2-.3-.5l4.5-12.3c.1-.3.3-.5.6-.5h4.7c.1 0 .2 0 .3.2.1.1.1.2 0 .3s-.1.2-.2.3-.3.2-.4.2h-4.2l-1.7 4.7h2.4c.1 0 .2.1.3.2.1.1.1.2 0 .3s-.1.2-.2.3c-.1.1-.3.2-.4.2h-2.5zm-17.3-242.1l1.9-5.2c0-.1.1-.2.3-.3.1-.1.3-.2.4-.2.1 0 .2 0 .3.1.1.1.1.2 0 .3l-4.5 12.3c-.1.2-.1.3-.3.4-.1.1-.2.1-.4.1-.1 0-.2 0-.3-.1-.1-.1-.1-.2 0-.4l2.2-6.1h-4.7l-2.2 6.1c-.1.2-.1.3-.3.4-.1.1-.2.1-.4.1-.1 0-.2 0-.3-.1-.1-.1-.1-.2 0-.4l4.5-12.3c0-.1.1-.2.3-.3.1-.1.3-.2.4-.2.1 0 .2 0 .3.1.1.1.1.2 0 .3l-1.9 5.2h4.7zm118.505 174.373l.262.966-9.361 2.539-.262-.965z"/><path fill="#5AB6C0" d="M278.834 339.98l.332.944-9.055 3.187-.332-.943z"/><path fill="#5AB6C0" d="M287.679 336.274l.38.925-8.878 3.652-.38-.924zm8.815-4.251l.441.898-8.705 4.278-.441-.898z"/><path fill="#5AB6C0" d="M304.657 327.115l.511.86-8.248 4.911-.512-.86zm7.954-5.413l.563.827-7.935 5.403-.563-.827z"/><path fill="#5AB6C0" d="M320.376 315.865l.603.797-7.82 5.908-.602-.798z"/><path fill="#5AB6C0" d="M327.46 309.483l.665.748-7.18 6.374-.663-.748z"/><path fill="#5AB6C0" d="M334.258 302.532l.715.7-6.853 7.005-.715-.699z"/><path fill="#5AB6C0" d="M340.604 295.342l.747.664-6.373 7.18-.748-.665z"/><path fill="#5AB6C0" d="M346.364 287.638l.806.591-5.737 7.822-.807-.592zm5.432-8.061l.832.555-5.38 8.071-.833-.554zm4.67-8.333l.866.5-4.753 8.226-.866-.5z"/><path fill="#5AB6C0" d="M360.634 262.565l.904.428-4.148 8.769-.904-.428z"/><path fill="#5AB6C0" d="M364.268 253.69l.925.381-3.653 8.878-.925-.38z"/><path fill="#5AB6C0" d="M367.225 244.482l.95.31-3.01 9.22-.951-.31z"/><path fill="#5AB6C0" d="M369.344 236.606l.968.252-2.064 7.936-.968-.252zM254.54 344.854l2.26.807-.336.942-2.26-.808z"/><path fill="#5AB6C0" d="M256.635 345.621l2.395.16-.067.997-2.394-.159z"/><path fill="#5AB6C0" d="M260.517 345.59l.1.995-1.592.16-.1-.996zm-61.226-.692l.317.95-2.372.79-.316-.95z"/><path fill="#5AB6C0" d="M197.07 345.658l.066.998-2.395.16-.066-.998z"/><path fill="#5AB6C0" d="M193.364 345.605l1.392.153-.11.994-1.391-.153zm9.236-1.505h2.4v1h-2.4z"/><path fill="#5AB6C0" d="M202.544 344.103l.196.981-2.353.471-.196-.98z"/><path fill="#5AB6C0" d="M200.043 344.623l.372.929-.836.334-.371-.929zm52.037-.417l2.415.644-.257.966-2.416-.644z"/><path fill="#5AB6C0" d="M249.643 344.03l2.394.16-.066.998-2.395-.16z"/><path fill="#5AB6C0" d="M248.8 344.1h.8v1h-.8zm5.74.754l2.26.807-.336.942-2.26-.808z"/><path fill="#5AB6C0" d="M256.635 345.621l2.395.16-.067.997-2.394-.159z"/><path fill="#5AB6C0" d="M260.517 345.59l.1.995-1.592.16-.1-.996zm-61.226-.692l.317.95-2.372.79-.316-.95z"/><path fill="#5AB6C0" d="M197.07 345.658l.066.998-2.395.16-.066-.998z"/><path fill="#5AB6C0" d="M193.364 345.605l1.392.153-.11.994-1.391-.153zm9.236-1.505h2.4v1h-2.4z"/><path fill="#5AB6C0" d="M202.544 344.103l.196.981-2.353.471-.196-.98z"/><path fill="#5AB6C0" d="M200.043 344.623l.372.929-.836.334-.371-.929zm52.037-.417l2.415.644-.257.966-2.416-.644z"/><path fill="#5AB6C0" d="M249.643 344.03l2.394.16-.066.998-2.395-.16z"/><path fill="#5AB6C0" d="M248.8 344.1h.8v1h-.8zm120.723-170.892l.942.336-.807 2.26-.942-.335z"/><path fill="#5AB6C0" d="M369.683 170.973l.998.067-.159 2.395-.998-.067z"/><path fill="#5AB6C0" d="M370.325 169.368l.313 1.569-.98.196-.314-1.57zm-.685 60.974l.79 2.372-.949.316-.79-2.372z"/><path fill="#5AB6C0" d="M370.458 232.904l.16 2.395-.998.066-.16-2.395z"/><path fill="#5AB6C0" d="M369.655 235.196l.976.217-.325 1.464-.976-.216zm-1.77-10.326l.998.067-.16 2.395-.997-.067z"/><path fill="#5AB6C0" d="M368.723 227.188l.644 2.416-.967.258-.643-2.416z"/><path fill="#5AB6C0" d="M369.346 229.522l.335.836-.928.371-.335-.835zm-.624-54.02l.949.316-.79 2.372-.95-.316z"/><path fill="#5AB6C0" d="M367.884 177.97l.997.066-.159 2.395-.998-.066z"/><path fill="#5AB6C0" d="M368.696 180.31l.157.785-.98.196-.157-.785zM197.226 59.528l2.372.79-.317.95-2.371-.791z"/><path fill="#5AB6C0" d="M194.74 59.323l2.395.16-.067.998-2.395-.16z"/><path fill="#5AB6C0" d="M194.544 59.369l.216.976-1.464.325-.217-.976zm61.88.186l.336.942-2.26.806-.336-.942z"/><path fill="#5AB6C0" d="M258.937 59.373l.066.998-2.394.16-.067-.999z"/><path fill="#5AB6C0" d="M259.026 59.337l1.568.314-.196.98-1.569-.313zm-10.192 1.787l2.395.16-.066.997-2.395-.16z"/><path fill="#5AB6C0" d="M253.412 60.677l.258.967-2.415.644-.258-.966z"/><path fill="#5AB6C0" d="M254.166 60.276l.371.929-.836.334-.37-.929zm-54.542.056l2.372.791-.317.949-2.372-.79z"/><path fill="#5AB6C0" d="M201.834 61.119l2.395.16-.066.997-2.395-.16z"/><path fill="#5AB6C0" d="M204.891 61.063l.196.981-.785.156-.195-.98zM84.145 230.303l.949.316-.79 2.372-.95-.317z"/><path fill="#5AB6C0" d="M83.28 232.868l.998.066-.16 2.395-.997-.066z"/><path fill="#5AB6C0" d="M84.147 235.197l.154 1.391-.994.11-.154-1.39zm.143-62.011l.807 2.26-.942.336-.806-2.26z"/><path fill="#5AB6C0" d="M84.174 171.032l.16 2.395-.998.067-.16-2.395z"/><path fill="#5AB6C0" d="M83.282 169.345l.995.1-.16 1.592-.994-.1zM84.9 178.8h1v2.4h-1z"/><path fill="#5AB6C0" d="M85.45 176.354l.47 2.353-.981.196-.47-2.353z"/><path fill="#5AB6C0" d="M85.127 175.48l.335.836-.929.371-.334-.835zm-.393 52.528l.967.258-.645 2.416-.966-.258z"/><path fill="#5AB6C0" d="M84.883 225.668l.998.067-.16 2.395-.997-.067z"/><path fill="#5AB6C0" d="M84.9 224.9h1v.8h-1zm-.592 11.633l2.538 9.361-.965.262-2.538-9.361zm2.575 9.43l3.178 9.059-.943.33-3.179-9.058z"/><path fill="#5AB6C0" d="M90.002 254.99l3.667 9.09-.928.374-3.667-9.089z"/><path fill="#5AB6C0" d="M93.7 264.044l4.295 8.586-.895.447-4.294-8.586z"/><path fill="#5AB6C0" d="M97.902 272.616l4.915 8.247-.859.512-4.915-8.247zm4.99 8.204l5.38 8.07-.831.556-5.381-8.072zm5.38 8.085l5.86 7.603-.791.61-5.86-7.603z"/><path fill="#5AB6C0" d="M114.105 296.487l6.379 7.175-.748.664-6.378-7.175z"/><path fill="#5AB6C0" d="M120.448 303.621l7.009 6.85-.699.715-7.009-6.85z"/><path fill="#5AB6C0" d="M127.454 310.47l7.175 6.378-.664.747-7.175-6.378z"/><path fill="#5AB6C0" d="M134.597 316.804l7.822 5.905-.603.798-7.821-5.905z"/><path fill="#5AB6C0" d="M142.36 322.676l8.144 5.269-.543.84-8.144-5.27z"/><path fill="#5AB6C0" d="M150.398 327.894l8.23 4.748-.5.866-8.23-4.748z"/><path fill="#5AB6C0" d="M158.645 332.596l8.707 4.274-.44.897-8.708-4.273zm8.707 4.3l8.88 3.647-.38.925-8.88-3.647z"/><path fill="#5AB6C0" d="M176.2 340.593l9.217 3.02-.311.95-9.218-3.02zm9.263 2.993l7.936 2.064-.252.967-7.936-2.064zm7.638-283.882l.262.965-9.361 2.54-.262-.966z"/><path fill="#5AB6C0" d="M183.724 62.171l.317.949-9.107 3.038-.316-.948z"/><path fill="#5AB6C0" d="M174.637 65.28l.388.922L165.991 70l-.387-.922zm-9.158 3.768l.447.894-8.586 4.294-.447-.895z"/><path fill="#5AB6C0" d="M156.924 73.362l.5.867-8.229 4.749-.5-.867zm-8.313 4.792l.555.832-8.071 5.38-.555-.832zm-8.096 5.479l.61.792-7.604 5.86-.61-.792zm-7.688 5.917l.674.738-7.17 6.534-.673-.739z"/><path fill="#5AB6C0" d="M125.653 96.091l.707.708-6.86 6.858-.706-.707z"/><path fill="#5AB6C0" d="M118.77 102.985l.754.656-6.364 7.32-.755-.656z"/><path fill="#5AB6C0" d="M112.339 110.271l.792.61-5.86 7.605-.792-.61z"/><path fill="#5AB6C0" d="M106.52 117.926l.84.543-5.266 8.146-.84-.543z"/><path fill="#5AB6C0" d="M101.245 126.098l.87.492-4.775 8.443-.87-.492zm-4.875 8.466l.898.44-4.274 8.709-.897-.441z"/><path fill="#5AB6C0" d="M92.079 143.26l.925.38-3.648 8.88-.925-.38zm-3.65 9.014l.95.312-3.022 9.217-.95-.312z"/><path fill="#5AB6C0" d="M85.444 161.525l.966.257-2.08 7.828-.966-.257zm282.344-1.618l2.54 9.361-.966.262-2.54-9.361z"/><path fill="#5AB6C0" d="M364.75 150.832l3.036 9.108-.949.316-3.035-9.107z"/><path fill="#5AB6C0" d="M360.906 141.88l3.82 8.917-.919.394-3.82-8.917zm-4.341-8.775l4.275 8.708-.898.44-4.275-8.707z"/><path fill="#5AB6C0" d="M351.804 124.823l4.747 8.229-.866.5-4.748-8.23z"/><path fill="#5AB6C0" d="M346.37 116.857l5.399 7.938-.827.562-5.398-7.938zm-5.93-7.893l5.905 7.82-.798.603-5.906-7.82z"/><path fill="#5AB6C0" d="M333.959 101.814l6.533 7.17-.74.674-6.532-7.17z"/><path fill="#5AB6C0" d="M327.083 94.933l6.859 6.859-.708.707-6.858-6.86z"/><path fill="#5AB6C0" d="M319.734 88.546l7.32 6.365-.657.754-7.32-6.365zm-7.692-5.718l7.6 5.7-.6.8-7.6-5.7zm-8.121-5.459l8.072 5.38-.555.832-8.071-5.38z"/><path fill="#5AB6C0" d="M295.494 72.592l8.441 4.778-.492.87L295 73.463z"/><path fill="#5AB6C0" d="M286.675 68.475l8.77 4.146-.427.904-8.77-4.145zm-8.942-3.674l8.88 3.647-.38.925-8.88-3.647z"/><path fill="#5AB6C0" d="M268.5 61.718l9.219 3.02-.312.95-9.218-3.02z"/><path fill="#5AB6C0" d="M260.673 59.67l7.829 2.078-.256.966-7.83-2.077zM84.195 203.174l.316 9.494-.999.033-.317-9.494z"/><path fill="#5AB6C0" d="M84.45 212.588l.95 9.352-.994.101-.95-9.352zm.98 9.367l.477 2.86-.986.165-.477-2.86zm284.711-28.43l.316 9.494-1 .034-.315-9.495z"/><path fill="#5AB6C0" d="M369.24 184.008l.955 9.552-.995.1-.956-9.552z"/><path fill="#5AB6C0" d="M368.923 181.132l.32 2.883-.994.11-.32-2.882zM52.9 199.8h1v5.6h-1z"/><path fill="#5AB6C0" d="M53.26 191.489l1 .038-.316 8.294-1-.038z"/><path fill="#5AB6C0" d="M54.176 180.377l.996.085-.951 11.16-.997-.085zm1.634-11.989l.99.131-1.581 11.896-.991-.132z"/><path fill="#5AB6C0" d="M57.84 156.294l.986.17-2.079 12.122-.985-.169z"/><path fill="#5AB6C0" d="M60.747 144.349l.972.233-2.87 11.96-.972-.233z"/><path fill="#5AB6C0" d="M64.079 133.198l.958.287-3.33 11.111-.958-.287zm3.686-10.253l.942.338-3.649 10.165-.94-.338z"/><path fill="#5AB6C0" d="M71.714 113.895l.916.402-3.973 9.067-.916-.401zm4.209-8.325l.895.447-4.114 8.229-.895-.447zm4.324-7.228l.857.515-4.271 7.116-.858-.514z"/><path fill="#5AB6C0" d="M83.403 93.7l.824.567-3.178 4.611-.824-.567z"/><path fill="#5AB6C0" d="M88.052 87.772l.786.617-4.627 5.902-.787-.617z"/><path fill="#5AB6C0" d="M93.318 81.979l.746.665-5.26 5.894-.746-.666z"/><path fill="#5AB6C0" d="M99.583 75.988l.688.726-6.238 5.919-.688-.726z"/><path fill="#5AB6C0" d="M106.538 70.138l.644.765-6.966 5.855-.644-.765z"/><path fill="#5AB6C0" d="M114.39 64.372l.592.806-7.817 5.743-.592-.806zm8.828-5.907l.558.83-8.71 5.862-.559-.83z"/><path fill="#5AB6C0" d="M132.694 52.883l.504.864-9.5 5.545-.503-.864z"/><path fill="#5AB6C0" d="M143.03 47.432l.463.886-10.365 5.427-.464-.886z"/><path fill="#5AB6C0" d="M153.905 42.503l.414.91-10.827 4.937-.415-.91z"/><path fill="#5AB6C0" d="M165.235 38.24l.356.934-11.31 4.302-.355-.935z"/><path fill="#5AB6C0" d="M176.379 34.397l.324.946-11.163 3.825-.324-.946zm10.713-2.874l.26.966-10.623 2.857-.26-.966z"/><path fill="#5AB6C0" d="M197.255 29.27l.214.976-10.159 2.225-.214-.977z"/><path fill="#5AB6C0" d="M206.705 27.85l.15.99-9.391 1.428-.15-.989zm8.829-.753l.09.996-8.765.79-.09-.996z"/><path fill="#5AB6C0" d="M223.637 26.896l.02 1-8.099.158-.02-1z"/><path fill="#5AB6C0" d="M223.6 26.9h3.3v1h-3.3zm3.448-.014l7.272.632-.087.996-7.272-.632zm7.348.656l7.922 1.109-.138.99-7.923-1.109z"/><path fill="#5AB6C0" d="M242.322 28.638l8.282 1.91-.224.975-8.283-1.911zm8.383 1.903l8.78 2.395-.264.964-8.78-2.394z"/><path fill="#5AB6C0" d="M259.418 32.932l9.375 3.179-.321.947-9.376-3.18zm9.457 3.227l9.716 3.981-.38.926-9.715-3.982z"/><path fill="#5AB6C0" d="M278.543 40.144l10.142 4.754-.424.905-10.142-4.753zm10.241 4.761l10.534 5.746-.479.878-10.534-5.747z"/><path fill="#5AB6C0" d="M299.3 50.705l10.647 6.356-.513.859-10.646-6.356z"/><path fill="#5AB6C0" d="M309.98 56.979l10.485 6.99-.555.831-10.485-6.989zm10.524 7.061l9.878 7.329-.596.803-9.878-7.328z"/><path fill="#5AB6C0" d="M330.38 71.413l9.244 7.651-.637.77-9.245-7.65z"/><path fill="#5AB6C0" d="M339.626 79.04l8.303 7.665-.678.735-8.304-7.665z"/><path fill="#5AB6C0" d="M347.901 86.696l7.133 7.292-.715.7-7.132-7.292zm7.216 7.3l6.379 7.175-.748.665-6.378-7.175z"/><path fill="#5AB6C0" d="M361.457 101.188l5.22 6.96-.8.6-5.22-6.96zm5.295 7.062l3.845 5.608-.824.566-3.846-5.608z"/><path fill="#5AB6C0" d="M370.563 113.782l3.99 6.702-.86.512-3.99-6.703zm3.989 6.79l3.8 7.602-.893.447-3.802-7.602z"/><path fill="#5AB6C0" d="M378.38 128.164l3.837 8.472-.911.412-3.837-8.471z"/><path fill="#5AB6C0" d="M382.21 136.644l3.493 9.37-.937.35-3.493-9.37z"/><path fill="#5AB6C0" d="M385.707 146.048l3.191 10.213-.954.298-3.191-10.213zm3.264 10.232l3.013 11.098-.965.262-3.013-11.098z"/><path fill="#5AB6C0" d="M391.932 167.397l2.536 11.73-.978.21-2.535-11.728zm2.561 11.866l1.91 12.253-.989.154-1.91-12.253z"/><path fill="#5AB6C0" d="M396.414 191.49l1.427 12.519-.994.113-1.426-12.52z"/><path fill="#5AB6C0" d="M397.85 204.068l.637 12.284-.999.052-.637-12.284z"/><path fill="#5AB6C0" d="M398.507 216.371l.16 11.799-1 .013-.16-11.798z"/><path fill="#5AB6C0" d="M397.631 228.084l.998.058-.644 10.982-.999-.059zm-.682 11.003l.994.11-1.116 10.138-.994-.11z"/><path fill="#5AB6C0" d="M395.897 249.197l.988.152-1.417 9.191-.989-.152zm-1.454 9.227l.972.234-2.061 8.556-.973-.235z"/><path fill="#5AB6C0" d="M392.421 266.93l.956.293-2.4 7.84-.956-.292z"/><path fill="#5AB6C0" d="M390.016 274.646l.93.367-2.718 6.883-.93-.368z"/><path fill="#5AB6C0" d="M387.43 281.397l.706.709-.142.14-.705-.708z"/><path fill="#5AB6C0" d="M387.165 281.716l.904.428-2.865 6.056-.904-.427z"/><path fill="#5AB6C0" d="M384.403 287.674l.873.488-3.807 6.808-.873-.488zm-3.824 6.806l.826.563-4.783 7.026-.827-.563zm-4.799 7.032l.798.603-5.425 7.18-.798-.602z"/><path fill="#5AB6C0" d="M370.352 308.634l.768.64-6.344 7.601-.768-.64z"/><path fill="#5AB6C0" d="M364.063 316.242l.73.685-7.322 7.802-.73-.684zm-7.321 7.815l.685.729-8.302 7.812-.686-.728z"/><path fill="#5AB6C0" d="M348.47 331.77l.66.751-9.093 7.983-.66-.752z"/><path fill="#5AB6C0" d="M339.435 339.684l.611.791-9.89 7.644-.611-.791z"/><path fill="#5AB6C0" d="M329.568 347.357l.581.813-10.007 7.151-.581-.813z"/><path fill="#5AB6C0" d="M319.545 354.432l.533.845-9.897 6.24-.533-.846z"/><path fill="#5AB6C0" d="M309.8 360.702l.476.879-9.67 5.244-.477-.88zm-9.698 5.226l.448.894-8.944 4.472-.448-.894z"/><path fill="#5AB6C0" d="M291.206 370.345l.383.924-8.406 3.483-.383-.924z"/><path fill="#5AB6C0" d="M282.868 373.816l.322.947-7.952 2.705-.322-.946zm-8.013 2.654l.266.964-6.363 1.751-.266-.964z"/><path fill="#5AB6C0" d="M268.593 378.248l.183.983-5.111.956-.184-.983zm-5.123.926l.107.995-5.866.633-.108-.994z"/><path fill="#5AB6C0" d="M251.3 379.8h6.4v1h-6.4z"/><path fill="#5AB6C0" d="M244.347 379.37l6.984.476-.068.997-6.984-.476z"/><path fill="#5AB6C0" d="M236.795 378.438l7.641.955-.124.993-7.64-.955z"/><path fill="#5AB6C0" d="M228.387 376.828l8.451 1.594-.185.983-8.451-1.594zm-9.42-2.243l9.34 2.216-.23.973-9.341-2.216z"/><path fill="#5AB6C0" d="M208.645 371.595l10.365 3.03-.28.96-10.366-3.03z"/><path fill="#5AB6C0" d="M197.061 367.815l11.59 3.81-.312.95-11.59-3.81zm-13.342-4.942l13.322 4.916-.346.938-13.322-4.916z"/><path fill="#5AB6C0" d="M168.334 356.478l15.44 6.367-.382.925-15.44-6.368z"/><path fill="#5AB6C0" d="M152.28 349.372l16.078 7.161-.407.914-16.078-7.161z"/><path fill="#5AB6C0" d="M138.952 342.985l13.363 6.363-.43.903-13.363-6.363zm-10.694-5.274l10.676 5.257-.442.897-10.675-5.257zm-8.776-4.583l8.756 4.618-.466.885-8.757-4.619z"/><path fill="#5AB6C0" d="M112.237 329.174l7.292 3.963-.478.878-7.292-3.963zm-6.382-3.391l6.374 3.346-.464.886-6.375-3.347z"/><path fill="#5AB6C0" d="M100.612 322.94l5.267 2.873-.479.878-5.267-2.874z"/><path fill="#5AB6C0" d="M96.197 320.42l4.429 2.53-.497.868-4.428-2.53zm-3.694-2.284l3.673 2.235-.52.854-3.673-2.235z"/><path fill="#5AB6C0" d="M89.433 316.548l3.009 1.584-.466.885-3.009-1.584z"/><path fill="#5AB6C0" d="M87.298 315.156l2.187 1.406-.541.841-2.187-1.406zm-1.826-.981l1.756.958-.479.878-1.756-.958z"/><path fill="#5AB6C0" d="M84.59 313.572l.916.61-.556.832-.915-.61z"/><path fill="#5AB6C0" d="M84.094 313.334l.5.333-.556.832-.499-.334z"/><path fill="#5AB6C0" d="M83.7 313.2h.2v1h-.2z"/><path fill="#5AB6C0" d="M83.2 313.4h1v.3h-1z"/><path fill="#5AB6C0" d="M83.645 312.196l.492.984-.895.447-.492-.983z"/><path fill="#5AB6C0" d="M83.026 310.79l.65 1.462-.914.406-.65-1.462zm-.856-2.072l.79 2.054-.934.359-.79-2.054z"/><path fill="#5AB6C0" d="M81.124 305.916l1.124 2.889-.932.362-1.124-2.889zm-1.445-3.582l1.439 3.517-.926.379-1.439-3.517z"/><path fill="#5AB6C0" d="M78.103 298.047l1.597 4.314-.938.347-1.597-4.313z"/><path fill="#5AB6C0" d="M76.226 292.844l1.913 5.263-.94.342-1.913-5.263zm-2.263-6.209l2.23 6.212-.941.338-2.23-6.212zm-2.759-7.325l2.704 7.317-.938.346-2.704-7.316z"/><path fill="#5AB6C0" d="M68.196 270.302l3.036 9.108-.948.316-3.037-9.107z"/><path fill="#5AB6C0" d="M64.572 258.997l3.668 11.32-.952.309-3.667-11.32z"/><path fill="#5AB6C0" d="M60.493 244.256l4.148 14.832-.964.269-4.147-14.832zm-3.185-13.034l3.176 13.018-.972.237-3.176-13.018zm-1.792-9.437l1.742 9.34-.983.183-1.742-9.34z"/><path fill="#5AB6C0" d="M54.392 214.37l1.12 7.518-.99.147-1.119-7.517z"/><path fill="#5AB6C0" d="M53.902 208.049l.479 6.382-.998.075-.478-6.382z"/><path fill="#5AB6C0" d="M52.9 205.4h1v2.7h-1zm32.058-24.227l.994.116-1.116 9.535-.993-.116z"/><path fill="#5AB6C0" d="M83.82 190.68l.999.066-.638 9.579-.997-.067z"/><path fill="#5AB6C0" d="M83.2 200.3h1v2.9h-1zM239.304 59.947l9.535 1.112-.116.993-9.535-1.112z"/><path fill="#5AB6C0" d="M229.743 59.466l9.589.48-.05.998-9.589-.48zm-.067-.003l.017 1-9.498.166-.017-1zm-9.581.221l.067.997-9.58.638-.066-.998z"/><path fill="#5AB6C0" d="M210.496 60.29l.14.99-5.544.787-.14-.99zM368.96 215.471l.993.118-1.114 9.434-.993-.117z"/><path fill="#5AB6C0" d="M369.44 205.977l1 .051-.488 9.587-1-.05z"/><path fill="#5AB6C0" d="M369.5 203.1h1v2.9h-1zM205.085 344.034l9.434 1.12-.118.992-9.433-1.119z"/><path fill="#5AB6C0" d="M214.445 345.187l9.58.638-.067.998-9.58-.638zm19.091.433l.015 1-9.499.15-.015-1z"/><path fill="#5AB6C0" d="M242.95 344.882l.084.996-9.566.807-.084-.997z"/><path fill="#5AB6C0" d="M248.67 344.064l.138.99-5.746.794-.137-.99zm121.471-150.539l.316 9.494-1 .034-.315-9.495z"/><path fill="#5AB6C0" d="M369.24 184.008l.955 9.552-.995.1-.956-9.552z"/><path fill="#5AB6C0" d="M367.564 174.657l1.587 9.367-.986.167-1.587-9.367z"/><path fill="#5AB6C0" d="M365.337 165.394l2.23 9.235-.972.235-2.23-9.235zm-2.635-9.355l2.7 9.212-.959.281-2.7-9.212z"/><path fill="#5AB6C0" d="M359.093 147.108l3.51 8.936-.93.365-3.51-8.935z"/><path fill="#5AB6C0" d="M355.182 138.549l3.99 8.62-.907.421-3.99-8.621zm-4.617-8.502l4.609 8.42-.877.48-4.61-8.42z"/><path fill="#5AB6C0" d="M345.478 121.944l5.103 8.132-.847.531-5.103-8.132zm-5.668-7.654l5.537 7.597-.808.589L339 114.88zm-6.233-7.416l6.208 7.322-.763.647-6.208-7.322z"/><path fill="#5AB6C0" d="M326.92 100.043l6.708 6.868-.716.699-6.708-6.868z"/><path fill="#5AB6C0" d="M319.886 93.627l7.029 6.39-.673.74-7.029-6.39z"/><path fill="#5AB6C0" d="M312.394 87.598l7.465 6.035-.628.778-7.466-6.035z"/><path fill="#5AB6C0" d="M304.533 82.164l7.805 5.416-.57.821-7.805-5.416z"/><path fill="#5AB6C0" d="M296.29 77.406l8.228 4.748-.5.866-8.228-4.748zm-8.513-4.491l8.4 4.437-.468.884-8.4-4.437z"/><path fill="#5AB6C0" d="M278.855 69.217l8.88 3.648-.38.925-8.88-3.648z"/><path fill="#5AB6C0" d="M269.935 66.028l8.946 3.195-.336.942-8.946-3.195z"/><path fill="#5AB6C0" d="M260.718 63.45l9.254 2.552-.266.964-9.254-2.553z"/><path fill="#5AB6C0" d="M251.288 61.56l9.407 1.914-.2.98-9.406-1.914zm-9.485-1.288l9.413 1.277-.134.991-9.414-1.277z"/><path fill="#5AB6C0" d="M232.247 59.5l9.566.797-.083.997-9.566-.797z"/><path fill="#5AB6C0" d="M222.7 59.5h9.5v1h-9.5z"/><path fill="#5AB6C0" d="M222.678 59.477l.066.998-9.579.637-.066-.998z"/><path fill="#5AB6C0" d="M213.104 60.177l.135.99-9.414 1.28-.134-.99z"/><path fill="#5AB6C0" d="M203.67 61.435l.183.983-9.338 1.743-.184-.983z"/><path fill="#5AB6C0" d="M194.288 63.204l.266.965-9.256 2.55-.265-.964z"/><path fill="#5AB6C0" d="M185.005 65.697l.317.949-9.107 3.038-.317-.949z"/><path fill="#5AB6C0" d="M175.9 68.743l.386.922-8.765 3.664-.386-.922z"/><path fill="#5AB6C0" d="M167.11 72.378l.447.895-8.586 4.293-.447-.895zm-8.643 4.362l.5.867-8.228 4.749-.5-.866z"/><path fill="#5AB6C0" d="M150.203 81.552l.57.822-7.803 5.419-.57-.822z"/><path fill="#5AB6C0" d="M142.37 87.003l.61.792-7.603 5.86-.61-.792z"/><path fill="#5AB6C0" d="M134.663 92.841l.672.74-7.03 6.39-.672-.74z"/><path fill="#5AB6C0" d="M127.711 99.228l.716.698-6.709 6.868-.715-.699z"/><path fill="#5AB6C0" d="M121.007 106.145l.756.655-6.223 7.178-.756-.655z"/><path fill="#5AB6C0" d="M114.789 113.256l.8.6-5.698 7.601-.8-.6zm-5.804 7.734l.84.542-5.266 8.146-.84-.543z"/><path fill="#5AB6C0" d="M103.788 129.075l.873.488-4.63 8.295-.873-.487z"/><path fill="#5AB6C0" d="M99.137 137.363l.901.433-4.118 8.562-.901-.434zm-4.162 8.688l.931.366-3.507 8.936-.93-.365z"/><path fill="#5AB6C0" d="M91.454 154.957l.953.3-2.858 9.06-.954-.3z"/><path fill="#5AB6C0" d="M88.633 164.035l.973.23-2.214 9.342-.973-.23zm-2.25 9.455l.983.183-1.744 9.338-.983-.183z"/><path fill="#5AB6C0" d="M84.587 182.863l.995.101-.954 9.351-.995-.101zm-.944 9.426l.999.05-.478 9.588-.999-.05z"/><path fill="#5AB6C0" d="M84.222 201.9l.317 9.495-1 .033-.316-9.494z"/><path fill="#5AB6C0" d="M84.483 211.378l.797 9.567-.997.083-.796-9.567z"/><path fill="#5AB6C0" d="M85.23 220.86l1.587 9.367-.985.167-1.588-9.366zm1.658 9.372l2.066 9.375-.976.215-2.066-9.375zm2.006 9.408l2.715 9.104-.958.286-2.716-9.104z"/><path fill="#5AB6C0" d="M91.547 248.621l3.51 8.936-.931.366-3.51-8.936z"/><path fill="#5AB6C0" d="M95.094 257.533l3.8 8.707-.916.4-3.8-8.707zm3.787 8.733l4.608 8.422-.877.48-4.608-8.422z"/><path fill="#5AB6C0" d="M103.55 274.61l4.934 8.118-.855.519-4.934-8.118z"/><path fill="#5AB6C0" d="M108.416 282.692l5.7 7.6-.8.6-5.7-7.6z"/><path fill="#5AB6C0" d="M114.064 290.287l6.035 7.465-.777.629-6.036-7.465zm6.103 7.455l6.556 6.875-.724.69-6.556-6.875z"/><path fill="#5AB6C0" d="M126.63 304.559l7.024 6.544-.682.732-7.023-6.545z"/><path fill="#5AB6C0" d="M133.58 311.057l7.466 6.036-.629.777-7.465-6.035z"/><path fill="#5AB6C0" d="M141.044 317.082l7.806 5.416-.57.821-7.806-5.416z"/><path fill="#5AB6C0" d="M148.828 322.527l8.118 4.935-.52.854-8.117-4.935z"/><path fill="#5AB6C0" d="M156.867 327.416l8.4 4.437-.467.884-8.4-4.437zm8.44 4.394l8.706 3.8-.4.916-8.706-3.799zm8.745 3.833l9.059 3.179-.332.944-9.058-3.179z"/><path fill="#5AB6C0" d="M183.01 338.854l9.212 2.7-.281.96-9.213-2.7z"/><path fill="#5AB6C0" d="M192.18 341.565l9.206 1.904-.203.98-9.205-1.905zm9.23 1.82l9.591 1.44-.148.988-9.592-1.44z"/><path fill="#5AB6C0" d="M210.958 344.796l9.366.794-.084.997-9.366-.794z"/><path fill="#5AB6C0" d="M220.3 345.6h9.5v1h-9.5zm19.09-.458l.051.999-9.587.488-.051-1z"/><path fill="#5AB6C0" d="M248.89 344.072l.115.993-9.536 1.105-.115-.993z"/><path fill="#5AB6C0" d="M258.217 342.29l.184.982-9.338 1.746-.184-.983zm9.234-2.381l.25.968-9.199 2.374-.25-.968z"/><path fill="#5AB6C0" d="M276.47 336.93l.316.949-9.108 3.035-.316-.948z"/><path fill="#5AB6C0" d="M285.196 333.251l.387.922-8.76 3.675-.387-.922z"/><path fill="#5AB6C0" d="M293.75 329.208l.434.901-8.56 4.122-.434-.9zm8.255-4.842l.5.866-8.225 4.753-.5-.866zm7.945-5.232l.55.834-7.927 5.236-.55-.835z"/><path fill="#5AB6C0" d="M317.528 313.279l.612.79-7.596 5.871-.611-.79z"/><path fill="#5AB6C0" d="M324.68 306.949l.664.748-7.178 6.373-.664-.748z"/><path fill="#5AB6C0" d="M331.264 300.313l.707.708-6.646 6.646-.707-.707z"/><path fill="#5AB6C0" d="M337.46 293.12l.756.654-6.218 7.183-.756-.655z"/><path fill="#5AB6C0" d="M343.316 285.617l.792.61-5.862 7.604-.792-.611zm5.274-7.986l.835.551-5.236 7.927-.834-.551z"/><path fill="#5AB6C0" d="M353.191 269.351l.874.487-4.623 8.299-.873-.487z"/><path fill="#5AB6C0" d="M357.305 260.885l.9.434-4.121 8.56-.901-.435zm3.641-8.883l.925.38-3.653 8.878-.925-.38zm3.011-9.119l.95.316-3.036 9.107-.95-.316z"/><path fill="#5AB6C0" d="M366.129 233.73l.972.235-2.226 9.236-.972-.234zm1.759-9.339l.983.184-1.745 9.338-.983-.183zm1.058-9.548l.993.115-1.105 9.536-.993-.115z"/><path fill="#5AB6C0" d="M369.439 205.377l.998.05-.487 9.588-1-.05zm.061-2.277h1v2.2h-1zM197.9 13.2c.3 0 .4.2.3.5l-.3.9c0 .1-.1.2-.3.3s-.3.2-.4.2-.2 0-.3-.1c-.1-.1-.1-.2 0-.3l.2-.5h-5.7l-.2.5c0 .1-.1.2-.3.3s-.3.2-.4.2-.2 0-.3-.1-.1-.2 0-.3l.3-.9c.1-.3.3-.5.6-.5h.5l5.4-12c0-.1.1-.2.2-.3l.2-.1h4c.3 0 .4.2.3.5l-4.3 11.8.5-.1zm-5.2 0h3.7l4.1-11.3h-2.9l-4.9 11.3zm14.4-3.3h-5.7c-.1 0-.2 0-.3-.1v-.3c0-.1.1-.2.2-.3s.3-.2.4-.2h5.7c.1 0 .2.1.3.2.1.1.1.2 0 .3s-.1.2-.2.3c-.1.1-.3.1-.4.1zm7.5 3.3c.3 0 .4.2.3.5l-.3.9c0 .1-.1.2-.3.3s-.3.2-.4.2-.2 0-.3-.1c-.1-.1-.1-.2 0-.3l.2-.5h-5.7l-.2.5c0 .1-.1.2-.3.3s-.3.2-.4.2-.2 0-.3-.1-.1-.2 0-.3l.3-.9c.1-.3.3-.5.6-.5h.5l5.2-11.8c0-.1.1-.2.2-.3l.2-.1h4c.3 0 .4.2.3.5l-4.3 11.8.7-.3zm-5.2 0h3.7l4.1-11.3h-2.9l-4.9 11.3zm9 1.3v.1c0 .1-.1.2-.3.3-.1.1-.3.1-.4.1-.1 0-.2 0-.2-.1-.1 0-.1-.1-.1-.3.1-1.1.3-2.3.6-3.5l.2-1 .1-.5.1-.4.1-.4.1-.3.4-1.2c.9-2.4 2.1-4.8 3.6-7.2 0-.1.1-.2.2-.2.1-.1.2-.1.3-.1.1 0 .2 0 .3.1s.1.2 0 .3l-.1.1c-.3.5-.6 1.1-1 1.6s-.6 1.2-1 1.8l-.2 1.3c-.2.3-.3.6-.4.8l-.4.9-.3.8c-.4 1.2-.8 2.4-1.1 3.5-.1.5-.2 1.1-.3 1.7l-.1.9-.1.9zm8.1-.3h-5.6c-.1 0-.2-.1-.3-.2v-.4c0-.1.1-.2.1-.2l8-7.8.3-.4.3-.3c.2-.2.3-.5.4-.7.2-.6.2-1.2-.2-1.6-.2-.2-.4-.4-.6-.5-.3-.1-.6-.2-.9-.2-.4 0-.9.1-1.3.4-.5.2-.9.7-1.4 1.2l-.2.2c-.1 0-.2.1-.3.1-.1 0-.2 0-.3-.1-.1-.1-.1-.2 0-.3l.1-.2c.5-.8 1.2-1.3 1.9-1.7.6-.3 1.3-.5 1.9-.5.9 0 1.6.3 2.1.9.5.6.6 1.4.3 2.3-.1.3-.3.6-.5.9-.2.3-.5.6-.9 1l-7.3 7.1h4.8c.1 0 .2 0 .3.2.1.1.1.2 0 .3s-.1.2-.2.3c-.2.1-.3.2-.5.2zm9.9-2.9c-.3.8-.8 1.4-1.6 2s-1.5.8-2.3.8h-.9c-.7 0-1.3-.3-1.7-.8-.4-.5-.4-1.2-.1-2l2.7-7.6c.3-.8.8-1.4 1.5-2 .8-.6 1.5-.8 2.3-.8h.9c.8 0 1.3.3 1.7.8.4.6.4 1.2.1 2l-2.6 7.6zm-.9 0l2.7-7.6c.2-.5.2-1-.1-1.3-.2-.4-.6-.6-1.1-.6h-1c-.5 0-1 .2-1.5.6-.5.4-.8.8-1 1.3l-2.7 7.6c-.2.5-.2 1 .1 1.3.2.4.6.6 1.1.6h.9c.5 0 1-.2 1.5-.5.5-.4.9-.8 1.1-1.4zm3.9-1.2c.1.1.1.2 0 .3 0 .1-.1.2-.2.3-.1.1-.3.2-.4.2-.1 0-.2 0-.3-.1v-.3c0-.1.1-.2.2-.3.1-.1.3-.2.4-.2.1-.1.2 0 .3.1zm1.7-4.8c.1.1.1.2 0 .3 0 .1-.1.2-.2.3-.1.1-.3.2-.4.2-.1 0-.2 0-.3-.1v-.3c0-.1.1-.2.2-.3.1-.1.3-.2.4-.2.1 0 .2 0 .3.1zm2.7 8.4c-.1.2-.1.3-.3.4-.1.1-.2.1-.4.1-.1 0-.2 0-.3-.1-.1-.1-.1-.2 0-.4l4.1-11.1-2.8 2c-.1.1-.3.1-.4.1-.1 0-.2 0-.3-.1s-.1-.2 0-.3c0-.1.1-.2.3-.3l3.9-2.8c.1-.1.2-.1.4-.1.1 0 .2 0 .3.1.1.1.1.2 0 .3l-4.5 12.2zm2.3 1c-.1.1-.1.2-.2.3-.1.1-.2.1-.3.1-.1 0-.2 0-.3-.1-.1-.1-.1-.2 0-.3l.1-.1c.3-.5.6-1.1 1-1.6s.6-1.2 1-1.8l.4-.9.2-.5.1-.4.2-.5.3-.6.2-.6c.4-1.1.8-2.3 1-3.5.1-.6.3-1.2.3-1.7l.1-.9.1-.8V.7c0-.1.1-.2.3-.3.1-.1.3-.1.4-.1.1 0 .1 0 .2.1.1 0 .1.1.1.3-.2 2.4-.8 4.8-1.7 7.2-.7 2-1.9 4.4-3.5 6.8zm67.607 300.459l1.914 5.263-.94.341-1.914-5.263z"/><path fill="#5AB6C0" d="M313.419 314.793l.835.334-.371.929-.836-.335z"/><path fill="#5AB6C0" d="M314.29 314.58l.708.707-.637.636-.707-.707z"/><path fill="#5AB6C0" d="M315.187 314.937l.479 5.58-.997.085-.478-5.58z"/><path fill="#5AB6C0" d="M315.1 320.6h-.2v-1.2h.2v1.2zm-.2-.5h-.2v-1.3h.2v1.3zm-.1-.5h-.2v-.3h-.2v-.5h-.2v-.5h-.2v-.8h-.2v-.5h-.2v-.5h-.2v-.5h-.2v-1.2h.3v.2h.3v.2h.2v.6h.2v.6h.2v.8h.2v.6h.2v1.8z"/><path fill="#5AB6C0" d="M315.1 320.6h-.2v-1.2h.2v1.2zm-.2-.5h-.2v-1.3h.2v1.3zm-.1-.5h-.2v-.3h-.2v-.5h-.2v-.5h-.2v-.8h-.2v-.5h-.2v-.5h-.2v-.5h-.2v-1.2h.3v.2h.3v.2h.2v.6h.2v.6h.2v.8h.2v.6h.2v1.8z"/><path fill="#5AB6C0" d="M315.1 320.2h-.2v-.6h-.1v-.8h-.2v-.6h-.1v-.8h-.2v-.7h-.2v-.6h-.1v-1h.1v-.2h.2v-.1h.2v-.2h.3v1.8h.1v1.9h.2z"/><path fill="#5AB6C0" d="M315.1 320.2h-.2v-.6h-.1v-.8h-.2v-.6h-.1v-.8h-.2v-.7h-.2v-.6h-.1v-1h.1v-.2h.2v-.1h.2v-.2h.3v1.8h.1v1.9h.2z"/><path fill="#5AB6C0" d="M309.408 291.818l6.203 28.635-.977.212-6.203-28.635z"/><path fill="#5AB6C0" d="M265.6 291.4h43.3v1h-43.3z"/><path fill="#5AB6C0" d="M268.966 285.12l3.67 6.54-.872.49-3.67-6.541z"/><path fill="#5AB6C0" d="M278.881 279.513l.861.51-7.13 12.048-.86-.51z"/><path fill="#5AB6C0" d="M279.3 279.3h31.5v1h-31.5zm4.1 6.9l.5 2.5v.1c0 .1-.1.1-.1.2-.1 0-.1.1-.2.1h-.1s0-.1-.1-.1l-.6-2.7h-.8l-.9 2.6c0 .1-.1.1-.1.2-.1 0-.1.1-.2.1 0 0-.1 0-.1-.1v-.2l2.2-6.1c.1-.2.2-.2.3-.2h1.6c.4 0 .7.1.8.4.2.3.2.6.1 1l-.3.9c-.1.4-.4.7-.8 1s-.8.3-1.2.3zm-1.2-.5h1.4c.3 0 .5-.1.8-.3.3-.2.4-.4.5-.7l.3-.9c.1-.3.1-.5 0-.7-.1-.2-.3-.3-.6-.3h-1.4l-1 2.9zm5.8 2.8c.1 0 .1.1.1.2s-.1.1-.1.2c-.1 0-.1.1-.2.1h-.1c-.1 0-.1-.1-.2-.1 0 0-.1-.1-.1-.2-.3.2-.5.3-.8.3h-.9c-.3 0-.4-.1-.6-.3-.1-.2-.1-.4 0-.7l1-2.8c.1-.2.3-.4.5-.6.2-.2.5-.3.8-.3h1.6c.2 0 .2.1.1.2l-1.3 3.5v.3c0 .1.1.2.2.2zm-.6-.5l1.2-3.3h-1.4c-.1 0-.3 0-.4.1l-.3.3-1 2.8v.3c.1.1.2.1.3.1h.9c.1 0 .3 0 .4-.1.1.1.2 0 .3-.2zm7.5-.4c-.1.4-.4.7-.8 1-.4.3-.8.4-1.1.4h-.5c-.4 0-.6-.1-.8-.4-.2-.3-.2-.6-.1-1l1.4-3.7c.1-.4.4-.7.8-1 .4-.3.8-.4 1.1-.4h.5c.4 0 .7.1.8.4.2.3.2.6.1 1l-1.4 3.7zm-.4 0l1.4-3.7c.1-.3.1-.5 0-.7-.1-.2-.3-.3-.6-.3h-.5c-.3 0-.5.1-.8.3-.2.2-.4.4-.5.7l-1.4 3.7c-.1.3-.1.5 0 .7.1.2.3.3.5.3h.5c.3 0 .5-.1.8-.3s.5-.5.6-.7zm.8 2.2l-.1.1h-.1c-.1 0-.1 0-.1-.1v-.3l.6-.9c0-.1.1-.1.1-.1h.2c.1 0 .1 0 .1.1v.3l-.7.9zm4.4-2.7h.7c.1 0 .1 0 .1.1v.2c0 .1-.1.1-.1.2-.1 0-.1.1-.2.1h-.7l-.4 1.2c0 .1-.1.1-.1.2-.1 0-.1.1-.2.1 0 0-.1 0-.1-.1v-.2l.4-1.2h-1.6c-.1 0-.1 0-.1-.1v-.3l2.6-4.7c0-.1.1-.1.1-.1h.2c.1 0 .1 0 .1.1v.3l-2.5 4.4h1.3l.4-1.2s.1-.1.1-.2c.1-.1.1-.1.2-.1s.1 0 .1.1v.2l-.3 1zm5 .5c-.1.4-.4.7-.8 1-.4.3-.8.4-1.1.4h-.5c-.4 0-.6-.1-.8-.4-.2-.3-.2-.6-.1-1l1.4-3.7c.1-.4.4-.7.8-1 .4-.3.8-.4 1.1-.4h.5c.4 0 .7.1.8.4.2.3.2.6.1 1l-1.4 3.7zm-.5 0l1.4-3.7c.1-.3.1-.5 0-.7-.1-.2-.3-.3-.6-.3h-.5c-.3 0-.5.1-.8.3-.2.2-.4.4-.5.7l-1.4 3.7c-.1.3-.1.5 0 .7.1.2.3.3.5.3h.5c.3 0 .5-.1.8-.3s.5-.5.6-.7zM196.346 390.91l.83.556-20.98 31.32-.83-.556z"/><path fill="#5AB6C0" d="M162.4 422h13.4v1h-13.4zm118.817-81.576l.32 5.891-1 .054-.318-5.891z"/><path fill="#5AB6C0" d="M280.26 334.46l.96 5.922-.987.16-.96-5.922z"/><path fill="#5AB6C0" d="M278.73 328.817l1.594 5.576-.962.275-1.594-5.577z"/><path fill="#5AB6C0" d="M276.412 323.417l2.208 5.363-.925.381-2.208-5.363z"/><path fill="#5AB6C0" d="M273.755 318.111l2.702 5.245-.889.458-2.702-5.245z"/><path fill="#5AB6C0" d="M270.374 313.259l3.326 4.752-.82.573-3.325-4.752z"/><path fill="#5AB6C0" d="M266.514 308.567l3.827 4.622-.77.637-3.827-4.62z"/><path fill="#5AB6C0" d="M262.142 304.536l4.329 4.009-.68.733-4.328-4.009z"/><path fill="#5AB6C0" d="M257.506 301.055l4.622 3.505-.604.797-4.622-3.505z"/><path fill="#5AB6C0" d="M252.376 297.96l5.073 3.013-.51.86-5.073-3.013z"/><path fill="#5AB6C0" d="M247.072 295.488l5.218 2.53-.436.9-5.219-2.53z"/><path fill="#5AB6C0" d="M241.478 293.673l5.533 1.74-.3.954-5.533-1.74z"/><path fill="#5AB6C0" d="M235.695 292.369l5.76 1.28-.218.976-5.76-1.28z"/><path fill="#5AB6C0" d="M229.768 291.686l5.866.634-.108.994-5.866-.634z"/><path fill="#5AB6C0" d="M223.8 291.7h5.9v1h-5.9z"/><path fill="#5AB6C0" d="M223.71 291.705l.109.994-5.765.635-.11-.994z"/><path fill="#5AB6C0" d="M217.928 292.353l.217.977-5.76 1.278-.216-.976z"/><path fill="#5AB6C0" d="M212.234 293.668l.324.945-5.58 1.914-.325-.946zm-5.667 1.949l.403.915-5.398 2.381-.403-.915z"/><path fill="#5AB6C0" d="M201.148 297.977l.522.853-4.947 3.028-.522-.853zm-5.017 3.123l.609.793-4.76 3.652-.61-.793z"/><path fill="#5AB6C0" d="M191.352 304.716l.693.72-4.108 3.952-.693-.72zm-4.228 4.057l.76.651-3.84 4.48-.76-.65z"/><path fill="#5AB6C0" d="M183.286 313.194l.828.56-3.363 4.969-.828-.56z"/><path fill="#5AB6C0" d="M179.943 318.187l.89.457-2.699 5.247-.889-.457z"/><path fill="#5AB6C0" d="M177.192 323.494l.934.358-2.074 5.416-.934-.357z"/><path fill="#5AB6C0" d="M175.136 328.973l.961.276-1.596 5.576-.961-.275z"/><path fill="#5AB6C0" d="M173.485 334.649l.987.16-.961 5.923-.987-.16z"/><path fill="#5AB6C0" d="M172.56 340.575l.998.055-.323 5.891-.998-.055z"/><path fill="#5AB6C0" d="M173.249 346.405l.316 5.691-.999.056-.316-5.692zm.341 5.743l.96 5.922-.986.16-.96-5.922z"/><path fill="#5AB6C0" d="M174.456 357.925l1.593 5.577-.961.274-1.594-5.576z"/><path fill="#5AB6C0" d="M176.07 363.43l2.23 5.57-.929.372-2.228-5.57z"/><path fill="#5AB6C0" d="M178.236 369.002l2.722 5.122-.883.47-2.722-5.122z"/><path fill="#5AB6C0" d="M180.908 374.025l3.365 4.967-.828.56-3.365-4.967z"/><path fill="#5AB6C0" d="M184.258 378.989l3.84 4.48-.76.65-3.84-4.48z"/><path fill="#5AB6C0" d="M188.005 383.306l4.33 4.008-.68.734-4.33-4.008z"/><path fill="#5AB6C0" d="M192.31 387.237l4.621 3.505-.604.797-4.621-3.505z"/><path fill="#5AB6C0" d="M196.86 390.733l5.074 3.012-.51.86-5.074-3.012z"/><path fill="#5AB6C0" d="M201.832 393.736l5.398 2.382-.404.914-5.398-2.381z"/><path fill="#5AB6C0" d="M207.216 396.054l5.58 1.914-.324.946-5.58-1.914z"/><path fill="#5AB6C0" d="M212.787 397.978l5.76 1.28-.217.976-5.76-1.28z"/><path fill="#5AB6C0" d="M218.453 399.3l5.765.64-.11.995-5.765-.64z"/><path fill="#5AB6C0" d="M229.96 399.757l.027 1-5.897.16-.028-.999zm5.913-.732l.108.994-5.866.634-.107-.994z"/><path fill="#5AB6C0" d="M241.542 397.853l.216.976-5.76 1.279-.216-.976z"/><path fill="#5AB6C0" d="M247.035 395.916l.325.945-5.581 1.914-.325-.945z"/><path fill="#5AB6C0" d="M252.261 393.538l.414.91-5.279 2.402-.414-.91z"/><path fill="#5AB6C0" d="M257.288 390.398l.53.848-5.09 3.178-.529-.849z"/><path fill="#5AB6C0" d="M261.827 386.918l.605.796-4.618 3.509-.605-.796z"/><path fill="#5AB6C0" d="M266.134 383.01l.68.734-4.33 4.008-.68-.734z"/><path fill="#5AB6C0" d="M269.71 378.457l.784.621-3.667 4.623-.783-.622z"/><path fill="#5AB6C0" d="M273.023 373.767l.819.574-3.332 4.748-.818-.574zm2.702-5.268l.889.457-2.698 5.247-.89-.457z"/><path fill="#5AB6C0" d="M277.791 363.117l.934.357-2.074 5.417-.934-.357z"/><path fill="#5AB6C0" d="M279.329 357.467l.963.268-1.58 5.684-.963-.268z"/><path fill="#5AB6C0" d="M280.268 351.752l.986.164-.951 5.72-.987-.163z"/><path fill="#5AB6C0" d="M280.56 346.278l.999.057-.317 5.591-.999-.057zM368.742 184.4l.25.968-5.519 1.424-.25-.968z"/><path fill="#5AB6C0" d="M363.332 185.178l.857.515-.463.772-.857-.515z"/><path fill="#5AB6C0" d="M363.45 184.517l.637.637-.708.706-.636-.636z"/><path fill="#5AB6C0" d="M363.1 184.4h5.7v1h-5.7z"/><path fill="#5AB6C0" d="M363.9 186.6h-.4v-1h.1v-.3h.2v-.3h1.2v-.2h1.3v-.1h1.3v-.2h.8v1h-.6v.2h-.7v.1h-.6v.2h-.7v.1h-.6v.2h-.6v.2h-.7z"/><path fill="#5AB6C0" d="M363.9 186.6h-.4v-1h.1v-.3h.2v-.3h1.2v-.2h1.3v-.1h1.3v-.2h.8v1h-.6v.2h-.7v.1h-.6v.2h-.7v.1h-.6v.2h-.6v.2h-.7z"/><path fill="#5AB6C0" d="M365 185.8h-1.4v-.1h-.1v-.2h-.2v-.1h-.2v-1h5.8v1h-1.3v.1h-1.3v.2H365z"/><path fill="#5AB6C0" d="M365 185.8h-1.4v-.1h-.1v-.2h-.2v-.1h-.2v-1h5.8v1h-1.3v.1h-1.3v.2H365zM90.219 219.312l.282.96-5.372 1.58-.282-.96z"/><path fill="#5AB6C0" d="M89.889 219.62l.894.448-.492.984-.894-.448z"/><path fill="#5AB6C0" d="M90.22 220.408l.637.637-.707.707-.637-.636z"/><path fill="#5AB6C0" d="M84.9 220.9h5.6v1h-5.6z"/><path fill="#5AB6C0" d="M86.2 221.8h-.6v-1h.5v-.2h.6v-.1h.5v-.2h.4v-.2h.7v-.1h.5v-.2h.6v-.1h.5v-.2h.4v1h-.1v.3H90v.3h-.1v.2h-1.1v.2h-1.3v.1h-1.3z"/><path fill="#5AB6C0" d="M86.2 221.8h-.6v-1h.5v-.2h.6v-.1h.5v-.2h.4v-.2h.7v-.1h.5v-.2h.6v-.1h.5v-.2h.4v1h-.1v.3H90v.3h-.1v.2h-1.1v.2h-1.3v.1h-1.3z"/><path fill="#5AB6C0" d="M90.3 221.8h-4.1v-1h1.3v-.2h1.3v-.1H90v.1h.2v.2h.1z"/><path fill="#5AB6C0" d="M90.3 221.8h-4.1v-1h1.3v-.2h1.3v-.1H90v.1h.2v.2h.1z"/><path fill="#5AB6C0" d="M368.812 184.346l.128.992-283.952 36.618-.128-.992zm1.329 9.179l.316 9.494-1 .034-.315-9.495z"/><path fill="#5AB6C0" d="M369.24 184.008l.955 9.552-.995.1-.956-9.552zm-.318-3.073l.313 2.983-.994.105-.313-2.984zm-284.028 39.95l.127.992-49.793 6.37-.127-.992z"/><path fill="#5AB6C0" d="M0 227.3h35.2v1H0zm3.1-4.1c-.3-.1-.4-.4-.5-.7-.1-.3-.1-.7.1-1 .2-.5.5-.9 1-1.3s1-.6 1.5-.6h.3l.8-1.2c.1-.1.2-.2.3-.2.1 0 .1 0 .1.1v.3l-.8 1.2c.3.1.4.4.6.7 0 .1.1.3 0 .5 0 .2-.1.4-.1.5-.2.5-.5.9-1 1.3s-1 .6-1.5.6h-.3l-.8 1.3c-.1.1-.2.2-.3.2 0 0-.1 0-.2-.1v-.3l.8-1.3zm.3-.5l1.8-2.6H5c-.4 0-.8.1-1.1.4-.2.1-.3.3-.5.5l-.2.2-.1.2v.1c-.1.2-.1.5 0 .7 0 .2.1.4.3.5zm2.2-2.5l-1.8 2.6H4c.4 0 .8-.1 1.1-.4.4-.3.6-.6.8-1 .1-.3.1-.5 0-.7 0-.2-.1-.3-.3-.5zm6.1-1.7l-3.6 6.1-.1.1h-.2c-.1 0-.1 0-.1-.1v-.3l3.4-5.8H8.9l-.2.5c0 .1-.1.1-.1.2-.1 0-.1.1-.2.1 0 0-.1 0-.1-.1v-.2l.3-.7c.1-.2.2-.2.3-.2h2.8c.1 0 .1 0 .2.1s-.1.1-.2.3zm-1.4 7l-.1.1h-.1c-.1 0-.1 0-.1-.1v-.3l.6-.9c0-.1.1-.1.1-.1h.2c.1 0 .1 0 .1.1v.3l-.7.9zm2.7-4.3c.2-.6.6-1.2 1.1-1.8.6-.6 1.2-1 2-1.3h.1c.1 0 .1 0 .1.1v.2s0 .1-.1.1c0 0-.1.1-.2.1h-.2l-.2.1c-.1.1-.3.2-.4.2-.2.2-.5.4-.8.6-.2.2-.4.4-.5.6-.2.2-.3.4-.4.6H15c.4 0 .7.1.8.4.2.3.2.6 0 1l-.3.9c-.1.4-.4.7-.8 1-.4.3-.8.4-1.1.4h-.5c-.4 0-.6-.1-.8-.4-.2-.3-.2-.6-.1-1l.8-1.8zm.4.3l-.7 1.9c-.1.3-.1.5 0 .7.1.2.3.3.5.3h.5c.3 0 .5-.1.8-.3.2-.2.4-.4.5-.7l.3-.9c.1-.3.1-.5 0-.7-.1-.2-.3-.3-.6-.3h-1.3zm5.6 3.2h-2.8c-.1 0-.1 0-.1-.1v-.2s0-.1.1-.1l4-3.9.2-.2.1-.2c.1-.1.1-.2.2-.3.1-.3.1-.6-.1-.8-.1-.1-.2-.2-.3-.2s-.3-.1-.4-.1c-.2 0-.4.1-.7.2-.2.1-.5.3-.7.6l-.1.1h-.1c-.1 0-.1 0-.1-.1v-.3c.3-.4.6-.7.9-.9.3-.2.6-.3.9-.3.4 0 .8.2 1 .5.2.3.3.7.1 1.1-.1.2-.1.3-.2.4-.1.1-.2.3-.4.5l-3.6 3.5h2.3c.1 0 .1 0 .1.1v.2c0 .1-.1.1-.1.2-.1.3-.2.3-.2.3zm4.9-7h.6s.1 0 .1.1v.1s0 .1-.1.1l-.1.1h-.6l-.2.6c0 .1 0 .1-.1.1h-.2v-.1l.2-.6h-.7v-.1s0-.1.1-.1l.1-.1h.6l.2-.6s0-.1.1-.1l.1-.1h.1v.1l-.2.6zm3.2.8c-.1.3-.3.5-.5.7-.3.2-.5.3-.8.3h-.3c-.2 0-.4-.1-.6-.3-.1-.2-.1-.4 0-.7l.9-2.5c.1-.3.3-.5.5-.7.3-.2.5-.3.8-.3h.3c.3 0 .5.1.6.3.1.2.1.4 0 .7l-.9 2.5zm-.3 0l.9-2.5c.1-.2.1-.3 0-.4-.1-.1-.2-.2-.4-.2H27c-.2 0-.3.1-.5.2s-.3.3-.3.5l-.9 2.5c-.1.2-.1.3 0 .4.1.1.2.2.4.2h.3c.2 0 .3-.1.5-.2.1-.2.2-.3.3-.5zm.5 1.5l-.1.1H27v-.1l.4-.6.1-.1h.2v.1l-.4.6zm3.5-1.5c-.1.3-.3.5-.5.7-.3.2-.5.3-.8.3h-.3c-.2 0-.4-.1-.6-.3-.1-.2-.1-.4 0-.7l.9-2.5c.1-.3.3-.5.5-.7.3-.2.5-.3.8-.3h.3c.3 0 .5.1.6.3.1.2.1.4 0 .7l-.9 2.5zm-.3 0l.9-2.5c.1-.2.1-.3 0-.4-.1-.1-.2-.2-.4-.2h-.3c-.2 0-.3.1-.5.2s-.3.3-.3.5l-.9 2.5c-.1.2-.1.3 0 .4.1.1.2.2.4.2h.3c.2 0 .3-.1.5-.2.1-.2.3-.3.3-.5zm2.8 0c-.1.3-.3.5-.5.7-.3.2-.5.3-.8.3h-.9v-.1s0-.1.1-.1l.1-.1h.8c.2 0 .3-.1.5-.2s.3-.3.3-.5l.2-.6c.1-.2.1-.3 0-.4s-.2-.2-.4-.2H32c-.1 0-.1-.1-.1-.2l.7-1.9c0-.1.1-.2.2-.2h1.6s.1 0 .1.1v.1s0 .1-.1.1-.1.1-.1.1h-1.4l-.6 1.6h.6c.3 0 .5.1.6.3.1.2.1.4 0 .7l-.2.5zm81.764 79.765l.534.845-4.732 2.995-.534-.845z"/><path fill="#5AB6C0" d="M110.593 301.23l.986.164-.164.986-.987-.165z"/><path fill="#5AB6C0" d="M111 301.9h1v1h-1z"/><path fill="#5AB6C0" d="M114.943 298.405l.735.678-3.798 4.115-.735-.678z"/><path fill="#5AB6C0" d="M114.954 298.323l.646.764-7.179 6.068-.645-.764z"/><path fill="#5AB6C0" d="M111.8 302.3h-1.3v-1h.4v-.2h.3v-.2h.1v-.1h.4v-.2h.1v-.1h.3v-.2h.4v-.1h.1v-.2h.3v-.2h.2v-.1h.3v-.2h.2v-.1h.3v-.2h.3v-.2h.2v-.1h.3v-.2h.1v-.1h.2v1h-.2v.1h-.1v.2h-.3v.1h-.2v.2h-.2v.2h-.1v.1h-.2v.2h-.3v.1h-.1v.2h-.2v.2h-.2v.1h-.1v.2h-.3v.1h-.2v.2h-.2v.1h-.1v.2h-.2z"/><path fill="#5AB6C0" d="M111.8 302.3h-1.3v-1h.4v-.2h.3v-.2h.1v-.1h.4v-.2h.1v-.1h.3v-.2h.4v-.1h.1v-.2h.3v-.2h.2v-.1h.3v-.2h.2v-.1h.3v-.2h.3v-.2h.2v-.1h.3v-.2h.1v-.1h.2v1h-.2v.1h-.1v.2h-.3v.1h-.2v.2h-.2v.2h-.1v.1h-.2v.2h-.3v.1h-.1v.2h-.2v.2h-.2v.1h-.1v.2h-.3v.1h-.2v.2h-.2v.1h-.1v.2h-.2z"/><path fill="#5AB6C0" d="M111.7 303.2h-.2v-1.8h.3v-.1h.2v-.2h.1v-.2h.2v-.1h.2v-.2h.3v-.1h.1v-.2h.2v-.1h.2v-.2h.1v-.2h.3v-.1h.2v-.2h.1v-.1h.2v-.2h.2v-.2h.3v-.1h.1v-.2h.2v-.1h.2v-.2h.1v1h-.1v.2h-.2v.1h-.2v.2h-.1v.1h-.2v.2h-.1v.2h-.2v.1h-.2v.2h-.1v.1h-.2v.2h-.1v.2h-.2v.3h-.1v.1h-.2v.2h-.2v.1h-.1v.2h-.2v.2h-.1v.1h-.2v.2h-.2v.1h-.1v.2h-.2v.2h-.1z"/><path fill="#5AB6C0" d="M111.7 303.2h-.2v-1.8h.3v-.1h.2v-.2h.1v-.2h.2v-.1h.2v-.2h.3v-.1h.1v-.2h.2v-.1h.2v-.2h.1v-.2h.3v-.1h.2v-.2h.1v-.1h.2v-.2h.2v-.2h.3v-.1h.1v-.2h.2v-.1h.2v-.2h.1v1h-.1v.2h-.2v.1h-.2v.2h-.1v.1h-.2v.2h-.1v.2h-.2v.1h-.2v.2h-.1v.1h-.2v.2h-.1v.2h-.2v.3h-.1v.1h-.2v.2h-.2v.1h-.1v.2h-.2v.2h-.1v.1h-.2v.2h-.2v.1h-.1v.2h-.2v.2h-.1zM342.983 104l.554.832-4.742 3.162-.555-.833z"/><path fill="#5AB6C0" d="M342.389 103.729l.986.164-.164.987-.987-.165z"/><path fill="#5AB6C0" d="M342.666 103.116l.163.987-.986.163-.164-.986z"/><path fill="#5AB6C0" d="M341.755 102.935l.761.649-3.63 4.264-.761-.648z"/><path fill="#5AB6C0" d="M345.15 100.99l.663.748-7.03 6.24-.663-.748z"/><path fill="#5AB6C0" d="M339.3 107.6h-.2v-1h.2v-.2h.1v-.1h.2v-.2h.2v-.2h.3v-.1h.1v-.2h.2v-.1h.2v-.2h.1v-.2h.2v-.1h.1v-.2h.3v-.1h.2v-.2h.2v-.2h.1v-.1h.2v-.2h.1v-.1h1.2v1h-.2v.1h-.3v.2h-.2v.1h-.3v.2h-.2v.2h-.3v.1h-.1v.2h-.4v.1h-.1v.2h-.3v.2h-.2v.1h-.3v.2h-.2v.1h-.3v.2h-.1v.2h-.4v.1h-.1z"/><path fill="#5AB6C0" d="M339.3 107.6h-.2v-1h.2v-.2h.1v-.1h.2v-.2h.2v-.2h.3v-.1h.1v-.2h.2v-.1h.2v-.2h.1v-.2h.2v-.1h.1v-.2h.3v-.1h.2v-.2h.2v-.2h.1v-.1h.2v-.2h.1v-.1h1.2v1h-.2v.1h-.3v.2h-.2v.1h-.3v.2h-.2v.2h-.3v.1h-.1v.2h-.4v.1h-.1v.2h-.3v.2h-.2v.1h-.3v.2h-.2v.1h-.3v.2h-.1v.2h-.4v.1h-.1z"/><path fill="#5AB6C0" d="M338.8 107.9h-.2v-1h.2v-.2h.2v-.1h.1v-.2h.2v-.1h.1v-.4h.2v-.1h.2v-.2h.1v-.1h.2v-.2h.1v-.2h.2v-.3h.2v-.1h.1v-.2h.2v-.2h.1v-.1h.2v-.2h.1v-.3h.2v-.1h.2v-.2h.1v-.2h.2v-.1h.1v-.2h.2v1.8h-.2v.2h-.1v.1h-.2v.2h-.1v.1h-.2v.2h-.2v.2h-.3v.1h-.1v.2h-.2v.1h-.1v.2h-.2v.2h-.2v.1h-.1v.2h-.3v.1h-.2v.2h-.2v.2h-.1v.1h-.2v.2h-.1v.1h-.2z"/><path fill="#5AB6C0" d="M338.8 107.9h-.2v-1h.2v-.2h.2v-.1h.1v-.2h.2v-.1h.1v-.4h.2v-.1h.2v-.2h.1v-.1h.2v-.2h.1v-.2h.2v-.3h.2v-.1h.1v-.2h.2v-.2h.1v-.1h.2v-.2h.1v-.3h.2v-.1h.2v-.2h.1v-.2h.2v-.1h.1v-.2h.2v1.8h-.2v.2h-.1v.1h-.2v.2h-.1v.1h-.2v.2h-.2v.2h-.3v.1h-.1v.2h-.2v.1h-.1v.2h-.2v.2h-.2v.1h-.1v.2h-.3v.1h-.2v.2h-.2v.2h-.1v.1h-.2v.2h-.1v.1h-.2z"/><path fill="#5AB6C0" d="M338.202 107.211l.65.76-223.275 191.123-.65-.76zm33.08 119.99l.98.2-1.912 9.407-.98-.199z"/><path fill="#5AB6C0" d="M372.526 217.594l.992.13-1.282 9.716-.991-.13z"/><path fill="#5AB6C0" d="M373.119 208.077l.998.067-.638 9.579-.998-.067z"/><path fill="#5AB6C0" d="M373.1 198.4h1v9.7h-1z"/><path fill="#5AB6C0" d="M373.515 188.698l.635 9.68-.998.065-.635-9.68zm-1.132-9.648l1.112 9.536-.993.115-1.112-9.535z"/><path fill="#5AB6C0" d="M370.516 169.592l1.914 9.407-.98.2-1.914-9.408zm-2.666-9.413l2.538 9.361-.966.262-2.538-9.362z"/><path fill="#5AB6C0" d="M364.77 150.988l3.194 9.265-.945.326-3.194-9.265zm-3.737-8.947l3.648 8.88-.925.38-3.648-8.88z"/><path fill="#5AB6C0" d="M356.764 133.38l4.293 8.588-.894.447-4.293-8.587z"/><path fill="#5AB6C0" d="M352.015 124.973l4.78 8.441-.87.493-4.78-8.441zm-5.486-8.025l5.397 7.94-.827.562-5.397-7.94z"/><path fill="#5AB6C0" d="M340.665 109.328l5.861 7.603-.792.61-5.86-7.603zm-2.445-2.858l2.37 2.842-.77.64-2.368-2.842z"/><path fill="#5AB6C0" d="M367.761 81.735l.653.758-29.558 25.443-.653-.758z"/><path fill="#5AB6C0" d="M368.1 81.6h35v1h-35zm3-4.1c-.3-.1-.4-.4-.5-.7-.1-.3-.1-.7.1-1 .2-.5.5-.9 1-1.3s1-.6 1.5-.6h.3l.8-1.2c.1-.1.2-.2.3-.2.1 0 .1 0 .1.1v.3l-.8 1.2c.3.1.4.4.6.7 0 .1.1.3 0 .5 0 .2-.1.4-.1.5-.2.5-.5.9-1 1.3s-1 .6-1.5.6h-.3l-.8 1.3c-.1.1-.2.2-.3.2 0 0-.1 0-.2-.1v-.3l.8-1.3zm.3-.4l1.8-2.6h-.2c-.4 0-.8.1-1.1.4-.2.1-.3.3-.5.5l-.2.2-.1.2v.1c-.1.3-.1.5-.1.7 0 .2.2.4.4.5zm2.1-2.5l-1.8 2.6h.2c.4 0 .8-.1 1.1-.4.4-.3.6-.6.8-1 .1-.3.1-.5 0-.7.1-.2-.1-.4-.3-.5zm6.2-1.7l-3.6 6.1-.1.1h-.2c-.1 0-.1 0-.1-.1v-.3l3.4-5.8h-2.3l-.2.5c0 .1-.1.1-.1.2-.1 0-.1.1-.2.1 0 0-.1 0-.1-.1v-.2l.3-.7c.1-.2.2-.2.3-.2h2.8c.1 0 .1 0 .2.1-.1.1-.1.1-.1.3zm-1.5 7l-.1.1h-.1c-.1 0-.1 0-.1-.1v-.3l.6-.9c0-.1.1-.1.1-.1h.2c.1 0 .1 0 .1.1v.3l-.7.9zm5.3-2.2c-.1.4-.4.7-.8 1-.4.3-.8.4-1.1.4h-.5c-.4 0-.6-.1-.8-.4-.2-.3-.2-.6-.1-1l.3-.9c.1-.2.2-.5.4-.7s.5-.4.8-.6c-.1-.1-.2-.3-.2-.5s0-.4.1-.6l.2-.5c.1-.4.4-.7.8-1l.6-.3.3-.1h.3c.4 0 .7.1.9.4.1.1.1.3.1.4v.3l-.1.1-.2.5-.3.6c-.1.2-.3.3-.6.5.2.1.3.3.4.5.1.2 0 .5-.1.7l-.4 1.2zm-.5 0l.3-.9c.1-.3.1-.5 0-.7s-.3-.3-.6-.3h-.5c-.3 0-.5.1-.8.3s-.4.4-.5.7l-.3.9c-.1.3-.1.5 0 .7.1.2.3.3.5.3h.5c.3 0 .5-.1.8-.3.3-.2.5-.4.6-.7zm1-3.3l.2-.5c.1-.3.1-.5 0-.7-.1-.2-.3-.3-.6-.3s-.5.1-.8.3c-.2.2-.4.4-.5.7l-.2.5c-.1.3-.1.5 0 .7.1.2.3.3.6.3s.5-.1.8-.3c.2-.2.4-.4.5-.7zm2.9 4.7h-2.8c-.1 0-.1 0-.1-.1v-.2s0-.1.1-.1l4-3.9.2-.2.1-.2c.1-.1.1-.2.2-.3.1-.3.1-.6-.1-.8-.1-.1-.2-.2-.3-.2-.1-.1-.3-.1-.4-.1-.2 0-.4.1-.7.2s-.5.3-.7.6l-.1.1h-.1c-.1 0-.1 0-.1-.1v-.3c.3-.4.6-.7.9-.9.3-.2.6-.3.9-.3.4 0 .8.2 1 .5.3.3.3.7.1 1.1-.1.2-.1.3-.2.4-.1.1-.2.3-.4.5l-3.6 3.5h2.3c.1 0 .1 0 .1.1v.2c0 .1-.1.1-.1.2s-.1.3-.2.3zm5-7h.6s.1 0 .1.1v.1s0 .1-.1.1l-.1.1h-.6l-.2.6c0 .1 0 .1-.1.1h-.2v-.1l.2-.6h-.7v-.1s0-.1.1-.1l.1-.1h.6l.2-.6s0-.1.1-.1l.1-.1h.1v.1l-.2.6zm3.2.8c-.1.3-.3.5-.5.7-.3.2-.5.3-.8.3h-.3c-.2 0-.4-.1-.6-.3s-.1-.4 0-.7l.9-2.5c.1-.3.3-.5.5-.7.3-.2.5-.3.8-.3h.3c.3 0 .5.1.6.3.1.2.1.4 0 .7l-.9 2.5zm-.4 0l.9-2.5c.1-.2.1-.3 0-.4-.1-.1-.2-.2-.4-.2h-.3c-.2 0-.3.1-.5.2s-.3.3-.4.5l-.9 2.5c-.1.2-.1.3 0 .4.1.1.2.2.4.2h.3c.2 0 .3-.1.5-.2.3-.2.4-.4.4-.5zm.5 1.5l-.1.1h-.2v-.1l.4-.6.1-.1h.2v.1l-.4.6zm3.6-1.5c-.1.3-.3.5-.5.7-.3.2-.5.3-.8.3h-.3c-.2 0-.4-.1-.6-.3s-.1-.4 0-.7l.9-2.5c.1-.3.3-.5.5-.7.3-.2.5-.3.8-.3h.3c.3 0 .5.1.6.3.1.2.1.4 0 .7l-.9 2.5zm-.4 0l.9-2.5c.1-.2.1-.3 0-.4-.1-.1-.2-.2-.4-.2h-.3c-.2 0-.3.1-.5.2s-.3.3-.4.5l-.9 2.5c-.1.2-.1.3 0 .4.1.1.2.2.4.2h.3c.2 0 .3-.1.5-.2.3-.2.4-.4.4-.5zm2.8 0c-.1.3-.3.5-.5.7-.3.2-.5.3-.8.3h-.9v-.1s0-.1.1-.1l.1-.1h.8c.2 0 .3-.1.5-.2s.3-.3.3-.5l.2-.6c.1-.2.1-.3 0-.4-.1-.1-.2-.2-.4-.2h-.8c-.1 0-.1-.1-.1-.2l.7-1.9c0-.1.1-.2.2-.2h1.6s.1 0 .1.1v.1s0 .1-.1.1l-.1.1h-1.4l-.6 1.6h.6c.3 0 .5.1.6.3s.1.4 0 .7l-.1.5zM49.6 202.6h32v1h-32zm34.7 0h2.9v1h-2.9zm5.7 0h31.8v1H90zm34.7 0h2.7v1h-2.7zm5.6 0h32v1h-32zm34.6 0h2.9v1h-2.9zm5.8 0h31.8v1h-31.8zm34.6 0h2.7v1h-2.7zm5.6 0h15.9v1h-15.9zm158.9 0H401v1h-31.2zm-5.7 0h2.9v1h-2.9zm-33.9 0h31.2v1h-31.2zm-5.7 0h2.9v1h-2.9zm-33.9 0h31.2v1h-31.2zm-5.7 0h2.9v1h-2.9zm-34.1 0H282v1h-31.2zm-5.5 0h2.9v1h-2.9zm-18.5 0h15.6v1h-15.6zm-.5 146.1h1v32h-1zm0-5.6h1v2.9h-1zm0-34.8h1v32h-1zm0-5.6h1v2.9h-1zm0-34.8h1v32h-1zm0-5.6h1v2.9h-1zm0-34.8h1v32h-1zm0-5.6h1v2.9h-1z"/><path fill="#5AB6C0" d="M226.3 203.1h1V219h-1zm0-179.5h1V56h-1zm0 35.3h1v2.7h-1zm0 5.5h1v32.4h-1zm0 35.2h1v2.9h-1zm0 5.7h1v32.3h-1zm0 35.2h1v2.9h-1zm0 5.5h1v32.4h-1zm0 35.4h1v2.7h-1zm0 5.5h1v16.2h-1zM84.264 230.212l.707.708-60.104 60.103-.707-.707z"/><path fill="#5AB6C0" d="M26.723 288.173l4.482 3.522-.618.786-4.482-3.522z"/><path fill="#5AB6C0" d="M30.813 291.612l.195.981-.785.157-.195-.981z"/><path fill="#5AB6C0" d="M29.582 292.114l.986.164-.164.987-.987-.164z"/><path fill="#5AB6C0" d="M26.788 288.31l3.505 4.621-.797.605-3.505-4.622z"/><path fill="#5AB6C0" d="M30.9 292.6h-1v-.2h-.2v-.2h-.2v-.2h-.2v-.2h-.2v-.2h-.2v-.2h-.2v-.2h-.2v-.2h-.2v-.2h-.2v.2h-.2v-.2h-.2v-.2h.3v-.2h-.2v-.2h-.2v-.2h-.4v-.2H27v-1.2h.3v.2h.2v.2h.2v.2h.2v.2h.3v.2h.2v.2h.2v.2h.2v.2h.3v.2h.2v.2h.2v.2h.3v.2h.2v.2h.2v.2h.2v.2h.3v.2h.2v.2h.2v.2h.2v.4zm-3.9-3.1h-.2v-1h.2v1zm-.1-.1h-.2v-1h.2v1zm-.2-.2h-.2v-1h.2v1z"/><path fill="#5AB6C0" d="M30.9 292.6h-1v-.2h-.2v-.2h-.2v-.2h-.2v-.2h-.2v-.2h-.2v-.2h-.2v-.2h-.2v-.2h-.2v-.2h-.2v.2h-.2v-.2h-.2v-.2h.3v-.2h-.2v-.2h-.2v-.2h-.4v-.2H27v-1.2h.3v.2h.2v.2h.2v.2h.2v.2h.3v.2h.2v.2h.2v.2h.2v.2h.3v.2h.2v.2h.2v.2h.3v.2h.2v.2h.2v.2h.2v.2h.3v.2h.2v.2h.2v.2h.2v.4zm-3.9-3.1h-.2v-1h.2v1zm-.1-.1h-.2v-1h.2v1zm-.2-.2h-.2v-1h.2v1z"/><path fill="#5AB6C0" d="M30.1 293.5h-.2v-.2h-.2v-.2h-.2v-.1h-.2v-.3h-.2v-.2h-.2v-.2h-.2v-.3h-.2v-.2h-.2v-.2h-.2v-.3h-.2v-.2h-.2v-.2h.3v-.3h-.2v-.2h-.2v-.2h-.2V289h.2v.2h.2v.2h.2v.2h.2v.2h.2v.2h.2v.2h.2v.2h.2v.2h.2v.2h.2v.2h.2v.2h.2v.2h.2v.2h.2v.2h.2v.2h.2v1.5zm-2.6-3.3h-.2v-1h.2v1zm-.1-.2h-.2v-1h.2v1zm-.2-.1H27v-1h.2v1z"/><path fill="#5AB6C0" d="M30.1 293.5h-.2v-.2h-.2v-.2h-.2v-.1h-.2v-.3h-.2v-.2h-.2v-.2h-.2v-.3h-.2v-.2h-.2v-.2h-.2v-.3h-.2v-.2h-.2v-.2h.3v-.3h-.2v-.2h-.2v-.2h-.2V289h.2v.2h.2v.2h.2v.2h.2v.2h.2v.2h.2v.2h.2v.2h.2v.2h.2v.2h.2v.2h.2v.2h.2v.2h.2v.2h.2v.2h.2v.2h.2v1.5zm-2.6-3.3h-.2v-1h.2v1zm-.1-.2h-.2v-1h.2v1zm-.2-.1H27v-1h.2v1zm109.877 109.742l4.62 3.507-.604.796-4.62-3.506z"/><path fill="#5AB6C0" d="M137.692 399.442l.164.986-.986.164-.165-.986z"/><path fill="#5AB6C0" d="M137.38 398.805l.987.164-.164.986-.987-.164z"/><path fill="#5AB6C0" d="M138.303 398.719l3.505 4.62-.796.605-3.506-4.62z"/><path fill="#5AB6C0" d="M140.8 403.4h-.2v-1h.2v1zm-.2-.1h-.2v-1h.2v1zm-.1-.2h-.2v-1h.2v1zm-.2-.1h-.3v-.2h-.2v-.2h-.2v-.2h-.3v-.2h-.2v-.2h-.4v-.2h-.2v-.2h-.2v-.2h-.3v-.2h-.2v-.2h-.5v-.2h-.2v-.2h-.2v-.2h-.3v-1h1.1v.2h.2v.2h.2v.2h.2v.2h.2v.2h.2v.2h.2v.2h.2v.2h.2v.2h.2v.2h.2v.2h.2v.2h.2v.2h.2v.2h.2v.2h.2v.6z"/><path fill="#5AB6C0" d="M140.8 403.4h-.2v-1h.2v1zm-.2-.1h-.2v-1h.2v1zm-.1-.2h-.2v-1h.2v1zm-.2-.1h-.3v-.2h-.2v-.2h-.2v-.2h-.3v-.2h-.2v-.2h-.4v-.2h-.2v-.2h-.2v-.2h-.3v-.2h-.2v-.2h-.5v-.2h-.2v-.2h-.2v-.2h-.3v-1h1.1v.2h.2v.2h.2v.2h.2v.2h.2v.2h.2v.2h.2v.2h.2v.2h.2v.2h.2v.2h.2v.2h.2v.2h.2v.2h.2v.2h.2v.2h.2v.6z"/><path fill="#5AB6C0" d="M141.4 403.9h-.2v-1h.2v1zm-.2-.2h-.2v-1h.2v1zm-.1-.1h-.2v-1h.2v1zm-.2-.2h-.2v-.2h-.2v-.2h-.4v-.2h-.2v-.2h.1v-.2h-.2v-.2h-.2v-.2h-.4v-.2h-.2v-.4h-.2v-.2h-.2v-.2h-.4v-.2h-.2v-.2h-.2v-.2h-.2v-.2h-.2v-1h.2v-.8h.2v.2h.2v.2h.2v.2h.2v.3h.2v.2h.2v.2h.2v.3h.2v.2h.2v.2h.2v.3h.2v.2h.2v.2h.2v.3h.2v.2h.2v.2h.2v.3h.2v.2h.2v.2h.2v.9z"/><path fill="#5AB6C0" d="M141.4 403.9h-.2v-1h.2v1zm-.2-.2h-.2v-1h.2v1zm-.1-.1h-.2v-1h.2v1zm-.2-.2h-.2v-.2h-.2v-.2h-.4v-.2h-.2v-.2h.1v-.2h-.2v-.2h-.2v-.2h-.4v-.2h-.2v-.4h-.2v-.2h-.2v-.2h-.4v-.2h-.2v-.2h-.2v-.2h-.2v-.2h-.2v-1h.2v-.8h.2v.2h.2v.2h.2v.2h.2v.3h.2v.2h.2v.2h.2v.3h.2v.2h.2v.2h.2v.3h.2v.2h.2v.2h.2v.3h.2v.2h.2v.2h.2v.3h.2v.2h.2v.2h.2v.9z"/><path fill="#5AB6C0" d="M26.744 288.242l114.974 114.975-.707.707L26.037 288.949z"/><path fill="#5AB6C0" d="M199.106 344.993l.707.707-60.103 60.104-.707-.707zM81.9 337.3l.5.5s.1.1 0 .1 0 .1-.1.1h-.2c-.1 0-.1 0-.2-.1l-.5-.5-1.1.5h-.2c-.1 0-.1 0-.2-.1 0 0 0-.1-.1-.1 0 0 0-.1.1-.1l1.1-.5-1-1.1-.1-.1c0-.1 0-.1.1-.1h.1l5.2-1.4h.2l.1.1.1.1c0 .1 0 .1-.1.1h-.1l-4.8 1.4 1 1 1.1-.5h.2c.1 0 .1 0 .2.1l.1.1c0 .1 0 .1-.1.1l-1.3.4zm-1.1 2.6h-.2s-.1 0-.1-.1c0 0-.1-.1-.1-.2s0-.1.1-.1h.1l1.1-.3h.2c.1 0 .1 0 .1.1l.1.1c0 .1 0 .1-.1.1h-.1l-1.1.4zm6.5.3c.1.2 0 .4-.1.6-.1.2-.3.4-.6.5l-.9.4c-.4.2-.8.2-1.2.2-.5-.1-.8-.2-1.1-.5l-.8-.8s-.1-.1-.1-.2.1-.1.1-.1h.2c.1 0 .2 0 .2.1l.8.8c.2.2.4.3.7.3.3 0 .6 0 .8-.1l.9-.4c.2-.1.4-.3.4-.5s0-.4-.2-.6l-.2-.2c0-.1-.1-.1-.1-.2s.1-.1.1-.1h.2c.1 0 .2 0 .2.1.2.2.4.3.7.3.3 0 .6 0 .8-.1l.4-.2c.2-.1.4-.3.4-.5s0-.4-.2-.6l-.7-.7s-.1-.1-.1-.2.1-.1.1-.1h.2c.1 0 .2 0 .2.1l.7.7c.3.3.4.6.3.9-.1.3-.3.6-.7.7l-.4.2-.1.1h-.5c.1.2-.1.2-.4.1zm5.3.5l.5.5v.1s0 .1-.1.1h-.1c-.1 0-.1 0-.1-.1l-.5-.5-.6.3h-.1s-.1 0-.1-.1v-.1s0-.1.1-.1l.6-.3-.5-.5v-.1s0-.1.1-.1h.1c.1 0 .1 0 .1.1l.5.5.6-.3h.1c.1 0 .1 0 .1.1v.1s0 .1-.1.1l-.6.3zm1.7 2.8c-.3.1-.5.2-.8.1s-.6-.2-.8-.4l-.2-.2c-.2-.2-.2-.4-.2-.6 0-.2.2-.4.4-.5l2.5-1.1c.2-.1.5-.1.8-.1.3 0 .6.2.8.3l.2.2c.2.2.3.4.2.6 0 .2-.2.4-.5.5l-2.4 1.2zm-.2-.2l2.5-1.1c.2-.1.3-.2.3-.3 0-.1 0-.3-.1-.4l-.2-.2c-.1-.1-.3-.2-.5-.2s-.4 0-.6.1l-2.5 1.1c-.2.1-.3.2-.3.3 0 .1 0 .3.1.4l.2.2c.1.1.3.2.5.2s.4 0 .6-.1zm-.7 1.4h-.2v-.1s0-.1.1-.1h.1l.7-.2h.1s.1 0 .1.1v.1s0 .1-.1.1h-.1l-.7.1zm2.5 1.8l-1.3-1.3v-.1s0-.1.1-.1h4.2c.1 0 .2 0 .3-.1.2-.1.3-.2.3-.4v-.3c0-.1-.1-.2-.2-.3-.1-.1-.2-.2-.4-.2s-.4-.1-.6 0h-.2v-.1s0-.1.1-.1h.1c.3-.1.6 0 .9 0l.6.3c.2.2.3.5.3.7 0 .3-.2.5-.5.6-.1 0-.2.1-.3.1h-3.8l1.1 1.1v.1s0 .1-.1.1h-.6zm43.627-165.547l.89.455-18.108 35.442-.89-.455z"/><path fill="#5AB6C0" d="M140 180.7h15.9v1H140zM79.427 302.012l21.496 21.495-.707.707L78.72 302.72zm-5.244-13.176l45.827 45.672-.706.708-45.827-45.671zm-4.593-12.697l67.946 68.1-.708.706-67.946-68.1zm-4.176-12.116l88.312 88.463-.707.706-88.313-88.462zm-3.47-11.411l106.701 106.701-.707.707-106.701-106.7zm69.126 61.225l51.405 51.406-.707.708-51.406-51.407zm-72.022-72.031l57.134 57.133-.708.707-57.133-57.133zm-2.216-10.236l41.365 41.365-.707.707-41.365-41.365zm100.243 100.216l38.183 38.184-.707.707-38.183-38.183zm15.085 7.125l34.649 34.648-.707.707-34.648-34.647zM55.095 221.891l35.92 35.921-.706.707-35.92-35.92zm-.962-8.948l32.598 32.598-.707.707-32.598-32.597zM184.43 343.249l33.384 33.224-.705.71-33.385-33.225zm10.598 2.701l32.739 32.739-.707.707-32.739-32.739zM53.787 204.734l30.193 30.194-.707.707-30.193-30.193zm.159-8.041l31.678 31.678-.707.707L53.239 197.4zm147.615 147.631l35.487 35.648-.709.706-35.487-35.648zm8.285.539l35.78 35.779-.708.707-35.78-35.78zM54.251 189.092l30.83 30.83-.707.707-30.83-30.83zm.661-7.246l29.415 29.416-.707.707-29.415-29.416zm163.807 163.782l34.851 35.01-.708.705-34.852-35.01zm8.186.334l34.012 34.011-.708.707-34.011-34.011zM55.7 174.592l28.346 28.506-.71.705-28.345-28.505zm1.002-6.959l27.647 27.648-.707.707-27.647-27.648zm177.929 177.941l33.093 33.092-.707.708-33.093-33.093zm7.532-.384l31.96 31.96-.706.707-31.961-31.96zM57.762 161.009l27.02 26.86-.705.71-27.02-26.861zm1.489-6.707l26.587 26.587-.707.707-26.587-26.587zm189.806 189.885l31.042 31.041-.707.708-31.042-31.042zm9.813 1.76l27.011 27.012-.707.707-27.01-27.012zM60.608 147.724l23.405 23.405-.707.707-23.405-23.405zm1.76-6.136l22.91 22.91-.707.707-22.91-22.91zm203.117 202.894l25.94 26.103-.71.705-25.94-26.103zm6.063-1.669l25.314 25.314-.707.707-25.315-25.314zM64.158 135.318L87.21 158.37l-.708.707-23.051-23.051zm2.059-5.99L89.27 152.38l-.707.707-23.052-23.052zm211.36 211.374l24.527 24.687-.71.705-24.526-24.687zm5.789-2.204l23.893 24.052-.71.705-23.892-24.052zM68.267 123.625l23.2 23.044-.704.709-23.2-23.044zm2.408-5.783l23.193 23.193-.707.707-23.193-23.193zm218.242 218.222l23.405 23.405-.707.707-23.405-23.405zm5.302-2.534l23.062 22.9-.705.71-23.062-22.9zM73.002 112.416l23.405 23.405-.707.708-23.405-23.405zm2.706-5.366l23.546 23.546-.707.707-23.546-23.546zm223.729 223.636l22.556 22.556-.707.707-22.556-22.556zm5.034-2.887l22.274 22.273-.707.708-22.274-22.274zM78.605 101.978l23.547 23.547-.707.707-23.547-23.546zm3.195-4.981l23.537 23.697-.71.705L81.09 97.702zm227.47 227.68l22.143 21.98-.704.71-22.143-21.98zm4.624-3.379l21.92 21.92-.707.707-21.92-21.92zM84.97 92.388l23.689 23.688-.708.707-23.687-23.687zm3.66-4.405l23.395 23.555-.71.705L87.92 88.687zm229.89 229.975l21.788 21.628-.704.71-21.788-21.628zm4.258-3.613l21.787 21.628-.704.71-21.788-21.629zM92.266 83.846l23.405 23.405-.708.707-23.405-23.405zm4.039-3.999l23.2 23.044-.704.71-23.2-23.044zm230.793 230.628l21.628 21.788-.71.705-21.628-21.788zm3.968-3.809l21.779 21.778-.708.708-21.778-21.78zM100.403 75.803l22.902 23.062-.71.704-22.902-23.062zm4.29-3.646l22.769 22.769-.707.707-22.769-22.769zm230.289 230.382l21.92 21.92-.707.707-21.92-21.92zm3.85-4.194l21.92 21.92-.707.707-21.92-21.92zM109.165 68.755L131.58 91.17l-.707.708-22.415-22.416zm4.565-3.358l22.274 22.274-.707.707-22.274-22.274zm228.632 228.539l22.274 22.274-.707.707-22.274-22.274zm3.534-4.464l22.565 22.406-.704.71-22.566-22.407zM118.367 61.968L140.5 84.1l-.707.707-22.132-22.132zm4.913-3.113l21.92 21.92-.706.707-21.92-21.92zm225.941 225.907l22.762 22.92-.71.705-22.761-22.92zm2.987-4.837l23.2 23.044-.704.71-23.2-23.044zM128.256 55.777l21.77 21.93-.71.704-21.77-21.93zm5.104-2.8l21.778 21.78-.707.706-21.779-21.778zM355.222 274.89l23.396 23.555-.709.705-23.396-23.556zm2.686-5.066l23.839 23.681-.705.71-23.84-23.682zM138.453 50.283l21.779 21.78-.707.706-21.779-21.778zm5.4-2.707l21.778 21.78-.707.706-21.779-21.778zm216.792 216.759l24.041 24.041-.707.707-24.041-24.041zm2.357-5.575l24.324 24.325-.707.707-24.324-24.324zM149.234 44.953l21.92 21.92-.707.707-21.92-21.92zm5.607-2.333l22.132 22.131-.707.707-22.132-22.132zM365.2 253.072l24.465 24.466-.707.707-24.466-24.466zm2.11-5.875l24.465 24.466-.707.707-24.465-24.466zM160.388 40.251l22.415 22.415-.707.707-22.415-22.415zm5.867-2.076l22.769 22.768-.707.707-22.769-22.768zm202.749 202.789l24.465 24.466-.707.707-24.465-24.466zm1.482-6.563l24.678 24.678-.707.707-24.678-24.678zM172.137 36.035l23.405 23.405-.707.707-23.405-23.405zm6.055-1.792l27.233 27.072-.705.71-27.233-27.073zm190.526 190.331l27.498 27.655-.709.705-27.499-27.655zm.836-6.942L397.2 245.28l-.707.707-27.647-27.647zm-185.2-185.215l28.001 28.002-.707.707-28-28.001zm6.522-1.585l28.772 28.927-.709.706-28.772-28.928zm179.239 179.46l27.868 27.71-.705.709-27.868-27.71zm.243-7.824l28.002 28.001-.708.707-28-28zM197.434 29.637l30.052 30.052-.707.707-30.052-30.052zm6.79-1.203l31.475 31.315-.706.71-31.475-31.316zm165.984 165.789l28.284 28.284-.707.707-28.284-28.284zm-.868-8.778l28.92 28.92-.706.707-28.92-28.92zM211.411 27.488l33.093 33.092-.707.707-33.093-33.092zm7.492-.462l34.011 34.011-.707.708-34.012-34.012zM368.896 177.09l28.92 28.921-.707.707-28.92-28.92zm1.566-6.455l26.587 26.587-.707.707-26.587-26.586zm-143.591-143.6l32.456 32.456-.707.707-32.456-32.456zm8.529.611l34.507 34.507-.707.707-34.507-34.507zm132.329 132.362l28 28.001-.706.707-28.001-28.001zm-4.4-12.393l30.83 30.83-.708.707-30.83-30.83zM244.99 29.26l37.406 37.405-.707.707-37.406-37.406zm10.64 2.758l41.8 41.642-.706.709-41.801-41.643zm100.75 100.463l35.779 35.78-.707.707-35.78-35.78zm-18.13-25.936l51.053 51.053-.707.707-51.052-51.053zM267.456 35.78l56.002 56.002-.707.707-56.002-56.002zm13.495 5.536l104.651 104.65-.707.708-104.65-104.651zm16.087 8.007l83.509 83.509-.707.707-83.51-83.509zm20.697 12.687l54.582 54.736-.708.706-54.582-54.736zM21.36 227.576l.864.505-3.843 6.558-.863-.506z"/><path fill="#5AB6C0" d="M14.565 227.585l3.84 6.559-.863.505-3.84-6.559z"/><path fill="#5AB6C0" d="M17.5 227.8h1v15.1h-1zm-7 15.1h1v13.2h-1z"/><path fill="#5AB6C0" d="M11 242.4h14v1H11z"/><path fill="#5AB6C0" d="M24.5 242.9h1v13.2h-1z"/><path fill="#5AB6C0" d="M11 255.6h14v1H11zm7.4-6.6l2.4-2.6c.1-.1.2-.1.2-.1.1 0 .1 0 .1.1v.2s0 .1-.1.1l-2.4 2.7.3 3.2v.1c0 .1-.1.1-.1.2-.1 0-.1.1-.2.1h-.1v-.1l-.3-3.1-1.1 3c0 .1-.1.1-.1.2-.1 0-.1.1-.2.1 0 0-.1 0-.1-.1v-.2l1.1-3-2.5 3.1-.1.1h-.1c-.1 0-.1 0-.1-.1v-.2l.1-.1 2.6-3.2-.5-2.7v-.1l.1-.1c.1-.1.1-.1.2-.1s.1 0 .1.1l.5 2.6.9-2.5c0-.1.1-.1.1-.2s.1-.1.2-.1.1 0 .1.1v.2l-1 2.4zM197.9 13.2c.3 0 .4.2.3.5l-.3.9c0 .1-.1.2-.3.3-.1.1-.3.2-.4.2s-.2 0-.3-.1c-.1-.1-.1-.2 0-.3l.2-.5h-5.7l-.2.5c0 .1-.1.2-.3.3-.1.1-.3.2-.4.2s-.2 0-.3-.1c-.1-.1-.1-.2 0-.3l.3-.9c.1-.3.3-.5.6-.5h.5l5.4-12c0-.1.1-.2.2-.3l.2-.1h4c.3 0 .4.2.3.5l-4.3 11.8.5-.1zm-5.2 0h3.7l4.1-11.3h-2.9l-4.9 11.3zm14.4-3.3h-5.7c-.1 0-.2 0-.3-.1v-.3c0-.1.1-.2.2-.3.1-.1.3-.2.4-.2h5.7c.1 0 .2.1.3.2.1.1.1.2 0 .3s-.1.2-.2.3c-.1.1-.3.1-.4.1zm7.5 3.3c.3 0 .4.2.3.5l-.3.9c0 .1-.1.2-.3.3-.1.1-.3.2-.4.2s-.2 0-.3-.1c-.1-.1-.1-.2 0-.3l.2-.5h-5.7l-.2.5c0 .1-.1.2-.3.3-.1.1-.3.2-.4.2s-.2 0-.3-.1c-.1-.1-.1-.2 0-.3l.3-.9c.1-.3.3-.5.6-.5h.5l5.2-11.8c0-.1.1-.2.2-.3l.2-.1h4c.3 0 .4.2.3.5l-4.3 11.8.7-.3zm-5.2 0h3.7l4.1-11.3h-2.9l-4.9 11.3zm9 1.3v.1c0 .1-.1.2-.3.3s-.3.1-.4.1c-.1 0-.2 0-.2-.1-.1 0-.1-.1-.1-.3.1-1.1.3-2.3.6-3.5l.2-1 .1-.5.1-.4.1-.4.1-.3.4-1.2c.9-2.4 2.1-4.8 3.6-7.2 0-.1.1-.2.2-.2.1-.1.2-.1.3-.1.1 0 .2 0 .3.1.1.1.1.2 0 .3l-.1.1c-.3.5-.6 1.1-1 1.6-.3.6-.6 1.2-1 1.8l-.2 1.3c-.2.3-.3.6-.4.8l-.4.9-.3.8c-.4 1.2-.8 2.4-1.1 3.5-.1.5-.2 1.1-.3 1.7l-.1.9-.1.9zm8.1-.3h-5.6c-.1 0-.2 0-.3-.2v-.4c0-.1.1-.2.1-.2l8-7.8.3-.4.3-.3c.2-.2.3-.5.4-.7.2-.6.2-1.2-.2-1.6-.2-.2-.4-.4-.6-.5-.3-.1-.6-.2-.9-.2-.4 0-.9.1-1.3.4-.5.2-.9.7-1.4 1.2l-.2.2c-.1 0-.2.1-.3.1-.1 0-.2 0-.3-.1-.1-.1-.1-.2 0-.3l.1-.2c.5-.8 1.2-1.3 1.9-1.7.6-.3 1.3-.5 1.9-.5.9 0 1.6.3 2.1.9.5.6.6 1.4.3 2.3-.1.3-.3.6-.5.9-.2.3-.5.6-.9 1l-7.3 7.1h4.8c.1 0 .2 0 .3.2.1.1.1.2 0 .3 0 .1-.1.2-.2.3-.2.1-.3.2-.5.2zm9.9-2.9c-.3.8-.8 1.4-1.6 2s-1.5.8-2.3.8h-.9c-.7 0-1.3-.3-1.7-.8-.4-.5-.4-1.2-.1-2l2.7-7.6c.3-.8.8-1.4 1.5-2 .8-.6 1.5-.8 2.3-.8h.9c.8 0 1.3.3 1.7.8.4.6.4 1.2.1 2l-2.6 7.6zm-.9 0l2.7-7.6c.2-.5.2-1-.1-1.3-.2-.4-.6-.6-1.1-.6h-1c-.5 0-1 .2-1.5.6-.5.4-.8.8-1 1.3l-2.7 7.6c-.2.5-.2 1 .1 1.3.2.4.6.6 1.1.6h.9c.5 0 1-.2 1.5-.5.5-.4.9-.8 1.1-1.4zm3.9-1.2c.1.1.1.2 0 .3 0 .1-.1.2-.2.3-.1.1-.3.2-.4.2-.1 0-.2 0-.3-.1v-.3c0-.1.1-.2.2-.3.1-.1.3-.2.4-.2.1-.1.2 0 .3.1zm1.7-4.8c.1.1.1.2 0 .3 0 .1-.1.2-.2.3-.1.1-.3.2-.4.2-.1 0-.2 0-.3-.1v-.3c0-.1.1-.2.2-.3.1-.1.3-.2.4-.2.1 0 .2 0 .3.1zm2.7 8.4c-.1.2-.1.3-.3.4-.1.1-.2.1-.4.1-.1 0-.2 0-.3-.1-.1-.1-.1-.2 0-.4l4.1-11.1-2.8 2c-.1.1-.3.1-.4.1-.1 0-.2 0-.3-.1s-.1-.2 0-.3c0-.1.1-.2.3-.3l3.9-2.8c.1-.1.2-.1.4-.1.1 0 .2 0 .3.1.1.1.1.2 0 .3l-4.5 12.2zm2.3 1c-.1.1-.1.2-.2.3-.1.1-.2.1-.3.1-.1 0-.2 0-.3-.1-.1-.1-.1-.2 0-.3l.1-.1c.3-.5.6-1.1 1-1.6.3-.6.6-1.2 1-1.8l.4-.9.2-.5.1-.4.2-.5.3-.6.2-.6c.4-1.1.8-2.3 1-3.5.1-.6.3-1.2.3-1.7l.1-.9.1-.8V.7c0-.1.1-.2.3-.3.1-.1.3-.1.4-.1.1 0 .1 0 .2.1.1 0 .1.1.1.3-.2 2.4-.8 4.8-1.7 7.2-.7 2-1.9 4.4-3.5 6.8zm67.571 300.46l1.915 5.262-.94.342-1.914-5.263z"/><path fill="#5AB6C0" d="M313.434 314.804l.836.335-.372.928-.835-.334z"/><path fill="#5AB6C0" d="M314.29 314.58l.708.707-.637.636-.707-.707z"/><path fill="#5AB6C0" d="M315.187 314.937l.479 5.58-.997.085-.478-5.58z"/><path fill="#5AB6C0" d="M315.1 320.6h-.2v-1.2h.2v1.2zm-.2-.5h-.2v-1.3h.2v1.3zm-.1-.5h-.2v-.3h-.2v-.5h-.2v-.5h-.2v-.8h-.2v-.5h-.2v-.5h-.2v-.5h-.2v-1.2h.3v.2h.3v.2h.2v.6h.2v.6h.2v.8h.2v.6h.2v1.8z"/><path fill="#5AB6C0" d="M315.1 320.6h-.2v-1.2h.2v1.2zm-.2-.5h-.2v-1.3h.2v1.3zm-.1-.5h-.2v-.3h-.2v-.5h-.2v-.5h-.2v-.8h-.2v-.5h-.2v-.5h-.2v-.5h-.2v-1.2h.3v.2h.3v.2h.2v.6h.2v.6h.2v.8h.2v.6h.2v1.8z"/><path fill="#5AB6C0" d="M315.1 320.2h-.2v-.6h-.1v-.8h-.2v-.6h-.1v-.8h-.2v-.7h-.2v-.6h-.1v-1h.1v-.2h.2v-.1h.2v-.2h.3v1.8h.1v1.9h.2z"/><path fill="#5AB6C0" d="M315.1 320.2h-.2v-.6h-.1v-.8h-.2v-.6h-.1v-.8h-.2v-.7h-.2v-.6h-.1v-1h.1v-.2h.2v-.1h.2v-.2h.3v1.8h.1v1.9h.2z"/><path fill="#5AB6C0" d="M309.408 291.818l6.203 28.635-.977.212-6.203-28.635z"/><path fill="#5AB6C0" d="M265.6 291.4h43.3v1h-43.3z"/><path fill="#5AB6C0" d="M268.966 285.12l3.67 6.54-.872.49-3.67-6.541z"/><path fill="#5AB6C0" d="M278.881 279.513l.861.51-7.13 12.048-.86-.51z"/><path fill="#5AB6C0" d="M279.3 279.3h31.5v1h-31.5zm4.1 6.9l.5 2.5v.1c0 .1-.1.1-.1.2-.1 0-.1.1-.2.1h-.1s0-.1-.1-.1l-.6-2.7h-.8l-.9 2.6c0 .1-.1.1-.1.2-.1 0-.1.1-.2.1 0 0-.1 0-.1-.1v-.2l2.2-6.1c.1-.2.2-.2.3-.2h1.6c.4 0 .7.1.8.4.2.3.2.6.1 1l-.3.9c-.1.4-.4.7-.8 1s-.8.3-1.2.3zm-1.2-.5h1.4c.3 0 .5-.1.8-.3.3-.2.4-.4.5-.7l.3-.9c.1-.3.1-.5 0-.7-.1-.2-.3-.3-.6-.3h-1.4l-1 2.9zm5.8 2.8c.1 0 .1.1.1.2s-.1.1-.1.2c-.1 0-.1.1-.2.1h-.1c-.1 0-.1-.1-.2-.1 0 0-.1-.1-.1-.2-.3.2-.5.3-.8.3h-.9c-.3 0-.4-.1-.6-.3-.1-.2-.1-.4 0-.7l1-2.8c.1-.2.3-.4.5-.6.2-.2.5-.3.8-.3h1.6c.2 0 .2.1.1.2l-1.3 3.5v.3c0 .1.1.2.2.2zm-.6-.5l1.2-3.3h-1.4c-.1 0-.3 0-.4.1l-.3.3-1 2.8v.3c.1.1.2.1.3.1h.9c.1 0 .3 0 .4-.1.1.1.2 0 .3-.2zm7.5-.4c-.1.4-.4.7-.8 1-.4.3-.8.4-1.1.4h-.5c-.4 0-.6-.1-.8-.4-.2-.3-.2-.6-.1-1l1.4-3.7c.1-.4.4-.7.8-1 .4-.3.8-.4 1.1-.4h.5c.4 0 .7.1.8.4.2.3.2.6.1 1l-1.4 3.7zm-.4 0l1.4-3.7c.1-.3.1-.5 0-.7-.1-.2-.3-.3-.6-.3h-.5c-.3 0-.5.1-.8.3-.2.2-.4.4-.5.7l-1.4 3.7c-.1.3-.1.5 0 .7.1.2.3.3.5.3h.5c.3 0 .5-.1.8-.3s.5-.5.6-.7zm.8 2.2l-.1.1h-.1c-.1 0-.1 0-.1-.1v-.3l.6-.9c0-.1.1-.1.1-.1h.2c.1 0 .1 0 .1.1v.3l-.7.9zm4.4-2.7h.7c.1 0 .1 0 .1.1v.2c0 .1-.1.1-.1.2-.1 0-.1.1-.2.1h-.7l-.4 1.2c0 .1-.1.1-.1.2-.1 0-.1.1-.2.1 0 0-.1 0-.1-.1v-.2l.4-1.2h-1.6c-.1 0-.1 0-.1-.1v-.3l2.6-4.7c0-.1.1-.1.1-.1h.2c.1 0 .1 0 .1.1v.3l-2.5 4.4h1.3l.4-1.2s.1-.1.1-.2c.1-.1.1-.1.2-.1s.1 0 .1.1v.2l-.3 1zm5 .5c-.1.4-.4.7-.8 1-.4.3-.8.4-1.1.4h-.5c-.4 0-.6-.1-.8-.4-.2-.3-.2-.6-.1-1l1.4-3.7c.1-.4.4-.7.8-1 .4-.3.8-.4 1.1-.4h.5c.4 0 .7.1.8.4.2.3.2.6.1 1l-1.4 3.7zm-.5 0l1.4-3.7c.1-.3.1-.5 0-.7-.1-.2-.3-.3-.6-.3h-.5c-.3 0-.5.1-.8.3-.2.2-.4.4-.5.7l-1.4 3.7c-.1.3-.1.5 0 .7.1.2.3.3.5.3h.5c.3 0 .5-.1.8-.3s.5-.5.6-.7zM196.345 390.909l.831.556-20.98 31.322-.83-.557z"/><path fill="#5AB6C0" d="M162.4 422h13.4v1h-13.4zm118.817-81.576l.32 5.891-1 .054-.318-5.891z"/><path fill="#5AB6C0" d="M280.26 334.46l.96 5.922-.987.16-.96-5.922z"/><path fill="#5AB6C0" d="M278.718 328.794l1.594 5.577-.962.275-1.593-5.577z"/><path fill="#5AB6C0" d="M276.415 323.437l2.208 5.363-.924.38-2.209-5.362z"/><path fill="#5AB6C0" d="M273.755 318.111l2.702 5.245-.889.458-2.702-5.245z"/><path fill="#5AB6C0" d="M270.377 313.25l3.326 4.751-.819.574-3.326-4.752z"/><path fill="#5AB6C0" d="M266.492 308.575l3.825 4.622-.77.638-3.826-4.623z"/><path fill="#5AB6C0" d="M262.153 304.539l4.33 4.008-.68.734-4.33-4.008z"/><path fill="#5AB6C0" d="M257.488 301.04l4.62 3.507-.604.797-4.62-3.507z"/><path fill="#5AB6C0" d="M252.376 297.975l5.073 3.011-.51.86-5.073-3.012z"/><path fill="#5AB6C0" d="M247.072 295.488l5.218 2.53-.436.9-5.219-2.53z"/><path fill="#5AB6C0" d="M241.478 293.673l5.533 1.74-.3.954-5.533-1.74z"/><path fill="#5AB6C0" d="M235.683 292.375l5.76 1.28-.218.976-5.76-1.28z"/><path fill="#5AB6C0" d="M229.767 291.696l5.865.635-.107.994-5.866-.635z"/><path fill="#5AB6C0" d="M223.8 291.7h5.9v1h-5.9z"/><path fill="#5AB6C0" d="M223.696 291.695l.112.994-5.764.645-.112-.994z"/><path fill="#5AB6C0" d="M217.928 292.353l.217.977-5.76 1.278-.216-.976z"/><path fill="#5AB6C0" d="M212.234 293.668l.324.945-5.58 1.914-.325-.946zm-5.667 1.949l.403.915-5.398 2.381-.403-.915z"/><path fill="#5AB6C0" d="M201.147 297.977l.523.853-4.947 3.028-.522-.853zm-5.017 3.123l.61.793-4.761 3.652-.609-.793z"/><path fill="#5AB6C0" d="M191.352 304.716l.693.72-4.108 3.952-.693-.72zm-4.228 4.057l.76.651-3.84 4.48-.76-.65z"/><path fill="#5AB6C0" d="M183.285 313.194l.828.56-3.363 4.969-.828-.56z"/><path fill="#5AB6C0" d="M179.943 318.187l.889.457-2.698 5.247-.89-.458z"/><path fill="#5AB6C0" d="M177.192 323.494l.933.358-2.073 5.416-.934-.357z"/><path fill="#5AB6C0" d="M175.136 328.974l.961.275-1.596 5.576-.962-.275z"/><path fill="#5AB6C0" d="M173.485 334.65l.987.16-.961 5.922-.987-.16z"/><path fill="#5AB6C0" d="M172.56 340.575l.998.055-.323 5.891-.998-.055z"/><path fill="#5AB6C0" d="M173.247 346.406l.316 5.691-.998.056-.317-5.692zm.338 5.724l.96 5.922-.987.16-.96-5.922z"/><path fill="#5AB6C0" d="M174.446 357.915l1.593 5.576-.961.275-1.594-5.577z"/><path fill="#5AB6C0" d="M176.076 363.414l2.227 5.571-.928.372-2.228-5.571z"/><path fill="#5AB6C0" d="M178.236 369.003l2.721 5.122-.883.47-2.721-5.123z"/><path fill="#5AB6C0" d="M180.908 374.025l3.365 4.967-.828.561-3.365-4.967z"/><path fill="#5AB6C0" d="M184.233 378.978l3.84 4.48-.76.651-3.84-4.48z"/><path fill="#5AB6C0" d="M188.005 383.306l4.33 4.008-.68.734-4.33-4.008z"/><path fill="#5AB6C0" d="M192.31 387.237l4.621 3.505-.604.797-4.621-3.505z"/><path fill="#5AB6C0" d="M196.84 390.754l5.073 3.013-.51.86-5.074-3.013z"/><path fill="#5AB6C0" d="M201.856 393.717l5.398 2.38-.403.916-5.398-2.381z"/><path fill="#5AB6C0" d="M207.216 396.054l5.58 1.914-.324.946-5.58-1.914zm5.587 1.919l5.76 1.28-.217.976-5.76-1.28z"/><path fill="#5AB6C0" d="M218.485 399.282l5.765.64-.11.993-5.765-.64z"/><path fill="#5AB6C0" d="M229.96 399.756l.027 1-5.898.161-.027-1zm5.913-.731l.107.994-5.866.633-.107-.994z"/><path fill="#5AB6C0" d="M241.542 397.853l.216.976-5.76 1.279-.216-.976z"/><path fill="#5AB6C0" d="M247.035 395.916l.325.945-5.581 1.914-.325-.945z"/><path fill="#5AB6C0" d="M252.261 393.538l.414.91-5.279 2.402-.414-.91z"/><path fill="#5AB6C0" d="M257.288 390.398l.53.848-5.09 3.178-.53-.848z"/><path fill="#5AB6C0" d="M261.791 386.913l.604.797-4.624 3.501-.603-.797z"/><path fill="#5AB6C0" d="M266.134 383.01l.68.734-4.33 4.008-.68-.734z"/><path fill="#5AB6C0" d="M269.71 378.457l.784.621-3.667 4.623-.783-.622z"/><path fill="#5AB6C0" d="M273.023 373.767l.819.574-3.332 4.748-.818-.574zm2.702-5.268l.889.457-2.698 5.247-.89-.457z"/><path fill="#5AB6C0" d="M277.79 363.117l.935.357-2.074 5.417-.934-.357z"/><path fill="#5AB6C0" d="M279.329 357.467l.963.268-1.58 5.684-.963-.268z"/><path fill="#5AB6C0" d="M280.268 351.752l.986.164-.951 5.72-.987-.163z"/><path fill="#5AB6C0" d="M280.56 346.278l.999.057-.317 5.591-.999-.057zM368.742 184.4l.25.968-5.519 1.424-.25-.968z"/><path fill="#5AB6C0" d="M363.332 185.178l.857.515-.463.772-.857-.515z"/><path fill="#5AB6C0" d="M363.481 184.507l.637.636-.707.708-.637-.637z"/><path fill="#5AB6C0" d="M363.1 184.4h5.7v1h-5.7z"/><path fill="#5AB6C0" d="M363.9 186.6h-.4v-1h.1v-.3h.2v-.3h1.2v-.2h1.3v-.1h1.3v-.2h.8v1h-.6v.2h-.7v.1h-.6v.2h-.7v.1h-.6v.2h-.6v.2h-.7z"/><path fill="#5AB6C0" d="M363.9 186.6h-.4v-1h.1v-.3h.2v-.3h1.2v-.2h1.3v-.1h1.3v-.2h.8v1h-.6v.2h-.7v.1h-.6v.2h-.7v.1h-.6v.2h-.6v.2h-.7z"/><path fill="#5AB6C0" d="M365 185.8h-1.4v-.1h-.1v-.2h-.2v-.1h-.2v-1h5.8v1h-1.3v.1h-1.3v.2H365z"/><path fill="#5AB6C0" d="M365 185.8h-1.4v-.1h-.1v-.2h-.2v-.1h-.2v-1h5.8v1h-1.3v.1h-1.3v.2H365zM90.218 219.312l.282.959-5.372 1.58-.282-.959z"/><path fill="#5AB6C0" d="M89.889 219.62l.894.448-.492.984-.894-.447z"/><path fill="#5AB6C0" d="M90.22 220.409l.636.636-.706.707-.637-.636z"/><path fill="#5AB6C0" d="M84.9 220.9h5.6v1h-5.6z"/><path fill="#5AB6C0" d="M86.2 221.8h-.6v-1h.5v-.2h.6v-.1h.5v-.2h.4v-.2h.7v-.1h.5v-.2h.6v-.1h.5v-.2h.4v1h-.1v.3H90v.3h-.1v.2h-1.1v.2h-1.3v.1h-1.3z"/><path fill="#5AB6C0" d="M86.2 221.8h-.6v-1h.5v-.2h.6v-.1h.5v-.2h.4v-.2h.7v-.1h.5v-.2h.6v-.1h.5v-.2h.4v1h-.1v.3H90v.3h-.1v.2h-1.1v.2h-1.3v.1h-1.3z"/><path fill="#5AB6C0" d="M90.3 221.8h-4.1v-1h1.3v-.2h1.3v-.1H90v.1h.2v.2h.1z"/><path fill="#5AB6C0" d="M90.3 221.8h-4.1v-1h1.3v-.2h1.3v-.1H90v.1h.2v.2h.1z"/><path fill="#5AB6C0" d="M368.812 184.346l.128.992-283.952 36.618-.128-.992z"/><path fill="#5AB6C0" d="M84.894 220.885l.126.992-49.793 6.37-.127-.992z"/><path fill="#5AB6C0" d="M0 227.3h35.2v1H0zm3.1-4.1c-.3-.1-.4-.4-.5-.7-.1-.3-.1-.7.1-1 .2-.5.5-.9 1-1.3s1-.6 1.5-.6h.3l.8-1.2c.1-.1.2-.2.3-.2.1 0 .1 0 .1.1v.3l-.8 1.2c.3.1.4.4.6.7 0 .1.1.3 0 .5 0 .2-.1.4-.1.5-.2.5-.5.9-1 1.3s-1 .6-1.5.6h-.3l-.8 1.3c-.1.1-.2.2-.3.2 0 0-.1 0-.2-.1v-.3l.8-1.3zm.3-.5l1.8-2.6H5c-.4 0-.8.1-1.1.4-.2.1-.3.3-.5.5l-.2.2-.1.2v.1c-.1.2-.1.5 0 .7 0 .2.1.4.3.5zm2.2-2.5l-1.8 2.6H4c.4 0 .8-.1 1.1-.4.4-.3.6-.6.8-1 .1-.3.1-.5 0-.7 0-.2-.1-.3-.3-.5zm6.1-1.7l-3.6 6.1-.1.1h-.2c-.1 0-.1 0-.1-.1v-.3l3.4-5.8H8.9l-.2.5c0 .1-.1.1-.1.2-.1 0-.1.1-.2.1 0 0-.1 0-.1-.1v-.2l.3-.7c.1-.2.2-.2.3-.2h2.8c.1 0 .1 0 .2.1s-.1.1-.2.3zm-1.4 7l-.1.1h-.1c-.1 0-.1 0-.1-.1v-.3l.6-.9c0-.1.1-.1.1-.1h.2c.1 0 .1 0 .1.1v.3l-.7.9zm2.7-4.3c.2-.6.6-1.2 1.1-1.8.6-.6 1.2-1 2-1.3h.1c.1 0 .1 0 .1.1v.2s0 .1-.1.1c0 0-.1.1-.2.1h-.2l-.2.1c-.1.1-.3.2-.4.2-.2.2-.5.4-.8.6-.2.2-.4.4-.5.6-.2.2-.3.4-.4.6H15c.4 0 .7.1.8.4.2.3.2.6 0 1l-.3.9c-.1.4-.4.7-.8 1-.4.3-.8.4-1.1.4h-.5c-.4 0-.6-.1-.8-.4s-.2-.6-.1-1l.8-1.8zm.4.3l-.7 1.9c-.1.3-.1.5 0 .7.1.2.3.3.5.3h.5c.3 0 .5-.1.8-.3.2-.2.4-.4.5-.7l.3-.9c.1-.3.1-.5 0-.7s-.3-.3-.6-.3h-1.3zm5.6 3.2h-2.8c-.1 0-.1 0-.1-.1v-.2s0-.1.1-.1l4-3.9.2-.2.1-.2c.1-.1.1-.2.2-.3.1-.3.1-.6-.1-.8-.1-.1-.2-.2-.3-.2s-.3-.1-.4-.1c-.2 0-.4.1-.7.2-.2.1-.5.3-.7.6l-.1.1h-.1c-.1 0-.1 0-.1-.1v-.3c.3-.4.6-.7.9-.9.3-.2.6-.3.9-.3.4 0 .8.2 1 .5.2.3.3.7.1 1.1-.1.2-.1.3-.2.4-.1.1-.2.3-.4.5l-3.6 3.5h2.3c.1 0 .1 0 .1.1v.2c0 .1-.1.1-.1.2-.1.3-.2.3-.2.3zm4.9-7h.6s.1 0 .1.1v.1s0 .1-.1.1-.1.1-.1.1h-.6l-.2.6c0 .1 0 .1-.1.1h-.2v-.1l.2-.6h-.7v-.1s0-.1.1-.1l.1-.1h.6l.2-.6s0-.1.1-.1l.1-.1h.1v.1l-.2.6zm3.2.8c-.1.3-.3.5-.5.7-.3.2-.5.3-.8.3h-.3c-.2 0-.4-.1-.6-.3s-.1-.4 0-.7l.9-2.5c.1-.3.3-.5.5-.7.3-.2.5-.3.8-.3h.3c.3 0 .5.1.6.3.1.2.1.4 0 .7l-.9 2.5zm-.3 0l.9-2.5c.1-.2.1-.3 0-.4-.1-.1-.2-.2-.4-.2H27c-.2 0-.3.1-.5.2s-.3.3-.4.5l-.9 2.5c-.1.2-.1.3 0 .4.1.1.2.2.4.2h.3c.2 0 .3-.1.5-.2.2-.2.3-.3.4-.5zm.5 1.5l-.1.1H27v-.1l.4-.6.1-.1h.2v.1l-.4.6zm3.5-1.5c-.1.3-.3.5-.5.7-.3.2-.5.3-.8.3h-.3c-.2 0-.4-.1-.6-.3s-.1-.4 0-.7l.9-2.5c.1-.3.3-.5.5-.7.3-.2.5-.3.8-.3h.3c.3 0 .5.1.6.3.1.2.1.4 0 .7l-.9 2.5zm-.3 0l.9-2.5c.1-.2.1-.3 0-.4-.1-.1-.2-.2-.4-.2h-.3c-.2 0-.3.1-.5.2s-.3.3-.4.5l-.9 2.5c-.1.2-.1.3 0 .4.1.1.2.2.4.2h.3c.2 0 .3-.1.5-.2.2-.2.4-.3.4-.5zm2.8 0c-.1.3-.3.5-.5.7-.3.2-.5.3-.8.3h-.9v-.1s0-.1.1-.1l.1-.1h.8c.2 0 .3-.1.5-.2s.3-.3.3-.5l.2-.6c.1-.2.1-.3 0-.4-.1-.1-.2-.2-.4-.2H32c-.1 0-.1-.1-.1-.2l.7-1.9c0-.1.1-.2.2-.2h1.6s.1 0 .1.1v.1s0 .1-.1.1l-.1.1h-1.4l-.6 1.6h.6c.3 0 .5.1.6.3.1.2.1.4 0 .7l-.2.5zm81.763 79.765l.535.845-4.732 2.995-.535-.845z"/><path fill="#5AB6C0" d="M110.589 301.235l.986.165-.164.986-.987-.164z"/><path fill="#5AB6C0" d="M111 301.9h1v1h-1z"/><path fill="#5AB6C0" d="M114.943 298.405l.735.678-3.798 4.116-.735-.679z"/><path fill="#5AB6C0" d="M114.954 298.324l.645.763-7.178 6.068-.646-.764z"/><path fill="#5AB6C0" d="M111.8 302.3h-1.3v-1h.4v-.2h.3v-.2h.1v-.1h.4v-.2h.1v-.1h.3v-.2h.4v-.1h.1v-.2h.3v-.2h.2v-.1h.3v-.2h.2v-.1h.3v-.2h.3v-.2h.2v-.1h.3v-.2h.1v-.1h.2v1h-.2v.1h-.1v.2h-.3v.1h-.2v.2h-.2v.2h-.1v.1h-.2v.2h-.3v.1h-.1v.2h-.2v.2h-.2v.1h-.1v.2h-.3v.1h-.2v.2h-.2v.1h-.1v.2h-.2z"/><path fill="#5AB6C0" d="M111.8 302.3h-1.3v-1h.4v-.2h.3v-.2h.1v-.1h.4v-.2h.1v-.1h.3v-.2h.4v-.1h.1v-.2h.3v-.2h.2v-.1h.3v-.2h.2v-.1h.3v-.2h.3v-.2h.2v-.1h.3v-.2h.1v-.1h.2v1h-.2v.1h-.1v.2h-.3v.1h-.2v.2h-.2v.2h-.1v.1h-.2v.2h-.3v.1h-.1v.2h-.2v.2h-.2v.1h-.1v.2h-.3v.1h-.2v.2h-.2v.1h-.1v.2h-.2z"/><path fill="#5AB6C0" d="M111.7 303.2h-.2v-1.8h.3v-.1h.2v-.2h.1v-.2h.2v-.1h.2v-.2h.3v-.1h.1v-.2h.2v-.1h.2v-.2h.1v-.2h.3v-.1h.2v-.2h.1v-.1h.2v-.2h.2v-.2h.3v-.1h.1v-.2h.2v-.1h.2v-.2h.1v1h-.1v.2h-.2v.1h-.2v.2h-.1v.1h-.2v.2h-.1v.2h-.2v.1h-.2v.2h-.1v.1h-.2v.2h-.1v.2h-.2v.3h-.1v.1h-.2v.2h-.2v.1h-.1v.2h-.2v.2h-.1v.1h-.2v.2h-.2v.1h-.1v.2h-.2v.2h-.1z"/><path fill="#5AB6C0" d="M111.7 303.2h-.2v-1.8h.3v-.1h.2v-.2h.1v-.2h.2v-.1h.2v-.2h.3v-.1h.1v-.2h.2v-.1h.2v-.2h.1v-.2h.3v-.1h.2v-.2h.1v-.1h.2v-.2h.2v-.2h.3v-.1h.1v-.2h.2v-.1h.2v-.2h.1v1h-.1v.2h-.2v.1h-.2v.2h-.1v.1h-.2v.2h-.1v.2h-.2v.1h-.2v.2h-.1v.1h-.2v.2h-.1v.2h-.2v.3h-.1v.1h-.2v.2h-.2v.1h-.1v.2h-.2v.2h-.1v.1h-.2v.2h-.2v.1h-.1v.2h-.2v.2h-.1zM342.982 104l.555.832-4.743 3.162-.555-.832z"/><path fill="#5AB6C0" d="M342.394 103.744l.987.165-.165.986-.986-.164z"/><path fill="#5AB6C0" d="M342.669 103.146l.165.986-.987.165-.164-.986z"/><path fill="#5AB6C0" d="M341.755 102.936l.761.648-3.63 4.264-.761-.648z"/><path fill="#5AB6C0" d="M345.15 100.99l.663.748-7.03 6.24-.663-.748z"/><path fill="#5AB6C0" d="M339.3 107.6h-.2v-1h.2v-.2h.1v-.1h.2v-.2h.2v-.2h.3v-.1h.1v-.2h.2v-.1h.2v-.2h.1v-.2h.2v-.1h.1v-.2h.3v-.1h.2v-.2h.2v-.2h.1v-.1h.2v-.2h.1v-.1h1.2v1h-.2v.1h-.3v.2h-.2v.1h-.3v.2h-.2v.2h-.3v.1h-.1v.2h-.4v.1h-.1v.2h-.3v.2h-.2v.1h-.3v.2h-.2v.1h-.3v.2h-.1v.2h-.4v.1h-.1z"/><path fill="#5AB6C0" d="M339.3 107.6h-.2v-1h.2v-.2h.1v-.1h.2v-.2h.2v-.2h.3v-.1h.1v-.2h.2v-.1h.2v-.2h.1v-.2h.2v-.1h.1v-.2h.3v-.1h.2v-.2h.2v-.2h.1v-.1h.2v-.2h.1v-.1h1.2v1h-.2v.1h-.3v.2h-.2v.1h-.3v.2h-.2v.2h-.3v.1h-.1v.2h-.4v.1h-.1v.2h-.3v.2h-.2v.1h-.3v.2h-.2v.1h-.3v.2h-.1v.2h-.4v.1h-.1z"/><path fill="#5AB6C0" d="M338.8 107.9h-.2v-1h.2v-.2h.2v-.1h.1v-.2h.2v-.1h.1v-.4h.2v-.1h.2v-.2h.1v-.1h.2v-.2h.1v-.2h.2v-.3h.2v-.1h.1v-.2h.2v-.2h.1v-.1h.2v-.2h.1v-.3h.2v-.1h.2v-.2h.1v-.2h.2v-.1h.1v-.2h.2v1.8h-.2v.2h-.1v.1h-.2v.2h-.1v.1h-.2v.2h-.2v.2h-.3v.1h-.1v.2h-.2v.1h-.1v.2h-.2v.2h-.2v.1h-.1v.2h-.3v.1h-.2v.2h-.2v.2h-.1v.1h-.2v.2h-.1v.1h-.2z"/><path fill="#5AB6C0" d="M338.8 107.9h-.2v-1h.2v-.2h.2v-.1h.1v-.2h.2v-.1h.1v-.4h.2v-.1h.2v-.2h.1v-.1h.2v-.2h.1v-.2h.2v-.3h.2v-.1h.1v-.2h.2v-.2h.1v-.1h.2v-.2h.1v-.3h.2v-.1h.2v-.2h.1v-.2h.2v-.1h.1v-.2h.2v1.8h-.2v.2h-.1v.1h-.2v.2h-.1v.1h-.2v.2h-.2v.2h-.3v.1h-.1v.2h-.2v.1h-.1v.2h-.2v.2h-.2v.1h-.1v.2h-.3v.1h-.2v.2h-.2v.2h-.1v.1h-.2v.2h-.1v.1h-.2z"/><path fill="#5AB6C0" d="M338.201 107.211l.65.76-223.275 191.123-.65-.76zm29.56-25.476l.653.757-29.558 25.444-.653-.758z"/><path fill="#5AB6C0" d="M368.1 81.6h35v1h-35zm3-4.1c-.3-.1-.4-.4-.5-.7-.1-.3-.1-.7.1-1 .2-.5.5-.9 1-1.3s1-.6 1.5-.6h.3l.8-1.2c.1-.1.2-.2.3-.2.1 0 .1 0 .1.1v.3l-.8 1.2c.3.1.4.4.6.7 0 .1.1.3 0 .5 0 .2-.1.4-.1.5-.2.5-.5.9-1 1.3s-1 .6-1.5.6h-.3l-.8 1.3c-.1.1-.2.2-.3.2 0 0-.1 0-.2-.1v-.3l.8-1.3zm.3-.4l1.8-2.6h-.2c-.4 0-.8.1-1.1.4-.2.1-.3.3-.5.5l-.2.2-.1.2v.1c-.1.3-.1.5-.1.7 0 .2.2.4.4.5zm2.1-2.5l-1.8 2.6h.2c.4 0 .8-.1 1.1-.4.4-.3.6-.6.8-1 .1-.3.1-.5 0-.7.1-.2-.1-.4-.3-.5zm6.2-1.7l-3.6 6.1-.1.1h-.2c-.1 0-.1 0-.1-.1v-.3l3.4-5.8h-2.3l-.2.5c0 .1-.1.1-.1.2-.1 0-.1.1-.2.1 0 0-.1 0-.1-.1v-.2l.3-.7c.1-.2.2-.2.3-.2h2.8c.1 0 .1 0 .2.1-.1.1-.1.1-.1.3zm-1.5 7l-.1.1h-.1c-.1 0-.1 0-.1-.1v-.3l.6-.9c0-.1.1-.1.1-.1h.2c.1 0 .1 0 .1.1v.3l-.7.9zm5.3-2.2c-.1.4-.4.7-.8 1-.4.3-.8.4-1.1.4h-.5c-.4 0-.6-.1-.8-.4-.2-.3-.2-.6-.1-1l.3-.9c.1-.2.2-.5.4-.7s.5-.4.8-.6c-.1-.1-.2-.3-.2-.5s0-.4.1-.6l.2-.5c.1-.4.4-.7.8-1l.6-.3.3-.1h.3c.4 0 .7.1.9.4.1.1.1.3.1.4v.3l-.1.1-.2.5-.3.6c-.1.2-.3.3-.6.5.2.1.3.3.4.5.1.2 0 .5-.1.7l-.4 1.2zm-.5 0l.3-.9c.1-.3.1-.5 0-.7s-.3-.3-.6-.3h-.5c-.3 0-.5.1-.8.3s-.4.4-.5.7l-.3.9c-.1.3-.1.5 0 .7.1.2.3.3.5.3h.5c.3 0 .5-.1.8-.3.3-.2.5-.4.6-.7zm1-3.3l.2-.5c.1-.3.1-.5 0-.7-.1-.2-.3-.3-.6-.3s-.5.1-.8.3c-.2.2-.4.4-.5.7l-.2.5c-.1.3-.1.5 0 .7.1.2.3.3.6.3s.5-.1.8-.3c.2-.2.4-.4.5-.7zm2.9 4.7h-2.8c-.1 0-.1 0-.1-.1v-.2s0-.1.1-.1l4-3.9.2-.2.1-.2c.1-.1.1-.2.2-.3.1-.3.1-.6-.1-.8-.1-.1-.2-.2-.3-.2-.1-.1-.3-.1-.4-.1-.2 0-.4.1-.7.2s-.5.3-.7.6l-.1.1h-.1c-.1 0-.1 0-.1-.1v-.3c.3-.4.6-.7.9-.9.3-.2.6-.3.9-.3.4 0 .8.2 1 .5.3.3.3.7.1 1.1-.1.2-.1.3-.2.4-.1.1-.2.3-.4.5l-3.6 3.5h2.3c.1 0 .1 0 .1.1v.2c0 .1-.1.1-.1.2s-.1.3-.2.3zm5-7h.6s.1 0 .1.1v.1s0 .1-.1.1l-.1.1h-.6l-.2.6c0 .1 0 .1-.1.1h-.2v-.1l.2-.6h-.7v-.1s0-.1.1-.1l.1-.1h.6l.2-.6s0-.1.1-.1l.1-.1h.1v.1l-.2.6zm3.2.8c-.1.3-.3.5-.5.7-.3.2-.5.3-.8.3h-.3c-.2 0-.4-.1-.6-.3s-.1-.4 0-.7l.9-2.5c.1-.3.3-.5.5-.7.3-.2.5-.3.8-.3h.3c.3 0 .5.1.6.3.1.2.1.4 0 .7l-.9 2.5zm-.4 0l.9-2.5c.1-.2.1-.3 0-.4-.1-.1-.2-.2-.4-.2h-.3c-.2 0-.3.1-.5.2s-.3.3-.4.5l-.9 2.5c-.1.2-.1.3 0 .4.1.1.2.2.4.2h.3c.2 0 .3-.1.5-.2.3-.2.4-.4.4-.5zm.5 1.5l-.1.1h-.2v-.1l.4-.6.1-.1h.2v.1l-.4.6zm3.6-1.5c-.1.3-.3.5-.5.7-.3.2-.5.3-.8.3h-.3c-.2 0-.4-.1-.6-.3s-.1-.4 0-.7l.9-2.5c.1-.3.3-.5.5-.7.3-.2.5-.3.8-.3h.3c.3 0 .5.1.6.3.1.2.1.4 0 .7l-.9 2.5zm-.4 0l.9-2.5c.1-.2.1-.3 0-.4-.1-.1-.2-.2-.4-.2h-.3c-.2 0-.3.1-.5.2s-.3.3-.4.5l-.9 2.5c-.1.2-.1.3 0 .4.1.1.2.2.4.2h.3c.2 0 .3-.1.5-.2.3-.2.4-.4.4-.5zm2.8 0c-.1.3-.3.5-.5.7-.3.2-.5.3-.8.3h-.9v-.1s0-.1.1-.1l.1-.1h.8c.2 0 .3-.1.5-.2s.3-.3.3-.5l.2-.6c.1-.2.1-.3 0-.4-.1-.1-.2-.2-.4-.2h-.8c-.1 0-.1-.1-.1-.2l.7-1.9c0-.1.1-.2.2-.2h1.6s.1 0 .1.1v.1s0 .1-.1.1l-.1.1h-1.4l-.6 1.6h.6c.3 0 .5.1.6.3s.1.4 0 .7l-.1.5zM26.708 288.17l4.482 3.521-.618.787-4.482-3.522z"/><path fill="#5AB6C0" d="M30.814 291.6l.196.98-.784.157-.196-.98z"/><path fill="#5AB6C0" d="M29.582 292.114l.986.164-.164.987-.987-.164z"/><path fill="#5AB6C0" d="M26.806 288.322l3.505 4.621-.796.605-3.506-4.621z"/><path fill="#5AB6C0" d="M30.9 292.6h-1v-.2h-.2v-.2h-.2v-.2h-.2v-.2h-.2v-.2h-.2v-.2h-.2v-.2h-.2v-.2h-.2v-.2h-.2v.2h-.2v-.2h-.2v-.2h.3v-.2h-.2v-.2h-.2v-.2h-.4v-.2H27v-1.2h.3v.2h.2v.2h.2v.2h.2v.2h.3v.2h.2v.2h.2v.2h.2v.2h.3v.2h.2v.2h.2v.2h.3v.2h.2v.2h.2v.2h.2v.2h.3v.2h.2v.2h.2v.2h.2v.4zm-3.9-3.1h-.2v-1h.2v1zm-.1-.1h-.2v-1h.2v1zm-.2-.2h-.2v-1h.2v1z"/><path fill="#5AB6C0" d="M30.9 292.6h-1v-.2h-.2v-.2h-.2v-.2h-.2v-.2h-.2v-.2h-.2v-.2h-.2v-.2h-.2v-.2h-.2v-.2h-.2v.2h-.2v-.2h-.2v-.2h.3v-.2h-.2v-.2h-.2v-.2h-.4v-.2H27v-1.2h.3v.2h.2v.2h.2v.2h.2v.2h.3v.2h.2v.2h.2v.2h.2v.2h.3v.2h.2v.2h.2v.2h.3v.2h.2v.2h.2v.2h.2v.2h.3v.2h.2v.2h.2v.2h.2v.4zm-3.9-3.1h-.2v-1h.2v1zm-.1-.1h-.2v-1h.2v1zm-.2-.2h-.2v-1h.2v1z"/><path fill="#5AB6C0" d="M30.1 293.5h-.2v-.2h-.2v-.2h-.2v-.1h-.2v-.3h-.2v-.2h-.2v-.2h-.2v-.3h-.2v-.2h-.2v-.2h-.2v-.3h-.2v-.2h-.2v-.2h.3v-.3h-.2v-.2h-.2v-.2h-.2V289h.2v.2h.2v.2h.2v.2h.2v.2h.2v.2h.2v.2h.2v.2h.2v.2h.2v.2h.2v.2h.2v.2h.2v.2h.2v.2h.2v.2h.2v.2h.2v1.5zm-2.6-3.3h-.2v-1h.2v1zm-.1-.2h-.2v-1h.2v1zm-.2-.1H27v-1h.2v1z"/><path fill="#5AB6C0" d="M30.1 293.5h-.2v-.2h-.2v-.2h-.2v-.1h-.2v-.3h-.2v-.2h-.2v-.2h-.2v-.3h-.2v-.2h-.2v-.2h-.2v-.3h-.2v-.2h-.2v-.2h.3v-.3h-.2v-.2h-.2v-.2h-.2V289h.2v.2h.2v.2h.2v.2h.2v.2h.2v.2h.2v.2h.2v.2h.2v.2h.2v.2h.2v.2h.2v.2h.2v.2h.2v.2h.2v.2h.2v.2h.2v1.5zm-2.6-3.3h-.2v-1h.2v1zm-.1-.2h-.2v-1h.2v1zm-.2-.1H27v-1h.2v1zm109.877 109.742l4.62 3.507-.604.796-4.62-3.506z"/><path fill="#5AB6C0" d="M137.66 399.429l.166.986-.987.165-.165-.986z"/><path fill="#5AB6C0" d="M137.38 398.805l.987.164-.165.986-.986-.164z"/><path fill="#5AB6C0" d="M138.303 398.719l3.505 4.62-.796.605-3.506-4.62z"/><path fill="#5AB6C0" d="M140.8 403.4h-.2v-1h.2v1zm-.2-.1h-.2v-1h.2v1zm-.1-.2h-.2v-1h.2v1zm-.2-.1h-.3v-.2h-.2v-.2h-.2v-.2h-.3v-.2h-.2v-.2h-.4v-.2h-.2v-.2h-.2v-.2h-.3v-.2h-.2v-.2h-.5v-.2h-.2v-.2h-.2v-.2h-.3v-1h1.1v.2h.2v.2h.2v.2h.2v.2h.2v.2h.2v.2h.2v.2h.2v.2h.2v.2h.2v.2h.2v.2h.2v.2h.2v.2h.2v.2h.2v.2h.2v.6z"/><path fill="#5AB6C0" d="M140.8 403.4h-.2v-1h.2v1zm-.2-.1h-.2v-1h.2v1zm-.1-.2h-.2v-1h.2v1zm-.2-.1h-.3v-.2h-.2v-.2h-.2v-.2h-.3v-.2h-.2v-.2h-.4v-.2h-.2v-.2h-.2v-.2h-.3v-.2h-.2v-.2h-.5v-.2h-.2v-.2h-.2v-.2h-.3v-1h1.1v.2h.2v.2h.2v.2h.2v.2h.2v.2h.2v.2h.2v.2h.2v.2h.2v.2h.2v.2h.2v.2h.2v.2h.2v.2h.2v.2h.2v.2h.2v.6z"/><path fill="#5AB6C0" d="M141.4 403.9h-.2v-1h.2v1zm-.2-.2h-.2v-1h.2v1zm-.1-.1h-.2v-1h.2v1zm-.2-.2h-.2v-.2h-.2v-.2h-.4v-.2h-.2v-.2h.1v-.2h-.2v-.2h-.2v-.2h-.4v-.2h-.2v-.4h-.2v-.2h-.2v-.2h-.4v-.2h-.2v-.2h-.2v-.2h-.2v-.2h-.2v-1h.2v-.8h.2v.2h.2v.2h.2v.2h.2v.3h.2v.2h.2v.2h.2v.3h.2v.2h.2v.2h.2v.3h.2v.2h.2v.2h.2v.3h.2v.2h.2v.2h.2v.3h.2v.2h.2v.2h.2v.9z"/><path fill="#5AB6C0" d="M141.4 403.9h-.2v-1h.2v1zm-.2-.2h-.2v-1h.2v1zm-.1-.1h-.2v-1h.2v1zm-.2-.2h-.2v-.2h-.2v-.2h-.4v-.2h-.2v-.2h.1v-.2h-.2v-.2h-.2v-.2h-.4v-.2h-.2v-.4h-.2v-.2h-.2v-.2h-.4v-.2h-.2v-.2h-.2v-.2h-.2v-.2h-.2v-1h.2v-.8h.2v.2h.2v.2h.2v.2h.2v.3h.2v.2h.2v.2h.2v.3h.2v.2h.2v.2h.2v.3h.2v.2h.2v.2h.2v.3h.2v.2h.2v.2h.2v.3h.2v.2h.2v.2h.2v.9z"/><path fill="#5AB6C0" d="M26.743 288.242l114.974 114.974-.707.707L26.036 288.95zM81.9 337.3l.5.5s.1.1 0 .1 0 .1-.1.1h-.2c-.1 0-.1 0-.2-.1l-.5-.5-1.1.5h-.2c-.1 0-.1 0-.2-.1 0 0 0-.1-.1-.1 0 0 0-.1.1-.1l1.1-.5-1-1.1-.1-.1s0-.1.1-.1h.1l5.2-1.4h.2l.1.1.1.1c0 .1 0 .1-.1.1h-.1l-4.8 1.4 1 1 1.1-.5h.2c.1 0 .1 0 .2.1l.1.1c0 .1 0 .1-.1.1l-1.3.4zm-1.1 2.6h-.2s-.1 0-.1-.1c0 0-.1-.1-.1-.2s0-.1.1-.1h.1l1.1-.3h.2c.1 0 .1 0 .1.1l.1.1c0 .1 0 .1-.1.1h-.1l-1.1.4zm6.5.3c.1.2 0 .4-.1.6-.1.2-.3.4-.6.5l-.9.4c-.4.2-.8.2-1.2.2-.5-.1-.8-.2-1.1-.5l-.8-.8c0-.1-.1-.1-.1-.2s.1-.1.1-.1h.2c.1 0 .2 0 .2.1l.8.8c.2.2.4.3.7.3.3 0 .6 0 .8-.1l.9-.4c.2-.1.4-.3.4-.5s0-.4-.2-.6l-.2-.2c-.1-.1-.1-.1-.1-.2s.1-.1.1-.1h.2c.1 0 .2 0 .2.1.2.2.4.3.7.3.3 0 .6 0 .8-.1l.5-.2c.2-.1.4-.3.4-.5s0-.4-.2-.6l-.7-.7s-.1-.1-.1-.2l.1-.1h.2c.1 0 .2 0 .2.1l.7.7c.3.3.4.6.3.9-.1.3-.3.6-.7.7l-.4.2-.1.1h-.5c0 .2-.2.2-.5.1zm5.3.5l.5.5v.1s0 .1-.1.1h-.1c-.1 0-.1 0-.1-.1l-.5-.5-.6.3h-.1s-.1 0-.1-.1v-.1s0-.1.1-.1l.6-.3-.5-.5v-.1s0-.1.1-.1h.1c.1 0 .1 0 .1.1l.5.5.6-.3h.1c.1 0 .1 0 .1.1v.1s0 .1-.1.1l-.6.3zm1.7 2.8c-.3.1-.5.2-.8.1-.3 0-.6-.2-.8-.4l-.2-.2c-.2-.2-.2-.4-.2-.6 0-.2.2-.4.4-.5l2.5-1.1c.2-.1.5-.1.8-.1.3 0 .6.2.8.4l.2.2c.2.2.3.4.2.6 0 .2-.2.4-.5.5l-2.4 1.1zm-.2-.2l2.5-1.1c.2-.1.3-.2.3-.3s0-.3-.1-.4l-.2-.2c-.1-.1-.3-.2-.5-.2s-.4 0-.6.1l-2.5 1.1c-.2.1-.3.2-.3.3 0 .1 0 .3.1.4l.2.2c.1.1.3.2.5.2s.4 0 .6-.1zm-.7 1.4h-.2v-.1s0-.1.1-.1h.1l.7-.2h.1s.1 0 .1.1v.1s0 .1-.1.1h-.1l-.7.1zm2.5 1.8l-1.3-1.3v-.1s0-.1.1-.1h4.2c.1 0 .2 0 .3-.1.2-.1.3-.2.3-.4v-.3c0-.1-.1-.2-.2-.3-.1-.1-.2-.2-.4-.2s-.4-.1-.6 0h-.2v-.1s0-.1.1-.1h.1c.3-.1.6 0 .9 0l.6.3c.2.2.3.5.3.7 0 .3-.2.5-.5.6-.1 0-.2.1-.3.1h-3.8l1.1 1.1v.1s0 .1-.1.1h-.6zm43.627-165.547l.89.455-18.108 35.442-.89-.455z"/><path fill="#5AB6C0" d="M140 180.7h15.9v1H140zM21.36 227.576l.864.505-3.843 6.558-.863-.506z"/><path fill="#5AB6C0" d="M14.565 227.585l3.84 6.559-.863.505-3.84-6.559z"/><path fill="#5AB6C0" d="M17.5 227.8h1v15.1h-1zm-7 15.1h1v13.2h-1z"/><path fill="#5AB6C0" d="M11 242.4h14v1H11z"/><path fill="#5AB6C0" d="M24.5 242.9h1v13.2h-1z"/><path fill="#5AB6C0" d="M11 255.6h14v1H11zm7.4-6.6l2.4-2.6c.1-.1.2-.1.2-.1.1 0 .1 0 .1.1v.2s0 .1-.1.1l-2.4 2.7.3 3.2v.1c0 .1-.1.1-.1.2-.1 0-.1.1-.2.1h-.1v-.1l-.3-3.1-1.1 3c0 .1-.1.1-.1.2-.1 0-.1.1-.2.1 0 0-.1 0-.1-.1v-.2l1.1-3-2.5 3.1-.1.1h-.1c-.1 0-.1 0-.1-.1v-.2l.1-.1 2.6-3.2-.5-2.7v-.1l.1-.1c.1-.1.1-.1.2-.1s.1 0 .1.1l.5 2.6.9-2.5c0-.1.1-.1.1-.2s.1-.1.2-.1.1 0 .1.1v.2l-1 2.4z"/></svg>