<svg xmlns="http://www.w3.org/2000/svg" viewBox="0 0 82.2 82.2"><path fill-rule="evenodd" clip-rule="evenodd" fill="#FFF" d="M74 32.9c-4.5 0-8.2 3.7-8.2 8.2 0 4.5 3.7 8.2 8.2 8.2 4.5 0 8.2-3.7 8.2-8.2 0-4.5-3.6-8.2-8.2-8.2zm0 13.7c-3 0-5.5-2.5-5.5-5.5s2.5-5.5 5.5-5.5 5.5 2.5 5.5 5.5c0 3.1-2.5 5.5-5.5 5.5zM8.2 32.9c-4.5 0-8.2 3.7-8.2 8.2 0 4.5 3.7 8.2 8.2 8.2 4.5 0 8.2-3.7 8.2-8.2 0-4.5-3.6-8.2-8.2-8.2zm0 13.7c-3 0-5.5-2.5-5.5-5.5s2.5-5.5 5.5-5.5 5.5 2.5 5.5 5.5c0 3.1-2.4 5.5-5.5 5.5zM41.1 0c-4.5 0-8.2 3.7-8.2 8.2s3.7 8.2 8.2 8.2c4.5 0 8.2-3.7 8.2-8.2S45.7 0 41.1 0zm0 13.7c-3 0-5.5-2.5-5.5-5.5s2.5-5.5 5.5-5.5 5.5 2.5 5.5 5.5c0 3.1-2.4 5.5-5.5 5.5zm0 52.1c-4.5 0-8.2 3.7-8.2 8.2s3.7 8.2 8.2 8.2c4.5 0 8.2-3.7 8.2-8.2s-3.6-8.2-8.2-8.2zm0 13.7c-3 0-5.5-2.5-5.5-5.5s2.5-5.5 5.5-5.5 5.5 2.5 5.5 5.5-2.4 5.5-5.5 5.5z"/><path fill-rule="evenodd" clip-rule="evenodd" fill="#FFF" d="M27.9 19.5l-8.4 8.4c-.5.5-.5 1.3 0 1.9.5.5 1.3.5 1.9 0l8.4-8.4c.5-.5.5-1.3 0-1.9-.5-.5-1.4-.5-1.9 0zm32.9 10.3c.5.5 1.3.5 1.9 0 .5-.5.5-1.3 0-1.9l-8.3-8.3c-.5-.5-1.3-.5-1.9 0-.5.5-.5 1.3 0 1.9l8.3 8.3zm0 22.7l-8.4 8.3c-.5.5-.5 1.3 0 1.9.5.5 1.3.5 1.9 0l8.4-8.3c.5-.5.5-1.3 0-1.9-.6-.5-1.4-.5-1.9 0zm-39.4 0c-.5-.5-1.3-.5-1.8 0s-.5 1.3 0 1.8l8.3 8.3c.5.5 1.3.5 1.8 0s.5-1.3 0-1.8l-8.3-8.3z" opacity=".5"/></svg>