<?xml version="1.0" standalone="no"?>
<!DOCTYPE svg PUBLIC "-//W3C//DTD SVG 20010904//EN"
 "http://www.w3.org/TR/2001/REC-SVG-20010904/DTD/svg10.dtd">
<svg version="1.0" xmlns="http://www.w3.org/2000/svg"
 width="1024.000000pt" height="1024.000000pt" viewBox="0 0 1024.000000 1024.000000"
 preserveAspectRatio="xMidYMid meet">
<metadata>
Created by potrace 1.11, written by Peter Selinger 2001-2013
</metadata>
<g transform="translate(0.000000,1024.000000) scale(0.100000,-0.100000)"
fill="#000000" stroke="none">
<path d="M5067 10169 c-26 -16 -51 -29 -57 -29 -5 0 -10 -4 -10 -10 0 -5 -5
-10 -11 -10 -5 0 -51 -24 -102 -54 -51 -30 -110 -64 -132 -76 -22 -12 -112
-64 -200 -115 -88 -50 -180 -103 -205 -117 -25 -14 -106 -60 -180 -103 -74
-43 -286 -164 -470 -270 -184 -106 -427 -245 -540 -310 -113 -65 -218 -126
-235 -135 -35 -20 -133 -77 -155 -90 -8 -5 -137 -79 -286 -164 -149 -85 -362
-207 -475 -272 -112 -64 -213 -122 -224 -128 -53 -30 -242 -138 -255 -146 -43
-27 -312 -180 -316 -180 -2 0 -23 -11 -45 -26 -22 -14 -55 -33 -72 -43 -213
-120 -415 -237 -426 -247 -12 -11 -14 -380 -13 -2431 0 -1330 1 -2428 1 -2440
1 -16 11 -27 33 -38 18 -8 53 -26 78 -41 25 -15 59 -35 75 -44 143 -81 598
-343 625 -359 19 -11 42 -24 50 -28 8 -4 91 -51 183 -105 93 -54 170 -98 172
-98 1 0 63 -35 136 -78 74 -43 141 -81 149 -85 8 -4 29 -16 46 -26 31 -19 332
-193 414 -239 58 -32 28 -15 646 -370 291 -167 536 -308 544 -313 13 -8 193
-110 305 -174 22 -12 56 -32 75 -44 19 -11 42 -24 50 -28 8 -4 38 -20 65 -36
28 -16 235 -135 460 -264 226 -130 435 -250 465 -268 30 -17 76 -43 101 -58
l46 -26 118 70 c64 38 119 69 120 69 2 0 40 23 85 50 45 28 83 50 85 50 2 0
36 20 77 43 40 24 147 87 238 139 91 52 302 175 470 273 168 98 321 186 340
197 19 11 94 54 165 96 72 41 144 83 160 92 17 10 71 41 120 70 50 29 133 78
185 108 52 30 109 63 125 73 17 10 37 22 45 26 8 4 49 27 90 51 41 25 89 53
105 62 17 10 71 41 120 70 50 29 110 64 135 78 25 14 56 33 70 42 14 9 30 19
35 21 8 3 145 82 233 134 9 6 52 30 95 55 151 86 167 95 279 161 62 36 244
141 403 234 160 92 292 169 294 171 2 2 4 4992 2 5105 -1 23 -21 38 -168 124
-93 54 -188 109 -213 123 -25 13 -49 28 -55 32 -5 4 -30 19 -55 32 -25 14
-171 99 -325 188 -154 89 -296 171 -315 182 -19 11 -60 35 -91 54 -31 19 -62
34 -68 34 -6 0 -11 5 -11 10 0 6 -4 10 -9 10 -4 0 -68 35 -142 78 -74 43 -154
90 -179 104 -25 14 -101 58 -170 98 -68 40 -138 81 -155 90 -16 9 -139 81
-273 158 -134 78 -248 142 -253 142 -5 0 -9 5 -9 10 0 6 -4 10 -9 10 -9 0 -95
49 -462 263 -120 69 -234 136 -254 147 -20 11 -247 143 -504 292 -256 149
-486 282 -511 296 -40 22 -109 62 -195 113 -30 18 -31 18 -78 -12z m168 -1262
c33 -18 128 -73 210 -121 145 -85 190 -111 265 -153 19 -11 161 -94 315 -183
154 -90 297 -173 317 -184 20 -12 87 -50 149 -86 62 -36 130 -76 153 -89 23
-13 196 -113 386 -224 190 -110 370 -214 400 -230 30 -16 62 -36 71 -43 8 -8
19 -14 22 -14 4 0 51 -26 104 -58 54 -32 105 -61 113 -65 8 -4 29 -15 45 -26
17 -10 102 -60 190 -111 88 -51 197 -115 243 -141 46 -27 85 -49 87 -49 1 0
42 -24 91 -53 49 -29 96 -56 105 -59 14 -6 16 -186 15 -1964 l-1 -1959 -150
-87 c-82 -48 -172 -99 -200 -114 -27 -14 -57 -32 -65 -39 -8 -7 -20 -14 -26
-16 -8 -3 -491 -284 -584 -339 -8 -5 -69 -40 -135 -78 -66 -38 -139 -81 -162
-95 -24 -15 -44 -27 -46 -27 -3 0 -125 -70 -273 -156 -148 -86 -379 -221 -514
-299 -135 -78 -353 -205 -485 -282 -132 -77 -269 -156 -305 -177 -36 -20 -72
-41 -80 -46 -8 -5 -38 -23 -67 -39 l-52 -30 -56 35 c-32 19 -59 34 -60 34 -2
0 -101 57 -222 127 -120 69 -234 135 -253 145 -48 27 -142 81 -161 93 -9 6
-40 23 -70 40 -30 16 -62 34 -71 40 -16 9 -220 126 -263 151 -11 6 -110 63
-220 126 -176 101 -909 522 -990 568 -268 152 -862 494 -870 500 -5 4 -36 21
-67 38 -59 32 -339 193 -348 200 -7 5 -7 3652 0 3661 3 4 79 49 170 100 91 52
179 101 195 111 17 9 77 44 135 77 58 33 224 128 369 211 145 84 266 152 269
152 3 0 13 6 21 14 9 7 41 27 71 43 30 16 177 100 325 185 149 86 293 168 320
183 28 15 55 31 60 35 6 5 37 23 70 40 33 18 65 37 72 42 7 5 27 17 45 27 27
14 453 258 508 291 8 5 121 70 250 144 129 73 251 143 270 155 19 11 46 26 60
33 14 7 48 26 75 43 109 66 107 65 140 45 17 -10 57 -34 90 -53z"/>
</g>
</svg>
