<?xml version="1.0" encoding="utf-8"?>
<!-- Generator: Adobe Illustrator 18.0.0, SVG Export Plug-In . SVG Version: 6.00 Build 0)  -->
<!DOCTYPE svg PUBLIC "-//W3C//DTD SVG 1.1//EN" "http://www.w3.org/Graphics/SVG/1.1/DTD/svg11.dtd">
<svg version="1.1" id="Слой_1" xmlns="http://www.w3.org/2000/svg" xmlns:xlink="http://www.w3.org/1999/xlink" x="0px" y="0px"
	 viewBox="0 0 82.5 82.5" enable-background="new 0 0 82.5 82.5" xml:space="preserve">
<g>
	<g id="black_7_">
		<g>
			<path fill-rule="evenodd" clip-rule="evenodd" fill="#FFFFFF" d="M81.1,8.2c-0.8,0-1.4,0.6-1.4,1.4v53.6c0,1.5-1.2,2.7-2.7,2.7
				H41.3c0,0,0,0,0,0c0,0,0,0,0,0H5.5c-1.5,0-2.7-1.2-2.7-2.7V13.7C2.7,12.2,4,11,5.5,11h67.4c0.8,0,1.4-0.6,1.4-1.4
				c0-0.8-0.6-1.4-1.4-1.4H5.5c-3,0-5.5,2.5-5.5,5.5v49.5c0,3,2.5,5.5,5.5,5.5h32.4L26.5,80.2c-0.5,0.5-0.5,1.4,0,1.9
				c0.5,0.5,1.4,0.5,1.9,0l12.8-12.8L54,82.1c0.5,0.5,1.4,0.5,1.9,0c0.5-0.5,0.5-1.4,0-1.9L44.6,68.7H77c3,0,5.5-2.5,5.5-5.5V9.6
				C82.5,8.9,81.9,8.2,81.1,8.2z M72.9,57.7H9.6c-0.8,0-1.4,0.6-1.4,1.4c0,0.8,0.6,1.4,1.4,1.4h63.2c0.8,0,1.4-0.6,1.4-1.4
				C74.2,58.4,73.6,57.7,72.9,57.7z"/>
		</g>
	</g>
	<g id="blue_7_" opacity="0.5">
		<g>
			<path fill-rule="evenodd" clip-rule="evenodd" fill="#FFFFFF" d="M45.4,0h-8.2c-0.8,0-1.4,0.6-1.4,1.4c0,0.8,0.6,1.4,1.4,1.4h8.2
				c0.8,0,1.4-0.6,1.4-1.4C46.7,0.6,46.1,0,45.4,0z M33,27.5c-0.8,0-1.4,0.6-1.4,1.4v22c0,0.8,0.6,1.4,1.4,1.4
				c0.8,0,1.4-0.6,1.4-1.4v-22C34.4,28.1,33.8,27.5,33,27.5z M41.2,33c-0.8,0-1.4,0.6-1.4,1.4v16.5c0,0.8,0.6,1.4,1.4,1.4
				s1.4-0.6,1.4-1.4V34.4C42.6,33.6,42,33,41.2,33z M49.5,38.5c-0.8,0-1.4,0.6-1.4,1.4v11c0,0.8,0.6,1.4,1.4,1.4s1.4-0.6,1.4-1.4
				v-11C50.9,39.1,50.3,38.5,49.5,38.5z"/>
		</g>
	</g>
</g>
</svg>
