<?xml version="1.0" encoding="utf-8"?>
<!-- Generator: Adobe Illustrator 18.0.0, SVG Export Plug-In . SVG Version: 6.00 Build 0)  -->
<!DOCTYPE svg PUBLIC "-//W3C//DTD SVG 1.1//EN" "http://www.w3.org/Graphics/SVG/1.1/DTD/svg11.dtd">
<svg version="1.1" id="Слой_1" xmlns="http://www.w3.org/2000/svg" xmlns:xlink="http://www.w3.org/1999/xlink" x="0px" y="0px"
	 viewBox="0 0 82.3 82.2" enable-background="new 0 0 82.3 82.2" xml:space="preserve">
<g>
	<g id="blue_14_" opacity="0.5">
		<g>
			<path fill-rule="evenodd" clip-rule="evenodd" fill="#FFFFFF" d="M41.1,19.2c3,0,5.5-2.5,5.5-5.5c0-3-2.5-5.5-5.5-5.5
				c-3,0-5.5,2.5-5.5,5.5C35.7,16.7,38.1,19.2,41.1,19.2z M41.1,11c1.5,0,2.7,1.2,2.7,2.7c0,1.5-1.2,2.7-2.7,2.7s-2.7-1.2-2.7-2.7
				C38.4,12.2,39.6,11,41.1,11z M60.3,57.6H45.4c0,0,0,0,0,0h-0.1c-0.1,0-0.2,0-0.3,0c-0.1,0-0.1,0-0.2,0.1c-0.1,0-0.1,0.1-0.2,0.1
				c-0.1,0-0.2,0.1-0.2,0.2c-0.1,0.1-0.1,0.1-0.2,0.2c0,0-0.1,0.1-0.1,0.1L35.8,72c-0.4,0.6-0.2,1.4,0.5,1.8s1.5,0.1,1.9-0.5
				L46,60.3h14.3c0.8,0,1.4-0.6,1.4-1.4C61.7,58.2,61.1,57.6,60.3,57.6z"/>
		</g>
	</g>
	<g id="black_14_">
		<g>
			<path fill-rule="evenodd" clip-rule="evenodd" fill="#FFFFFF" d="M41.1,43.9L53,20.6c1.2-2,1.9-4.4,1.9-6.9
				C54.8,6.1,48.7,0,41.1,0S27.4,6.1,27.4,13.7c0,2.5,0.7,4.9,1.9,6.9L41.1,43.9z M41.1,2.7c6.1,0,11,4.9,11,11c0,1.8-0.4,3.5-1.2,5
				h0l-9.8,19.7l-9.8-19.7h0c-0.8-1.5-1.2-3.2-1.2-5C30.2,7.7,35.1,2.7,41.1,2.7z M82.2,40.8c-0.2-0.7-0.9-1.2-1.7-1l-10.8,2.8
				c-2.4-7.3-7.5-13.4-14.2-17L54.3,28c6,3.3,10.6,8.7,12.8,15.2L14.2,57c-0.3-1.6-0.4-3.2-0.4-4.9c0-10.4,5.8-19.4,14.2-24
				l-1.3-2.4C17.3,30.7,11,40.7,11,52.1c0,1.9,0.2,3.8,0.5,5.6L1,60.4c-0.7,0.2-1.2,0.9-1,1.7c0.2,0.7,0.9,1.2,1.7,1l10.4-2.7
				c3.6,12.7,15.2,21.9,29,21.9c16.7,0,30.2-13.5,30.2-30.2c0-2.4-0.3-4.7-0.8-6.9l10.8-2.8C82,42.2,82.4,41.5,82.2,40.8z
				 M41.1,79.5c-12.5,0-23.1-8.4-26.4-19.9l53.1-13.7c0.5,2,0.7,4.1,0.7,6.2C68.6,67.2,56.3,79.5,41.1,79.5z"/>
		</g>
	</g>
</g>
</svg>
