<?xml version="1.0" encoding="utf-8"?>
<!-- Generator: Adobe Illustrator 18.0.0, SVG Export Plug-In . SVG Version: 6.00 Build 0)  -->
<!DOCTYPE svg PUBLIC "-//W3C//DTD SVG 1.1//EN" "http://www.w3.org/Graphics/SVG/1.1/DTD/svg11.dtd">
<svg version="1.1" id="Слой_1" xmlns="http://www.w3.org/2000/svg" xmlns:xlink="http://www.w3.org/1999/xlink" x="0px" y="0px"
	 viewBox="246.5 411.3 102.3 19.3" enable-background="new 246.5 411.3 102.3 19.3" xml:space="preserve">
<g>
	<g>
		<path fill="#40465A" d="M248.5,429.5h-2v-16.9h2V429.5z M259.9,429.5h-2v-8.1h-8.2v-1.8h8.2v-7h2V429.5z"/>
		<path fill="#40465A" d="M300.1,417.6c0,2.8-2,4.9-5.4,4.9h-2.7v-1.7h2.6c2.2,0,3.4-1.3,3.4-3.1s-1.1-3.2-3.4-3.2h-3.9v15.1h-2
			v-16.9h5.9C298.1,412.7,300.1,414.7,300.1,417.6z"/>
		<path fill="#40465A" d="M302.9,412.7h13.9v1.8h-13.9V412.7z M308.8,415.7h2v13.8h-2V415.7z"/>
		<path fill="#40465A" d="M320.9,412.7h10.8v1.8h-8.8v13.3h9.1v1.8h-11.1V412.7L320.9,412.7z M324.1,419.7h5.5v1.7h-5.5V419.7z"/>
		<path fill="#40465A" d="M341.2,423.7l-3.9,5.8H335l5.1-7.5L341.2,423.7z M348.8,429.5h-2.3l-11-16.9h2.3L348.8,429.5z
			 M343.8,419.8l-1.1-1.7l3.4-5.3h2.3L343.8,419.8z"/>
	</g>
	<path fill="#40465A" d="M274.9,430.6l-9-5.2v-9.3l8.5-4.9l8.5,4.9v9.8L274.9,430.6z M267.9,424.3l7,4l6-3.5v-7.4l-6.5-3.8l-6.5,3.7
		V424.3L267.9,424.3z"/>
</g>
</svg>
