<?xml version="1.0" encoding="utf-8"?>
<!-- Generator: Adobe Illustrator 18.0.0, SVG Export Plug-In . SVG Version: 6.00 Build 0)  -->
<!DOCTYPE svg PUBLIC "-//W3C//DTD SVG 1.1//EN" "http://www.w3.org/Graphics/SVG/1.1/DTD/svg11.dtd">
<svg version="1.1" id="Слой_1" xmlns="http://www.w3.org/2000/svg" xmlns:xlink="http://www.w3.org/1999/xlink" x="0px" y="0px"
	 viewBox="0 0 190.3 36" enable-background="new 0 0 190.3 36" xml:space="preserve">
<g>
	<g>
		<path fill="#40465A" d="M3.7,34H0V2.6h3.7V34z M25,34h-3.7V18.9H6v-3.3h15.3V2.6H25V34z"/>
		<path fill="#40465A" d="M99.8,11.7c0,5.3-3.8,9.1-10,9.1h-5v-3.2h4.9c4.1,0,6.3-2.5,6.3-5.8c0-3.3-2.1-5.9-6.3-5.9h-7.3V34h-3.7
			V2.6h11C96,2.6,99.8,6.4,99.8,11.7z"/>
		<path fill="#40465A" d="M105,2.6h25.8V6H105V2.6z M116,8.3h3.7V34H116V8.3z"/>
		<path fill="#40465A" d="M138.4,2.6h20.1V6h-16.4v24.7h17V34h-20.7V2.6z M144.4,15.6h10.3v3.2h-10.3V15.6z"/>
		<path fill="#40465A" d="M176.2,23.2L169,34h-4.3l9.4-14L176.2,23.2z M190.3,34H186L165.5,2.6h4.3L190.3,34z M181.1,15.8l-2.1-3.2
			l6.3-9.9h4.3L181.1,15.8z"/>
	</g>
	<path fill="#40465A" d="M52.8,36l-16.7-9.6V9.1L51.9,0l15.8,9.1v18.2L52.8,36z M39.8,24.2l13,7.4l11.2-6.5V11.3l-12.1-7l-12.1,6.9
		V24.2z"/>
</g>
</svg>
