<?xml version="1.0" encoding="utf-8"?>
<!-- Generator: Adobe Illustrator 18.0.0, SVG Export Plug-In . SVG Version: 6.00 Build 0)  -->
<!DOCTYPE svg PUBLIC "-//W3C//DTD SVG 1.1//EN" "http://www.w3.org/Graphics/SVG/1.1/DTD/svg11.dtd">
<svg version="1.1" id="Слой_1" xmlns="http://www.w3.org/2000/svg" xmlns:xlink="http://www.w3.org/1999/xlink" x="0px" y="0px"
	 viewBox="0 0 595.3 841.9" enable-background="new 0 0 595.3 841.9" xml:space="preserve">
<g id="Слой_2">
</g>
<g id="Слой_1_1_">
	<g>
		<g>
			<path fill="#3C445C" d="M11.6,471H0v-98.2h11.6V471z M78.2,471H66.6v-47.2H18.8v-10.3h47.9v-40.7h11.6V471z"/>
			<path fill="#3C445C" d="M312.2,401.2c0,16.6-11.9,28.5-31.3,28.5h-15.6v-10h15.3c12.8,0,19.7-7.8,19.7-18.1
				c0-10.3-6.6-18.5-19.7-18.5h-22.8V471h-11.6v-98.2h34.4C300.3,372.8,312.2,384.7,312.2,401.2z"/>
			<path fill="#3C445C" d="M328.5,372.8h80.7v10.6h-80.7V372.8z M362.9,390.6h11.6V471h-11.6V390.6z"/>
			<path fill="#3C445C" d="M432.9,372.8h62.9v10.6h-51.3v77.3h53.2V471h-64.8L432.9,372.8L432.9,372.8z M451.7,413.4h32.2v10h-32.2
				V413.4z"/>
			<path fill="#3C445C" d="M551.2,437.2L528.7,471h-13.5l29.4-43.8L551.2,437.2z M595.3,471h-13.5l-64.1-98.2h13.5L595.3,471z
				 M566.5,414.1l-6.6-10l19.7-31h13.5L566.5,414.1z"/>
		</g>
		<path fill="#3C445C" d="M165.2,477.3l-52.2-30v-54.1l49.4-28.5l49.4,28.5V450L165.2,477.3z M124.5,440.3l40.7,23.1l35-20.3V400
			l-37.9-21.9l-37.9,21.6L124.5,440.3L124.5,440.3z"/>
	</g>
</g>
</svg>
