<?xml version="1.0" encoding="utf-8"?>
<!-- Generator: Adobe Illustrator 18.0.0, SVG Export Plug-In . SVG Version: 6.00 Build 0)  -->
<!DOCTYPE svg PUBLIC "-//W3C//DTD SVG 1.1//EN" "http://www.w3.org/Graphics/SVG/1.1/DTD/svg11.dtd">
<svg version="1.1" id="Слой_1" xmlns="http://www.w3.org/2000/svg" xmlns:xlink="http://www.w3.org/1999/xlink" x="0px" y="0px"
	 viewBox="0 0 102.4 19.3" enable-background="new 0 0 102.4 19.3" xml:space="preserve">
<g>
	<g>
		<path fill="#FFFFFF" d="M2,18.3H0V1.4h2V18.3z M13.4,18.3h-2v-8.1H3.2V8.4h8.2v-7h2V18.3z"/>
		<path fill="#FFFFFF" d="M53.7,6.3c0,2.9-2.1,4.9-5.4,4.9h-2.7V9.5h2.7c2.2,0,3.4-1.3,3.4-3.1c0-1.8-1.2-3.2-3.4-3.2h-3.9v15.1h-2
			V1.4h5.9C51.6,1.4,53.7,3.5,53.7,6.3z"/>
		<path fill="#FFFFFF" d="M56.5,1.4h13.9v1.8H56.5V1.4z M62.4,4.5h2v13.8h-2V4.5z"/>
		<path fill="#FFFFFF" d="M74.5,1.4h10.8v1.8h-8.8v13.3h9.1v1.8H74.5V1.4z M77.7,8.4h5.5v1.7h-5.5V8.4z"/>
		<path fill="#FFFFFF" d="M94.8,12.5L91,18.3h-2.3l5.1-7.5L94.8,12.5z M102.4,18.3h-2.3l-11-16.9h2.3L102.4,18.3z M97.5,8.5
			l-1.1-1.7l3.4-5.3h2.3L97.5,8.5z"/>
	</g>
	<path fill="#FFFFFF" d="M28.4,19.3l-9-5.2V4.9L27.9,0l8.5,4.9v9.8L28.4,19.3z M21.4,13l7,4l6-3.5V6.1l-6.5-3.8L21.4,6V13z"/>
</g>
</svg>
