<?xml version="1.0" encoding="utf-8"?>
<!-- Generator: Adobe Illustrator 18.0.0, SVG Export Plug-In . SVG Version: 6.00 Build 0)  -->
<!DOCTYPE svg PUBLIC "-//W3C//DTD SVG 1.1//EN" "http://www.w3.org/Graphics/SVG/1.1/DTD/svg11.dtd">
<svg version="1.1" id="Слой_1" xmlns="http://www.w3.org/2000/svg" xmlns:xlink="http://www.w3.org/1999/xlink" x="0px" y="0px"
	 viewBox="0 0 40.1 40.1" enable-background="new 0 0 40.1 40.1" xml:space="preserve">
<g>
	<path fill="#FFFFFF" d="M26.1,14.9c-0.3-0.3-0.7-0.3-1,0l-4.7,4.7l-4.7-4.7c-0.3-0.3-0.7-0.3-1,0c-0.3,0.3-0.3,0.7,0,1l4.7,4.7
		l-4.7,4.7c-0.3,0.3-0.3,0.7,0,1c0.1,0.1,0.3,0.2,0.5,0.2c0.2,0,0.4-0.1,0.5-0.2l4.7-4.7l4.7,4.7c0.1,0.1,0.3,0.2,0.5,0.2
		c0.2,0,0.4-0.1,0.5-0.2c0.3-0.3,0.3-0.7,0-1l-4.7-4.7l4.7-4.7C26.4,15.6,26.4,15.1,26.1,14.9z"/>
	<path fill="#FFFFFF" d="M20.1,0L20.1,0C20.1,0,20.1,0,20.1,0C12.6,0,6,4.1,2.6,10.2c-0.1,0.1-0.1,0.2-0.2,0.3
		c-0.1,0.1-0.1,0.3-0.2,0.4C0.8,13.7,0,16.8,0,20.1c0,0,0,0,0,0c0,0,0,0,0,0c0,11.1,9,20.1,20.1,20.1c0,0,0,0,0,0h0
		c7.5,0,14-4.1,17.5-10.2c0.1-0.1,0.1-0.2,0.2-0.3c0.1-0.1,0.1-0.3,0.2-0.4c1.4-2.7,2.2-5.9,2.2-9.1c0,0,0,0,0,0c0,0,0,0,0,0
		C40.1,9,31.1,0,20.1,0z M36,29.8c-3.3,5.3-9.2,8.9-15.9,8.9c-10.3,0-18.7-8.4-18.7-18.7c0-3.6,1-6.9,2.8-9.7
		C7.5,5,13.3,1.4,20.1,1.4c10.3,0,18.7,8.4,18.7,18.7C38.7,23.6,37.7,27,36,29.8z"/>
</g>
</svg>
