<?xml version="1.0" encoding="utf-8"?>
<!-- Generator: Adobe Illustrator 18.0.0, SVG Export Plug-In . SVG Version: 6.00 Build 0)  -->
<!DOCTYPE svg PUBLIC "-//W3C//DTD SVG 1.1//EN" "http://www.w3.org/Graphics/SVG/1.1/DTD/svg11.dtd">
<svg version="1.1" id="Слой_1" xmlns="http://www.w3.org/2000/svg" xmlns:xlink="http://www.w3.org/1999/xlink" x="0px" y="0px"
	 viewBox="0 0 12 12" enable-background="new 0 0 12 12" xml:space="preserve">
<path fill="#FFFFFF" d="M11.8,0.2c-0.3-0.3-0.7-0.3-1,0L6,5L1.2,0.2c-0.3-0.3-0.7-0.3-1,0c-0.3,0.3-0.3,0.7,0,1L5,6l-4.8,4.8
	c-0.3,0.3-0.3,0.7,0,1C0.3,11.9,0.5,12,0.7,12c0.2,0,0.4-0.1,0.5-0.2L6,7l4.8,4.8c0.1,0.1,0.3,0.2,0.5,0.2c0.2,0,0.4-0.1,0.5-0.2
	c0.3-0.3,0.3-0.7,0-1L7,6l4.8-4.8C12.1,0.9,12.1,0.5,11.8,0.2z"/>
</svg>
