<?xml version="1.0" encoding="utf-8"?>
<!-- Generator: Adobe Illustrator 18.0.0, SVG Export Plug-In . SVG Version: 6.00 Build 0)  -->
<!DOCTYPE svg PUBLIC "-//W3C//DTD SVG 1.1//EN" "http://www.w3.org/Graphics/SVG/1.1/DTD/svg11.dtd">
<svg version="1.1" id="Слой_1" xmlns="http://www.w3.org/2000/svg" xmlns:xlink="http://www.w3.org/1999/xlink" x="0px" y="0px"
	 viewBox="0 0 40.1 40.1" enable-background="new 0 0 40.1 40.1" xml:space="preserve">
<g>
	<path fill="#FFFFFF" d="M20.1,0C9,0,0,9,0,20.1c0,11.1,9,20.1,20.1,20.1c11.1,0,20.1-9,20.1-20.1C40.1,9,31.1,0,20.1,0z M20.1,38.7
		c-10.3,0-18.7-8.4-18.7-18.7C1.4,9.8,9.8,1.4,20.1,1.4c10.3,0,18.7,8.4,18.7,18.7C38.7,30.4,30.4,38.7,20.1,38.7z"/>
	<path fill="#FFFFFF" d="M26.1,14.3h-12c-0.4,0-0.7,0.3-0.7,0.7c0,0.4,0.3,0.7,0.7,0.7h12c0.4,0,0.7-0.3,0.7-0.7
		C26.8,14.6,26.5,14.3,26.1,14.3z"/>
	<path fill="#FFFFFF" d="M26.1,19.4h-12c-0.4,0-0.7,0.3-0.7,0.7c0,0.4,0.3,0.7,0.7,0.7h12c0.4,0,0.7-0.3,0.7-0.7
		C26.8,19.7,26.5,19.4,26.1,19.4z"/>
	<path fill="#FFFFFF" d="M26.1,24.4h-12c-0.4,0-0.7,0.3-0.7,0.7c0,0.4,0.3,0.7,0.7,0.7h12c0.4,0,0.7-0.3,0.7-0.7
		C26.8,24.7,26.5,24.4,26.1,24.4z"/>
</g>
</svg>
