<?xml version="1.0" encoding="utf-8"?>
<!-- Generator: Adobe Illustrator 18.0.0, SVG Export Plug-In . SVG Version: 6.00 Build 0)  -->
<!DOCTYPE svg PUBLIC "-//W3C//DTD SVG 1.1//EN" "http://www.w3.org/Graphics/SVG/1.1/DTD/svg11.dtd">
<svg version="1.1" id="Слой_1" xmlns="http://www.w3.org/2000/svg" xmlns:xlink="http://www.w3.org/1999/xlink" x="0px" y="0px"
	 viewBox="0 0 82.2 82.2" enable-background="new 0 0 82.2 82.2" xml:space="preserve">
<g>
	<g id="black_10_">
		<g>
			<path fill-rule="evenodd" clip-rule="evenodd" fill="#FFFFFF" d="M76.8,16.4H54.8v-11c0-3-2.5-5.5-5.5-5.5H32.9
				c-3,0-5.5,2.5-5.5,5.5v4.1c0,0.8,0.6,1.4,1.4,1.4c0.8,0,1.4-0.6,1.4-1.4V5.5c0-1.5,1.2-2.7,2.7-2.7h16.4c1.5,0,2.7,1.2,2.7,2.7
				v11H5.5c-3,0-5.5,2.5-5.5,5.5v54.8c0,3,2.5,5.5,5.5,5.5h67.2c0.8,0,1.4-0.6,1.4-1.4c0-0.8-0.6-1.4-1.4-1.4H5.5
				c-1.5,0-2.7-1.2-2.7-2.7V21.9c0-1.5,1.2-2.7,2.7-2.7h71.3c1.5,0,2.7,1.2,2.7,2.7v58.9c0,0.8,0.6,1.4,1.4,1.4
				c0.8,0,1.4-0.6,1.4-1.4V21.9C82.2,18.9,79.8,16.4,76.8,16.4z"/>
		</g>
	</g>
	<g id="blue_10_" opacity="0.5">
		<g>
			<path fill-rule="evenodd" clip-rule="evenodd" fill="#FFFFFF" d="M23.3,24.7c-0.8,0-1.4,0.6-1.4,1.4v46.6c0,0.8,0.6,1.4,1.4,1.4
				c0.8,0,1.4-0.6,1.4-1.4V26C24.7,25.3,24.1,24.7,23.3,24.7z M15.1,24.7c-0.8,0-1.4,0.6-1.4,1.4v46.6c0,0.8,0.6,1.4,1.4,1.4
				s1.4-0.6,1.4-1.4V26C16.4,25.3,15.8,24.7,15.1,24.7z M67.2,24.7c-0.8,0-1.4,0.6-1.4,1.4v46.6c0,0.8,0.6,1.4,1.4,1.4
				c0.8,0,1.4-0.6,1.4-1.4V26C68.5,25.3,67.9,24.7,67.2,24.7z M58.9,24.7c-0.8,0-1.4,0.6-1.4,1.4v46.6c0,0.8,0.6,1.4,1.4,1.4
				s1.4-0.6,1.4-1.4V26C60.3,25.3,59.7,24.7,58.9,24.7z"/>
		</g>
	</g>
</g>
</svg>
