<?xml version="1.0" encoding="utf-8"?>
<!-- Generator: Adobe Illustrator 18.0.0, SVG Export Plug-In . SVG Version: 6.00 Build 0)  -->
<!DOCTYPE svg PUBLIC "-//W3C//DTD SVG 1.1//EN" "http://www.w3.org/Graphics/SVG/1.1/DTD/svg11.dtd">
<svg version="1.1" id="Слой_1" xmlns="http://www.w3.org/2000/svg" xmlns:xlink="http://www.w3.org/1999/xlink" x="0px" y="0px"
	 viewBox="0 0 631.6 97" enable-background="new 0 0 631.6 97" xml:space="preserve">
<g opacity="0.5">
	<path fill-rule="evenodd" clip-rule="evenodd" fill="#FFFFFF" d="M47.2,23.4c-5,0-9.6,1.8-13.2,4.7c-3.6-3-8.2-4.7-13.2-4.7
		c-11.2,0-20.3,8.9-20.7,19.9H0v24.5h20.6v-3.3V43.3v-3.9h2.5v3.9v21v3.5h20.5v-4.3V43.3v-3.9h2.4v24.3h0v4h21.9V43.3h-0.1
		C67.6,32.3,58.5,23.4,47.2,23.4z"/>
	<path fill-rule="evenodd" clip-rule="evenodd" fill="#FFFFFF" d="M70.4,48c0,10.5,7.9,19.1,17.9,19.7V28.3
		C78.4,29,70.4,37.5,70.4,48z"/>
	<path fill-rule="evenodd" clip-rule="evenodd" fill="#FFFFFF" d="M90.8,28.3v39.4c10-0.7,17.9-9.2,17.9-19.7
		C108.7,37.5,100.8,29,90.8,28.3z"/>
	<path fill-rule="evenodd" clip-rule="evenodd" fill="#FFFFFF" d="M170.2,28.2v39.4c10-0.7,17.9-9.2,17.9-19.7
		C188.1,37.5,180.2,28.9,170.2,28.2z"/>
	<path fill-rule="evenodd" clip-rule="evenodd" fill="#FFFFFF" d="M149.9,48c0,10.5,7.9,19.1,17.9,19.7V28.2
		C157.8,28.9,149.9,37.5,149.9,48z"/>
	<path fill-rule="evenodd" clip-rule="evenodd" fill="#FFFFFF" d="M130.3,28.2c0,0-0.1,0-0.1,0c-10.4,0-18.8,8.2-18.8,18.3
		c0,0.4,0,0.8,0.1,1.1v20.1H128V46h0v-3.5h2.3v22.3c0,0,0,0,0,0v3h16.9V54.2V47V46v-7.1V28.2L130.3,28.2L130.3,28.2z"/>
	<path fill-rule="evenodd" clip-rule="evenodd" fill="#FFFFFF" d="M232.1,28.3c-4.4,0-8.4,1.6-11.6,4.2c-3.1-2.6-7-4.2-11.4-4.2l0,0
		h-18.4v18.9h0v20.7h18v-3V46v-3.5h2.2V46v18.7v3.1h17.9V64V46v-3.5h2.1V46l0,0v21.8h19.2V46h-0.1C250,36.2,242,28.3,232.1,28.3z"/>
	<polygon fill-rule="evenodd" clip-rule="evenodd" fill="#FFFFFF" points="532.3,41.7 529.1,41.7 529.1,28.2 512.9,28.2 512.9,41.7 
		509.9,41.7 509.9,28.2 491.7,28.2 491.7,67.7 509.9,67.7 509.9,49.9 512.9,49.9 512.9,67.7 529.1,67.7 529.1,49.9 532.3,49.9 
		532.3,67.7 550.1,67.7 550.1,28.2 532.3,28.2 	"/>
	<path fill-rule="evenodd" clip-rule="evenodd" fill="#FFFFFF" d="M571.6,31.2L571.6,31.2l0,22.3h-2.3v-4.6l0-20.7h-16.7V50h0
		c0,10.1,8.4,17.8,18.7,17.8c0,0,0.1,0,0.1,0v0l17,0V57.1V50v-1.1v-7.1V28.2h-16.9V31.2z"/>
	<path fill-rule="evenodd" clip-rule="evenodd" fill="#FFFFFF" d="M609.6,46.8h22c-0.6-10.4-9.4-18.6-20.2-18.6
		c-11.2,0-20.2,8.9-20.2,19.8c0,10.9,9.1,19.8,20.3,19.8c10.6,0,19.3-7.9,20.2-18.1h-21.9V46.8z"/>
	<rect x="407.7" y="28.2" fill-rule="evenodd" clip-rule="evenodd" fill="#FFFFFF" width="17.7" height="51.9"/>
	<path fill-rule="evenodd" clip-rule="evenodd" fill="#FFFFFF" d="M428.3,28.2l0,39.5c9.7-1.2,18.4-9.1,18.4-19.8
		C446.7,35.7,438.1,29.2,428.3,28.2z"/>
	<path fill-rule="evenodd" clip-rule="evenodd" fill="#FFFFFF" d="M470.8,30.2l-0.2,13.9h-2.3v-6.6h0v-9.3h-19l0,6.8l0,0
		c0,11,9.1,19.2,20.4,19.2c0.5,0,1,0,1.4-0.1v3h-20c3.4,6.3,10.2,10.6,18,10.6c10.1,0,18.5-7.2,20.1-16.6V28.2h-18.4L470.8,30.2z"/>
	<path fill-rule="evenodd" clip-rule="evenodd" fill="#FFFFFF" d="M359.7,8l0-8h-6.1l0,0v8c-20.6,1.3-37.4,17.3-38.7,37.4l-6.7,0
		v6.1h6.8c1.9,19.6,18.4,34.9,38.6,36.2V97h6.1l0-9.4c19.8-1.6,35.9-16.8,37.7-36.1h7.7v-6.1l-7.6,0C396.2,25.5,379.8,9.7,359.7,8z
		 M332.3,36.8l3,0.1L347,27l-0.1-2.6l-0.4,0c2.2-0.8,4.5-1.3,6.9-1.5v7.3c-7.6,1.4-13.5,7.5-14.7,15.2l-9.1,0
		C330.1,42.3,330.9,39.4,332.3,36.8z M380,58.9l-3.1-0.1l-11.7,9.9l0,2.6l0.3,0c-1.9,0.7-3.8,1.1-5.9,1.4l0-6.6
		c6.5-1.1,11.9-5.6,14.2-11.7H367c-2.1,3.4-5.9,5.7-10.2,5.7c-5.3,0-9.8-3.4-11.4-8.2H339c1.5,7.2,7.3,12.8,14.5,14.2v6.8
		c-2.2-0.2-4.3-0.6-6.3-1.3l0.1,0l0.1-2.6L335.6,59l-3.1,0.1l0,0.1c-1.3-2.4-2.2-5-2.6-7.7h5.8c-0.3-0.2-0.6-0.6-0.6-1
		c0-0.2,0-0.3,0.1-0.4c0.3-0.8,0.6-1.5,1-2.4c0.2-0.4,0.6-0.7,1.1-0.7h0h5.9l0.4-1.1c-0.3-0.2-0.4-0.5-0.4-0.9c0-0.2,0-0.3,0.1-0.5
		c0.3-0.7,0.6-1.5,1-2.4c0.2-0.4,0.6-0.7,1.1-0.7c0,0,0,0,0,0h1.3c2.1-3.4,5.9-5.6,10.2-5.6c6.6,0,12,5.4,12,12c0,0.6,0,1.1-0.1,1.6
		h7.3c0.6,0,1.2,0.5,1.2,1.2c0,0.2-0.1,0.4-0.2,0.6c0,0.1-0.1,0.2-0.1,0.2h5.5C382,54.1,381.2,56.6,380,58.9z M374.8,45.3
		c-1.2-7.8-7.3-14-15.1-15.3l0-7.1c2,0.2,3.9,0.7,5.7,1.3l-0.1,2.5l11.7,9.9l2.9-0.1c1.4,2.7,2.3,5.6,2.6,8.7L374.8,45.3z"/>
	<path fill-rule="evenodd" clip-rule="evenodd" fill="#FFFFFF" d="M351.8,44.1L351.8,44.1l-2,0l-2,0l-0.3,0.7l-0.3,0.7h2.2
		c1.4,0,2.2,0,2.3,0c0.3-0.1,0.6-0.5,0.6-0.9C352.2,44.5,352,44.1,351.8,44.1z"/>
	<path fill-rule="evenodd" clip-rule="evenodd" fill="#FFFFFF" d="M367.3,50.7c0.2-0.9,0.4-1.8,0.4-2.8c0-6-4.9-10.8-10.8-10.8
		c-4.1,0-7.7,2.3-9.5,5.6h-1.8h-0.2l-0.1,0.2l-0.8,1.9l-0.2,0.4h0.4h0.5l-1.3,3.1h-6.5h-0.2l-0.1,0.2l-0.8,1.9l-0.2,0.4h0.4h9.6
		c1.2,4.7,5.4,8.2,10.5,8.2c4.1,0,7.7-2.3,9.5-5.7h8.1h0.1l0.1-0.1l1.1-1.9l0.2-0.4h-0.5H367.3z M356.9,38.6L356.9,38.6
		c5.1,0,9.2,4.1,9.2,9.2c0,1-0.2,1.9-0.4,2.8h-3.6c0.4-0.8,0.7-1.8,0.7-2.8c0-3.3-2.6-5.9-5.9-5.9c-1.2,0-2.3,0.4-3.2,1
		c-0.1-0.1-0.3-0.2-0.5-0.3h0h0h0h0h0l0,0h0h0h0h0h0h0h-3.3h0h-0.4C350.9,40.2,353.7,38.6,356.9,38.6z M356.9,57
		c-4.2,0-7.7-2.8-8.8-6.5h1.3h2.2c0.4,0.7,0.9,1.4,1.5,1.9l-0.1,0.2l-0.1,0.4h0.4h0.8c0.9,0.5,1.8,0.8,2.9,0.8c1,0,2-0.3,2.9-0.8
		c0,0,0,0,0,0h4.7C362.8,55.5,360,57,356.9,57z M374.3,52.5h-14.6h-1.5h-0.1l0.5-1.2l0.1-0.3l0.1-0.3l0,0v0c0-0.2,0-0.4-0.1-0.5
		c-0.1-0.1-0.2-0.1-0.3-0.2h0h0h-2.2h-0.2l-0.1,0.2l-0.6,1.4l-0.1,0.2l-0.3,0.8h-1.4l0.6-1.5l0.3-0.7l0.1-0.4h-0.4h-4.9h-12.2
		l0.5-1.3h6.5h0.2l0.1-0.2l1.4-3.5l0.1-0.2l0.2-0.4h-0.4h-0.5l0.5-1.3h4h0h3.3h0h0h0c0.2,0,0.3,0.2,0.5,0.5c0.1,0.3,0.2,0.7,0.2,1.1
		c0,0.8-0.4,1.3-0.8,1.5l-0.4,0.2l0.4,0.3c0,0,0,0,0,0c0.4,0.3,0.6,1,0.3,1.6l-0.2,0.4h0.4h5.4h0h0h0.7h0h0c0.5,0,0.9,0.2,1,0.3
		c0.1,0.2,0.2,0.5,0,1.1l0,0.1l-0.3,0.7l-0.2,0.4h0.4h14.6L374.3,52.5z"/>
	<path fill-rule="evenodd" clip-rule="evenodd" fill="#FFFFFF" d="M350.7,46.7h-1.8h-2l-0.3,0.8c-0.2,0.4-0.3,0.8-0.3,0.8
		c0,0,0.4,0,2.4,0c1.1,0,1.5,0,1.6,0c0,0,0.2,0,0,0c0,0,0,0,0,0c0.2,0,0.2,0,0.6,0c0.3,0,0.6-0.5,0.7-0.8
		C351.4,47,351.1,46.7,350.7,46.7z"/>
	<rect x="268.7" y="44.4" fill-rule="evenodd" clip-rule="evenodd" fill="#FFFFFF" width="21" height="7.5"/>
</g>
</svg>
