<?xml version="1.0" encoding="utf-8"?>
<!-- Generator: Adobe Illustrator 18.0.0, SVG Export Plug-In . SVG Version: 6.00 Build 0)  -->
<!DOCTYPE svg PUBLIC "-//W3C//DTD SVG 1.1//EN" "http://www.w3.org/Graphics/SVG/1.1/DTD/svg11.dtd">
<svg version="1.1" id="Слой_1" xmlns="http://www.w3.org/2000/svg" xmlns:xlink="http://www.w3.org/1999/xlink" x="0px" y="0px"
	 viewBox="129.9 270.6 310 47.6" enable-background="new 129.9 270.6 310 47.6" xml:space="preserve">
<g opacity="0.5">
	<path fill="#FFFFFF" d="M153,282.1c-2.5,0-4.7,0.9-6.5,2.3c-1.8-1.5-4-2.3-6.5-2.3c-5.5,0-10,4.4-10.2,9.8h0v12H140v-1.6v-10.4
		v-1.9h1.2v1.9v10.3v1.7h10.1v-2.1v-9.9v-1.9h1.2v11.9l0,0v2h10.7v-12h0C163,286.4,158.6,282.1,153,282.1z"/>
	<path fill="#FFFFFF" d="M164.4,294.1c0,5.2,3.9,9.4,8.8,9.7v-19.3C168.3,284.8,164.4,289,164.4,294.1z"/>
	<path fill="#FFFFFF" d="M174.4,284.5v19.3c4.9-0.3,8.8-4.5,8.8-9.7C183.2,289,179.3,284.8,174.4,284.5z"/>
	<path fill="#FFFFFF" d="M213.4,284.4v19.3c4.9-0.3,8.8-4.5,8.8-9.7C222.2,289,218.3,284.8,213.4,284.4z"/>
	<path fill="#FFFFFF" d="M203.4,294.1c0,5.2,3.9,9.4,8.8,9.7v-19.4C207.3,284.8,203.4,289,203.4,294.1z"/>
	<path fill="#FFFFFF" d="M193.8,284.4L193.8,284.4c-5.2,0-9.3,4-9.3,9c0,0.2,0,0.4,0,0.5v9.9h8.1v-10.6l0,0v-1.7h1.1v10.9l0,0v1.5
		h8.3v-6.7v-3.5v-0.5v-3.5v-5.3H193.8L193.8,284.4z"/>
	<path fill="#FFFFFF" d="M243.8,284.5c-2.2,0-4.1,0.8-5.7,2.1c-1.5-1.3-3.4-2.1-5.6-2.1l0,0h-9v9.3l0,0v10.2h8.8v-1.5v-9.3v-1.7h1.1
		v1.7v9.2v1.5h8.8V302v-8.8v-1.7h1v1.7l0,0v10.7h9.4v-10.7h0C252.5,288.3,248.6,284.5,243.8,284.5z"/>
	<polygon fill="#FFFFFF" points="391.1,291 389.5,291 389.5,284.4 381.6,284.4 381.6,291 380.1,291 380.1,284.4 371.2,284.4 
		371.2,303.8 380.1,303.8 380.1,295.1 381.6,295.1 381.6,303.8 389.5,303.8 389.5,295.1 391.1,295.1 391.1,303.8 399.8,303.8 
		399.8,284.4 391.1,284.4 	"/>
	<path fill="#FFFFFF" d="M410.4,285.9L410.4,285.9v10.9h-1.1v-2.3v-10.2H401v10.7l0,0c0,5,4.1,8.7,9.2,8.7h0l0,0h8.3v-5.3v-3.5v-0.5
		v-3.5v-6.7h-8.3L410.4,285.9L410.4,285.9z"/>
	<path fill="#FFFFFF" d="M429,293.5h10.8c-0.3-5.1-4.6-9.1-9.9-9.1c-5.5,0-9.9,4.4-9.9,9.7s4.5,9.7,10,9.7c5.2,0,9.5-3.9,9.9-8.9
		h-10.7L429,293.5L429,293.5z"/>
	<rect x="329.9" y="284.4" fill="#FFFFFF" width="8.7" height="25.5"/>
	<path fill="#FFFFFF" d="M340,284.4v19.4c4.8-0.6,9-4.5,9-9.7C349.1,288.1,344.8,284.9,340,284.4z"/>
	<path fill="#FFFFFF" d="M360.9,285.4l-0.1,6.8h-1.1V289l0,0v-4.6h-9.3v3.3l0,0c0,5.4,4.5,9.4,10,9.4c0.2,0,0.5,0,0.7,0v1.5h-9.8
		c1.7,3.1,5,5.2,8.8,5.2c5,0,9.1-3.5,9.9-8.1v-11.2h-9V285.4z"/>
	<path fill="#FFFFFF" d="M306.4,274.5v-3.9h-3l0,0v3.9c-10.1,0.6-18.4,8.5-19,18.4h-3.3v3h3.3c0.9,9.6,9,17.1,18.9,17.8v4.6h3v-4.6
		c9.7-0.8,17.6-8.2,18.5-17.7h3.8v-3h-3.7C324.3,283.1,316.2,275.3,306.4,274.5z M292.9,288.6l1.5,0l5.7-4.9l0-1.3h-0.2
		c1.1-0.4,2.2-0.6,3.4-0.7v3.6c-3.7,0.7-6.6,3.7-7.2,7.5h-4.5C291.8,291.3,292.2,289.9,292.9,288.6z M316.3,299.5l-1.5,0l-5.7,4.9
		v1.3h0.1c-0.9,0.3-1.9,0.5-2.9,0.7V303c3.2-0.5,5.8-2.7,7-5.7H310c-1,1.7-2.9,2.8-5,2.8c-2.6,0-4.8-1.7-5.6-4h-3.1
		c0.7,3.5,3.6,6.3,7.1,7v3.3c-1.1-0.1-2.1-0.3-3.1-0.6h0l0-1.3l-5.8-4.9l-1.5,0v0c-0.6-1.2-1.1-2.5-1.3-3.8h2.8
		c-0.1-0.1-0.3-0.3-0.3-0.5c0-0.1,0-0.1,0-0.2c0.1-0.4,0.3-0.7,0.5-1.2c0.1-0.2,0.3-0.3,0.5-0.3l0,0h2.9l0.2-0.5
		c-0.1-0.1-0.2-0.2-0.2-0.4c0-0.1,0-0.1,0-0.2c0.1-0.3,0.3-0.7,0.5-1.2c0.1-0.2,0.3-0.3,0.5-0.3l0,0h0.6c1-1.7,2.9-2.7,5-2.7
		c3.2,0,5.9,2.6,5.9,5.9c0,0.3,0,0.5,0,0.8h3.6c0.3,0,0.6,0.2,0.6,0.6c0,0.1,0,0.2-0.1,0.3c0,0,0,0.1,0,0.1h2.7
		C317.3,297.1,316.9,298.3,316.3,299.5z M313.8,292.8c-0.6-3.8-3.6-6.9-7.4-7.5v-3.5c1,0.1,1.9,0.3,2.8,0.6l0,1.2l5.7,4.9l1.4,0
		c0.7,1.3,1.1,2.7,1.3,4.3L313.8,292.8z"/>
	<path fill="#FFFFFF" d="M302.5,292.2L302.5,292.2h-1h-1l-0.1,0.3l-0.1,0.3h1.1c0.7,0,1.1,0,1.1,0c0.1,0,0.3-0.2,0.3-0.4
		C302.7,292.4,302.6,292.2,302.5,292.2z"/>
	<path fill="#FFFFFF" d="M310.1,295.5c0.1-0.4,0.2-0.9,0.2-1.4c0-2.9-2.4-5.3-5.3-5.3c-2,0-3.8,1.1-4.7,2.7h-0.9h-0.1l0,0.1
		l-0.4,0.9l-0.1,0.2h0.2h0.2l-0.6,1.5h-3.2h-0.1l0,0.1l-0.4,0.9l-0.1,0.2h0.2h4.7c0.6,2.3,2.6,4,5.2,4c2,0,3.8-1.1,4.7-2.8h4h0l0,0
		l0.5-0.9l0.1-0.2H314L310.1,295.5L310.1,295.5z M305,289.5L305,289.5c2.5,0,4.5,2,4.5,4.5c0,0.5-0.1,0.9-0.2,1.4h-1.8
		c0.2-0.4,0.3-0.9,0.3-1.4c0-1.6-1.3-2.9-2.9-2.9c-0.6,0-1.1,0.2-1.6,0.5c0,0-0.1-0.1-0.2-0.1l0,0l0,0l0,0l0,0l0,0l0,0l0,0l0,0l0,0
		l0,0l0,0l0,0h-1.6l0,0h-0.2C302.1,290.3,303.4,289.5,305,289.5z M305,298.5c-2.1,0-3.8-1.4-4.3-3.2h0.6h1.1
		c0.2,0.3,0.4,0.7,0.7,0.9l0,0.1l0,0.2h0.2h0.4c0.4,0.2,0.9,0.4,1.4,0.4c0.5,0,1-0.1,1.4-0.4l0,0h2.3
		C307.9,297.8,306.5,298.5,305,298.5z M313.5,296.3h-7.2h-0.7h0l0.2-0.6l0-0.1l0-0.1l0,0l0,0c0-0.1,0-0.2,0-0.2c0,0-0.1,0-0.1-0.1
		l0,0l0,0h-1.1h-0.1l0,0.1l-0.3,0.7l0,0.1l-0.1,0.4h-0.7l0.3-0.7l0.1-0.3l0-0.2h-0.2h-2.4h-6l0.2-0.6h3.2h0.1l0-0.1l0.7-1.7l0-0.1
		l0.1-0.2h-0.2h-0.2l0.2-0.6h2l0,0h1.6l0,0l0,0l0,0c0.1,0,0.1,0.1,0.2,0.2c0,0.1,0.1,0.3,0.1,0.5c0,0.4-0.2,0.6-0.4,0.7l-0.2,0.1
		l0.2,0.1l0,0c0.2,0.1,0.3,0.5,0.1,0.8l-0.1,0.2h0.2h2.6l0,0l0,0h0.3l0,0l0,0c0.2,0,0.4,0.1,0.5,0.1c0,0.1,0.1,0.2,0,0.5v0l-0.1,0.3
		l-0.1,0.2h0.2h7.2L313.5,296.3z"/>
	<path fill="#FFFFFF" d="M302,293.5h-0.9h-1l-0.1,0.4c-0.1,0.2-0.1,0.4-0.1,0.4s0.2,0,1.2,0c0.5,0,0.7,0,0.8,0c0,0,0.1,0,0,0l0,0
		c0.1,0,0.1,0,0.3,0c0.1,0,0.3-0.2,0.3-0.4C302.3,293.6,302.2,293.5,302,293.5z"/>
	<rect x="261.7" y="292.4" fill="#FFFFFF" width="10.3" height="3.7"/>
</g>
</svg>
