<?xml version="1.0" encoding="utf-8"?>
<!-- Generator: Adobe Illustrator 18.0.0, SVG Export Plug-In . SVG Version: 6.00 Build 0)  -->
<!DOCTYPE svg PUBLIC "-//W3C//DTD SVG 1.1//EN" "http://www.w3.org/Graphics/SVG/1.1/DTD/svg11.dtd">
<svg version="1.1" id="Слой_1" xmlns="http://www.w3.org/2000/svg" xmlns:xlink="http://www.w3.org/1999/xlink" x="0px" y="0px"
	 viewBox="332.7 552.2 290 44.6" enable-background="new 332.7 552.2 290 44.6" xml:space="preserve">
<g opacity="0.5">
	<path fill="#FFFFFF" d="M354.4,562.9c-2.3,0-4.4,0.8-6.1,2.2c-1.7-1.4-3.7-2.2-6.1-2.2c-5.1,0-9.4,4.1-9.5,9.2l0,0v11.2h9.5v-1.5
		v-9.7v-1.8h1.1v1.8v9.6v1.6h9.4v-2v-9.3v-1.8h1.1v11.1l0,0v1.9h10v-11.2l0,0C363.8,567,359.6,562.9,354.4,562.9z"/>
	<path fill="#FFFFFF" d="M365.1,574.2c0,4.9,3.6,8.8,8.2,9.1v-18C368.7,565.5,365.1,569.4,365.1,574.2z"/>
	<path fill="#FFFFFF" d="M374.4,565.2v18c4.6-0.3,8.2-4.2,8.2-9.1C382.6,569.4,379,565.5,374.4,565.2z"/>
	<path fill="#FFFFFF" d="M410.9,565.1v18c4.6-0.3,8.2-4.2,8.2-9.1C419.1,569.4,415.5,565.5,410.9,565.1z"/>
	<path fill="#FFFFFF" d="M401.5,574.2c0,4.9,3.6,8.8,8.2,9.1v-18.1C405.2,565.5,401.5,569.4,401.5,574.2z"/>
	<path fill="#FFFFFF" d="M392.6,565.1L392.6,565.1c-4.9,0-8.7,3.7-8.7,8.4c0,0.2,0,0.4,0,0.5v9.3h7.6v-9.9l0,0v-1.6h1v10.2l0,0v1.4
		h7.8v-6.3v-3.3v-0.5v-3.3v-5L392.6,565.1L392.6,565.1z"/>
	<path fill="#FFFFFF" d="M439.3,565.2c-2.1,0-3.8,0.7-5.3,2c-1.4-1.2-3.2-2-5.2-2l0,0h-8.4v8.7l0,0v9.5h8.2V582v-8.7v-1.6h1v1.6v8.6
		v1.4h8.2v-1.8v-8.2v-1.6h0.9v1.6l0,0v10h8.8v-10l0,0C447.5,568.7,443.8,565.2,439.3,565.2z"/>
	<polygon fill="#FFFFFF" points="577.1,571.3 575.6,571.3 575.6,565.1 568.2,565.1 568.2,571.3 566.8,571.3 566.8,565.1 
		558.5,565.1 558.5,583.2 566.8,583.2 566.8,575.1 568.2,575.1 568.2,583.2 575.6,583.2 575.6,575.1 577.1,575.1 577.1,583.2 
		585.2,583.2 585.2,565.1 577.1,565.1 	"/>
	<path fill="#FFFFFF" d="M595.1,566.5L595.1,566.5v10.2h-1v-2.2V565h-7.8v10l0,0c0,4.7,3.8,8.1,8.6,8.1l0,0l0,0h7.8v-5v-3.3v-0.5
		v-3.3v-6.3h-7.8L595.1,566.5L595.1,566.5z"/>
	<path fill="#FFFFFF" d="M612.5,573.6h10.1c-0.3-4.8-4.3-8.5-9.3-8.5c-5.1,0-9.3,4.1-9.3,9.1s4.2,9.1,9.4,9.1c4.9,0,8.9-3.6,9.3-8.3
		h-10L612.5,573.6L612.5,573.6z"/>
	<rect x="519.8" y="565.1" fill="#FFFFFF" width="8.1" height="23.8"/>
	<path fill="#FFFFFF" d="M529.3,565.1v18.1c4.5-0.6,8.4-4.2,8.4-9.1C537.8,568.6,533.8,565.6,529.3,565.1z"/>
	<path fill="#FFFFFF" d="M548.8,566l-0.1,6.4h-1v-3l0,0v-4.3H539v3.1l0,0c0,5,4.2,8.8,9.4,8.8c0.2,0,0.5,0,0.7,0v1.4h-9.2
		c1.6,2.9,4.7,4.9,8.2,4.9c4.7,0,8.5-3.3,9.3-7.6v-10.5h-8.4L548.8,566L548.8,566z"/>
	<path fill="#FFFFFF" d="M497.9,555.8v-3.6h-2.8l0,0v3.6c-9.4,0.6-17.2,7.9-17.8,17.2h-3.1v2.8h3.1c0.8,9,8.4,16,17.7,16.6v4.3h2.8
		v-4.3c9.1-0.7,16.5-7.7,17.3-16.6h3.6v-2.8h-3.5C514.6,563.9,507,556.6,497.9,555.8z M485.2,569h1.4l5.3-4.6v-1.2h-0.2
		c1-0.4,2.1-0.6,3.2-0.7v3.4c-3.5,0.7-6.2,3.5-6.7,7H484C484.2,571.6,484.6,570.2,485.2,569z M507.1,579.2h-1.4l-5.3,4.6v1.2h0.1
		c-0.8,0.3-1.8,0.5-2.7,0.7v-3.2c3-0.5,5.4-2.5,6.5-5.3h-3.1c-0.9,1.6-2.7,2.6-4.7,2.6c-2.4,0-4.5-1.6-5.2-3.7h-2.9
		c0.7,3.3,3.4,5.9,6.6,6.5v3.1c-1-0.1-2-0.3-2.9-0.6l0,0v-1.2l-5.4-4.6h-1.4l0,0c-0.6-1.1-1-2.3-1.2-3.6h2.6
		c-0.1-0.1-0.3-0.3-0.3-0.5c0-0.1,0-0.1,0-0.2c0.1-0.4,0.3-0.7,0.5-1.1c0.1-0.2,0.3-0.3,0.5-0.3l0,0h2.7l0.2-0.5
		c-0.1-0.1-0.2-0.2-0.2-0.4c0-0.1,0-0.1,0-0.2c0.1-0.3,0.3-0.7,0.5-1.1c0.1-0.2,0.3-0.3,0.5-0.3l0,0h0.6c0.9-1.6,2.7-2.5,4.7-2.5
		c3,0,5.5,2.4,5.5,5.5c0,0.3,0,0.5,0,0.7h3.4c0.3,0,0.6,0.2,0.6,0.6c0,0.1,0,0.2-0.1,0.3v0.1h2.5C508.1,577,507.7,578.1,507.1,579.2
		z M504.8,573c-0.6-3.6-3.4-6.5-6.9-7v-3.3c0.9,0.1,1.8,0.3,2.6,0.6v1.1l5.3,4.6h1.3c0.7,1.2,1,2.5,1.2,4H504.8z"/>
	<path fill="#FFFFFF" d="M494.2,572.4L494.2,572.4h-0.9h-0.9l-0.1,0.3l-0.1,0.3h1c0.7,0,1,0,1,0c0.1,0,0.3-0.2,0.3-0.4
		C494.4,572.6,494.3,572.4,494.2,572.4z"/>
	<path fill="#FFFFFF" d="M501.3,575.5c0.1-0.4,0.2-0.8,0.2-1.3c0-2.7-2.2-5-5-5c-1.9,0-3.6,1-4.4,2.5h-0.8h-0.1v0.1l-0.4,0.8
		l-0.1,0.2h0.2h0.2l-0.6,1.4h-3h-0.1v0.1l-0.4,0.8l-0.1,0.2h0.2h4.4c0.6,2.2,2.4,3.7,4.9,3.7c1.9,0,3.6-1,4.4-2.6h3.7l0,0l0,0
		l0.5-0.8l0.1-0.2H505L501.3,575.5L501.3,575.5z M496.6,569.9L496.6,569.9c2.3,0,4.2,1.9,4.2,4.2c0,0.5-0.1,0.8-0.2,1.3h-1.7
		c0.2-0.4,0.3-0.8,0.3-1.3c0-1.5-1.2-2.7-2.7-2.7c-0.6,0-1,0.2-1.5,0.5c0,0-0.1-0.1-0.2-0.1l0,0l0,0l0,0l0,0l0,0l0,0l0,0l0,0l0,0
		l0,0l0,0l0,0h-1.5l0,0h-0.2C493.8,570.6,495.1,569.9,496.6,569.9z M496.6,578.3c-2,0-3.6-1.3-4-3h0.6h1c0.2,0.3,0.4,0.7,0.7,0.8
		v0.1v0.2h0.2h0.4c0.4,0.2,0.8,0.4,1.3,0.4s0.9-0.1,1.3-0.4l0,0h2.2C499.3,577.6,498,578.3,496.6,578.3z M504.5,576.2h-6.7h-0.7l0,0
		l0.2-0.6v-0.1v-0.1l0,0l0,0c0-0.1,0-0.2,0-0.2s-0.1,0-0.1-0.1l0,0l0,0h-1h-0.1v0.1l-0.3,0.7v0.1l-0.1,0.4h-0.7l0.3-0.7l0.1-0.3
		v-0.2h-0.2H493h-5.6l0.2-0.6h3h0.1v-0.1l0.7-1.6V573l0.1-0.2h-0.2H491l0.2-0.6h1.9l0,0h1.5l0,0l0,0l0,0c0.1,0,0.1,0.1,0.2,0.2
		c0,0.1,0.1,0.3,0.1,0.5c0,0.4-0.2,0.6-0.4,0.7l-0.2,0.1l0.2,0.1l0,0c0.2,0.1,0.3,0.5,0.1,0.7l-0.1,0.2h0.2h2.4l0,0l0,0h0.3l0,0l0,0
		c0.2,0,0.4,0.1,0.5,0.1c0,0.1,0.1,0.2,0,0.5l0,0l-0.1,0.3l-0.1,0.2h0.2h6.7L504.5,576.2z"/>
	<path fill="#FFFFFF" d="M493.7,573.6h-0.8H492l-0.1,0.4c-0.1,0.2-0.1,0.4-0.1,0.4s0.2,0,1.1,0c0.5,0,0.7,0,0.7,0c0,0,0.1,0,0,0l0,0
		c0.1,0,0.1,0,0.3,0c0.1,0,0.3-0.2,0.3-0.4C494,573.7,493.9,573.6,493.7,573.6z"/>
	<rect x="456.1" y="572.6" fill="#FFFFFF" width="9.6" height="3.5"/>
</g>
</svg>
