<?xml version="1.0" encoding="utf-8"?>
<!-- Generator: Adobe Illustrator 18.0.0, SVG Export Plug-In . SVG Version: 6.00 Build 0)  -->
<!DOCTYPE svg PUBLIC "-//W3C//DTD SVG 1.1//EN" "http://www.w3.org/Graphics/SVG/1.1/DTD/svg11.dtd">
<svg version="1.1" id="Слой_1" xmlns="http://www.w3.org/2000/svg" xmlns:xlink="http://www.w3.org/1999/xlink" x="0px" y="0px"
	 viewBox="0 0 82.2 82.2" enable-background="new 0 0 82.2 82.2" xml:space="preserve">
<g>
	<g id="black_2_">
		<g>
			<path fill-rule="evenodd" clip-rule="evenodd" fill="#FFFFFF" d="M74,32.9c-4.5,0-8.2,3.7-8.2,8.2c0,4.5,3.7,8.2,8.2,8.2
				c4.5,0,8.2-3.7,8.2-8.2C82.2,36.6,78.6,32.9,74,32.9z M74,46.6c-3,0-5.5-2.5-5.5-5.5c0-3,2.5-5.5,5.5-5.5c3,0,5.5,2.5,5.5,5.5
				C79.5,44.2,77,46.6,74,46.6z M8.2,32.9c-4.5,0-8.2,3.7-8.2,8.2c0,4.5,3.7,8.2,8.2,8.2c4.5,0,8.2-3.7,8.2-8.2
				C16.4,36.6,12.8,32.9,8.2,32.9z M8.2,46.6c-3,0-5.5-2.5-5.5-5.5c0-3,2.5-5.5,5.5-5.5c3,0,5.5,2.5,5.5,5.5
				C13.7,44.2,11.3,46.6,8.2,46.6z M41.1,0c-4.5,0-8.2,3.7-8.2,8.2s3.7,8.2,8.2,8.2c4.5,0,8.2-3.7,8.2-8.2S45.7,0,41.1,0z
				 M41.1,13.7c-3,0-5.5-2.5-5.5-5.5c0-3,2.5-5.5,5.5-5.5c3,0,5.5,2.5,5.5,5.5C46.6,11.3,44.2,13.7,41.1,13.7z M41.1,65.8
				c-4.5,0-8.2,3.7-8.2,8.2s3.7,8.2,8.2,8.2c4.5,0,8.2-3.7,8.2-8.2S45.7,65.8,41.1,65.8z M41.1,79.5c-3,0-5.5-2.5-5.5-5.5
				c0-3,2.5-5.5,5.5-5.5c3,0,5.5,2.5,5.5,5.5C46.6,77,44.2,79.5,41.1,79.5z"/>
		</g>
	</g>
	<g id="blue_2_" opacity="0.5">
		<g>
			<path fill-rule="evenodd" clip-rule="evenodd" fill="#FFFFFF" d="M27.9,19.5l-8.4,8.4c-0.5,0.5-0.5,1.3,0,1.9
				c0.5,0.5,1.3,0.5,1.9,0l8.4-8.4c0.5-0.5,0.5-1.3,0-1.9C29.3,19,28.4,19,27.9,19.5z M60.8,29.8c0.5,0.5,1.3,0.5,1.9,0
				c0.5-0.5,0.5-1.3,0-1.9l-8.3-8.3c-0.5-0.5-1.3-0.5-1.9,0c-0.5,0.5-0.5,1.3,0,1.9L60.8,29.8z M60.8,52.5l-8.4,8.3
				c-0.5,0.5-0.5,1.3,0,1.9c0.5,0.5,1.3,0.5,1.9,0l8.4-8.3c0.5-0.5,0.5-1.3,0-1.9C62.1,52,61.3,52,60.8,52.5z M21.4,52.5
				c-0.5-0.5-1.3-0.5-1.8,0c-0.5,0.5-0.5,1.3,0,1.8l8.3,8.3c0.5,0.5,1.3,0.5,1.8,0c0.5-0.5,0.5-1.3,0-1.8L21.4,52.5z"/>
		</g>
	</g>
</g>
</svg>
